<?xml version="1.0" encoding="utf-8"?>
<!-- Generator: Adobe Illustrator 25.0.0, SVG Export Plug-In . SVG Version: 6.00 Build 0)  -->
<!DOCTYPE svg PUBLIC "-//W3C//DTD SVG 1.1//EN" "http://www.w3.org/Graphics/SVG/1.1/DTD/svg11.dtd" [
	<!ENTITY ns_extend "http://ns.adobe.com/Extensibility/1.0/">
	<!ENTITY ns_ai "http://ns.adobe.com/AdobeIllustrator/10.0/">
	<!ENTITY ns_graphs "http://ns.adobe.com/Graphs/1.0/">
	<!ENTITY ns_vars "http://ns.adobe.com/Variables/1.0/">
	<!ENTITY ns_imrep "http://ns.adobe.com/ImageReplacement/1.0/">
	<!ENTITY ns_sfw "http://ns.adobe.com/SaveForWeb/1.0/">
	<!ENTITY ns_custom "http://ns.adobe.com/GenericCustomNamespace/1.0/">
	<!ENTITY ns_adobe_xpath "http://ns.adobe.com/XPath/1.0/">
]>
<svg version="1.1" id="Livello_1" xmlns:x="&ns_extend;" xmlns:i="&ns_ai;" xmlns:graph="&ns_graphs;"
	 xmlns="http://www.w3.org/2000/svg" xmlns:xlink="http://www.w3.org/1999/xlink" x="0px" y="0px" viewBox="0 0 400 400"
	 style="enable-background:new 0 0 400 400;" xml:space="preserve">
<style type="text/css">
	.st0{opacity:0.45;fill:#FFFFFF;}
	.st1{fill:none;stroke:#DC4B33;stroke-width:0.9;stroke-miterlimit:10;}
</style>
<metadata>
	<sfw  xmlns="&ns_sfw;">
		<slices></slices>
		<sliceSourceBounds  bottomLeftOrigin="true" height="262.169" width="338.155" x="32.19" y="65.291"></sliceSourceBounds>
	</sfw>
</metadata>
<path class="st0" d="M335.116,72.991L335.116,72.991c5.991,0,17.279,2.393,23.927,16.678c0.002,0.004,0.012,0.026,0.014,0.031
	c0.002,0.004,0.012,0.026,0.014,0.031c4.511,9.789,4.284,20.343,4.822,29.252c0.038,0.661,0.08,1.314,0.128,1.956
	c0.138,1.877,0.264,3.667,0.422,5.259c0.824,7.8,0.765,15.417,0.833,22.49c0.019,2.003,0.046,3.969,0.104,5.898
	c0.042,1.534,0.11,3.057,0.184,4.559c0,0.01,0.003,0.059,0.003,0.068c0,0.01,0.003,0.059,0.003,0.068
	c0.033,0.713,0.07,1.43,0.101,2.15c0.079,1.857,0.126,3.82,0.021,5.844c-0.163,2.642-0.523,5.429-1.004,8.322
	c-0.003,0.013-0.013,0.079-0.015,0.092c-0.002,0.013-0.013,0.079-0.016,0.092c-0.375,2.217-0.763,4.291-0.996,6.223
	c-0.021,0.172-0.042,0.348-0.063,0.527c-0.078,0.687-0.138,1.381-0.161,1.998c0.328,1.327,0.79,2.728,1.196,4.353
	c0.189,0.746,0.357,1.497,0.493,2.27c0.647,3.68,0.465,7.048,0.456,9.828c-0.004,0.667-0.005,1.481,0.028,1.946
	c0.099,1.32,0.6,3.625,1.054,5.626c2.04,9.126,5.702,21.517,0.758,33.456c-0.147,0.359-0.302,0.715-0.463,1.067
	c-3.278,7.18-9.597,11.579-17.313,13.72c-6.52,1.516-13.874,1.307-20.481,0.402c-1.046-0.177-2.047-0.365-2.99-0.555
	c-12.537-2.341-24.466-6.676-31.215-9.213c-3.145-1.243-6.333-2.444-9.564-3.662c-4.064-1.537-8.172-2.927-12.355-4.253
	c-6.373-2.015-12.871-3.847-19.591-5.772c-2.598-0.746-5.215-1.42-7.883-2.033c-6.094-1.394-12.315-2.992-18.749-3.61
	c-3.116-0.299-6.263-0.312-9.429,0.112c-0.007,0.003-0.044,0.003-0.05,0.006c-0.007,0.003-0.044,0.003-0.05,0.006
	c-2.517,0.311-4.908,0.817-7.081,1.682c-1.201,4.153-1.573,7.225-1.488,10.023c0.094,0.211,0.19,0.42,0.287,0.624
	c1.402,1.536,2.896,3.331,4.295,5.599c3.106,5.126,4.199,9.453,6.359,14.817c0.18,0.444,0.367,0.895,0.562,1.353
	c2.089,4.459,5.914,12.524,8.481,16.974c0.748,1.177,1.394,2.486,1.924,3.884c3.354,9.496,1.684,22.105-7.717,27.549
	c-1.403,0.84-2.847,1.494-4.31,1.99c-3,1.016-6.139,1.363-9.326,1.303c-0.935-0.019-1.868-0.076-2.798-0.166
	c-2.779-0.061-6.086-1.59-9.22-2.447c-0.491-0.151-0.975-0.278-1.449-0.371c-0.268,0.103-0.531,0.238-0.786,0.413
	c-0.005,0.009-0.035,0.017-0.04,0.026c-3.164,2.064-3.656,7.325-5.343,10.065c-1.82,4.045-3.317,7.848-7.427,10.348
	c-1.698,1.01-3.785,1.763-6.481,2.205c-0.8,0.128-1.634,0.167-2.479,0.167c-7.371,0-15.61-3.673-20.922-8.423
	c-2.252-2.157-4.348-4.352-6.264-6.507c-3.175-0.315-6.806-0.244-11.111-0.002c-0.843,0.046-1.713,0.104-2.613,0.172
	c-3.079,0.195-6.24,0.323-9.496,0.422c-0.675-0.01-1.348-0.033-2.019-0.075c-4.121-0.247-7.99-1.19-11.492-3.514
	c-1.145-0.754-2.24-1.661-3.281-2.738c-2.852-2.96-4.612-7.396-5.36-11.812c-0.005-0.033-0.031-0.189-0.035-0.221
	c-0.004-0.032-0.027-0.188-0.03-0.219c-0.415-3.121,0.255-4.968,1.239-7.422c1.188-3.463,2.135-6.763,2.674-9.723
	c-0.644-1.443-1.437-2.985-2.326-4.612c-1.32-2.415-2.807-4.629-4.083-7.101c-1.768-1.643-3.661-3.591-5.185-6.391
	c-1.405-2.757-2.759-5.392-4.633-8.296c-0.278-0.426-0.563-0.838-0.858-1.235c-3.092-1.982-5.736-3.757-7.901-6.649
	c-4.2-5.398-6.158-9.329-11.038-13.081c-0.335-0.303-0.661-0.606-0.978-0.908c-0.022-0.012-0.101-0.107-0.123-0.119c0,0,0,0,0,0
	c-1.332-1.327-2.456-2.66-3.435-3.898c-0.402-0.251-0.814-0.509-1.188-0.755c-0.605-0.392-1.2-0.791-1.784-1.199
	c-0.003-0.003-0.022-0.014-0.025-0.018c-0.003-0.003-0.022-0.014-0.025-0.018c-0.225-0.159-0.454-0.319-0.685-0.483
	c-1.888-1.417-4.048-3.076-6.313-5.03c-1.627-1.467-3.204-3.186-4.828-4.977c-0.903-1.009-1.794-2.005-2.709-2.939
	c-2.932-3.016-5.885-5.708-8.255-8.62c-3.159-3.999-6.476-8.503-5.279-14.759c0.003-0.014,0.014-0.07,0.016-0.084
	c0.003-0.014,0.014-0.07,0.017-0.084c0.857-4.156,3.301-7.929,5.645-10.734c3.006-3.605,5.541-7.525,9.146-10.218
	c3.087-2.471,6.148-3.97,8.791-4.922c0.536-0.219,1.242-0.632,1.864-0.954c1.846-0.87,3.854-1.9,6.071-3.127
	c3.56-1.753,6.309-4.885,10.476-6.774c6.549-3.288,13.304-3.903,18.38-4.398c0.728-0.076,1.441-0.141,2.11-0.206
	c0.328-0.161,0.67-0.341,1.037-0.513c2.265-1.06,5.156-2.229,8.629-3.122c2.275-0.56,4.546-0.91,6.729-1.173
	c2.656-0.319,5.186-0.474,7.444-0.663c0.213-0.017,0.427-0.035,0.641-0.052c0.053-0.007,0.555-0.041,0.611-0.048
	c1.173-0.1,2.256-0.141,3.098-0.19c1.878-0.08,3.703-0.119,5.277-0.195c0.599-0.031,1.171-0.066,1.697-0.112
	c0.582-0.038,1.136-0.082,1.645-0.138c0.682-0.039,1.003-0.099,1.159-0.144c0.242-0.05,0.499-0.102,0.768-0.155
	c0.399-0.085,0.965-0.193,1.411-0.293c4.844-1.75,9.668-3.851,14.677-6.059c1.815-0.8,3.671-1.621,5.537-2.434
	c5.662-2.47,11.278-4.243,16.431-5.869c5.647-1.886,11.25-3.382,15.931-5.203c0.004-0.001,0.022-0.009,0.026-0.011
	c0.004-0.001,0.022-0.009,0.026-0.011c6.961-2.814,13.934-5.033,20.441-7.699c3.75-1.515,7.48-2.772,11.134-3.91
	c4.92-1.524,9.724-2.858,14.329-4.347c0.36-0.1,2.001-0.665,2.362-0.766c4.098-1.332,8.214-2.694,12.307-4.192
	c11.606-4.24,23.34-8.613,34.518-13.427c0.005-0.002,0.025-0.011,0.03-0.013c0.005-0.002,0.025-0.011,0.03-0.013
	c4.273-1.835,8.559-3.617,12.813-5.387c4.64-1.923,9.386-3.722,14.096-5.467c2.898-1.073,5.71-2.1,8.457-3.117
	c0.033-0.012,0.181-0.067,0.214-0.079c0.033-0.012,0.182-0.065,0.215-0.077c3.092-1.112,6.1-2.039,9.027-2.795
	C330.573,73.321,332.898,72.991,335.116,72.991"/>
<g>
	<path class="st1" d="M313.551,106.113c3.936,0,6.864,2.16,9.12,7.008c3.504,7.584,2.304,16.992,3.312,25.2
		c1.152,9.024,0.528,18.048,0.96,26.976c0.144,3.36,0.528,6.912,0.048,10.176c-0.624,4.032-2.016,8.112-1.92,12.192
		c0.048,2.736,1.104,4.32,1.632,6.864c0.672,3.12,0.144,6.24,0.384,9.408c0.624,8.352,6.048,18.912,2.352,27.408
		c-2.16,5.04-7.392,6.72-13.2,6.72c-7.344,0-15.648-2.688-20.064-4.608c-11.376-4.944-23.088-8.064-34.608-12.576
		c-11.472-4.512-22.416-6.864-34.704-8.4c-5.568-0.72-11.136-2.208-16.272-2.208c-4.944,0-9.552,1.392-13.44,6.288
		c-4.512,5.712-2.64,7.824-1.152,15.12c1.392,6.672-1.008,10.368,0.672,15.888c0.72,2.4,6.048,11.04,10.416,12.768
		c9.504,3.744,13.68,21.408,2.448,25.104c-1.392,0.48-2.784,0.672-4.128,0.672c-3.696,0-7.296-1.488-10.56-3.408
		c-2.352-1.392-6.288-7.008-8.736-7.008h-0.048c-3.84,0.144-1.824,6.912-1.488,9.408c0.864,6.384,4.512,13.344-4.704,15.792
		c-0.672,0.192-1.392,0.24-2.112,0.24c-4.944,0-11.088-3.744-13.248-7.44c-3.216-5.568-6.096-9.168-10.32-9.168
		c-2.16,0-4.704,0.96-7.872,3.024c-3.024,2.016-6.288,4.32-9.84,4.32c-1.008,0-2.016-0.192-3.024-0.624
		c-2.736-1.152-4.176-4.464-4.656-7.296c-0.48-3.168,0.912-3.792,2.64-5.952c2.88-3.6,2.976-7.968,0.96-11.904
		c-2.352-4.512-6.384-5.952-7.728-11.088c-0.864-3.312-1.632-5.616-4.368-7.872c-2.352-1.872-4.32-3.024-5.76-6.192
		c-2.544-5.52-2.4-7.68-8.784-10.56c-5.088-2.304-8.16-6.816-11.232-11.28c-1.728-2.496-2.976-5.568-5.088-7.488
		c-2.496-2.304-5.808-3.552-8.832-4.944c-3.936-1.824-9.792-4.08-8.736-9.6c0.768-3.888,4.08-7.44,6.864-9.504
		c3.504-2.592,5.568-6.48,9.792-8.736c5.904-3.216,12.048-2.544,18.336-4.032c4.272-1.008,6.336-4.512,10.272-5.952
		c2.976-1.104,7.008-1.248,10.224-1.44c0.624-0.048,1.248-0.048,1.872-0.048c3.024,0,6.144,0.288,9.168,0.288
		c1.392,0,2.784-0.048,4.176-0.24c1.68-0.24,4.704-0.576,6.24-1.248c7.92-2.784,15.36-6.336,22.992-9.648
		c10.272-4.464,21.984-5.424,31.92-10.656c11.088-5.808,23.184-7.536,34.8-11.76c13.776-4.992,27.984-10.08,41.376-16.128
		c8.88-3.984,18.816-7.344,27.648-10.656C309.711,106.545,311.727,106.113,313.551,106.113"/>
</g>
<path class="st1" d="M315.348,103.353L315.348,103.353c4.107,0,7.732,2.179,10.354,7.814c0.004,0.008,0.008,0.017,0.011,0.025
	c0.004,0.008,0.008,0.017,0.011,0.025c3.362,7.323,2.571,16.166,3.266,24.063c0.047,0.536,0.1,1.067,0.162,1.593
	c0.176,1.447,0.312,2.887,0.421,4.31c0.477,6.175,0.334,12.329,0.431,18.405c0.025,1.611,0.067,3.217,0.142,4.817
	c0.051,1.23,0.132,2.481,0.195,3.733c0.001,0.018,0.002,0.038,0.003,0.056c0.001,0.018,0.002,0.039,0.003,0.056
	c0.029,0.59,0.054,1.181,0.07,1.77c0.042,1.61,0.012,3.216-0.2,4.771c-0.324,2.227-0.872,4.479-1.307,6.745
	c-0.005,0.024-0.01,0.052-0.014,0.075c-0.005,0.024-0.01,0.052-0.014,0.075c-0.325,1.713-0.576,3.417-0.598,5.11
	c-0.002,0.147-0.002,0.294-0.001,0.442c0.003,0.593,0.049,1.138,0.127,1.647c0.227,1.253,0.641,2.33,1.015,3.535
	c0.178,0.573,0.346,1.171,0.481,1.828c0.569,2.696,0.3,5.366,0.331,8.013c0.006,0.531,0.023,1.075,0.062,1.592
	c0.093,1.248,0.317,2.623,0.593,4.005c1.485,7.485,4.801,16.219,1.983,23.708c-0.095,0.254-0.197,0.506-0.307,0.756
	c-2.253,5.218-7.576,7.125-13.543,7.303c-6.174,0.126-13.033-1.615-17.846-3.284c-0.921-0.326-1.762-0.649-2.502-0.953
	c-8.99-3.648-18.108-6.492-26.759-9.519c-2.79-0.983-5.58-1.996-8.363-3.082c-3.61-1.415-7.177-2.626-10.755-3.677
	c-5.686-1.669-11.395-2.929-17.344-3.955c-2.304-0.397-4.643-0.752-7.032-1.074c-5.612-0.776-11.235-2.271-16.478-2.325
	c-2.815-0.024-5.535,0.38-8.095,1.573c-0.012,0.006-0.027,0.012-0.039,0.018s-0.027,0.012-0.039,0.018
	c-1.96,0.922-3.816,2.301-5.531,4.305c-2.547,3.444-2.977,5.642-2.605,8.33c0.034,0.193,0.072,0.388,0.113,0.586
	c0.406,1.698,1.077,3.659,1.693,6.297c1.439,6.082-0.262,9.766,0.858,14.681c0.092,0.401,0.202,0.811,0.334,1.23
	c0.834,2.572,6.037,11.164,10.255,13.119c1.247,0.565,2.395,1.376,3.419,2.367c6.512,6.346,8.022,19.884-1.658,23.265
	c-1.393,0.51-2.789,0.74-4.143,0.782c-2.862,0.084-5.683-0.697-8.354-1.88c-0.793-0.352-1.573-0.739-2.336-1.15
	c-1.845-0.96-4.548-4.212-6.869-5.795c-0.403-0.278-0.795-0.505-1.167-0.658c-0.326-0.124-0.636-0.186-0.926-0.172
	c0,0.001-0.047,0.001-0.047,0.002c-3.784,0.304-1.977,6.946-1.809,9.463c0.417,4.542,2.179,9.336-0.28,12.564
	c-0.971,1.267-2.588,2.289-5.191,2.958c-0.683,0.187-1.412,0.234-2.143,0.234c-5.146,0-11.465-3.738-13.887-7.522
	c-1.251-2.02-2.448-3.809-3.663-5.29c-2.136-2.333-4.41-3.677-7.245-3.657c-0.583,0.004-1.191,0.068-1.829,0.193
	c-1.87,0.36-3.972,1.217-6.396,2.628c-0.443,0.257-0.891,0.518-1.342,0.777c-2.782,1.593-5.71,3.078-8.804,2.884
	c-1.019-0.063-2.035-0.314-3.045-0.8c-2.746-1.303-4.212-4.708-4.715-7.672c-0.009-0.06-0.019-0.13-0.027-0.188
	c-0.008-0.059-0.016-0.127-0.023-0.184c-0.328-2.877,0.965-3.634,2.568-5.74c1.851-2.479,2.558-5.254,2.287-7.99
	c-0.214-1.381-0.682-2.768-1.378-4.117c-1.184-2.262-2.764-3.808-4.214-5.443c-1.501-1.577-2.897-3.249-3.643-5.845
	c-0.805-2.867-1.539-5.026-3.49-7.087c-0.295-0.311-0.617-0.618-0.972-0.923c-2.414-1.881-4.438-3.085-5.938-6.23
	c-2.682-5.51-2.713-7.817-8.972-10.77c-0.351-0.171-0.692-0.353-1.024-0.543c-0.041-0.022-0.087-0.051-0.128-0.074c0,0,0,0,0,0
	c-1.295-0.763-2.449-1.662-3.503-2.648c-0.297-0.26-0.587-0.527-0.87-0.8c-0.435-0.418-0.855-0.852-1.264-1.298
	c-0.005-0.006-0.012-0.013-0.018-0.019c-0.005-0.006-0.012-0.013-0.018-0.019c-0.159-0.174-0.317-0.35-0.473-0.528
	c-1.478-1.7-2.841-3.565-4.213-5.447c-1.129-1.557-2.081-3.343-3.167-4.951c-0.641-0.952-1.327-1.838-2.125-2.572
	c-2.532-2.363-5.814-3.732-8.784-5.25c-3.871-2.005-9.516-4.449-8.448-10.03c0.005-0.025,0.011-0.054,0.016-0.08
	c0.005-0.025,0.011-0.054,0.017-0.08c0.828-3.853,4.02-7.361,6.732-9.461c3.462-2.676,5.566-6.567,9.738-8.859
	c3.091-1.75,6.24-2.441,9.402-2.905c0.681-0.102,1.379-0.211,2.071-0.312c2.208-0.311,4.451-0.631,6.729-1.229
	c4.213-1.07,6.334-4.543,10.289-6.021c3.274-1.286,7.533-1.469,10.904-1.686c0.424-0.034,0.846-0.05,1.265-0.059
	c0.236-0.016,0.474-0.032,0.713-0.045c1.794-0.098,3.667-0.097,5.584-0.097c1.376,0.008,2.749,0.025,4.099,0.003
	c1.497-0.027,2.984-0.084,4.448-0.275c0.12-0.016,0.245-0.032,0.375-0.049c0.097-0.013,0.235-0.029,0.339-0.043
	c0.579-0.074,1.217-0.151,1.85-0.241c1.081-0.148,2.201-0.326,3.123-0.559c0.36-0.091,0.69-0.191,0.977-0.301
	c0.321-0.099,0.639-0.199,0.952-0.302c0.248-0.072,0.466-0.146,0.669-0.22c0.147-0.051,0.296-0.102,0.445-0.153
	c0.267-0.094,0.547-0.19,0.817-0.286c2.961-1.11,5.874-2.325,8.783-3.583c1.101-0.476,2.203-0.959,3.304-1.444
	c3.204-1.411,6.395-2.786,9.574-4.115c4.55-1.93,9.344-3.224,14.069-4.523c0.008-0.002,0.017-0.005,0.024-0.007
	c0.008-0.002,0.017-0.005,0.024-0.007c6.237-1.731,12.487-3.375,18.178-6.309c3.141-1.608,6.351-2.904,9.598-4.031
	c4.169-1.446,8.396-2.615,12.615-3.807c0.665-0.185,1.437-0.409,2.102-0.596c3.658-1.044,7.315-2.131,10.93-3.446
	c10.132-3.674,20.484-7.406,30.56-11.524c0.008-0.003,0.018-0.007,0.027-0.011c0.008-0.003,0.018-0.007,0.026-0.011
	c3.795-1.551,7.559-3.147,11.264-4.808c3.979-1.772,8.156-3.422,12.348-5.002c2.495-0.94,4.99-1.853,7.449-2.752
	c0.06-0.022,0.13-0.048,0.191-0.07c0.06-0.022,0.13-0.047,0.191-0.069c2.669-0.972,5.295-1.913,7.833-2.836
	C311.449,103.776,313.491,103.353,315.348,103.353"/>
<path class="st1" d="M317.145,100.593L317.145,100.593c4.279,0,8.6,2.199,11.588,8.62c0.003,0.007,0.008,0.018,0.012,0.025
	c0.003,0.007,0.008,0.018,0.012,0.025c3.467,7.547,2.727,16.546,3.407,24.535c0.046,0.547,0.099,1.089,0.159,1.626
	c0.173,1.486,0.308,2.958,0.421,4.397c0.509,6.323,0.374,12.61,0.467,18.776c0.025,1.647,0.065,3.285,0.138,4.915
	c0.05,1.257,0.13,2.533,0.194,3.808c0.001,0.017,0.002,0.04,0.003,0.057c0.001,0.017,0.002,0.04,0.003,0.057
	c0.029,0.601,0.056,1.203,0.073,1.804c0.045,1.633,0.022,3.271-0.18,4.869c-0.309,2.265-0.841,4.565-1.279,6.889
	c-0.004,0.023-0.01,0.054-0.014,0.077c-0.004,0.023-0.01,0.054-0.014,0.077c-0.329,1.759-0.593,3.496-0.634,5.211
	c-0.004,0.149-0.006,0.299-0.007,0.45c-0.004,0.601,0.032,1.16,0.101,1.679c0.236,1.26,0.655,2.366,1.032,3.61
	c0.179,0.588,0.347,1.201,0.482,1.868c0.576,2.786,0.315,5.519,0.342,8.178c0.005,0.543,0.02,1.112,0.059,1.624
	c0.094,1.255,0.343,2.714,0.635,4.153c1.536,7.634,4.883,16.7,1.871,24.594c-0.1,0.263-0.207,0.525-0.321,0.785
	c-2.346,5.397-7.759,7.53-13.886,7.887c-6.206,0.253-13.11-1.349-18.085-2.949c-0.932-0.313-1.787-0.623-2.547-0.917
	c-9.312-3.529-18.686-6.508-27.164-9.491c-2.822-1.007-5.648-2.037-8.472-3.135c-3.651-1.426-7.268-2.653-10.901-3.729
	c-5.748-1.701-11.529-3.013-17.548-4.12c-2.331-0.429-4.695-0.812-7.109-1.161c-5.656-0.832-11.333-2.334-16.685-2.442
	c-2.843-0.048-5.601,0.317-8.216,1.44c-0.012,0.006-0.028,0.011-0.04,0.017c-0.012,0.006-0.028,0.011-0.04,0.017
	c-2.011,0.866-3.915,2.166-5.672,4.066c-2.424,3.508-2.849,5.786-2.503,8.484c0.039,0.194,0.083,0.391,0.129,0.59
	c0.497,1.683,1.243,3.63,1.93,6.234c1.59,5.995,0.143,9.737,1.358,14.694c0.1,0.405,0.217,0.818,0.355,1.241
	c0.948,2.743,6.026,11.287,10.093,13.469c1.201,0.62,2.304,1.477,3.284,2.505c6.225,6.633,7.445,20.086-2.209,23.654
	c-1.394,0.54-2.795,0.808-4.158,0.892c-2.875,0.167-5.724-0.51-8.443-1.59c-0.806-0.321-1.6-0.679-2.378-1.06
	c-1.93-0.878-4.688-3.974-7.083-5.49c-0.411-0.267-0.811-0.484-1.193-0.632c-0.32-0.103-0.627-0.148-0.913-0.119
	c-0.001,0.001-0.046,0.003-0.047,0.004c-3.727,0.464-2.129,6.981-2.131,9.518c0.214,4.497,1.68,9.201-0.93,12.363
	c-1.037,1.244-2.697,2.241-5.308,2.889c-0.693,0.181-1.432,0.228-2.173,0.228c-5.349,0-11.842-3.732-14.527-7.604
	c-1.342-2.033-2.621-3.858-3.9-5.4c-2.23-2.15-4.628-3.365-7.596-3.324c-0.606,0.008-1.238,0.071-1.9,0.191
	c-1.98,0.345-4.178,1.136-6.678,2.428c-0.464,0.233-0.932,0.468-1.404,0.699c-2.904,1.426-5.918,2.69-9.048,2.302
	c-1.031-0.126-2.053-0.437-3.067-0.976c-2.755-1.453-4.249-4.953-4.773-8.049c-0.009-0.058-0.02-0.135-0.028-0.191
	c-0.007-0.056-0.017-0.132-0.023-0.187c-0.336-2.899,0.9-3.755,2.447-5.892c1.791-2.568,2.52-5.391,2.322-8.147
	c-0.253-1.387-0.751-2.788-1.464-4.162c-1.196-2.276-2.768-3.882-4.202-5.594c-1.525-1.583-2.967-3.28-3.783-5.895
	c-0.859-2.857-1.65-5.059-3.594-7.197c-0.293-0.321-0.612-0.638-0.961-0.951c-2.475-1.89-4.556-3.146-6.117-6.268
	c-2.82-5.5-3.026-7.955-9.16-10.98c-0.349-0.183-0.689-0.376-1.02-0.576c-0.039-0.021-0.088-0.056-0.127-0.078c0,0,0,0,0,0
	c-1.299-0.814-2.45-1.752-3.497-2.761c-0.306-0.259-0.608-0.525-0.899-0.796c-0.45-0.416-0.886-0.846-1.311-1.289
	c-0.005-0.006-0.013-0.013-0.018-0.019c-0.005-0.006-0.013-0.013-0.018-0.019c-0.165-0.173-0.329-0.347-0.492-0.524
	c-1.515-1.674-2.951-3.52-4.404-5.409c-1.174-1.549-2.183-3.328-3.318-4.954c-0.665-0.957-1.369-1.853-2.178-2.606
	c-2.569-2.423-5.821-3.911-8.736-5.557c-3.807-2.187-9.239-4.817-8.16-10.46c0.005-0.024,0.011-0.056,0.016-0.08
	c0.005-0.024,0.012-0.056,0.017-0.08c0.831-3.881,3.954-7.413,6.633-9.577c3.421-2.761,5.563-6.654,9.684-8.983
	c3.091-1.815,6.232-2.58,9.347-3.089c0.668-0.112,1.366-0.249,2.052-0.37c2.175-0.362,4.396-0.747,6.669-1.401
	c4.153-1.132,6.332-4.574,10.306-6.089c3.572-1.468,8.057-1.69,11.583-1.933c0.451-0.038,0.9-0.058,1.342-0.072
	c0.245-0.029,0.492-0.061,0.743-0.087c1.837-0.194,3.802-0.291,5.861-0.372c1.458-0.044,2.912-0.061,4.338-0.103
	c1.603-0.054,3.184-0.119,4.721-0.311c0.128-0.016,0.262-0.033,0.399-0.05c0.093-0.013,0.264-0.03,0.363-0.044
	c0.633-0.076,1.312-0.15,1.964-0.236c1.154-0.142,2.337-0.307,3.318-0.526c0.382-0.086,0.734-0.18,1.042-0.284
	c0.345-0.093,0.684-0.189,1.015-0.287c0.288-0.069,0.515-0.142,0.714-0.213c0.156-0.051,0.314-0.102,0.474-0.153
	c0.279-0.093,0.585-0.19,0.871-0.286c3.133-1.168,6.219-2.463,9.319-3.808c1.166-0.505,2.336-1.019,3.507-1.534
	c3.428-1.507,6.839-2.918,10.197-4.274c4.65-1.926,9.517-3.239,14.238-4.585c0.007-0.002,0.017-0.005,0.024-0.007
	c0.007-0.002,0.017-0.005,0.024-0.007c6.303-1.829,12.619-3.526,18.384-6.435c3.196-1.599,6.454-2.892,9.737-4.02
	c4.237-1.453,8.517-2.637,12.771-3.856c0.637-0.178,1.488-0.433,2.126-0.612c3.698-1.07,7.397-2.183,11.055-3.514
	c10.266-3.726,20.743-7.516,30.92-11.697c0.008-0.003,0.019-0.008,0.027-0.011c0.008-0.003,0.019-0.008,0.027-0.011
	c3.839-1.577,7.65-3.19,11.405-4.861c4.039-1.786,8.268-3.45,12.507-5.044c2.532-0.952,5.055-1.876,7.541-2.785
	c0.058-0.021,0.135-0.049,0.193-0.07c0.058-0.021,0.135-0.049,0.193-0.07c2.708-0.985,5.368-1.925,7.941-2.833
	C313.188,101.008,315.256,100.593,317.145,100.593"/>
<path class="st1" d="M318.942,97.832L318.942,97.832c4.45,0,9.468,2.218,12.822,9.426c0.003,0.007,0.009,0.019,0.012,0.026
	c0.003,0.007,0.009,0.019,0.012,0.026c3.571,7.771,2.883,16.926,3.549,25.007c0.045,0.558,0.097,1.112,0.156,1.659
	c0.169,1.525,0.303,3.029,0.421,4.483c0.54,6.47,0.413,12.89,0.504,19.148c0.024,1.682,0.064,3.353,0.135,5.013
	c0.049,1.285,0.128,2.585,0.193,3.883c0.001,0.016,0.002,0.042,0.003,0.058c0.001,0.016,0.002,0.042,0.003,0.058
	c0.03,0.612,0.057,1.226,0.075,1.839c0.049,1.655,0.033,3.326-0.16,4.966c-0.295,2.302-0.809,4.652-1.252,7.032
	c-0.004,0.022-0.01,0.057-0.015,0.078c-0.004,0.022-0.01,0.057-0.015,0.078c-0.334,1.804-0.61,3.576-0.67,5.312
	c-0.005,0.152-0.01,0.304-0.012,0.457c-0.012,0.61,0.015,1.182,0.075,1.711c0.245,1.266,0.668,2.402,1.048,3.684
	c0.18,0.604,0.348,1.23,0.483,1.908c0.583,2.875,0.33,5.672,0.353,8.343c0.004,0.556,0.018,1.149,0.056,1.656
	c0.094,1.261,0.369,2.806,0.677,4.3c1.586,7.783,4.965,17.182,1.76,25.481c-0.105,0.273-0.216,0.544-0.335,0.813
	c-2.439,5.575-7.943,7.935-14.228,8.47c-6.237,0.379-13.186-1.084-18.325-2.614c-0.943-0.299-1.813-0.597-2.591-0.88
	c-9.635-3.41-19.264-6.525-27.569-9.463c-2.854-1.031-5.717-2.078-8.581-3.188c-3.693-1.437-7.358-2.68-11.046-3.782
	c-5.811-1.732-11.663-3.096-17.753-4.285c-2.358-0.461-4.747-0.873-7.187-1.248c-5.699-0.889-11.431-2.41-16.891-2.558
	c-2.87-0.078-5.667,0.254-8.337,1.308c-0.011,0.006-0.03,0.01-0.041,0.016c-0.011,0.006-0.03,0.01-0.041,0.016
	c-2.061,0.811-4.014,2.031-5.813,3.828c-2.302,3.572-2.721,5.93-2.402,8.638c0.045,0.196,0.093,0.394,0.145,0.593
	c0.587,1.668,1.408,3.6,2.166,6.17c1.742,5.908,0.549,9.709,1.858,14.706c0.108,0.409,0.232,0.826,0.376,1.252
	c1.062,2.915,6.014,11.411,9.932,13.82c1.156,0.676,2.213,1.578,3.148,2.643c5.938,6.919,6.869,20.288-2.76,24.044
	c-1.395,0.57-2.8,0.879-4.174,1.002c-2.887,0.257-5.766-0.322-8.531-1.301c-0.819-0.291-1.627-0.618-2.42-0.971
	c-2.015-0.797-4.828-3.735-7.297-5.186c-0.419-0.255-0.827-0.464-1.218-0.606c-0.315-0.082-0.617-0.109-0.901-0.066
	c-0.001,0.002-0.045,0.004-0.046,0.006c-3.671,0.624-2.282,7.015-2.452,9.572c0.011,4.452,1.18,9.066-1.579,12.161
	c-1.103,1.221-2.806,2.194-5.426,2.821c-0.704,0.176-1.453,0.222-2.204,0.222c-5.551,0-12.219-3.726-15.166-7.686
	c-1.433-2.045-2.794-3.908-4.136-5.511c-2.325-1.966-4.846-3.053-7.948-2.992c-0.63,0.012-1.286,0.074-1.972,0.19
	c-2.09,0.33-4.384,1.055-6.959,2.227c-0.485,0.209-0.974,0.418-1.465,0.622c-3.025,1.258-6.125,2.302-9.293,1.721
	c-1.042-0.189-2.072-0.559-3.088-1.152c-2.765-1.604-4.285-5.197-4.832-8.425c-0.008-0.055-0.021-0.14-0.028-0.194
	c-0.007-0.054-0.018-0.138-0.024-0.19c-0.344-2.921,0.836-3.876,2.326-6.045c1.731-2.658,2.481-5.529,2.357-8.305
	c-0.292-1.392-0.82-2.807-1.55-4.207c-1.209-2.289-2.772-3.957-4.19-5.745c-1.549-1.589-3.036-3.311-3.923-5.944
	c-0.914-2.847-1.761-5.092-3.698-7.307c-0.292-0.332-0.607-0.658-0.951-0.98c-2.537-1.9-4.674-3.207-6.295-6.306
	c-2.958-5.489-3.339-8.092-9.348-11.19c-0.348-0.195-0.687-0.399-1.016-0.609c-0.038-0.02-0.089-0.061-0.127-0.082c0,0,0,0,0,0
	c-1.302-0.865-2.45-1.843-3.49-2.875c-0.316-0.258-0.629-0.524-0.927-0.792c-0.466-0.414-0.918-0.841-1.358-1.28
	c-0.005-0.006-0.014-0.013-0.019-0.019c-0.005-0.006-0.014-0.013-0.019-0.019c-0.171-0.171-0.342-0.345-0.512-0.52
	c-1.552-1.648-3.06-3.476-4.595-5.371c-1.22-1.541-2.285-3.314-3.469-4.956c-0.688-0.962-1.412-1.869-2.231-2.639
	c-2.605-2.482-5.827-4.091-8.688-5.863c-3.742-2.368-8.963-5.186-7.872-10.89c0.005-0.023,0.011-0.057,0.016-0.081
	c0.005-0.023,0.012-0.057,0.017-0.08c0.833-3.908,3.889-7.464,6.535-9.692c3.379-2.845,5.561-6.741,9.63-9.106
	c3.09-1.881,6.223-2.719,9.291-3.272c0.655-0.123,1.354-0.288,2.033-0.429c2.142-0.413,4.342-0.862,6.609-1.574
	c4.094-1.194,6.329-4.605,10.323-6.158c3.869-1.65,8.582-1.912,12.263-2.179c0.479-0.042,0.954-0.066,1.419-0.086
	c0.253-0.042,0.51-0.09,0.772-0.13c1.879-0.287,3.937-0.485,6.138-0.647c1.54-0.096,3.076-0.142,4.577-0.21
	c1.708-0.077,3.385-0.155,4.993-0.346c0.137-0.016,0.278-0.033,0.423-0.05c0.089-0.012,0.293-0.031,0.388-0.044
	c0.687-0.078,1.406-0.149,2.077-0.232c1.226-0.136,2.474-0.288,3.514-0.493c0.403-0.08,0.778-0.169,1.108-0.267
	c0.368-0.088,0.729-0.178,1.078-0.272c0.327-0.066,0.564-0.138,0.758-0.206c0.164-0.051,0.333-0.102,0.504-0.154
	c0.291-0.092,0.623-0.19,0.925-0.287c3.304-1.226,6.564-2.602,9.855-4.033c1.231-0.535,2.47-1.079,3.71-1.624
	c3.651-1.604,7.283-3.051,10.821-4.434c4.749-1.922,9.69-3.253,14.407-4.646c0.007-0.002,0.018-0.006,0.025-0.007
	c0.007-0.002,0.018-0.006,0.025-0.007c6.369-1.928,12.75-3.677,18.59-6.561c3.252-1.591,6.556-2.88,9.877-4.009
	c4.305-1.46,8.638-2.659,12.927-3.905c0.61-0.17,1.54-0.456,2.149-0.627c3.738-1.096,7.479-2.234,11.18-3.582
	c10.4-3.777,21.003-7.626,31.28-11.87c0.008-0.003,0.019-0.008,0.027-0.011c0.008-0.003,0.019-0.008,0.027-0.011
	c3.882-1.603,7.741-3.233,11.546-4.913c4.099-1.799,8.379-3.477,12.666-5.087c2.568-0.964,5.12-1.898,7.633-2.818
	c0.055-0.02,0.14-0.051,0.195-0.071c0.055-0.02,0.14-0.051,0.195-0.071c2.746-0.997,5.441-1.936,8.05-2.829
	C314.927,98.239,317.02,97.832,318.942,97.832"/>
<path class="st1" d="M320.739,95.072L320.739,95.072c4.621,0,10.336,2.238,14.056,10.231c0.003,0.007,0.009,0.02,0.012,0.026
	s0.009,0.02,0.012,0.026c3.676,7.996,3.038,17.306,3.69,25.478c0.045,0.57,0.095,1.134,0.153,1.692
	c0.166,1.564,0.299,3.1,0.421,4.569c0.572,6.618,0.452,13.171,0.541,19.519c0.024,1.718,0.062,3.422,0.132,5.111
	c0.048,1.312,0.126,2.638,0.192,3.958c0.001,0.015,0.002,0.044,0.003,0.059c0.001,0.015,0.002,0.044,0.003,0.059
	c0.03,0.623,0.058,1.249,0.078,1.873c0.052,1.677,0.043,3.381-0.14,5.064c-0.28,2.34-0.777,4.738-1.224,7.175
	c-0.004,0.021-0.011,0.059-0.015,0.08c-0.004,0.021-0.011,0.059-0.015,0.08c-0.339,1.85-0.627,3.655-0.706,5.413
	c-0.007,0.154-0.013,0.309-0.018,0.465c-0.019,0.618-0.002,1.204,0.049,1.743c0.254,1.273,0.682,2.439,1.065,3.758
	c0.181,0.62,0.349,1.26,0.484,1.948c0.59,2.964,0.345,5.825,0.365,8.508c0.003,0.568,0.015,1.186,0.053,1.688
	c0.095,1.268,0.394,2.897,0.719,4.447c1.637,7.932,5.047,17.664,1.649,26.367c-0.109,0.283-0.226,0.563-0.35,0.841
	c-2.533,5.753-8.127,8.34-14.571,9.053c-6.269,0.505-13.263-0.818-18.564-2.279c-0.955-0.286-1.839-0.571-2.635-0.844
	c-9.957-3.292-19.842-6.542-27.974-9.435c-2.886-1.054-5.785-2.118-8.691-3.24c-3.734-1.448-7.448-2.708-11.191-3.834
	c-5.873-1.764-11.797-3.18-17.957-4.45c-2.384-0.492-4.799-0.934-7.264-1.335c-5.743-0.945-11.529-2.476-17.098-2.675
	c-2.897-0.104-5.733,0.191-8.459,1.175c-0.011,0.005-0.031,0.01-0.042,0.015s-0.031,0.01-0.042,0.015
	c-2.112,0.755-4.114,1.896-5.954,3.589c-2.18,3.637-2.594,6.074-2.3,8.792c0.05,0.198,0.104,0.397,0.161,0.597
	c0.678,1.654,1.573,3.57,2.403,6.107c1.893,5.821,0.954,9.68,2.358,14.718c0.116,0.413,0.247,0.834,0.396,1.264
	c1.176,3.086,6.003,11.535,9.771,14.17c1.111,0.732,2.122,1.679,3.012,2.781c5.651,7.205,6.293,20.49-3.31,24.433
	c-1.396,0.6-2.805,0.948-4.189,1.111c-2.9,0.343-5.807-0.135-8.62-1.011c-0.832-0.261-1.653-0.558-2.462-0.881
	c-2.1-0.715-4.968-3.497-7.51-4.882c-0.427-0.244-0.844-0.443-1.244-0.58c-0.31-0.062-0.607-0.071-0.888-0.012
	c-0.002,0.003-0.044,0.006-0.045,0.009c-3.615,0.784-2.435,7.05-2.773,9.627c-0.193,4.406,0.68,8.93-2.229,11.96
	c-1.169,1.197-2.915,2.146-5.543,2.752c-0.715,0.171-1.473,0.215-2.234,0.215c-5.753,0-12.595-3.72-15.806-7.768
	c-1.524-2.058-2.967-3.957-4.372-5.622c-2.419-1.783-5.064-2.741-8.299-2.66c-0.654,0.015-1.333,0.078-2.043,0.188
	c-2.2,0.315-4.59,0.973-7.241,2.026c-0.506,0.184-1.015,0.368-1.527,0.544c-3.147,1.091-6.332,1.914-9.537,1.139
	c-1.054-0.251-2.091-0.682-3.11-1.329c-2.775-1.755-4.321-5.441-4.891-8.801c-0.008-0.053-0.022-0.146-0.029-0.197
	c-0.007-0.051-0.019-0.143-0.025-0.193c-0.352-2.943,0.771-3.998,2.205-6.198c1.67-2.747,2.443-5.666,2.393-8.462
	c-0.331-1.398-0.888-2.827-1.636-4.252c-1.221-2.303-2.776-4.032-4.178-5.895c-1.574-1.595-3.106-3.342-4.063-5.994
	c-0.968-2.837-1.872-5.126-3.802-7.417c-0.29-0.342-0.602-0.678-0.94-1.008c-2.599-1.909-4.792-3.268-6.474-6.344
	c-3.096-5.479-3.653-8.23-9.535-11.4c-0.347-0.207-0.684-0.422-1.012-0.643c-0.036-0.019-0.091-0.066-0.126-0.086c0,0,0,0,0,0
	c-1.305-0.916-2.451-1.934-3.484-2.989c-0.325-0.257-0.649-0.522-0.956-0.788c-0.481-0.411-0.949-0.835-1.406-1.271
	c-0.005-0.005-0.015-0.013-0.02-0.019c-0.005-0.005-0.015-0.013-0.02-0.019c-0.177-0.17-0.354-0.342-0.531-0.516
	c-1.59-1.622-3.17-3.431-4.786-5.333c-1.265-1.533-2.387-3.3-3.62-4.958c-0.712-0.967-1.454-1.884-2.284-2.673
	c-2.641-2.541-5.834-4.271-8.64-6.169c-3.677-2.549-8.687-5.554-7.584-11.32c0.004-0.022,0.012-0.059,0.016-0.081
	s0.012-0.059,0.017-0.081c0.836-3.936,3.824-7.516,6.436-9.808c3.338-2.93,5.559-6.828,9.577-9.23
	c3.09-1.946,6.215-2.858,9.236-3.456c0.642-0.133,1.341-0.326,2.015-0.487c2.109-0.464,4.288-0.977,6.549-1.746
	c4.035-1.256,6.327-4.636,10.34-6.226c4.167-1.832,9.107-2.133,12.943-2.426c0.507-0.046,1.008-0.075,1.495-0.099
	c0.261-0.055,0.527-0.118,0.801-0.172c1.921-0.378,4.073-0.679,6.415-0.922c1.621-0.147,3.239-0.227,4.817-0.317
	c1.813-0.104,3.585-0.19,5.265-0.381c0.145-0.016,0.295-0.033,0.448-0.05c0.085-0.012,0.322-0.032,0.413-0.045
	c0.741-0.081,1.501-0.148,2.191-0.227c1.298-0.129,2.61-0.27,3.71-0.46c0.425-0.075,0.822-0.157,1.173-0.25
	c0.392-0.082,0.774-0.167,1.141-0.257c0.366-0.063,0.612-0.133,0.803-0.199c0.173-0.051,0.351-0.102,0.533-0.154
	c0.303-0.091,0.661-0.191,0.979-0.288c3.475-1.284,6.909-2.741,10.39-4.258c1.296-0.564,2.603-1.14,3.913-1.714
	c3.875-1.7,7.727-3.183,11.444-4.593c4.849-1.918,9.863-3.267,14.577-4.708c0.007-0.002,0.018-0.006,0.025-0.008
	s0.018-0.006,0.025-0.008c6.435-2.026,12.882-3.827,18.795-6.688c3.307-1.582,6.659-2.868,10.017-3.998
	c4.374-1.467,8.759-2.681,13.083-3.954c0.582-0.162,1.591-0.479,2.173-0.643c3.778-1.122,7.56-2.285,11.305-3.65
	c10.534-3.829,21.263-7.735,31.64-12.043c0.007-0.003,0.02-0.008,0.027-0.011c0.007-0.003,0.02-0.008,0.027-0.011
	c3.925-1.629,7.832-3.275,11.687-4.966c4.159-1.813,8.491-3.504,12.825-5.129c2.605-0.976,5.186-1.921,7.724-2.852
	c0.053-0.019,0.144-0.053,0.197-0.072c0.053-0.019,0.144-0.052,0.197-0.072c2.784-1.01,5.514-1.948,8.159-2.825
	C316.665,95.47,318.784,95.072,320.739,95.072"/>
<path class="st1" d="M322.537,92.312L322.537,92.312c4.792,0,11.204,2.257,15.289,11.037c0.003,0.006,0.009,0.02,0.012,0.027
	c0.003,0.006,0.009,0.02,0.012,0.027c3.78,8.22,3.194,17.685,3.832,25.95c0.044,0.581,0.093,1.157,0.15,1.725
	c0.162,1.603,0.295,3.171,0.421,4.656c0.603,6.766,0.491,13.452,0.577,19.89c0.023,1.754,0.06,3.49,0.128,5.21
	c0.048,1.34,0.124,2.69,0.191,4.033c0.001,0.015,0.002,0.046,0.003,0.06c0.001,0.015,0.002,0.046,0.003,0.061
	c0.03,0.635,0.06,1.271,0.081,1.908c0.056,1.7,0.053,3.436-0.12,5.161c-0.265,2.378-0.745,4.824-1.197,7.319
	c-0.004,0.02-0.011,0.062-0.015,0.081c-0.004,0.02-0.011,0.062-0.015,0.081c-0.343,1.896-0.644,3.735-0.743,5.515
	c-0.009,0.156-0.017,0.314-0.024,0.473c-0.026,0.627-0.019,1.226,0.022,1.775c0.264,1.28,0.695,2.475,1.081,3.833
	c0.182,0.636,0.35,1.29,0.485,1.988c0.597,3.054,0.36,5.978,0.376,8.673c0.002,0.58,0.013,1.223,0.049,1.721
	c0.095,1.275,0.42,2.988,0.761,4.595c1.687,8.082,5.128,18.145,1.537,27.253c-0.114,0.292-0.235,0.582-0.364,0.869
	c-2.626,5.932-8.311,8.745-14.914,9.636c-6.3,0.632-13.339-0.553-18.804-1.944c-0.966-0.272-1.865-0.546-2.68-0.808
	c-10.28-3.173-20.42-6.559-28.379-9.407c-2.919-1.078-5.854-2.159-8.8-3.293c-3.775-1.459-7.539-2.735-11.337-3.886
	c-5.936-1.795-11.931-3.263-18.161-4.615c-2.411-0.524-4.851-0.995-7.341-1.422c-5.787-1.001-11.628-2.542-17.304-2.792
	c-2.924-0.129-5.8,0.128-8.58,1.042c-0.01,0.005-0.033,0.009-0.043,0.014c-0.01,0.005-0.033,0.009-0.043,0.014
	c-2.163,0.7-4.213,1.761-6.095,3.351c-2.057,3.701-2.466,6.218-2.199,8.946c0.056,0.199,0.115,0.4,0.176,0.6
	c0.768,1.639,1.739,3.54,2.639,6.043c2.045,5.734,1.36,9.652,2.858,14.731c0.124,0.417,0.262,0.841,0.417,1.275
	c1.291,3.258,5.992,11.658,9.61,14.521c1.065,0.787,2.031,1.78,2.876,2.919c5.364,7.491,5.717,20.691-3.861,24.823
	c-1.397,0.63-2.811,1.017-4.204,1.221c-2.912,0.428-5.849,0.052-8.708-0.722c-0.845-0.231-1.68-0.498-2.504-0.792
	c-2.185-0.633-5.107-3.259-7.724-4.577c-0.435-0.232-0.86-0.422-1.27-0.553c-0.305-0.041-0.598-0.032-0.875,0.041
	c-0.002,0.004-0.043,0.007-0.045,0.011c-3.558,0.944-2.588,7.084-3.094,9.682c-0.396,4.361,0.181,8.795-2.879,11.758
	c-1.235,1.174-3.023,2.098-5.66,2.684c-0.725,0.165-1.493,0.209-2.265,0.209c-5.955,0-12.972-3.714-16.445-7.85
	c-1.615-2.07-3.139-4.007-4.609-5.732c-2.514-1.599-5.282-2.429-8.651-2.328c-0.677,0.019-1.381,0.081-2.114,0.186
	c-2.31,0.3-4.797,0.892-7.523,1.826c-0.527,0.16-1.057,0.318-1.588,0.467c-3.269,0.924-6.539,1.526-9.781,0.558
	c-1.065-0.314-2.11-0.804-3.131-1.505c-2.784-1.905-4.358-5.686-4.95-9.178c-0.008-0.05-0.023-0.151-0.03-0.2
	c-0.006-0.049-0.02-0.149-0.026-0.196c-0.36-2.965,0.707-4.119,2.084-6.352c1.61-2.837,2.404-5.803,2.428-8.62
	c-0.37-1.404-0.957-2.847-1.723-4.297c-1.234-2.317-2.779-4.106-4.166-6.046c-1.598-1.601-3.175-3.374-4.204-6.043
	c-1.023-2.827-1.983-5.159-3.906-7.527c-0.289-0.353-0.598-0.698-0.93-1.037c-2.66-1.918-4.91-3.33-6.652-6.382
	c-3.234-5.469-3.966-8.367-9.723-11.611c-0.345-0.219-0.681-0.445-1.008-0.676c-0.034-0.018-0.092-0.071-0.126-0.09c0,0,0,0,0,0
	c-1.309-0.968-2.451-2.025-3.478-3.102c-0.335-0.256-0.67-0.521-0.985-0.784c-0.497-0.409-0.981-0.83-1.453-1.262
	c-0.005-0.005-0.016-0.014-0.02-0.019c-0.005-0.005-0.016-0.014-0.02-0.019c-0.183-0.169-0.367-0.339-0.55-0.512
	c-1.627-1.597-3.28-3.387-4.977-5.295c-1.31-1.524-2.489-3.286-3.771-4.961c-0.736-0.973-1.497-1.899-2.337-2.706
	c-2.678-2.601-5.84-4.451-8.592-6.476c-3.612-2.73-8.41-5.923-7.295-11.75c0.004-0.021,0.012-0.06,0.016-0.081
	c0.004-0.021,0.012-0.06,0.017-0.081c0.839-3.963,3.758-7.567,6.337-9.924c3.296-3.014,5.557-6.916,9.523-9.353
	c3.089-2.012,6.207-2.997,9.18-3.639c0.628-0.144,1.329-0.364,1.996-0.545c2.076-0.514,4.234-1.093,6.49-1.919
	c3.975-1.318,6.325-4.667,10.357-6.295c4.465-2.014,9.631-2.354,13.622-2.672c0.534-0.05,1.063-0.083,1.572-0.112
	c0.27-0.069,0.545-0.147,0.831-0.215c1.963-0.468,4.208-0.873,6.691-1.197c1.703-0.199,3.403-0.312,5.056-0.424
	c1.919-0.13,3.785-0.226,5.538-0.416c0.154-0.017,0.311-0.033,0.472-0.05c0.081-0.011,0.351-0.033,0.438-0.045
	c0.795-0.083,1.595-0.147,2.304-0.222c1.371-0.123,2.747-0.251,3.906-0.427c0.447-0.069,0.865-0.146,1.239-0.232
	c0.416-0.077,0.819-0.157,1.204-0.242c0.406-0.06,0.661-0.129,0.847-0.192c0.182-0.051,0.37-0.102,0.562-0.154
	c0.315-0.09,0.699-0.191,1.033-0.288c3.646-1.342,7.254-2.88,10.926-4.483c1.361-0.594,2.737-1.2,4.116-1.804
	c4.098-1.796,8.171-3.316,12.068-4.753c4.949-1.914,10.037-3.282,14.746-4.77c0.006-0.002,0.019-0.006,0.025-0.008
	s0.019-0.006,0.025-0.008c6.5-2.125,13.013-3.978,19.001-6.814c3.362-1.574,6.762-2.856,10.156-3.987
	c4.442-1.474,8.879-2.703,13.238-4.004c0.554-0.154,1.642-0.502,2.196-0.658c3.818-1.149,7.642-2.336,11.43-3.717
	c10.668-3.88,21.522-7.845,31.999-12.216c0.007-0.003,0.021-0.009,0.028-0.012s0.021-0.009,0.028-0.012
	c3.969-1.654,7.923-3.318,11.828-5.019c4.22-1.827,8.603-3.531,12.984-5.171c2.642-0.989,5.251-1.943,7.816-2.885
	c0.05-0.018,0.149-0.055,0.199-0.073c0.05-0.018,0.149-0.054,0.199-0.072c2.823-1.023,5.588-1.959,8.267-2.821
	C318.404,92.702,320.548,92.312,322.537,92.312"/>
<path class="st1" d="M324.334,89.552L324.334,89.552c4.964,0,12.072,2.277,16.523,11.843c0.003,0.006,0.01,0.021,0.013,0.027
	c0.003,0.006,0.01,0.021,0.013,0.027c3.885,8.444,3.35,18.065,3.973,26.422c0.043,0.592,0.091,1.179,0.147,1.758
	c0.159,1.642,0.29,3.242,0.421,4.742c0.635,6.914,0.53,13.733,0.614,20.262c0.022,1.789,0.058,3.558,0.125,5.308
	c0.047,1.368,0.122,2.743,0.19,4.108c0.001,0.014,0.002,0.048,0.003,0.062c0.001,0.014,0.002,0.048,0.003,0.062
	c0.031,0.646,0.061,1.294,0.084,1.942c0.059,1.722,0.064,3.491-0.1,5.259c-0.251,2.415-0.714,4.911-1.169,7.462
	c-0.004,0.019-0.011,0.064-0.015,0.083c-0.004,0.019-0.011,0.064-0.015,0.083c-0.348,1.942-0.661,3.814-0.779,5.616
	c-0.011,0.158-0.021,0.319-0.029,0.481c-0.034,0.635-0.036,1.249-0.004,1.807c0.273,1.287,0.709,2.511,1.097,3.907
	c0.183,0.652,0.351,1.319,0.486,2.029c0.604,3.143,0.375,6.131,0.387,8.838c0.001,0.593,0.01,1.26,0.046,1.753
	c0.096,1.281,0.446,3.079,0.803,4.742c1.737,8.231,5.21,18.627,1.426,28.139c-0.119,0.302-0.245,0.601-0.378,0.898
	c-2.719,6.11-8.494,9.15-15.257,10.22c-6.331,0.758-13.416-0.287-19.044-1.608c-0.978-0.258-1.891-0.52-2.724-0.772
	c-10.602-3.054-20.998-6.576-28.784-9.38c-2.951-1.101-5.922-2.2-8.909-3.346c-3.816-1.47-7.629-2.762-11.482-3.939
	c-5.998-1.827-12.066-3.346-18.365-4.781c-2.438-0.556-4.903-1.055-7.419-1.509c-5.831-1.057-11.726-2.607-17.51-2.909
	c-2.952-0.154-5.866,0.065-8.701,0.909c-0.01,0.005-0.034,0.008-0.044,0.013s-0.035,0.008-0.044,0.013
	c-2.213,0.644-4.312,1.626-6.235,3.112c-1.935,3.766-2.338,6.361-2.097,9.1c0.061,0.201,0.126,0.403,0.192,0.604
	c0.859,1.624,1.904,3.51,2.876,5.98c2.197,5.648,1.765,9.623,3.359,14.743c0.132,0.421,0.277,0.849,0.438,1.286
	c1.405,3.43,5.981,11.782,9.448,14.871c1.02,0.843,1.94,1.881,2.74,3.057c5.076,7.778,5.141,20.893-4.412,25.212
	c-1.398,0.66-2.816,1.085-4.219,1.331c-2.925,0.512-5.89,0.24-8.796-0.433c-0.858-0.2-1.707-0.438-2.546-0.702
	c-2.27-0.551-5.247-3.02-7.938-4.273c-0.443-0.22-0.877-0.402-1.295-0.527c-0.3-0.021-0.588,0.007-0.862,0.094
	c-0.003,0.004-0.042,0.009-0.044,0.013c-3.502,1.104-2.74,7.119-3.416,9.737c-0.6,4.316-0.319,8.66-3.529,11.557
	c-1.301,1.15-3.132,2.05-5.777,2.615c-0.736,0.16-1.513,0.203-2.295,0.203c-6.158,0-13.349-3.709-17.085-7.931
	c-1.706-2.083-3.312-4.056-4.845-5.843c-2.608-1.416-5.499-2.117-9.002-1.996c-0.701,0.023-1.428,0.084-2.185,0.184
	c-2.42,0.285-5.003,0.811-7.805,1.625c-0.548,0.136-1.098,0.268-1.65,0.39c-3.391,0.757-6.746,1.138-10.026-0.024
	c-1.077-0.377-2.128-0.926-3.152-1.681c-2.794-2.056-4.394-5.93-5.008-9.554c-0.007-0.048-0.024-0.157-0.031-0.203
	c-0.006-0.046-0.021-0.155-0.026-0.2c-0.368-2.988,0.642-4.24,1.964-6.504c1.55-2.926,2.366-5.94,2.463-8.778
	c-0.409-1.409-1.025-2.866-1.809-4.342c-1.246-2.331-2.783-4.181-4.154-6.197c-1.622-1.607-3.244-3.405-4.344-6.093
	c-1.077-2.817-2.094-5.192-4.009-7.637c-0.287-0.363-0.593-0.718-0.92-1.065c-2.722-1.927-5.028-3.391-6.831-6.42
	c-3.372-5.459-4.279-8.504-9.911-11.821c-0.344-0.231-0.678-0.468-1.003-0.709c-0.033-0.018-0.093-0.076-0.126-0.094c0,0,0,0,0,0
	c-1.312-1.019-2.452-2.115-3.472-3.216c-0.344-0.256-0.69-0.519-1.014-0.779c-0.512-0.406-1.012-0.824-1.5-1.253
	c-0.004-0.005-0.017-0.014-0.021-0.019c-0.004-0.005-0.017-0.014-0.021-0.019c-0.189-0.167-0.379-0.336-0.569-0.507
	c-1.664-1.571-3.39-3.342-5.167-5.257c-1.356-1.516-2.591-3.272-3.922-4.963c-0.76-0.978-1.539-1.914-2.39-2.739
	c-2.714-2.66-5.846-4.63-8.543-6.782c-3.548-2.912-8.134-6.291-7.007-12.18c0.004-0.02,0.012-0.062,0.016-0.082
	c0.004-0.02,0.013-0.061,0.017-0.082c0.841-3.991,3.693-7.619,6.238-10.04c3.255-3.098,5.554-7.003,9.469-9.477
	c3.089-2.078,6.198-3.136,9.125-3.822c0.615-0.155,1.316-0.402,1.977-0.604c2.043-0.565,4.179-1.208,6.43-2.092
	c3.916-1.38,6.323-4.699,10.374-6.363c4.763-2.196,10.156-2.575,14.302-2.919c0.562-0.053,1.117-0.091,1.649-0.126
	c0.278-0.082,0.563-0.175,0.86-0.257c2.005-0.556,4.343-1.066,6.968-1.472c1.785-0.25,3.566-0.397,5.295-0.531
	c2.024-0.157,3.985-0.261,5.81-0.452c0.162-0.017,0.328-0.033,0.496-0.05c0.077-0.011,0.38-0.034,0.462-0.046
	c0.849-0.085,1.69-0.147,2.418-0.218c1.443-0.117,2.883-0.232,4.102-0.394c0.469-0.064,0.909-0.135,1.304-0.215
	c0.44-0.071,0.865-0.146,1.267-0.227c0.445-0.057,0.71-0.125,0.892-0.185c0.19-0.051,0.388-0.102,0.592-0.154
	c0.327-0.09,0.737-0.191,1.087-0.289c3.817-1.401,7.599-3.019,11.462-4.708c1.425-0.623,2.87-1.26,4.319-1.894
	c4.321-1.893,8.615-3.448,12.691-4.912c5.048-1.91,10.21-3.296,14.915-4.832c0.006-0.002,0.019-0.007,0.025-0.008
	c0.006-0.002,0.019-0.007,0.025-0.008c6.566-2.223,13.145-4.129,19.207-6.941c3.418-1.566,6.864-2.844,10.296-3.976
	c4.51-1.481,9-2.725,13.394-4.053c0.526-0.147,1.694-0.525,2.22-0.674c3.858-1.175,7.724-2.387,11.556-3.785
	c10.802-3.932,21.782-7.955,32.359-12.389c0.007-0.003,0.021-0.009,0.028-0.012c0.007-0.003,0.021-0.009,0.028-0.012
	c4.012-1.68,8.014-3.361,11.968-5.071c4.28-1.84,8.715-3.558,13.143-5.213c2.678-1.001,5.317-1.966,7.907-2.918
	c0.048-0.017,0.153-0.057,0.201-0.074c0.048-0.017,0.154-0.056,0.201-0.073c2.861-1.035,5.661-1.971,8.376-2.818
	C320.142,89.933,322.313,89.552,324.334,89.552"/>
<path class="st1" d="M326.131,86.792L326.131,86.792c5.135,0,12.939,2.296,17.757,12.649c0.003,0.006,0.01,0.022,0.013,0.028
	c0.003,0.006,0.01,0.022,0.013,0.028c3.989,8.668,3.506,18.445,4.115,26.893c0.042,0.604,0.089,1.202,0.143,1.791
	c0.155,1.681,0.286,3.313,0.422,4.828c0.666,7.061,0.569,14.014,0.65,20.633c0.022,1.825,0.056,3.627,0.121,5.406
	c0.046,1.395,0.12,2.795,0.189,4.183c0.001,0.013,0.002,0.049,0.003,0.063c0.001,0.013,0.002,0.05,0.003,0.063
	c0.031,0.657,0.063,1.317,0.087,1.977c0.062,1.745,0.074,3.545-0.08,5.357c-0.236,2.453-0.682,4.997-1.142,7.605
	c-0.003,0.018-0.011,0.067-0.015,0.084c-0.003,0.018-0.012,0.067-0.015,0.084c-0.352,1.988-0.678,3.894-0.815,5.717
	c-0.012,0.161-0.024,0.324-0.035,0.488c-0.041,0.644-0.053,1.271-0.03,1.839c0.282,1.293,0.722,2.547,1.114,3.981
	c0.184,0.667,0.352,1.349,0.488,2.069c0.611,3.233,0.39,6.284,0.399,9.003c0,0.605,0.008,1.297,0.043,1.785
	c0.096,1.288,0.471,3.17,0.845,4.889c1.788,8.38,5.292,19.109,1.315,29.025c-0.124,0.311-0.254,0.62-0.392,0.926
	c-2.812,6.288-8.678,9.554-15.6,10.803c-6.363,0.884-13.492-0.021-19.283-1.273c-0.989-0.245-1.917-0.494-2.768-0.736
	c-10.925-2.935-21.576-6.592-29.19-9.352c-2.983-1.125-5.991-2.241-9.018-3.399c-3.858-1.481-7.72-2.79-11.628-3.991
	c-6.061-1.858-12.2-3.43-18.57-4.946c-2.465-0.587-4.955-1.116-7.496-1.597c-5.875-1.113-11.824-2.673-17.717-3.026
	c-2.979-0.179-5.932,0.002-8.822,0.776c-0.009,0.005-0.036,0.007-0.045,0.012s-0.036,0.007-0.045,0.012
	c-2.264,0.589-4.412,1.492-6.376,2.874c-1.813,3.831-2.211,6.505-1.996,9.254c0.067,0.203,0.136,0.405,0.208,0.607
	c0.949,1.609,2.069,3.481,3.112,5.916c2.348,5.561,2.171,9.595,3.859,14.755c0.14,0.425,0.292,0.857,0.458,1.297
	c1.519,3.601,5.97,11.906,9.287,15.222c0.975,0.898,1.849,1.981,2.604,3.195c4.789,8.064,4.564,21.095-4.963,25.601
	c-1.399,0.69-2.821,1.154-4.234,1.441c-2.937,0.597-5.932,0.427-8.885-0.143c-0.87-0.17-1.734-0.378-2.588-0.613
	c-2.355-0.47-5.387-2.782-8.151-3.969c-0.451-0.209-0.893-0.381-1.321-0.501c-0.294,0-0.579,0.045-0.85,0.147
	c-0.003,0.005-0.04,0.01-0.043,0.015c-3.445,1.264-2.893,7.153-3.737,9.791c-0.803,4.271-0.819,8.525-4.178,11.355
	c-1.367,1.127-3.241,2.002-5.895,2.547c-0.747,0.154-1.533,0.197-2.326,0.197c-6.36,0-13.726-3.703-17.724-8.013
	c-1.797-2.095-3.485-4.105-5.082-5.954c-2.703-1.232-5.717-1.805-9.354-1.663c-0.725,0.027-1.476,0.087-2.257,0.182
	c-2.529,0.27-5.209,0.73-8.087,1.425c-0.57,0.112-1.14,0.217-1.711,0.312c-3.512,0.589-6.954,0.75-10.27-0.606
	c-1.088-0.44-2.147-1.049-3.174-1.857c-2.804-2.206-4.43-6.175-5.067-9.93c-0.007-0.045-0.025-0.162-0.031-0.206
	c-0.006-0.044-0.022-0.16-0.027-0.203c-0.375-3.01,0.578-4.362,1.843-6.657c1.49-3.016,2.328-6.077,2.498-8.935
	c-0.448-1.415-1.094-2.886-1.895-4.387c-1.258-2.345-2.787-4.256-4.143-6.348c-1.647-1.613-3.314-3.436-4.484-6.143
	c-1.132-2.807-2.205-5.225-4.113-7.747c-0.286-0.374-0.588-0.738-0.909-1.093c-2.784-1.936-5.146-3.452-7.009-6.458
	c-3.51-5.449-4.592-8.642-10.099-12.031c-0.342-0.243-0.675-0.491-0.999-0.742c-0.031-0.017-0.095-0.081-0.125-0.098c0,0,0,0,0,0
	c-1.315-1.07-2.453-2.206-3.466-3.33c-0.354-0.255-0.711-0.517-1.043-0.775c-0.528-0.404-1.043-0.818-1.547-1.244
	c-0.004-0.005-0.018-0.014-0.022-0.018c-0.004-0.005-0.018-0.014-0.022-0.018c-0.195-0.166-0.392-0.333-0.589-0.503
	c-1.702-1.545-3.499-3.298-5.358-5.219c-1.401-1.508-2.693-3.257-4.073-4.965c-0.784-0.983-1.582-1.929-2.443-2.773
	c-2.75-2.719-5.853-4.81-8.495-7.088c-3.483-3.093-7.857-6.66-6.719-12.61c0.004-0.019,0.012-0.063,0.016-0.082
	c0.004-0.019,0.013-0.063,0.017-0.082c0.844-4.018,3.628-7.671,6.139-10.155c3.213-3.183,5.552-7.09,9.415-9.6
	c3.089-2.143,6.19-3.275,9.069-4.006c0.602-0.165,1.304-0.441,1.958-0.662c2.01-0.616,4.125-1.324,6.37-2.264
	c3.857-1.443,6.32-4.73,10.391-6.432c5.06-2.378,10.68-2.797,14.981-3.165c0.589-0.057,1.171-0.1,1.726-0.139
	c0.286-0.095,0.58-0.203,0.89-0.3c2.048-0.642,4.479-1.26,7.245-1.747c1.867-0.302,3.729-0.483,5.534-0.638
	c2.129-0.183,4.185-0.297,6.082-0.487c0.171-0.017,0.344-0.034,0.52-0.051c0.073-0.01,0.409-0.035,0.487-0.046
	c0.903-0.088,1.784-0.146,2.531-0.213c1.516-0.111,3.02-0.213,4.298-0.361c0.49-0.058,0.953-0.123,1.37-0.198
	c0.463-0.066,0.91-0.135,1.33-0.212c0.485-0.054,0.759-0.12,0.936-0.178c0.199-0.051,0.407-0.102,0.621-0.154
	c0.339-0.089,0.775-0.192,1.141-0.29c3.988-1.459,7.943-3.157,11.998-4.933c1.49-0.652,3.004-1.32,4.522-1.984
	c4.545-1.989,9.059-3.581,13.314-5.072c5.148-1.906,10.383-3.31,15.084-4.894c0.006-0.002,0.02-0.007,0.025-0.009
	s0.02-0.007,0.025-0.009c6.632-2.322,13.277-4.28,19.412-7.067c3.473-1.557,6.967-2.832,10.436-3.965
	c4.578-1.489,9.121-2.747,13.55-4.102c0.499-0.139,1.745-0.549,2.244-0.689c3.898-1.201,7.805-2.438,11.681-3.853
	c10.936-3.983,22.042-8.065,32.719-12.562c0.006-0.003,0.022-0.009,0.028-0.012c0.006-0.003,0.022-0.009,0.028-0.012
	c4.056-1.706,8.105-3.404,12.109-5.124c4.34-1.854,8.827-3.586,13.302-5.256c2.715-1.013,5.382-1.988,7.999-2.951
	c0.045-0.017,0.158-0.058,0.203-0.075c0.045-0.016,0.158-0.057,0.204-0.074c2.9-1.048,5.734-1.982,8.484-2.814
	C321.881,87.164,324.077,86.792,326.131,86.792"/>
<path class="st1" d="M327.928,84.031L327.928,84.031c5.306,0,13.807,2.315,18.991,13.455c0.003,0.005,0.011,0.023,0.013,0.028
	c0.003,0.005,0.011,0.023,0.013,0.028c4.094,8.892,3.661,18.824,4.256,27.365c0.041,0.615,0.087,1.224,0.14,1.824
	c0.152,1.721,0.282,3.384,0.422,4.914c0.698,7.209,0.608,14.294,0.687,21.005c0.021,1.86,0.054,3.695,0.118,5.505
	c0.045,1.423,0.118,2.847,0.188,4.259c0.001,0.012,0.003,0.051,0.003,0.064c0.001,0.012,0.002,0.051,0.003,0.064
	c0.031,0.668,0.064,1.34,0.09,2.011c0.066,1.767,0.084,3.6-0.059,5.454c-0.221,2.491-0.65,5.083-1.114,7.749
	c-0.003,0.017-0.012,0.069-0.015,0.086c-0.003,0.017-0.012,0.069-0.015,0.086c-0.357,2.033-0.695,3.973-0.851,5.818
	c-0.014,0.163-0.028,0.329-0.041,0.496c-0.048,0.653-0.07,1.293-0.056,1.871c0.291,1.3,0.736,2.583,1.13,4.056
	c0.185,0.683,0.353,1.379,0.489,2.109c0.618,3.322,0.405,6.436,0.41,9.168c0,0.617,0.005,1.333,0.04,1.817
	c0.097,1.294,0.497,3.261,0.887,5.037c1.838,8.529,5.374,19.59,1.203,29.911c-0.128,0.321-0.264,0.639-0.407,0.954
	c-2.905,6.467-8.862,9.959-15.942,11.386c-6.394,1.011-13.569,0.244-19.523-0.938c-1-0.231-1.943-0.468-2.813-0.7
	c-11.247-2.816-22.154-6.609-29.595-9.324c-3.016-1.148-6.059-2.281-9.127-3.451c-3.899-1.492-7.81-2.817-11.773-4.044
	c-6.123-1.889-12.334-3.513-18.774-5.111c-2.491-0.619-5.007-1.177-7.574-1.684c-5.919-1.17-11.922-2.737-17.923-3.143
	c-3.006-0.203-5.998-0.061-8.944,0.643c-0.009,0.004-0.037,0.006-0.046,0.011c-0.009,0.004-0.037,0.006-0.046,0.011
	c-2.314,0.533-4.511,1.357-6.517,2.635c-1.69,3.895-2.083,6.649-1.894,9.407c0.072,0.204,0.147,0.408,0.224,0.61
	c1.04,1.595,2.235,3.451,3.349,5.853c2.5,5.474,2.576,9.567,4.359,14.768c0.148,0.429,0.307,0.864,0.479,1.308
	c1.633,3.773,5.959,12.03,9.126,15.572c0.929,0.954,1.758,2.082,2.468,3.333c4.502,8.35,3.988,21.297-5.514,25.991
	c-1.4,0.72-2.826,1.222-4.25,1.551c-2.95,0.681-5.973,0.614-8.973,0.146c-0.883-0.14-1.761-0.317-2.63-0.523
	c-2.44-0.388-5.527-2.544-8.365-3.665c-0.459-0.197-0.909-0.361-1.346-0.475c-0.289,0.021-0.569,0.084-0.837,0.2
	c-0.003,0.006-0.039,0.012-0.043,0.017c-3.389,1.424-3.046,7.187-4.058,9.846c-1.006,4.226-1.318,8.389-4.828,11.154
	c-1.434,1.104-3.35,1.954-6.012,2.478c-0.758,0.149-1.554,0.191-2.357,0.191c-6.562,0-14.103-3.697-18.364-8.095
	c-1.888-2.107-3.658-4.155-5.318-6.064c-2.797-1.049-5.935-1.492-9.705-1.331c-0.748,0.031-1.523,0.091-2.328,0.18
	c-2.639,0.255-5.415,0.648-8.368,1.224c-0.591,0.087-1.182,0.167-1.773,0.235c-3.634,0.422-7.161,0.362-10.515-1.187
	c-1.1-0.503-2.166-1.171-3.195-2.033c-2.814-2.357-4.467-6.419-5.126-10.307c-0.006-0.043-0.026-0.167-0.032-0.209
	c-0.006-0.042-0.023-0.166-0.028-0.206c-0.383-3.032,0.513-4.483,1.722-6.81c1.429-3.105,2.289-6.214,2.534-9.093
	c-0.488-1.42-1.163-2.906-1.981-4.432c-1.271-2.359-2.791-4.33-4.131-6.498c-1.671-1.619-3.383-3.467-4.624-6.192
	c-1.187-2.797-2.315-5.259-4.217-7.857c-0.284-0.384-0.583-0.758-0.899-1.122c-2.846-1.945-5.264-3.513-7.187-6.497
	c-3.648-5.439-4.905-8.779-10.287-12.241c-0.341-0.255-0.673-0.514-0.995-0.775c-0.029-0.016-0.096-0.087-0.125-0.102c0,0,0,0,0,0
	c-1.319-1.122-2.453-2.297-3.46-3.443c-0.363-0.254-0.732-0.516-1.072-0.771c-0.543-0.401-1.075-0.813-1.595-1.235
	c-0.004-0.004-0.019-0.014-0.023-0.018c-0.004-0.004-0.019-0.014-0.022-0.018c-0.201-0.164-0.404-0.331-0.608-0.499
	c-1.739-1.52-3.609-3.254-5.549-5.182c-1.446-1.5-2.795-3.243-4.224-4.968c-0.807-0.988-1.624-1.944-2.497-2.806
	c-2.787-2.779-5.859-4.99-8.447-7.394c-3.418-3.274-7.581-7.029-6.431-13.04c0.004-0.018,0.013-0.064,0.016-0.082
	c0.004-0.018,0.013-0.064,0.017-0.082c0.847-4.046,3.562-7.722,6.04-10.271c3.172-3.267,5.55-7.177,9.361-9.724
	c3.088-2.209,6.181-3.414,9.014-4.189c0.589-0.176,1.292-0.479,1.939-0.72c1.977-0.667,4.071-1.439,6.31-2.437
	c3.798-1.505,6.318-4.761,10.408-6.5c5.358-2.56,11.205-3.018,15.661-3.412c0.617-0.061,1.225-0.108,1.803-0.153
	c0.295-0.108,0.598-0.231,0.919-0.343c2.09-0.727,4.614-1.454,7.522-2.022c1.948-0.354,3.893-0.568,5.773-0.745
	c2.235-0.21,4.385-0.332,6.355-0.522c0.179-0.017,0.361-0.034,0.544-0.051c0.069-0.009,0.438-0.036,0.512-0.046
	c0.957-0.09,1.879-0.145,2.644-0.209c1.588-0.105,3.156-0.195,4.493-0.328c0.512-0.053,0.996-0.112,1.435-0.181
	c0.487-0.06,0.955-0.125,1.393-0.197c0.524-0.051,0.808-0.116,0.981-0.171c0.207-0.051,0.425-0.102,0.65-0.155
	c0.351-0.088,0.813-0.192,1.195-0.291c4.16-1.517,8.288-3.296,12.534-5.159c1.555-0.682,3.137-1.38,4.725-2.074
	c4.768-2.085,9.503-3.713,13.938-5.231c5.248-1.902,10.556-3.325,15.254-4.955c0.005-0.001,0.02-0.008,0.026-0.009
	c0.005-0.001,0.02-0.008,0.026-0.009c6.698-2.42,13.408-4.43,19.618-7.193c3.529-1.549,7.07-2.82,10.576-3.954
	c4.647-1.496,9.242-2.769,13.706-4.151c0.471-0.131,1.796-0.572,2.267-0.704c3.938-1.227,7.887-2.489,11.806-3.921
	c11.07-4.035,22.301-8.174,33.079-12.735c0.006-0.002,0.023-0.01,0.029-0.012c0.006-0.002,0.023-0.01,0.029-0.012
	c4.099-1.732,8.196-3.446,12.25-5.177c4.4-1.868,8.939-3.613,13.461-5.298c2.751-1.025,5.448-2.01,8.09-2.984
	c0.043-0.016,0.163-0.06,0.205-0.076c0.043-0.016,0.163-0.059,0.206-0.074c2.938-1.061,5.807-1.994,8.593-2.81
	C323.619,84.396,325.841,84.031,327.928,84.031"/>
<path class="st1" d="M329.725,81.271L329.725,81.271c5.477,0,14.675,2.335,20.225,14.261c0.002,0.005,0.011,0.024,0.013,0.029
	s0.011,0.024,0.013,0.029c4.198,9.117,3.817,19.204,4.398,27.837c0.041,0.627,0.086,1.247,0.137,1.857
	c0.148,1.76,0.277,3.455,0.422,5.001c0.729,7.357,0.648,14.575,0.724,21.376c0.02,1.896,0.052,3.764,0.115,5.603
	c0.045,1.451,0.116,2.9,0.187,4.334c0.001,0.012,0.003,0.053,0.003,0.065c0.001,0.012,0.002,0.053,0.003,0.065
	c0.032,0.679,0.065,1.362,0.092,2.046c0.069,1.789,0.095,3.655-0.039,5.552c-0.207,2.529-0.619,5.17-1.086,7.892
	c-0.003,0.016-0.012,0.072-0.015,0.087c-0.003,0.016-0.012,0.072-0.015,0.087c-0.362,2.079-0.712,4.052-0.887,5.919
	c-0.016,0.165-0.031,0.333-0.046,0.504c-0.056,0.661-0.087,1.315-0.083,1.902c0.301,1.307,0.749,2.62,1.147,4.13
	c0.186,0.699,0.354,1.408,0.49,2.149c0.625,3.411,0.42,6.589,0.422,9.333c-0.001,0.63,0.003,1.37,0.037,1.849
	c0.097,1.301,0.523,3.352,0.929,5.184c1.889,8.678,5.456,20.072,1.092,30.797c-0.133,0.33-0.273,0.658-0.421,0.983
	c-2.998,6.645-9.045,10.364-16.285,11.97c-6.426,1.137-13.645,0.51-19.762-0.603c-1.012-0.218-1.969-0.443-2.857-0.664
	c-11.57-2.698-22.732-6.626-30-9.296c-3.048-1.172-6.128-2.322-9.236-3.504c-3.94-1.503-7.901-2.845-11.918-4.096
	c-6.186-1.921-12.468-3.597-18.978-5.276c-2.518-0.651-5.059-1.238-7.651-1.771c-5.962-1.226-12.021-2.801-18.13-3.259
	c-3.034-0.227-6.064-0.124-9.065,0.51c-0.008,0.004-0.039,0.005-0.047,0.01c-0.008,0.004-0.039,0.005-0.047,0.01
	c-2.365,0.478-4.61,1.222-6.658,2.397c-1.568,3.959-1.956,6.793-1.793,9.561c0.078,0.206,0.158,0.411,0.239,0.614
	c1.13,1.58,2.4,3.421,3.585,5.789c2.651,5.387,2.982,9.538,4.859,14.78c0.156,0.432,0.322,0.872,0.5,1.319
	c1.747,3.945,5.947,12.153,8.964,15.923c0.884,1.01,1.667,2.183,2.332,3.471c4.215,8.637,3.412,21.499-6.064,26.38
	c-1.401,0.75-2.831,1.29-4.265,1.661c-2.962,0.765-6.015,0.801-9.061,0.435c-0.896-0.11-1.788-0.257-2.672-0.434
	c-2.525-0.306-5.667-2.305-8.579-3.36c-0.467-0.186-0.926-0.34-1.372-0.449c-0.284,0.041-0.56,0.122-0.824,0.253
	c-0.004,0.006-0.038,0.013-0.042,0.019c-3.333,1.584-3.198,7.222-4.379,9.901c-1.21,4.181-1.818,8.254-5.478,10.952
	c-1.5,1.08-3.459,1.906-6.129,2.41c-0.768,0.144-1.574,0.185-2.387,0.185c-6.765,0-14.48-3.691-19.003-8.177
	c-1.979-2.12-3.83-4.204-5.555-6.175c-2.892-0.865-6.153-1.18-10.057-0.999c-0.772,0.035-1.571,0.094-2.399,0.178
	c-2.749,0.24-5.621,0.567-8.65,1.023c-0.612,0.063-1.223,0.117-1.834,0.157c-3.756,0.255-7.368-0.026-10.759-1.769
	c-1.111-0.566-2.184-1.293-3.217-2.209c-2.823-2.508-4.503-6.663-5.184-10.683c-0.006-0.04-0.028-0.173-0.033-0.212
	c-0.005-0.039-0.024-0.171-0.028-0.209c-0.391-3.054,0.449-4.604,1.601-6.963c1.369-3.194,2.251-6.352,2.569-9.25
	c-0.527-1.426-1.231-2.925-2.067-4.477c-1.283-2.373-2.795-4.405-4.119-6.649c-1.695-1.625-3.453-3.498-4.765-6.242
	c-1.241-2.787-2.426-5.292-4.321-7.967c-0.283-0.395-0.578-0.778-0.889-1.15c-2.907-1.955-5.382-3.574-7.366-6.535
	c-3.786-5.428-5.218-8.917-10.475-12.451c-0.34-0.267-0.67-0.537-0.991-0.809c-0.027-0.015-0.097-0.092-0.125-0.107c0,0,0,0,0,0
	c-1.322-1.173-2.454-2.388-3.454-3.557c-0.373-0.253-0.752-0.514-1.101-0.767c-0.559-0.399-1.106-0.807-1.642-1.226
	c-0.004-0.004-0.02-0.014-0.023-0.018c-0.004-0.004-0.02-0.014-0.023-0.018c-0.207-0.163-0.416-0.328-0.627-0.495
	c-1.776-1.494-3.719-3.209-5.74-5.144c-1.492-1.492-2.897-3.229-4.375-4.97c-0.831-0.993-1.666-1.959-2.55-2.839
	c-2.823-2.838-5.866-5.169-8.399-7.701c-3.354-3.456-7.305-7.397-6.143-13.47c0.003-0.017,0.013-0.066,0.016-0.083
	s0.013-0.066,0.017-0.083c0.849-4.073,3.497-7.774,5.942-10.387c3.13-3.352,5.548-7.264,9.307-9.847
	c3.088-2.274,6.173-3.553,8.958-4.372c0.576-0.187,1.279-0.517,1.92-0.779c1.944-0.718,4.017-1.554,6.251-2.609
	c3.738-1.567,6.316-4.792,10.425-6.569c5.656-2.742,11.73-3.239,16.341-3.658c0.645-0.065,1.279-0.116,1.879-0.166
	c0.303-0.122,0.616-0.258,0.948-0.385c2.134-0.812,4.75-1.648,7.798-2.297c2.03-0.405,4.056-0.653,6.012-0.852
	c2.34-0.237,4.586-0.368,6.627-0.558c0.188-0.017,0.378-0.034,0.568-0.051c0.065-0.009,0.468-0.038,0.537-0.047
	c1.011-0.093,1.973-0.144,2.758-0.204c1.661-0.099,3.293-0.176,4.689-0.294c0.534-0.047,1.04-0.1,1.501-0.163
	c0.511-0.055,1-0.114,1.456-0.182c0.564-0.048,0.857-0.112,1.025-0.164c0.216-0.05,0.443-0.102,0.68-0.155
	c0.363-0.087,0.851-0.192,1.249-0.291c4.331-1.575,8.633-3.435,13.069-5.384c1.62-0.711,3.271-1.441,4.928-2.164
	c4.991-2.181,9.947-3.845,14.561-5.391c5.348-1.898,10.73-3.339,15.423-5.017c0.005-0.001,0.021-0.008,0.026-0.009
	s0.021-0.008,0.026-0.009c6.764-2.519,13.54-4.581,19.824-7.32c3.584-1.54,7.172-2.808,10.715-3.943
	c4.715-1.503,9.362-2.792,13.862-4.2c0.443-0.123,1.847-0.595,2.291-0.72c3.978-1.253,7.969-2.541,11.931-3.989
	c11.204-4.086,22.561-8.284,33.439-12.908c0.006-0.002,0.023-0.01,0.029-0.012c0.006-0.002,0.023-0.01,0.029-0.012
	c4.143-1.758,8.286-3.489,12.391-5.229c4.46-1.881,9.05-3.64,13.62-5.34c2.788-1.037,5.513-2.033,8.182-3.018
	c0.04-0.015,0.167-0.062,0.207-0.077c0.04-0.015,0.168-0.06,0.208-0.075c2.976-1.074,5.88-2.005,8.701-2.807
	C325.358,81.627,327.606,81.271,329.725,81.271"/>
<path class="st1" d="M331.522,78.511L331.522,78.511c5.649,0,15.543,2.354,21.459,15.066c0.002,0.005,0.011,0.025,0.014,0.029
	c0.002,0.005,0.011,0.025,0.014,0.029c4.302,9.341,3.973,19.584,4.539,28.308c0.04,0.638,0.084,1.269,0.134,1.89
	c0.145,1.799,0.273,3.526,0.422,5.087c0.761,7.504,0.687,14.856,0.76,21.747c0.02,1.932,0.05,3.832,0.111,5.701
	c0.044,1.478,0.114,2.952,0.186,4.409c0.001,0.011,0.003,0.055,0.003,0.066c0.001,0.011,0.003,0.055,0.003,0.066
	c0.032,0.69,0.067,1.385,0.095,2.081c0.073,1.812,0.105,3.71-0.019,5.649c-0.192,2.566-0.587,5.256-1.059,8.035
	c-0.003,0.015-0.012,0.074-0.015,0.089c-0.003,0.015-0.013,0.074-0.015,0.089c-0.366,2.125-0.729,4.132-0.924,6.021
	c-0.018,0.167-0.035,0.338-0.052,0.511c-0.063,0.67-0.104,1.337-0.109,1.934c0.31,1.314,0.763,2.656,1.163,4.204
	c0.187,0.715,0.355,1.438,0.491,2.189c0.633,3.501,0.435,6.742,0.433,9.498c-0.002,0.642,0,1.407,0.034,1.881
	c0.098,1.307,0.549,3.443,0.971,5.332c1.939,8.827,5.538,20.554,0.98,31.683c-0.138,0.34-0.283,0.677-0.435,1.011
	c-3.091,6.824-9.229,10.769-16.628,12.553c-6.457,1.263-13.722,0.775-20.002-0.268c-1.023-0.204-1.995-0.417-2.901-0.628
	c-11.892-2.579-23.31-6.643-30.405-9.268c-3.08-1.195-6.196-2.363-9.345-3.557c-3.982-1.514-7.991-2.872-12.064-4.148
	c-6.248-1.952-12.603-3.68-19.183-5.442c-2.545-0.683-5.111-1.298-7.728-1.858c-6.006-1.282-12.119-2.865-18.336-3.376
	c-3.061-0.252-6.131-0.187-9.186,0.378c-0.008,0.004-0.04,0.005-0.048,0.008c-0.008,0.004-0.04,0.004-0.048,0.008
	c-2.415,0.422-4.71,1.087-6.799,2.159c-1.446,4.024-1.828,6.937-1.691,9.715c0.083,0.207,0.169,0.414,0.255,0.617
	c1.221,1.565,2.565,3.391,3.822,5.726c2.803,5.3,3.387,9.51,5.359,14.792c0.164,0.436,0.337,0.88,0.52,1.331
	c1.861,4.116,5.936,12.277,8.803,16.273c0.838,1.065,1.576,2.284,2.196,3.609c3.928,8.923,2.836,21.701-6.615,26.77
	c-1.401,0.78-2.837,1.358-4.28,1.77c-2.975,0.849-6.056,0.989-9.15,0.725c-0.909-0.08-1.815-0.197-2.714-0.345
	c-2.609-0.224-5.807-2.067-8.792-3.056c-0.475-0.174-0.942-0.319-1.397-0.423c-0.279,0.062-0.55,0.161-0.811,0.306
	c-0.004,0.007-0.037,0.014-0.041,0.022c-3.276,1.744-3.351,7.256-4.701,9.956c-1.413,4.136-2.318,8.119-6.128,10.751
	c-1.566,1.057-3.567,1.859-6.246,2.341c-0.779,0.138-1.594,0.179-2.418,0.179c-6.967,0-14.856-3.685-19.643-8.259
	c-2.07-2.132-4.003-4.253-5.791-6.286c-2.986-0.682-6.371-0.868-10.408-0.667c-0.795,0.038-1.618,0.097-2.47,0.176
	c-2.859,0.225-5.828,0.486-8.932,0.823c-0.633,0.039-1.265,0.067-1.896,0.08c-3.878,0.087-7.575-0.414-11.004-2.351
	c-1.122-0.629-2.203-1.416-3.238-2.385c-2.833-2.658-4.539-6.908-5.243-11.059c-0.006-0.038-0.029-0.178-0.033-0.215
	c-0.005-0.037-0.025-0.177-0.029-0.212c-0.399-3.076,0.384-4.726,1.48-7.116c1.309-3.284,2.212-6.489,2.604-9.408
	c-0.566-1.431-1.3-2.945-2.153-4.522c-1.296-2.387-2.799-4.48-4.107-6.8c-1.719-1.631-3.522-3.529-4.905-6.291
	c-1.296-2.777-2.537-5.325-4.425-8.077c-0.281-0.405-0.573-0.798-0.878-1.179c-2.969-1.964-5.5-3.635-7.544-6.573
	c-3.924-5.418-5.532-9.054-10.662-12.661c-0.338-0.279-0.667-0.56-0.987-0.842c-0.026-0.014-0.099-0.097-0.124-0.111c0,0,0,0,0,0
	c-1.325-1.224-2.455-2.479-3.447-3.671c-0.383-0.252-0.773-0.512-1.13-0.763c-0.574-0.396-1.138-0.802-1.689-1.217
	c-0.003-0.004-0.021-0.014-0.024-0.018c-0.003-0.004-0.021-0.014-0.024-0.018c-0.213-0.162-0.429-0.325-0.646-0.491
	c-1.814-1.468-3.829-3.165-5.931-5.106c-1.537-1.484-2.999-3.215-4.526-4.973c-0.855-0.998-1.709-1.975-2.603-2.873
	c-2.86-2.897-5.872-5.349-8.351-8.007c-3.289-3.637-7.028-7.766-5.855-13.899c0.003-0.016,0.013-0.067,0.016-0.083
	s0.014-0.067,0.017-0.083c0.852-4.101,3.432-7.825,5.843-10.503c3.089-3.436,5.545-7.351,9.253-9.971
	c3.087-2.34,6.165-3.692,8.902-4.556c0.562-0.197,1.267-0.556,1.902-0.837c1.911-0.769,3.962-1.67,6.191-2.782
	c3.679-1.629,6.314-4.823,10.442-6.637c5.954-2.924,12.254-3.46,17.02-3.905c0.672-0.069,1.333-0.125,1.956-0.179
	c0.311-0.135,0.634-0.286,0.978-0.428c2.177-0.895,4.885-1.842,8.075-2.572c2.112-0.457,4.219-0.739,6.251-0.959
	c2.445-0.265,4.786-0.403,6.9-0.593c0.196-0.017,0.394-0.034,0.592-0.051c0.061-0.008,0.497-0.039,0.561-0.047
	c1.065-0.095,2.067-0.143,2.871-0.199c1.733-0.092,3.43-0.157,4.885-0.261c0.555-0.042,1.084-0.089,1.566-0.146
	c0.534-0.049,1.045-0.103,1.519-0.167c0.603-0.045,0.905-0.107,1.07-0.158c0.224-0.05,0.462-0.102,0.709-0.155
	c0.375-0.087,0.889-0.193,1.303-0.292c4.502-1.634,8.978-3.574,13.605-5.609c1.685-0.741,3.404-1.501,5.131-2.254
	c5.215-2.278,10.391-3.978,15.185-5.55c5.447-1.894,10.903-3.353,15.592-5.079c0.005-0.001,0.021-0.009,0.026-0.01
	c0.005-0.001,0.021-0.009,0.026-0.01c6.83-2.617,13.671-4.732,20.029-7.446c3.64-1.532,7.275-2.796,10.855-3.932
	c4.783-1.51,9.483-2.814,14.017-4.249c0.416-0.116,1.899-0.618,2.314-0.735c4.018-1.279,8.05-2.592,12.057-4.056
	c11.338-4.138,22.821-8.394,33.799-13.081c0.005-0.002,0.024-0.01,0.029-0.012s0.024-0.01,0.029-0.012
	c4.186-1.783,8.377-3.532,12.532-5.282c4.52-1.895,9.162-3.667,13.779-5.383c2.825-1.049,5.579-2.055,8.273-3.051
	c0.038-0.014,0.172-0.064,0.21-0.077c0.038-0.014,0.173-0.062,0.21-0.076c3.015-1.086,5.953-2.016,8.81-2.803
	C327.096,78.858,329.37,78.511,331.522,78.511"/>
<path class="st1" d="M333.319,75.751L333.319,75.751c5.82,0,16.411,2.374,22.693,15.872c0.002,0.005,0.012,0.026,0.014,0.03
	c0.002,0.005,0.012,0.026,0.014,0.03c4.407,9.565,4.129,19.964,4.681,28.78c0.039,0.649,0.082,1.292,0.131,1.923
	c0.141,1.838,0.268,3.596,0.422,5.173c0.792,7.652,0.726,15.137,0.797,22.119c0.019,1.967,0.048,3.9,0.108,5.8
	c0.043,1.506,0.112,3.004,0.185,4.484c0.001,0.01,0.003,0.057,0.003,0.067s0.003,0.057,0.003,0.067
	c0.032,0.701,0.068,1.408,0.098,2.115c0.076,1.834,0.115,3.765,0.001,5.747c-0.177,2.604-0.555,5.343-1.031,8.178
	c-0.003,0.014-0.013,0.077-0.015,0.09c-0.003,0.014-0.013,0.077-0.016,0.09c-0.371,2.171-0.746,4.211-0.96,6.122
	c-0.019,0.17-0.039,0.343-0.057,0.519c-0.07,0.678-0.121,1.359-0.135,1.966c0.319,1.32,0.776,2.692,1.179,4.278
	c0.188,0.73,0.356,1.468,0.492,2.23c0.64,3.59,0.45,6.895,0.444,9.663c-0.003,0.654-0.002,1.444,0.031,1.913
	c0.098,1.314,0.574,3.534,1.012,5.479c1.989,8.976,5.62,21.035,0.869,32.57c-0.142,0.35-0.292,0.696-0.449,1.039
	c-3.185,7.002-9.413,11.174-16.971,13.136c-6.489,1.39-13.798,1.041-20.242,0.067c-1.034-0.19-2.021-0.391-2.946-0.592
	c-12.215-2.46-23.888-6.659-30.81-9.241c-3.112-1.219-6.265-2.404-9.455-3.609c-4.023-1.526-8.082-2.899-12.209-4.201
	c-6.311-1.984-12.737-3.763-19.387-5.607c-2.572-0.714-5.163-1.359-7.806-1.945c-6.05-1.338-12.217-2.929-18.542-3.493
	c-3.088-0.276-6.197-0.249-9.307,0.245c-0.007,0.004-0.042,0.004-0.049,0.007c-0.007,0.004-0.042,0.004-0.049,0.007
	c-2.466,0.367-4.809,0.952-6.94,1.92c-1.323,4.088-1.7,7.081-1.59,9.869c0.088,0.209,0.18,0.417,0.271,0.621
	c1.311,1.55,2.731,3.361,4.059,5.662c2.954,5.213,3.793,9.481,5.859,14.805c0.172,0.44,0.352,0.887,0.541,1.342
	c1.975,4.288,5.925,12.401,8.642,16.624c0.793,1.121,1.485,2.385,2.06,3.746c3.641,9.209,2.26,21.903-7.166,27.159
	c-1.402,0.81-2.842,1.426-4.295,1.88c-2.987,0.933-6.098,1.176-9.238,1.014c-0.922-0.049-1.841-0.137-2.756-0.255
	c-2.694-0.143-5.946-1.829-9.006-2.752c-0.483-0.162-0.959-0.299-1.423-0.397c-0.274,0.083-0.541,0.199-0.799,0.36
	c-0.005,0.008-0.036,0.016-0.041,0.024c-3.22,1.904-3.504,7.291-5.022,10.01c-1.617,4.09-2.817,7.984-6.777,10.549
	c-1.632,1.033-3.676,1.811-6.364,2.273c-0.79,0.133-1.614,0.173-2.448,0.173c-7.169,0-15.233-3.679-20.282-8.341
	c-2.161-2.145-4.176-4.303-6.027-6.396c-3.081-0.498-6.588-0.556-10.76-0.335c-0.819,0.042-1.666,0.101-2.542,0.174
	c-2.969,0.21-6.034,0.404-9.214,0.622c-0.654,0.015-1.306,0.017-1.957,0.002c-3.999-0.08-7.782-0.802-11.248-2.932
	c-1.134-0.691-2.222-1.538-3.26-2.562c-2.843-2.809-4.576-7.152-5.302-11.436c-0.005-0.035-0.03-0.184-0.034-0.218
	c-0.005-0.034-0.026-0.182-0.03-0.215c-0.407-3.099,0.32-4.847,1.359-7.269c1.249-3.373,2.174-6.626,2.639-9.565
	c-0.605-1.437-1.369-2.965-2.24-4.567c-1.308-2.401-2.803-4.554-4.095-6.95c-1.744-1.637-3.592-3.56-5.045-6.341
	c-1.35-2.767-2.648-5.358-4.529-8.186c-0.28-0.416-0.568-0.818-0.868-1.207c-3.031-1.973-5.618-3.696-7.723-6.611
	c-4.062-5.408-5.845-9.191-10.85-12.871c-0.337-0.291-0.664-0.583-0.983-0.875c-0.024-0.013-0.1-0.102-0.124-0.115c0,0,0,0,0,0
	c-1.329-1.275-2.455-2.569-3.441-3.784c-0.392-0.252-0.793-0.511-1.159-0.759c-0.59-0.394-1.169-0.796-1.737-1.208
	c-0.003-0.004-0.021-0.014-0.025-0.018c-0.003-0.004-0.021-0.014-0.025-0.018c-0.219-0.16-0.441-0.322-0.666-0.487
	c-1.851-1.443-3.938-3.12-6.122-5.068c-1.582-1.476-3.102-3.201-4.677-4.975c-0.879-1.004-1.751-1.99-2.656-2.906
	c-2.896-2.956-5.878-5.529-8.303-8.313c-3.224-3.818-6.752-8.134-5.567-14.329c0.003-0.015,0.013-0.069,0.016-0.083
	c0.003-0.015,0.014-0.069,0.017-0.083c0.854-4.128,3.367-7.877,5.744-10.618c3.047-3.52,5.543-7.438,9.199-10.094
	c3.087-2.406,6.156-3.831,8.847-4.739c0.549-0.208,1.254-0.594,1.883-0.895c1.878-0.819,3.908-1.785,6.131-2.954
	c3.62-1.691,6.312-4.854,10.459-6.706c6.251-3.106,12.779-3.682,17.7-4.151c0.7-0.073,1.387-0.133,2.033-0.193
	c0.32-0.148,0.652-0.313,1.007-0.47c2.221-0.978,5.02-2.036,8.352-2.847c2.194-0.508,4.383-0.825,6.49-1.066
	c2.551-0.292,4.986-0.439,7.172-0.628c0.205-0.017,0.411-0.034,0.616-0.052c0.057-0.008,0.526-0.04,0.586-0.048
	c1.119-0.097,2.162-0.142,2.985-0.195c1.806-0.086,3.566-0.138,5.081-0.228c0.577-0.036,1.128-0.078,1.632-0.129
	c0.558-0.044,1.09-0.093,1.582-0.152c0.643-0.042,0.954-0.103,1.114-0.151c0.233-0.05,0.48-0.102,0.738-0.155
	c0.387-0.086,0.927-0.193,1.357-0.293c4.673-1.692,9.323-3.712,14.141-5.834c1.75-0.77,3.538-1.561,5.334-2.344
	c5.438-2.374,10.835-4.11,15.808-5.71c5.547-1.89,11.076-3.368,15.762-5.141c0.004-0.001,0.022-0.009,0.026-0.01
	c0.005-0.001,0.022-0.009,0.026-0.01c6.896-2.716,13.803-4.883,20.235-7.572c3.695-1.524,7.377-2.784,10.995-3.921
	c4.852-1.517,9.604-2.836,14.173-4.298c0.388-0.108,1.95-0.642,2.338-0.751c4.058-1.306,8.132-2.643,12.182-4.124
	c11.472-4.189,23.08-8.503,34.158-13.254c0.005-0.002,0.025-0.011,0.029-0.013c0.005-0.002,0.025-0.011,0.029-0.013
	c4.229-1.809,8.468-3.574,12.672-5.334c4.58-1.909,9.274-3.695,13.938-5.425c2.861-1.061,5.644-2.078,8.365-3.084
	c0.035-0.013,0.176-0.065,0.212-0.078c0.035-0.013,0.177-0.064,0.212-0.076c3.053-1.099,6.027-2.028,8.919-2.799
	C328.835,76.09,331.134,75.751,333.319,75.751"/>
<path class="st1" d="M335.116,72.991L335.116,72.991c5.991,0,17.279,2.393,23.927,16.678c0.002,0.004,0.012,0.026,0.014,0.031
	c0.002,0.004,0.012,0.026,0.014,0.031c4.511,9.789,4.284,20.343,4.822,29.252c0.038,0.661,0.08,1.314,0.128,1.956
	c0.138,1.877,0.264,3.667,0.422,5.259c0.824,7.8,0.765,15.417,0.833,22.49c0.019,2.003,0.046,3.969,0.104,5.898
	c0.042,1.534,0.11,3.057,0.184,4.559c0,0.01,0.003,0.059,0.003,0.068c0,0.01,0.003,0.059,0.003,0.068
	c0.033,0.713,0.07,1.43,0.101,2.15c0.079,1.857,0.126,3.82,0.021,5.844c-0.163,2.642-0.523,5.429-1.004,8.322
	c-0.003,0.013-0.013,0.079-0.015,0.092c-0.002,0.013-0.013,0.079-0.016,0.092c-0.375,2.217-0.763,4.291-0.996,6.223
	c-0.021,0.172-0.042,0.348-0.063,0.527c-0.078,0.687-0.138,1.381-0.161,1.998c0.328,1.327,0.79,2.728,1.196,4.353
	c0.189,0.746,0.357,1.497,0.493,2.27c0.647,3.68,0.465,7.048,0.456,9.828c-0.004,0.667-0.005,1.481,0.028,1.946
	c0.099,1.32,0.6,3.625,1.054,5.626c2.04,9.126,5.702,21.517,0.758,33.456c-0.147,0.359-0.302,0.715-0.463,1.067
	c-3.278,7.18-9.597,11.579-17.313,13.72c-6.52,1.516-13.874,1.307-20.481,0.402c-1.046-0.177-2.047-0.365-2.99-0.555
	c-12.537-2.341-24.466-6.676-31.215-9.213c-3.145-1.243-6.333-2.444-9.564-3.662c-4.064-1.537-8.172-2.927-12.355-4.253
	c-6.373-2.015-12.871-3.847-19.591-5.772c-2.598-0.746-5.215-1.42-7.883-2.033c-6.094-1.394-12.315-2.992-18.749-3.61
	c-3.116-0.299-6.263-0.312-9.429,0.112c-0.007,0.003-0.044,0.003-0.05,0.006c-0.007,0.003-0.044,0.003-0.05,0.006
	c-2.517,0.311-4.908,0.817-7.081,1.682c-1.201,4.153-1.573,7.225-1.488,10.023c0.094,0.211,0.19,0.42,0.287,0.624
	c1.402,1.536,2.896,3.331,4.295,5.599c3.106,5.126,4.199,9.453,6.359,14.817c0.18,0.444,0.367,0.895,0.562,1.353
	c2.089,4.459,5.914,12.524,8.481,16.974c0.748,1.177,1.394,2.486,1.924,3.884c3.354,9.496,1.684,22.105-7.717,27.549
	c-1.403,0.84-2.847,1.494-4.31,1.99c-3,1.016-6.139,1.363-9.326,1.303c-0.935-0.019-1.868-0.076-2.798-0.166
	c-2.779-0.061-6.086-1.59-9.22-2.447c-0.491-0.151-0.975-0.278-1.449-0.371c-0.268,0.103-0.531,0.238-0.786,0.413
	c-0.005,0.009-0.035,0.017-0.04,0.026c-3.164,2.064-3.656,7.325-5.343,10.065c-1.82,4.045-3.317,7.848-7.427,10.348
	c-1.698,1.01-3.785,1.763-6.481,2.205c-0.8,0.128-1.634,0.167-2.479,0.167c-7.371,0-15.61-3.673-20.922-8.423
	c-2.252-2.157-4.348-4.352-6.264-6.507c-3.175-0.315-6.806-0.244-11.111-0.002c-0.843,0.046-1.713,0.104-2.613,0.172
	c-3.079,0.195-6.24,0.323-9.496,0.422c-0.675-0.01-1.348-0.033-2.019-0.075c-4.121-0.247-7.99-1.19-11.492-3.514
	c-1.145-0.754-2.24-1.661-3.281-2.738c-2.852-2.96-4.612-7.396-5.36-11.812c-0.005-0.033-0.031-0.189-0.035-0.221
	c-0.004-0.032-0.027-0.188-0.03-0.219c-0.415-3.121,0.255-4.968,1.239-7.422c1.188-3.463,2.135-6.763,2.674-9.723
	c-0.644-1.443-1.437-2.985-2.326-4.612c-1.32-2.415-2.807-4.629-4.083-7.101c-1.768-1.643-3.661-3.591-5.185-6.391
	c-1.405-2.757-2.759-5.392-4.633-8.296c-0.278-0.426-0.563-0.838-0.858-1.235c-3.092-1.982-5.736-3.757-7.901-6.649
	c-4.2-5.398-6.158-9.329-11.038-13.081c-0.335-0.303-0.661-0.606-0.978-0.908c-0.022-0.012-0.101-0.107-0.123-0.119c0,0,0,0,0,0
	c-1.332-1.327-2.456-2.66-3.435-3.898c-0.402-0.251-0.814-0.509-1.188-0.755c-0.605-0.392-1.2-0.791-1.784-1.199
	c-0.003-0.003-0.022-0.014-0.025-0.018c-0.003-0.003-0.022-0.014-0.025-0.018c-0.225-0.159-0.454-0.319-0.685-0.483
	c-1.888-1.417-4.048-3.076-6.313-5.03c-1.627-1.467-3.204-3.186-4.828-4.977c-0.903-1.009-1.794-2.005-2.709-2.939
	c-2.932-3.016-5.885-5.708-8.255-8.62c-3.159-3.999-6.476-8.503-5.279-14.759c0.003-0.014,0.014-0.07,0.016-0.084
	c0.003-0.014,0.014-0.07,0.017-0.084c0.857-4.156,3.301-7.929,5.645-10.734c3.006-3.605,5.541-7.525,9.146-10.218
	c3.087-2.471,6.148-3.97,8.791-4.922c0.536-0.219,1.242-0.632,1.864-0.954c1.846-0.87,3.854-1.9,6.071-3.127
	c3.56-1.753,6.309-4.885,10.476-6.774c6.549-3.288,13.304-3.903,18.38-4.398c0.728-0.076,1.441-0.141,2.11-0.206
	c0.328-0.161,0.67-0.341,1.037-0.513c2.265-1.06,5.156-2.229,8.629-3.122c2.275-0.56,4.546-0.91,6.729-1.173
	c2.656-0.319,5.186-0.474,7.444-0.663c0.213-0.017,0.427-0.035,0.641-0.052c0.053-0.007,0.555-0.041,0.611-0.048
	c1.173-0.1,2.256-0.141,3.098-0.19c1.878-0.08,3.703-0.119,5.277-0.195c0.599-0.031,1.171-0.066,1.697-0.112
	c0.582-0.038,1.136-0.082,1.645-0.138c0.682-0.039,1.003-0.099,1.159-0.144c0.242-0.05,0.499-0.102,0.768-0.155
	c0.399-0.085,0.965-0.193,1.411-0.293c4.844-1.75,9.668-3.851,14.677-6.059c1.815-0.8,3.671-1.621,5.537-2.434
	c5.662-2.47,11.278-4.243,16.431-5.869c5.647-1.886,11.25-3.382,15.931-5.203c0.004-0.001,0.022-0.009,0.026-0.011
	c0.004-0.001,0.022-0.009,0.026-0.011c6.961-2.814,13.934-5.033,20.441-7.699c3.75-1.515,7.48-2.772,11.134-3.91
	c4.92-1.524,9.724-2.858,14.329-4.347c0.36-0.1,2.001-0.665,2.362-0.766c4.098-1.332,8.214-2.694,12.307-4.192
	c11.606-4.24,23.34-8.613,34.518-13.427c0.005-0.002,0.025-0.011,0.03-0.013c0.005-0.002,0.025-0.011,0.03-0.013
	c4.273-1.835,8.559-3.617,12.813-5.387c4.64-1.923,9.386-3.722,14.096-5.467c2.898-1.073,5.71-2.1,8.457-3.117
	c0.033-0.012,0.181-0.067,0.214-0.079c0.033-0.012,0.182-0.065,0.215-0.077c3.092-1.112,6.1-2.039,9.027-2.795
	C330.573,73.321,332.898,72.991,335.116,72.991"/>
</svg>
