<?xml version="1.0" encoding="utf-8"?>
<!-- Generator: Adobe Illustrator 25.0.0, SVG Export Plug-In . SVG Version: 6.00 Build 0)  -->
<!DOCTYPE svg PUBLIC "-//W3C//DTD SVG 1.1//EN" "http://www.w3.org/Graphics/SVG/1.1/DTD/svg11.dtd" [
	<!ENTITY ns_extend "http://ns.adobe.com/Extensibility/1.0/">
	<!ENTITY ns_ai "http://ns.adobe.com/AdobeIllustrator/10.0/">
	<!ENTITY ns_graphs "http://ns.adobe.com/Graphs/1.0/">
	<!ENTITY ns_vars "http://ns.adobe.com/Variables/1.0/">
	<!ENTITY ns_imrep "http://ns.adobe.com/ImageReplacement/1.0/">
	<!ENTITY ns_sfw "http://ns.adobe.com/SaveForWeb/1.0/">
	<!ENTITY ns_custom "http://ns.adobe.com/GenericCustomNamespace/1.0/">
	<!ENTITY ns_adobe_xpath "http://ns.adobe.com/XPath/1.0/">
]>
<svg version="1.1" id="Livello_1" xmlns:x="&ns_extend;" xmlns:i="&ns_ai;" xmlns:graph="&ns_graphs;"
	 xmlns="http://www.w3.org/2000/svg" xmlns:xlink="http://www.w3.org/1999/xlink" x="0px" y="0px" viewBox="0 0 400 400"
	 style="enable-background:new 0 0 400 400;" xml:space="preserve">
<style type="text/css">
	.st0{opacity:0.45;fill:#FFFFFF;}
	.st1{fill:none;stroke:#DC4B33;stroke-width:0.9;stroke-miterlimit:10;}
</style>
<metadata>
	<sfw  xmlns="&ns_sfw;">
		<slices></slices>
		<sliceSourceBounds  bottomLeftOrigin="true" height="292.599" width="226.476" x="82.421" y="44.442"></sliceSourceBounds>
	</sfw>
</metadata>
<g>
	<path class="st0" d="M182.713,63.41L182.713,63.41c4.575,0,10.007,0.802,17.12,2.817c0.252,0.008,0.515,0.005,0.77-0.002
		c0.244-0.006,0.49-0.018,0.729-0.028c2.478-0.106,5.052-0.591,7.756-0.863c0.087-0.013,0.281-0.026,0.367-0.038
		c0.039-0.006,0.126-0.011,0.165-0.017c0.039-0.005,0.126-0.01,0.165-0.015c1.214-0.107,2.4-0.164,3.558-0.134
		c0.158,0.004,0.315,0.008,0.432,0.013c0.822,0.036,1.578,0.104,2.275,0.182c2.21-0.005,4.199,0.185,6.345,0.114
		c1.491-0.051,3.033-0.23,4.782-0.653c2.319-0.614,4.567-0.766,6.81-0.711c1.873,0.052,3.709,0.259,5.499,0.503
		c1.803,0.247,3.624,0.536,5.219,0.707c0.172,0.022,0.38,0.042,0.663,0.048c1.508,0.09,3.038,0.152,4.595,0.127
		c1.198-0.017,2.369-0.105,3.592-0.225c0.493-0.058,1.008-0.105,1.544-0.143c1.327-0.091,2.764-0.122,4.278-0.109
		c4.674,0.046,9.879,0.51,13.926,0.972c3.918,0.448,6.824,0.899,7.421,1.026c1.573,0.397,3.102,0.636,4.6,0.819
		c0.936,0.094,2.063,0.17,3.112,0.245c5.633,0.402,11.818,0.958,14.723,6.336c3.798,5.386,5.586,12.01,5.246,19.043
		c-0.005,0.022,0,0.08-0.005,0.102c-0.005,0.022-0.001,0.081-0.006,0.102c-0.354,5.897-1.962,11.74-4.656,17.071
		c-2.168,5.905-5.043,11.731-8.41,17.323c-1.973,3.682-4.009,7.33-5.99,10.953c-5.458,9.977-10.567,19.85-12.594,29.867
		c0.012,0.531,0.079,1.11,0.115,1.651c-0.202,5.824,1.112,12.857,1.35,21.562c-0.231,18.5,17.168,19.558,4.546,46.157
		c-0.086,0.194-0.282,0.563-0.373,0.761c-0.089,0.194-0.299,0.555-0.392,0.752c-1.851,3.478-4.1,7.27-6.813,11.441
		c-9.241,12.631-19.473,24.459-29.715,36.168c-8.482,9.696-16.897,19.231-24.845,29.145c-0.05,0.062-0.146,0.183-0.196,0.245
		c-0.05,0.062-0.148,0.182-0.198,0.244c-11.88,14.127-28.618,33.975-49.359,37.701c-1.354,0.268-2.592,0.399-3.749,0.432
		c-0.962,0.023-1.839-0.038-2.647-0.172c-5.957-1.019-7.974-6.15-13.526-9.798c-2.032-1.379-4.207-2.625-6.805-3.389
		c-0.265-0.028-0.926-0.123-1.208-0.14c-0.577-0.059-1.166-0.111-1.77-0.154c-18.613-3.6-18.462-14.189-23.687-20.435
		c-0.008-0.008-0.037-0.016-0.044-0.023c-0.209-0.21-0.854-0.477-1.095-0.671c-0.042-0.034-0.166-0.08-0.21-0.114
		c-3.048-1.614-7.549-2.803-14.111-3.557c-7.248-1.59-15.736-3.713-18.239-11.304c-1.623-4.963-1.211-8.84,2.522-11.61
		c1.833-1.495,3.959-1.825,5.84-3.252c2.565-1.857,3.645-3.691,6.696-4.693c2.844-0.724,2.15-0.787,3.945-2.797
		c0.235-0.281,0.471-0.538,0.709-0.774c2.286-2.153,4.675-2.457,6.844-5.619c3.446-5.059-0.417-11.051,1.155-16.391
		c0-0.024,0.022-0.058,0.022-0.083c0-0.024,0.023-0.058,0.023-0.082c0.529-1.712,1.555-3.308,3.474-4.774
		c0.394-1.783,0.569-2.863,0.76-3.705c0.139-1.41,0.561-2.32,2.24-4.363c0.225-0.545,0.505-1.144,0.849-1.811
		c0.039-0.663,0.046-1.295,0.024-1.901c-0.212-6.355-4.117-9.006-6.517-12.974c-0.775-1.123-1.437-2.332-1.885-3.729
		c-2.269-3.838-3.193-9.612-0.08-19.511c2.014-9.394-5.741-18.288,2.745-25.602c1.393-1.796-0.16-5.329,0.257-8.039
		c0.642-1.923,1.202-3.728,1.72-5.437c2.336-6.769,2.534-10.394,1.892-13.602c-0.389-0.936-0.861-1.865-1.371-2.859
		c-0.294-0.326-0.459-1.187-0.78-1.547c-0.294-0.329-0.361-1.165-0.671-1.538c-0.055-0.138-0.111-0.276-0.168-0.415
		c-1.576-1.967-3.269-4.429-4.861-7.756c-0.336-1.153-0.516-2.265-0.59-3.358c0.048-0.57-0.122-1.714,0.016-2.251
		c0.139-0.545,0.176-1.716,0.366-2.242c0.723-4.287,2.29-8.238,1.193-13.019c-0.137-1.388-0.786-3.397-1.358-5.589
		c-1.385-3.25-2.632-7.318-1.657-10.871c0.334-1.189,0.924-2.299,1.842-3.284c4.731-5.326,1.857-15.082,8.76-19.637
		c4.732-4.319,8.624-7.824,13.909-9.335c0.749-0.214,1.515-0.319,2.274-0.44c2.648-0.418,5.088-0.541,7.531-0.816
		c1.176-0.117,2.275-0.248,3.376-0.357c2.847-0.259,5.485-0.487,7.979-0.655c2.133-0.143,3.991-0.243,5.573-0.399
		c0.349-0.027,0.743-0.05,1.018-0.092c0.014-0.003,0.051-0.005,0.065-0.009c0.021-0.005,0.076-0.008,0.097-0.013
		c0.369-0.052,0.761-0.111,1.189-0.172c3.252-0.47,5.556-1.239,8.182-2.074C172.771,64.647,176.984,63.41,182.713,63.41"/>
	<g>
		<path class="st1" d="M183.681,79.77c3.84,0,8.64,0.72,15.216,2.64c0.432,0.048,0.912,0.048,1.344,0.048
			c3.648,0,7.056-1.152,10.656-1.152c0.144,0,0.288,0,0.384,0c2.976,0.048,5.184,0.72,7.68,0.72c1.296,0,2.64-0.192,4.224-0.72
			c2.16-0.768,4.272-1.008,6.432-1.008c5.04,0,10.08,1.488,15.168,1.488c1.152,0,2.256-0.096,3.408-0.24
			c1.584-0.24,3.456-0.336,5.52-0.336c8.592,0,19.872,1.728,20.256,1.872c6.72,2.016,18.144-0.816,20.688,7.968
			c2.832,10.272,0.192,21.552-6.144,30.096c-10.176,20.736-25.728,40.992-25.584,64.992c-0.576,21.648,29.232,14.976,3.6,56.352
			c-15.888,22.128-35.328,41.616-52.368,62.928c-10.656,12.672-25.248,29.952-42.48,33.024c-1.2,0.24-2.256,0.336-3.216,0.336
			c-9.888,0-5.808-12.336-21.744-12.48c-24-4.416-8.544-21.792-32.736-22.032c-6.912-1.056-15.792-2.304-17.712-10.032
			c-1.296-5.136-0.24-8.784,4.752-10.944c2.496-1.056,5.28-0.672,7.68-1.68c3.264-1.392,4.56-2.784,8.208-3.168
			c3.456-0.384,2.448,0.048,4.512-1.968c2.832-2.784,5.712-1.92,8.016-5.376c4.512-6.816-8.016-15.696-0.336-22.752
			c-0.048-6.096-1.872-5.28,2.16-10.848c1.68-15.12-21.12-7.632-8.256-36.048c3.456-8.208-7.152-15.84,2.4-22.32
			c1.968-1.488,0.288-4.944,0.912-7.2c9.552-19.776,0.528-15.024-6.096-29.472c-1.536-7.104,4.944-11.232,2.304-18.816
			c-0.96-2.736-7.776-12.864-0.768-17.472c6-3.936,1.488-13.632,8.352-17.424c5.616-3.6,9.792-4.464,13.296-4.464
			c3.024,0,5.52,0.624,8.016,0.72c0.96,0.048,1.824,0.048,2.688,0.048C169.329,85.05,173.121,79.77,183.681,79.77"/>
	</g>
	<path class="st1" d="M183.487,76.498L183.487,76.498c3.987,0,8.913,0.736,15.597,2.675c0.227,0.021,0.466,0.03,0.703,0.034
		c0.227,0.003,0.455,0.001,0.672-0.001c2.38-0.019,4.7-0.502,7.058-0.829c0.104-0.016,0.229-0.031,0.333-0.046
		c0.047-0.007,0.103-0.013,0.15-0.02c0.047-0.007,0.103-0.013,0.15-0.019c1.077-0.135,2.152-0.227,3.236-0.221
		c0.147,0.001,0.293,0.002,0.394,0.003c0.736,0.016,1.423,0.068,2.075,0.136c2.064,0.165,3.846,0.513,5.793,0.499
		c1.335-0.01,2.719-0.2,4.336-0.707c2.192-0.737,4.331-0.96,6.508-0.949c1.766,0.01,3.524,0.194,5.275,0.428
		c1.679,0.225,3.363,0.498,5.005,0.704c0.202,0.026,0.411,0.051,0.636,0.073c1.464,0.158,2.934,0.268,4.413,0.263
		c1.161-0.003,2.279-0.098,3.445-0.237c0.469-0.068,0.962-0.123,1.477-0.168c1.253-0.109,2.632-0.153,4.104-0.151
		c4.376,0.009,9.398,0.449,13.363,0.902c3.931,0.449,6.838,0.913,7.111,0.996c1.364,0.394,2.862,0.609,4.417,0.763
		c0.958,0.091,1.977,0.159,2.986,0.231c5.694,0.407,11.659,0.971,13.634,6.86c1.979,5.5,2.288,11.482,1.124,17.312
		c-0.006,0.026-0.011,0.059-0.017,0.085c-0.007,0.026-0.011,0.059-0.018,0.085c-1.017,4.927-3.037,9.672-5.889,13.858
		c-2.21,4.8-4.765,9.566-7.449,14.302c-1.675,3.04-3.374,6.079-5.029,9.13c-4.404,8.116-8.509,16.322-10.945,24.831
		c-0.116,0.485-0.217,0.979-0.32,1.468c-1.376,5.747-1.907,11.875-1.83,18.535c-0.453,19.003,21.598,16.828,9.255,44.221
		c-0.103,0.233-0.231,0.502-0.34,0.739c-0.107,0.232-0.24,0.5-0.351,0.737c-1.607,3.318-3.676,7.028-6.29,11.206
		c-8.792,12.198-18.631,23.604-28.543,34.939c-8.121,9.286-16.277,18.508-23.963,28.092c-0.06,0.075-0.129,0.161-0.189,0.236
		c-0.06,0.075-0.13,0.161-0.19,0.236c-10.901,12.963-25.922,30.757-43.856,33.959c-1.231,0.246-2.323,0.349-3.323,0.355
		c-0.873,0.005-1.647-0.081-2.341-0.241c-5.248-1.223-5.911-6.784-11.147-10.034c-1.671-1.048-3.733-1.881-6.463-2.268
		c-0.318-0.034-0.724-0.076-1.063-0.097c-0.504-0.036-1.028-0.061-1.572-0.074c-17.235-3.206-15.083-12.946-20.432-18.559
		c-0.009-0.009-0.023-0.019-0.032-0.028c-0.251-0.252-0.604-0.508-0.894-0.741c-0.051-0.041-0.119-0.084-0.171-0.124
		c-2.469-1.756-6.242-2.934-12.49-3.134c-6.979-1.163-15.781-2.586-17.817-10.286c-1.361-5.101-0.434-8.795,4.306-11.077
		c2.363-1.144,5.016-0.903,7.312-1.994c3.124-1.485,4.377-2.965,7.906-3.473c3.334-0.452,2.388-0.119,4.399-2.134
		c0.253-0.259,0.507-0.489,0.762-0.696c2.519-2.02,5.053-1.739,7.162-4.884c3.396-5.101-2.336-11.318-2.08-17.02
		c0-0.029,0.004-0.06,0.004-0.089s0.005-0.06,0.005-0.089c0.121-1.836,0.866-3.608,2.737-5.268c0.065-2.047-0.083-3.289-0.146-4.262
		c-0.129-1.536,0.002-2.435,1.55-4.699c0.299-0.497,0.66-1.056,1.093-1.693c0.065-0.65,0.088-1.262,0.074-1.838
		c-0.159-6.343-5.043-8.286-8.392-11.913c-0.928-0.988-1.744-2.097-2.326-3.446c-1.799-3.693-1.893-9.29,2.348-19.265
		c3.168-8.445-6.87-16.33,2.469-22.976c1.853-1.55,0.198-5.021,0.781-7.368c0.816-1.807,1.495-3.432,2.057-4.905
		c2.666-6.77,2.427-9.854,0.884-12.594c-0.507-0.823-1.135-1.621-1.837-2.486c-0.352-0.391-0.695-0.902-1.081-1.334
		c-0.352-0.395-0.669-0.91-1.041-1.358c-0.088-0.12-0.176-0.242-0.265-0.365c-1.451-1.796-3-4.049-4.442-7.165
		c-0.258-1.111-0.33-2.157-0.278-3.161c0.058-0.684,0.127-1.462,0.291-2.107c0.167-0.654,0.349-1.42,0.578-2.052
		c1.177-3.712,2.975-7.197,1.45-11.906c-0.293-1.034-1.248-2.9-2.097-5.081c-1.315-3.113-2.422-6.949-1.069-10.037
		c0.46-1.045,1.204-2,2.317-2.808c5.746-4.214,1.562-13.922,8.434-17.867c5.439-3.744,9.569-5.16,13.419-5.438
		c0.675-0.049,1.332-0.04,1.972-0.027c2.297,0.052,4.349,0.347,6.401,0.352c1.003,0.015,1.914-0.011,2.826-0.033
		c2.439-0.052,4.621-0.197,6.611-0.399c1.691-0.172,3.21-0.384,4.588-0.639c0.283-0.05,0.572-0.101,0.834-0.157
		c0.017-0.004,0.038-0.007,0.055-0.011c0.025-0.006,0.057-0.011,0.082-0.017c0.324-0.068,0.647-0.139,0.974-0.212
		c2.516-0.564,4.595-1.266,6.707-1.935C175.507,77.449,178.895,76.498,183.487,76.498"/>
	<path class="st1" d="M183.294,73.226L183.294,73.226c4.134,0,9.187,0.753,15.978,2.711c0.233,0.018,0.478,0.024,0.719,0.025
		c0.231,0.001,0.464-0.004,0.686-0.008c2.405-0.043,4.788-0.525,7.232-0.838c0.1-0.015,0.242-0.03,0.342-0.044
		c0.045-0.006,0.109-0.013,0.154-0.019c0.045-0.006,0.109-0.012,0.154-0.018c1.111-0.128,2.214-0.211,3.317-0.199
		c0.149,0.002,0.299,0.003,0.403,0.005c0.757,0.021,1.462,0.077,2.125,0.148c2.101,0.122,3.934,0.431,5.931,0.403
		c1.374-0.02,2.797-0.207,4.447-0.693c2.223-0.707,4.39-0.911,6.583-0.889c1.793,0.021,3.57,0.21,5.331,0.447
		c1.71,0.231,3.428,0.508,5.059,0.705c0.195,0.025,0.404,0.049,0.642,0.067c1.475,0.141,2.96,0.239,4.459,0.229
		c1.17-0.007,2.301-0.1,3.482-0.234c0.475-0.065,0.973-0.119,1.493-0.162c1.271-0.104,2.665-0.145,4.147-0.14
		c4.451,0.019,9.518,0.464,13.504,0.919c3.928,0.449,6.835,0.909,7.189,1.003c1.416,0.395,2.922,0.616,4.463,0.777
		c0.952,0.091,1.999,0.162,3.018,0.235c5.679,0.405,11.699,0.968,13.906,6.729c2.434,5.472,3.112,11.614,2.155,17.745
		c-0.006,0.025-0.008,0.065-0.014,0.09c-0.006,0.025-0.008,0.065-0.015,0.09c-0.851,5.169-2.768,10.189-5.581,14.661
		c-2.199,5.076-4.835,10.107-7.689,15.057c-1.749,3.2-3.533,6.392-5.269,9.586c-4.668,8.581-9.024,17.204-11.357,26.09
		c-0.084,0.496-0.143,1.012-0.211,1.513c-1.082,5.766-1.152,12.121-1.035,19.292c-0.398,18.877,20.49,17.51,8.078,44.705
		c-0.099,0.223-0.244,0.518-0.348,0.745c-0.102,0.223-0.254,0.514-0.361,0.741c-1.668,3.358-3.782,7.089-6.421,11.265
		c-8.904,12.306-18.842,23.818-28.836,35.246c-8.211,9.389-16.432,18.689-24.183,28.355c-0.058,0.072-0.134,0.167-0.191,0.239
		c-0.058,0.072-0.134,0.166-0.192,0.238c-11.146,13.254-26.596,31.561-45.232,34.895c-1.261,0.251-2.39,0.361-3.429,0.374
		c-0.895,0.009-1.695-0.07-2.418-0.224c-5.425-1.172-6.427-6.625-11.742-9.975c-1.761-1.131-3.851-2.067-6.549-2.548
		c-0.305-0.032-0.774-0.088-1.099-0.108c-0.522-0.042-1.062-0.074-1.621-0.094c-17.579-3.305-15.928-13.256-21.246-19.028
		c-0.009-0.009-0.026-0.018-0.035-0.027c-0.24-0.242-0.666-0.5-0.944-0.724c-0.049-0.039-0.131-0.083-0.181-0.121
		c-2.614-1.72-6.569-2.901-12.895-3.24c-7.046-1.27-15.77-2.868-17.923-10.541c-1.427-5.067-0.628-8.807,3.86-11.21
		c2.231-1.232,4.752-1.133,6.944-2.309c2.984-1.578,4.194-3.147,7.603-3.778c3.211-0.52,2.329-0.286,4.285-2.3
		c0.249-0.265,0.498-0.501,0.748-0.715c2.461-2.053,4.958-1.918,7.083-5.067c3.409-5.091-1.856-11.251-1.271-16.863
		c0-0.028,0.008-0.06,0.008-0.088s0.009-0.06,0.009-0.088c0.223-1.805,1.038-3.533,2.922-5.145c0.148-1.981,0.08-3.182,0.081-4.123
		c-0.062-1.505,0.142-2.406,1.723-4.615c0.28-0.509,0.621-1.078,1.032-1.723c0.059-0.654,0.078-1.27,0.061-1.854
		c-0.172-6.346-4.812-8.466-7.924-12.178c-0.89-1.022-1.668-2.156-2.216-3.517c-1.917-3.73-2.218-9.371,1.741-19.326
		c2.879-8.683-6.588-16.819,2.538-23.633c1.738-1.611,0.109-5.098,0.65-7.535c0.772-1.836,1.422-3.506,1.973-5.038
		c2.583-6.77,2.454-9.989,1.136-12.846c-0.477-0.852-1.066-1.682-1.721-2.579c-0.338-0.375-0.636-0.973-1.006-1.387
		c-0.338-0.379-0.592-0.974-0.948-1.403c-0.08-0.125-0.16-0.25-0.241-0.378c-1.482-1.839-3.067-4.144-4.546-7.313
		c-0.277-1.122-0.377-2.184-0.356-3.211c0.056-0.655,0.064-1.525,0.222-2.143c0.16-0.627,0.306-1.494,0.525-2.099
		c1.063-3.856,2.804-7.458,1.385-12.184c-0.254-1.123-1.133-3.024-1.912-5.208c-1.333-3.148-2.474-7.041-1.216-10.246
		c0.428-1.081,1.134-2.075,2.198-2.927c5.492-4.492,1.636-14.212,8.515-18.309c5.262-3.887,9.337-5.844,13.541-6.412
		c0.694-0.094,1.378-0.11,2.048-0.13c2.384-0.065,4.533,0.125,6.684,0.06c1.046-0.018,2.004-0.071,2.963-0.114
		c2.541-0.104,4.837-0.269,6.953-0.463c1.801-0.164,3.405-0.349,4.834-0.579c0.3-0.045,0.615-0.088,0.88-0.141
		c0.016-0.004,0.041-0.007,0.057-0.011c0.024-0.006,0.062-0.01,0.086-0.016c0.335-0.064,0.676-0.132,1.028-0.202
		c2.7-0.541,4.836-1.26,7.076-1.97C174.823,74.248,178.417,73.226,183.294,73.226"/>
	<path class="st1" d="M183.1,69.954L183.1,69.954c4.281,0,9.46,0.769,16.359,2.746c0.239,0.014,0.49,0.017,0.736,0.016
		c0.236-0.001,0.472-0.009,0.701-0.015c2.429-0.065,4.876-0.547,7.407-0.846c0.095-0.014,0.255-0.028,0.35-0.042
		c0.043-0.006,0.115-0.012,0.158-0.018c0.043-0.006,0.115-0.011,0.158-0.017c1.145-0.121,2.276-0.195,3.397-0.177
		c0.152,0.003,0.304,0.005,0.413,0.008c0.779,0.026,1.501,0.086,2.175,0.159c2.137,0.08,4.022,0.349,6.069,0.306
		c1.413-0.031,2.876-0.215,4.559-0.68c2.255-0.676,4.449-0.863,6.659-0.83c1.82,0.031,3.617,0.226,5.387,0.466
		c1.741,0.236,3.494,0.517,5.112,0.706c0.187,0.024,0.396,0.046,0.649,0.06c1.486,0.124,2.986,0.21,4.504,0.195
		c1.179-0.01,2.324-0.101,3.519-0.231c0.481-0.063,0.985-0.114,1.51-0.156c1.29-0.1,2.698-0.137,4.191-0.13
		c4.525,0.028,9.638,0.479,13.645,0.937c3.925,0.448,6.831,0.906,7.266,1.011c1.468,0.396,2.982,0.623,4.509,0.791
		c0.947,0.092,2.02,0.165,3.049,0.238c5.664,0.404,11.739,0.965,14.178,6.598c2.889,5.443,3.937,11.746,3.185,18.177
		c-0.006,0.024-0.005,0.07-0.011,0.094c-0.006,0.024-0.006,0.07-0.012,0.094c-0.686,5.412-2.499,10.706-5.273,15.465
		c-2.189,5.352-4.904,10.648-7.929,15.812c-1.824,3.361-3.691,6.704-5.509,10.042c-4.931,9.046-9.538,18.086-11.77,27.349
		c-0.052,0.508-0.069,1.045-0.103,1.559c-0.789,5.785-0.397,12.366-0.24,20.048c-0.342,18.751,19.383,18.193,6.901,45.189
		c-0.095,0.213-0.257,0.533-0.356,0.75c-0.098,0.213-0.269,0.528-0.372,0.745c-1.729,3.398-3.888,7.149-6.552,11.323
		c-9.016,12.414-19.052,24.032-29.129,35.553c-8.301,9.491-16.587,18.869-24.404,28.618c-0.055,0.069-0.138,0.172-0.193,0.241
		c-0.055,0.069-0.139,0.171-0.194,0.24c-11.39,13.545-27.27,32.366-46.608,35.83c-1.292,0.257-2.457,0.374-3.536,0.393
		c-0.918,0.014-1.743-0.06-2.494-0.207c-5.603-1.121-6.943-6.467-12.337-9.916c-1.851-1.214-3.97-2.253-6.634-2.829
		c-0.292-0.031-0.825-0.099-1.136-0.119c-0.541-0.048-1.097-0.086-1.671-0.114c-17.924-3.403-16.773-13.567-22.059-19.497
		c-0.008-0.008-0.03-0.017-0.038-0.026c-0.23-0.231-0.729-0.493-0.995-0.706c-0.047-0.037-0.143-0.082-0.19-0.119
		c-2.759-1.685-6.896-2.869-13.301-3.346c-7.113-1.376-15.758-3.15-18.028-10.795c-1.492-5.032-0.823-8.818,3.414-11.344
		c2.098-1.32,4.488-1.364,6.576-2.623c2.844-1.671,4.011-3.328,7.301-4.083c3.089-0.588,2.269-0.453,4.172-2.466
		c0.244-0.27,0.489-0.513,0.735-0.735c2.403-2.086,4.864-2.098,7.003-5.251c3.421-5.08-1.377-11.184-0.463-16.706
		c0-0.027,0.013-0.059,0.013-0.086c0-0.027,0.014-0.059,0.014-0.086c0.325-1.774,1.21-3.458,3.106-5.021
		c0.23-1.915,0.243-3.076,0.307-3.984c0.005-1.473,0.281-2.377,1.895-4.531c0.262-0.521,0.582-1.1,0.971-1.752
		c0.052-0.657,0.067-1.279,0.049-1.87c-0.186-6.349-4.58-8.646-7.455-12.443c-0.852-1.056-1.591-2.214-2.106-3.588
		c-2.034-3.766-2.543-9.451,1.134-19.388c2.591-8.92-6.305-17.309,2.607-24.289c1.623-1.673,0.019-5.175,0.519-7.703
		c0.729-1.865,1.349-3.58,1.889-5.171c2.501-6.769,2.48-10.124,1.388-13.098c-0.448-0.88-0.998-1.743-1.604-2.673
		c-0.323-0.358-0.577-1.044-0.93-1.441c-0.323-0.362-0.515-1.038-0.856-1.448c-0.071-0.129-0.144-0.259-0.217-0.39
		c-1.513-1.881-3.134-4.239-4.651-7.46c-0.297-1.132-0.423-2.211-0.434-3.26c0.053-0.627,0.002-1.588,0.153-2.179
		c0.153-0.6,0.263-1.568,0.472-2.147c0.95-4,2.633-7.718,1.321-12.463c-0.215-1.211-1.017-3.148-1.727-5.335
		c-1.35-3.182-2.527-7.133-1.363-10.454c0.397-1.117,1.064-2.15,2.079-3.046c5.239-4.77,1.709-14.502,8.597-18.752
		c5.085-4.031,9.101-6.515,13.664-7.387c0.712-0.136,1.423-0.18,2.123-0.233c2.472-0.183,4.718-0.097,6.966-0.232
		c1.089-0.051,2.095-0.13,3.101-0.195c2.643-0.155,5.053-0.342,7.295-0.527c1.912-0.157,3.6-0.314,5.08-0.519
		c0.316-0.039,0.657-0.075,0.926-0.124c0.015-0.004,0.044-0.006,0.06-0.01c0.023-0.005,0.067-0.01,0.09-0.015
		c0.346-0.06,0.704-0.125,1.081-0.192c2.884-0.517,5.076-1.253,7.444-2.004C174.139,71.048,177.94,69.954,183.1,69.954"/>
	<path class="st1" d="M182.907,66.682L182.907,66.682c4.428,0,9.733,0.785,16.74,2.782c0.246,0.011,0.503,0.011,0.753,0.007
		c0.24-0.004,0.481-0.013,0.715-0.022c2.454-0.086,4.964-0.569,7.582-0.855c0.091-0.014,0.268-0.027,0.359-0.04
		c0.041-0.006,0.121-0.012,0.162-0.017c0.041-0.006,0.121-0.011,0.161-0.016c1.179-0.114,2.338-0.18,3.478-0.155
		c0.155,0.003,0.309,0.007,0.423,0.01c0.8,0.031,1.539,0.095,2.225,0.171c2.174,0.037,4.111,0.267,6.207,0.21
		c1.452-0.041,2.954-0.223,4.671-0.666c2.287-0.645,4.508-0.815,6.734-0.77c1.846,0.042,3.663,0.243,5.443,0.484
		c1.772,0.242,3.559,0.526,5.166,0.707c0.18,0.023,0.388,0.044,0.656,0.054c1.497,0.107,3.012,0.181,4.549,0.161
		c1.188-0.014,2.346-0.103,3.555-0.228c0.487-0.061,0.997-0.11,1.527-0.149c1.308-0.095,2.731-0.13,4.234-0.119
		c4.599,0.037,9.758,0.495,13.785,0.955c3.921,0.448,6.828,0.902,7.344,1.019c1.521,0.397,3.042,0.629,4.554,0.805
		c0.942,0.093,2.041,0.168,3.081,0.242c5.648,0.403,11.778,0.961,14.451,6.467c3.343,5.415,4.761,11.878,4.216,18.61
		c-0.006,0.023-0.003,0.075-0.008,0.098c-0.006,0.023-0.003,0.075-0.009,0.098c-0.52,5.654-2.231,11.223-4.964,16.268
		c-2.179,5.628-4.973,11.19-8.17,16.568c-1.898,3.521-3.85,7.017-5.75,10.498c-5.194,9.511-10.053,18.968-12.182,28.608
		c-0.02,0.52,0.005,1.078,0.006,1.605c-0.496,5.805,0.357,12.611,0.555,20.805c-0.287,18.626,18.275,18.875,5.723,45.673
		c-0.091,0.204-0.269,0.548-0.365,0.756c-0.093,0.203-0.284,0.541-0.382,0.749c-1.79,3.438-3.994,7.209-6.683,11.382
		c-9.128,12.523-19.263,24.246-29.422,35.86c-8.392,9.594-16.742,19.05-24.624,28.882c-0.053,0.066-0.142,0.177-0.195,0.243
		c-0.053,0.066-0.143,0.177-0.196,0.242c-11.635,13.836-27.944,33.17-47.984,36.765c-1.323,0.263-2.525,0.387-3.643,0.413
		c-0.94,0.019-1.791-0.049-2.571-0.189c-5.78-1.07-7.459-6.308-12.931-9.857c-1.942-1.297-4.088-2.439-6.72-3.109
		c-0.278-0.03-0.875-0.111-1.172-0.13c-0.559-0.053-1.132-0.098-1.72-0.134c-18.268-3.502-17.617-13.878-22.873-19.966
		c-0.008-0.008-0.033-0.016-0.041-0.024c-0.219-0.221-0.791-0.485-1.045-0.689c-0.045-0.036-0.155-0.081-0.2-0.116
		c-2.904-1.65-7.222-2.836-13.706-3.451c-7.181-1.483-15.747-3.431-18.133-11.05c-1.558-4.998-1.017-8.829,2.968-11.477
		c1.966-1.408,4.223-1.594,6.208-2.937c2.705-1.764,3.828-3.51,6.998-4.388c2.967-0.656,2.21-0.62,4.059-2.632
		c0.239-0.276,0.48-0.526,0.722-0.755c2.344-2.12,4.77-2.278,6.924-5.435c3.433-5.07-0.897-11.118,0.346-16.548
		c0-0.026,0.017-0.059,0.017-0.084c0-0.026,0.018-0.059,0.018-0.084c0.427-1.743,1.382-3.383,3.29-4.897
		c0.312-1.849,0.406-2.969,0.533-3.844c0.072-1.442,0.421-2.349,2.068-4.447c0.244-0.533,0.544-1.122,0.91-1.782
		c0.046-0.66,0.056-1.287,0.037-1.885c-0.199-6.352-4.348-8.826-6.986-12.709c-0.813-1.089-1.514-2.273-1.996-3.658
		c-2.152-3.802-2.868-9.532,0.527-19.45c2.303-9.157-6.023-17.799,2.676-24.946c1.508-1.734-0.07-5.252,0.388-7.871
		c0.685-1.894,1.275-3.654,1.804-5.304c2.418-6.769,2.507-10.259,1.64-13.35c-0.419-0.908-0.93-1.804-1.488-2.766
		c-0.308-0.342-0.518-1.115-0.855-1.494c-0.308-0.346-0.438-1.102-0.763-1.493c-0.063-0.133-0.127-0.267-0.193-0.402
		c-1.544-1.924-3.202-4.334-4.756-7.608c-0.316-1.142-0.47-2.238-0.512-3.309c0.051-0.598-0.06-1.651,0.085-2.215
		c0.146-0.572,0.219-1.642,0.419-2.195c0.836-4.144,2.461-7.978,1.257-12.741c-0.176-1.3-0.901-3.273-1.543-5.462
		c-1.368-3.216-2.579-7.225-1.51-10.663c0.365-1.153,0.994-2.225,1.96-3.165c4.985-5.048,1.783-14.792,8.678-19.194
		c4.908-4.175,8.862-7.175,13.786-8.361c0.73-0.176,1.469-0.249,2.198-0.337c2.56-0.3,4.903-0.319,7.249-0.524
		c1.132-0.084,2.185-0.189,3.238-0.276c2.745-0.207,5.269-0.414,7.637-0.591c2.022-0.15,3.796-0.279,5.327-0.459
		c0.332-0.033,0.7-0.063,0.972-0.108c0.015-0.003,0.048-0.006,0.062-0.009c0.022-0.005,0.071-0.009,0.093-0.014
		c0.358-0.056,0.733-0.118,1.135-0.182c3.068-0.494,5.316-1.246,7.813-2.039C173.455,67.848,177.462,66.682,182.907,66.682"/>
	<path class="st1" d="M182.713,63.41L182.713,63.41c4.575,0,10.007,0.802,17.12,2.817c0.252,0.008,0.515,0.005,0.77-0.002
		c0.244-0.006,0.49-0.018,0.729-0.028c2.478-0.106,5.052-0.591,7.756-0.863c0.087-0.013,0.281-0.026,0.367-0.038
		c0.039-0.006,0.126-0.011,0.165-0.017c0.039-0.005,0.126-0.01,0.165-0.015c1.214-0.107,2.4-0.164,3.558-0.134
		c0.158,0.004,0.315,0.008,0.432,0.013c0.822,0.036,1.578,0.104,2.275,0.182c2.21-0.005,4.199,0.185,6.345,0.114
		c1.491-0.051,3.033-0.23,4.782-0.653c2.319-0.614,4.567-0.766,6.81-0.711c1.873,0.052,3.709,0.259,5.499,0.503
		c1.803,0.247,3.624,0.536,5.219,0.707c0.172,0.022,0.38,0.042,0.663,0.048c1.508,0.09,3.038,0.152,4.595,0.127
		c1.198-0.017,2.369-0.105,3.592-0.225c0.493-0.058,1.008-0.105,1.544-0.143c1.327-0.091,2.764-0.122,4.278-0.109
		c4.674,0.046,9.879,0.51,13.926,0.972c3.918,0.448,6.824,0.899,7.421,1.026c1.573,0.397,3.102,0.636,4.6,0.819
		c0.936,0.094,2.063,0.17,3.112,0.245c5.633,0.402,11.818,0.958,14.723,6.336c3.798,5.386,5.586,12.01,5.246,19.043
		c-0.005,0.022,0,0.08-0.005,0.102c-0.005,0.022-0.001,0.081-0.006,0.102c-0.354,5.897-1.962,11.74-4.656,17.071
		c-2.168,5.905-5.043,11.731-8.41,17.323c-1.973,3.682-4.009,7.33-5.99,10.953c-5.458,9.977-10.567,19.85-12.594,29.867
		c0.012,0.531,0.079,1.11,0.115,1.651c-0.202,5.824,1.112,12.857,1.35,21.562c-0.231,18.5,17.168,19.558,4.546,46.157
		c-0.086,0.194-0.282,0.563-0.373,0.761c-0.089,0.194-0.299,0.555-0.392,0.752c-1.851,3.478-4.1,7.27-6.813,11.441
		c-9.241,12.631-19.473,24.459-29.715,36.168c-8.482,9.696-16.897,19.231-24.845,29.145c-0.05,0.062-0.146,0.183-0.196,0.245
		c-0.05,0.062-0.148,0.182-0.198,0.244c-11.88,14.127-28.618,33.975-49.359,37.701c-1.354,0.268-2.592,0.399-3.749,0.432
		c-0.962,0.023-1.839-0.038-2.647-0.172c-5.957-1.019-7.974-6.15-13.526-9.798c-2.032-1.379-4.207-2.625-6.805-3.389
		c-0.265-0.028-0.926-0.123-1.208-0.14c-0.577-0.059-1.166-0.111-1.77-0.154c-18.613-3.6-18.462-14.189-23.687-20.435
		c-0.008-0.008-0.037-0.016-0.044-0.023c-0.209-0.21-0.854-0.477-1.095-0.671c-0.042-0.034-0.166-0.08-0.21-0.114
		c-3.048-1.614-7.549-2.803-14.111-3.557c-7.248-1.59-15.736-3.713-18.239-11.304c-1.623-4.963-1.211-8.84,2.522-11.61
		c1.833-1.495,3.959-1.825,5.84-3.252c2.565-1.857,3.645-3.691,6.696-4.693c2.844-0.724,2.15-0.787,3.945-2.797
		c0.235-0.281,0.471-0.538,0.709-0.774c2.286-2.153,4.675-2.457,6.844-5.619c3.446-5.059-0.417-11.051,1.155-16.391
		c0-0.024,0.022-0.058,0.022-0.083c0-0.024,0.023-0.058,0.023-0.082c0.529-1.712,1.555-3.308,3.474-4.774
		c0.394-1.783,0.569-2.863,0.76-3.705c0.139-1.41,0.561-2.32,2.24-4.363c0.225-0.545,0.505-1.144,0.849-1.811
		c0.039-0.663,0.046-1.295,0.024-1.901c-0.212-6.355-4.117-9.006-6.517-12.974c-0.775-1.123-1.437-2.332-1.885-3.729
		c-2.269-3.838-3.193-9.612-0.08-19.511c2.014-9.394-5.741-18.288,2.745-25.602c1.393-1.796-0.16-5.329,0.257-8.039
		c0.642-1.923,1.202-3.728,1.72-5.437c2.336-6.769,2.534-10.394,1.892-13.602c-0.389-0.936-0.861-1.865-1.371-2.859
		c-0.294-0.326-0.459-1.187-0.78-1.547c-0.294-0.329-0.361-1.165-0.671-1.538c-0.055-0.138-0.111-0.276-0.168-0.415
		c-1.576-1.967-3.269-4.429-4.861-7.756c-0.336-1.153-0.516-2.265-0.59-3.358c0.048-0.57-0.122-1.714,0.016-2.251
		c0.139-0.545,0.176-1.716,0.366-2.242c0.723-4.287,2.29-8.238,1.193-13.019c-0.137-1.388-0.786-3.397-1.358-5.589
		c-1.385-3.25-2.632-7.318-1.657-10.871c0.334-1.189,0.924-2.299,1.842-3.284c4.731-5.326,1.857-15.082,8.76-19.637
		c4.732-4.319,8.624-7.824,13.909-9.335c0.749-0.214,1.515-0.319,2.274-0.44c2.648-0.418,5.088-0.541,7.531-0.816
		c1.176-0.117,2.275-0.248,3.376-0.357c2.847-0.259,5.485-0.487,7.979-0.655c2.133-0.143,3.991-0.243,5.573-0.399
		c0.349-0.027,0.743-0.05,1.018-0.092c0.014-0.003,0.051-0.005,0.065-0.009c0.021-0.005,0.076-0.008,0.097-0.013
		c0.369-0.052,0.761-0.111,1.189-0.172c3.252-0.47,5.556-1.239,8.182-2.074C172.771,64.647,176.984,63.41,182.713,63.41"/>
</g>
</svg>
