<?xml version="1.0" encoding="utf-8"?>
<!-- Generator: Adobe Illustrator 25.0.0, SVG Export Plug-In . SVG Version: 6.00 Build 0)  -->
<!DOCTYPE svg PUBLIC "-//W3C//DTD SVG 1.1//EN" "http://www.w3.org/Graphics/SVG/1.1/DTD/svg11.dtd" [
	<!ENTITY ns_extend "http://ns.adobe.com/Extensibility/1.0/">
	<!ENTITY ns_ai "http://ns.adobe.com/AdobeIllustrator/10.0/">
	<!ENTITY ns_graphs "http://ns.adobe.com/Graphs/1.0/">
	<!ENTITY ns_vars "http://ns.adobe.com/Variables/1.0/">
	<!ENTITY ns_imrep "http://ns.adobe.com/ImageReplacement/1.0/">
	<!ENTITY ns_sfw "http://ns.adobe.com/SaveForWeb/1.0/">
	<!ENTITY ns_custom "http://ns.adobe.com/GenericCustomNamespace/1.0/">
	<!ENTITY ns_adobe_xpath "http://ns.adobe.com/XPath/1.0/">
]>
<svg version="1.1" id="Livello_1" xmlns:x="&ns_extend;" xmlns:i="&ns_ai;" xmlns:graph="&ns_graphs;"
	 xmlns="http://www.w3.org/2000/svg" xmlns:xlink="http://www.w3.org/1999/xlink" x="0px" y="0px" viewBox="0 0 400 400"
	 style="enable-background:new 0 0 400 400;" xml:space="preserve">
<style type="text/css">
	.st0{opacity:0.45;fill:#FFFFFF;}
	.st1{fill:none;stroke:#DC4B33;stroke-width:0.9;stroke-miterlimit:10;}
</style>
<metadata>
	<sfw  xmlns="&ns_sfw;">
		<slices></slices>
		<sliceSourceBounds  bottomLeftOrigin="true" height="290.156" width="325.341" x="36.838" y="54.275"></sliceSourceBounds>
	</sfw>
</metadata>
<path class="st0" d="M50.807,56.2c0.686,0,2.672-0.346,3.193-0.082c0.681,0.346,2.87,0.614,3.768,0.793
	c0.23,0.058,0.547,0.051,0.778,0.051c1.125-0.042,2.56-0.322,4.165-0.527l0,0c1.483-0.212,2.93-0.378,4.357-0.291
	c0.421,0.026,0.81,0.084,1.224,0.145c1.997,0.354,3.897,1.178,5.61,2.094c1.15,0.3,2.336,0.643,3.53,0.965
	c1.069,0.358,2.131,0.615,3.191,0.809c1.64,0.26,3.031,0.45,4.003,0.496c0.017,0,0.08,0.006,0.097,0.006
	c0.117-0.001,0.544,0.034,0.66,0.026c0.115-0.007,0.539,0.038,0.654,0.026c2.8,0.09,5.465-0.059,8.325,0.466
	c0.847,0.155,1.675,0.371,2.547,0.638c1.966,0.618,3.6,1.606,5.093,2.608c2.172,0.669,4.424,1.437,7.347,1.437
	c0.721,0,1.437-0.049,2.207-0.119c1.752-0.193,3.402-0.255,5.17-0.128c0.945,0.076,1.873,0.197,2.869,0.388
	c3.516,0.95,7.227,1.833,10.51,2.549c1.467-0.06,2.971-0.114,4.468-0.135c2.135-0.034,4.118-0.013,5.838,0.087
	c0.437,0.025,0.845,0.048,1.224,0.088c0.138,0.008,0.588,0.071,0.696,0.095c0.259,0.029,0.989,0.133,1.219,0.133
	c0.25,0,1.116,0.166,1.359,0.133c1.031-0.082,2.44-0.293,4.565-0.605c1.949-0.395,3.92-0.871,5.941-1.122
	c0.791-0.096,1.584-0.159,2.383-0.173c0.17-0.004,0.913-0.008,1.078-0.011c0.58-0.005,1.147-0.005,1.7,0.002
	c0.526,0.007,1.086,0.017,1.674,0.04c4.975-0.495,10.149-0.771,16.41,1.6c0.018,0.015,0.098,0.03,0.116,0.046
	c0.018,0.016,0.098,0.031,0.116,0.047c0.158,0.136,0.854,0.278,1.014,0.425c12.66,5.88,18.816,1.262,32.891,14.488
	c0.263,0.23,0.496,0.43,0.701,0.607c4.452,1.949,8.855,4.702,13.917,9.166c5.648,5.516,7.825,6.809,11.86,15.24
	c1.647,2.564,3.619,5.1,5.772,7.714c0.004,0.005,0.022,0.026,0.026,0.031c0.004,0.005,0.022,0.026,0.026,0.031
	c0.57,0.694,1.106,1.328,1.612,1.917c5.386,6.304,8.741,10.5,10.774,17.769c0.69,1.192,1.572,2.624,2.189,3.897
	c2.711,5.311,6.913,9.314,8.575,16.742c0.819,2.761,1.784,4.476,2.935,5.539c0.209,0.193,0.444,0.336,0.671,0.472
	c2.784-0.3,6.103-1.584,9.254-1.258c1.502-0.016,2.92,0.236,4.272,0.615c3.055,0.854,5.603,2.797,7.957,5.67
	c2.839,3.409,4.953,7.463,7.283,11.304c1.517,2.534,3.088,5,4.817,6.669c1.923,1.513,3.859,2.997,5.853,4.418
	c6.776,4.374,10.481,8.593,12.653,13.062c3.345,6.914,2.257,13.328,4.272,18.812c0.019,0.035,0.15,0.176,0.17,0.211
	c0.059,0.104,0.389,0.501,0.455,0.607c1.305,1.706,2.962,3.503,4.954,5.414c4.127,4.205,8.735,8.486,12.884,13.81
	c0.015,0.015,0.077,0.102,0.092,0.117c0.015,0.015,0.076,0.103,0.091,0.117c0.061,0.062,0.318,0.427,0.378,0.49
	c2.349,2.979,4.967,6.544,7.233,10.615c3.599,6.663,8.454,17.072,6.988,26.208c-0.53,4.103-2.318,7.602-5.901,9.818
	c-2.649,1.878-6.086,3.348-9.594,4.074c-1.108,0.197-2.204,0.32-3.254,0.338c-4.639-0.074-8.725-1.296-12.423-3.146
	c-2.738-1.305-5.294-2.95-7.808-4.719c-0.027-0.036-0.178-0.106-0.205-0.142s-0.178-0.109-0.205-0.145
	c-2.537-1.745-4.987-3.549-7.534-5.186c-1.018-0.577-1.843-0.975-2.547-1.213c-1.897-0.64-2.635,0.15-3.72,0.911
	c-0.397,0.16-0.821,0.288-1.269,0.385c-4.185,4.321-11.094,6.252-18.466,6.252c-6.863,0-13.866-1.678-18.832-4.45
	c-5.667-3.458-10.641-5.462-15.05-7.287c-0.206-0.09-0.394-0.158-0.564-0.209c-0.42-0.017-0.885-0.025-1.413-0.025
	c-0.411,0-0.822,0.009-1.236,0.017c-0.098,0.002-0.196,0.004-0.296,0.006c-0.65,0.086-1.365,0.204-2.072,0.313
	c-0.19,0.336-0.435,0.702-0.745,0.936c-1.525,2.421-4.547,5.565-5.891,8.217c-2.543,3.909-5.161,9.008-7.398,13.695
	c-1.826,3.83-2.933,7.654-4.077,11.384c-0.228,0.724-0.451,1.427-0.67,2.11c-0.138,0.4-0.281,0.792-0.429,1.176
	c-0.179,2.692-0.791,5.522-2.014,8.34c-0.006,0.022-0.047,0.103-0.054,0.125c-0.006,0.022-0.048,0.102-0.055,0.124
	c-1.143,2.702-2.997,5.599-5.747,8.316c-2.101,2.126-5.173,3.248-7.468,5.567c-1.976,2.072-2.806,4.315-5.334,6.21
	c-2.931,2.263-7.177,3.373-11.773,3.689c-1.541,0.109-3.082,0.126-4.569,0.07c-0.445-0.016-0.884-0.039-1.317-0.067
	c-0.194-0.007-0.935-0.071-1.123-0.084s-0.916-0.133-1.098-0.151c-14.86-2.882-17.46-15.907-24.32-23.58
	c-0.882-1.208-1.869-2.508-2.717-3.156c-0.363-0.262-0.988-0.642-1.996-1.038c-2.555-0.926-5.164-1.836-7.875-2.712
	c-20.071-5.918-28.006-15.509-35.306-33.299c-0.298-0.331-0.643-0.686-0.944-1.02c-8.78-9.806-19.166-8.808-29.024-32.006
	c-0.504-1.096-1.014-2.203-1.526-3.323c-1.226-2.523-2.544-5.046-3.882-7.64c-2.056-3.99-4.161-8.162-5.982-12.672
	c-0.437-1.096-0.837-2.166-1.22-3.206c-2.916-3.294-5.797-5.754-11.713-7.249c-0.048-0.012-0.095-0.024-0.143-0.037
	c-0.206-0.057-0.438-0.127-0.645-0.184c-4.424-1.218-7.841-2.852-11.108-7.257c-0.032-0.042-0.154-0.21-0.186-0.253
	c-0.032-0.043-0.151-0.215-0.183-0.26c-4.148-6.107-8.106-14.469-8.298-23.605c0.053-3.131,1.595-4.386,2.124-6.782
	c0.272-1.066,0.443-2.127,0.547-3.185c0.001-0.01,0.006-0.054,0.006-0.064c0.001-0.01,0.006-0.054,0.006-0.064
	c0.217-2.372,0.048-4.86,0.131-7.36c-1.35-3.298-2.672-6.909-1.851-10.85c0.869-3.337,2.121-5.528,3.67-7.431
	c0.008-0.003,0.027-0.032,0.035-0.035c0.008-0.003,0.027-0.032,0.035-0.035c1.867-1.858,3.801-2.896,5.27-5.584
	c0.954-1.662,1.814-3.307,2.615-4.915c-0.283-1.571-0.656-3.151-1.001-4.532c-0.661-2.463-1.482-5.01-2.282-7.541
	c-0.029-0.097-0.163-0.507-0.192-0.604c-0.023-0.076-0.115-0.4-0.138-0.475c-0.497-1.526-1.586-4.031-2.439-5.995
	c-1.857-4.319-3.917-8.778-5.413-13.025c-2.581-7.831-6.67-18.347-6.009-28.43c0.273-8.352,3.457-15.472,11.949-18.96
	C49.823,56.437,50.313,56.301,50.807,56.2"/>
<path class="st1" d="M75.524,85.688c2.64,0,3.984,1.872,6.624,2.4c0.384,0.096,0.816,0.096,1.2,0.096
	c2.544,0,4.992-1.392,7.584-1.392c0.384,0,0.72,0.048,1.104,0.096c2.688,0.48,5.472,2.688,7.776,4.32
	c2.256,1.584,4.176,2.064,5.952,2.064c2.832,0,5.472-1.2,8.88-1.2c0.768,0,1.536,0.048,2.4,0.192
	c4.608,0.768,6.72,4.992,11.232,4.992c0.624,0,1.248-0.096,1.968-0.24c1.632-0.384,3.12-0.624,4.8-0.624
	c0.816,0,1.632,0.048,2.592,0.192c2.592,0.768,6.144,0.96,9.6,0.96c3.6,0,7.056-0.192,9.312-0.192c0.72,0,1.296,0,1.728,0.096
	c0.432,0.048,0.816,0.096,1.2,0.096c4.32,0,7.92-3.216,12.576-3.264h0.96c7.536,0,12.432,1.008,18.384,6.48
	c14.016,11.76,11.328-3.6,33.936,23.568c5.472,6.624,4.848,5.04,6.48,13.536c3.792,9.168,14.352,14.16,15.888,24.144
	c1.584,5.664,4.656,8.064,4.608,14.64c0.576,2.976,1.584,3.984,2.832,3.984c2.304,0,5.376-3.264,7.92-3.984
	c1.344-0.48,2.544-0.672,3.6-0.672c8.64,0,8.976,14.496,20.736,22.512c20.16,11.568,4.56,17.952,17.856,30.672
	c5.232,5.712,11.328,10.32,15.648,16.8c3.504,5.424,14.16,21.264,4.896,24.336c-1.968,0.816-4.752,1.44-7.296,1.44
	c-1.008,0-1.968-0.096-2.832-0.336c-9.888-2.976-12.48-14.208-20.256-19.824c-1.008-0.576-1.728-0.816-2.256-0.816
	c-1.632,0-1.44,2.352-1.968,4.752c-1.344,6.528-8.016,9.12-15.024,9.12c-6,0-12.288-1.872-15.696-4.8
	c-5.712-4.896-10.464-5.52-15.216-5.52c-1.056,0-2.112,0.048-3.216,0.048c-2.496,0.048-9.216,2.352-11.424,3.648
	c-3.744,2.112-6.864,6.384-8.64,10.272c-1.824,3.984-1.344,8.208-0.72,12.528c0.816,5.712-0.432,11.424-4.752,16.224
	c-1.776,2.016-4.8,2.4-6.096,4.992c-1.2,2.4-0.192,5.232-1.68,7.728c-2.496,4.08-8.208,5.232-13.104,5.232
	c-1.056,0-2.064-0.048-3.024-0.144c-12.624-2.448-6.912-18.912-27.312-25.008c-16.656-3.984-21.936-9.936-28.08-25.584
	c-7.344-12.336-16.368-5.088-25.776-28.224c-3.312-7.104-7.296-13.584-10.032-20.976c-2.4-6.576-2.544-10.704-9.888-10.704
	c-0.048,0-0.096,0-0.144,0c-0.192,0-0.432,0-0.624,0c-4.944,0-8.016-0.48-11.184-4.896c-3.456-5.088-6.288-11.76-5.472-18.384
	c0.384-2.976,3.072-2.736,3.84-4.32c2.976-6-4.896-10.896-2.736-16.32c3.12-7.728,7.872-3.264,9.744-7.68
	c3.648-8.544-3.6-21.552-6.288-29.568c-2.64-9.6-19.152-31.68-4.32-37.392C74.756,85.736,75.14,85.688,75.524,85.688"/>
<path class="st1" d="M73.052,82.739c1.098,0,2.107,0.281,2.94,0.705c1.09,0.554,2.281,1.239,3.718,1.526
	c0.369,0.092,0.789,0.092,1.158,0.092c1.237-0.004,2.484-0.334,3.753-0.663l0,0c1.297-0.34,2.595-0.681,3.925-0.672
	c0.388,0.003,0.729,0.052,1.116,0.101c1.669,0.298,3.361,1.217,4.949,2.254c1.031,0.641,2.03,1.332,2.963,1.94
	c0.973,0.644,1.889,1.097,2.765,1.406c1.199,0.416,2.298,0.578,3.312,0.582c0.027,0,0.059,0,0.086,0
	c0.187-0.002,0.404-0.005,0.589-0.016c0.185-0.011,0.4-0.022,0.584-0.042c2.426-0.222,4.804-1.025,7.706-0.97
	c0.776,0.015,1.55,0.08,2.415,0.237c1.879,0.342,3.354,1.233,4.741,2.175c2.03,1.302,3.906,2.722,6.612,2.722
	c0.634,0,1.267-0.091,1.992-0.228c1.644-0.365,3.148-0.587,4.837-0.574c0.829,0.008,1.656,0.063,2.62,0.212
	c2.684,0.786,6.252,1.047,9.691,1.119c1.397-0.006,2.778-0.037,4.085-0.071c2.055-0.054,3.908-0.118,5.327-0.107
	c0.422,0.002,0.797,0.005,1.125,0.026c0.22,0.013,0.45,0.04,0.622,0.079c0.415,0.046,0.833,0.1,1.202,0.1
	c0.4,0,0.856-0.01,1.245-0.062c1.345-0.174,2.675-0.615,4.08-1.114c1.705-0.632,3.418-1.35,5.256-1.709
	c0.701-0.136,1.419-0.221,2.162-0.229c0.017,0,0.955-0.001,0.972-0.001c0.529,0,1.045,0.004,1.55,0.014
	c0.516,0.011,1.024,0.028,1.525,0.053c5.464,0.206,9.716,1.304,14.572,5.152c0.029,0.025,0.064,0.049,0.093,0.074
	c0.029,0.025,0.064,0.05,0.093,0.075c0.252,0.218,0.56,0.445,0.815,0.68c11.778,9.408,12.466,0.816,25.38,13.333
	c0.174,0.166,0.346,0.333,0.517,0.5c2.655,2.384,5.716,5.543,9.396,9.804c5.49,6.513,5.146,5.217,7.018,13.706
	c1.033,2.355,2.491,4.463,4.129,6.472c0.006,0.008,0.014,0.017,0.02,0.025c0.006,0.008,0.014,0.017,0.02,0.025
	c0.425,0.52,0.857,1.027,1.292,1.525c3.804,4.355,7.875,8.158,9.827,13.352c0.448,1.089,0.822,2.253,1.051,3.466
	c1.697,5.629,4.882,8.189,5.005,14.85c0.6,2.954,1.609,4.042,2.842,4.139c0.269,0.021,0.548-0.008,0.836-0.069
	c2.235-0.581,4.953-3.057,7.285-3.595c1.36-0.434,2.582-0.579,3.667-0.543c2.895,0.094,4.909,1.725,6.731,4.207
	c1.914,2.595,3.572,6.044,5.778,9.508c1.185,1.866,2.519,3.735,4.115,5.426c1.357,1.398,2.88,2.728,4.629,3.926
	c6.626,3.851,9.486,7.185,10.784,10.407c2.061,5.127,0.082,9.856,3.182,15.636c0.031,0.056,0.074,0.123,0.106,0.179
	c0.095,0.167,0.222,0.364,0.326,0.533c0.931,1.465,2.199,3.011,3.923,4.66c3.133,3.391,6.574,6.457,9.771,9.813
	c0.023,0.024,0.052,0.055,0.075,0.079c0.023,0.024,0.052,0.055,0.075,0.079c0.098,0.099,0.214,0.229,0.311,0.329
	c2.118,2.237,4.16,4.63,5.919,7.335c2.431,3.872,7.762,12.16,8.339,18.456c0.325,3.224-0.603,5.878-3.824,7.049
	c-2.036,0.922-4.885,1.631-7.526,1.703c-1.018,0.02-1.992-0.054-2.874-0.269c-4.154-1.118-7.123-3.628-9.726-6.588
	c-1.849-2.088-3.516-4.404-5.297-6.612c-0.043-0.058-0.099-0.119-0.143-0.176s-0.1-0.118-0.143-0.176
	c-1.716-2.087-3.543-4.058-5.739-5.624c-1.009-0.576-1.74-0.833-2.285-0.856c-1.659-0.068-1.56,2.132-2.143,4.368
	c-0.173,0.665-0.408,1.283-0.697,1.857c-2.388,4.975-8.45,7.015-14.798,7.015c-6.086,0-12.446-1.853-16.01-4.765
	c-4.949-4.102-9.2-5.265-13.303-5.649c-0.182-0.018-0.363-0.032-0.541-0.043c-0.513-0.02-1.03-0.027-1.553-0.027
	c-0.353,0-0.707,0.006-1.062,0.013c-0.084,0.002-0.169,0.003-0.254,0.005c-0.633,0.021-1.279,0.048-1.939,0.059
	c-0.367,0.04-0.83,0.132-1.362,0.249c-2.887,0.751-7.769,2.699-9.583,3.95c-3.624,2.292-6.694,6.646-8.516,10.614
	c-1.561,3.395-1.588,6.941-1.307,10.554c0.052,0.69,0.117,1.38,0.185,2.071c0.037,0.393,0.064,0.786,0.082,1.177
	c0.189,2.503-0.029,5.008-0.745,7.435c-0.01,0.035-0.023,0.076-0.033,0.111c-0.01,0.035-0.023,0.076-0.034,0.11
	c-0.804,2.649-2.223,5.218-4.377,7.577c-1.808,2.027-4.837,2.485-6.233,5.049c-1.278,2.367-0.453,5.14-2.045,7.576
	c-1.964,2.957-5.659,4.341-9.498,4.846c-1.319,0.174-2.652,0.244-3.93,0.238c-0.392-0.002-0.778-0.01-1.157-0.024
	c-0.311-0.011-0.672-0.031-0.974-0.051s-0.653-0.055-0.945-0.084c-10.372-2.011-9.424-12.753-17.945-20.177
	c-0.801-0.727-1.688-1.44-2.65-2.056c-0.463-0.294-0.973-0.593-1.544-0.886c-1.779-0.911-3.803-1.735-6.133-2.437
	c-16.655-4.095-22.32-10.249-28.424-25.403c-0.156-0.346-0.316-0.699-0.473-1.055c-7.488-12.083-16.648-5.46-26.101-28.602
	c-0.464-0.998-0.941-1.985-1.425-2.967c-1.142-2.301-2.331-4.563-3.502-6.84c-1.898-3.694-3.744-7.43-5.241-11.434
	c-0.381-1.034-0.709-2.011-1.018-2.926c-1.754-4.712-3.005-7.607-9.175-7.753c-0.048-0.001-0.096-0.002-0.144-0.004
	c-0.193-0.006-0.433-0.013-0.626-0.018c-4.744-0.132-7.809-0.688-10.887-4.741c-0.051-0.067-0.112-0.148-0.163-0.218
	c-0.051-0.07-0.111-0.153-0.163-0.225c-3.525-5.19-6.47-12.031-5.755-18.906c0.351-2.991,2.924-2.901,3.668-4.566
	c0.394-0.846,0.595-1.674,0.654-2.486c0.001-0.016,0.003-0.035,0.004-0.051c0.001-0.016,0.002-0.035,0.003-0.051
	c0.115-2.001-0.64-3.922-1.444-5.811c-1.355-2.79-2.877-5.536-1.795-8.442c1.244-3.201,2.776-4.422,4.303-5.079
	c0.013-0.005,0.028-0.012,0.041-0.016c0.013-0.004,0.028-0.011,0.041-0.016c2.117-0.816,4.161-0.534,5.286-3.11
	c0.608-1.367,0.968-2.83,1.135-4.355c0.039-1.21-0.042-2.461-0.206-3.716c-0.269-1.991-0.766-4.049-1.379-6.108
	c-0.046-0.155-0.103-0.341-0.15-0.496c-0.037-0.121-0.081-0.267-0.119-0.387c-0.496-1.579-1.117-3.252-1.734-4.84
	c-1.469-3.787-3.073-7.404-4.091-10.419c-1.502-5.305-6.574-13.956-8.757-21.917c-2.021-7.167-1.748-13.676,5.463-16.475
	C72.263,82.806,72.657,82.749,73.052,82.739"/>
<path class="st1" d="M70.581,79.79c1.052,0,2.17,0.212,2.968,0.617c1.045,0.531,2.347,1.17,3.723,1.445
	c0.353,0.088,0.762,0.087,1.116,0.087c1.225-0.008,2.493-0.333,3.799-0.647l0,0c1.317-0.326,2.632-0.647,3.973-0.63
	c0.391,0.005,0.738,0.055,1.128,0.106c1.706,0.304,3.42,1.212,5.023,2.236c1.044,0.603,2.064,1.255,3.026,1.832
	c0.983,0.612,1.916,1.043,2.812,1.34c1.248,0.399,2.379,0.563,3.388,0.572c0.026,0,0.061,0.001,0.088,0.001
	c0.179-0.002,0.419,0,0.597-0.011c0.177-0.011,0.415-0.015,0.592-0.034c2.467-0.188,4.877-0.921,7.775-0.81
	c0.783,0.03,1.564,0.113,2.429,0.281c1.888,0.373,3.382,1.274,4.78,2.223c2.046,1.231,3.964,2.579,6.694,2.579
	c0.643,0,1.286-0.087,2.016-0.216c1.656-0.346,3.176-0.55,4.874-0.525c0.842,0.015,1.68,0.078,2.647,0.231
	c2.777,0.804,6.361,1.135,9.782,1.278c1.405-0.012,2.799-0.046,4.127-0.078c2.064-0.051,3.931-0.104,5.384-0.085
	c0.424,0.006,0.802,0.01,1.136,0.033c0.211,0.013,0.465,0.044,0.63,0.081c0.397,0.044,0.851,0.103,1.204,0.103
	c0.384,0,0.885,0.009,1.258-0.041c1.31-0.164,2.649-0.579,4.134-1.057c1.732-0.606,3.474-1.297,5.332-1.644
	c0.711-0.132,1.437-0.214,2.186-0.223c0.034-0.001,0.951-0.002,0.984-0.002c0.535-0.001,1.057,0.003,1.567,0.013
	c0.517,0.01,1.031,0.027,1.542,0.051c5.41,0.128,9.764,1.073,14.776,4.757c0.028,0.024,0.068,0.047,0.095,0.071
	c0.028,0.024,0.068,0.048,0.096,0.072c0.242,0.209,0.592,0.426,0.837,0.652c11.876,9.016,13.171,0.866,26.214,13.462
	c0.184,0.173,0.363,0.343,0.538,0.512c2.855,2.336,6.064,5.449,9.899,9.733c5.507,6.402,5.443,5.394,7.556,13.877
	c1.101,2.378,2.617,4.534,4.311,6.61c0.006,0.007,0.015,0.018,0.021,0.026c0.006,0.007,0.015,0.018,0.021,0.026
	c0.441,0.539,0.884,1.06,1.327,1.568c3.98,4.572,7.971,8.418,9.932,13.843c0.475,1.1,0.906,2.294,1.178,3.514
	c1.809,5.593,5.107,8.314,5.401,15.06c0.625,2.933,1.631,4.098,2.853,4.295c0.263,0.042,0.537,0.03,0.817-0.009
	c2.296-0.55,5.081-2.893,7.504-3.336c1.376-0.387,2.62-0.486,3.734-0.415c2.914,0.185,4.986,1.844,6.867,4.369
	c2.016,2.685,3.726,6.202,5.946,9.708c1.222,1.94,2.582,3.875,4.193,5.564c1.42,1.411,2.988,2.758,4.764,3.981
	c6.643,3.909,9.596,7.341,10.991,10.702c2.204,5.325,0.323,10.242,3.303,15.989c0.03,0.054,0.082,0.129,0.113,0.183
	c0.091,0.16,0.24,0.379,0.341,0.541c0.973,1.492,2.284,3.066,4.037,4.744c3.244,3.481,6.814,6.683,10.117,10.257
	c0.022,0.023,0.055,0.06,0.077,0.083c0.022,0.023,0.054,0.06,0.077,0.083c0.093,0.095,0.226,0.251,0.319,0.347
	c2.144,2.319,4.25,4.842,6.065,7.699c2.561,4.182,7.839,12.706,8.189,19.317c0.23,3.322-0.793,6.07-4.055,7.357
	c-2.104,1.028-5.019,1.822-7.756,1.967c-1.028,0.039-2.015-0.013-2.916-0.201c-4.208-1.002-7.301-3.369-10.026-6.206
	c-1.948-2.001-3.714-4.242-5.576-6.401c-0.042-0.055-0.108-0.117-0.15-0.172c-0.042-0.055-0.108-0.117-0.15-0.172
	c-1.808-2.049-3.704-4.002-5.938-5.575c-1.01-0.576-1.752-0.85-2.314-0.895c-1.686-0.136-1.679,1.912-2.318,3.984
	c-0.198,0.609-0.454,1.173-0.761,1.694c-2.588,4.903-8.744,6.93-15.206,6.93c-6.173,0-12.604-1.833-16.323-4.73
	c-5.028-4.03-9.36-5.286-13.497-5.831c-0.185-0.026-0.366-0.046-0.544-0.062c-0.503-0.019-1.014-0.027-1.537-0.027
	c-0.36,0-0.72,0.006-1.082,0.013c-0.086,0.002-0.172,0.004-0.259,0.005c-0.635,0.028-1.288,0.065-1.954,0.087
	c-0.347,0.073-0.787,0.196-1.294,0.325c-2.736,0.936-7.411,3.017-9.172,4.424c-3.504,2.471-6.523,6.909-8.392,10.957
	c-1.591,3.443-1.737,7.02-1.615,10.646c0.021,0.694,0.054,1.385,0.09,2.075c0.017,0.394,0.026,0.786,0.025,1.177
	c0.148,2.524-0.114,5.065-0.886,7.535c-0.009,0.033-0.026,0.079-0.035,0.112c-0.009,0.033-0.026,0.078-0.036,0.112
	c-0.842,2.654-2.309,5.26-4.529,7.659c-1.841,2.038-4.875,2.57-6.37,5.107c-1.355,2.334-0.715,5.049-2.411,7.424
	c-2.071,2.88-5.828,4.234-9.75,4.718c-1.344,0.167-2.699,0.231-4.001,0.22c-0.398-0.003-0.789-0.013-1.175-0.029
	c-0.298-0.01-0.701-0.036-0.99-0.055s-0.682-0.064-0.962-0.092c-10.871-2.108-10.317-13.103-18.653-20.555
	c-0.81-0.78-1.708-1.558-2.658-2.178c-0.452-0.291-0.975-0.599-1.594-0.903c-1.866-0.913-3.954-1.746-6.326-2.468
	c-17.034-4.298-22.952-10.834-29.189-26.28c-0.171-0.344-0.353-0.698-0.525-1.051c-7.631-11.83-16.928-5.832-26.426-28.98
	c-0.469-1.009-0.949-2.01-1.436-3.007c-1.151-2.326-2.355-4.616-3.544-6.929c-1.916-3.727-3.79-7.512-5.324-11.572
	c-0.387-1.041-0.723-2.028-1.04-2.957c-1.883-4.554-3.314-7.393-9.457-7.697c-0.048-0.002-0.096-0.005-0.144-0.007
	c-0.195-0.011-0.433-0.026-0.628-0.037c-4.71-0.261-7.813-0.929-10.912-5.02c-0.049-0.065-0.116-0.155-0.166-0.222
	c-0.049-0.067-0.116-0.16-0.165-0.229c-3.594-5.292-6.652-12.302-6.037-19.428c0.318-3.007,2.777-3.066,3.497-4.812
	c0.38-0.871,0.578-1.724,0.642-2.564c0.001-0.015,0.003-0.037,0.004-0.052c0.001-0.015,0.003-0.037,0.003-0.052
	c0.127-2.042-0.563-4.026-1.269-5.983c-1.355-2.846-2.854-5.689-1.801-8.709c1.203-3.216,2.704-4.545,4.233-5.34
	c0.013-0.004,0.027-0.014,0.04-0.018c0.013-0.004,0.028-0.014,0.04-0.018c2.089-0.932,4.121-0.797,5.284-3.385
	c0.646-1.399,1.062-2.883,1.3-4.417c0.003-1.25-0.11-2.538-0.294-3.806c-0.313-2.043-0.845-4.156-1.479-6.267
	c-0.044-0.148-0.109-0.359-0.155-0.508c-0.035-0.116-0.085-0.281-0.121-0.397c-0.496-1.573-1.169-3.339-1.813-4.968
	c-1.512-3.847-3.167-7.557-4.238-10.709c-1.622-5.586-6.585-14.444-8.452-22.641c-1.766-7.299-1.17-13.875,6.184-16.751
	C69.769,79.876,70.175,79.811,70.581,79.79"/>
<path class="st1" d="M68.109,76.842c1.006,0,2.232,0.142,2.996,0.53c0.999,0.508,2.412,1.1,3.729,1.363
	c0.338,0.084,0.735,0.083,1.073,0.083c1.212-0.013,2.501-0.332,3.845-0.632l0,0c1.338-0.312,2.669-0.613,4.021-0.587
	c0.395,0.008,0.747,0.059,1.14,0.111c1.742,0.31,3.48,1.208,5.096,2.218c1.057,0.565,2.098,1.179,3.089,1.724
	c0.994,0.58,1.943,0.99,2.859,1.273c1.297,0.382,2.461,0.549,3.465,0.563c0.025,0,0.064,0.002,0.089,0.001
	c0.171-0.001,0.435,0.004,0.605-0.007c0.169-0.011,0.431-0.009,0.6-0.027c2.509-0.153,4.951-0.815,7.844-0.651
	c0.791,0.045,1.578,0.145,2.444,0.326c1.898,0.403,3.409,1.316,4.819,2.272c2.062,1.161,4.021,2.436,6.776,2.436
	c0.653,0,1.305-0.082,2.04-0.204c1.668-0.327,3.205-0.513,4.911-0.475c0.855,0.023,1.704,0.093,2.675,0.251
	c2.869,0.823,6.469,1.222,9.873,1.437c1.412-0.018,2.821-0.054,4.17-0.085c2.073-0.049,3.955-0.092,5.44-0.064
	c0.425,0.008,0.808,0.015,1.147,0.04c0.202,0.012,0.48,0.047,0.639,0.082c0.38,0.042,0.868,0.107,1.206,0.107
	c0.367,0,0.914,0.029,1.27-0.019c1.275-0.154,2.623-0.543,4.188-1.001c1.759-0.579,3.529-1.244,5.408-1.579
	c0.721-0.127,1.456-0.207,2.211-0.217c0.051-0.001,0.946-0.002,0.995-0.003c0.541-0.001,1.068,0.002,1.583,0.012
	c0.518,0.01,1.038,0.025,1.558,0.05c5.355,0.05,9.812,0.843,14.981,4.363c0.026,0.023,0.071,0.045,0.098,0.068
	c0.027,0.023,0.072,0.046,0.098,0.069c0.231,0.2,0.625,0.408,0.859,0.623c11.974,8.624,13.877,0.915,27.049,13.59
	c0.193,0.18,0.379,0.354,0.558,0.524c3.054,2.288,6.413,5.356,10.401,9.662c5.525,6.292,5.741,5.571,8.094,14.047
	c1.169,2.401,2.742,4.605,4.494,6.748c0.006,0.007,0.016,0.019,0.022,0.026c0.006,0.007,0.016,0.019,0.022,0.026
	c0.457,0.559,0.912,1.094,1.363,1.612c4.156,4.788,8.068,8.678,10.037,14.334c0.502,1.112,0.989,2.335,1.304,3.562
	c1.922,5.558,5.333,8.439,5.798,15.271c0.649,2.911,1.652,4.153,2.863,4.45c0.256,0.063,0.525,0.068,0.799,0.051
	c2.357-0.519,5.208-2.73,7.722-3.076c1.391-0.341,2.658-0.393,3.802-0.286c2.932,0.275,5.063,1.963,7.003,4.532
	c2.119,2.776,3.879,6.359,6.113,9.907c1.259,2.014,2.645,4.016,4.271,5.702c1.483,1.424,3.097,2.788,4.901,4.036
	c6.659,3.967,9.707,7.497,11.199,10.997c2.346,5.524,0.565,10.628,3.424,16.341c0.028,0.051,0.091,0.135,0.12,0.186
	c0.087,0.153,0.259,0.395,0.355,0.55c1.014,1.519,2.369,3.12,4.152,4.828c3.354,3.572,7.054,6.908,10.462,10.701
	c0.022,0.022,0.057,0.065,0.079,0.087s0.057,0.066,0.079,0.087c0.089,0.091,0.237,0.273,0.326,0.365
	c2.169,2.402,4.34,5.055,6.211,8.064c2.69,4.492,7.916,13.252,8.039,20.178c0.135,3.42-0.984,6.261-4.285,7.665
	c-2.172,1.135-5.152,2.012-7.986,2.23c-1.038,0.059-2.039,0.029-2.958-0.134c-4.262-0.886-7.479-3.11-10.325-5.823
	c-2.047-1.914-3.911-4.081-5.855-6.191c-0.04-0.053-0.117-0.116-0.157-0.168c-0.04-0.053-0.117-0.116-0.157-0.169
	c-1.899-2.011-3.864-3.945-6.138-5.526c-1.011-0.576-1.763-0.867-2.343-0.935c-1.713-0.202-1.799,1.691-2.494,3.6
	c-0.223,0.553-0.5,1.062-0.824,1.53c-2.787,4.83-9.038,6.845-15.613,6.845c-6.259,0-12.761-1.814-16.637-4.695
	c-5.108-3.959-9.52-5.308-13.691-6.013c-0.188-0.034-0.37-0.06-0.546-0.08c-0.493-0.019-0.998-0.027-1.522-0.027
	c-0.366,0-0.732,0.006-1.101,0.014c-0.087,0.002-0.175,0.004-0.263,0.006c-0.637,0.036-1.298,0.083-1.968,0.115
	c-0.328,0.106-0.743,0.259-1.225,0.401c-2.584,1.122-7.053,3.336-8.762,4.898c-3.384,2.651-6.353,7.171-8.267,11.299
	c-1.62,3.492-1.887,7.099-1.923,10.738c-0.01,0.697-0.009,1.391-0.005,2.079c-0.002,0.395-0.013,0.787-0.032,1.177
	c0.107,2.545-0.198,5.123-1.027,7.636c-0.009,0.032-0.028,0.082-0.037,0.114c-0.009,0.032-0.029,0.081-0.038,0.113
	c-0.879,2.66-2.395,5.302-4.681,7.741c-1.873,2.049-4.912,2.654-6.508,5.164c-1.433,2.302-0.976,4.957-2.776,7.273
	c-2.179,2.802-5.996,4.126-10.003,4.589c-1.369,0.16-2.747,0.218-4.072,0.201c-0.404-0.005-0.801-0.016-1.192-0.034
	c-0.285-0.01-0.73-0.04-1.007-0.059c-0.276-0.018-0.711-0.072-0.979-0.099c-11.369-2.205-11.209-13.454-19.361-20.933
	c-0.819-0.834-1.728-1.677-2.665-2.301c-0.441-0.287-0.976-0.604-1.644-0.92c-1.952-0.914-4.106-1.757-6.52-2.498
	c-17.414-4.501-23.584-11.418-29.954-27.158c-0.187-0.343-0.389-0.696-0.577-1.047c-7.775-11.577-17.208-6.204-26.75-29.359
	c-0.473-1.02-0.957-2.034-1.447-3.047c-1.16-2.35-2.379-4.67-3.586-7.018c-1.933-3.76-3.837-7.593-5.406-11.709
	c-0.393-1.048-0.737-2.046-1.063-2.988c-2.012-4.397-3.624-7.186-9.739-7.641c-0.048-0.004-0.096-0.007-0.144-0.011
	c-0.196-0.017-0.434-0.039-0.63-0.055c-4.676-0.388-7.816-1.169-10.936-5.3c-0.047-0.062-0.121-0.162-0.168-0.226
	c-0.047-0.064-0.12-0.167-0.167-0.232c-3.664-5.394-6.834-12.573-6.32-19.95c0.285-3.022,2.629-3.231,3.325-5.059
	c0.367-0.895,0.561-1.775,0.63-2.641c0.001-0.015,0.003-0.039,0.004-0.054c0.001-0.015,0.003-0.039,0.004-0.054
	c0.138-2.084-0.487-4.13-1.094-6.155c-1.354-2.902-2.831-5.841-1.807-8.977c1.161-3.231,2.631-4.668,4.163-5.602
	c0.012-0.004,0.027-0.016,0.04-0.02c0.012-0.004,0.027-0.016,0.04-0.02c2.061-1.047,4.081-1.059,5.282-3.659
	c0.685-1.432,1.156-2.936,1.464-4.479c-0.032-1.29-0.178-2.614-0.383-3.897c-0.356-2.096-0.925-4.263-1.58-6.426
	c-0.042-0.142-0.116-0.378-0.159-0.52c-0.034-0.111-0.089-0.296-0.123-0.407c-0.496-1.567-1.221-3.425-1.891-5.096
	c-1.555-3.906-3.26-7.709-4.385-10.998c-1.742-5.866-6.595-14.931-8.146-23.365c-1.511-7.431-0.591-14.075,6.904-17.027
	C67.276,76.946,67.692,76.872,68.109,76.842"/>
<path class="st1" d="M65.637,73.893c0.961,0,2.295,0.072,3.024,0.443c0.954,0.485,2.477,1.031,3.735,1.282
	c0.323,0.081,0.708,0.078,1.031,0.078c1.2-0.017,2.509-0.33,3.89-0.617l0,0c1.359-0.297,2.706-0.58,4.069-0.545
	c0.399,0.01,0.756,0.063,1.152,0.116c1.778,0.316,3.54,1.204,5.17,2.2c1.07,0.527,2.132,1.102,3.152,1.615
	c1.005,0.549,1.97,0.936,2.907,1.207c1.346,0.364,2.542,0.535,3.542,0.553c0.024,0,0.066,0.002,0.09,0.002
	c0.163-0.001,0.451,0.008,0.613-0.002c0.162-0.01,0.446-0.002,0.607-0.019c2.551-0.118,5.024-0.709,7.912-0.491
	c0.799,0.06,1.591,0.177,2.459,0.37c1.908,0.434,3.436,1.357,4.858,2.32c2.077,1.091,4.079,2.294,6.857,2.294
	c0.663,0,1.324-0.077,2.064-0.192c1.68-0.307,3.233-0.476,4.948-0.426c0.868,0.03,1.728,0.107,2.703,0.27
	c2.962,0.841,6.577,1.309,9.964,1.595c1.42-0.024,2.842-0.063,4.212-0.092c2.082-0.047,3.978-0.081,5.497-0.042
	c0.427,0.011,0.813,0.019,1.158,0.047c0.193,0.011,0.496,0.051,0.647,0.084c0.363,0.04,0.885,0.111,1.208,0.111
	c0.35,0,0.943,0.048,1.283,0.003c1.24-0.143,2.597-0.507,4.242-0.944c1.786-0.553,3.585-1.191,5.484-1.514
	c0.731-0.123,1.474-0.2,2.235-0.21c0.068-0.002,0.941-0.003,1.007-0.004c0.546-0.002,1.079,0.001,1.6,0.01
	c0.519,0.009,1.045,0.024,1.575,0.049c5.301-0.028,9.86,0.612,15.185,3.968c0.025,0.022,0.075,0.043,0.101,0.065
	c0.025,0.022,0.075,0.044,0.101,0.066c0.221,0.191,0.658,0.389,0.881,0.595c12.072,8.232,14.583,0.965,27.883,13.718
	c0.203,0.188,0.396,0.365,0.578,0.535c3.254,2.239,6.762,5.263,10.903,9.591c5.542,6.181,6.039,5.748,8.632,14.217
	c1.237,2.425,2.867,4.676,4.676,6.886c0.006,0.007,0.017,0.02,0.022,0.027c0.006,0.007,0.017,0.02,0.022,0.027
	c0.473,0.578,0.94,1.127,1.398,1.655c4.331,5.005,8.164,8.938,10.143,14.824c0.529,1.123,1.072,2.376,1.431,3.61
	c2.035,5.523,5.559,8.564,6.195,15.481c0.673,2.89,1.671,4.206,2.873,4.606c0.249,0.083,0.513,0.107,0.781,0.111
	c2.418-0.487,5.336-2.566,7.941-2.816c1.407-0.294,2.696-0.302,3.869-0.157c2.949,0.363,5.14,2.083,7.14,4.694
	c2.222,2.866,4.032,6.517,6.28,10.107c1.296,2.089,2.709,4.156,4.349,5.84c1.545,1.437,3.206,2.818,5.037,4.09
	c6.676,4.025,9.817,7.654,11.407,11.292c2.489,5.722,0.807,11.014,3.546,16.694c0.027,0.049,0.099,0.141,0.127,0.19
	c0.083,0.146,0.278,0.41,0.369,0.558c1.056,1.545,2.453,3.175,4.267,4.911c3.464,3.662,7.295,7.134,10.808,11.146
	c0.021,0.021,0.06,0.071,0.081,0.091c0.021,0.021,0.06,0.071,0.08,0.092c0.085,0.087,0.249,0.295,0.334,0.383
	c2.195,2.484,4.429,5.268,6.357,8.428c2.82,4.802,7.993,13.798,7.889,21.04c0.04,3.517-1.174,6.453-4.516,7.972
	c-2.241,1.241-5.286,2.203-8.215,2.493c-1.048,0.079-2.062,0.07-3.001-0.066c-4.316-0.77-7.657-2.851-10.625-5.441
	c-2.145-1.827-4.109-3.919-6.134-5.981c-0.038-0.05-0.125-0.114-0.164-0.165c-0.038-0.05-0.126-0.115-0.164-0.165
	c-1.99-1.973-4.025-3.889-6.337-5.478c-1.012-0.577-1.775-0.883-2.373-0.975c-1.739-0.267-1.918,1.471-2.669,3.215
	c-0.248,0.497-0.546,0.951-0.888,1.366c-2.987,4.757-9.331,6.76-16.021,6.76c-6.345,0-12.919-1.794-16.95-4.66
	c-5.188-3.887-9.681-5.33-13.885-6.195c-0.19-0.042-0.373-0.074-0.549-0.099c-0.482-0.019-0.982-0.027-1.506-0.027
	c-0.373,0-0.745,0.007-1.12,0.014c-0.089,0.002-0.178,0.004-0.268,0.006c-0.639,0.043-1.307,0.1-1.983,0.144
	c-0.308,0.139-0.699,0.322-1.156,0.478c-2.433,1.308-6.695,3.654-8.352,5.372c-3.264,2.831-6.183,7.433-8.143,11.641
	c-1.65,3.54-2.036,7.179-2.23,10.831c-0.041,0.701-0.072,1.396-0.1,2.084c-0.022,0.396-0.051,0.788-0.089,1.177
	c0.066,2.566-0.283,5.18-1.168,7.737c-0.008,0.031-0.031,0.085-0.04,0.115c-0.009,0.03-0.032,0.084-0.041,0.115
	c-0.917,2.666-2.481,5.345-4.833,7.823c-1.906,2.06-4.949,2.739-6.645,5.222c-1.51,2.269-1.238,4.865-3.142,7.121
	c-2.286,2.725-6.165,4.018-10.256,4.46c-1.393,0.152-2.795,0.205-4.143,0.182c-0.41-0.007-0.813-0.019-1.21-0.039
	c-0.272-0.009-0.76-0.045-1.023-0.062s-0.74-0.081-0.996-0.107c-11.868-2.301-12.102-13.804-20.07-21.311
	c-0.828-0.887-1.748-1.796-2.673-2.423c-0.429-0.284-0.978-0.61-1.695-0.937c-2.038-0.916-4.257-1.769-6.713-2.529
	c-17.794-4.703-24.216-12.003-30.718-28.035c-0.203-0.341-0.425-0.695-0.63-1.043c-7.918-11.324-17.487-6.576-27.075-29.737
	c-0.478-1.031-0.965-2.058-1.459-3.086c-1.17-2.375-2.402-4.724-3.628-7.107c-1.951-3.793-3.883-7.674-5.488-11.847
	c-0.4-1.055-0.751-2.063-1.085-3.019c-2.141-4.239-3.934-6.979-10.021-7.585c-0.048-0.005-0.096-0.01-0.143-0.015
	c-0.198-0.022-0.435-0.052-0.632-0.073c-4.64-0.513-7.82-1.41-10.961-5.58c-0.045-0.059-0.126-0.169-0.171-0.23
	c-0.045-0.061-0.125-0.174-0.17-0.236c-3.733-5.496-7.015-12.844-6.603-20.472c0.252-3.038,2.481-3.396,3.153-5.305
	c0.353-0.92,0.544-1.825,0.619-2.719c0.001-0.014,0.004-0.041,0.004-0.055c0.001-0.014,0.003-0.041,0.004-0.055
	c0.149-2.125-0.411-4.235-0.919-6.327c-1.354-2.959-2.808-5.994-1.813-9.244c1.119-3.246,2.558-4.791,4.092-5.863
	c0.012-0.004,0.027-0.018,0.039-0.022c0.012-0.004,0.027-0.018,0.039-0.022c2.034-1.163,4.041-1.322,5.28-3.934
	c0.723-1.465,1.25-2.989,1.629-4.541c-0.068-1.331-0.246-2.691-0.471-3.988c-0.4-2.148-1.005-4.37-1.68-6.586
	c-0.04-0.135-0.123-0.396-0.164-0.532c-0.032-0.106-0.092-0.311-0.125-0.417c-0.496-1.561-1.274-3.512-1.969-5.225
	c-1.598-3.965-3.354-7.862-4.532-11.288c-1.862-6.147-6.606-15.419-7.841-24.088c-1.256-7.562-0.013-14.274,7.625-17.303
	C64.783,74.016,65.209,73.933,65.637,73.893"/>
<path class="st1" d="M63.165,70.944c0.915,0,2.358,0.003,3.052,0.355c0.909,0.462,2.543,0.961,3.74,1.201
	c0.307,0.077,0.682,0.074,0.989,0.074c1.187-0.021,2.518-0.329,3.936-0.602l0,0c1.379-0.283,2.744-0.546,4.117-0.503
	c0.403,0.013,0.765,0.066,1.164,0.121c1.815,0.323,3.599,1.199,5.243,2.183c1.084,0.49,2.166,1.026,3.215,1.507
	c1.015,0.517,1.997,0.883,2.954,1.141c1.395,0.347,2.624,0.521,3.619,0.544c0.023,0,0.068,0.003,0.091,0.003
	c0.156-0.001,0.466,0.012,0.621,0.003c0.154-0.01,0.462,0.005,0.615-0.012c2.592-0.083,5.097-0.602,7.981-0.332
	c0.807,0.076,1.605,0.209,2.473,0.415c1.917,0.465,3.463,1.399,4.897,2.368c2.093,1.02,4.136,2.151,6.939,2.151
	c0.672,0,1.342-0.073,2.088-0.18c1.692-0.288,3.261-0.44,4.985-0.376c0.881,0.038,1.752,0.122,2.731,0.29
	c3.054,0.859,6.685,1.396,10.055,1.754c1.428-0.03,2.864-0.071,4.255-0.099c2.091-0.045,4.001-0.069,5.554-0.021
	c0.429,0.013,0.818,0.024,1.169,0.053c0.184,0.011,0.511,0.054,0.655,0.086c0.346,0.038,0.903,0.114,1.21,0.114
	c0.334,0,0.972,0.068,1.296,0.025c1.206-0.133,2.571-0.472,4.295-0.888c1.814-0.527,3.641-1.137,5.56-1.448
	c0.741-0.118,1.492-0.194,2.26-0.204c0.085-0.002,0.936-0.004,1.019-0.005c0.552-0.002,1.091,0,1.617,0.009
	c0.52,0.009,1.051,0.023,1.592,0.047c5.247-0.105,9.909,0.381,15.389,3.573c0.024,0.021,0.079,0.041,0.103,0.062
	c0.024,0.021,0.079,0.042,0.103,0.062c0.21,0.182,0.69,0.371,0.903,0.567c12.17,7.84,15.288,1.014,28.718,13.847
	c0.213,0.195,0.413,0.376,0.599,0.547c3.454,2.191,7.111,5.169,11.405,9.52c5.56,6.07,6.337,5.925,9.17,14.388
	c1.306,2.448,2.992,4.746,4.859,7.024c0.005,0.006,0.017,0.021,0.023,0.028s0.017,0.021,0.023,0.028
	c0.489,0.597,0.967,1.161,1.434,1.699c4.507,5.221,8.26,9.199,10.248,15.315c0.556,1.135,1.156,2.418,1.557,3.658
	c2.148,5.488,5.785,8.689,6.592,15.691c0.698,2.868,1.689,4.256,2.883,4.761c0.242,0.102,0.502,0.145,0.762,0.171
	c2.479-0.456,5.464-2.402,8.16-2.557c1.423-0.248,2.733-0.211,3.936-0.029c2.967,0.448,5.217,2.202,7.276,4.857
	c2.325,2.956,4.186,6.675,6.447,10.306c1.332,2.163,2.772,4.297,4.427,5.978c1.608,1.449,3.315,2.847,5.173,4.145
	c6.693,4.083,9.928,7.81,11.614,11.587c2.632,5.921,1.049,11.399,3.667,17.047c0.026,0.047,0.108,0.146,0.134,0.193
	c0.079,0.139,0.296,0.425,0.383,0.566c1.098,1.572,2.538,3.23,4.381,4.995c3.575,3.753,7.535,7.359,11.154,11.59
	c0.02,0.02,0.063,0.076,0.083,0.096c0.02,0.02,0.063,0.076,0.082,0.096c0.081,0.083,0.26,0.317,0.341,0.4
	c2.221,2.566,4.519,5.481,6.503,8.793c2.95,5.112,8.07,14.343,7.739,21.901c-0.055,3.615-1.365,6.645-4.747,8.28
	c-2.309,1.347-5.419,2.394-8.445,2.757c-1.058,0.099-2.086,0.112-3.043,0.001c-4.37-0.654-7.835-2.591-10.925-5.059
	c-2.244-1.74-4.306-3.757-6.413-5.771c-0.036-0.048-0.134-0.113-0.171-0.161c-0.036-0.048-0.134-0.114-0.171-0.162
	c-2.081-1.935-4.185-3.832-6.537-5.429c-1.013-0.577-1.786-0.899-2.402-1.014c-1.765-0.331-2.038,1.251-2.844,2.831
	c-0.273,0.441-0.592,0.841-0.951,1.203c-3.187,4.684-9.625,6.676-16.428,6.676c-6.431,0-13.077-1.775-17.264-4.625
	c-5.268-3.816-9.841-5.352-14.079-6.377c-0.193-0.05-0.377-0.088-0.551-0.117c-0.472-0.018-0.966-0.026-1.491-0.026
	c-0.379,0-0.758,0.007-1.14,0.015c-0.09,0.002-0.181,0.004-0.273,0.006c-0.641,0.05-1.317,0.117-1.998,0.172
	c-0.288,0.172-0.655,0.385-1.088,0.554c-2.282,1.493-6.337,3.973-7.942,5.846c-3.144,3.01-6.012,7.696-8.019,11.984
	c-1.679,3.588-2.186,7.258-2.538,10.923c-0.072,0.705-0.136,1.401-0.195,2.088c-0.041,0.396-0.09,0.789-0.145,1.177
	c0.025,2.587-0.368,5.237-1.309,7.837c-0.008,0.029-0.034,0.088-0.042,0.117c-0.008,0.029-0.035,0.087-0.043,0.116
	c-0.955,2.672-2.567,5.387-4.986,7.905c-1.938,2.071-4.986,2.824-6.782,5.279c-1.588,2.236-1.499,4.774-3.507,6.969
	c-2.394,2.648-6.334,3.911-10.509,4.332c-1.418,0.145-2.843,0.192-4.214,0.164c-0.415-0.008-0.825-0.023-1.228-0.043
	c-0.259-0.009-0.789-0.049-1.04-0.066c-0.251-0.017-0.77-0.09-1.013-0.114c-12.366-2.398-12.995-14.155-20.778-21.689
	c-0.837-0.941-1.768-1.914-2.68-2.545c-0.418-0.28-0.979-0.615-1.745-0.954c-2.124-0.918-4.408-1.78-6.907-2.559
	c-18.173-4.906-24.847-12.587-31.483-28.912c-0.219-0.34-0.462-0.693-0.682-1.039c-8.062-11.071-17.767-6.948-27.4-30.115
	c-0.482-1.042-0.973-2.082-1.47-3.126c-1.179-2.399-2.426-4.777-3.67-7.196c-1.969-3.826-3.929-7.756-5.57-11.984
	c-0.406-1.062-0.766-2.08-1.108-3.05c-2.27-4.082-4.245-6.773-10.303-7.529c-0.048-0.006-0.096-0.012-0.143-0.019
	c-0.199-0.028-0.435-0.064-0.635-0.092c-4.604-0.636-7.823-1.65-10.985-5.859c-0.043-0.056-0.131-0.176-0.173-0.234
	c-0.043-0.058-0.129-0.181-0.172-0.24c-3.802-5.598-7.197-13.114-6.885-20.995c0.218-3.053,2.334-3.561,2.982-5.551
	c0.34-0.944,0.527-1.875,0.607-2.797c0.001-0.013,0.004-0.044,0.005-0.057s0.004-0.043,0.004-0.057
	c0.16-2.166-0.334-4.339-0.744-6.499c-1.353-3.015-2.786-6.146-1.82-9.512c1.077-3.261,2.485-4.914,4.022-6.124
	c0.011-0.004,0.027-0.021,0.038-0.024c0.011-0.004,0.027-0.02,0.038-0.024c2.006-1.279,4.001-1.584,5.279-4.209
	c0.762-1.498,1.344-3.042,1.793-4.603c-0.104-1.371-0.315-2.768-0.559-4.079c-0.444-2.201-1.084-4.476-1.78-6.745
	c-0.038-0.129-0.129-0.415-0.169-0.544c-0.031-0.101-0.096-0.326-0.128-0.426c-0.496-1.555-1.326-3.598-2.048-5.353
	c-1.641-4.024-3.448-8.015-4.679-11.577c-1.982-6.428-6.617-15.907-7.536-24.812c-1.002-7.694,0.565-14.474,8.346-17.579
	C62.289,71.086,62.727,70.995,63.165,70.944"/>
<path class="st1" d="M60.694,67.995c0.869,0,2.421-0.067,3.08,0.268c0.863,0.439,2.608,0.892,3.746,1.119
	c0.292,0.073,0.655,0.069,0.947,0.069c1.175-0.025,2.526-0.328,3.982-0.587l0,0c1.4-0.269,2.781-0.512,4.165-0.46
	c0.406,0.016,0.774,0.07,1.176,0.126c1.851,0.329,3.659,1.195,5.317,2.165c1.097,0.452,2.2,0.949,3.278,1.399
	c1.026,0.485,2.023,0.829,3.002,1.074c1.444,0.33,2.705,0.507,3.696,0.534c0.022,0,0.07,0.003,0.092,0.003
	c0.148-0.001,0.482,0.017,0.629,0.008c0.146-0.009,0.477,0.011,0.623-0.004c2.634-0.049,5.171-0.495,8.05-0.172
	c0.815,0.091,1.619,0.242,2.488,0.459c1.927,0.495,3.491,1.44,4.937,2.416c2.109,0.95,4.194,2.008,7.02,2.008
	c0.682,0,1.361-0.068,2.112-0.168c1.704-0.269,3.289-0.403,5.022-0.327c0.894,0.046,1.776,0.137,2.758,0.31
	c3.146,0.877,6.794,1.484,10.146,1.913c1.436-0.036,2.885-0.08,4.298-0.107c2.1-0.042,4.025-0.058,5.611,0.001
	c0.43,0.016,0.824,0.029,1.18,0.06c0.175,0.01,0.527,0.058,0.663,0.088c0.328,0.036,0.92,0.118,1.212,0.118
	c0.317,0,1.001,0.087,1.308,0.046c1.171-0.123,2.545-0.436,4.349-0.831c1.841-0.5,3.697-1.084,5.636-1.383
	c0.751-0.114,1.511-0.187,2.285-0.198c0.102-0.003,0.932-0.005,1.031-0.007c0.558-0.003,1.102-0.001,1.633,0.007
	c0.521,0.009,1.058,0.022,1.608,0.046c5.192-0.183,9.957,0.151,15.593,3.179c0.023,0.02,0.083,0.039,0.106,0.058
	c0.023,0.02,0.083,0.039,0.106,0.059c0.2,0.173,0.723,0.352,0.925,0.538c12.268,7.448,15.994,1.064,29.553,13.975
	c0.223,0.202,0.429,0.387,0.619,0.559c3.653,2.143,7.46,5.076,11.908,9.449c5.578,5.959,6.634,6.102,9.708,14.558
	c1.374,2.471,3.118,4.817,5.042,7.162c0.005,0.006,0.018,0.022,0.023,0.028c0.005,0.006,0.018,0.022,0.023,0.028
	c0.505,0.617,0.995,1.194,1.47,1.743c4.683,5.438,8.356,9.459,10.353,15.806c0.582,1.146,1.239,2.459,1.683,3.706
	c2.26,5.452,6.01,8.814,6.988,15.901c0.722,2.847,1.706,4.304,2.894,4.917c0.235,0.121,0.49,0.183,0.744,0.231
	c2.54-0.425,5.592-2.239,8.379-2.297c1.439-0.202,2.77-0.12,4.003,0.1c2.984,0.532,5.295,2.321,7.412,5.019
	c2.428,3.047,4.339,6.833,6.614,10.506c1.369,2.237,2.835,4.438,4.505,6.117c1.671,1.462,3.424,2.877,5.309,4.2
	c6.709,4.141,10.039,7.967,11.822,11.882c2.774,6.12,1.29,11.785,3.788,17.4c0.025,0.044,0.116,0.152,0.141,0.197
	c0.075,0.132,0.315,0.44,0.398,0.574c1.139,1.599,2.623,3.284,4.496,5.079c3.685,3.843,7.775,7.584,11.5,12.034
	c0.019,0.019,0.066,0.081,0.085,0.1c0.019,0.019,0.065,0.081,0.084,0.1c0.077,0.079,0.272,0.339,0.349,0.418
	c2.246,2.649,4.609,5.693,6.649,9.157c3.08,5.422,8.147,14.889,7.589,22.763c-0.15,3.712-1.555,6.836-4.978,8.588
	c-2.377,1.453-5.552,2.585-8.675,3.02c-1.068,0.118-2.109,0.153-3.085,0.069c-4.423-0.538-8.013-2.332-11.224-4.676
	c-2.343-1.653-4.504-3.596-6.692-5.56c-0.034-0.046-0.143-0.112-0.178-0.157c-0.035-0.045-0.143-0.113-0.178-0.158
	c-2.172-1.897-4.346-3.775-6.736-5.38c-1.014-0.577-1.797-0.915-2.431-1.054c-1.791-0.394-2.157,1.031-3.019,2.447
	c-0.298,0.384-0.637,0.73-1.015,1.039c-3.387,4.612-9.919,6.591-16.836,6.591c-6.518,0-13.235-1.756-17.578-4.59
	c-5.348-3.744-10.001-5.374-14.273-6.559c-0.196-0.058-0.38-0.102-0.554-0.135c-0.461-0.018-0.95-0.026-1.475-0.026
	c-0.385,0-0.771,0.007-1.159,0.015c-0.092,0.002-0.184,0.004-0.277,0.006c-0.643,0.057-1.327,0.135-2.013,0.2
	c-0.269,0.205-0.611,0.449-1.019,0.63c-2.13,1.679-5.979,4.291-7.531,6.32c-3.023,3.19-5.842,7.958-7.895,12.326
	c-1.709,3.637-2.335,7.337-2.846,11.015c-0.103,0.709-0.199,1.406-0.29,2.092c-0.06,0.397-0.128,0.789-0.202,1.177
	c-0.016,2.608-0.452,5.294-1.45,7.938c-0.008,0.028-0.037,0.091-0.044,0.118c-0.008,0.028-0.037,0.09-0.045,0.118
	c-0.992,2.678-2.653,5.429-5.138,7.987c-1.971,2.082-5.024,2.909-6.919,5.337c-1.666,2.203-1.76,4.682-3.872,6.817
	c-2.501,2.571-6.502,3.803-10.762,4.203c-1.442,0.138-2.89,0.178-4.285,0.145c-0.421-0.01-0.837-0.026-1.246-0.048
	c-0.246-0.008-0.818-0.053-1.057-0.069c-0.239-0.016-0.799-0.098-1.03-0.121c-12.865-2.495-13.888-14.505-21.486-22.067
	c-0.846-0.994-1.788-2.033-2.688-2.667c-0.407-0.277-0.981-0.62-1.795-0.971c-2.21-0.919-4.559-1.791-7.101-2.59
	c-18.553-5.108-25.479-13.171-32.248-29.789c-0.235-0.338-0.498-0.692-0.734-1.035c-8.206-10.818-18.047-7.32-27.725-30.493
	c-0.486-1.053-0.981-2.106-1.481-3.165c-1.189-2.424-2.45-4.831-3.713-7.285c-1.986-3.859-3.976-7.837-5.653-12.122
	c-0.412-1.069-0.78-2.097-1.13-3.081c-2.399-3.924-4.555-6.568-10.585-7.473c-0.048-0.007-0.096-0.014-0.143-0.022
	c-0.2-0.034-0.436-0.077-0.637-0.11c-4.568-0.757-7.827-1.89-11.01-6.139c-0.041-0.053-0.135-0.183-0.176-0.238
	c-0.041-0.055-0.133-0.187-0.174-0.244c-3.871-5.699-7.379-13.385-7.168-21.517c0.185-3.069,2.186-3.726,2.81-5.797
	c0.326-0.969,0.51-1.926,0.595-2.874c0.001-0.013,0.004-0.046,0.005-0.058c0.001-0.013,0.004-0.046,0.005-0.058
	c0.172-2.207-0.258-4.443-0.569-6.672c-1.352-3.072-2.763-6.299-1.826-9.779c1.036-3.276,2.412-5.037,3.951-6.386
	c0.01-0.004,0.027-0.023,0.038-0.026c0.01-0.003,0.027-0.023,0.038-0.026c1.978-1.395,3.961-1.846,5.277-4.484
	c0.8-1.531,1.438-3.095,1.957-4.666c-0.14-1.411-0.383-2.844-0.648-4.169c-0.487-2.253-1.164-4.583-1.881-6.904
	c-0.036-0.123-0.136-0.433-0.174-0.556c-0.029-0.096-0.1-0.341-0.13-0.436c-0.496-1.55-1.378-3.685-2.126-5.481
	c-1.684-4.083-3.542-8.168-4.825-11.867c-2.102-6.708-6.627-16.395-7.23-25.536c-0.747-7.826,1.144-14.674,9.066-17.856
	C59.796,68.156,60.244,68.056,60.694,67.995"/>
<path class="st1" d="M58.222,65.046c0.823,0,2.484-0.137,3.109,0.181c0.818,0.416,2.674,0.822,3.751,1.038
	c0.276,0.069,0.628,0.065,0.904,0.065c1.163-0.03,2.535-0.326,4.028-0.572l0,0c1.421-0.255,2.818-0.479,4.213-0.418
	c0.41,0.018,0.783,0.073,1.188,0.131c1.888,0.335,3.718,1.191,5.39,2.147c1.11,0.414,2.234,0.873,3.341,1.29
	c1.037,0.454,2.05,0.776,3.049,1.008c1.493,0.312,2.787,0.493,3.773,0.525c0.02,0,0.073,0.004,0.093,0.004
	c0.14-0.001,0.497,0.021,0.636,0.012c0.139-0.009,0.493,0.018,0.631,0.003c2.675-0.014,5.245-0.387,8.119-0.013
	c0.823,0.107,1.633,0.274,2.503,0.504c1.937,0.526,3.518,1.482,4.976,2.464c2.125,0.88,4.251,1.865,7.102,1.865
	c0.692,0,1.38-0.063,2.136-0.155c1.716-0.25,3.317-0.366,5.059-0.277c0.906,0.053,1.801,0.152,2.786,0.329
	c3.239,0.895,6.902,1.571,10.237,2.072c1.444-0.042,2.907-0.088,4.34-0.114c2.109-0.04,4.048-0.046,5.668,0.022
	c0.432,0.018,0.829,0.034,1.191,0.067c0.165,0.01,0.542,0.061,0.671,0.09c0.311,0.035,0.937,0.122,1.214,0.122
	c0.3,0,1.029,0.107,1.321,0.068c1.136-0.113,2.518-0.4,4.403-0.775c1.868-0.474,3.753-1.031,5.712-1.318
	c0.761-0.109,1.529-0.18,2.309-0.191c0.119-0.003,0.927-0.006,1.042-0.008c0.563-0.003,1.113-0.002,1.65,0.006
	c0.522,0.008,1.065,0.021,1.625,0.044c5.138-0.261,10.005-0.08,15.798,2.784c0.022,0.018,0.087,0.037,0.108,0.055
	c0.022,0.019,0.087,0.037,0.108,0.056c0.189,0.164,0.756,0.334,0.948,0.51c12.366,7.056,16.699,1.113,30.387,14.103
	c0.233,0.209,0.446,0.398,0.64,0.571c3.853,2.094,7.809,4.982,12.41,9.378c5.595,5.848,6.932,6.279,10.246,14.729
	c1.442,2.494,3.243,4.888,5.224,7.3c0.005,0.006,0.019,0.023,0.024,0.029c0.005,0.006,0.019,0.023,0.024,0.029
	c0.522,0.636,1.023,1.227,1.505,1.786c4.858,5.654,8.452,9.719,10.459,16.297c0.609,1.157,1.322,2.5,1.81,3.754
	c2.373,5.417,6.236,8.939,7.385,16.112c0.746,2.825,1.724,4.35,2.904,5.072c0.228,0.14,0.478,0.222,0.726,0.291
	c2.601-0.394,5.719-2.075,8.597-2.037c1.455-0.155,2.808-0.03,4.071,0.229c3.002,0.615,5.372,2.44,7.548,5.182
	c2.53,3.137,4.493,6.99,6.782,10.705c1.406,2.311,2.898,4.578,4.583,6.255c1.734,1.475,3.532,2.907,5.445,4.254
	c6.726,4.199,10.149,8.123,12.03,12.177c2.917,6.318,1.532,12.171,3.909,17.753c0.023,0.042,0.124,0.158,0.149,0.2
	c0.071,0.125,0.333,0.456,0.412,0.582c1.181,1.626,2.708,3.339,4.61,5.163c3.796,3.934,8.015,7.81,11.846,12.478
	c0.018,0.018,0.069,0.086,0.086,0.104c0.018,0.018,0.068,0.087,0.086,0.105c0.073,0.075,0.283,0.361,0.356,0.436
	c2.272,2.731,4.698,5.906,6.795,9.522c3.21,5.733,8.223,15.435,7.438,23.624c-0.245,3.81-1.746,7.028-5.209,8.895
	c-2.445,1.559-5.686,2.776-8.905,3.284c-1.078,0.138-2.133,0.195-3.127,0.136c-4.477-0.422-8.191-2.073-11.524-4.294
	c-2.442-1.566-4.701-3.434-6.971-5.35c-0.033-0.043-0.152-0.11-0.184-0.154c-0.033-0.043-0.152-0.112-0.184-0.155
	c-2.264-1.859-4.506-3.719-6.935-5.332c-1.015-0.577-1.809-0.93-2.46-1.094c-1.818-0.456-2.277,0.81-3.194,2.063
	c-0.323,0.328-0.683,0.619-1.078,0.876c-3.586,4.539-10.213,6.506-17.243,6.506c-6.604,0-13.393-1.736-17.891-4.555
	c-5.427-3.673-10.161-5.396-14.467-6.741c-0.198-0.066-0.384-0.116-0.556-0.154c-0.451-0.018-0.934-0.026-1.459-0.026
	c-0.392,0-0.784,0.008-1.178,0.016c-0.093,0.002-0.187,0.004-0.282,0.006c-0.644,0.065-1.336,0.152-2.028,0.229
	c-0.249,0.237-0.567,0.512-0.951,0.707c-1.979,1.864-5.621,4.61-7.121,6.794c-2.903,3.37-5.672,8.22-7.771,12.668
	c-1.738,3.685-2.484,7.416-3.153,11.107c-0.135,0.713-0.262,1.411-0.385,2.097c-0.08,0.398-0.166,0.79-0.259,1.177
	c-0.057,2.629-0.537,5.351-1.591,8.039c-0.007,0.026-0.039,0.094-0.047,0.12c-0.007,0.026-0.04,0.093-0.048,0.119
	c-1.03,2.684-2.739,5.472-5.29,8.069c-2.003,2.093-5.061,2.994-7.057,5.394c-1.743,2.17-2.022,4.59-4.238,6.666
	c-2.609,2.494-6.671,3.696-11.014,4.074c-1.467,0.131-2.938,0.165-4.356,0.126c-0.427-0.011-0.848-0.029-1.264-0.053
	c-0.233-0.008-0.847-0.058-1.073-0.073c-0.226-0.015-0.828-0.107-1.047-0.129c-13.364-2.591-14.781-14.855-22.195-22.445
	c-0.855-1.048-1.809-2.152-2.695-2.789c-0.396-0.273-0.983-0.626-1.845-0.988c-2.296-0.921-4.71-1.803-7.294-2.62
	c-18.932-5.311-26.111-13.756-33.012-30.667c-0.251-0.336-0.534-0.691-0.787-1.031c-8.349-10.565-18.327-7.692-28.05-30.871
	c-0.491-1.064-0.99-2.131-1.492-3.205c-1.198-2.449-2.473-4.885-3.755-7.373c-2.004-3.891-4.022-7.918-5.735-12.259
	c-0.418-1.076-0.794-2.115-1.153-3.113c-2.529-3.767-4.866-6.364-10.867-7.417c-0.048-0.008-0.096-0.017-0.143-0.026
	c-0.202-0.04-0.436-0.09-0.639-0.129c-4.532-0.875-7.83-2.131-11.034-6.419c-0.039-0.051-0.14-0.189-0.178-0.242
	c-0.039-0.052-0.138-0.194-0.176-0.248c-3.941-5.801-7.561-13.656-7.45-22.039c0.152-3.084,2.038-3.891,2.639-6.043
	c0.312-0.993,0.493-1.976,0.583-2.952c0.001-0.012,0.005-0.048,0.005-0.06s0.004-0.048,0.005-0.06
	c0.183-2.249-0.181-4.547-0.394-6.844c-1.352-3.128-2.74-6.451-1.832-10.047c0.994-3.291,2.34-5.16,3.881-6.647
	c0.01-0.003,0.027-0.025,0.037-0.029c0.01-0.003,0.027-0.025,0.037-0.028c1.95-1.511,3.921-2.109,5.275-4.759
	c0.839-1.563,1.532-3.148,2.122-4.728c-0.175-1.451-0.451-2.921-0.736-4.26c-0.531-2.306-1.243-4.69-1.981-7.063
	c-0.034-0.116-0.143-0.452-0.178-0.568c-0.028-0.091-0.104-0.355-0.132-0.446c-0.496-1.544-1.43-3.771-2.204-5.61
	c-1.727-4.142-3.635-8.32-4.972-12.156c-2.222-6.989-6.638-16.883-6.925-26.259c-0.492-7.957,1.722-14.873,9.787-18.132
	C57.303,65.226,57.761,65.117,58.222,65.046"/>
<path class="st1" d="M55.75,62.097c0.778,0,2.547-0.207,3.137,0.093c0.772,0.393,2.739,0.753,3.757,0.956
	c0.261,0.065,0.601,0.06,0.862,0.06c1.15-0.034,2.543-0.325,4.073-0.557l0,0c1.441-0.241,2.855-0.445,4.261-0.375
	c0.414,0.021,0.792,0.077,1.2,0.135c1.924,0.341,3.778,1.186,5.464,2.129c1.123,0.376,2.268,0.796,3.404,1.182
	c1.047,0.422,2.077,0.722,3.096,0.941c1.542,0.295,2.868,0.478,3.85,0.515c0.019,0,0.075,0.005,0.094,0.004
	c0.132-0.001,0.513,0.025,0.644,0.017c0.131-0.008,0.508,0.025,0.639,0.011c2.717,0.021,5.318-0.278,8.188,0.147
	c0.831,0.123,1.647,0.306,2.518,0.549c1.947,0.557,3.545,1.523,5.015,2.512c2.14,0.809,4.309,1.723,7.184,1.723
	c0.702,0,1.399-0.059,2.159-0.143c1.728-0.231,3.345-0.329,5.096-0.228c0.919,0.061,1.825,0.167,2.814,0.349
	c3.331,0.913,7.01,1.658,10.328,2.231c1.452-0.048,2.928-0.097,4.383-0.121c2.118-0.038,4.072-0.035,5.724,0.044
	c0.434,0.021,0.834,0.039,1.202,0.074c0.156,0.009,0.557,0.064,0.68,0.092c0.294,0.033,0.954,0.125,1.216,0.125
	c0.283,0,1.058,0.127,1.334,0.09c1.101-0.102,2.492-0.365,4.457-0.718c1.895-0.448,3.809-0.978,5.788-1.253
	c0.771-0.105,1.547-0.173,2.334-0.185c0.136-0.003,0.922-0.006,1.054-0.009c0.569-0.004,1.124-0.003,1.667,0.005
	c0.524,0.008,1.072,0.02,1.641,0.043c5.084-0.339,10.053-0.31,16.002,2.39c0.02,0.017,0.09,0.034,0.111,0.052
	c0.02,0.018,0.09,0.035,0.111,0.053c0.179,0.155,0.788,0.315,0.97,0.482c12.464,6.664,17.405,1.163,31.222,14.231
	c0.243,0.216,0.463,0.409,0.66,0.583c4.053,2.046,8.157,4.889,12.912,9.308c5.613,5.738,7.23,6.456,10.784,14.899
	c1.511,2.518,3.368,4.959,5.407,7.438c0.004,0.005,0.02,0.024,0.024,0.03c0.004,0.006,0.02,0.024,0.024,0.03
	c0.538,0.655,1.051,1.261,1.541,1.83c5.034,5.871,8.549,9.98,10.564,16.787c0.636,1.169,1.406,2.541,1.936,3.802
	c2.486,5.382,6.462,9.064,7.782,16.322c0.77,2.804,1.743,4.394,2.914,5.228c0.222,0.158,0.467,0.26,0.707,0.352
	c2.662-0.362,5.847-1.911,8.816-1.778c1.47-0.109,2.845,0.059,4.138,0.357c3.019,0.696,5.449,2.559,7.684,5.345
	c2.633,3.228,4.646,7.148,6.949,10.905c1.443,2.386,2.961,4.719,4.661,6.393c1.797,1.487,3.641,2.937,5.581,4.309
	c6.742,4.257,10.26,8.28,12.238,12.472c3.06,6.517,1.774,12.557,4.03,18.106c0.022,0.04,0.133,0.164,0.156,0.204
	c0.067,0.118,0.352,0.471,0.426,0.591c1.222,1.652,2.793,3.394,4.725,5.246c3.906,4.024,8.255,8.035,12.192,12.922
	c0.017,0.017,0.072,0.091,0.088,0.108c0.017,0.017,0.071,0.092,0.087,0.109c0.069,0.07,0.295,0.383,0.363,0.454
	c2.297,2.814,4.788,6.119,6.941,9.886c3.339,6.043,8.3,15.981,7.288,24.485c-0.34,3.908-1.936,7.219-5.439,9.203
	c-2.513,1.665-5.819,2.967-9.135,3.547c-1.088,0.158-2.156,0.237-3.169,0.204c-4.531-0.306-8.369-1.814-11.824-3.911
	c-2.541-1.479-4.899-3.273-7.25-5.14c-0.031-0.041-0.161-0.109-0.191-0.15s-0.16-0.111-0.191-0.151
	c-2.355-1.821-4.667-3.662-7.135-5.283c-1.016-0.577-1.82-0.945-2.489-1.133c-1.844-0.518-2.396,0.59-3.37,1.679
	c-0.347,0.272-0.729,0.509-1.142,0.712c-3.786,4.466-10.506,6.422-17.651,6.422c-6.69,0-13.551-1.717-18.205-4.52
	c-5.507-3.601-10.321-5.418-14.662-6.923c-0.201-0.074-0.387-0.13-0.559-0.172c-0.441-0.017-0.918-0.026-1.444-0.026
	c-0.398,0-0.796,0.008-1.198,0.016c-0.095,0.002-0.19,0.004-0.287,0.006c-0.646,0.072-1.346,0.169-2.042,0.257
	c-0.229,0.27-0.523,0.575-0.882,0.783c-1.828,2.05-5.263,4.928-6.711,7.269c-2.783,3.549-5.501,8.483-7.647,13.01
	c-1.767,3.734-2.634,7.495-3.461,11.2c-0.166,0.717-0.325,1.417-0.48,2.101c-0.099,0.399-0.205,0.791-0.316,1.176
	c-0.097,2.65-0.621,5.408-1.732,8.139c-0.007,0.025-0.042,0.097-0.049,0.121c-0.007,0.025-0.043,0.096-0.05,0.121
	c-1.068,2.69-2.825,5.514-5.442,8.151c-2.036,2.104-5.098,3.078-7.194,5.452c-1.821,2.137-2.283,4.498-4.603,6.514
	c-2.716,2.417-6.84,3.588-11.267,3.946c-1.492,0.123-2.986,0.152-4.427,0.107c-0.433-0.013-0.86-0.032-1.281-0.058
	c-0.22-0.008-0.876-0.062-1.09-0.076c-0.214-0.014-0.857-0.116-1.064-0.136c-13.862-2.688-15.674-15.206-22.903-22.823
	c-0.864-1.101-1.829-2.27-2.702-2.912c-0.385-0.269-0.984-0.631-1.895-1.005c-2.383-0.923-4.862-1.814-7.488-2.651
	c-19.312-5.513-26.743-14.34-33.777-31.544c-0.267-0.335-0.571-0.689-0.839-1.028c-8.493-10.312-18.607-8.064-28.374-31.25
	c-0.495-1.074-0.998-2.155-1.503-3.244c-1.207-2.473-2.497-4.939-3.797-7.462c-2.021-3.924-4.068-7.999-5.817-12.397
	c-0.424-1.083-0.808-2.132-1.175-3.144c-2.658-3.609-5.176-6.16-11.149-7.361c-0.048-0.01-0.095-0.019-0.143-0.03
	c-0.203-0.045-0.437-0.102-0.641-0.147c-4.496-0.991-7.834-2.371-11.059-6.698c-0.036-0.048-0.145-0.196-0.181-0.246
	c-0.036-0.049-0.142-0.201-0.178-0.252c-4.01-5.903-7.743-13.927-7.733-22.561c0.119-3.1,1.89-4.056,2.467-6.289
	c0.299-1.018,0.476-2.027,0.571-3.03c0.001-0.011,0.005-0.05,0.006-0.061c0.001-0.011,0.005-0.05,0.005-0.061
	c0.194-2.29-0.105-4.652-0.219-7.016c-1.351-3.185-2.717-6.604-1.838-10.315c0.952-3.307,2.267-5.283,3.811-6.908
	c0.009-0.003,0.027-0.027,0.037-0.031c0.009-0.003,0.027-0.027,0.037-0.03c1.923-1.626,3.881-2.371,5.273-5.034
	c0.877-1.596,1.626-3.201,2.286-4.79c-0.211-1.491-0.52-2.998-0.824-4.351c-0.574-2.358-1.323-4.797-2.081-7.223
	c-0.032-0.11-0.15-0.47-0.183-0.58c-0.026-0.086-0.107-0.37-0.134-0.456c-0.496-1.538-1.482-3.858-2.283-5.738
	c-1.77-4.201-3.729-8.473-5.119-12.446c-2.341-7.27-6.648-17.371-6.62-26.983c-0.237-8.089,2.301-15.073,10.508-18.408
	C54.81,62.297,55.278,62.179,55.75,62.097"/>
<path class="st1" d="M53.278,59.149c0.732,0,2.61-0.276,3.165,0.006c0.727,0.369,2.804,0.683,3.762,0.875
	c0.246,0.061,0.574,0.056,0.82,0.056c1.138-0.038,2.552-0.324,4.119-0.542l0,0c1.462-0.227,2.893-0.411,4.309-0.333
	c0.418,0.024,0.801,0.081,1.212,0.14c1.96,0.347,3.837,1.182,5.537,2.111c1.137,0.338,2.302,0.72,3.467,1.074
	c1.058,0.39,2.104,0.669,3.144,0.875c1.591,0.278,2.95,0.464,3.926,0.505c0.018,0,0.077,0.005,0.095,0.005
	c0.125-0.001,0.529,0.029,0.652,0.022c0.123-0.008,0.524,0.031,0.647,0.018c2.759,0.056,5.392-0.169,8.256,0.306
	c0.839,0.139,1.661,0.339,2.532,0.593c1.956,0.587,3.572,1.565,5.054,2.56c2.156,0.739,4.366,1.58,7.265,1.58
	c0.711,0,1.418-0.054,2.183-0.131c1.74-0.212,3.374-0.292,5.133-0.178c0.932,0.068,1.849,0.182,2.841,0.368
	c3.423,0.932,7.119,1.745,10.419,2.39c1.459-0.054,2.95-0.106,4.425-0.128c2.126-0.036,4.095-0.024,5.781,0.066
	c0.435,0.023,0.84,0.044,1.213,0.081c0.147,0.009,0.573,0.068,0.688,0.093c0.276,0.031,0.972,0.129,1.217,0.129
	c0.267,0,1.087,0.146,1.347,0.111c1.066-0.092,2.466-0.329,4.511-0.662c1.922-0.421,3.865-0.925,5.864-1.187
	c0.781-0.1,1.566-0.166,2.358-0.179c0.153-0.004,0.918-0.007,1.066-0.01c0.575-0.004,1.136-0.004,1.683,0.003
	c0.525,0.007,1.079,0.018,1.658,0.042c5.03-0.417,10.101-0.541,16.206,1.995c0.019,0.016,0.094,0.032,0.113,0.049
	c0.019,0.017,0.094,0.033,0.114,0.05c0.168,0.146,0.821,0.297,0.992,0.453c12.562,6.272,18.111,1.212,32.057,14.36
	c0.253,0.223,0.479,0.42,0.68,0.595c4.253,1.997,8.506,4.796,13.415,9.237c5.63,5.627,7.527,6.632,11.322,15.069
	c1.579,2.541,3.493,5.029,5.59,7.576c0.004,0.005,0.021,0.025,0.025,0.03c0.004,0.005,0.021,0.025,0.025,0.031
	c0.554,0.675,1.078,1.294,1.576,1.873c5.21,6.087,8.645,10.24,10.669,17.278c0.663,1.18,1.489,2.583,2.063,3.85
	c2.599,5.347,6.688,9.189,8.179,16.532c0.795,2.782,1.763,4.436,2.925,5.383c0.215,0.176,0.455,0.298,0.689,0.412
	c2.723-0.331,5.975-1.748,9.035-1.518c1.486-0.062,2.882,0.148,4.205,0.486c3.037,0.776,5.526,2.678,7.82,5.507
	c2.736,3.318,4.8,7.306,7.116,11.104c1.48,2.46,3.025,4.86,4.739,6.531c1.86,1.5,3.75,2.967,5.717,4.364
	c6.759,4.315,10.37,8.436,12.445,12.767c3.203,6.715,2.016,12.942,4.151,18.459c0.021,0.037,0.141,0.17,0.163,0.208
	c0.063,0.111,0.371,0.486,0.44,0.599c1.264,1.679,2.877,3.448,4.84,5.33c4.016,4.115,8.495,8.261,12.538,13.366
	c0.016,0.016,0.075,0.097,0.09,0.113c0.016,0.016,0.074,0.097,0.089,0.113c0.065,0.066,0.306,0.405,0.371,0.472
	c2.323,2.896,4.878,6.331,7.087,10.251c3.469,6.353,8.377,16.526,7.138,25.347c-0.435,4.005-2.127,7.411-5.67,9.511
	c-2.581,1.772-5.952,3.157-9.365,3.81c-1.098,0.177-2.18,0.278-3.212,0.271c-4.585-0.19-8.547-1.555-12.123-3.529
	c-2.639-1.392-5.096-3.111-7.529-4.929c-0.029-0.038-0.169-0.108-0.198-0.146c-0.029-0.038-0.169-0.11-0.198-0.148
	c-2.446-1.783-4.827-3.606-7.334-5.234c-1.017-0.577-1.832-0.961-2.518-1.173c-1.871-0.579-2.516,0.37-3.545,1.295
	c-0.372,0.216-0.775,0.398-1.205,0.549c-3.986,4.393-10.8,6.337-18.059,6.337c-6.776,0-13.708-1.697-18.518-4.485
	c-5.587-3.53-10.481-5.44-14.856-7.105c-0.203-0.082-0.39-0.144-0.561-0.19c-0.43-0.017-0.901-0.025-1.428-0.025
	c-0.405,0-0.809,0.008-1.217,0.017c-0.096,0.002-0.193,0.004-0.291,0.006c-0.648,0.079-1.356,0.186-2.057,0.285
	c-0.21,0.303-0.479,0.639-0.813,0.859c-1.677,2.236-4.905,5.247-6.301,7.743c-2.663,3.729-5.331,8.745-7.522,13.353
	c-1.797,3.782-2.783,7.575-3.769,11.292c-0.197,0.721-0.388,1.422-0.575,2.105c-0.119,0.399-0.243,0.792-0.372,1.176
	c-0.138,2.671-0.706,5.465-1.873,8.24c-0.006,0.023-0.045,0.1-0.051,0.123c-0.007,0.023-0.046,0.099-0.052,0.122
	c-1.105,2.696-2.911,5.556-5.595,8.233c-2.068,2.115-5.135,3.163-7.331,5.509c-1.899,2.105-2.545,4.407-4.968,6.362
	c-2.824,2.34-7.009,3.48-11.52,3.817c-1.516,0.116-3.034,0.139-4.498,0.089c-0.439-0.015-0.872-0.035-1.299-0.063
	c-0.207-0.007-0.905-0.067-1.107-0.08c-0.201-0.013-0.887-0.124-1.081-0.144c-14.361-2.785-16.567-15.556-23.612-23.201
	c-0.873-1.155-1.849-2.389-2.71-3.034c-0.374-0.266-0.986-0.637-1.945-1.022c-2.469-0.924-5.013-1.825-7.682-2.681
	c-19.692-5.716-27.374-14.925-34.542-32.421c-0.282-0.333-0.607-0.688-0.891-1.024c-8.637-10.059-18.887-8.436-28.699-31.628
	c-0.5-1.085-1.006-2.179-1.514-3.284c-1.217-2.498-2.521-4.992-3.839-7.551c-2.039-3.957-4.114-8.081-5.899-12.534
	c-0.43-1.09-0.823-2.149-1.198-3.175c-2.787-3.452-5.487-5.956-11.431-7.305c-0.048-0.011-0.095-0.022-0.143-0.034
	c-0.205-0.051-0.438-0.114-0.643-0.165c-4.46-1.106-7.837-2.611-11.083-6.978c-0.034-0.045-0.149-0.203-0.184-0.25
	c-0.034-0.046-0.146-0.208-0.181-0.256c-4.079-6.005-7.925-14.198-8.016-23.083c0.086-3.115,1.743-4.221,2.295-6.536
	c0.285-1.042,0.46-2.077,0.559-3.108c0.001-0.011,0.005-0.052,0.006-0.062c0.001-0.011,0.005-0.052,0.006-0.062
	c0.206-2.331-0.029-4.756-0.044-7.188c-1.35-3.241-2.694-6.756-1.844-10.582c0.91-3.322,2.194-5.405,3.74-7.17
	c0.009-0.003,0.027-0.03,0.036-0.033c0.009-0.003,0.027-0.03,0.036-0.032c1.895-1.742,3.841-2.634,5.272-5.309
	c0.915-1.629,1.72-3.254,2.451-4.852c-0.247-1.531-0.588-3.074-0.912-4.442c-0.618-2.411-1.402-4.903-2.182-7.382
	c-0.03-0.103-0.156-0.489-0.188-0.592c-0.025-0.081-0.111-0.385-0.136-0.466c-0.497-1.532-1.534-3.945-2.361-5.866
	c-1.813-4.26-3.823-8.626-5.266-12.736c-2.461-7.55-6.659-17.859-6.314-27.707c0.018-8.221,2.879-15.273,11.228-18.684
	C52.316,59.367,52.796,59.24,53.278,59.149"/>
<path class="st1" d="M50.807,56.2c0.686,0,2.672-0.346,3.193-0.082c0.681,0.346,2.87,0.614,3.768,0.793
	c0.23,0.058,0.547,0.051,0.778,0.051c1.125-0.042,2.56-0.322,4.165-0.527l0,0c1.483-0.212,2.93-0.378,4.357-0.291
	c0.421,0.026,0.81,0.084,1.224,0.145c1.997,0.354,3.897,1.178,5.61,2.094c1.15,0.3,2.336,0.643,3.53,0.965
	c1.069,0.358,2.131,0.615,3.191,0.809c1.64,0.26,3.031,0.45,4.003,0.496c0.017,0,0.08,0.006,0.097,0.006
	c0.117-0.001,0.544,0.034,0.66,0.026c0.115-0.007,0.539,0.038,0.654,0.026c2.8,0.09,5.465-0.059,8.325,0.466
	c0.847,0.155,1.675,0.371,2.547,0.638c1.966,0.618,3.6,1.606,5.093,2.608c2.172,0.669,4.424,1.437,7.347,1.437
	c0.721,0,1.437-0.049,2.207-0.119c1.752-0.193,3.402-0.255,5.17-0.128c0.945,0.076,1.873,0.197,2.869,0.388
	c3.516,0.95,7.227,1.833,10.51,2.549c1.467-0.06,2.971-0.114,4.468-0.135c2.135-0.034,4.118-0.013,5.838,0.087
	c0.437,0.025,0.845,0.048,1.224,0.088c0.138,0.008,0.588,0.071,0.696,0.095c0.259,0.029,0.989,0.133,1.219,0.133
	c0.25,0,1.116,0.166,1.359,0.133c1.031-0.082,2.44-0.293,4.565-0.605c1.949-0.395,3.92-0.871,5.941-1.122
	c0.791-0.096,1.584-0.159,2.383-0.173c0.17-0.004,0.913-0.008,1.078-0.011c0.58-0.005,1.147-0.005,1.7,0.002
	c0.526,0.007,1.086,0.017,1.674,0.04c4.975-0.495,10.149-0.771,16.41,1.6c0.018,0.015,0.098,0.03,0.116,0.046
	c0.018,0.016,0.098,0.031,0.116,0.047c0.158,0.136,0.854,0.278,1.014,0.425c12.66,5.88,18.816,1.262,32.891,14.488
	c0.263,0.23,0.496,0.43,0.701,0.607c4.452,1.949,8.855,4.702,13.917,9.166c5.648,5.516,7.825,6.809,11.86,15.24
	c1.647,2.564,3.619,5.1,5.772,7.714c0.004,0.005,0.022,0.026,0.026,0.031c0.004,0.005,0.022,0.026,0.026,0.031
	c0.57,0.694,1.106,1.328,1.612,1.917c5.386,6.304,8.741,10.5,10.774,17.769c0.69,1.192,1.572,2.624,2.189,3.897
	c2.711,5.311,6.913,9.314,8.575,16.742c0.819,2.761,1.784,4.476,2.935,5.539c0.209,0.193,0.444,0.336,0.671,0.472
	c2.784-0.3,6.103-1.584,9.254-1.258c1.502-0.016,2.92,0.236,4.272,0.615c3.055,0.854,5.603,2.797,7.957,5.67
	c2.839,3.409,4.953,7.463,7.283,11.304c1.517,2.534,3.088,5,4.817,6.669c1.923,1.513,3.859,2.997,5.853,4.418
	c6.776,4.374,10.481,8.593,12.653,13.062c3.345,6.914,2.257,13.328,4.272,18.812c0.019,0.035,0.15,0.176,0.17,0.211
	c0.059,0.104,0.389,0.501,0.455,0.607c1.305,1.706,2.962,3.503,4.954,5.414c4.127,4.205,8.735,8.486,12.884,13.81
	c0.015,0.015,0.077,0.102,0.092,0.117c0.015,0.015,0.076,0.103,0.091,0.117c0.061,0.062,0.318,0.427,0.378,0.49
	c2.349,2.979,4.967,6.544,7.233,10.615c3.599,6.663,8.454,17.072,6.988,26.208c-0.53,4.103-2.318,7.602-5.901,9.818
	c-2.649,1.878-6.086,3.348-9.594,4.074c-1.108,0.197-2.204,0.32-3.254,0.338c-4.639-0.074-8.725-1.296-12.423-3.146
	c-2.738-1.305-5.294-2.95-7.808-4.719c-0.027-0.036-0.178-0.106-0.205-0.142s-0.178-0.109-0.205-0.145
	c-2.537-1.745-4.987-3.549-7.534-5.186c-1.018-0.577-1.843-0.975-2.547-1.213c-1.897-0.64-2.635,0.15-3.72,0.911
	c-0.397,0.16-0.821,0.288-1.269,0.385c-4.185,4.321-11.094,6.252-18.466,6.252c-6.863,0-13.866-1.678-18.832-4.45
	c-5.667-3.458-10.641-5.462-15.05-7.287c-0.206-0.09-0.394-0.158-0.564-0.209c-0.42-0.017-0.885-0.025-1.413-0.025
	c-0.411,0-0.822,0.009-1.236,0.017c-0.098,0.002-0.196,0.004-0.296,0.006c-0.65,0.086-1.365,0.204-2.072,0.313
	c-0.19,0.336-0.435,0.702-0.745,0.936c-1.525,2.421-4.547,5.565-5.891,8.217c-2.543,3.909-5.161,9.008-7.398,13.695
	c-1.826,3.83-2.933,7.654-4.077,11.384c-0.228,0.724-0.451,1.427-0.67,2.11c-0.138,0.4-0.281,0.792-0.429,1.176
	c-0.179,2.692-0.791,5.522-2.014,8.34c-0.006,0.022-0.047,0.103-0.054,0.125c-0.006,0.022-0.048,0.102-0.055,0.124
	c-1.143,2.702-2.997,5.599-5.747,8.316c-2.101,2.126-5.173,3.248-7.468,5.567c-1.976,2.072-2.806,4.315-5.334,6.21
	c-2.931,2.263-7.177,3.373-11.773,3.689c-1.541,0.109-3.082,0.126-4.569,0.07c-0.445-0.016-0.884-0.039-1.317-0.067
	c-0.194-0.007-0.935-0.071-1.123-0.084s-0.916-0.133-1.098-0.151c-14.86-2.882-17.46-15.907-24.32-23.58
	c-0.882-1.208-1.869-2.508-2.717-3.156c-0.363-0.262-0.988-0.642-1.996-1.038c-2.555-0.926-5.164-1.836-7.875-2.712
	c-20.071-5.918-28.006-15.509-35.306-33.299c-0.298-0.331-0.643-0.686-0.944-1.02c-8.78-9.806-19.166-8.808-29.024-32.006
	c-0.504-1.096-1.014-2.203-1.526-3.323c-1.226-2.523-2.544-5.046-3.882-7.64c-2.056-3.99-4.161-8.162-5.982-12.672
	c-0.437-1.096-0.837-2.166-1.22-3.206c-2.916-3.294-5.797-5.754-11.713-7.249c-0.048-0.012-0.095-0.024-0.143-0.037
	c-0.206-0.057-0.438-0.127-0.645-0.184c-4.424-1.218-7.841-2.852-11.108-7.257c-0.032-0.042-0.154-0.21-0.186-0.253
	c-0.032-0.043-0.151-0.215-0.183-0.26c-4.148-6.107-8.106-14.469-8.298-23.605c0.053-3.131,1.595-4.386,2.124-6.782
	c0.272-1.066,0.443-2.127,0.547-3.185c0.001-0.01,0.006-0.054,0.006-0.064c0.001-0.01,0.006-0.054,0.006-0.064
	c0.217-2.372,0.048-4.86,0.131-7.36c-1.35-3.298-2.672-6.909-1.851-10.85c0.869-3.337,2.121-5.528,3.67-7.431
	c0.008-0.003,0.027-0.032,0.035-0.035c0.008-0.003,0.027-0.032,0.035-0.035c1.867-1.858,3.801-2.896,5.27-5.584
	c0.954-1.662,1.814-3.307,2.615-4.915c-0.283-1.571-0.656-3.151-1.001-4.532c-0.661-2.463-1.482-5.01-2.282-7.541
	c-0.029-0.097-0.163-0.507-0.192-0.604c-0.023-0.076-0.115-0.4-0.138-0.475c-0.497-1.526-1.586-4.031-2.439-5.995
	c-1.857-4.319-3.917-8.778-5.413-13.025c-2.581-7.831-6.67-18.347-6.009-28.43c0.273-8.352,3.457-15.472,11.949-18.96
	C49.823,56.437,50.313,56.301,50.807,56.2"/>
</svg>
