<?xml version="1.0" encoding="utf-8"?>
<!-- Generator: Adobe Illustrator 25.0.0, SVG Export Plug-In . SVG Version: 6.00 Build 0)  -->
<!DOCTYPE svg PUBLIC "-//W3C//DTD SVG 1.1//EN" "http://www.w3.org/Graphics/SVG/1.1/DTD/svg11.dtd" [
	<!ENTITY ns_extend "http://ns.adobe.com/Extensibility/1.0/">
	<!ENTITY ns_ai "http://ns.adobe.com/AdobeIllustrator/10.0/">
	<!ENTITY ns_graphs "http://ns.adobe.com/Graphs/1.0/">
	<!ENTITY ns_vars "http://ns.adobe.com/Variables/1.0/">
	<!ENTITY ns_imrep "http://ns.adobe.com/ImageReplacement/1.0/">
	<!ENTITY ns_sfw "http://ns.adobe.com/SaveForWeb/1.0/">
	<!ENTITY ns_custom "http://ns.adobe.com/GenericCustomNamespace/1.0/">
	<!ENTITY ns_adobe_xpath "http://ns.adobe.com/XPath/1.0/">
]>
<svg version="1.1" id="Livello_1" xmlns:x="&ns_extend;" xmlns:i="&ns_ai;" xmlns:graph="&ns_graphs;"
	 xmlns="http://www.w3.org/2000/svg" xmlns:xlink="http://www.w3.org/1999/xlink" x="0px" y="0px" viewBox="0 0 400 400"
	 style="enable-background:new 0 0 400 400;" xml:space="preserve">
<style type="text/css">
	.st0{opacity:0.45;fill:#FFFFFF;}
	.st1{fill:none;stroke:#DC4B33;stroke-width:0.9;stroke-miterlimit:10;}
</style>
<metadata>
	<sfw  xmlns="&ns_sfw;">
		<slices></slices>
		<sliceSourceBounds  bottomLeftOrigin="true" height="359.943" width="317.377" x="37.621" y="22.808"></sliceSourceBounds>
	</sfw>
</metadata>
<path class="st0" d="M186.991,17.708c0.412,0,3.459-0.042,3.753,0.048l0,0c0.122,0.037,1.185,0.316,1.298,0.362
	c2.126,0.34,4.042,0.875,6.013,1.389c1.143,0.301,2.233,0.569,3.247,0.821c0.821,0.204,1.588,0.404,2.302,0.58
	c3.436-0.676,7.653-1.784,12.355-1.784c5.696,0,11.045,1.519,15.768,4.831c3.704,2.568,6.689,5.858,9.299,9.741
	c0.003,0.009,0.091,0.132,0.094,0.14c0.003,0.009,0.09,0.133,0.093,0.142c1.115,1.7,2.044,3.375,2.874,4.949
	c2.084,0.687,4.456,1.586,6.992,2.846c3.477,1.74,7.148,3.803,10.384,6.948c1.225,0.263,2.532,0.59,3.906,1.012
	c3.887,1.172,7.308,2.976,10.004,5.68c5.548,5.877,8.572,11.218,9.923,17.155c3.498,1.049,6.931,2.609,10.552,5.048
	c0.015,0.006,0.087,0.055,0.102,0.061c0.015,0.006,0.086,0.056,0.1,0.062c7.903,5.142,5.996,13.804,8.95,18.987
	c0.561,0.97,1.104,1.818,1.632,2.573c0.673,0.461,1.404,0.922,2.183,1.372c0.294,0.17,0.599,0.332,0.906,0.499
	c1.943,1.095,3.827,1.959,5.573,3.151c1.673,1.142,3.178,2.524,4.626,4.271c2.3,2.752,2.915,4.96,4.091,7.985
	c1.269,3.302,2.594,5.919,3.858,8.861c1.836,4.24,2.422,8.098,2.597,12.253c0.089,0.526,0.237,1.272,0.35,1.91
	c0.118,0.669,0.245,1.405,0.372,2.206c0.631,4.802,2.735,10.047,1.015,16.36c1.061,5.013,3.452,8.393,8.775,12.534
	c5.249,4.476,8.547,10.841,10.864,18.47c2.197,7.289,3.568,14.012,2.085,21.867c-0.863,4.758-2.871,9.669-4.51,14.997
	c-0.72,2.484-1.188,4.748-1.704,7.034c0.003,0.005-0.014,0.047-0.011,0.052c0.003,0.005-0.014,0.047-0.011,0.052
	c-0.263,1.499-0.489,2.909-0.769,4.337c0,0.001,0.004,0.009,0.005,0.01c0.002,0.004,0.017,0.037,0.018,0.04
	c2.486,5.448,4.114,13.73,1.986,19.657c-0.218,0.632-0.487,1.206-0.75,1.783c-1.646,3.616-4.029,6.608-7.258,9.545
	c-1.929,1.567-3.966,3.089-6.062,4.659c-1.605,1.202-3.194,2.535-4.532,4.319c-2.766,3.039-3.932,5.864-7.571,8.708
	c-0.761,0.498-1.583,0.977-2.485,1.439c-1.959,1.045-4.245,1.504-6.309,2.264c-0.985,0.42-1.823,0.702-2.58,0.912
	c-0.034,0.1-0.067,0.199-0.099,0.297c0.183,1.665,0.47,3.174,0.523,4.84c0.06,3.734-0.605,7.184-1.128,10.07
	c0.6,2.257,1.423,4.902,2.469,7.872c1.709,4.909,3.834,9.813,3.492,16.662c-0.557,11.214-6.169,19.385-14.468,24.194
	c-1.24,0.718-2.538,1.381-3.91,1.95c-2.303,0.877-4.18,1.199-6.64,1.825c-0.45,0.115-0.903,0.245-1.377,0.367
	c-2.863,0.748-5.718,1.563-8.611,2.193c-1.81,2.264-3.713,4.407-5.742,6.245c-6.528,6.13-14.812,9.276-23.877,9.376
	c-0.627,0.008-1.257,0-1.888-0.022c-12.289-0.43-25.315-6.394-35.642-15.876c-0.005-0.005-0.042-0.038-0.047-0.043
	s-0.042-0.038-0.047-0.043c-9.055-8.401-15.407-18.313-21.621-27.097c-0.711-1.008-1.423-2.005-2.136-2.986
	c-1.422,0.436-2.927,0.812-4.512,1.128c-4.144,0.818-8.608,0.805-14.065,1.655c-0.157,0.025-0.314,0.049-0.472,0.073
	c-3.445,0.532-6.165,1.567-8.732,2.572c-2.252,0.83-4.343,1.614-6.591,2.074c-3.915,0.907-8.553,0.595-13.003-1.096
	c-3.044-1.169-5.982-2.957-8.552-5.417c-3.022-2.861-5.101-5.639-6.894-7.911c-3.729-1.254-7.204-2.585-11.375-3.571
	c-10.718-2.934-15.23-10.06-20.446-15.151c-1.253-1.348-2.311-2.452-3.348-3.26c-1.075-0.839-2.471-1.817-3.932-2.841
	c-6.221-4.362-14.741-10.377-19.414-20.404c-1.442-3.171-2.337-6.687-3.104-10.484c-0.175-0.869-0.33-1.714-0.481-2.529
	c-0.552-0.395-1.137-0.807-1.754-1.24c-0.892-0.639-1.83-1.297-2.798-1.989c-5.812-4.199-11.425-8.534-15.484-14.294
	c-3.184-4.434-5.384-9.708-6.572-15.491c-2.117-10.284-0.939-21.578,3.045-31.128c0.002-0.005,0.018-0.043,0.02-0.048
	c0.002-0.005,0.018-0.043,0.02-0.048c3.815-9.006,10.651-13.313,14.587-18.265c0.436-0.482,0.85-0.943,1.238-1.386
	c0.055-0.062,0.111-0.125,0.169-0.189c0.22-0.708,0.44-1.443,0.662-2.192c1.656-5.568,3.486-12.113,7.625-18.309
	c0.389-0.664,1.394-1.796,1.946-2.685c1.298-2.118,3.002-4.141,4.934-6.043c0.108-0.084,0.879-0.881,0.988-0.96
	c0.865-1.016,1.762-1.966,2.651-2.853c3.407-3.374,6.844-6.388,10.492-8.724c1.662-1.062,3.253-1.905,4.697-2.74
	c0.004-0.002,0.04-0.024,0.044-0.026c0.004-0.002,0.04-0.023,0.044-0.026c0.795-0.449,1.808-1.213,2.787-2.14
	c0.342-0.327,0.688-0.683,1.039-1.07c-0.005-0.543-0.011-1.1-0.019-1.673c-0.089-4.358-0.667-8.167-0.34-11.821
	c0.486-5.054,2.269-9.086,4.063-12.579c0.018-0.377,0.041-0.751,0.069-1.123c0.404-4.984,0.633-8.441,0.753-12.657
	c0.129-2.18,0.418-4.076,0.735-5.797c-0.078-0.859-0.215-1.96-0.304-2.895c-0.098-0.95-0.189-1.916-0.267-2.896
	c-0.007-0.192-0.039-0.467-0.082-0.777c-0.054-0.494-0.139-1.06-0.211-1.551c-0.461-3.634-1.745-8.247-2.312-13.51
	c-0.824-7.435-1.732-17.432,6.581-23.165c0.705-0.605,1.533-1.263,2.508-1.932c3.685-2.044,6.939-2.862,12.607-3.887
	c0.785-0.104,1.593-0.243,2.425-0.397c2.735-0.498,5.64-1.277,8.771-1.811c1.619-0.299,3.254-0.534,4.984-0.623
	c0.651-0.053,1.297-0.078,1.936-0.07c2.147-0.024,4.23,0.287,6.242,0.841c1.588-0.626,3.151-1.082,4.677-1.436
	c0.391-0.122,1.14-0.232,1.519-0.333c2.297-0.48,4.472-0.748,6.436-0.982c0.458-0.055,0.896-0.106,1.315-0.154
	c0.489-0.417,0.986-0.854,1.497-1.306c0.007-0.004,0.068-0.062,0.075-0.066c0.007-0.004,0.068-0.062,0.075-0.065
	c3.597-3.149,6.754-6.166,10.662-8.577c4.784-2.929,9.789-4.406,15.645-4.701C186.426,17.726,186.699,17.716,186.991,17.708"/>
<g>
	<path class="st1" d="M189.853,69.606c3.648,0,4.944,1.632,8.256,2.544c0.816,0.24,1.68,0.336,2.544,0.336
		c3.744,0,7.68-1.776,11.328-1.776c2.496,0,4.848,0.864,6.96,3.696c2.88,3.984,1.776,8.256,6.48,11.424
		c4.08,2.784,10.416-0.336,13.008,3.552c6.192,9.216,5.472,4.944,12.816,7.584c8.784,3.168-3.216,16.272,1.248,20.592
		c1.68,1.632,3.504,2.112,5.328,2.112c2.592,0,5.328-0.96,8.16-0.96c2.016,0,4.032,0.48,6.096,2.112
		c3.408,2.736,2.784,4.032,4.224,7.68c1.296,3.36,3.504,4.944,6.048,7.584c4.8,4.944,5.52,8.64,5.568,15.36
		c0.048,6.288,3.936,10.464,0.384,15.888c-5.04,7.68-5.376,9.504,3.456,12.144c7.776,2.304,11.472,8.16,13.776,15.744
		c2.112,7.008,2.784,11.664-0.72,18.24c-2.016,3.744-5.76,7.44-6.336,11.712c-0.624,4.512,2.16,6.768,3.888,10.512
		c2.064,4.512,2.928,13.632-3.168,15.312c-0.624,0.192-1.296,0.24-2.016,0.24c-6.288,0-15.216-6.24-20.304-6.24
		c-1.872,0-3.264,0.864-3.792,3.168c-0.672,2.928,6.192,7.056,2.784,13.776c-1.056,2.064-2.832,2.928-3.696,5.04
		c-1.344,3.36,0.384,4.368,0.768,6.96c0.72,4.992-2.304,10.704-0.816,15.36c1.584,4.944,5.04,7.584,4.752,13.344
		c-0.336,6.768-4.944,9.408-10.896,9.408c-0.768,0-1.584-0.048-2.448-0.144c-1.776-0.192-2.016-1.44-3.6-1.44
		c-0.24,0-0.48,0.048-0.768,0.096c-3.12,0.576-4.704,4.32-6.192,6.864c-3.072,5.328-7.632,7.44-12.576,7.44
		c-6.624,0-13.968-3.792-19.248-8.64c-9.792-9.072-15.408-21.696-24.528-31.248c-3.264-3.456-6.336-7.68-11.52-7.68
		c-0.144,0-0.288,0-0.432,0c-6.768,0.288-6.096,7.344-8.208,12.48c-1.776,4.32-5.952,6.768-10.32,6.768
		c-2.928,0-5.904-1.056-8.304-3.36c-6.048-5.712-5.952-11.232-15.408-11.52c-10.128-0.288-11.136-6.816-18.384-12.624
		c-6.096-4.896-14.448-8.688-16.272-16.8c-0.72-3.216,0.384-6.768-1.248-9.792c-2.736-5.04-8.736-5.52-13.008-8.208
		c-8.688-5.472-9.552-18.864-5.808-27.84c2.832-6.72,9.888-7.728,12.384-14.592c2.256-6.24,3.12-13.056,7.824-18.144
		c0,0,1.632-1.296,1.92-1.92c1.488-3.12,5.04-5.52,7.776-7.2c3.312-2.016,5.856-4.56,9.216-6.288
		c3.648-1.872,6.48-1.584,7.008-6.192c0.384-3.456-2.016-6.192-2.64-9.36c-0.912-4.368,0.624-7.488,2.64-11.28
		c2.112-3.984,2.16-5.328,1.44-10.08c-0.624-4.08,0.096-6.624,0.864-10.176c0.912-4.176-0.288-8.016-1.2-12.384
		c-1.248-5.952-6.048-16.416,4.848-16.416c0.672,0,1.392,0.048,2.208,0.144c4.32,0.432,4.368,5.04,7.296,6.288
		c0.528,0.24,1.056,0.336,1.584,0.336c3.312,0,5.952-4.368,8.496-6.048c2.4-1.584,4.704-1.68,7.104-1.68h1.008
		c1.344,0,2.736-0.048,4.176-0.336c4.464-0.96,5.184-4.224,8.16-7.248c2.928-2.928,5.568-4.128,9.504-4.272
		C189.517,69.606,189.661,69.606,189.853,69.606"/>
</g>
<path class="st1" d="M189.674,66.362c1.099,0,2.145,0.148,2.929,0.387l0,0c0.324,0.099,0.692,0.227,0.993,0.349
	c1.396,0.535,2.658,1.253,4.51,1.761c0.836,0.244,1.714,0.351,2.588,0.366c0.622,0.013,1.245-0.019,1.868-0.081
	c3.193-0.422,6.51-1.659,9.668-1.659c2.696,0,5.235,0.905,7.511,3.767c1.608,2.065,2.2,4.245,3.015,6.359
	c0.008,0.023,0.022,0.054,0.03,0.077c0.008,0.023,0.022,0.054,0.03,0.077c0.357,0.913,0.753,1.805,1.294,2.657
	c0.7,0.922,1.623,1.812,2.917,2.655c1.855,1.226,4.109,1.458,6.282,1.693c0.707,0.029,1.413,0.055,2.104,0.111
	c2.166,0.169,4.102,0.624,5.328,2.379c3.995,5.798,5.273,6.567,7.373,7.126c1.409,0.177,3.138,0.3,5.922,1.371
	c0.041,0.015,0.085,0.032,0.125,0.048c0.04,0.015,0.083,0.033,0.122,0.049c8.278,3.44-2.834,16.068,1.495,20.403
	c0.846,0.849,1.728,1.403,2.625,1.752c0.856,0.312,1.731,0.448,2.608,0.475c0.364,0.011,0.73,0.003,1.1-0.018
	c2.239-0.12,4.567-0.734,6.955-0.654c1.993,0.067,3.979,0.608,6.004,2.247c3.339,2.737,2.792,4.09,4.216,7.699
	c1.294,3.356,3.447,5.005,5.911,7.664c3.591,3.845,4.821,6.969,5.216,11.259c0.06,0.609,0.108,1.256,0.141,1.925
	c0.035,0.708,0.057,1.452,0.07,2.239c0.084,6.195,3.861,10.438,0.423,15.917c-4.659,7.513-4.824,9.435,3.788,12.168
	c7.618,2.44,11.289,8.328,13.594,15.914c2.117,7.026,2.833,11.811-0.545,18.467c-1.944,3.807-5.579,7.579-6.222,11.917
	c-0.373,2.527,0.274,4.375,1.185,6.178c0.008,0.013,0.014,0.029,0.021,0.042c0.008,0.013,0.014,0.029,0.022,0.042
	c0.714,1.368,1.581,2.709,2.261,4.309c0.001,0.002,0.002,0.005,0.004,0.008c0.004,0.01,0.01,0.021,0.014,0.031
	c2.079,4.583,2.97,13.607-2.862,15.548c-0.599,0.219-1.244,0.297-1.937,0.336c-3.681,0.209-8.337-1.75-12.587-3.262
	c-2.73-0.995-5.282-1.79-7.28-1.7c-1.857,0.083-3.26,0.968-3.838,3.24c-0.719,2.571,3.977,5.975,2.939,11.079
	c-0.172,0.784-0.477,1.606-0.957,2.47c-1.112,2-2.92,2.839-3.859,4.867c-0.499,1.12-0.642,1.965-0.605,2.695
	c0.008,0.091,0.018,0.181,0.031,0.269c0.227,1.323,0.937,2.348,1.16,3.939c0.366,2.745-0.324,5.667-0.82,8.49
	c-0.362,2.423-0.573,4.823,0.139,7.031c1.592,4.942,4.965,7.723,4.673,13.551c-0.35,7.046-5.019,10.01-11.119,10.332
	c-0.797,0.042-1.644,0.041-2.539-0.013c-1.809-0.125-2.151-1.279-3.79-1.236c-0.253,0.007-0.506,0.06-0.806,0.113
	c-1.713,0.33-3.029,1.48-4.146,2.846c-0.963,1.344-1.766,2.867-2.556,4.117c-3.088,5.03-7.492,7.265-12.32,7.532
	c-0.358,0.02-0.718,0.029-1.08,0.028c-6.978-0.027-14.677-3.955-20.273-9.092c-0.013-0.012-0.029-0.027-0.042-0.039
	c-0.013-0.012-0.029-0.027-0.042-0.039c-7.685-7.151-12.847-16.398-19.03-24.66c-0.66-0.882-1.331-1.752-2.018-2.608
	c-1.157-1.294-2.363-2.555-3.636-3.764c-3.319-3.189-6.478-7.15-11.679-7.097c-0.145,0.002-0.29,0.003-0.434,0.005
	c-3.691,0.181-5.243,2.297-6.269,4.977c-0.855,2.212-1.348,4.807-2.383,7.014c-1.91,4.107-6.115,6.382-10.488,6.277
	c-2.935-0.073-5.909-1.175-8.32-3.489c-2.781-2.627-4.299-5.211-6.002-7.275c-2.121-2.36-4.512-4.035-9.585-4.243
	c-10.165-0.453-11.392-7.019-18.513-12.782c-0.782-0.649-1.584-1.268-2.401-1.861c-0.842-0.612-1.721-1.225-2.605-1.845
	c-5.083-3.566-10.343-7.368-11.918-13.7c-0.56-2.298-0.257-4.77-0.56-7.138c-0.071-0.553-0.174-1.098-0.329-1.631
	c-0.16-0.441-0.361-0.876-0.615-1.302c-0.399-0.672-0.855-1.268-1.356-1.805c-3.222-3.464-8.258-4.364-11.981-6.908
	c-3.11-2.111-5.222-5.222-6.471-8.787c-2.244-6.4-1.699-14.223,0.805-20.227c0.006-0.014,0.012-0.029,0.018-0.043
	c0.006-0.014,0.012-0.029,0.018-0.043c2.915-6.792,9.912-8.025,12.488-14.742c0.194-0.49,0.378-0.983,0.555-1.476
	c0.024-0.068,0.049-0.135,0.073-0.203c0.194-0.6,0.38-1.205,0.563-1.812c1.575-5.229,2.89-10.615,6.751-14.898
	c0.024-0.042,1.617-1.327,1.922-1.968c0.902-1.853,2.499-3.467,4.23-4.84c0.287-0.223,0.619-0.484,0.91-0.693
	c0.914-0.68,1.836-1.291,2.685-1.833c3.318-2.101,5.918-4.674,9.296-6.44c1.562-0.814,2.98-1.247,4.142-1.824
	c0.011-0.006,0.025-0.012,0.036-0.018c0.011-0.006,0.025-0.012,0.036-0.018c0.879-0.443,1.619-1,2.154-1.905
	c0.195-0.332,0.363-0.71,0.501-1.149c0.104-0.406,0.184-0.86,0.238-1.37c0.354-3.512-1.932-6.315-2.496-9.514
	c-0.761-4.104,0.524-7.143,2.313-10.572c0.137-0.284,0.277-0.57,0.421-0.859c2.005-4.047,2.065-5.523,1.397-10.241
	c-0.255-1.856-0.245-3.403-0.089-4.865c0.071-0.808,0.183-1.608,0.324-2.413c0.133-0.769,0.289-1.551,0.454-2.38
	c0.043-0.211,0.086-0.43,0.127-0.655c0.085-0.437,0.147-0.875,0.192-1.306c0.391-3.685-0.672-7.246-1.474-11.245
	c-1.221-6.045-5.778-16.48,4.956-16.838c0.674-0.038,1.401-0.034,2.227,0.014c4.28,0.277,4.529,4.546,7.628,5.652
	c0.544,0.219,1.09,0.3,1.637,0.29c1.893-0.031,3.603-1.339,5.225-2.763c0.901-0.798,1.771-1.633,2.631-2.302
	c0.366-0.291,0.729-0.55,1.09-0.761c1.379-0.823,2.726-1.198,4.072-1.352c1.085-0.191,2.17-0.238,3.27-0.26
	c0.024-0.008,1.016-0.015,1.04-0.021c1.404-0.03,2.844-0.092,4.317-0.376c0.304-0.063,0.591-0.134,0.863-0.214
	c0.445-0.156,0.852-0.337,1.229-0.541c0.019-0.01,0.041-0.023,0.06-0.032s0.041-0.023,0.059-0.033
	c2.713-1.519,3.781-4.158,6.291-6.61c3.044-2.928,5.832-4.145,9.888-4.299C189.324,66.364,189.476,66.363,189.674,66.362"/>
<path class="st1" d="M189.495,63.119c1.053,0,2.233,0.135,2.984,0.364l0,0c0.311,0.095,0.724,0.233,1.013,0.35
	c1.445,0.522,2.751,1.228,4.61,1.737c0.857,0.248,1.749,0.363,2.632,0.397c0.635,0.024,1.268,0.009,1.897-0.037
	c3.209-0.439,6.586-1.667,9.847-1.667c2.896,0,5.623,0.946,8.061,3.838c1.748,2.098,2.5,4.352,3.434,6.585
	c0.008,0.022,0.026,0.059,0.034,0.081s0.026,0.059,0.034,0.081c0.407,0.966,0.839,1.91,1.399,2.809
	c0.793,0.907,1.812,1.797,3.188,2.668c1.963,1.26,4.311,1.614,6.555,2.043c0.741,0.044,1.488,0.09,2.224,0.171
	c2.281,0.236,4.316,0.78,5.64,2.599c4.099,5.803,5.493,6.877,7.543,7.795c1.549,0.235,3.391,0.454,6.231,1.617
	c0.039,0.014,0.085,0.034,0.123,0.049c0.038,0.015,0.083,0.035,0.12,0.05c8.253,3.553-2.245,15.917,1.992,20.308
	c0.827,0.857,1.686,1.431,2.559,1.806c0.844,0.322,1.709,0.481,2.58,0.535c0.359,0.022,0.721,0.025,1.087,0.016
	c2.219-0.039,4.516-0.56,6.863-0.4c1.971,0.134,3.925,0.735,5.912,2.382c3.27,2.738,2.8,4.148,4.207,7.718
	c1.293,3.353,3.39,5.066,5.774,7.744c3.474,3.872,4.661,7.044,5.042,11.325c0.062,0.604,0.117,1.257,0.155,1.924
	c0.041,0.705,0.069,1.449,0.09,2.237c0.121,6.102,3.786,10.412,0.463,15.947c-4.277,7.347-4.272,9.365,4.121,12.193
	c7.46,2.575,11.106,8.495,13.412,16.085c2.123,7.043,2.882,11.957-0.369,18.693c-1.872,3.871-5.399,7.719-6.108,12.123
	c-0.396,2.524,0.177,4.4,0.992,6.236c0.007,0.013,0.012,0.03,0.019,0.043s0.012,0.03,0.019,0.043
	c0.649,1.377,1.443,2.722,2.059,4.311c0.001,0.002,0.003,0.006,0.004,0.008c0.004,0.009,0.01,0.022,0.014,0.031
	c2.106,4.64,3.046,13.615-2.539,15.822c-0.573,0.247-1.193,0.354-1.858,0.433c-3.541,0.419-8.049-1.193-12.232-2.408
	c-2.677-0.824-5.195-1.457-7.199-1.276c-1.84,0.166-3.255,1.073-3.884,3.312c-0.856,2.602,3.45,5.968,2.238,10.921
	c-0.211,0.765-0.551,1.564-1.059,2.402c-1.169,1.937-3.009,2.75-4.023,4.693c-0.531,1.073-0.72,1.881-0.737,2.576
	c0.005,0.092,0.012,0.182,0.022,0.271c0.224,1.346,0.905,2.404,1.118,3.999c0.346,2.811-0.343,5.768-0.841,8.595
	c-0.298,2.412-0.44,4.829,0.294,7.087c1.6,4.94,4.889,7.863,4.595,13.759c-0.364,7.324-5.096,10.616-11.343,11.256
	c-0.827,0.085-1.703,0.131-2.631,0.118c-1.842-0.058-2.286-1.117-3.98-1.032c-0.266,0.013-0.533,0.073-0.844,0.13
	c-1.789,0.358-3.208,1.486-4.444,2.802c-1.019,1.406-1.895,2.97-2.768,4.259c-3.317,5.104-7.98,7.399-13.091,7.655
	c-0.376,0.019-0.754,0.027-1.134,0.024c-7.332-0.054-15.386-4.117-21.297-9.544c-0.013-0.012-0.03-0.027-0.042-0.039
	c-0.013-0.012-0.029-0.027-0.042-0.039c-7.776-7.235-13.018-16.526-19.203-24.822c-0.663-0.89-1.337-1.769-2.026-2.634
	c-1.175-1.179-2.401-2.33-3.694-3.438c-3.374-2.922-6.62-6.619-11.838-6.513c-0.146,0.003-0.291,0.006-0.437,0.009
	c-3.674,0.204-5.305,2.249-6.433,4.816c-0.948,2.12-1.547,4.594-2.664,6.684c-2.043,3.893-6.277,5.996-10.655,5.785
	c-2.942-0.146-5.914-1.294-8.335-3.617c-2.797-2.643-4.353-5.24-6.061-7.317c-2.229-2.286-4.692-3.938-9.704-4.198
	c-10.202-0.619-11.648-7.221-18.642-12.94c-0.813-0.696-1.632-1.347-2.464-1.954c-0.857-0.627-1.771-1.265-2.694-1.912
	c-5.159-3.619-10.636-7.569-12.417-14.147c-0.619-2.356-0.396-4.897-0.73-7.361c-0.078-0.574-0.184-1.139-0.339-1.691
	c-0.186-0.438-0.413-0.871-0.691-1.297c-0.431-0.669-0.92-1.27-1.452-1.817c-3.394-3.513-8.469-4.642-12.215-7.4
	c-3.115-2.266-5.233-5.521-6.478-9.234c-2.236-6.659-1.648-14.713,0.955-20.954c0.005-0.013,0.013-0.03,0.018-0.043
	c0.006-0.013,0.013-0.03,0.018-0.043c2.975-6.939,9.961-8.377,12.628-14.977c0.21-0.49,0.409-0.98,0.6-1.47
	c0.026-0.067,0.053-0.135,0.079-0.202c0.196-0.607,0.384-1.221,0.569-1.837c1.58-5.251,2.929-10.715,6.809-15.126
	c0.049-0.083,1.602-1.359,1.923-2.016c0.928-1.871,2.533-3.512,4.277-4.92c0.275-0.214,0.636-0.511,0.915-0.711
	c0.911-0.702,1.831-1.336,2.683-1.901c3.324-2.186,5.98-4.788,9.375-6.592c1.568-0.831,2.998-1.291,4.179-1.885
	c0.011-0.005,0.026-0.013,0.037-0.018c0.011-0.005,0.026-0.013,0.036-0.019c0.873-0.443,1.632-1.014,2.196-1.921
	c0.205-0.331,0.385-0.709,0.537-1.144c0.097-0.416,0.171-0.876,0.221-1.391c0.325-3.569-1.847-6.439-2.353-9.668
	c-0.678-4.167,0.64-7.273,2.429-10.706c0.129-0.29,0.262-0.582,0.397-0.877c1.898-4.109,1.969-5.717,1.354-10.402
	c-0.229-1.878-0.201-3.448-0.034-4.927c0.061-0.812,0.156-1.632,0.282-2.445c0.118-0.781,0.258-1.576,0.406-2.414
	c0.04-0.21,0.077-0.432,0.113-0.663c0.076-0.441,0.128-0.888,0.165-1.323c0.334-3.682-0.744-7.313-1.53-11.396
	c-1.195-6.137-5.508-16.543,5.065-17.26c0.676-0.076,1.41-0.116,2.245-0.116c4.241,0.123,4.689,4.052,7.96,5.016
	c0.56,0.197,1.123,0.264,1.689,0.244c1.949-0.062,3.738-1.335,5.461-2.7c0.949-0.765,1.869-1.56,2.787-2.19
	c0.385-0.275,0.767-0.518,1.147-0.715c1.43-0.77,2.826-1.099,4.217-1.206c1.118-0.22,2.235-0.294,3.364-0.338
	c0.049-0.015,1.024-0.029,1.072-0.042c1.463-0.06,2.953-0.135,4.458-0.417c0.314-0.062,0.611-0.132,0.894-0.21
	c0.448-0.173,0.861-0.372,1.246-0.592c0.018-0.009,0.043-0.025,0.061-0.035c0.018-0.009,0.042-0.025,0.06-0.035
	c2.772-1.627,3.979-4.292,6.582-6.741c3.16-2.928,6.096-4.163,10.272-4.326C189.131,63.121,189.291,63.12,189.495,63.119"/>
<path class="st1" d="M189.316,59.875c1.007,0,2.32,0.123,3.039,0.342l0,0c0.297,0.09,0.757,0.239,1.034,0.351
	c1.493,0.509,2.843,1.203,4.71,1.712c0.877,0.252,1.784,0.377,2.676,0.427c0.649,0.036,1.291,0.038,1.926,0.007
	c3.225-0.456,6.662-1.675,10.026-1.675c3.096,0,6.01,0.987,8.612,3.909c1.887,2.132,2.799,4.46,3.853,6.81
	c0.007,0.021,0.031,0.064,0.038,0.085c0.007,0.021,0.031,0.064,0.038,0.085c0.458,1.018,0.926,2.014,1.504,2.962
	c0.885,0.891,2.001,1.782,3.46,2.68c2.071,1.294,4.514,1.771,6.829,2.393c0.776,0.06,1.562,0.126,2.344,0.231
	c2.395,0.302,4.529,0.937,5.951,2.819c4.202,5.809,5.713,7.187,7.713,8.463c1.688,0.293,3.644,0.608,6.539,1.862
	c0.037,0.013,0.085,0.036,0.122,0.049c0.037,0.014,0.083,0.036,0.119,0.051c8.228,3.667-1.656,15.766,2.489,20.214
	c0.808,0.865,1.644,1.459,2.493,1.861c0.831,0.332,1.688,0.513,2.552,0.595c0.354,0.033,0.713,0.047,1.074,0.051
	c2.199,0.042,4.467-0.385,6.771-0.147c1.949,0.202,3.872,0.863,5.82,2.517c3.2,2.739,2.809,4.206,4.199,7.737
	c1.291,3.349,3.333,5.127,5.637,7.824c3.357,3.898,4.501,7.119,4.867,11.391c0.064,0.598,0.125,1.258,0.169,1.923
	c0.046,0.703,0.082,1.446,0.11,2.235c0.157,6.009,3.711,10.386,0.502,15.977c-3.896,7.18-3.721,9.296,4.453,12.217
	c7.302,2.711,10.924,8.663,13.23,16.255c2.128,7.061,2.931,12.104-0.194,18.92c-1.8,3.934-5.218,7.858-5.994,12.328
	c-0.419,2.521,0.079,4.425,0.8,6.293c0.007,0.012,0.01,0.031,0.017,0.043c0.007,0.012,0.01,0.031,0.017,0.043
	c0.584,1.385,1.305,2.735,1.857,4.313c0.001,0.002,0.003,0.006,0.004,0.008c0.004,0.009,0.011,0.023,0.015,0.032
	c2.133,4.698,3.123,13.623-2.216,16.096c-0.548,0.274-1.143,0.412-1.779,0.529c-3.404,0.629-7.762-0.636-11.877-1.555
	c-2.623-0.653-5.107-1.124-7.118-0.852c-1.824,0.247-3.251,1.177-3.931,3.384c-0.992,2.633,2.923,5.96,1.537,10.763
	c-0.25,0.746-0.625,1.522-1.161,2.333c-1.225,1.873-3.097,2.661-4.186,4.52c-0.564,1.027-0.799,1.797-0.869,2.457
	c0.002,0.092,0.007,0.183,0.013,0.273c0.221,1.369,0.874,2.459,1.075,4.059c0.325,2.877-0.362,5.869-0.861,8.701
	c-0.234,2.401-0.307,4.834,0.45,7.143c1.607,4.937,4.814,8.002,4.516,13.966c-0.377,7.602-5.175,11.226-11.566,12.18
	c-0.857,0.128-1.763,0.22-2.722,0.249c-1.875,0.008-2.422-0.954-4.17-0.828c-0.279,0.02-0.559,0.085-0.882,0.147
	c-1.866,0.386-3.387,1.491-4.741,2.759c-1.076,1.467-2.025,3.073-2.981,4.401c-3.546,5.177-8.468,7.533-13.861,7.778
	c-0.394,0.018-0.79,0.025-1.188,0.021c-7.686-0.081-16.095-4.28-22.322-9.997c-0.012-0.011-0.03-0.028-0.043-0.039
	c-0.012-0.011-0.03-0.028-0.042-0.039c-7.868-7.318-13.189-16.654-19.376-24.985c-0.666-0.898-1.343-1.786-2.034-2.659
	c-1.193-1.064-2.438-2.106-3.753-3.112c-3.429-2.655-6.762-6.089-11.997-5.93c-0.146,0.005-0.293,0.009-0.439,0.014
	c-3.658,0.228-5.366,2.2-6.598,4.656c-1.041,2.028-1.747,4.382-2.944,6.355c-2.177,3.68-6.44,5.611-10.823,5.294
	c-2.95-0.219-5.919-1.412-8.351-3.746c-2.813-2.658-4.406-5.268-6.121-7.36c-2.336-2.212-4.871-3.841-9.824-4.153
	c-10.239-0.784-11.904-7.424-18.771-13.098c-0.845-0.742-1.681-1.426-2.527-2.048c-0.873-0.642-1.821-1.304-2.782-1.978
	c-5.235-3.672-10.929-7.769-12.917-14.594c-0.678-2.414-0.534-5.025-0.899-7.584c-0.084-0.595-0.195-1.18-0.349-1.751
	c-0.212-0.435-0.465-0.867-0.767-1.293c-0.464-0.667-0.985-1.272-1.549-1.83c-3.567-3.562-8.68-4.92-12.448-7.892
	c-3.12-2.42-5.244-5.821-6.484-9.681c-2.227-6.918-1.598-15.204,1.104-21.681c0.005-0.012,0.013-0.031,0.018-0.043
	c0.005-0.012,0.013-0.031,0.018-0.043c3.035-7.087,10.01-8.73,12.768-15.212c0.226-0.489,0.441-0.977,0.646-1.464
	c0.028-0.067,0.057-0.134,0.086-0.201c0.197-0.615,0.388-1.237,0.576-1.863c1.586-5.274,2.969-10.815,6.867-15.353
	c0.073-0.125,1.587-1.39,1.925-2.063c0.955-1.889,2.566-3.557,4.324-5c0.263-0.205,0.654-0.537,0.921-0.729
	c0.907-0.725,1.826-1.381,2.681-1.969c3.33-2.271,6.041-4.903,9.455-6.745c1.575-0.847,3.016-1.335,4.216-1.946
	c0.01-0.005,0.027-0.014,0.037-0.019c0.01-0.005,0.027-0.014,0.037-0.019c0.868-0.444,1.645-1.028,2.238-1.937
	c0.215-0.331,0.406-0.707,0.573-1.139c0.09-0.425,0.158-0.892,0.204-1.411c0.295-3.625-1.763-6.562-2.209-9.821
	c-0.594-4.231,0.757-7.402,2.546-10.84c0.121-0.296,0.246-0.594,0.374-0.894c1.792-4.172,1.874-5.912,1.311-10.563
	c-0.204-1.899-0.157-3.493,0.021-4.989c0.051-0.815,0.13-1.655,0.24-2.477c0.102-0.793,0.226-1.6,0.358-2.449
	c0.037-0.208,0.069-0.435,0.099-0.671c0.067-0.445,0.109-0.9,0.138-1.339c0.277-3.678-0.815-7.379-1.586-11.547
	c-1.168-6.23-5.239-16.607,5.173-17.681c0.678-0.113,1.418-0.198,2.264-0.245c4.201-0.032,4.85,3.558,8.292,4.38
	c0.576,0.176,1.157,0.227,1.742,0.199c2.005-0.093,3.874-1.331,5.698-2.636c0.997-0.732,1.968-1.487,2.944-2.078
	c0.404-0.259,0.805-0.487,1.203-0.669c1.481-0.716,2.927-1,4.361-1.06c1.152-0.249,2.301-0.35,3.458-0.417
	c0.073-0.023,1.033-0.044,1.104-0.062c1.523-0.09,3.061-0.179,4.6-0.457c0.324-0.061,0.632-0.13,0.924-0.206
	c0.451-0.191,0.87-0.406,1.264-0.643c0.017-0.009,0.045-0.028,0.062-0.037c0.017-0.009,0.044-0.028,0.061-0.037
	c2.831-1.736,4.178-4.425,6.874-6.873c3.276-2.928,6.359-4.18,10.656-4.353C188.937,59.879,189.106,59.877,189.316,59.875"/>
<path class="st1" d="M189.137,56.632c0.961,0,2.408,0.11,3.094,0.319l0,0c0.284,0.086,0.79,0.245,1.054,0.352
	c1.542,0.496,2.935,1.178,4.81,1.687c0.898,0.255,1.818,0.391,2.72,0.457c0.662,0.049,1.314,0.066,1.955,0.051
	c3.242-0.473,6.738-1.684,10.205-1.684c3.296,0,6.397,1.028,9.162,3.98c2.027,2.165,3.098,4.567,4.272,7.035
	c0.007,0.02,0.035,0.069,0.043,0.089s0.035,0.069,0.042,0.09c0.508,1.071,1.012,2.119,1.61,3.115
	c0.977,0.875,2.19,1.766,3.732,2.693c2.179,1.329,4.717,1.927,7.102,2.744c0.81,0.076,1.637,0.162,2.464,0.291
	c2.51,0.369,4.743,1.094,6.263,3.039c4.306,5.814,5.933,7.497,7.883,9.132c1.827,0.351,3.897,0.761,6.848,2.107
	c0.036,0.013,0.085,0.037,0.12,0.05c0.035,0.013,0.083,0.038,0.118,0.052c8.203,3.78-1.068,15.615,2.986,20.12
	c0.789,0.873,1.603,1.486,2.427,1.916c0.819,0.342,1.666,0.546,2.523,0.654c0.35,0.044,0.704,0.069,1.061,0.085
	c2.18,0.123,4.417-0.21,6.679,0.107c1.927,0.27,3.818,0.991,5.728,2.652c3.131,2.74,2.817,4.264,4.191,7.756
	c1.289,3.345,3.276,5.188,5.501,7.903c3.24,3.924,4.341,7.195,4.692,11.457c0.066,0.593,0.134,1.259,0.183,1.922
	c0.052,0.7,0.094,1.443,0.13,2.233c0.194,5.916,3.636,10.36,0.542,16.006c-3.515,7.013-3.169,9.226,4.786,12.241
	c7.144,2.847,10.741,8.83,13.048,16.425c2.133,7.078,2.98,12.251-0.019,19.147c-1.728,3.997-5.038,7.997-5.879,12.533
	c-0.442,2.518-0.018,4.45,0.607,6.35c0.007,0.012,0.008,0.032,0.015,0.044c0.007,0.012,0.008,0.032,0.015,0.044
	c0.519,1.394,1.167,2.749,1.655,4.315c0.001,0.002,0.003,0.006,0.004,0.008c0.004,0.008,0.011,0.024,0.015,0.033
	c2.16,4.756,3.199,13.632-1.892,16.37c-0.523,0.302-1.092,0.47-1.699,0.626c-3.269,0.841-7.475-0.079-11.521-0.701
	c-2.57-0.482-5.019-0.793-7.036-0.428c-1.806,0.327-3.246,1.282-3.977,3.456c-1.129,2.665,2.395,5.953,0.837,10.605
	c-0.289,0.727-0.698,1.48-1.263,2.264c-1.282,1.809-3.185,2.572-4.349,4.346c-0.596,0.98-0.878,1.713-1,2.338
	c-0.001,0.093,0.001,0.185,0.005,0.275c0.218,1.392,0.843,2.514,1.033,4.119c0.305,2.943-0.38,5.97-0.882,8.806
	c-0.17,2.39-0.174,4.839,0.605,7.199c1.615,4.935,4.739,8.141,4.437,14.173c-0.391,7.879-5.254,11.84-11.789,13.104
	c-0.886,0.171-1.822,0.309-2.814,0.38c-1.908,0.075-2.557-0.79-4.36-0.624c-0.293,0.027-0.586,0.097-0.92,0.164
	c-1.943,0.413-3.567,1.497-5.039,2.715c-1.132,1.528-2.155,3.175-3.193,4.542c-3.776,5.25-8.956,7.667-14.631,7.901
	c-0.412,0.018-0.826,0.023-1.242,0.018c-8.04-0.108-16.805-4.442-23.347-10.449c-0.012-0.011-0.031-0.029-0.043-0.04
	c-0.012-0.011-0.031-0.029-0.043-0.04c-7.959-7.401-13.359-16.781-19.548-25.147c-0.67-0.907-1.349-1.803-2.041-2.684
	c-1.21-0.948-2.476-1.881-3.811-2.786c-3.484-2.388-6.904-5.559-12.156-5.346c-0.147,0.006-0.295,0.012-0.442,0.018
	c-3.642,0.251-5.428,2.151-6.762,4.496c-1.135,1.936-1.947,4.169-3.225,6.026c-2.311,3.467-6.602,5.225-10.991,4.802
	c-2.957-0.292-5.924-1.531-8.366-3.874c-2.829-2.674-4.46-5.297-6.18-7.402c-2.443-2.138-5.05-3.745-9.943-4.108
	c-10.276-0.949-12.16-7.627-18.9-13.256c-0.876-0.789-1.729-1.504-2.59-2.141c-0.888-0.657-1.871-1.344-2.87-2.045
	c-5.311-3.725-11.222-7.97-13.417-15.041c-0.737-2.472-0.673-5.153-1.069-7.807c-0.091-0.616-0.205-1.221-0.359-1.811
	c-0.238-0.432-0.516-0.862-0.843-1.289c-0.497-0.665-1.05-1.274-1.645-1.842c-3.74-3.611-8.891-5.198-12.682-8.385
	c-3.125-2.575-5.254-6.12-6.491-10.128c-2.219-7.177-1.547-15.694,1.253-22.407c0.005-0.012,0.013-0.032,0.019-0.044
	s0.014-0.032,0.019-0.044c3.095-7.234,10.06-9.082,12.908-15.447c0.242-0.489,0.472-0.975,0.691-1.458
	c0.03-0.066,0.061-0.133,0.092-0.2c0.199-0.622,0.392-1.253,0.583-1.888c1.591-5.297,3.009-10.915,6.925-15.58
	c0.097-0.166,1.573-1.421,1.926-2.111c0.981-1.906,2.6-3.602,4.371-5.08c0.251-0.195,0.671-0.564,0.926-0.746
	c0.904-0.747,1.821-1.426,2.678-2.037c3.336-2.356,6.103-5.017,9.535-6.897c1.582-0.864,3.034-1.379,4.253-2.007
	c0.01-0.005,0.028-0.015,0.038-0.019c0.01-0.005,0.028-0.015,0.038-0.02c0.862-0.444,1.657-1.042,2.281-1.952
	c0.224-0.331,0.428-0.705,0.609-1.133c0.082-0.434,0.145-0.908,0.187-1.431c0.266-3.681-1.679-6.686-2.065-9.975
	c-0.511-4.294,0.873-7.532,2.663-10.973c0.113-0.302,0.23-0.606,0.35-0.912c1.685-4.234,1.778-6.106,1.268-10.724
	c-0.178-1.921-0.113-3.538,0.076-5.051c0.041-0.818,0.103-1.679,0.198-2.509c0.087-0.805,0.194-1.624,0.31-2.483
	c0.033-0.207,0.061-0.437,0.085-0.679c0.058-0.448,0.09-0.912,0.111-1.355c0.22-3.675-0.887-7.446-1.642-11.698
	c-1.142-6.323-4.969-16.67,5.281-18.103c0.68-0.151,1.427-0.28,2.283-0.375c4.161-0.187,5.011,3.065,8.624,3.744
	c0.592,0.154,1.19,0.191,1.794,0.153c2.061-0.125,4.01-1.327,5.934-2.573c1.044-0.698,2.067-1.413,3.101-1.966
	c0.423-0.243,0.843-0.456,1.26-0.623c1.532-0.663,3.027-0.901,4.506-0.913c1.185-0.278,2.366-0.407,3.552-0.495
	c0.098-0.03,1.041-0.058,1.136-0.083c1.582-0.12,3.17-0.223,4.741-0.498c0.335-0.061,0.652-0.129,0.954-0.202
	c0.453-0.208,0.879-0.441,1.282-0.694c0.016-0.008,0.046-0.03,0.063-0.039c0.016-0.008,0.046-0.031,0.062-0.039
	c2.89-1.845,4.376-4.559,7.165-7.004c3.392-2.928,6.623-4.198,11.039-4.379C188.744,56.636,188.921,56.634,189.137,56.632"/>
<path class="st1" d="M188.959,53.388c0.916,0,2.495,0.097,3.149,0.296l0,0c0.27,0.082,0.823,0.251,1.074,0.353
	c1.591,0.483,3.027,1.153,4.911,1.662c0.918,0.259,1.853,0.405,2.764,0.487c0.675,0.061,1.337,0.094,1.984,0.095
	c3.258-0.49,6.815-1.692,10.384-1.692c3.496,0,6.784,1.069,9.713,4.051c2.167,2.199,3.397,4.675,4.691,7.261
	c0.007,0.019,0.04,0.074,0.047,0.094c0.007,0.019,0.04,0.075,0.047,0.094c0.559,1.123,1.098,2.224,1.715,3.268
	c1.069,0.86,2.379,1.751,4.003,2.706c2.287,1.363,4.919,2.083,7.376,3.094c0.845,0.091,1.711,0.198,2.584,0.351
	c2.625,0.436,4.957,1.251,6.575,3.259c4.409,5.819,6.153,7.807,8.053,9.801c1.966,0.409,4.15,0.915,7.157,2.352
	c0.034,0.012,0.085,0.039,0.118,0.051c0.033,0.013,0.084,0.039,0.116,0.053c8.178,3.894-0.479,15.464,3.483,20.025
	c0.77,0.881,1.561,1.514,2.36,1.971c0.807,0.352,1.644,0.578,2.495,0.714c0.345,0.055,0.695,0.09,1.048,0.12
	c2.16,0.204,4.368-0.034,6.587,0.361c1.906,0.339,3.765,1.119,5.637,2.787c3.062,2.741,2.825,4.322,4.182,7.775
	c1.288,3.342,3.22,5.249,5.364,7.983c3.123,3.951,4.181,7.27,4.518,11.524c0.068,0.587,0.143,1.26,0.197,1.921
	c0.057,0.697,0.107,1.44,0.151,2.231c0.23,5.823,3.561,10.334,0.581,16.036c-3.134,6.847-2.617,9.157,5.118,12.266
	c6.986,2.983,10.558,8.998,12.866,16.596c2.138,7.096,3.029,12.398,0.157,19.373c-1.656,4.061-4.857,8.137-5.765,12.739
	c-0.466,2.515-0.116,4.475,0.415,6.407c0.006,0.011,0.006,0.034,0.013,0.045c0.006,0.011,0.006,0.034,0.013,0.045
	c0.454,1.403,1.029,2.762,1.453,4.317c0.001,0.002,0.003,0.006,0.004,0.008c0.004,0.008,0.012,0.025,0.015,0.033
	c2.187,4.814,3.275,13.64-1.569,16.644c-0.497,0.329-1.043,0.528-1.62,0.722c-3.137,1.056-7.188,0.478-11.166,0.153
	c-2.516-0.312-4.93-0.463-6.955-0.004c-1.789,0.405-3.242,1.386-4.023,3.528c-1.265,2.696,1.868,5.945,0.136,10.447
	c-0.329,0.708-0.772,1.439-1.365,2.195c-1.338,1.745-3.273,2.483-4.512,4.172c-0.629,0.933-0.957,1.629-1.132,2.219
	c-0.003,0.094-0.004,0.186-0.004,0.277c0.215,1.414,0.812,2.569,0.99,4.179c0.285,3.009-0.399,6.071-0.902,8.911
	c-0.106,2.379-0.04,4.844,0.76,7.255c1.623,4.933,4.663,8.281,4.358,14.381c-0.405,8.157-5.334,12.458-12.012,14.028
	c-0.916,0.215-1.882,0.399-2.905,0.51c-1.941,0.142-2.693-0.626-4.55-0.42c-0.306,0.034-0.612,0.11-0.958,0.181
	c-2.019,0.441-3.746,1.502-5.337,2.672c-1.189,1.59-2.285,3.278-3.406,4.684c-4.005,5.324-9.444,7.801-15.402,8.024
	c-0.43,0.017-0.862,0.021-1.296,0.014c-8.394-0.134-17.514-4.605-24.371-10.901c-0.011-0.01-0.032-0.03-0.043-0.04
	c-0.011-0.01-0.032-0.03-0.043-0.04c-8.05-7.485-13.53-16.909-19.721-25.31c-0.673-0.915-1.355-1.82-2.049-2.709
	c-1.228-0.833-2.514-1.657-3.87-2.46c-3.539-2.12-7.046-5.028-12.315-4.763c-0.148,0.008-0.296,0.015-0.445,0.023
	c-3.625,0.275-5.489,2.103-6.926,4.336c-1.228,1.844-2.146,3.956-3.505,5.696c-2.445,3.253-6.765,4.839-11.158,4.311
	c-2.964-0.365-5.928-1.65-8.382-4.003c-2.845-2.69-4.513-5.326-6.24-7.445c-2.55-2.065-5.23-3.648-10.062-4.064
	c-10.312-1.115-12.416-7.83-19.028-13.414c-0.907-0.836-1.778-1.583-2.653-2.234c-0.904-0.672-1.921-1.383-2.959-2.111
	c-5.387-3.778-11.516-8.171-13.917-15.488c-0.795-2.531-0.812-5.281-1.239-8.031c-0.098-0.637-0.215-1.262-0.369-1.87
	c-0.265-0.429-0.568-0.857-0.919-1.285c-0.53-0.663-1.115-1.276-1.741-1.854c-3.912-3.66-9.102-5.476-12.915-8.877
	c-3.13-2.73-5.265-6.419-6.498-10.575c-2.21-7.436-1.496-16.184,1.403-23.134c0.005-0.011,0.014-0.033,0.019-0.044
	c0.005-0.011,0.014-0.033,0.019-0.044c3.155-7.382,10.109-9.435,13.048-15.681c0.258-0.488,0.504-0.972,0.737-1.452
	c0.032-0.066,0.065-0.133,0.098-0.199c0.201-0.629,0.396-1.269,0.589-1.913c1.597-5.319,3.049-11.014,6.984-15.808
	c0.122-0.208,1.558-1.452,1.928-2.159c1.008-1.924,2.633-3.647,4.418-5.161c0.239-0.186,0.688-0.59,0.931-0.764
	c0.901-0.77,1.816-1.471,2.676-2.105c3.342-2.441,6.165-5.131,9.615-7.049c1.588-0.88,3.053-1.423,4.29-2.068
	c0.009-0.005,0.029-0.015,0.038-0.02c0.009-0.005,0.029-0.015,0.038-0.02c0.857-0.444,1.67-1.056,2.323-1.968
	c0.234-0.33,0.45-0.703,0.645-1.128c0.075-0.443,0.132-0.924,0.17-1.451c0.236-3.738-1.594-6.809-1.921-10.129
	c-0.428-4.357,0.989-7.661,2.779-11.107c0.105-0.308,0.214-0.618,0.327-0.93c1.578-4.297,1.683-6.301,1.225-10.885
	c-0.152-1.942-0.068-3.583,0.13-5.114c0.031-0.822,0.077-1.702,0.156-2.541c0.071-0.817,0.162-1.648,0.262-2.518
	c0.03-0.206,0.052-0.44,0.071-0.688c0.048-0.452,0.071-0.925,0.084-1.372c0.164-3.672-0.958-7.513-1.697-11.849
	c-1.115-6.416-4.699-16.734,5.39-18.525c0.682-0.189,1.436-0.362,2.302-0.505c4.122-0.342,5.172,2.571,8.956,3.108
	c0.608,0.133,1.224,0.155,1.847,0.107c2.117-0.156,4.146-1.323,6.17-2.509c1.092-0.665,2.166-1.34,3.258-1.854
	c0.442-0.227,0.881-0.424,1.316-0.577c1.584-0.61,3.127-0.802,4.651-0.767c1.219-0.307,2.431-0.463,3.645-0.574
	c0.122-0.038,1.049-0.073,1.168-0.104c1.642-0.15,3.278-0.267,4.882-0.538c0.345-0.06,0.672-0.127,0.984-0.198
	c0.456-0.225,0.887-0.475,1.3-0.745c0.016-0.008,0.048-0.033,0.064-0.041s0.048-0.033,0.063-0.041
	c2.949-1.953,4.574-4.693,7.456-7.135c3.508-2.928,6.887-4.215,11.423-4.406C188.551,53.394,188.735,53.39,188.959,53.388"/>
<path class="st1" d="M188.78,50.144c0.87,0,2.583,0.085,3.204,0.274l0,0c0.257,0.078,0.856,0.257,1.095,0.354
	c1.639,0.47,3.12,1.127,5.011,1.637c0.939,0.263,1.888,0.419,2.808,0.518c0.688,0.074,1.36,0.122,2.013,0.139
	c3.274-0.507,6.891-1.7,10.563-1.7c3.696,0,7.172,1.11,10.263,4.122c2.307,2.232,3.697,4.782,5.11,7.486
	c0.006,0.018,0.045,0.08,0.051,0.098c0.006,0.018,0.044,0.08,0.051,0.098c0.609,1.175,1.184,2.328,1.82,3.421
	c1.162,0.844,2.567,1.736,4.275,2.719c2.395,1.397,5.122,2.24,7.649,3.444c0.88,0.107,1.786,0.233,2.704,0.411
	c2.74,0.503,5.171,1.408,6.887,3.479c4.513,5.824,6.373,8.117,8.223,10.469c2.106,0.468,4.403,1.069,7.465,2.597
	c0.032,0.012,0.085,0.04,0.117,0.052c0.032,0.012,0.084,0.041,0.115,0.053c8.153,4.007,0.11,15.313,3.98,19.931
	c0.751,0.889,1.52,1.541,2.294,2.025c0.795,0.362,1.622,0.61,2.467,0.774c0.341,0.066,0.686,0.112,1.035,0.154
	c2.14,0.285,4.319,0.143,6.495,0.614c1.885,0.408,3.712,1.246,5.545,2.922c2.993,2.742,2.833,4.38,4.174,7.794
	c1.286,3.338,3.163,5.31,5.227,8.063c3.006,3.977,4.021,7.345,4.343,11.59c0.07,0.582,0.151,1.261,0.211,1.92
	c0.063,0.695,0.119,1.436,0.171,2.228c0.267,5.731,3.486,10.307,0.621,16.065c-2.752,6.68-2.065,9.087,5.451,12.29
	c6.828,3.118,10.375,9.165,12.684,16.766c2.144,7.114,3.078,12.544,0.332,19.6c-1.584,4.124-4.676,8.276-5.651,12.944
	c-0.489,2.512-0.213,4.5,0.222,6.464c0.006,0.011,0.005,0.035,0.011,0.045s0.005,0.035,0.011,0.045
	c0.388,1.412,0.891,2.775,1.251,4.319c0.001,0.002,0.003,0.007,0.004,0.009c0.003,0.008,0.012,0.026,0.015,0.034
	c2.214,4.871,3.351,13.648-1.246,16.918c-0.472,0.357-0.993,0.587-1.541,0.819c-3.007,1.273-6.901,1.036-10.811,1.007
	c-2.463-0.141-4.841-0.135-6.874,0.42c-1.771,0.483-3.238,1.491-4.069,3.599c-1.402,2.727,1.341,5.938-0.565,10.289
	c-0.368,0.689-0.846,1.397-1.466,2.127c-1.395,1.682-3.362,2.394-4.676,3.999c-0.661,0.887-1.036,1.544-1.264,2.101
	c-0.006,0.094-0.01,0.187-0.013,0.279c0.212,1.437,0.781,2.624,0.948,4.239c0.264,3.075-0.418,6.172-0.923,9.017
	c-0.042,2.368,0.093,4.85,0.916,7.311c1.631,4.931,4.588,8.42,4.279,14.588c-0.419,8.435-5.413,13.079-12.236,14.953
	c-0.946,0.26-1.942,0.488-2.996,0.641c-1.974,0.209-2.828-0.462-4.74-0.216c-0.319,0.041-0.639,0.122-0.997,0.197
	c-2.096,0.469-3.925,1.508-5.634,2.628c-1.245,1.651-2.415,3.381-3.618,4.826c-4.234,5.397-9.932,7.935-16.172,8.147
	c-0.448,0.016-0.898,0.019-1.35,0.011c-8.748-0.161-18.223-4.768-25.396-11.353c-0.011-0.01-0.033-0.031-0.044-0.04
	c-0.011-0.01-0.033-0.031-0.043-0.04c-8.142-7.568-13.701-17.037-19.894-25.472c-0.677-0.924-1.361-1.837-2.057-2.734
	c-1.246-0.718-2.551-1.432-3.928-2.133c-3.594-1.853-7.188-4.498-12.474-4.18c-0.149,0.009-0.298,0.018-0.447,0.027
	c-3.609,0.298-5.551,2.054-7.09,4.175c-1.321,1.751-2.346,3.743-3.786,5.367c-2.578,3.04-6.927,4.453-11.326,3.819
	c-2.971-0.438-5.933-1.769-8.397-4.131c-2.861-2.705-4.567-5.354-6.299-7.487c-2.657-1.991-5.409-3.551-10.182-4.019
	c-10.349-1.28-12.671-8.032-19.157-13.572c-0.939-0.882-1.826-1.662-2.716-2.327c-0.919-0.688-1.971-1.422-3.047-2.177
	c-5.463-3.831-11.809-8.371-14.417-15.934c-0.854-2.589-0.95-5.409-1.408-8.254c-0.105-0.659-0.226-1.303-0.379-1.93
	c-0.291-0.426-0.62-0.853-0.995-1.281c-0.563-0.661-1.18-1.278-1.837-1.866c-4.085-3.709-9.314-5.754-13.149-9.37
	c-3.135-2.885-5.276-6.718-6.505-11.022c-2.202-7.695-1.446-16.675,1.552-23.861c0.005-0.011,0.014-0.034,0.019-0.044
	c0.005-0.011,0.014-0.034,0.019-0.044c3.215-7.53,10.158-9.787,13.188-15.916c0.274-0.487,0.535-0.969,0.782-1.446
	c0.034-0.066,0.069-0.132,0.105-0.199c0.202-0.636,0.4-1.285,0.596-1.939c1.602-5.342,3.088-11.114,7.042-16.035
	c0.146-0.249,1.543-1.483,1.93-2.207c1.034-1.942,2.667-3.692,4.465-5.241c0.227-0.177,0.706-0.617,0.936-0.782
	c0.898-0.792,1.811-1.516,2.674-2.173c3.348-2.525,6.227-5.245,9.694-7.201c1.595-0.897,3.071-1.466,4.327-2.129
	c0.009-0.004,0.03-0.016,0.039-0.021s0.03-0.016,0.039-0.021c0.851-0.445,1.682-1.071,2.365-1.984
	c0.244-0.33,0.471-0.701,0.68-1.123c0.068-0.452,0.119-0.94,0.153-1.471c0.207-3.794-1.51-6.933-1.778-10.283
	c-0.345-4.421,1.106-7.791,2.896-11.241c0.097-0.315,0.199-0.63,0.303-0.947c1.471-4.359,1.587-6.495,1.182-11.047
	c-0.127-1.964-0.024-3.628,0.185-5.176c0.021-0.825,0.05-1.726,0.114-2.574c0.056-0.829,0.13-1.673,0.213-2.552
	c0.026-0.205,0.044-0.442,0.057-0.696c0.039-0.456,0.052-0.937,0.057-1.388c0.107-3.668-1.03-7.58-1.753-12
	c-1.089-6.508-4.429-16.797,5.498-18.947c0.685-0.227,1.445-0.444,2.32-0.635c4.082-0.496,5.332,2.077,9.288,2.472
	c0.624,0.111,1.257,0.118,1.899,0.061c2.173-0.191,4.282-1.319,6.407-2.446c1.14-0.632,2.265-1.267,3.415-1.743
	c0.461-0.211,0.919-0.393,1.372-0.531c1.635-0.557,3.227-0.703,4.796-0.621c1.252-0.336,2.497-0.519,3.739-0.652
	c0.147-0.046,1.057-0.087,1.2-0.125c1.701-0.18,3.387-0.311,5.024-0.578c0.355-0.06,0.693-0.125,1.014-0.194
	c0.459-0.243,0.896-0.51,1.318-0.796c0.015-0.008,0.05-0.036,0.065-0.043c0.015-0.008,0.05-0.036,0.064-0.044
	c3.007-2.062,4.772-4.827,7.748-7.266c3.624-2.928,7.151-4.232,11.807-4.433C188.358,50.151,188.55,50.147,188.78,50.144"/>
<path class="st1" d="M188.601,46.901c0.824,0,2.671,0.072,3.258,0.251l0,0c0.243,0.074,0.889,0.263,1.115,0.355
	c1.688,0.457,3.212,1.102,5.111,1.613c0.959,0.267,1.922,0.434,2.851,0.548c0.702,0.086,1.382,0.151,2.042,0.183
	c3.29-0.524,6.967-1.709,10.743-1.709c3.896,0,7.559,1.151,10.814,4.193c2.446,2.266,3.996,4.89,5.529,7.712
	c0.006,0.017,0.049,0.085,0.056,0.102c0.006,0.017,0.049,0.085,0.055,0.103c0.66,1.228,1.27,2.433,1.926,3.574
	c1.254,0.828,2.756,1.721,4.547,2.731c2.503,1.431,5.325,2.396,7.923,3.795c0.914,0.123,1.861,0.269,2.824,0.472
	c2.854,0.57,5.384,1.565,7.198,3.699c4.616,5.83,6.593,8.427,8.393,11.138c2.245,0.526,4.656,1.223,7.774,2.842
	c0.031,0.011,0.085,0.042,0.115,0.053c0.03,0.011,0.084,0.043,0.113,0.054c8.128,4.121,0.698,15.162,4.477,19.836
	c0.732,0.897,1.478,1.569,2.228,2.08c0.783,0.372,1.6,0.642,2.438,0.834c0.336,0.077,0.678,0.134,1.022,0.189
	c2.121,0.366,4.271,0.321,6.403,0.868c1.864,0.478,3.658,1.374,5.453,3.057c2.923,2.743,2.841,4.438,4.166,7.814
	c1.284,3.335,3.106,5.371,5.09,8.143c2.889,4.003,3.861,7.421,4.168,11.656c0.072,0.576,0.16,1.262,0.225,1.919
	c0.068,0.692,0.132,1.433,0.191,2.226c0.303,5.638,3.411,10.281,0.66,16.094c-2.371,6.513-1.514,9.018,5.783,12.314
	c6.67,3.254,10.192,9.333,12.502,16.937c2.149,7.131,3.127,12.691,0.507,19.827c-1.512,4.188-4.496,8.415-5.537,13.149
	c-0.512,2.51-0.311,4.524,0.029,6.521c0.006,0.01,0.003,0.036,0.008,0.046c0.006,0.01,0.003,0.036,0.008,0.046
	c0.323,1.42,0.753,2.789,1.049,4.32c0.001,0.002,0.003,0.007,0.004,0.009c0.003,0.007,0.012,0.027,0.016,0.035
	c2.242,4.929,3.428,13.656-0.923,17.192c-0.447,0.384-0.944,0.646-1.462,0.915c-2.878,1.494-6.614,1.593-10.456,1.861
	c-2.41,0.03-4.752,0.193-6.793,0.843c-1.753,0.559-3.233,1.595-4.116,3.671c-1.538,2.758,0.814,5.931-1.265,10.13
	c-0.407,0.67-0.92,1.355-1.568,2.058c-1.451,1.618-3.45,2.305-4.839,3.826c-0.693,0.84-1.114,1.46-1.395,1.982
	c-0.009,0.095-0.016,0.188-0.021,0.281c0.209,1.46,0.75,2.679,0.905,4.299c0.244,3.141-0.437,6.274-0.943,9.122
	c0.022,2.357,0.226,4.855,1.071,7.367c1.639,4.928,4.513,8.559,4.201,14.795c-0.433,8.713-5.492,13.702-12.459,15.877
	c-0.976,0.305-2.001,0.577-3.088,0.772c-2.007,0.276-2.964-0.297-4.93-0.012c-0.332,0.048-0.665,0.134-1.035,0.214
	c-2.173,0.497-4.104,1.513-5.932,2.585c-1.302,1.712-2.544,3.483-3.831,4.968c-4.464,5.47-10.42,8.069-16.943,8.27
	c-0.466,0.015-0.934,0.018-1.404,0.008c-9.103-0.188-18.932-4.93-26.42-11.806c-0.01-0.009-0.034-0.031-0.044-0.041
	c-0.01-0.009-0.034-0.031-0.044-0.041c-8.233-7.651-13.871-17.164-20.067-25.634c-0.68-0.932-1.367-1.853-2.065-2.759
	c-1.263-0.602-2.589-1.208-3.987-1.807c-3.649-1.586-7.33-3.968-12.633-3.596c-0.15,0.011-0.3,0.022-0.449,0.032
	c-3.592,0.321-5.612,2.005-7.254,4.015c-1.414,1.659-2.546,3.53-4.066,5.038c-2.712,2.827-7.09,4.067-11.494,3.328
	c-2.979-0.512-5.938-1.888-8.413-4.26c-2.877-2.721-4.62-5.383-6.359-7.529c-2.765-1.917-5.589-3.455-10.301-3.974
	c-10.386-1.446-12.927-8.235-19.286-13.729c-0.97-0.929-1.875-1.741-2.779-2.421c-0.935-0.703-2.021-1.462-3.136-2.244
	c-5.538-3.884-12.102-8.572-14.916-16.381c-0.913-2.647-1.089-5.536-1.578-8.477c-0.112-0.68-0.236-1.345-0.389-1.99
	c-0.317-0.423-0.671-0.848-1.07-1.277c-0.596-0.659-1.245-1.28-1.933-1.879c-4.258-3.758-9.525-6.032-13.382-9.862
	c-3.14-3.04-5.287-7.017-6.511-11.469c-2.194-7.954-1.395-17.165,1.701-24.587c0.004-0.01,0.015-0.035,0.019-0.045
	c0.004-0.01,0.015-0.035,0.019-0.045c3.275-7.677,10.207-10.14,13.328-16.151c0.291-0.487,0.567-0.967,0.828-1.44
	c0.036-0.065,0.074-0.131,0.111-0.198c0.204-0.643,0.404-1.3,0.603-1.964c1.607-5.364,3.128-11.214,7.1-16.262
	c0.17-0.291,1.528-1.515,1.931-2.255c1.06-1.959,2.7-3.737,4.512-5.321c0.215-0.167,0.723-0.643,0.941-0.8
	c0.894-0.814,1.806-1.561,2.672-2.241c3.354-2.61,6.288-5.36,9.774-7.354c1.602-0.913,3.089-1.51,4.364-2.19
	c0.009-0.004,0.031-0.017,0.039-0.021c0.008-0.004,0.031-0.017,0.039-0.021c0.845-0.445,1.695-1.085,2.407-1.999
	c0.254-0.33,0.493-0.699,0.716-1.117c0.061-0.461,0.106-0.956,0.135-1.492c0.177-3.85-1.426-7.056-1.634-10.437
	c-0.262-4.484,1.222-7.92,3.013-11.375c0.089-0.321,0.183-0.642,0.28-0.965c1.365-4.422,1.492-6.69,1.139-11.208
	c-0.101-1.986,0.02-3.672,0.24-5.238c0.011-0.829,0.024-1.749,0.073-2.606c0.041-0.841,0.098-1.697,0.165-2.586
	c0.023-0.203,0.036-0.445,0.043-0.704c0.03-0.46,0.033-0.949,0.031-1.404c0.05-3.665-1.101-7.646-1.809-12.151
	c-1.062-6.601-4.16-16.861,5.606-19.369c0.687-0.265,1.453-0.526,2.339-0.764c4.042-0.651,5.493,1.583,9.619,1.836
	c0.641,0.09,1.291,0.081,1.952,0.015c2.229-0.223,4.418-1.314,6.643-2.382c1.188-0.599,2.364-1.194,3.572-1.631
	c0.48-0.196,0.956-0.361,1.429-0.485c1.686-0.503,3.328-0.604,4.94-0.475c1.286-0.365,2.562-0.575,3.833-0.731
	c0.171-0.053,1.066-0.102,1.232-0.146c1.761-0.21,3.495-0.354,5.165-0.619c0.365-0.059,0.713-0.123,1.044-0.19
	c0.462-0.26,0.905-0.544,1.336-0.847c0.014-0.007,0.052-0.038,0.066-0.046c0.014-0.007,0.052-0.038,0.066-0.046
	c3.066-2.171,4.97-4.961,8.039-7.397c3.74-2.928,7.415-4.25,12.191-4.46C188.165,46.909,188.365,46.904,188.601,46.901"/>
<path class="st1" d="M188.422,43.657c0.778,0,2.758,0.06,3.313,0.229l0,0c0.23,0.07,0.922,0.269,1.135,0.355
	c1.737,0.444,3.304,1.077,5.211,1.588c0.98,0.271,1.957,0.449,2.895,0.578c0.715,0.099,1.405,0.179,2.071,0.227
	c3.306-0.541,7.043-1.717,10.922-1.717c4.096,0,7.946,1.192,11.364,4.264c2.586,2.299,4.295,4.998,5.948,7.937
	c0.006,0.016,0.054,0.09,0.06,0.106c0.006,0.016,0.053,0.091,0.059,0.107c0.711,1.28,1.356,2.538,2.031,3.726
	c1.346,0.813,2.945,1.706,4.818,2.744c2.612,1.466,5.527,2.552,8.196,4.145c0.949,0.138,1.935,0.305,2.944,0.532
	c2.969,0.637,5.598,1.721,7.51,3.919c4.72,5.835,6.813,8.737,8.563,11.806c2.384,0.584,4.909,1.377,8.083,3.087
	c0.029,0.01,0.086,0.043,0.114,0.054c0.028,0.011,0.084,0.044,0.112,0.055c8.103,4.234,1.287,15.011,4.974,19.742
	c0.713,0.905,1.437,1.597,2.162,2.135c0.77,0.382,1.578,0.674,2.41,0.894c0.331,0.087,0.669,0.156,1.01,0.223
	c2.101,0.447,4.222,0.5,6.31,1.122c1.844,0.549,3.605,1.502,5.361,3.192c2.854,2.744,2.85,4.496,4.157,7.833
	c1.283,3.331,3.049,5.432,4.953,8.223c2.772,4.03,3.701,7.496,3.994,11.723c0.074,0.57,0.168,1.263,0.239,1.918
	c0.074,0.689,0.144,1.43,0.211,2.224c0.34,5.545,3.336,10.255,0.7,16.124c-1.99,6.347-0.962,8.948,6.116,12.339
	c6.512,3.39,10.009,9.501,12.32,17.107c2.154,7.149,3.176,12.838,0.683,20.053c-1.44,4.251-4.315,8.555-5.423,13.355
	c-0.535,2.507-0.408,4.549-0.163,6.578c0.005,0.009,0.001,0.037,0.006,0.047s0.001,0.037,0.006,0.047
	c0.258,1.429,0.615,2.802,0.847,4.322c0.001,0.002,0.003,0.007,0.004,0.009c0.003,0.007,0.013,0.028,0.016,0.035
	c2.269,4.987,3.504,13.664-0.6,17.466c-0.421,0.412-0.895,0.706-1.383,1.012c-2.75,1.719-6.326,2.15-10.1,2.715
	c-2.356,0.201-4.663,0.519-6.712,1.267c-1.735,0.634-3.229,1.7-4.162,3.743c-1.675,2.789,0.286,5.923-1.966,9.972
	c-0.447,0.651-0.993,1.313-1.67,1.989c-1.507,1.554-3.538,2.216-5.002,3.652c-0.726,0.793-1.193,1.376-1.527,1.863
	c-0.012,0.095-0.021,0.19-0.03,0.282c0.206,1.483,0.719,2.734,0.863,4.36c0.223,3.207-0.455,6.375-0.964,9.227
	c0.087,2.346,0.359,4.86,1.226,7.423c1.646,4.926,4.437,8.698,4.122,15.003c-0.446,8.991-5.571,14.328-12.682,16.801
	c-1.006,0.35-2.061,0.667-3.179,0.903c-2.039,0.343-3.099-0.132-5.12,0.193c-0.345,0.055-0.691,0.147-1.073,0.231
	c-2.25,0.525-4.284,1.519-6.23,2.541c-1.358,1.774-2.674,3.586-4.043,5.11c-4.693,5.543-10.908,8.203-17.713,8.393
	c-0.484,0.014-0.97,0.016-1.457,0.005c-9.457-0.215-19.641-5.093-27.445-12.258c-0.009-0.009-0.035-0.032-0.044-0.041
	c-0.009-0.009-0.035-0.032-0.044-0.041c-8.324-7.735-14.042-17.292-20.239-25.797c-0.684-0.94-1.374-1.87-2.073-2.785
	c-1.281-0.487-2.626-0.983-4.045-1.481c-3.704-1.319-7.472-3.437-12.793-3.013c-0.151,0.012-0.301,0.025-0.452,0.037
	c-3.576,0.345-5.673,1.957-7.418,3.855c-1.507,1.567-2.745,3.317-4.347,4.708c-2.846,2.613-7.252,3.682-11.661,2.836
	c-2.986-0.585-5.943-2.006-8.428-4.388c-2.893-2.736-4.673-5.411-6.418-7.572c-2.872-1.844-5.768-3.358-10.42-3.929
	c-10.423-1.611-13.183-8.438-19.415-13.887c-1.002-0.975-1.923-1.82-2.843-2.514c-0.951-0.718-2.071-1.501-3.224-2.31
	c-5.614-3.937-12.395-8.772-15.416-16.828c-0.972-2.705-1.227-5.664-1.747-8.7c-0.119-0.701-0.247-1.386-0.4-2.05
	c-0.343-0.42-0.723-0.844-1.146-1.273c-0.629-0.657-1.31-1.282-2.029-1.891c-4.43-3.807-9.736-6.31-13.616-10.355
	c-3.145-3.195-5.298-7.316-6.518-11.916c-2.185-8.213-1.344-17.655,1.85-25.314c0.004-0.01,0.015-0.036,0.019-0.045
	c0.004-0.01,0.015-0.035,0.019-0.045c3.335-7.825,10.257-10.492,13.468-16.386c0.307-0.486,0.598-0.964,0.873-1.434
	c0.038-0.065,0.078-0.131,0.118-0.197c0.206-0.65,0.408-1.316,0.609-1.989c1.613-5.387,3.168-11.314,7.159-16.49
	c0.195-0.332,1.513-1.546,1.933-2.302c1.087-1.977,2.734-3.782,4.559-5.401c0.203-0.158,0.74-0.669,0.947-0.817
	c0.891-0.837,1.801-1.606,2.669-2.309c3.359-2.695,6.35-5.474,9.854-7.506c1.608-0.93,3.107-1.554,4.401-2.251
	c0.008-0.004,0.032-0.018,0.04-0.022s0.032-0.018,0.04-0.022c0.84-0.446,1.707-1.099,2.449-2.015
	c0.263-0.329,0.515-0.698,0.752-1.112c0.053-0.47,0.093-0.972,0.118-1.512c0.148-3.907-1.341-7.18-1.49-10.591
	c-0.179-4.547,1.339-8.05,3.129-11.509c0.082-0.327,0.167-0.654,0.256-0.982c1.258-4.484,1.396-6.884,1.097-11.369
	c-0.076-2.007,0.064-3.717,0.295-5.3c0.001-0.832-0.003-1.773,0.031-2.638c0.025-0.853,0.066-1.721,0.117-2.621
	c0.02-0.202,0.027-0.447,0.029-0.712c0.021-0.464,0.014-0.961,0.004-1.42c-0.007-3.661-1.173-7.713-1.865-12.302
	c-1.036-6.694-3.89-16.924,5.715-19.791c0.689-0.303,1.462-0.608,2.358-0.894c4.002-0.806,5.654,1.089,9.951,1.2
	c0.657,0.068,1.324,0.045,2.004-0.031c2.285-0.254,4.553-1.31,6.88-2.319c1.236-0.565,2.463-1.12,3.729-1.519
	c0.499-0.18,0.994-0.33,1.485-0.439c1.737-0.45,3.428-0.505,5.085-0.328c1.319-0.394,2.628-0.632,3.927-0.809
	c0.195-0.061,1.074-0.116,1.264-0.166c1.82-0.24,3.604-0.398,5.306-0.659c0.376-0.059,0.733-0.121,1.074-0.186
	c0.465-0.278,0.914-0.578,1.354-0.898c0.013-0.007,0.054-0.041,0.067-0.048c0.013-0.007,0.053-0.041,0.067-0.048
	c3.125-2.279,5.168-5.095,8.331-7.528c3.856-2.928,7.678-4.267,12.575-4.487C187.972,43.666,188.18,43.661,188.422,43.657"/>
<path class="st1" d="M188.243,40.414c0.733,0,2.846,0.047,3.368,0.206l0,0c0.216,0.066,0.955,0.274,1.156,0.356
	c1.785,0.431,3.396,1.052,5.312,1.563c1,0.275,1.992,0.463,2.939,0.609c0.728,0.112,1.428,0.207,2.1,0.271
	c3.323-0.558,7.119-1.725,11.101-1.725c4.296,0,8.334,1.232,11.915,4.334c2.726,2.333,4.594,5.105,6.367,8.163
	c0.005,0.015,0.059,0.095,0.064,0.111c0.005,0.015,0.058,0.096,0.063,0.111c0.761,1.333,1.442,2.642,2.136,3.879
	c1.438,0.797,3.134,1.691,5.09,2.757c2.72,1.5,5.73,2.709,8.47,4.495c0.983,0.154,2.01,0.34,3.065,0.592
	c3.084,0.704,5.812,1.878,7.822,4.139c4.823,5.84,7.032,9.047,8.733,12.475c2.523,0.642,5.161,1.531,8.391,3.332
	c0.027,0.01,0.086,0.045,0.112,0.055c0.027,0.01,0.084,0.046,0.11,0.056c8.078,4.348,1.876,14.861,5.471,19.647
	c0.694,0.914,1.395,1.624,2.095,2.19c0.758,0.391,1.556,0.706,2.382,0.953c0.327,0.098,0.66,0.178,0.997,0.258
	c2.081,0.528,4.174,0.679,6.218,1.375c1.823,0.621,3.552,1.63,5.269,3.327c2.785,2.745,2.858,4.554,4.149,7.852
	c1.281,3.327,2.992,5.492,4.816,8.303c2.655,4.056,3.541,7.571,3.819,11.789c0.076,0.565,0.177,1.265,0.253,1.917
	c0.079,0.687,0.157,1.427,0.231,2.222c0.376,5.452,3.261,10.229,0.739,16.154c-1.608,6.18-0.41,8.879,6.448,12.363
	c6.354,3.526,9.827,9.668,12.138,17.277c2.16,7.166,3.225,12.985,0.858,20.28c-1.368,4.314-4.135,8.694-5.309,13.56
	c-0.558,2.504-0.506,4.574-0.356,6.635c0.005,0.009-0.001,0.038,0.004,0.047c0.005,0.009-0.001,0.038,0.004,0.047
	c0.193,1.438,0.477,2.815,0.645,4.324c0.001,0.002,0.003,0.008,0.004,0.009c0.003,0.006,0.013,0.029,0.016,0.036
	c2.296,5.044,3.58,13.673-0.277,17.74c-0.396,0.439-0.845,0.767-1.304,1.108c-2.621,1.947-6.039,2.707-9.745,3.568
	c-2.303,0.372-4.574,0.843-6.63,1.691c-1.717,0.708-3.224,1.804-4.208,3.815c-1.811,2.82-0.241,5.916-2.666,9.814
	c-0.486,0.632-1.067,1.271-1.772,1.92c-1.564,1.491-3.627,2.127-5.166,3.478c-0.758,0.747-1.272,1.292-1.659,1.744
	c-0.014,0.096-0.027,0.191-0.038,0.284c0.203,1.506,0.688,2.789,0.821,4.42c0.203,3.272-0.474,6.476-0.984,9.333
	c0.151,2.334,0.492,4.866,1.382,7.479c1.654,4.924,4.362,8.838,4.043,15.21c-0.46,9.269-5.648,14.956-12.905,17.725
	c-1.036,0.395-2.121,0.756-3.27,1.034c-2.072,0.409-3.234,0.034-5.31,0.397c-0.358,0.063-0.718,0.159-1.111,0.248
	c-2.326,0.553-4.463,1.524-6.527,2.497c-1.414,1.835-2.804,3.688-4.255,5.252c-4.922,5.617-11.396,8.337-18.484,8.516
	c-0.502,0.013-1.005,0.014-1.511,0.001c-9.811-0.242-20.35-5.255-28.47-12.71c-0.009-0.008-0.036-0.033-0.044-0.041
	c-0.009-0.008-0.035-0.033-0.044-0.041c-8.416-7.818-14.213-17.42-20.412-25.959c-0.687-0.949-1.38-1.887-2.081-2.81
	c-1.299-0.371-2.664-0.759-4.103-1.155c-3.759-1.052-7.614-2.907-12.952-2.429c-0.151,0.014-0.303,0.028-0.454,0.041
	c-3.56,0.368-5.735,1.908-7.583,3.694c-1.6,1.475-2.945,3.104-4.627,4.379c-2.979,2.4-7.417,3.305-11.829,2.345
	c-2.994-0.652-5.948-2.125-8.444-4.517c-2.909-2.752-4.727-5.44-6.478-7.614c-2.979-1.77-5.948-3.261-10.54-3.885
	c-10.46-1.776-13.439-8.641-19.544-14.045c-1.033-1.022-1.972-1.899-2.906-2.607c-0.966-0.733-2.121-1.541-3.313-2.376
	c-5.69-3.991-12.688-8.973-15.916-17.275c-1.031-2.764-1.366-5.792-1.917-8.923c-0.126-0.722-0.257-1.427-0.41-2.11
	c-0.369-0.416-0.775-0.839-1.222-1.269c-0.662-0.654-1.375-1.284-2.125-1.903c-4.603-3.856-9.947-6.588-13.85-10.847
	c-3.15-3.35-5.308-7.615-6.525-12.363c-2.177-8.471-1.294-18.146,2-26.041c0.004-0.009,0.015-0.036,0.019-0.045
	s0.015-0.036,0.019-0.045c3.395-7.973,10.306-10.845,13.607-16.621c0.323-0.486,0.63-0.961,0.919-1.428
	c0.04-0.065,0.082-0.13,0.124-0.196c0.208-0.658,0.412-1.332,0.616-2.015c1.618-5.41,3.208-11.414,7.217-16.717
	c0.219-0.374,1.498-1.577,1.934-2.35c1.113-1.995,2.767-3.827,4.605-5.481c0.191-0.149,0.758-0.696,0.952-0.835
	c0.888-0.859,1.796-1.651,2.667-2.377c3.365-2.78,6.412-5.588,9.934-7.658c1.615-0.947,3.126-1.598,4.438-2.312
	c0.008-0.004,0.033-0.018,0.04-0.022c0.008-0.004,0.033-0.018,0.04-0.022c0.834-0.446,1.72-1.113,2.491-2.03
	c0.273-0.329,0.536-0.696,0.788-1.107c0.046-0.479,0.08-0.988,0.101-1.532c0.118-3.963-1.257-7.303-1.346-10.744
	c-0.096-4.611,1.455-8.179,3.246-11.642c0.074-0.333,0.151-0.666,0.233-1c1.151-4.547,1.301-7.079,1.054-11.53
	c-0.05-2.029,0.109-3.762,0.35-5.362c-0.008-0.835-0.029-1.796-0.011-2.67c0.01-0.866,0.034-1.746,0.069-2.655
	c0.016-0.201,0.019-0.45,0.015-0.72c0.011-0.467-0.005-0.974-0.023-1.437c-0.064-3.658-1.244-7.78-1.921-12.453
	c-1.009-6.786-3.62-16.988,5.823-20.212c0.691-0.34,1.471-0.69,2.377-1.024c3.963-0.961,5.814,0.595,10.283,0.564
	c0.673,0.047,1.358,0.009,2.057-0.076c2.341-0.285,4.689-1.306,7.116-2.256c1.284-0.532,2.562-1.047,3.886-1.407
	c0.518-0.164,1.032-0.298,1.542-0.392c1.788-0.397,3.528-0.406,5.23-0.182c1.353-0.423,2.693-0.688,4.02-0.887
	c0.22-0.068,1.082-0.131,1.295-0.187c1.88-0.27,3.712-0.442,5.447-0.7c0.386-0.058,0.754-0.119,1.104-0.182
	c0.468-0.295,0.923-0.613,1.372-0.949c0.013-0.006,0.055-0.044,0.068-0.05c0.012-0.006,0.055-0.044,0.068-0.05
	c3.184-2.388,5.367-5.229,8.622-7.659c3.972-2.928,7.942-4.284,12.959-4.514C187.778,40.424,187.995,40.418,188.243,40.414"/>
<path class="st1" d="M188.064,37.17c0.687,0,2.933,0.034,3.423,0.183l0,0c0.203,0.062,0.988,0.28,1.176,0.357
	c1.834,0.418,3.489,1.027,5.412,1.538c1.02,0.278,2.026,0.478,2.983,0.639c0.742,0.125,1.451,0.235,2.129,0.316
	c3.339-0.575,7.196-1.734,11.28-1.734c4.496,0,8.721,1.273,12.465,4.405c2.865,2.366,4.894,5.213,6.786,8.388
	c0.005,0.014,0.063,0.1,0.068,0.115c0.005,0.014,0.062,0.101,0.068,0.116c0.812,1.385,1.528,2.747,2.242,4.032
	c1.531,0.781,3.323,1.676,5.362,2.77c2.828,1.534,5.932,2.865,8.743,4.846c1.018,0.169,2.084,0.376,3.185,0.652
	c3.198,0.771,6.026,2.035,8.134,4.359c4.927,5.846,7.252,9.357,8.903,13.143c2.663,0.7,5.414,1.685,8.7,3.577
	c0.026,0.009,0.086,0.046,0.111,0.056c0.025,0.009,0.085,0.047,0.109,0.057c8.053,4.461,2.464,14.71,5.968,19.553
	c0.675,0.922,1.354,1.652,2.029,2.244c0.746,0.401,1.534,0.737,2.353,1.013c0.322,0.109,0.652,0.2,0.984,0.292
	c2.061,0.609,4.125,0.86,6.126,1.629c1.803,0.693,3.498,1.757,5.177,3.462c2.716,2.746,2.866,4.612,4.141,7.871
	c1.279,3.324,2.935,5.553,4.679,8.382c2.538,4.082,3.382,7.647,3.645,11.855c0.077,0.559,0.186,1.266,0.267,1.916
	c0.085,0.684,0.17,1.424,0.251,2.219c0.412,5.359,3.186,10.203,0.778,16.183c-1.227,6.013,0.142,8.809,6.78,12.388
	c6.197,3.661,9.644,9.836,11.956,17.448c2.165,7.184,3.274,13.131,1.033,20.507c-1.296,4.378-3.954,8.833-5.195,13.765
	c-0.581,2.501-0.603,4.599-0.548,6.692c0.005,0.008-0.003,0.04,0.002,0.048c0.005,0.008-0.003,0.04,0.002,0.048
	c0.128,1.446,0.339,2.829,0.443,4.326c0.001,0.002,0.004,0.008,0.004,0.009c0.003,0.006,0.014,0.03,0.017,0.036
	c2.323,5.102,3.656,13.681,0.047,18.014c-0.37,0.467-0.795,0.829-1.225,1.205c-2.491,2.179-5.752,3.264-9.39,4.422
	c-2.249,0.543-4.485,1.167-6.549,2.115c-1.699,0.781-3.22,1.909-4.254,3.887c-1.948,2.852-0.768,5.908-3.367,9.656
	c-0.525,0.612-1.141,1.229-1.874,1.852c-1.62,1.427-3.715,2.038-5.329,3.305c-0.791,0.7-1.351,1.208-1.79,1.625
	c-0.017,0.097-0.033,0.192-0.047,0.286c0.201,1.528,0.657,2.844,0.778,4.48c0.183,3.338-0.493,6.577-1.005,9.438
	c0.215,2.323,0.625,4.871,1.537,7.535c1.662,4.922,4.286,8.977,3.964,15.417c-0.474,9.547-5.725,15.585-13.129,18.649
	c-1.065,0.441-2.18,0.845-3.362,1.165c-2.105,0.476-3.37,0.2-5.5,0.601c-0.372,0.07-0.744,0.171-1.149,0.265
	c-2.403,0.581-4.642,1.53-6.825,2.454c-1.471,1.896-2.934,3.791-4.468,5.394c-5.152,5.69-11.884,8.471-19.254,8.639
	c-0.52,0.013-1.041,0.012-1.565-0.002c-10.165-0.269-21.06-5.418-29.494-13.163c-0.008-0.008-0.036-0.034-0.045-0.041
	s-0.036-0.034-0.045-0.041c-8.507-7.901-14.383-17.547-20.585-26.122c-0.691-0.957-1.386-1.904-2.089-2.835
	c-1.316-0.256-2.702-0.534-4.162-0.829c-3.814-0.785-7.756-2.377-13.111-1.846c-0.152,0.016-0.305,0.031-0.457,0.046
	c-3.543,0.391-5.796,1.859-7.747,3.534c-1.693,1.383-3.145,2.891-4.908,4.05c-3.113,2.187-7.58,2.919-11.997,1.853
	c-3.002-0.725-5.953-2.244-8.459-4.645c-2.925-2.768-4.78-5.468-6.537-7.657c-3.086-1.696-6.127-3.165-10.659-3.84
	c-10.497-1.942-13.695-8.843-19.673-14.203c-1.064-1.068-2.02-1.978-2.969-2.7c-0.982-0.748-2.171-1.58-3.401-2.443
	c-5.766-4.044-12.982-9.174-16.416-17.722c-1.09-2.822-1.505-5.92-2.087-9.146c-0.133-0.743-0.268-1.468-0.42-2.17
	c-0.395-0.413-0.826-0.835-1.298-1.264c-0.694-0.652-1.44-1.285-2.221-1.915c-4.776-3.905-10.158-6.866-14.083-11.34
	c-3.155-3.505-5.319-7.914-6.532-12.809c-2.168-8.73-1.243-18.636,2.149-26.768c0.004-0.008,0.016-0.037,0.019-0.046
	c0.004-0.008,0.016-0.037,0.019-0.046c3.455-8.12,10.355-11.197,13.747-16.856c0.339-0.485,0.661-0.959,0.965-1.422
	c0.042-0.064,0.086-0.129,0.13-0.195c0.209-0.665,0.416-1.348,0.622-2.04c1.624-5.432,3.247-11.514,7.275-16.944
	c0.243-0.415,1.483-1.608,1.936-2.398c1.14-2.012,2.801-3.872,4.652-5.562c0.179-0.14,0.775-0.722,0.957-0.853
	c0.885-0.882,1.791-1.696,2.665-2.445c3.371-2.865,6.474-5.702,10.013-7.81c1.622-0.963,3.144-1.642,4.475-2.373
	c0.007-0.003,0.034-0.019,0.041-0.023c0.007-0.004,0.034-0.019,0.041-0.023c0.829-0.447,1.733-1.128,2.534-2.046
	c0.283-0.329,0.558-0.694,0.824-1.102c0.039-0.489,0.067-1.004,0.084-1.552c0.088-4.02-1.173-7.426-1.203-10.898
	c-0.013-4.674,1.571-8.309,3.363-11.776c0.066-0.339,0.136-0.678,0.209-1.018c1.044-4.609,1.205-7.274,1.011-11.691
	c-0.024-2.05,0.153-3.807,0.405-5.424c-0.018-0.839-0.056-1.82-0.053-2.702c-0.006-0.878,0.003-1.77,0.021-2.689
	c0.013-0.199,0.011-0.452,0.001-0.728c0.002-0.471-0.024-0.986-0.05-1.453c-0.12-3.655-1.316-7.847-1.977-12.604
	c-0.983-6.879-3.35-17.051,5.931-20.634c0.693-0.378,1.48-0.771,2.395-1.154c3.923-1.115,5.975,0.101,10.615-0.072
	c0.689,0.025,1.392-0.027,2.109-0.122c2.397-0.317,4.825-1.302,7.353-2.192c1.332-0.499,2.661-0.974,4.043-1.295
	c0.537-0.148,1.07-0.267,1.598-0.346c1.84-0.344,3.628-0.307,5.374-0.036c1.386-0.452,2.759-0.744,4.114-0.966
	c0.244-0.076,1.09-0.145,1.327-0.208c1.94-0.3,3.821-0.486,5.589-0.74c0.396-0.058,0.774-0.117,1.134-0.178
	c0.471-0.313,0.932-0.647,1.39-1c0.012-0.006,0.057-0.046,0.069-0.052c0.012-0.006,0.057-0.046,0.069-0.052
	c3.243-2.497,5.565-5.363,8.913-7.79c4.088-2.928,8.206-4.302,13.342-4.54C187.585,37.181,187.81,37.175,188.064,37.17"/>
<path class="st1" d="M187.885,33.926c0.641,0,3.021,0.022,3.478,0.161l0,0c0.189,0.058,1.021,0.286,1.196,0.358
	c1.882,0.405,3.581,1.001,5.512,1.513c1.041,0.282,2.061,0.493,3.027,0.669c0.755,0.138,1.474,0.263,2.157,0.36
	c3.355-0.592,7.272-1.742,11.459-1.742c4.696,0,9.108,1.314,13.016,4.476c3.005,2.4,5.193,5.32,7.204,8.614
	c0.005,0.014,0.068,0.106,0.073,0.119c0.005,0.014,0.067,0.106,0.072,0.12c0.862,1.437,1.614,2.852,2.347,4.185
	c1.623,0.766,3.512,1.661,5.633,2.782c2.936,1.569,6.135,3.021,9.017,5.196c1.052,0.185,2.159,0.412,3.305,0.712
	c3.313,0.838,6.239,2.192,8.445,4.579c5.03,5.851,7.472,9.667,9.073,13.812c2.802,0.758,5.667,1.839,9.009,3.823
	c0.024,0.009,0.086,0.048,0.109,0.057c0.023,0.009,0.085,0.049,0.107,0.058c8.028,4.575,3.053,14.559,6.465,19.459
	c0.656,0.93,1.312,1.68,1.963,2.299c0.734,0.411,1.512,0.768,2.325,1.073c0.317,0.119,0.643,0.222,0.971,0.327
	c2.042,0.69,4.077,1.041,6.034,1.883c1.782,0.766,3.445,1.885,5.085,3.597c2.646,2.747,2.874,4.67,4.132,7.89
	c1.278,3.32,2.878,5.614,4.542,8.462c2.421,4.109,3.222,7.722,3.47,11.922c0.079,0.554,0.194,1.267,0.281,1.915
	c0.09,0.682,0.182,1.421,0.271,2.217c0.449,5.266,3.11,10.177,0.818,16.212c-0.846,5.847,0.693,8.74,7.113,12.412
	c6.039,3.797,9.461,10.003,11.774,17.618c2.17,7.201,3.323,13.278,1.209,20.733c-1.224,4.441-3.774,8.973-5.08,13.971
	c-0.604,2.498-0.7,4.624-0.741,6.749c0.004,0.008-0.005,0.041,0,0.049s-0.005,0.041,0,0.049c0.063,1.455,0.201,2.842,0.241,4.328
	c0.001,0.001,0.004,0.008,0.004,0.009c0.003,0.006,0.014,0.032,0.017,0.037c2.35,5.16,3.733,13.689,0.37,18.288
	c-0.345,0.494-0.745,0.891-1.146,1.301c-2.358,2.415-5.465,3.822-9.034,5.276c-2.196,0.713-4.397,1.49-6.468,2.539
	c-1.682,0.853-3.216,2.013-4.3,3.959c-2.084,2.883-1.296,5.901-4.068,9.498c-0.565,0.593-1.214,1.187-1.976,1.783
	c-1.677,1.363-3.803,1.949-5.492,3.132c-0.823,0.653-1.429,1.123-1.922,1.506c-0.02,0.097-0.038,0.193-0.056,0.288
	c0.198,1.551,0.626,2.899,0.736,4.54c0.162,3.404-0.512,6.678-1.025,9.544c0.279,2.312,0.758,4.876,1.692,7.591
	c1.67,4.92,4.211,9.116,3.886,15.625c-0.488,9.824-5.801,16.216-13.352,19.573c-1.094,0.487-2.24,0.935-3.453,1.296
	c-2.138,0.543-3.505,0.366-5.69,0.805c-0.385,0.077-0.771,0.184-1.187,0.282c-2.48,0.608-4.821,1.535-7.123,2.41
	c-1.527,1.958-3.064,3.894-4.68,5.536c-5.381,5.763-12.372,8.606-20.025,8.762c-0.537,0.012-1.077,0.01-1.619-0.005
	c-10.519-0.296-21.769-5.581-30.519-13.615c-0.008-0.007-0.037-0.034-0.045-0.042s-0.037-0.034-0.045-0.042
	c-8.599-7.985-14.554-17.675-20.758-26.284c-0.694-0.966-1.392-1.921-2.097-2.86c-1.334-0.141-2.739-0.31-4.22-0.503
	c-3.869-0.518-7.898-1.846-13.27-1.262c-0.153,0.017-0.306,0.034-0.46,0.05c-3.527,0.415-5.858,1.811-7.911,3.374
	c-1.786,1.291-3.344,2.679-5.188,3.72c-3.247,1.973-7.742,2.534-12.164,1.362c-3.009-0.798-5.958-2.363-8.475-4.774
	c-2.941-2.783-4.834-5.497-6.597-7.699c-3.193-1.622-6.306-3.068-10.778-3.795c-10.534-2.107-13.951-9.046-19.802-14.361
	c-1.096-1.115-2.069-2.057-3.032-2.793c-0.997-0.763-2.221-1.62-3.489-2.509c-5.842-4.097-13.275-9.374-16.915-18.169
	c-1.148-2.88-1.643-6.048-2.256-9.369c-0.14-0.764-0.278-1.509-0.43-2.23c-0.421-0.41-0.878-0.83-1.374-1.26
	c-0.727-0.65-1.505-1.287-2.317-1.928c-4.948-3.954-10.369-7.144-14.317-11.832c-3.159-3.659-5.33-8.213-6.538-13.257
	c-2.16-8.989-1.192-19.126,2.298-27.494c0.003-0.008,0.016-0.038,0.019-0.046c0.003-0.008,0.016-0.038,0.02-0.046
	c3.515-8.268,10.404-11.55,13.887-17.09c0.355-0.485,0.693-0.956,1.01-1.416c0.044-0.064,0.09-0.129,0.137-0.194
	c0.211-0.672,0.42-1.364,0.629-2.065c1.629-5.455,3.287-11.614,7.334-17.172c0.268-0.457,1.468-1.64,1.938-2.446
	c1.166-2.03,2.834-3.917,4.699-5.642c0.167-0.13,0.792-0.749,0.962-0.871c0.881-0.904,1.786-1.741,2.663-2.513
	c3.377-2.95,6.535-5.817,10.093-7.963c1.628-0.98,3.162-1.686,4.512-2.434c0.007-0.003,0.035-0.02,0.042-0.023
	c0.007-0.003,0.035-0.02,0.042-0.023c0.823-0.447,1.745-1.142,2.576-2.062c0.293-0.328,0.58-0.692,0.86-1.096
	c0.031-0.498,0.054-1.02,0.067-1.572c0.059-4.076-1.088-7.55-1.059-11.052c0.07-4.737,1.688-8.438,3.479-11.91
	c0.058-0.346,0.12-0.69,0.186-1.035c0.938-4.672,1.11-7.468,0.968-11.852c0.001-2.072,0.197-3.852,0.46-5.486
	c-0.028-0.842-0.082-1.843-0.095-2.734c-0.021-0.89-0.029-1.794-0.027-2.724c0.01-0.198,0.002-0.454-0.013-0.737
	c-0.007-0.475-0.043-0.998-0.077-1.469c-0.177-3.651-1.387-7.913-2.032-12.755c-0.956-6.972-3.081-17.115,6.04-21.056
	c0.695-0.416,1.489-0.853,2.414-1.283c3.883-1.27,6.136-0.392,10.947-0.708c0.705,0.004,1.425-0.064,2.162-0.168
	c2.453-0.348,4.961-1.298,7.589-2.129c1.38-0.466,2.76-0.9,4.2-1.183c0.556-0.132,1.108-0.236,1.654-0.3
	c1.891-0.29,3.728-0.208,5.519,0.11c1.42-0.481,2.824-0.8,4.208-1.044c0.269-0.084,1.098-0.16,1.359-0.229
	c1.999-0.33,3.929-0.529,5.73-0.78c0.406-0.057,0.795-0.115,1.164-0.174c0.474-0.33,0.941-0.682,1.408-1.051
	c0.011-0.006,0.059-0.049,0.07-0.054c0.011-0.006,0.059-0.049,0.07-0.054c3.302-2.605,5.763-5.497,9.205-7.922
	c4.204-2.928,8.47-4.319,13.726-4.567C187.392,33.939,187.625,33.932,187.885,33.926"/>
<path class="st1" d="M187.706,30.683c0.595,0,3.109,0.009,3.533,0.138l0,0c0.176,0.053,1.054,0.292,1.217,0.359
	c1.931,0.392,3.673,0.976,5.612,1.489c1.061,0.286,2.095,0.508,3.071,0.699c0.768,0.151,1.496,0.292,2.186,0.404
	c3.371-0.609,7.348-1.75,11.638-1.75c4.896,0,9.495,1.355,13.566,4.547c3.145,2.433,5.492,5.428,7.623,8.839
	c0.004,0.013,0.073,0.111,0.077,0.123c0.004,0.013,0.071,0.112,0.076,0.124c0.913,1.49,1.7,2.956,2.453,4.338
	c1.715,0.75,3.701,1.646,5.905,2.795c3.044,1.603,6.338,3.178,9.29,5.546c1.087,0.201,2.233,0.447,3.425,0.772
	c3.428,0.904,6.453,2.349,8.757,4.799c5.134,5.856,7.692,9.977,9.243,14.481c2.941,0.816,5.92,1.993,9.317,4.068
	c0.022,0.008,0.086,0.049,0.108,0.058s0.085,0.05,0.106,0.059c8.003,4.688,3.642,14.408,6.962,19.364
	c0.637,0.938,1.27,1.707,1.897,2.354c0.722,0.421,1.49,0.799,2.297,1.133c0.313,0.129,0.634,0.244,0.958,0.361
	c2.022,0.771,4.028,1.223,5.942,2.136c1.761,0.84,3.391,2.013,4.993,3.731c2.577,2.748,2.883,4.728,4.124,7.909
	c1.276,3.316,2.821,5.675,4.406,8.542c2.304,4.135,3.062,7.797,3.295,11.988c0.081,0.548,0.203,1.268,0.295,1.914
	c0.096,0.679,0.195,1.417,0.291,2.215c0.485,5.173,3.035,10.151,0.857,16.242c-0.465,5.68,1.245,8.671,7.445,12.436
	c5.881,3.933,9.278,10.171,11.592,17.788c2.176,7.219,3.372,13.425,1.384,20.96c-1.152,4.504-3.593,9.112-4.966,14.176
	c-0.628,2.495-0.798,4.649-0.934,6.806c0.004,0.007-0.007,0.042-0.002,0.049c0.004,0.007-0.007,0.042-0.003,0.049
	c-0.002,1.464,0.063,2.855,0.039,4.33c0.001,0.001,0.004,0.008,0.004,0.01c0.002,0.005,0.015,0.033,0.017,0.038
	c2.377,5.218,3.809,13.697,0.693,18.562c-0.32,0.522-0.695,0.954-1.066,1.397c-2.222,2.653-5.178,4.379-8.679,6.13
	c-2.143,0.884-4.309,1.811-6.387,2.963c-1.666,0.924-3.211,2.118-4.347,4.031c-2.22,2.914-1.823,5.893-4.768,9.34
	c-0.604,0.574-1.288,1.145-2.078,1.714c-1.733,1.299-3.892,1.86-5.655,2.958c-0.855,0.607-1.508,1.039-2.054,1.387
	c-0.023,0.098-0.044,0.194-0.064,0.29c0.195,1.574,0.594,2.954,0.693,4.6c0.142,3.47-0.53,6.78-1.046,9.649
	c0.343,2.301,0.891,4.881,1.848,7.647c1.678,4.917,4.136,9.256,3.807,15.832c-0.502,10.102-5.876,16.848-13.575,20.497
	c-1.124,0.533-2.299,1.024-3.545,1.427c-2.171,0.61-3.64,0.532-5.88,1.009c-0.398,0.085-0.797,0.196-1.225,0.299
	c-2.556,0.636-5.001,1.541-7.42,2.367c-1.584,2.019-3.193,3.996-4.893,5.678c-5.61,5.837-12.86,8.74-20.795,8.884
	c-0.555,0.011-1.113,0.008-1.673-0.009c-10.873-0.323-22.478-5.743-31.544-14.067c-0.007-0.007-0.038-0.035-0.045-0.042
	c-0.007-0.007-0.038-0.035-0.045-0.042c-8.69-8.068-14.724-17.803-20.93-26.447c-0.697-0.974-1.398-1.938-2.105-2.885
	c-1.352-0.025-2.777-0.086-4.279-0.176c-3.924-0.251-8.04-1.316-13.429-0.679c-0.154,0.019-0.308,0.037-0.462,0.055
	c-3.511,0.438-5.919,1.762-8.075,3.213c-1.88,1.198-3.544,2.466-5.469,3.391c-3.381,1.76-7.905,2.148-12.332,0.87
	c-3.017-0.871-5.962-2.482-8.49-4.903c-2.957-2.799-4.887-5.525-6.656-7.742c-3.301-1.549-6.486-2.971-10.898-3.75
	c-10.57-2.272-14.207-9.249-19.931-14.519c-1.127-1.161-2.117-2.136-3.095-2.887c-1.013-0.779-2.271-1.659-3.578-2.575
	c-5.918-4.15-13.568-9.575-17.415-18.616c-1.207-2.938-1.782-6.176-2.426-9.592c-0.147-0.785-0.289-1.55-0.44-2.29
	c-0.447-0.407-0.93-0.826-1.45-1.256c-0.76-0.648-1.57-1.289-2.413-1.94c-5.121-4.003-10.58-7.422-14.55-12.325
	c-3.164-3.814-5.341-8.512-6.545-13.703c-2.151-9.248-1.142-19.617,2.447-28.221c0.003-0.007,0.016-0.039,0.02-0.047
	c0.003-0.007,0.017-0.039,0.02-0.046c3.575-8.415,10.454-11.902,14.027-17.325c0.372-0.484,0.724-0.954,1.056-1.41
	c0.047-0.063,0.094-0.128,0.143-0.193c0.213-0.679,0.424-1.38,0.636-2.091c1.634-5.477,3.327-11.713,7.392-17.399
	c0.292-0.498,1.454-1.671,1.939-2.494c1.193-2.048,2.868-3.962,4.746-5.722c0.155-0.121,0.81-0.775,0.967-0.889
	c0.878-0.927,1.781-1.786,2.66-2.581c3.383-3.035,6.597-5.931,10.173-8.115c1.635-0.996,3.18-1.729,4.549-2.496
	c0.006-0.003,0.036-0.021,0.042-0.024c0.006-0.003,0.036-0.021,0.042-0.024c0.818-0.448,1.758-1.156,2.618-2.077
	c0.302-0.328,0.601-0.69,0.895-1.091c0.024-0.507,0.041-1.036,0.05-1.593c0.029-4.132-1.004-7.673-0.915-11.206
	c0.153-4.801,1.804-8.568,3.596-12.044c0.05-0.352,0.104-0.703,0.162-1.053c0.831-4.734,1.015-7.663,0.925-12.013
	c0.027-2.094,0.241-3.897,0.515-5.549c-0.038-0.845-0.109-1.866-0.136-2.767c-0.036-0.902-0.061-1.818-0.075-2.758
	c0.006-0.197-0.006-0.457-0.027-0.745c-0.017-0.479-0.062-1.011-0.104-1.486c-0.234-3.648-1.459-7.98-2.088-12.906
	c-0.93-7.065-2.811-17.178,6.148-21.478c0.697-0.454,1.497-0.935,2.433-1.413c3.844-1.425,6.297-0.886,11.279-1.344
	c0.721-0.018,1.459-0.1,2.215-0.214c2.509-0.379,5.097-1.294,7.825-2.065c1.428-0.432,2.859-0.827,4.356-1.071
	c0.575-0.117,1.145-0.204,1.711-0.254c1.942-0.237,3.829-0.109,5.664,0.257c1.454-0.51,2.889-0.857,4.302-1.123
	c0.293-0.091,1.107-0.174,1.391-0.25c2.059-0.36,4.038-0.573,5.871-0.821c0.417-0.057,0.815-0.113,1.195-0.17
	c0.477-0.347,0.95-0.716,1.425-1.102c0.01-0.005,0.061-0.051,0.071-0.057s0.061-0.051,0.071-0.057
	c3.361-2.714,5.961-5.631,9.496-8.053c4.32-2.929,8.733-4.337,14.11-4.594C187.199,30.696,187.44,30.689,187.706,30.683"/>
<path class="st1" d="M187.527,27.439c0.549,0,3.196-0.004,3.588,0.116l0,0c0.162,0.049,1.086,0.298,1.237,0.36
	c1.98,0.379,3.765,0.951,5.713,1.464c1.082,0.29,2.13,0.523,3.115,0.73c0.781,0.164,1.519,0.32,2.215,0.448
	c3.387-0.625,7.424-1.759,11.817-1.759c5.096,0,9.883,1.396,14.117,4.618c3.285,2.467,5.791,5.535,8.042,9.065
	c0.004,0.012,0.077,0.116,0.081,0.128c0.004,0.012,0.076,0.117,0.08,0.129c0.963,1.542,1.786,3.061,2.558,4.491
	c1.807,0.734,3.89,1.631,6.177,2.808c3.152,1.637,6.54,3.334,9.564,5.897c1.122,0.216,2.308,0.483,3.545,0.832
	c3.542,0.971,6.667,2.506,9.069,5.019c5.237,5.861,7.912,10.287,9.413,15.149c3.08,0.874,6.173,2.147,9.626,4.313
	c0.02,0.007,0.086,0.051,0.106,0.058c0.02,0.008,0.085,0.052,0.105,0.06c7.978,4.802,4.23,14.257,7.459,19.27
	c0.618,0.946,1.229,1.735,1.831,2.408c0.71,0.431,1.469,0.83,2.268,1.193c0.308,0.14,0.625,0.266,0.945,0.396
	c2.002,0.852,3.978,1.406,5.85,2.39c1.74,0.914,3.338,2.14,4.901,3.866c2.508,2.749,2.891,4.786,4.116,7.928
	c1.274,3.313,2.764,5.736,4.269,8.622c2.187,4.161,2.902,7.872,3.121,12.054c0.083,0.542,0.211,1.269,0.308,1.913
	c0.101,0.676,0.207,1.414,0.312,2.213c0.522,5.08,2.96,10.125,0.897,16.272c-0.083,5.513,1.797,8.601,7.778,12.461
	c5.723,4.069,9.095,10.338,11.41,17.959c2.181,7.237,3.421,13.571,1.559,21.187c-1.08,4.568-3.412,9.251-4.852,14.381
	c-0.651,2.492-0.895,4.674-1.126,6.863c0.004,0.007-0.008,0.043-0.005,0.05c0.004,0.007-0.008,0.043-0.005,0.05
	c-0.068,1.473-0.075,2.869-0.163,4.331c0.001,0.001,0.004,0.009,0.005,0.01c0.002,0.005,0.015,0.034,0.018,0.038
	c2.404,5.275,3.885,13.705,1.016,18.836c-0.294,0.549-0.644,1.017-0.987,1.494c-2.083,2.893-4.891,4.936-8.324,6.984
	c-2.089,1.055-4.222,2.132-6.306,3.387c-1.65,0.994-3.207,2.222-4.393,4.103c-2.357,2.945-2.35,5.886-5.469,9.182
	c-0.643,0.555-1.362,1.103-2.179,1.645c-1.79,1.236-3.98,1.771-5.819,2.784c-0.888,0.56-1.587,0.955-2.185,1.268
	c-0.025,0.098-0.05,0.196-0.073,0.292c0.192,1.597,0.563,3.009,0.651,4.66c0.121,3.536-0.549,6.881-1.066,9.754
	c0.407,2.29,1.024,4.887,2.003,7.704c1.685,4.915,4.06,9.395,3.728,16.039c-0.515,10.38-5.951,17.481-13.798,21.421
	c-1.153,0.579-2.359,1.113-3.636,1.558c-2.204,0.677-3.775,0.699-6.07,1.213c-0.411,0.092-0.824,0.208-1.263,0.316
	c-2.633,0.664-5.18,1.546-7.718,2.323c-1.64,2.08-3.323,4.099-5.105,5.819c-5.84,5.91-13.348,8.874-21.566,9.007
	c-0.573,0.01-1.149,0.006-1.727-0.012c-11.227-0.349-23.187-5.906-32.568-14.519c-0.007-0.006-0.039-0.036-0.046-0.042
	c-0.007-0.006-0.039-0.036-0.046-0.042c-8.781-8.151-14.895-17.93-21.103-26.609c-0.701-0.982-1.404-1.954-2.113-2.91
	c-1.369,0.09-2.814,0.139-4.337,0.15c-3.979,0.016-8.182-0.786-13.588-0.096c-0.155,0.02-0.31,0.04-0.464,0.059
	c-3.494,0.462-5.98,1.713-8.239,3.053c-1.973,1.106-3.744,2.253-5.75,3.062c-3.514,1.547-8.068,1.762-12.5,0.379
	c-3.024-0.944-5.967-2.6-8.506-5.031c-2.973-2.815-4.94-5.554-6.715-7.784c-3.408-1.475-6.665-2.875-11.017-3.706
	c-10.607-2.438-14.463-9.451-20.06-14.677c-1.158-1.208-2.166-2.215-3.158-2.98c-1.028-0.794-2.321-1.699-3.666-2.642
	c-5.993-4.203-13.861-9.776-17.915-19.063c-1.266-2.997-1.921-6.303-2.595-9.815c-0.154-0.806-0.299-1.591-0.45-2.349
	c-0.474-0.404-0.981-0.821-1.526-1.252c-0.793-0.646-1.635-1.291-2.509-1.952c-5.294-4.052-10.792-7.7-14.784-12.817
	c-3.169-3.969-5.352-8.811-6.552-14.15c-2.143-9.507-1.091-20.107,2.597-28.948c0.003-0.007,0.017-0.04,0.02-0.047
	c0.003-0.007,0.017-0.04,0.02-0.047c3.635-8.563,10.503-12.255,14.167-17.56c0.388-0.483,0.756-0.951,1.101-1.404
	c0.049-0.063,0.099-0.127,0.149-0.192c0.215-0.686,0.428-1.396,0.642-2.116c1.64-5.5,3.367-11.813,7.45-17.627
	c0.316-0.54,1.439-1.702,1.941-2.541c1.219-2.065,2.902-4.007,4.793-5.802c0.143-0.112,0.827-0.802,0.973-0.906
	c0.875-0.949,1.776-1.831,2.658-2.649c3.389-3.12,6.659-6.045,10.252-8.267c1.642-1.013,3.199-1.773,4.586-2.557
	c0.006-0.003,0.037-0.021,0.043-0.024c0.006-0.003,0.037-0.021,0.043-0.024c0.812-0.448,1.77-1.17,2.66-2.093
	c0.312-0.328,0.623-0.688,0.931-1.086c0.017-0.516,0.028-1.052,0.033-1.613c0-4.189-0.92-7.797-0.771-11.36
	c0.236-4.864,1.92-8.697,3.713-12.177c0.042-0.358,0.088-0.715,0.139-1.07c0.724-4.797,0.919-7.857,0.882-12.174
	c0.052-2.115,0.285-3.942,0.57-5.611c-0.048-0.849-0.135-1.89-0.178-2.799c-0.052-0.914-0.093-1.843-0.123-2.793
	c0.003-0.196-0.014-0.459-0.041-0.753c-0.026-0.483-0.081-1.023-0.131-1.502c-0.291-3.644-1.53-8.047-2.144-13.057
	c-0.903-7.157-2.541-17.242,6.256-21.9c0.699-0.492,1.506-1.017,2.452-1.543c3.804-1.58,6.457-1.38,11.611-1.98
	c0.737-0.039,1.493-0.134,2.267-0.26c2.566-0.405,5.232-1.29,8.062-2.002c1.475-0.399,2.958-0.754,4.513-0.959
	c0.594-0.101,1.183-0.173,1.767-0.208c1.993-0.184,3.929-0.01,5.808,0.403c1.487-0.539,2.955-0.913,4.395-1.201
	c0.318-0.099,1.115-0.189,1.423-0.27c2.118-0.39,4.146-0.617,6.012-0.861c0.427-0.056,0.835-0.111,1.225-0.166
	c0.48-0.365,0.959-0.751,1.443-1.153c0.009-0.005,0.063-0.054,0.072-0.059c0.009-0.005,0.063-0.054,0.072-0.059
	c3.42-2.823,6.159-5.765,9.788-8.184c4.436-2.929,8.997-4.354,14.494-4.621C187.006,27.454,187.255,27.446,187.527,27.439"/>
<path class="st1" d="M187.349,24.195c0.504,0,3.284-0.016,3.643,0.093l0,0c0.149,0.045,1.119,0.304,1.258,0.361
	c2.028,0.366,3.858,0.926,5.813,1.439c1.102,0.294,2.164,0.539,3.159,0.76c0.795,0.177,1.542,0.348,2.244,0.492
	c3.404-0.642,7.5-1.767,11.997-1.767c5.296,0,10.27,1.437,14.667,4.689c3.424,2.501,6.091,5.643,8.461,9.29
	c0.004,0.011,0.082,0.121,0.086,0.132c0.004,0.011,0.081,0.122,0.084,0.133c1.014,1.595,1.872,3.166,2.663,4.643
	c1.9,0.719,4.078,1.616,6.448,2.82c3.261,1.671,6.743,3.49,9.837,6.247c1.156,0.232,2.383,0.519,3.665,0.892
	c3.657,1.038,6.881,2.663,9.381,5.239c5.341,5.867,8.132,10.598,9.583,15.818c3.22,0.933,6.426,2.301,9.935,4.558
	c0.019,0.007,0.086,0.052,0.105,0.059c0.018,0.007,0.085,0.053,0.103,0.06c7.953,4.915,4.819,14.106,7.956,19.175
	c0.599,0.954,1.187,1.762,1.764,2.463c0.697,0.441,1.447,0.861,2.24,1.252c0.303,0.15,0.617,0.288,0.932,0.43
	c1.983,0.933,3.928,1.59,5.758,2.643c1.718,0.99,3.285,2.268,4.81,4.001c2.439,2.75,2.899,4.844,4.107,7.947
	c1.273,3.309,2.707,5.797,4.132,8.702c2.07,4.188,2.742,7.948,2.946,12.121c0.085,0.537,0.22,1.27,0.322,1.912
	c0.107,0.674,0.22,1.411,0.332,2.211c0.558,4.987,2.885,10.099,0.936,16.301c0.298,5.346,2.349,8.532,8.11,12.485
	c5.565,4.204,8.913,10.506,11.228,18.129c2.186,7.254,3.47,13.718,1.735,21.414c-1.007,4.631-3.232,9.391-4.738,14.587
	c-0.674,2.49-0.993,4.699-1.319,6.92c0.003,0.006-0.01,0.044-0.007,0.051c0.003,0.006-0.01,0.044-0.007,0.05
	c-0.133,1.481-0.213,2.882-0.365,4.333c0.001,0.001,0.004,0.009,0.005,0.01c0.002,0.004,0.016,0.035,0.018,0.039
	c2.431,5.333,3.961,13.714,1.339,19.11c-0.269,0.577-0.592,1.08-0.908,1.59c-1.941,3.134-4.604,5.493-7.969,7.838
	c-2.036,1.226-4.136,2.451-6.224,3.811c-1.634,1.064-3.203,2.327-4.439,4.175c-2.493,2.976-2.878,5.879-6.17,9.024
	c-0.682,0.536-1.436,1.061-2.281,1.577c-1.846,1.172-4.068,1.682-5.982,2.611c-0.92,0.513-1.666,0.871-2.317,1.149
	c-0.028,0.099-0.055,0.197-0.082,0.294c0.189,1.619,0.532,3.064,0.608,4.72c0.101,3.602-0.568,6.982-1.087,9.86
	c0.471,2.279,1.157,4.892,2.159,7.76c1.693,4.913,3.985,9.534,3.649,16.247c-0.529,10.658-6.024,18.115-14.022,22.345
	c-1.182,0.625-2.419,1.203-3.727,1.688c-2.237,0.743-3.91,0.866-6.26,1.417c-0.424,0.099-0.85,0.221-1.301,0.333
	c-2.71,0.692-5.359,1.552-8.016,2.28c-1.697,2.142-3.453,4.202-5.318,5.961c-6.069,5.983-13.836,9.008-22.336,9.13
	c-0.591,0.009-1.185,0.004-1.781-0.015c-11.581-0.376-23.896-6.068-33.593-14.971c-0.006-0.006-0.04-0.037-0.046-0.042
	c-0.006-0.006-0.04-0.037-0.046-0.043c-8.873-8.235-15.066-18.058-21.276-26.772c-0.704-0.991-1.41-1.971-2.121-2.936
	c-1.387,0.206-2.852,0.363-4.396,0.476c-4.034,0.284-8.324-0.256-13.747,0.488c-0.155,0.022-0.311,0.043-0.467,0.064
	c-3.478,0.485-6.042,1.665-8.404,2.893c-2.066,1.014-3.944,2.04-6.03,2.732c-3.648,1.333-8.231,1.376-12.667-0.113
	c-3.031-1.017-5.972-2.719-8.521-5.16c-2.989-2.83-4.994-5.582-6.775-7.826c-3.515-1.401-6.845-2.778-11.137-3.661
	c-10.644-2.603-14.719-9.654-20.189-14.835c-1.19-1.255-2.214-2.294-3.221-3.073c-1.044-0.809-2.371-1.738-3.755-2.708
	c-6.069-4.256-14.155-9.976-18.415-19.51c-1.325-3.055-2.059-6.431-2.765-10.038c-0.161-0.827-0.309-1.632-0.46-2.409
	c-0.5-0.401-1.033-0.816-1.602-1.248c-0.826-0.644-1.7-1.293-2.606-1.965c-5.466-4.101-11.003-7.978-15.017-13.309
	c-3.174-4.124-5.363-9.11-6.559-14.597c-2.134-9.766-1.04-20.597,2.746-29.675c0.003-0.006,0.017-0.041,0.02-0.047
	c0.003-0.006,0.017-0.041,0.02-0.047c3.695-8.711,10.552-12.607,14.307-17.795c0.404-0.483,0.787-0.948,1.147-1.398
	c0.051-0.063,0.103-0.127,0.156-0.191c0.216-0.693,0.432-1.412,0.649-2.141c1.645-5.523,3.406-11.913,7.509-17.854
	c0.341-0.581,1.424-1.733,1.943-2.589c1.245-2.083,2.935-4.052,4.84-5.883c0.131-0.102,0.844-0.828,0.978-0.924
	c0.872-0.971,1.771-1.876,2.656-2.717c3.395-3.205,6.721-6.159,10.332-8.419c1.649-1.029,3.217-1.817,4.623-2.618
	c0.005-0.003,0.038-0.022,0.043-0.025c0.005-0.003,0.038-0.022,0.043-0.025c0.806-0.449,1.783-1.185,2.702-2.109
	c0.322-0.327,0.645-0.687,0.967-1.081c0.01-0.525,0.015-1.068,0.016-1.633c-0.03-4.245-0.836-7.92-0.628-11.514
	c0.319-4.927,2.037-8.827,3.83-12.311c0.034-0.364,0.073-0.727,0.115-1.088c0.617-4.859,0.824-8.052,0.839-12.335
	c0.078-2.137,0.33-3.987,0.625-5.673c-0.058-0.852-0.162-1.913-0.22-2.831c-0.067-0.926-0.125-1.867-0.171-2.827
	c-0.001-0.194-0.023-0.462-0.055-0.761c-0.035-0.486-0.1-1.035-0.157-1.518c-0.348-3.641-1.602-8.114-2.2-13.208
	c-0.877-7.25-2.271-17.305,6.365-22.321c0.701-0.529,1.515-1.099,2.47-1.673c3.764-1.734,6.618-1.874,11.943-2.615
	c0.753-0.061,1.526-0.171,2.32-0.305c2.622-0.436,5.368-1.286,8.298-1.938c1.523-0.366,3.057-0.681,4.67-0.847
	c0.613-0.085,1.221-0.141,1.824-0.162c2.044-0.131,4.029,0.089,5.953,0.549c1.521-0.568,3.02-0.969,4.489-1.279
	c0.342-0.106,1.123-0.203,1.455-0.291c2.178-0.42,4.255-0.661,6.154-0.902c0.437-0.056,0.856-0.109,1.255-0.162
	c0.483-0.382,0.968-0.785,1.461-1.204c0.009-0.004,0.064-0.057,0.073-0.061s0.065-0.056,0.073-0.061
	c3.479-2.932,6.358-5.899,10.079-8.315c4.552-2.929,9.261-4.371,14.878-4.648C186.812,24.211,187.07,24.203,187.349,24.195"/>
<path class="st1" d="M187.17,20.952c0.458,0,3.371-0.029,3.698,0.07l0,0c0.135,0.041,1.152,0.31,1.278,0.361
	c2.077,0.353,3.95,0.901,5.913,1.414c1.123,0.298,2.199,0.554,3.203,0.79c0.808,0.19,1.565,0.376,2.273,0.536
	c3.42-0.659,7.577-1.775,12.176-1.775c5.496,0,10.657,1.478,15.218,4.76c3.564,2.534,6.39,5.75,8.88,9.516
	c0.003,0.01,0.087,0.126,0.09,0.136c0.003,0.01,0.085,0.128,0.089,0.137c1.064,1.647,1.958,3.27,2.769,4.796
	c1.992,0.703,4.267,1.601,6.72,2.833c3.369,1.706,6.946,3.647,10.111,6.597c1.191,0.248,2.457,0.555,3.785,0.952
	c3.772,1.105,7.094,2.819,9.693,5.459c5.444,5.872,8.352,10.908,9.753,16.486c3.359,0.991,6.679,2.455,10.243,4.803
	c0.017,0.006,0.086,0.054,0.103,0.06c0.017,0.006,0.085,0.055,0.102,0.061c7.928,5.029,5.408,13.955,8.453,19.081
	c0.58,0.962,1.146,1.79,1.698,2.518c0.685,0.451,1.425,0.891,2.212,1.312c0.299,0.16,0.608,0.31,0.919,0.465
	c1.963,1.014,3.878,1.774,5.665,2.897c1.696,1.065,3.231,2.396,4.718,4.136c2.369,2.751,2.907,4.902,4.099,7.966
	c1.271,3.305,2.651,5.858,3.995,8.782c1.953,4.214,2.582,8.023,2.772,12.187c0.087,0.531,0.229,1.271,0.336,1.911
	c0.112,0.671,0.232,1.408,0.352,2.208c0.595,4.894,2.81,10.073,0.976,16.331c0.679,5.18,2.9,8.462,8.443,12.509
	c5.407,4.34,8.73,10.674,11.046,18.3c2.191,7.272,3.519,13.865,1.91,21.64c-0.935,4.695-3.051,9.53-4.624,14.792
	c-0.697,2.487-1.09,4.724-1.511,6.977c0.003,0.006-0.012,0.046-0.009,0.051c0.003,0.006-0.012,0.046-0.009,0.051
	c-0.198,1.49-0.351,2.895-0.567,4.335c0,0.001,0.004,0.009,0.005,0.01c0.002,0.004,0.016,0.036,0.018,0.04
	c2.459,5.391,4.038,13.722,1.663,19.383c-0.244,0.604-0.54,1.143-0.829,1.687c-1.795,3.375-4.316,6.05-7.613,8.691
	c-1.982,1.397-4.051,2.77-6.143,4.235c-1.619,1.133-3.198,2.431-4.485,4.247c-2.63,3.007-3.405,5.871-6.87,8.866
	c-0.722,0.517-1.509,1.019-2.383,1.508c-1.902,1.108-4.156,1.593-6.145,2.437c-0.953,0.467-1.745,0.787-2.449,1.03
	c-0.031,0.1-0.061,0.198-0.09,0.295c0.186,1.642,0.501,3.119,0.566,4.78c0.081,3.668-0.587,7.083-1.107,9.965
	c0.536,2.268,1.29,4.897,2.314,7.816c1.701,4.911,3.91,9.674,3.571,16.454c-0.543,10.936-6.097,18.75-14.245,23.269
	c-1.211,0.672-2.478,1.292-3.819,1.819c-2.27,0.81-4.045,1.032-6.45,1.621c-0.437,0.107-0.876,0.233-1.339,0.35
	c-2.787,0.72-5.538,1.557-8.313,2.236c-1.753,2.203-3.583,4.304-5.53,6.103c-6.298,6.057-14.324,9.142-23.106,9.253
	c-0.609,0.008-1.221,0.002-1.835-0.019c-11.935-0.403-24.605-6.231-34.617-15.424c-0.006-0.005-0.041-0.038-0.046-0.043
	c-0.006-0.005-0.041-0.038-0.046-0.043c-8.964-8.318-15.236-18.185-21.449-26.934c-0.708-0.999-1.416-1.988-2.128-2.961
	c-1.405,0.321-2.89,0.588-4.454,0.802c-4.089,0.551-8.466,0.275-13.906,1.071c-0.156,0.023-0.313,0.046-0.469,0.068
	c-3.462,0.508-6.103,1.616-8.568,2.732c-2.159,0.922-4.143,1.827-6.311,2.403c-3.782,1.12-8.39,0.981-12.835-0.604
	c-3.036-1.096-5.977-2.838-8.537-5.288c-3.006-2.846-5.047-5.611-6.834-7.869c-3.622-1.327-7.024-2.682-11.256-3.616
	c-10.681-2.768-14.974-9.857-20.317-14.993c-1.221-1.301-2.263-2.373-3.284-3.166c-1.06-0.824-2.421-1.777-3.843-2.775
	c-6.145-4.309-14.448-10.177-18.915-19.957c-1.384-3.113-2.198-6.559-2.935-10.261c-0.168-0.848-0.32-1.673-0.471-2.469
	c-0.526-0.398-1.085-0.812-1.678-1.244c-0.859-0.641-1.765-1.295-2.702-1.977c-5.639-4.15-11.214-8.256-15.251-13.802
	c-3.179-4.279-5.373-9.409-6.565-15.044c-2.126-10.025-0.989-21.088,2.895-30.401c0.002-0.006,0.018-0.042,0.02-0.048
	c0.002-0.006,0.018-0.042,0.02-0.047c3.755-8.858,10.601-12.96,14.447-18.03c0.42-0.482,0.819-0.946,1.192-1.392
	c0.053-0.062,0.107-0.126,0.162-0.19c0.218-0.701,0.436-1.427,0.656-2.167c1.651-5.545,3.446-12.013,7.567-18.081
	c0.365-0.623,1.409-1.765,1.944-2.637c1.272-2.101,2.969-4.096,4.887-5.963c0.12-0.093,0.862-0.855,0.983-0.942
	c0.868-0.994,1.767-1.921,2.653-2.785c3.401-3.289,6.782-6.274,10.412-8.572c1.655-1.046,3.235-1.861,4.66-2.679
	c0.005-0.002,0.039-0.023,0.044-0.025c0.005-0.002,0.039-0.023,0.044-0.025c0.801-0.449,1.795-1.199,2.745-2.124
	c0.332-0.327,0.666-0.685,1.003-1.075c0.002-0.534,0.002-1.084-0.001-1.653c-0.059-4.301-0.751-8.044-0.484-11.667
	c0.403-4.991,2.153-8.956,3.946-12.445c0.026-0.37,0.057-0.739,0.092-1.106c0.511-4.922,0.728-8.246,0.796-12.496
	c0.104-2.158,0.374-4.032,0.68-5.735c-0.068-0.856-0.188-1.937-0.262-2.863c-0.083-0.938-0.157-1.891-0.219-2.861
	c-0.004-0.193-0.031-0.464-0.068-0.769c-0.044-0.49-0.12-1.047-0.184-1.534c-0.404-3.638-1.673-8.18-2.256-13.359
	c-0.85-7.343-2.001-17.369,6.473-22.743c0.703-0.567,1.524-1.181,2.489-1.803c3.725-1.889,6.779-2.368,12.275-3.251
	c0.769-0.082,1.56-0.207,2.372-0.351c2.678-0.467,5.504-1.282,8.535-1.875c1.571-0.333,3.155-0.607,4.827-0.735
	c0.632-0.069,1.259-0.11,1.88-0.116c2.095-0.077,4.129,0.188,6.098,0.695c1.554-0.597,3.086-1.025,4.583-1.358
	c0.367-0.114,1.131-0.218,1.487-0.312c2.237-0.45,4.363-0.704,6.295-0.942c0.448-0.055,0.876-0.107,1.285-0.158
	c0.486-0.4,0.977-0.82,1.479-1.255c0.008-0.004,0.066-0.059,0.074-0.063s0.066-0.059,0.074-0.063
	c3.538-3.04,6.556-6.033,10.37-8.446c4.668-2.929,9.525-4.389,15.262-4.675C186.619,20.969,186.884,20.959,187.17,20.952"/>
<path class="st1" d="M186.991,17.708c0.412,0,3.459-0.042,3.753,0.048l0,0c0.122,0.037,1.185,0.316,1.298,0.362
	c2.126,0.34,4.042,0.875,6.013,1.389c1.143,0.301,2.233,0.569,3.247,0.821c0.821,0.204,1.588,0.404,2.302,0.58
	c3.436-0.676,7.653-1.784,12.355-1.784c5.696,0,11.045,1.519,15.768,4.831c3.704,2.568,6.689,5.858,9.299,9.741
	c0.003,0.009,0.091,0.132,0.094,0.14c0.003,0.009,0.09,0.133,0.093,0.142c1.115,1.7,2.044,3.375,2.874,4.949
	c2.084,0.687,4.456,1.586,6.992,2.846c3.477,1.74,7.148,3.803,10.384,6.948c1.225,0.263,2.532,0.59,3.906,1.012
	c3.887,1.172,7.308,2.976,10.004,5.68c5.548,5.877,8.572,11.218,9.923,17.155c3.498,1.049,6.931,2.609,10.552,5.048
	c0.015,0.006,0.087,0.055,0.102,0.061c0.015,0.006,0.086,0.056,0.1,0.062c7.903,5.142,5.996,13.804,8.95,18.987
	c0.561,0.97,1.104,1.818,1.632,2.573c0.673,0.461,1.404,0.922,2.183,1.372c0.294,0.17,0.599,0.332,0.906,0.499
	c1.943,1.095,3.827,1.959,5.573,3.151c1.673,1.142,3.178,2.524,4.626,4.271c2.3,2.752,2.915,4.96,4.091,7.985
	c1.269,3.302,2.594,5.919,3.858,8.861c1.836,4.24,2.422,8.098,2.597,12.253c0.089,0.526,0.237,1.272,0.35,1.91
	c0.118,0.669,0.245,1.405,0.372,2.206c0.631,4.802,2.735,10.047,1.015,16.36c1.061,5.013,3.452,8.393,8.775,12.534
	c5.249,4.476,8.547,10.841,10.864,18.47c2.197,7.289,3.568,14.012,2.085,21.867c-0.863,4.758-2.871,9.669-4.51,14.997
	c-0.72,2.484-1.188,4.748-1.704,7.034c0.003,0.005-0.014,0.047-0.011,0.052c0.003,0.005-0.014,0.047-0.011,0.052
	c-0.263,1.499-0.489,2.909-0.769,4.337c0,0.001,0.004,0.009,0.005,0.01c0.002,0.004,0.017,0.037,0.018,0.04
	c2.486,5.448,4.114,13.73,1.986,19.657c-0.218,0.632-0.487,1.206-0.75,1.783c-1.646,3.616-4.029,6.608-7.258,9.545
	c-1.929,1.567-3.966,3.089-6.062,4.659c-1.605,1.202-3.194,2.535-4.532,4.319c-2.766,3.039-3.932,5.864-7.571,8.708
	c-0.761,0.498-1.583,0.977-2.485,1.439c-1.959,1.045-4.245,1.504-6.309,2.264c-0.985,0.42-1.823,0.702-2.58,0.912
	c-0.034,0.1-0.067,0.199-0.099,0.297c0.183,1.665,0.47,3.174,0.523,4.84c0.06,3.734-0.605,7.184-1.128,10.07
	c0.6,2.257,1.423,4.902,2.469,7.872c1.709,4.909,3.834,9.813,3.492,16.662c-0.557,11.214-6.169,19.385-14.468,24.194
	c-1.24,0.718-2.538,1.381-3.91,1.95c-2.303,0.877-4.18,1.199-6.64,1.825c-0.45,0.115-0.903,0.245-1.377,0.367
	c-2.863,0.748-5.718,1.563-8.611,2.193c-1.81,2.264-3.713,4.407-5.742,6.245c-6.528,6.13-14.812,9.276-23.877,9.376
	c-0.627,0.008-1.257,0-1.888-0.022c-12.289-0.43-25.315-6.394-35.642-15.876c-0.005-0.005-0.042-0.038-0.047-0.043
	s-0.042-0.038-0.047-0.043c-9.055-8.401-15.407-18.313-21.621-27.097c-0.711-1.008-1.423-2.005-2.136-2.986
	c-1.422,0.436-2.927,0.812-4.512,1.128c-4.144,0.818-8.608,0.805-14.065,1.655c-0.157,0.025-0.314,0.049-0.472,0.073
	c-3.445,0.532-6.165,1.567-8.732,2.572c-2.252,0.83-4.343,1.614-6.591,2.074c-3.915,0.907-8.553,0.595-13.003-1.096
	c-3.044-1.169-5.982-2.957-8.552-5.417c-3.022-2.861-5.101-5.639-6.894-7.911c-3.729-1.254-7.204-2.585-11.375-3.571
	c-10.718-2.934-15.23-10.06-20.446-15.151c-1.253-1.348-2.311-2.452-3.348-3.26c-1.075-0.839-2.471-1.817-3.932-2.841
	c-6.221-4.362-14.741-10.377-19.414-20.404c-1.442-3.171-2.337-6.687-3.104-10.484c-0.175-0.869-0.33-1.714-0.481-2.529
	c-0.552-0.395-1.137-0.807-1.754-1.24c-0.892-0.639-1.83-1.297-2.798-1.989c-5.812-4.199-11.425-8.534-15.484-14.294
	c-3.184-4.434-5.384-9.708-6.572-15.491c-2.117-10.284-0.939-21.578,3.045-31.128c0.002-0.005,0.018-0.043,0.02-0.048
	c0.002-0.005,0.018-0.043,0.02-0.048c3.815-9.006,10.651-13.313,14.587-18.265c0.436-0.482,0.85-0.943,1.238-1.386
	c0.055-0.062,0.111-0.125,0.169-0.189c0.22-0.708,0.44-1.443,0.662-2.192c1.656-5.568,3.486-12.113,7.625-18.309
	c0.389-0.664,1.394-1.796,1.946-2.685c1.298-2.118,3.002-4.141,4.934-6.043c0.108-0.084,0.879-0.881,0.988-0.96
	c0.865-1.016,1.762-1.966,2.651-2.853c3.407-3.374,6.844-6.388,10.492-8.724c1.662-1.062,3.253-1.905,4.697-2.74
	c0.004-0.002,0.04-0.024,0.044-0.026c0.004-0.002,0.04-0.023,0.044-0.026c0.795-0.449,1.808-1.213,2.787-2.14
	c0.342-0.327,0.688-0.683,1.039-1.07c-0.005-0.543-0.011-1.1-0.019-1.673c-0.089-4.358-0.667-8.167-0.34-11.821
	c0.486-5.054,2.269-9.086,4.063-12.579c0.018-0.377,0.041-0.751,0.069-1.123c0.404-4.984,0.633-8.441,0.753-12.657
	c0.129-2.18,0.418-4.076,0.735-5.797c-0.078-0.859-0.215-1.96-0.304-2.895c-0.098-0.95-0.189-1.916-0.267-2.896
	c-0.007-0.192-0.039-0.467-0.082-0.777c-0.054-0.494-0.139-1.06-0.211-1.551c-0.461-3.634-1.745-8.247-2.312-13.51
	c-0.824-7.435-1.732-17.432,6.581-23.165c0.705-0.605,1.533-1.263,2.508-1.932c3.685-2.044,6.939-2.862,12.607-3.887
	c0.785-0.104,1.593-0.243,2.425-0.397c2.735-0.498,5.64-1.277,8.771-1.811c1.619-0.299,3.254-0.534,4.984-0.623
	c0.651-0.053,1.297-0.078,1.936-0.07c2.147-0.024,4.23,0.287,6.242,0.841c1.588-0.626,3.151-1.082,4.677-1.436
	c0.391-0.122,1.14-0.232,1.519-0.333c2.297-0.48,4.472-0.748,6.436-0.982c0.458-0.055,0.896-0.106,1.315-0.154
	c0.489-0.417,0.986-0.854,1.497-1.306c0.007-0.004,0.068-0.062,0.075-0.066c0.007-0.004,0.068-0.062,0.075-0.065
	c3.597-3.149,6.754-6.166,10.662-8.577c4.784-2.929,9.789-4.406,15.645-4.701C186.426,17.726,186.699,17.716,186.991,17.708"/>
</svg>
