<?xml version="1.0" encoding="utf-8"?>
<!-- Generator: Adobe Illustrator 25.0.0, SVG Export Plug-In . SVG Version: 6.00 Build 0)  -->
<!DOCTYPE svg PUBLIC "-//W3C//DTD SVG 1.1//EN" "http://www.w3.org/Graphics/SVG/1.1/DTD/svg11.dtd" [
	<!ENTITY ns_extend "http://ns.adobe.com/Extensibility/1.0/">
	<!ENTITY ns_ai "http://ns.adobe.com/AdobeIllustrator/10.0/">
	<!ENTITY ns_graphs "http://ns.adobe.com/Graphs/1.0/">
	<!ENTITY ns_vars "http://ns.adobe.com/Variables/1.0/">
	<!ENTITY ns_imrep "http://ns.adobe.com/ImageReplacement/1.0/">
	<!ENTITY ns_sfw "http://ns.adobe.com/SaveForWeb/1.0/">
	<!ENTITY ns_custom "http://ns.adobe.com/GenericCustomNamespace/1.0/">
	<!ENTITY ns_adobe_xpath "http://ns.adobe.com/XPath/1.0/">
]>
<svg version="1.1" id="Livello_1" xmlns:x="&ns_extend;" xmlns:i="&ns_ai;" xmlns:graph="&ns_graphs;"
	 xmlns="http://www.w3.org/2000/svg" xmlns:xlink="http://www.w3.org/1999/xlink" x="0px" y="0px" viewBox="0 0 400 400"
	 style="enable-background:new 0 0 400 400;" xml:space="preserve">
<style type="text/css">
	.st0{opacity:0.45;fill:#FFFFFF;}
	.st1{fill:none;stroke:#DC4B33;stroke-width:0.9;stroke-miterlimit:10;}
</style>
<metadata>
	<sfw  xmlns="&ns_sfw;">
		<slices></slices>
		<sliceSourceBounds  bottomLeftOrigin="true" height="311.892" width="278.601" x="57.236" y="45.125"></sliceSourceBounds>
	</sfw>
</metadata>
<path class="st0" d="M124.843,43.549c4.319-0.542,8.06,0.856,11.127,3.16l0,0c3.071,2.237,5.442,5.349,7.017,8.36
	c2.257,4.156,4.589,10.886,9.974,13.56c0.221,0.094,0.409,0.192,0.598,0.252c0.843,0.265,1.528,0.144,2.329,0.415
	c0.226,0.077,0.451,0.189,0.676,0.333c1.15,0.647,1.494,1.814,2.374,2.642c0.321,0.313,0.705,0.585,1.207,0.782
	c0.014,0.022,0.158,0.044,0.171,0.067c2.269,0.953,3.929-0.377,5.531-0.593c0.551-0.549,1.107-1.001,1.683-1.271
	c1.983-0.864,3.301-0.745,5.06-1.795c2.501-1.518,3.939-4.398,6.124-6.055c3.688-2.898,8.103-4.755,12.589-4.755
	c2.023,0,4.08,0.392,6.097,1.207c4.362,1.81,7.384,4.201,12.215,5.553c0.029,0.004,0.101,0.033,0.13,0.038
	c0.029,0.005,0.101,0.034,0.129,0.039c2.542,0.819,4.469,1.916,6.033,3.046c0.078,0.056,0.158,0.115,0.239,0.174
	c3.446,1.648,6.182,4.057,9.498,6.512c3.114,2.1,8.427,6.601,11.038,7.678c0.293,0.121,0.57,0.222,0.779,0.274
	c0.191,0.202,1.478,0.128,1.641,0.292c2.06-0.944,3.963-1.408,5.755-1.536c0.429-0.034,0.848-0.046,1.257-0.039
	c1.78,0.027,3.374,0.414,4.881,0.918c1.343-0.064,2.707-0.056,4.222-0.197c0.939-0.019,1.796-0.181,2.651-0.402
	c3.382-0.871,6.071-3.518,9.431-6.19c1.481-1.248,2.834-2.309,4.291-3.157c1.658-0.935,3.194-1.54,4.728-1.932
	c0.926-0.183,1.924-0.303,3.022-0.36c0.656-0.045,1.31-0.017,1.964,0.016c5.381,0.278,10.635,2.696,13.639,7.087
	c1.685,2.477,1.972,4.632,2.938,7.107c0.967,2.801,2.401,3.556,5.241,4.673c2.28,0.959,3.91,1.924,5.189,3.19
	c1.46,0.624,2.696,1.524,3.932,2.946c1.04,1.095,2.013,2.423,3.002,4.049c3.044,4.834,5.749,7.949,9.008,12.1
	c0.282,0.372,0.555,0.748,0.821,1.128c0.019,0.027,0.037,0.053,0.054,0.077c0.539,0.585,1.27,1.37,1.911,2.105
	c0.489,0.567,0.97,1.152,1.446,1.758c0.008,0.012,0.037,0.045,0.044,0.057c0.008,0.012,0.036,0.045,0.044,0.057
	c1.854,2.403,3.383,5.023,4.598,7.758c2.011,4.489,2.841,9.76,1.705,14.25c-0.181,0.798-0.496,1.551-0.888,2.283
	c-1.819,3.746-5.606,6.966-5.043,12.354c0.564,5.834,4.81,7.535,3.038,14.136c-0.414,1.445-1.097,2.59-1.942,3.561
	c-1.285,3.295-4.398,5.104-5.399,10.653c-0.023,0.127-0.045,0.255-0.067,0.382c-1.179,6.995-0.486,13.492-2.843,19.371
	c-0.072,0.166-0.144,0.328-0.217,0.487c0.089,3.501,0.068,6.231,0.626,10.213c0.084,0.662,0.169,1.295,0.253,1.908
	c0.014,0.1,0.027,0.204,0.04,0.309c0.783,2.568,1.612,5.462,1.706,8.762c0.029,1.988-0.057,4.053-0.281,6.191
	c-0.002,0.012-0.005,0.053-0.007,0.065c-0.002,0.012-0.005,0.053-0.007,0.065c-0.49,4.518-1.324,8.887-2.026,13.034
	c-0.764,4.484-1.396,8.692-1.225,12.456c0.104,0.694,0.33,1.531,0.677,2.508c0.102,0.344,0.288,0.776,0.436,1.161
	c0.4,1.132,0.909,2.355,1.478,3.67c1.279,3.295,3.271,6.761,4.984,10.504c0.411,0.872,0.811,1.742,1.196,2.608
	c1.781,4.153,4.194,8.42,4.804,12.214c0.125,1.018,0.22,2.028,0.296,2.977c0.363,9.145-1.501,20.31-6.717,25.309
	c-0.294,0.283-0.617,0.523-0.956,0.732c-1.257,1.291-2.935,1.96-3.993,3.399c-1.541,2.087-1.6,4.121-2.588,6.007
	c-2.31,4.262-5.422,5.215-8.498,6.374c-0.454,0.35-0.947,0.763-1.426,1.146c-6.315,3.871-8.228,11.49-14.303,17.017
	c-0.017,0.015-0.058,0.052-0.074,0.067c-0.017,0.015-0.058,0.051-0.075,0.066c-1.875,1.642-4.274,2.908-6.645,3.344
	c-1.991,0.373-3.974,0.148-5.55-0.97c-2.936-1.777-3.765-5.454-4.412-7.727c-0.238-0.857-0.475-1.964-0.797-3.204
	c-1.258-3.763-3.211-8.849-8.215-11.877c-2.678-1.583-7.53-2.31-10.352-3.376c-2.539-0.782-4.251-1.656-6.5-2.848
	c-0.626-0.346-1.298-0.834-1.99-1.195c-0.007-0.002-0.02-0.012-0.027-0.014c-0.007-0.002-0.02-0.012-0.027-0.014
	c-0.258-0.135-0.518-0.252-0.778-0.338c-0.415-0.138-0.826-0.18-1.235-0.124c-1.925,0.147-1.854,1.433-1.495,2.996
	c-0.466,3.584-0.736,7.435-4.256,9.746c-1.662,1.168-3.67,1.684-5.8,1.878c-0.987,0.088-1.98,0.109-2.95,0.099
	c-0.829-0.01-1.65-0.046-2.426-0.083c-0.452-0.022-0.896-0.044-1.325-0.062c-0.027-0.001-0.093-0.004-0.119-0.005
	c-0.026-0.001-0.092-0.004-0.119-0.005c-5.44-0.254-7.656-2.227-10.555-5.625c-3.493-3.724-5.663-6.334-9.79-8.98
	c-3.815-2.542-4.568-4.991-6.947-7.822c-0.179-0.233-0.37-0.478-0.574-0.731c-0.09-0.112-0.182-0.226-0.277-0.34
	c-1.407-1.062-2.949-2.161-4.421-2.531c-0.006-0.004-0.045-0.009-0.051-0.013c-0.927-0.233-1.764-0.187-2.579-0.096
	c-0.265,0.097-0.53,0.195-0.798,0.29c-0.215,0.075-0.43,0.148-0.646,0.217c-0.641,0.394-1.318,0.75-2.056,0.977
	c-0.153,0.033-0.306,0.1-0.46,0.131c-1.735,0.348-3.313-0.154-4.961,0.101c-0.051,0.008-0.103,0.015-0.155,0.022
	c-1.675,0.295-3.234,1.009-4.812,1.817c-2.842,1.42-5.613,3.087-8.656,3.527c-0.549,0.072-1.112,0.129-1.674,0.174
	c-1.235,0.112-2.742,0.161-4.241,0.119c-0.774-0.022-1.533-0.058-2.243-0.137c-2.168,0.476-4.719,0.091-7.107,0.57
	c-0.1,0.02-0.201,0.037-0.302,0.055c-2.555,0.602-5.111,2.054-7.824,3.499c-3.198,1.703-6.434,3.418-9.901,3.894
	c-1.671,0.228-3.488,0.345-5.285,0.255c-3.866-0.2-7.635-1.301-9.704-4.127c-1.661-2.189-1.497-4.917-3.211-6.949
	c-0.59-0.257-1.363-0.453-2.412-0.56c-0.641-0.028-1.287-0.03-1.938,0.028c-2.227,0.198-4.569,0.909-6.998,1.701
	c-0.067,0.038-0.284,0.076-0.352,0.114c-0.104,0.06-0.441,0.12-0.545,0.182c-0.104,0.062-0.441,0.113-0.545,0.176
	c-4.37,1.481-8.982,3.057-13.471,2.405c-0.114-0.016-0.26-0.033-0.374-0.05c-5.935-1.054-13.313-4.306-18.192-8.198
	c-0.011-0.009-0.038-0.03-0.049-0.039c-0.011-0.009-0.037-0.03-0.049-0.039c-4.295-3.481-7.551-8.155-9.488-13.217
	c-1.566-3.792-4.05-9.972-3.779-13.91c0.419-2.671,1.435-4.066,2.691-4.764c1.076-0.598,2.32-0.698,3.56-0.557
	c0.448,0.099,0.858,0.128,1.25,0.157c1.613,0.497,2.992,1.125,3.686,1.137c0.883,0.23,3.071,0.74,5.014-0.165
	c0.647-0.301,1.25-0.737,1.754-1.421c2.609-3.137-1.073-7.103-0.96-10.367c0.023-2.652,1.781-3.837,3.139-5.226
	c1.015-1.019,1.786-2.139,1.386-4.083c-0.348-2.104-1.345-3.24-2.347-3.674c-0.772-0.335-1.549-0.281-2.032-0.211
	c-2.368,0.187-3.591,0.749-6.205-0.213c-0.191-0.082-0.347-0.168-0.539-0.247c-3.304-1.359-5.686-4.577-5.602-9.52
	c-0.009-1.512,0.135-2.753,0.435-3.822c0.718-2.771,2.497-4.088,5.299-6.117c2.266-1.683,2.42-3.444,3.809-5.587
	c0.185-0.381,0.401-0.775,0.659-1.181c1.161-1.83,2.839-2.952,4.648-3.99c1.012-0.569,2.047-1.086,3.03-1.669
	c0.678-0.688,1.298-1.497,1.76-2.588c1.158-2.305,0.716-4.673-0.308-6.92c-0.982-1.549-2.389-3.075-3.699-4.488
	c-0.085-0.089-0.169-0.176-0.251-0.263c-2.982-3.025-4.035-4.462-4.535-8.645c-0.402-3.244-1.304-4.763-2.274-6.712
	c-0.422-0.581-0.867-1.225-1.286-1.947c-1.721-2.86-1.796-6.188-3.508-9.487c-0.621-1.197-1.338-2.362-2.099-3.52
	c-1.977-2.936-4.663-6.081-6.585-9.887c-4.257-8.185-9.817-21.605-0.606-27.351c0.93-0.595,1.761-1.13,2.549-1.494
	c2.151-0.995,3.84-0.978,5.502-0.21c0.439,0.151,0.88,0.362,1.331,0.633c2.575,1.558,5.909,1.432,9.479,2.717
	c3.187,0.946,5.591,3.819,7.667,5.933c0.988,0.797,1.93,2.904,3.61,3.924c0.588,0.394,1.273,0.637,2.095,0.586
	c0.212-0.013,0.457-0.061,0.701-0.107c1.287-2.079,0.52-3.315,1.408-5.067c0.166-0.292,0.382-0.597,0.663-0.923
	c0.849-1.127,2.405-1.153,3.291-1.9c0.392-0.363,0.725-0.696,1.01-1.01c0.275-2.159-0.067-4.01-0.534-6.063
	c-0.22-1.021-0.423-2.162-0.644-2.982c-0.038-0.138-0.076-0.278-0.115-0.421c-1.618-5.695-2.744-12.432-0.93-20.119
	c0.827-3.655,2.229-5.827,2.706-9.135c-0.003-0.036,0.029-0.124,0.026-0.161c-0.003-0.036,0.029-0.124,0.025-0.161
	c-0.063-0.675-0.162-1.399-0.302-2.187c-0.366-1.99-0.4-3.915-0.303-5.875c0.127-2.659,0.467-5.262,0.437-8.085
	c0.056-2.027-0.237-5.021,0.946-6.891c1.056-1.616,2.538-1.873,3.434-3.315c0.165-0.263,0.315-0.533,0.452-0.809
	c0.935-3.583-0.217-8.502,0.69-12.485c0.817-4.665,3.613-4.271,5.401-8.234c2.42-5.013,1.619-10.227,7.968-12.379
	C122.483,43.973,123.673,43.687,124.843,43.549"/>
<path class="st1" d="M137.236,69.047c8.112,0,12.624,9.552,12.864,16.944c0.192,4.992,0.768,13.008,6.288,14.4
	c0.24,0.048,0.432,0.096,0.624,0.096c0.912,0,1.584-0.528,2.448-0.528c0.24,0,0.48,0.048,0.72,0.144
	c1.728,0.576,1.344,2.496,3.648,2.688h0.192c3.216,0,5.136-5.76,7.536-6.432c2.112-0.624,3.216,0.144,4.944-0.864
	c2.256-1.344,2.88-4.848,4.56-6.72c2.976-3.36,6.912-5.616,10.944-5.616c1.824,0,3.696,0.48,5.52,1.488
	c3.984,2.256,6.048,4.944,10.944,5.712c6.576,1.008,8.4,5.424,13.392,9.648c1.728,1.488,7.488,6.288,9.984,6.288
	c0.24,0,0.48-0.048,0.624-0.144l1.632-0.384c2.352-1.488,4.32-2.016,6.048-2.016c3.216,0,5.568,1.872,8.352,2.832
	c0.96,0.336,1.776,0.48,2.544,0.48c3.36,0,5.28-2.928,7.728-6.144c3.024-3.984,4.272-6.528,9.504-7.2
	c0.576-0.096,1.152-0.096,1.728-0.096c4.752,0,9.456,2.496,11.184,7.296c1.008,2.736,0.096,4.848,0.336,7.296
	c0.336,3.024,1.488,2.928,4.848,3.264c6.672,0.672,7.92,0.912,10.944,7.92c2.112,4.848,4.608,6.768,8.208,10.224
	c3.408,3.312,5.664,7.488,6.912,11.856c1.2,4.128,1.008,9.12-1.68,12.768c-2.64,3.648-11.472,4.8-10.176,10.752
	c1.104,5.232,8.304,4.512,7.296,11.376c-0.912,6.24-8.784,4.272-10.128,10.704c-1.296,6.192,1.824,12.144,1.488,18.096
	c-0.192,3.552-0.576,5.28,0.432,8.736c0.864,2.88,1.872,5.664,1.68,8.736c-0.72,10.464-4.656,20.784-2.784,31.728
	c0.672,3.888,2.784,7.296,4.896,10.464c1.872,2.736,5.328,5.568,6.288,8.784c1.68,5.424,1.632,19.008-2.688,23.136
	c-1.296,1.248-3.84,0.72-4.944,2.064c-1.344,1.632-0.384,3.456-0.768,5.28c-1.056,4.656-3.504,4.464-7.44,6.192
	c-7.968,3.504-8.976,11.712-14.832,17.04c-1.872,1.68-4.512,2.88-7.056,2.88c-2.064,0-4.08-0.816-5.472-2.88
	c-2.352-3.504-1.488-9.504-0.336-13.104c1.776-5.472,3.6-16.176-2.976-20.592c-2.352-1.584-8.016-1.68-10.848-2.064
	c-2.88-0.384-4.608-0.816-7.2-1.632c-0.96-0.288-2.064-0.96-3.216-0.96c-0.48,0-0.96,0.144-1.44,0.432
	c-4.8,3.264,4.656,15.312-0.624,20.976c-2.16,2.352-5.328,2.784-8.496,2.784c-1.344,0-2.736-0.096-3.984-0.144
	c-5.136-0.24-6-2.544-8.256-6.672c-2.352-4.272-3.504-6.384-8.064-8.544c-3.984-1.872-4.08-3.6-6.912-6.528
	c-1.152-1.2-2.976-2.976-4.8-2.976h-0.048c-1.92,0.048-3.408,2.112-5.52,2.4c-0.144,0-0.288,0.048-0.432,0.048
	c-1.728,0-3.12-1.2-4.512-1.2c-0.048,0-0.096,0-0.144,0c-4.272,0.24-6.72,5.424-11.28,6.384c-1.584,0.336-3.696,0.48-5.568,0.48
	c-0.624,0-1.248,0-1.824-0.048c-2.112-0.096-4.608-1.584-6.624-1.584c-0.096,0-0.192,0-0.288,0
	c-5.136,0.384-9.408,7.056-14.976,8.352c-1.392,0.336-3.024,0.576-4.656,0.576c-3.456,0-6.912-1.008-8.064-4.272
	c-1.152-3.216,1.968-7.44-2.496-8.784c-0.576-0.144-1.152-0.24-1.728-0.24c-5.904,0-12.528,7.968-18.768,7.968
	c-0.096,0-0.24,0-0.336,0c-4.944-0.24-12.096-3.072-16.368-6.48c-4.416-3.552-7.488-8.64-8.832-14.112
	c-0.96-3.792-3.456-10.944-2.112-14.688c1.056-2.976,2.928-4.08,5.136-4.08c5.088,0,11.904,5.856,14.544,8.496
	c1.584,1.584,5.088,3.744,8.064,3.744c1.008,0,1.92-0.24,2.688-0.816c3.936-2.976-1.536-7.104-1.68-10.176
	c-0.24-5.184,7.152-3.696,5.088-8.88c-0.912-2.256-2.88-3.024-4.8-3.024c-1.44,0-2.832,0.384-3.84,0.864
	c-3.312,1.584-4.992,3.936-8.928,4.176c-0.288,0-0.528,0-0.816,0c-5.04,0-8.928-2.784-9.744-7.968
	c-0.96-6.384,0.816-7.056,5.328-9.936c2.928-1.872,1.728-4.08,3.936-7.248c2.88-4.176,8.976-3.072,12-6.672
	c3.6-4.272-0.48-8.544-3.792-11.184c-3.84-3.12-4.944-3.648-5.376-8.592c-0.384-4.56-2.256-5.088-4.032-8.64
	c-1.584-3.072-0.576-6.624-2.016-9.84c-2.16-4.752-6.576-8.256-9.024-12.672c-4.512-8.016-11.04-22.32,1.824-25.152
	c1.296-0.288,2.448-0.432,3.456-0.432c3.696,0,5.904,1.872,8.208,5.712c2.688,4.368,6.144,6,9.648,9.408
	c2.976,2.88,4.512,8.304,5.328,12.288c0.48,2.208,0.72,7.92,3.744,7.92c0.192,0,0.432-0.048,0.672-0.096
	c0.672-3.312-2.688-5.088-1.488-8.496c0.576-1.68,2.16-1.776,2.736-2.976c1.344-2.688,0.72-4.56-0.192-7.248
	c-2.736-7.728-4.272-14.592-2.64-22.848c0.96-4.8,2.832-6.336,1.536-11.568c-1.2-4.752,0.048-8.592-0.72-13.632
	c-0.288-1.824-1.2-5.136-0.048-6.864c1.152-1.68,2.88-1.392,3.696-2.88c1.968-3.552-0.432-9.216,0-13.104
	c0.528-5.232,3.744-3.168,5.28-7.68c1.824-5.28-1.584-11.28,5.136-13.296C134.98,69.239,136.132,69.047,137.236,69.047"/>
<path class="st1" d="M135.687,65.86c4.142-0.068,7.4,2.259,9.686,5.512l0,0c2.231,3.158,3.538,7.192,3.838,10.754
	c0.45,4.887,1.246,12.743,6.749,14.295c0.238,0.054,0.429,0.108,0.621,0.115c0.904,0.034,1.577-0.443,2.433-0.41
	c0.238,0.01,0.476,0.066,0.714,0.168c1.268,0.456,1.414,1.626,2.33,2.3c0.319,0.236,0.729,0.413,1.309,0.48
	c0.002,0.003,0.188,0.006,0.189,0.008c2.462,0.119,4.168-3.066,5.908-4.731c0.518-0.547,1.041-0.964,1.588-1.13
	c2.096-0.654,3.227,0.033,4.958-0.98c2.287-1.366,3.012-4.792,4.755-6.637c3.065-3.302,7.061-5.508,11.15-5.508
	c1.849,0,3.744,0.469,5.592,1.453c4.031,2.2,6.215,4.851,11.103,5.692c0.041,0.006,0.087,0.016,0.127,0.022
	c0.041,0.007,0.086,0.016,0.126,0.023c2.33,0.444,4.067,1.296,5.556,2.384c0.069,0.05,0.137,0.101,0.205,0.153
	c2.629,1.873,4.608,4.509,7.707,7.086c1.901,1.564,7.602,6.317,10.116,6.462c0.246,0.014,0.491-0.014,0.643-0.092
	c0.024,0.025,1.613-0.32,1.633-0.3c1.889-1.15,3.547-1.712,5.042-1.893c0.386-0.047,0.761-0.069,1.126-0.068
	c1.602,0.003,2.998,0.445,4.336,1.008c1.364,0.512,2.678,1.149,4.11,1.56c0.957,0.292,1.779,0.396,2.557,0.37
	c3.364-0.114,5.379-3.002,7.941-6.15c1.213-1.51,2.175-2.806,3.211-3.863c1.126-1.14,2.306-1.994,3.924-2.548
	c0.779-0.258,1.661-0.449,2.687-0.57c0.586-0.09,1.172-0.086,1.757-0.082c4.831,0.035,9.603,2.521,11.491,7.27
	c1.093,2.704,0.33,4.821,0.661,7.272c0.415,2.996,1.602,3.007,4.897,3.44c2.592,0.352,4.362,0.646,5.735,1.307
	c1.294,0.539,2.265,1.389,3.239,2.88c0.679,1.018,1.352,2.323,2.118,4.015c2.229,4.846,4.751,6.916,8.308,10.459
	c0.296,0.3,0.584,0.607,0.863,0.919c0.019,0.021,0.038,0.042,0.057,0.063c0.563,0.611,1.118,1.269,1.631,1.939
	c0.412,0.539,0.802,1.092,1.172,1.658c0.011,0.017,0.024,0.037,0.035,0.054c0.011,0.017,0.024,0.037,0.035,0.054
	c1.473,2.281,2.588,4.757,3.37,7.304c1.301,4.173,1.237,9.2-1.257,12.953c-0.42,0.649-1.017,1.227-1.711,1.771
	c-3.333,2.645-8.943,4.481-7.934,9.466c1.037,5.307,7.867,4.89,6.764,11.721c-0.232,1.412-0.807,2.422-1.577,3.211
	c-2.441,2.703-7.167,2.88-8.202,7.932c-0.023,0.114-0.045,0.228-0.066,0.342c-1.126,6.187,1.588,12.113,1.004,17.962
	c-0.016,0.158-0.033,0.313-0.05,0.464c-0.161,3.279-0.433,5.13,0.479,8.518c0.142,0.52,0.287,1.033,0.43,1.544
	c0.023,0.083,0.046,0.166,0.069,0.25c0.704,2.317,1.343,4.664,1.22,7.223c-0.095,1.685-0.274,3.376-0.509,5.075
	c-0.002,0.016-0.005,0.036-0.007,0.053c-0.002,0.016-0.005,0.036-0.007,0.053c-0.5,3.578-1.211,7.135-1.791,10.687
	c-0.561,3.428-1.003,6.842-1.001,10.24c0.009,0.707,0.048,1.433,0.12,2.179c0.027,0.345,0.068,0.7,0.109,1.051
	c0.12,1.09,0.297,2.195,0.532,3.318c0.63,3.131,2.154,6.015,3.804,8.773c0.412,0.684,0.833,1.358,1.252,2.022
	c1.861,2.913,5.186,5.925,6.102,9.213c0.196,0.711,0.366,1.529,0.507,2.418c0.979,6.641,0.306,17.569-3.661,21.362
	c-0.238,0.229-0.514,0.404-0.813,0.544c-1.348,0.689-3.204,0.631-4.131,1.778c-1.369,1.689-0.536,3.539-0.996,5.371
	c-1.096,4.093-3.223,4.533-6.331,5.711c-0.45,0.193-0.925,0.408-1.419,0.647c-7.761,3.55-8.882,11.684-14.766,17.037
	c-0.023,0.021-0.05,0.045-0.074,0.066c-0.024,0.021-0.051,0.044-0.075,0.065c-1.863,1.615-4.411,2.769-6.875,2.824
	c-2.055,0.047-4.067-0.696-5.482-2.641c-2.425-3.288-1.773-8.998-0.846-12.432c0.355-1.294,0.714-2.9,0.951-4.651
	c0.686-5.313,0.272-11.967-4.682-15.252c-2.393-1.584-7.955-1.759-10.786-2.228c-2.837-0.434-4.563-0.921-7.113-1.784
	c-0.682-0.224-1.434-0.64-2.223-0.87c-0.01-0.003-0.021-0.006-0.031-0.009c-0.01-0.003-0.021-0.006-0.031-0.009
	c-0.29-0.082-0.585-0.137-0.883-0.148c-0.472-0.017-0.943,0.103-1.414,0.362c-2.091,1.277-1.511,4.188-0.644,7.491
	c0.986,4.393,2.403,9.395-0.621,12.456c-1.508,1.561-3.476,2.247-5.589,2.521c-0.962,0.124-1.952,0.164-2.939,0.163
	c-0.811-0.001-1.636-0.036-2.434-0.074c-0.449-0.021-0.89-0.044-1.316-0.062c-0.038-0.002-0.08-0.003-0.117-0.005
	c-0.037-0.001-0.08-0.003-0.117-0.005c-5.174-0.242-6.207-2.504-8.543-6.541c-2.495-4.204-3.774-6.378-8.28-8.599
	c-3.963-1.956-4.141-3.774-6.916-6.69c-0.179-0.192-0.373-0.398-0.581-0.609c-0.091-0.092-0.184-0.186-0.28-0.28
	c-1.14-1.044-2.573-2.12-3.998-2.166c-0.001-0.001-0.048-0.001-0.048-0.002c-0.874-0.01-1.659,0.373-2.449,0.817
	c-0.224,0.132-0.448,0.268-0.675,0.401c-0.181,0.106-0.364,0.211-0.55,0.311c-0.597,0.345-1.223,0.635-1.915,0.745
	c-0.145,0.004-0.29,0.055-0.436,0.058c-1.729,0.045-3.144-1.068-4.568-1.037c-0.048,0.001-0.097,0.002-0.145,0.003
	c-1.581,0.114-2.932,0.862-4.241,1.809c-2.274,1.637-4.406,3.858-7.312,4.445c-0.466,0.093-0.971,0.171-1.499,0.234
	c-1.293,0.157-2.757,0.228-4.113,0.223c-0.643-0.003-1.284-0.007-1.876-0.059c-2.119-0.025-4.623-1.372-6.684-1.315
	c-0.097,0.003-0.193,0.005-0.29,0.007c-2.387,0.23-4.615,1.731-6.886,3.402c-2.666,1.961-5.37,4.158-8.433,4.83
	c-1.427,0.323-3.082,0.547-4.735,0.536c-3.507-0.025-7.002-1.045-8.269-4.254c-0.987-2.449,0.488-5.492-0.83-7.404
	c-0.398-0.519-1.039-0.94-2.057-1.221c-0.584-0.13-1.169-0.214-1.754-0.207c-1.985,0.025-4.054,0.875-6.168,1.994
	c-0.095,0.053-0.208,0.107-0.303,0.162c-0.147,0.084-0.322,0.17-0.469,0.257c-0.147,0.087-0.323,0.174-0.471,0.263
	c-3.882,2.201-7.886,4.951-11.75,4.87c-0.098-0.002-0.243-0.004-0.341-0.006c-5.068-0.342-12.248-3.226-16.596-6.695
	c-0.016-0.013-0.034-0.027-0.049-0.04c-0.016-0.013-0.033-0.027-0.049-0.04c-4.355-3.54-7.418-8.545-8.828-13.93
	c-1.036-3.792-3.53-10.823-2.32-14.591c0.976-2.938,2.74-4.081,4.83-4.165c1.78-0.077,3.789,0.613,5.743,1.631
	c0.69,0.365,1.368,0.758,2.026,1.17c2.537,1.632,4.778,3.568,6.019,4.725c1.496,1.415,4.838,3.368,7.683,3.255
	c0.964-0.038,1.836-0.302,2.571-0.892c3.77-2.996-1.478-7.104-1.59-10.2c-0.117-2.915,2.149-3.753,3.77-4.879
	c1.223-0.848,2.076-1.859,1.248-4.054c-0.842-2.237-2.692-3.051-4.493-3.105c-1.359-0.041-2.672,0.301-3.614,0.73
	c-3.194,1.409-4.817,3.538-8.588,3.627c-0.276-0.01-0.506-0.021-0.781-0.031c-4.826-0.171-8.523-3.008-9.226-8.162
	c-0.223-1.667-0.26-2.951-0.109-3.991c0.404-2.865,2.235-3.838,5.488-5.945c2.514-1.636,2.026-3.506,3.306-6.006
	c0.187-0.379,0.414-0.773,0.697-1.182c1.294-1.895,3.239-2.741,5.263-3.444c1.147-0.397,2.318-0.744,3.407-1.209
	c1.148-0.517,2.198-1.182,3.01-2.216c1.909-2.382,1.51-4.772,0.229-6.895c-1.028-1.641-2.609-3.124-4.047-4.316
	c-0.098-0.082-0.194-0.162-0.288-0.241c-3.525-2.926-4.583-3.654-5.014-8.39c-0.31-3.487-1.458-4.654-2.754-6.614
	c-0.399-0.579-0.813-1.23-1.219-2.028c-1.601-3.046-0.728-6.569-2.203-9.796c-0.56-1.211-1.261-2.347-2.034-3.442
	c-2.226-3.14-5.112-5.968-6.947-9.322c-4.48-8.037-10.887-22.231,1.52-25.427c1.25-0.326,2.364-0.521,3.343-0.565
	c2.855-0.129,4.813,0.921,6.648,3.148c0.466,0.557,0.925,1.191,1.388,1.903c2.674,4.017,6.115,5.429,9.627,8.572
	c3.002,2.638,4.647,7.743,5.62,11.494c0.429,1.503,0.741,4.786,2.048,6.462c0.487,0.633,1.114,1.037,1.941,1.031
	c0.195-0.002,0.435-0.05,0.676-0.097c0.665-2.744-1.519-4.395-1.354-6.87c0.03-0.412,0.125-0.847,0.311-1.313
	c0.61-1.611,2.191-1.698,2.805-2.842c0.3-0.548,0.515-1.06,0.659-1.55c0.433-1.93-0.081-3.57-0.767-5.676
	c-0.326-0.97-0.633-1.944-0.923-2.87c-0.043-0.137-0.085-0.273-0.127-0.41c-1.968-6.358-2.921-12.498-1.47-19.652
	c0.796-3.922,2.208-5.714,2.042-9.124c-0.004-0.051-0.004-0.109-0.008-0.16c-0.005-0.051-0.005-0.109-0.01-0.161
	c-0.065-0.645-0.185-1.348-0.373-2.132c-0.49-2.007-0.555-3.863-0.516-5.72c0.052-2.534,0.295-5.055-0.097-7.953
	c-0.245-1.849-1.08-5.122,0.076-6.867c1.14-1.672,2.837-1.452,3.663-2.934c0.149-0.265,0.275-0.541,0.381-0.827
	c1.214-3.562-0.701-8.655-0.238-12.301c0.564-5.161,3.728-3.306,5.295-7.749c1.899-5.247-1.184-11.148,5.49-13.181
	C133.418,66.081,134.575,65.877,135.687,65.86"/>
<path class="st1" d="M134.138,62.672c4.167-0.136,7.494,2.058,9.892,5.176l0,0c2.351,3.026,3.81,6.928,4.292,10.412
	c0.708,4.783,1.723,12.477,7.21,14.19c0.235,0.06,0.426,0.12,0.617,0.135c0.896,0.068,1.57-0.359,2.418-0.292
	c0.236,0.019,0.473,0.083,0.709,0.191c1.251,0.483,1.425,1.653,2.337,2.348c0.319,0.247,0.726,0.437,1.295,0.524
	c0.003,0.006,0.183,0.011,0.187,0.017c2.434,0.238,4.134-2.682,5.854-4.14c0.523-0.547,1.051-0.969,1.601-1.15
	c2.08-0.684,3.237-0.078,4.973-1.097c2.317-1.387,3.145-4.736,4.951-6.554c3.154-3.244,7.21-5.401,11.355-5.401
	c1.874,0,3.792,0.458,5.664,1.418c4.078,2.144,6.382,4.758,11.262,5.672c0.039,0.006,0.089,0.018,0.128,0.024
	c0.039,0.006,0.088,0.019,0.127,0.025c2.361,0.498,4.125,1.385,5.624,2.478c0.07,0.051,0.14,0.103,0.21,0.156
	c2.746,1.841,4.833,4.444,7.963,7.004c2.074,1.641,7.718,6.349,10.248,6.635c0.253,0.029,0.502,0.02,0.663-0.039
	c0.048,0.05,1.594-0.256,1.634-0.215c1.913-1.121,3.606-1.669,5.144-1.842c0.393-0.045,0.774-0.065,1.145-0.064
	c1.627,0.007,3.052,0.441,4.414,0.995c1.361,0.43,2.682,0.977,4.126,1.309c0.955,0.247,1.782,0.313,2.571,0.26
	c3.368-0.227,5.478-3.075,8.154-6.156c1.251-1.472,2.269-2.735,3.365-3.762c1.202-1.111,2.433-1.929,4.039-2.46
	c0.8-0.247,1.698-0.428,2.735-0.54c0.596-0.083,1.192-0.076,1.787-0.068c4.909,0.069,9.751,2.546,11.798,7.244
	c1.177,2.671,0.565,4.794,0.986,7.249c0.494,2.968,1.716,3.085,4.946,3.616c2.547,0.439,4.297,0.829,5.657,1.576
	c1.318,0.551,2.326,1.408,3.338,2.89c0.731,1.029,1.446,2.338,2.244,4.02c2.345,4.845,4.893,7.063,8.408,10.693
	c0.294,0.31,0.58,0.627,0.857,0.949c0.019,0.022,0.038,0.044,0.056,0.065c0.559,0.607,1.14,1.283,1.671,1.963
	c0.423,0.543,0.826,1.1,1.212,1.672c0.01,0.016,0.026,0.038,0.036,0.054c0.01,0.016,0.026,0.038,0.036,0.054
	c1.527,2.298,2.701,4.795,3.545,7.369c1.403,4.218,1.466,9.28-0.834,13.138c-0.386,0.67-0.943,1.274-1.594,1.844
	c-3.117,2.803-8.466,4.836-7.521,9.879c0.969,5.383,7.431,5.268,6.232,12.066c-0.258,1.417-0.848,2.446-1.629,3.261
	c-2.276,2.788-6.771,3.198-7.802,8.321c-0.023,0.116-0.045,0.232-0.066,0.347c-1.133,6.302,1.291,12.31,0.455,18.163
	c-0.024,0.159-0.049,0.315-0.074,0.467c-0.125,3.311-0.362,5.287,0.5,8.76c0.133,0.54,0.27,1.071,0.405,1.596
	c0.022,0.085,0.044,0.172,0.065,0.258c0.715,2.353,1.381,4.778,1.29,7.443c-0.077,1.728-0.243,3.472-0.476,5.235
	c-0.002,0.016-0.005,0.039-0.007,0.054c-0.002,0.016-0.005,0.039-0.007,0.054c-0.498,3.712-1.227,7.385-1.824,11.022
	c-0.59,3.579-1.059,7.106-1.033,10.556c0.022,0.705,0.088,1.447,0.2,2.226c0.037,0.345,0.099,0.711,0.156,1.067
	c0.16,1.096,0.384,2.218,0.667,3.369c0.723,3.154,2.313,6.122,3.973,9.02c0.412,0.711,0.83,1.413,1.244,2.106
	c1.849,3.09,5.044,6.281,5.917,9.642c0.186,0.755,0.345,1.6,0.476,2.498c0.891,6.999,0.048,17.961-4.098,21.926
	c-0.246,0.237-0.529,0.421-0.834,0.571c-1.335,0.775-3.166,0.821-4.112,2.01c-1.393,1.746-0.688,3.622-1.223,5.462
	c-1.27,4.117-3.537,4.63-6.641,5.806c-0.45,0.215-0.928,0.459-1.42,0.718c-7.555,3.596-8.789,11.657-14.7,17.034
	c-0.023,0.02-0.051,0.046-0.074,0.066c-0.023,0.02-0.052,0.046-0.075,0.065c-1.865,1.619-4.391,2.789-6.842,2.898
	c-2.046,0.093-4.053-0.575-5.491-2.403c-2.498-3.072-2.057-8.491-1.355-11.76c0.271-1.231,0.544-2.766,0.701-4.444
	c0.408-5.091-0.226-11.522-5.186-14.77c-2.434-1.584-7.894-1.838-10.724-2.392c-2.795-0.483-4.519-1.026-7.025-1.936
	c-0.674-0.242-1.414-0.667-2.189-0.916c-0.01-0.003-0.021-0.007-0.03-0.01c-0.01-0.002-0.021-0.007-0.03-0.009
	c-0.285-0.089-0.575-0.153-0.868-0.175c-0.464-0.035-0.927,0.063-1.389,0.293c-2.067,1.115-1.56,3.794-0.765,6.849
	c0.779,4.277,1.955,9.115-1.141,12.069c-1.53,1.505-3.503,2.166-5.619,2.429c-0.966,0.119-1.956,0.156-2.94,0.153
	c-0.814-0.002-1.638-0.038-2.433-0.075c-0.449-0.021-0.891-0.044-1.317-0.062c-0.036-0.002-0.082-0.003-0.118-0.005
	c-0.036-0.001-0.081-0.003-0.117-0.005c-5.212-0.244-6.414-2.465-8.831-6.41c-2.637-4.135-4.044-6.371-8.495-8.653
	c-3.942-2.04-4.202-3.948-6.921-6.852c-0.179-0.198-0.373-0.409-0.58-0.626c-0.091-0.095-0.184-0.191-0.28-0.288
	c-1.178-1.046-2.627-2.126-4.058-2.218c-0.002-0.001-0.047-0.002-0.049-0.003c-0.881-0.042-1.674,0.293-2.468,0.686
	c-0.23,0.127-0.46,0.257-0.693,0.385c-0.186,0.102-0.374,0.202-0.564,0.297c-0.603,0.352-1.237,0.651-1.936,0.778
	c-0.146,0.008-0.292,0.061-0.439,0.069c-1.73,0.089-3.169-0.936-4.624-0.875c-0.049,0.002-0.098,0.004-0.147,0.006
	c-1.594,0.14-2.975,0.883-4.322,1.81c-2.355,1.606-4.578,3.748-7.504,4.314c-0.478,0.09-0.991,0.165-1.524,0.225
	c-1.285,0.151-2.755,0.218-4.131,0.208c-0.661-0.005-1.319-0.015-1.929-0.07c-2.126,0.047-4.637-1.16-6.745-1.045
	c-0.097,0.005-0.194,0.009-0.292,0.014c-2.411,0.283-4.686,1.777-7.02,3.416c-2.742,1.924-5.522,4.053-8.643,4.696
	c-1.462,0.309-3.14,0.518-4.813,0.496c-3.559-0.05-7.093-1.081-8.474-4.236c-1.083-2.412,0.205-5.41-1.17-7.339
	c-0.425-0.482-1.085-0.871-2.108-1.126c-0.592-0.115-1.186-0.187-1.781-0.173c-2.02,0.05-4.128,0.88-6.286,1.952
	c-0.091,0.051-0.219,0.103-0.31,0.155c-0.14,0.081-0.339,0.163-0.48,0.246c-0.141,0.083-0.34,0.165-0.481,0.25
	c-3.952,2.098-8.042,4.68-11.996,4.517c-0.1-0.004-0.245-0.008-0.345-0.012c-5.192-0.443-12.4-3.38-16.824-6.909
	c-0.015-0.012-0.034-0.027-0.049-0.04c-0.015-0.012-0.034-0.028-0.049-0.04c-4.346-3.531-7.437-8.49-8.922-13.828
	c-1.112-3.792-3.604-10.701-2.529-14.493c0.897-2.9,2.553-4.076,4.525-4.251c1.678-0.149,3.579,0.426,5.431,1.319
	c0.655,0.327,1.295,0.668,1.915,1.026c2.405,1.47,4.523,3.219,5.686,4.212c1.409,1.245,4.588,2.991,7.301,2.767
	c0.919-0.076,1.752-0.364,2.455-0.967c3.604-3.016-1.42-7.104-1.5-10.224c-0.097-2.877,2.097-3.765,3.679-4.929
	c1.193-0.872,2.034-1.899,1.268-4.058c-0.771-2.218-2.504-3.078-4.187-3.187c-1.278-0.083-2.511,0.218-3.388,0.595
	c-3.076,1.235-4.642,3.139-8.247,3.079c-0.264-0.02-0.483-0.042-0.747-0.062c-4.611-0.342-8.118-3.232-8.708-8.356
	c-0.193-1.645-0.204-2.923-0.032-3.967c0.449-2.852,2.272-3.874,5.461-5.97c2.479-1.643,2.082-3.497,3.378-5.946
	c0.187-0.38,0.412-0.773,0.691-1.182c1.275-1.886,3.182-2.771,5.175-3.522c1.128-0.421,2.279-0.793,3.353-1.275
	c1.081-0.542,2.069-1.227,2.832-2.269c1.802-2.371,1.397-4.758,0.152-6.899c-1.022-1.628-2.578-3.117-3.998-4.341
	c-0.096-0.083-0.19-0.164-0.283-0.244c-3.448-2.941-4.505-3.769-4.946-8.427c-0.323-3.452-1.436-4.669-2.685-6.628
	c-0.402-0.579-0.821-1.229-1.229-2.016c-1.618-3.019-0.881-6.515-2.389-9.752c-0.569-1.209-1.272-2.349-2.044-3.454
	c-2.19-3.111-5.048-5.984-6.895-9.402c-4.448-8.058-10.734-22.141,1.217-25.702c1.204-0.365,2.28-0.609,3.229-0.698
	c2.759-0.257,4.674,0.65,6.485,2.668c0.462,0.499,0.918,1.073,1.38,1.722c2.66,3.665,6.085,4.858,9.606,7.735
	c3.029,2.397,4.782,7.183,5.913,10.699c0.509,1.402,0.911,4.518,2.271,6.1c0.502,0.599,1.137,0.981,1.963,0.968
	c0.197-0.003,0.438-0.051,0.679-0.099c0.754-2.649-1.228-4.241-0.959-6.612c0.049-0.395,0.162-0.811,0.361-1.257
	c0.644-1.542,2.221-1.62,2.875-2.707c0.313-0.522,0.545-1.008,0.709-1.473c0.411-1.963-0.079-3.633-0.734-5.731
	c-0.311-0.978-0.603-1.975-0.884-2.886c-0.042-0.137-0.084-0.274-0.125-0.412c-1.918-6.263-2.896-12.489-1.393-19.719
	c0.801-3.883,2.211-5.73,2.137-9.126c-0.004-0.049,0.001-0.111-0.003-0.16c-0.004-0.049,0-0.111-0.005-0.161
	c-0.065-0.649-0.182-1.356-0.363-2.14c-0.472-2.004-0.533-3.87-0.486-5.742c0.063-2.551,0.319-5.084-0.021-7.972
	c-0.202-1.875-0.959-5.107,0.201-6.871c1.128-1.664,2.795-1.512,3.63-2.989c0.152-0.265,0.281-0.54,0.391-0.825
	c1.174-3.565-0.632-8.633-0.106-12.327c0.6-5.09,3.711-3.444,5.31-7.819c1.973-5.213-0.783-11.017,5.844-13.067
	C131.856,62.923,133.017,62.707,134.138,62.672"/>
<path class="st1" d="M132.589,59.485c4.192-0.203,7.589,1.858,10.098,4.84l0,0c2.471,2.895,4.082,6.665,4.746,10.07
	c0.966,4.678,2.201,12.212,7.67,14.085c0.233,0.065,0.423,0.133,0.614,0.154c0.887,0.101,1.563-0.277,2.404-0.174
	c0.235,0.029,0.469,0.101,0.703,0.215c1.234,0.51,1.437,1.679,2.343,2.397c0.319,0.258,0.722,0.462,1.28,0.567
	c0.005,0.008,0.179,0.017,0.184,0.025c2.407,0.358,4.099-2.298,5.8-3.548c0.528-0.547,1.06-0.974,1.615-1.17
	c2.064-0.714,3.248-0.189,4.987-1.213c2.348-1.409,3.277-4.679,5.146-6.471c3.243-3.187,7.358-5.293,11.561-5.293
	c1.899,0,3.84,0.447,5.736,1.383c4.126,2.089,6.549,4.665,11.421,5.652c0.037,0.006,0.091,0.021,0.128,0.027
	c0.037,0.006,0.09,0.021,0.127,0.028c2.391,0.551,4.182,1.473,5.692,2.573c0.071,0.052,0.143,0.105,0.215,0.159
	c2.863,1.809,5.058,4.38,8.219,6.922c2.248,1.717,7.836,6.384,10.379,6.809c0.259,0.043,0.514,0.053,0.682,0.013
	c0.072,0.076,1.574-0.192,1.635-0.131c1.938-1.091,3.665-1.625,5.246-1.791c0.399-0.043,0.786-0.062,1.164-0.06
	c1.653,0.01,3.106,0.436,4.492,0.983c1.358,0.348,2.686,0.805,4.142,1.058c0.952,0.203,1.784,0.23,2.584,0.149
	c3.371-0.338,5.577-3.149,8.367-6.161c1.289-1.435,2.363-2.664,3.52-3.662c1.278-1.082,2.56-1.864,4.154-2.372
	c0.821-0.236,1.736-0.407,2.782-0.51c0.606-0.077,1.211-0.067,1.816-0.054c4.988,0.104,9.898,2.571,12.105,7.218
	c1.262,2.639,0.799,4.767,1.312,7.225c0.572,2.94,1.83,3.164,4.995,3.792c2.503,0.526,4.233,1.011,5.579,1.845
	c1.341,0.563,2.388,1.427,3.437,2.899c0.782,1.04,1.541,2.352,2.371,4.025c2.462,4.843,5.036,7.211,8.508,10.928
	c0.292,0.321,0.576,0.647,0.851,0.979c0.019,0.023,0.038,0.045,0.056,0.067c0.556,0.604,1.161,1.297,1.711,1.986
	c0.434,0.547,0.85,1.109,1.251,1.687c0.01,0.016,0.028,0.039,0.038,0.055c0.01,0.016,0.028,0.039,0.037,0.055
	c1.582,2.316,2.815,4.833,3.72,7.434c1.504,4.263,1.695,9.36-0.411,13.324c-0.352,0.692-0.868,1.32-1.476,1.917
	c-2.901,2.96-7.99,5.191-7.108,10.292c0.902,5.458,6.994,5.645,5.699,12.411c-0.284,1.422-0.89,2.47-1.682,3.311
	c-2.111,2.872-6.376,3.515-7.401,8.709c-0.023,0.118-0.045,0.235-0.066,0.353c-1.141,6.418,0.995,12.507-0.095,18.364
	c-0.032,0.16-0.065,0.317-0.098,0.47c-0.09,3.343-0.29,5.444,0.521,9.002c0.125,0.561,0.253,1.108,0.379,1.648
	c0.02,0.088,0.041,0.177,0.061,0.267c0.727,2.388,1.42,4.892,1.359,7.663c-0.06,1.771-0.212,3.569-0.444,5.394
	c-0.002,0.015-0.005,0.041-0.007,0.056c-0.002,0.015-0.005,0.041-0.007,0.056c-0.497,3.846-1.243,7.636-1.858,11.358
	c-0.619,3.73-1.115,7.37-1.065,10.873c0.036,0.703,0.129,1.461,0.279,2.273c0.048,0.345,0.131,0.722,0.202,1.083
	c0.2,1.102,0.472,2.241,0.802,3.419c0.815,3.178,2.473,6.228,4.141,9.267c0.412,0.738,0.827,1.468,1.236,2.19
	c1.838,3.267,4.903,6.638,5.731,10.07c0.176,0.798,0.324,1.671,0.446,2.577c0.803,7.357-0.21,18.352-4.534,22.49
	c-0.254,0.245-0.543,0.438-0.854,0.598c-1.322,0.861-3.128,1.011-4.092,2.241c-1.418,1.803-0.84,3.705-1.451,5.553
	c-1.443,4.141-3.851,4.728-6.951,5.901c-0.451,0.238-0.931,0.51-1.421,0.79c-7.348,3.642-8.695,11.629-14.634,17.031
	c-0.022,0.019-0.052,0.047-0.074,0.066c-0.022,0.019-0.053,0.046-0.075,0.065c-1.866,1.623-4.372,2.809-6.809,2.972
	c-2.037,0.14-4.04-0.455-5.501-2.164c-2.571-2.856-2.342-7.985-1.865-11.087c0.186-1.169,0.374-2.633,0.452-4.237
	c0.13-4.87-0.723-11.076-5.691-14.288c-2.474-1.584-7.834-1.916-10.662-2.556c-2.752-0.533-4.474-1.131-6.938-2.088
	c-0.666-0.259-1.395-0.695-2.156-0.963c-0.009-0.002-0.02-0.008-0.03-0.01c-0.009-0.002-0.02-0.008-0.03-0.01
	c-0.281-0.097-0.566-0.17-0.853-0.202c-0.456-0.052-0.91,0.022-1.363,0.223c-2.044,0.954-1.609,3.401-0.887,6.207
	c0.571,4.162,1.506,8.835-1.66,11.682c-1.552,1.449-3.531,2.086-5.649,2.337c-0.969,0.114-1.96,0.148-2.942,0.144
	c-0.816-0.004-1.64-0.039-2.432-0.077c-0.45-0.021-0.892-0.044-1.319-0.062c-0.034-0.001-0.084-0.003-0.118-0.005
	c-0.034-0.001-0.083-0.003-0.117-0.005c-5.25-0.245-6.621-2.425-9.118-6.279c-2.78-4.067-4.314-6.365-8.711-8.708
	c-3.921-2.123-4.263-4.122-6.925-7.013c-0.179-0.204-0.372-0.421-0.579-0.643c-0.091-0.098-0.184-0.197-0.279-0.297
	c-1.217-1.049-2.681-2.131-4.119-2.27c-0.002-0.002-0.047-0.003-0.049-0.005c-0.889-0.074-1.689,0.213-2.487,0.556
	c-0.235,0.122-0.472,0.247-0.71,0.369c-0.191,0.098-0.383,0.193-0.577,0.284c-0.609,0.359-1.251,0.668-1.956,0.811
	c-0.147,0.012-0.295,0.068-0.443,0.079c-1.731,0.133-3.193-0.805-4.68-0.712c-0.049,0.003-0.099,0.006-0.148,0.008
	c-1.608,0.166-3.018,0.904-4.404,1.811c-2.436,1.575-4.751,3.638-7.696,4.183c-0.49,0.087-1.012,0.159-1.549,0.217
	c-1.276,0.144-2.753,0.209-4.149,0.193c-0.68-0.008-1.355-0.022-1.981-0.082c-2.133,0.119-4.651-0.95-6.805-0.776
	c-0.098,0.008-0.196,0.014-0.293,0.021c-2.435,0.336-4.757,1.823-7.154,3.43c-2.818,1.887-5.674,3.947-8.853,4.563
	c-1.497,0.296-3.198,0.489-4.892,0.455c-3.61-0.075-7.183-1.118-8.679-4.218c-1.18-2.375-0.079-5.328-1.51-7.274
	c-0.453-0.444-1.132-0.801-2.158-1.032c-0.6-0.101-1.203-0.161-1.807-0.14c-2.054,0.074-4.201,0.885-6.405,1.91
	c-0.087,0.049-0.23,0.098-0.317,0.148c-0.134,0.077-0.356,0.156-0.491,0.235c-0.135,0.08-0.357,0.156-0.492,0.238
	c-4.021,1.995-8.199,4.41-12.242,4.165c-0.103-0.006-0.248-0.012-0.35-0.019c-5.316-0.545-12.552-3.535-17.052-7.124
	c-0.015-0.012-0.035-0.028-0.049-0.04c-0.014-0.012-0.035-0.028-0.049-0.04c-4.338-3.523-7.456-8.434-9.016-13.726
	c-1.187-3.792-3.679-10.579-2.737-14.396c0.817-2.862,2.365-4.074,4.219-4.336c1.577-0.224,3.37,0.239,5.119,1.006
	c0.62,0.289,1.222,0.578,1.804,0.881c2.273,1.308,4.268,2.87,5.353,3.7c1.321,1.076,4.337,2.615,6.92,2.278
	c0.875-0.114,1.669-0.426,2.338-1.043c3.439-3.036-1.362-7.104-1.41-10.248c-0.077-2.84,2.044-3.777,3.589-4.979
	c1.164-0.897,1.993-1.939,1.287-4.063c-0.701-2.199-2.314-3.105-3.88-3.268c-1.196-0.124-2.351,0.135-3.162,0.461
	c-2.958,1.06-4.467,2.741-7.907,2.53c-0.252-0.031-0.461-0.063-0.712-0.093c-4.396-0.513-7.712-3.456-8.191-8.55
	c-0.162-1.623-0.147-2.894,0.046-3.943c0.494-2.839,2.31-3.91,5.434-5.994c2.443-1.65,2.139-3.488,3.45-5.886
	c0.187-0.38,0.41-0.773,0.686-1.182c1.256-1.876,3.124-2.801,5.087-3.6c1.109-0.446,2.241-0.842,3.299-1.341
	c1.014-0.566,1.941-1.272,2.653-2.322c1.695-2.36,1.283-4.744,0.075-6.902c-1.015-1.615-2.546-3.11-3.948-4.365
	c-0.094-0.084-0.187-0.166-0.278-0.247c-3.37-2.955-4.426-3.885-4.877-8.463c-0.336-3.417-1.414-4.685-2.617-6.642
	c-0.405-0.58-0.828-1.228-1.238-2.005c-1.635-2.993-1.033-6.46-2.576-9.708c-0.577-1.207-1.283-2.351-2.053-3.465
	c-2.155-3.082-4.984-6.001-6.844-9.483c-4.416-8.079-10.581-22.052,0.913-25.977c1.159-0.403,2.194-0.697,3.116-0.83
	c2.66-0.385,4.535,0.379,6.321,2.188c0.458,0.441,0.912,0.955,1.372,1.54c2.646,3.314,6.056,4.287,9.585,6.899
	c3.055,2.155,4.916,6.622,6.205,9.905c0.589,1.301,1.08,4.249,2.494,5.737c0.516,0.565,1.16,0.924,1.985,0.904
	c0.2-0.005,0.441-0.053,0.683-0.1c0.843-2.554-0.937-4.087-0.565-6.355c0.069-0.378,0.199-0.776,0.411-1.202
	c0.678-1.473,2.252-1.542,2.944-2.573c0.326-0.495,0.575-0.956,0.759-1.396c0.388-1.996-0.077-3.695-0.701-5.786
	c-0.296-0.985-0.573-2.006-0.844-2.902c-0.041-0.137-0.083-0.275-0.124-0.413c-1.868-6.169-2.871-12.479-1.316-19.786
	c0.805-3.845,2.214-5.747,2.232-9.127c-0.004-0.047,0.006-0.113,0.001-0.16c-0.004-0.047,0.005-0.114,0-0.161
	c-0.065-0.654-0.179-1.363-0.353-2.148c-0.454-2.002-0.511-3.878-0.455-5.764c0.074-2.569,0.344-5.114,0.055-7.991
	c-0.159-1.9-0.839-5.093,0.325-6.874c1.116-1.656,2.752-1.572,3.598-3.043c0.154-0.264,0.287-0.539,0.401-0.822
	c1.135-3.568-0.563-8.611,0.027-12.353c0.636-5.019,3.695-3.582,5.325-7.888c2.048-5.18-0.383-10.885,6.198-12.952
	C130.294,59.764,131.46,59.537,132.589,59.485"/>
<path class="st1" d="M131.039,56.298c4.218-0.271,7.683,1.658,10.304,4.504l0,0c2.591,2.763,4.354,6.402,5.2,9.728
	c1.224,4.574,2.678,11.947,8.131,13.98c0.231,0.071,0.421,0.145,0.611,0.174c0.879,0.135,1.556-0.193,2.389-0.056
	c0.233,0.038,0.466,0.118,0.698,0.239c1.217,0.537,1.448,1.706,2.349,2.446c0.32,0.269,0.719,0.487,1.266,0.61
	c0.007,0.011,0.175,0.022,0.182,0.033c2.379,0.477,4.065-1.914,5.746-2.957c0.532-0.548,1.069-0.979,1.629-1.19
	c2.047-0.744,3.258-0.301,5.002-1.33c2.379-1.431,3.409-4.623,5.342-6.388c3.332-3.129,7.507-5.185,11.766-5.185
	c1.923,0,3.888,0.436,5.808,1.348c4.173,2.033,6.716,4.573,11.58,5.633c0.036,0.005,0.093,0.023,0.128,0.029
	c0.035,0.006,0.092,0.024,0.128,0.03c2.421,0.605,4.24,1.562,5.76,2.668c0.073,0.053,0.146,0.107,0.22,0.162
	c2.979,1.777,5.283,4.315,8.474,6.84c2.421,1.794,7.954,6.422,10.511,6.983c0.266,0.058,0.525,0.087,0.701,0.065
	c0.096,0.101,1.555-0.128,1.637-0.046c1.962-1.062,3.725-1.582,5.348-1.74c0.405-0.041,0.798-0.059,1.182-0.056
	c1.678,0.013,3.159,0.432,4.57,0.97c1.355,0.265,2.691,0.633,4.158,0.807c0.949,0.159,1.786,0.147,2.597,0.039
	c3.373-0.447,5.676-3.223,8.579-6.167c1.328-1.397,2.457-2.593,3.674-3.561c1.354-1.052,2.687-1.799,4.269-2.284
	c0.842-0.225,1.774-0.386,2.83-0.48c0.616-0.07,1.231-0.057,1.846-0.04c5.066,0.139,10.046,2.596,12.412,7.192
	c1.347,2.606,1.034,4.74,1.637,7.201c0.651,2.912,1.944,3.242,5.044,3.968c2.458,0.612,4.168,1.194,5.501,2.114
	c1.365,0.576,2.45,1.447,3.536,2.908c0.834,1.051,1.635,2.366,2.497,4.03c2.578,4.841,5.178,7.359,8.608,11.162
	c0.29,0.331,0.572,0.667,0.845,1.009c0.019,0.024,0.037,0.047,0.056,0.069c0.552,0.6,1.183,1.312,1.751,2.01
	c0.445,0.551,0.874,1.118,1.29,1.701c0.009,0.015,0.03,0.04,0.039,0.055c0.009,0.015,0.029,0.04,0.039,0.055
	c1.636,2.333,2.929,4.871,3.896,7.498c1.605,4.309,1.925,9.44,0.012,13.509c-0.318,0.713-0.794,1.366-1.359,1.991
	c-2.684,3.117-7.513,5.546-6.695,10.704c0.834,5.533,6.557,6.023,5.167,12.756c-0.31,1.426-0.931,2.494-1.734,3.361
	c-1.946,2.957-5.98,3.833-7.001,9.098c-0.023,0.12-0.045,0.239-0.066,0.359c-1.149,6.533,0.699,12.704-0.645,18.566
	c-0.04,0.161-0.081,0.319-0.122,0.474c-0.054,3.374-0.218,5.601,0.542,9.244c0.117,0.581,0.236,1.145,0.354,1.7
	c0.019,0.09,0.038,0.183,0.057,0.275c0.738,2.424,1.458,5.006,1.428,7.883c-0.042,1.814-0.181,3.666-0.411,5.553
	c-0.002,0.014-0.005,0.044-0.007,0.058c-0.002,0.014-0.005,0.044-0.007,0.058c-0.496,3.981-1.259,7.886-1.892,11.693
	c-0.648,3.881-1.171,7.635-1.097,11.19c0.049,0.701,0.169,1.475,0.359,2.32c0.059,0.345,0.162,0.733,0.249,1.098
	c0.24,1.108,0.559,2.264,0.937,3.469c0.908,3.201,2.633,6.335,4.31,9.515c0.412,0.764,0.824,1.523,1.228,2.273
	c1.827,3.445,4.761,6.994,5.546,10.499c0.166,0.842,0.304,1.743,0.416,2.657c0.715,7.714-0.469,18.744-4.971,23.054
	c-0.262,0.252-0.558,0.455-0.874,0.625c-1.309,0.947-3.089,1.201-4.072,2.473c-1.442,1.859-0.992,3.788-1.678,5.643
	c-1.617,4.165-4.166,4.825-7.26,5.995c-0.451,0.26-0.934,0.56-1.422,0.861c-7.141,3.687-8.602,11.601-14.567,17.029
	c-0.021,0.018-0.053,0.048-0.074,0.066c-0.021,0.018-0.054,0.047-0.075,0.066c-1.868,1.626-4.352,2.829-6.776,3.046
	c-2.027,0.186-4.027-0.334-5.511-1.925c-2.644-2.64-2.626-7.479-2.374-10.415c0.101-1.106,0.204-2.499,0.202-4.031
	c-0.147-4.649-1.221-10.631-6.196-13.806c-2.515-1.583-7.773-1.995-10.6-2.72c-2.709-0.583-4.429-1.236-6.85-2.24
	c-0.658-0.277-1.376-0.723-2.123-1.009c-0.009-0.002-0.02-0.009-0.029-0.011c-0.009-0.002-0.02-0.009-0.029-0.011
	c-0.276-0.105-0.556-0.186-0.838-0.229c-0.447-0.069-0.893-0.018-1.337,0.154c-2.02,0.792-1.658,3.007-1.009,5.565
	c0.364,4.046,1.058,8.555-2.179,11.295c-1.574,1.393-3.559,2.005-5.679,2.245c-0.973,0.109-1.964,0.14-2.943,0.135
	c-0.819-0.005-1.642-0.04-2.431-0.078c-0.45-0.022-0.893-0.044-1.32-0.062c-0.033-0.001-0.086-0.004-0.118-0.005
	c-0.033-0.001-0.085-0.004-0.118-0.005c-5.288-0.247-6.828-2.386-9.406-6.148c-2.923-3.998-4.583-6.359-8.927-8.762
	c-3.9-2.207-4.324-4.296-6.929-7.175c-0.179-0.209-0.372-0.432-0.578-0.661c-0.09-0.101-0.184-0.203-0.279-0.306
	c-1.255-1.052-2.734-2.137-4.179-2.323c-0.003-0.002-0.046-0.004-0.05-0.007c-0.897-0.106-1.704,0.133-2.505,0.426
	c-0.241,0.117-0.483,0.237-0.728,0.353c-0.196,0.093-0.393,0.184-0.591,0.27c-0.616,0.366-1.264,0.684-1.976,0.844
	c-0.148,0.016-0.297,0.074-0.446,0.089c-1.732,0.177-3.217-0.674-4.736-0.55c-0.05,0.004-0.1,0.007-0.149,0.011
	c-1.621,0.191-3.062,0.925-4.486,1.812c-2.518,1.544-4.923,3.528-7.888,4.052c-0.501,0.084-1.032,0.153-1.574,0.208
	c-1.268,0.138-2.751,0.199-4.168,0.178c-0.699-0.011-1.39-0.029-2.033-0.093c-2.14,0.19-4.665-0.74-6.865-0.507
	c-0.098,0.01-0.197,0.018-0.295,0.027c-2.459,0.39-4.827,1.87-7.288,3.443c-2.894,1.85-5.826,3.841-9.062,4.429
	c-1.531,0.282-3.256,0.461-4.971,0.415c-3.661-0.1-7.274-1.154-8.884-4.199c-1.276-2.337-0.363-5.245-1.85-7.209
	c-0.48-0.407-1.178-0.731-2.209-0.937c-0.608-0.086-1.22-0.135-1.833-0.106c-2.089,0.099-4.275,0.889-6.524,1.868
	c-0.083,0.047-0.241,0.094-0.324,0.141c-0.128,0.074-0.373,0.149-0.502,0.225c-0.129,0.076-0.374,0.147-0.503,0.225
	c-4.091,1.892-8.355,4.139-12.488,3.813c-0.105-0.008-0.25-0.017-0.355-0.025c-5.44-0.647-12.704-3.689-17.28-7.339
	c-0.014-0.011-0.035-0.028-0.049-0.04c-0.014-0.011-0.035-0.028-0.049-0.04c-4.329-3.515-7.475-8.378-9.111-13.624
	c-1.263-3.792-3.753-10.458-2.945-14.299c0.738-2.824,2.178-4.072,3.913-4.422c1.476-0.298,3.16,0.052,4.807,0.693
	c0.586,0.251,1.149,0.488,1.693,0.736c2.141,1.146,4.012,2.521,5.019,3.187c1.233,0.907,4.086,2.239,6.539,1.789
	c0.83-0.152,1.585-0.489,2.221-1.118c3.273-3.056-1.304-7.104-1.32-10.271c-0.057-2.802,1.991-3.789,3.499-5.028
	c1.134-0.921,1.952-1.979,1.307-4.067c-0.63-2.18-2.124-3.132-3.573-3.349c-1.114-0.167-2.19,0.052-2.936,0.326
	c-2.84,0.885-4.292,2.342-7.566,1.981c-0.24-0.041-0.438-0.084-0.677-0.124c-4.18-0.684-7.307-3.68-7.673-8.744
	c-0.132-1.601-0.091-2.866,0.124-3.919c0.539-2.825,2.347-3.945,5.407-6.019c2.408-1.656,2.195-3.479,3.522-5.826
	c0.186-0.38,0.409-0.774,0.68-1.182c1.237-1.867,3.067-2.831,4.999-3.678c1.089-0.47,2.202-0.89,3.245-1.406
	c0.947-0.59,1.812-1.317,2.474-2.375c1.587-2.349,1.17-4.73-0.001-6.906c-1.008-1.601-2.515-3.103-3.898-4.39
	c-0.092-0.085-0.183-0.168-0.272-0.25c-3.292-2.969-4.348-4-4.809-8.5c-0.349-3.382-1.392-4.701-2.548-6.656
	c-0.409-0.58-0.836-1.228-1.248-1.993c-1.652-2.966-1.186-6.406-2.762-9.663c-0.586-1.205-1.294-2.353-2.062-3.476
	c-2.119-3.052-4.92-6.017-6.792-9.564c-4.384-8.101-10.429-21.962,0.609-26.252c1.113-0.441,2.109-0.785,3.003-0.963
	c2.561-0.511,4.396,0.107,6.157,1.709c0.455,0.383,0.905,0.836,1.364,1.359c2.632,2.963,6.027,3.716,9.563,6.062
	c3.082,1.913,5.051,6.061,6.497,9.11c0.668,1.2,1.25,3.98,2.717,5.375c0.53,0.531,1.182,0.867,2.007,0.84
	c0.202-0.007,0.445-0.055,0.687-0.102c0.931-2.459-0.645-3.932-0.17-6.097c0.088-0.361,0.235-0.74,0.462-1.146
	c0.713-1.403,2.283-1.465,3.013-2.438c0.34-0.469,0.605-0.904,0.809-1.319c0.366-2.028-0.075-3.758-0.667-5.841
	c-0.28-0.992-0.543-2.037-0.804-2.918c-0.041-0.137-0.081-0.276-0.122-0.415c-1.818-6.074-2.845-12.47-1.239-19.852
	c0.81-3.807,2.217-5.763,2.327-9.129c-0.003-0.044,0.01-0.115,0.006-0.16c-0.004-0.045,0.009-0.116,0.005-0.161
	c-0.065-0.658-0.175-1.37-0.342-2.156c-0.437-1.999-0.488-3.885-0.425-5.787c0.084-2.587,0.369-5.144,0.132-8.01
	c-0.116-1.925-0.719-5.078,0.449-6.877c1.104-1.648,2.709-1.632,3.565-3.097c0.156-0.264,0.292-0.538,0.411-0.82
	c1.095-3.571-0.494-8.589,0.16-12.38c0.672-4.949,3.679-3.719,5.34-7.957c2.122-5.146,0.018-10.753,6.552-12.838
	C128.731,56.606,129.903,56.367,131.039,56.298"/>
<path class="st1" d="M129.49,53.111c4.243-0.339,7.777,1.457,10.509,4.168l0,0c2.711,2.632,4.626,6.138,5.654,9.386
	c1.483,4.469,3.156,11.681,8.592,13.875c0.228,0.077,0.418,0.157,0.608,0.193c0.87,0.168,1.549-0.109,2.374,0.061
	c0.231,0.048,0.462,0.136,0.692,0.262c1.2,0.565,1.46,1.733,2.355,2.495c0.32,0.28,0.715,0.511,1.251,0.653
	c0.008,0.014,0.171,0.028,0.179,0.042c2.352,0.596,4.031-1.53,5.692-2.366c0.537-0.548,1.079-0.985,1.642-1.21
	c2.031-0.774,3.269-0.412,5.016-1.446c2.409-1.453,3.542-4.567,5.537-6.304c3.421-3.071,7.656-5.078,11.972-5.078
	c1.948,0,3.936,0.425,5.88,1.312c4.22,1.977,6.883,4.48,11.738,5.613c0.034,0.005,0.095,0.026,0.129,0.031
	c0.034,0.005,0.094,0.026,0.128,0.032c2.451,0.658,4.297,1.65,5.828,2.762c0.074,0.054,0.149,0.109,0.224,0.165
	c3.096,1.744,5.508,4.251,8.73,6.758c2.594,1.87,8.072,6.463,10.643,7.156c0.273,0.074,0.536,0.121,0.721,0.118
	c0.119,0.126,1.536-0.064,1.638,0.038c1.986-1.033,3.784-1.538,5.45-1.689c0.411-0.039,0.811-0.056,1.201-0.052
	c1.704,0.017,3.213,0.427,4.647,0.957c1.352,0.183,2.695,0.461,4.174,0.556c0.947,0.114,1.789,0.064,2.611-0.071
	c3.376-0.555,5.774-3.296,8.792-6.173c1.366-1.36,2.551-2.522,3.828-3.46c1.43-1.023,2.813-1.734,4.384-2.196
	c0.863-0.215,1.811-0.366,2.878-0.45c0.626-0.064,1.251-0.047,1.875-0.026c5.145,0.174,10.193,2.621,12.718,7.166
	c1.431,2.574,1.268,4.713,1.962,7.178c0.73,2.884,2.058,3.321,5.093,4.145c2.414,0.699,4.104,1.376,5.423,2.383
	c1.389,0.588,2.511,1.466,3.635,2.918c0.885,1.062,1.73,2.381,2.623,4.035c2.695,4.839,5.321,7.506,8.708,11.397
	c0.288,0.341,0.568,0.688,0.839,1.039c0.019,0.025,0.037,0.048,0.055,0.071c0.549,0.596,1.205,1.326,1.791,2.034
	c0.456,0.555,0.898,1.126,1.329,1.715c0.009,0.014,0.031,0.041,0.04,0.055c0.009,0.014,0.031,0.041,0.04,0.055
	c1.691,2.351,3.042,4.909,4.071,7.563c1.707,4.354,2.154,9.52,0.435,13.694c-0.283,0.734-0.719,1.412-1.241,2.064
	c-2.468,3.274-7.036,5.901-6.282,11.117c0.767,5.608,6.12,6.401,4.635,13.101c-0.336,1.431-0.973,2.518-1.786,3.411
	c-1.781,3.042-5.585,4.151-6.601,9.487c-0.023,0.122-0.045,0.243-0.066,0.365c-1.156,6.649,0.402,12.901-1.194,18.767
	c-0.048,0.163-0.097,0.322-0.145,0.477c-0.018,3.406-0.147,5.759,0.563,9.487c0.109,0.601,0.22,1.183,0.329,1.752
	c0.018,0.093,0.035,0.188,0.053,0.284c0.749,2.46,1.496,5.12,1.498,8.103c-0.024,1.858-0.15,3.763-0.379,5.713
	c-0.002,0.014-0.005,0.046-0.007,0.06c-0.002,0.014-0.005,0.046-0.007,0.06c-0.494,4.115-1.276,8.136-1.925,12.028
	c-0.677,4.032-1.228,7.899-1.129,11.506c0.063,0.699,0.209,1.489,0.438,2.367c0.07,0.344,0.194,0.744,0.296,1.114
	c0.28,1.114,0.647,2.287,1.072,3.519c1.001,3.225,2.792,6.442,4.478,9.762c0.411,0.791,0.821,1.578,1.22,2.357
	c1.815,3.622,4.619,7.351,5.36,10.928c0.156,0.886,0.283,1.814,0.386,2.737c0.627,8.072-0.727,19.135-5.408,23.617
	c-0.27,0.26-0.573,0.472-0.895,0.651c-1.296,1.033-3.051,1.39-4.053,2.704c-1.467,1.916-1.144,3.871-1.906,5.734
	c-1.79,4.19-4.48,4.922-7.57,6.09c-0.452,0.283-0.937,0.611-1.423,0.932c-6.935,3.733-8.508,11.573-14.501,17.026
	c-0.02,0.018-0.054,0.049-0.074,0.066c-0.02,0.017-0.055,0.048-0.075,0.066c-1.87,1.63-4.332,2.849-6.743,3.121
	c-2.018,0.233-4.014-0.214-5.52-1.686c-2.717-2.424-2.911-6.972-2.884-9.743c0.017-1.044,0.034-2.365-0.048-3.824
	c-0.425-4.427-1.719-10.185-6.701-13.323c-2.556-1.583-7.712-2.074-10.538-2.884c-2.667-0.633-4.385-1.341-6.763-2.392
	c-0.65-0.294-1.356-0.75-2.09-1.056c-0.008-0.002-0.02-0.01-0.029-0.012c-0.008-0.002-0.02-0.01-0.029-0.012
	c-0.272-0.112-0.546-0.203-0.823-0.257c-0.439-0.087-0.877-0.059-1.312,0.084c-1.996,0.631-1.707,2.614-1.13,4.923
	c0.156,3.931,0.609,8.275-2.699,10.908c-1.596,1.336-3.587,1.925-5.709,2.153c-0.977,0.104-1.968,0.133-2.945,0.126
	c-0.821-0.006-1.644-0.042-2.43-0.079c-0.451-0.022-0.893-0.044-1.321-0.062c-0.031-0.001-0.087-0.004-0.118-0.005
	c-0.031-0.001-0.087-0.004-0.118-0.005c-5.326-0.249-7.035-2.346-9.693-6.018c-3.065-3.93-4.853-6.353-9.142-8.817
	c-3.878-2.291-4.385-4.47-6.934-7.337c-0.179-0.215-0.372-0.444-0.577-0.678c-0.09-0.103-0.183-0.209-0.278-0.314
	c-1.293-1.054-2.788-2.143-4.24-2.375c-0.004-0.003-0.046-0.006-0.05-0.008c-0.904-0.137-1.719,0.053-2.524,0.295
	c-0.247,0.112-0.495,0.226-0.745,0.337c-0.2,0.089-0.402,0.175-0.605,0.257c-0.622,0.373-1.278,0.701-1.996,0.877
	c-0.149,0.021-0.299,0.081-0.449,0.1c-1.733,0.22-3.241-0.544-4.792-0.387c-0.05,0.005-0.101,0.009-0.151,0.014
	c-1.634,0.217-3.105,0.946-4.567,1.813c-2.599,1.513-5.096,3.417-8.08,3.921c-0.513,0.081-1.052,0.147-1.599,0.199
	c-1.26,0.131-2.748,0.19-4.186,0.163c-0.718-0.014-1.426-0.036-2.086-0.104c-2.147,0.262-4.679-0.531-6.926-0.238
	c-0.099,0.013-0.198,0.023-0.297,0.034c-2.483,0.443-4.898,1.916-7.422,3.457c-2.97,1.814-5.978,3.736-9.272,4.295
	c-1.566,0.269-3.314,0.432-5.049,0.375c-3.712-0.125-7.364-1.191-9.089-4.181c-1.372-2.3-0.646-5.163-2.19-7.144
	c-0.508-0.369-1.224-0.662-2.26-0.843c-0.617-0.072-1.236-0.109-1.859-0.073c-2.123,0.124-4.348,0.894-6.642,1.826
	c-0.079,0.044-0.252,0.089-0.331,0.135c-0.122,0.07-0.39,0.142-0.512,0.214c-0.122,0.072-0.391,0.139-0.513,0.213
	c-4.161,1.789-8.512,3.869-12.733,3.461c-0.107-0.01-0.253-0.021-0.36-0.031c-5.564-0.749-12.857-3.843-17.508-7.554
	c-0.013-0.011-0.036-0.029-0.049-0.039c-0.013-0.011-0.036-0.029-0.049-0.04c-4.321-3.506-7.494-8.322-9.205-13.523
	c-1.339-3.792-3.827-10.337-3.154-14.202c0.658-2.786,1.992-4.07,3.608-4.507c1.375-0.373,2.95-0.136,4.496,0.381
	c0.551,0.213,1.077,0.398,1.583,0.591c2.009,0.984,3.757,2.172,4.686,2.675c1.146,0.738,3.833,1.863,6.158,1.301
	c0.784-0.19,1.501-0.551,2.104-1.194c3.107-3.076-1.246-7.103-1.23-10.295c-0.037-2.765,1.939-3.801,3.409-5.078
	c1.104-0.946,1.91-2.019,1.327-4.071c-0.56-2.161-1.932-3.16-3.267-3.43c-1.03-0.209-2.03-0.032-2.71,0.192
	c-2.722,0.711-4.117,1.944-7.226,1.433c-0.228-0.051-0.416-0.105-0.643-0.154c-3.962-0.854-6.902-3.905-7.155-8.938
	c-0.101-1.579-0.034-2.838,0.202-3.895c0.583-2.812,2.385-3.981,5.38-6.043c2.372-1.663,2.251-3.47,3.593-5.766
	c0.186-0.38,0.407-0.774,0.675-1.182c1.218-1.858,3.01-2.861,4.912-3.756c1.07-0.495,2.163-0.939,3.191-1.472
	c0.88-0.615,1.684-1.362,2.296-2.428c1.48-2.338,1.056-4.716-0.078-6.909c-1.002-1.588-2.483-3.096-3.848-4.414
	c-0.09-0.086-0.18-0.17-0.267-0.254c-3.215-2.983-4.27-4.115-4.741-8.536c-0.363-3.348-1.37-4.716-2.48-6.67
	c-0.412-0.58-0.844-1.227-1.257-1.982c-1.669-2.94-1.338-6.351-2.949-9.619c-0.595-1.203-1.305-2.356-2.071-3.487
	c-2.084-3.023-4.855-6.033-6.74-9.645c-4.352-8.122-10.276-21.873,0.305-26.526c1.067-0.48,2.022-0.872,2.889-1.096
	c2.46-0.635,4.257-0.164,5.993,1.229c0.451,0.325,0.899,0.718,1.355,1.178c2.617,2.611,5.997,3.145,9.542,5.226
	c3.108,1.672,5.186,5.501,6.79,8.316c0.748,1.099,1.42,3.711,2.94,5.012c0.545,0.497,1.205,0.81,2.029,0.777
	c0.205-0.008,0.448-0.056,0.69-0.103c1.02-2.364-0.354-3.778,0.225-5.84c0.108-0.343,0.272-0.704,0.512-1.09
	c0.747-1.334,2.313-1.387,3.083-2.304c0.353-0.442,0.635-0.852,0.859-1.242c0.343-2.061-0.073-3.821-0.634-5.897
	c-0.265-1-0.513-2.068-0.764-2.934c-0.04-0.137-0.08-0.276-0.12-0.416c-1.768-5.979-2.82-12.46-1.162-19.919
	c0.814-3.769,2.22-5.779,2.422-9.131c-0.003-0.042,0.015-0.118,0.011-0.161c-0.004-0.043,0.014-0.118,0.01-0.161
	c-0.064-0.662-0.172-1.377-0.332-2.163c-0.419-1.997-0.466-3.893-0.394-5.809c0.095-2.605,0.393-5.173,0.208-8.029
	c-0.073-1.951-0.598-5.064,0.573-6.881c1.092-1.64,2.666-1.692,3.532-3.152c0.158-0.264,0.298-0.537,0.422-0.817
	c1.055-3.574-0.425-8.567,0.292-12.406c0.709-4.878,3.662-3.857,5.355-8.027c2.197-5.113,0.418-10.622,6.906-12.723
	C127.169,53.448,128.345,53.197,129.49,53.111"/>
<path class="st1" d="M127.941,49.923c4.268-0.407,7.872,1.257,10.715,3.832l0,0c2.831,2.5,4.898,5.875,6.109,9.044
	c1.741,4.365,3.634,11.416,9.053,13.77c0.226,0.083,0.415,0.169,0.604,0.213c0.861,0.2,1.542-0.024,2.359,0.179
	c0.23,0.057,0.458,0.154,0.687,0.286c1.183,0.592,1.471,1.76,2.361,2.544c0.32,0.291,0.712,0.536,1.236,0.696
	c0.01,0.017,0.166,0.033,0.176,0.05c2.324,0.715,3.997-1.145,5.638-1.775c0.541-0.548,1.088-0.99,1.656-1.231
	c2.015-0.804,3.28-0.523,5.031-1.562c2.44-1.474,3.674-4.511,5.733-6.221c3.51-3.013,7.805-4.97,12.178-4.97
	c1.973,0,3.984,0.414,5.952,1.277c4.267,1.921,7.05,4.387,11.897,5.593c0.032,0.005,0.097,0.028,0.129,0.033
	c0.032,0.005,0.097,0.029,0.128,0.034c2.482,0.712,4.355,1.739,5.896,2.857c0.075,0.055,0.152,0.111,0.229,0.168
	c3.213,1.712,5.732,4.186,8.986,6.676c2.767,1.947,8.191,6.507,10.775,7.33c0.279,0.089,0.547,0.155,0.74,0.17
	c0.143,0.151,1.517,0,1.639,0.123c2.011-1.003,3.844-1.495,5.552-1.638c0.417-0.037,0.823-0.052,1.22-0.048
	c1.729,0.02,3.266,0.423,4.725,0.944c1.349,0.101,2.699,0.289,4.19,0.305c0.944,0.07,1.791-0.018,2.624-0.181
	c3.378-0.662,5.873-3.37,9.005-6.179c1.405-1.323,2.645-2.451,3.983-3.359c1.506-0.994,2.94-1.67,4.498-2.108
	c0.884-0.204,1.849-0.345,2.926-0.42c0.636-0.058,1.271-0.037,1.905-0.012c5.223,0.208,10.341,2.646,13.025,7.14
	c1.516,2.542,1.503,4.686,2.287,7.154c0.809,2.857,2.172,3.399,5.142,4.321c2.369,0.786,4.039,1.559,5.345,2.652
	c1.412,0.6,2.573,1.485,3.734,2.927c0.937,1.073,1.824,2.395,2.75,4.039c2.811,4.838,5.464,7.654,8.808,11.631
	c0.286,0.351,0.563,0.708,0.833,1.068c0.019,0.026,0.037,0.05,0.055,0.073c0.546,0.593,1.227,1.341,1.831,2.058
	c0.467,0.559,0.922,1.135,1.368,1.73c0.009,0.014,0.033,0.042,0.042,0.056c0.009,0.014,0.033,0.042,0.041,0.056
	c1.745,2.368,3.156,4.947,4.247,7.628c1.808,4.399,2.383,9.6,0.858,13.879c-0.249,0.756-0.645,1.459-1.123,2.137
	c-2.252,3.432-6.559,6.256-5.869,11.529c0.699,5.684,5.684,6.779,4.103,13.446c-0.362,1.436-1.014,2.542-1.838,3.461
	c-1.615,3.126-5.189,4.469-6.2,9.875c-0.023,0.123-0.045,0.247-0.067,0.371c-1.164,6.764,0.106,13.098-1.744,18.969
	c-0.056,0.164-0.113,0.324-0.169,0.48c0.018,3.438-0.075,5.916,0.584,9.729c0.101,0.622,0.203,1.22,0.303,1.804
	c0.016,0.095,0.032,0.193,0.048,0.292c0.76,2.496,1.535,5.234,1.567,8.323c-0.006,1.901-0.119,3.86-0.346,5.872
	c-0.002,0.013-0.005,0.048-0.007,0.061c-0.002,0.013-0.005,0.048-0.007,0.061c-0.493,4.249-1.292,8.386-1.959,12.363
	c-0.706,4.183-1.284,8.163-1.161,11.823c0.077,0.697,0.249,1.503,0.518,2.414c0.08,0.344,0.225,0.755,0.343,1.13
	c0.32,1.12,0.734,2.309,1.208,3.569c1.094,3.248,2.952,6.548,4.647,10.009c0.411,0.818,0.817,1.633,1.212,2.441
	c1.804,3.799,4.477,7.707,5.175,11.357c0.146,0.93,0.262,1.886,0.356,2.817c0.539,8.43-0.985,19.527-5.844,24.181
	c-0.278,0.268-0.587,0.489-0.915,0.678c-1.283,1.119-3.012,1.58-4.033,2.936c-1.491,1.973-1.296,3.954-2.133,5.825
	c-1.964,4.214-4.794,5.02-7.879,6.185c-0.452,0.305-0.94,0.661-1.424,1.004c-6.728,3.779-8.415,11.546-14.435,17.023
	c-0.019,0.017-0.056,0.05-0.074,0.066c-0.019,0.017-0.056,0.049-0.075,0.066c-1.871,1.634-4.313,2.869-6.71,3.195
	c-2.009,0.279-4-0.093-5.53-1.448c-2.79-2.209-3.196-6.466-3.393-9.071c-0.068-0.982-0.136-2.231-0.297-3.617
	c-0.703-4.206-2.216-9.74-7.205-12.841c-2.596-1.583-7.651-2.153-10.476-3.048c-2.624-0.682-4.34-1.446-6.675-2.544
	c-0.642-0.312-1.337-0.778-2.057-1.102c-0.008-0.002-0.02-0.011-0.028-0.013s-0.02-0.01-0.028-0.012
	c-0.267-0.12-0.537-0.219-0.808-0.284c-0.431-0.103-0.86-0.099-1.286,0.015c-1.972,0.469-1.756,2.22-1.252,4.28
	c-0.051,3.815,0.161,7.995-3.218,10.52c-1.618,1.28-3.614,1.845-5.74,2.062c-0.98,0.098-1.972,0.125-2.947,0.117
	c-0.824-0.007-1.646-0.043-2.428-0.081c-0.451-0.022-0.894-0.044-1.322-0.062c-0.03-0.001-0.089-0.004-0.119-0.005
	c-0.03-0.001-0.089-0.004-0.118-0.005c-5.364-0.251-7.242-2.306-9.981-5.887c-3.208-3.861-5.123-6.346-9.358-8.871
	c-3.857-2.375-4.446-4.644-6.938-7.499c-0.179-0.221-0.371-0.455-0.576-0.696c-0.09-0.106-0.183-0.214-0.278-0.323
	c-1.331-1.057-2.842-2.149-4.3-2.427c-0.005-0.003-0.046-0.007-0.05-0.01c-0.912-0.169-1.734-0.027-2.542,0.165
	c-0.253,0.107-0.507,0.216-0.763,0.322c-0.205,0.084-0.411,0.166-0.618,0.244c-0.628,0.38-1.291,0.717-2.016,0.91
	c-0.151,0.025-0.301,0.087-0.453,0.11c-1.734,0.263-3.265-0.414-4.848-0.224c-0.051,0.006-0.101,0.011-0.152,0.017
	c-1.648,0.243-3.148,0.967-4.649,1.814c-2.68,1.482-5.268,3.307-8.272,3.79c-0.525,0.078-1.072,0.141-1.624,0.191
	c-1.252,0.125-2.746,0.18-4.204,0.149c-0.736-0.016-1.462-0.044-2.138-0.115c-2.154,0.333-4.692-0.323-6.986,0.032
	c-0.099,0.015-0.199,0.027-0.299,0.041c-2.507,0.496-4.969,1.962-7.556,3.471c-3.046,1.777-6.13,3.63-9.481,4.162
	c-1.601,0.255-3.372,0.403-5.128,0.335c-3.764-0.15-7.454-1.227-9.294-4.163c-1.469-2.263-0.93-5.081-2.53-7.079
	c-0.535-0.332-1.27-0.592-2.31-0.749c-0.625-0.057-1.253-0.082-1.886-0.039c-2.158,0.149-4.422,0.899-6.761,1.785
	c-0.075,0.042-0.263,0.085-0.338,0.128c-0.116,0.067-0.407,0.135-0.523,0.203c-0.116,0.069-0.407,0.13-0.524,0.201
	c-4.23,1.686-8.669,3.598-12.979,3.109c-0.109-0.012-0.255-0.025-0.364-0.037c-5.688-0.85-13.009-3.997-17.736-7.768
	c-0.013-0.01-0.036-0.029-0.049-0.039c-0.013-0.01-0.036-0.029-0.049-0.039c-4.312-3.498-7.513-8.267-9.3-13.421
	c-1.415-3.792-3.901-10.215-3.362-14.104c0.578-2.748,1.806-4.068,3.302-4.593c1.275-0.447,2.74-0.323,4.184,0.068
	c0.517,0.175,1.004,0.308,1.472,0.446c1.877,0.821,3.502,1.823,4.353,2.162c1.058,0.568,3.58,1.488,5.776,0.812
	c0.739-0.227,1.417-0.613,1.988-1.27c2.941-3.096-1.189-7.103-1.14-10.319c-0.017-2.727,1.886-3.813,3.319-5.127
	c1.074-0.97,1.869-2.059,1.346-4.075c-0.489-2.142-1.738-3.187-2.96-3.512c-0.946-0.251-1.87-0.115-2.484,0.058
	c-2.604,0.536-3.941,1.546-6.886,0.884c-0.215-0.061-0.393-0.126-0.608-0.185c-3.744-1.023-6.497-4.129-6.637-9.132
	c-0.07-1.556,0.022-2.81,0.28-3.87c0.628-2.798,2.422-4.017,5.353-6.068c2.337-1.67,2.308-3.461,3.665-5.706
	c0.186-0.381,0.405-0.774,0.67-1.182c1.199-1.848,2.953-2.891,4.824-3.834c1.051-0.52,2.125-0.988,3.138-1.538
	c0.813-0.639,1.555-1.407,2.117-2.481c1.373-2.327,0.943-4.701-0.155-6.913c-0.995-1.575-2.452-3.089-3.799-4.439
	c-0.089-0.087-0.176-0.172-0.262-0.257c-3.137-2.997-4.191-4.231-4.672-8.572c-0.376-3.313-1.348-4.732-2.411-6.684
	c-0.415-0.58-0.852-1.226-1.267-1.97c-1.687-2.913-1.491-6.297-3.135-9.575c-0.603-1.201-1.316-2.358-2.081-3.498
	c-2.048-2.994-4.791-6.049-6.688-9.725c-4.321-8.143-10.123-21.784,0.002-26.801c1.021-0.518,1.936-0.959,2.776-1.229
	c2.358-0.758,4.118-0.435,5.829,0.749c0.447,0.267,0.893,0.599,1.347,0.996c2.603,2.26,5.968,2.574,9.521,4.39
	c3.135,1.43,5.321,4.94,7.082,7.522c0.828,0.998,1.59,3.442,3.163,4.65c0.559,0.462,1.227,0.752,2.051,0.713
	c0.207-0.01,0.451-0.058,0.694-0.105c1.109-2.269-0.062-3.623,0.619-5.582c0.127-0.326,0.309-0.669,0.563-1.034
	c0.781-1.265,2.344-1.309,3.152-2.169c0.366-0.416,0.665-0.8,0.91-1.164c0.32-2.094-0.071-3.884-0.601-5.952
	c-0.25-1.007-0.483-2.099-0.724-2.95c-0.039-0.138-0.079-0.277-0.118-0.418c-1.718-5.884-2.795-12.451-1.084-19.986
	c0.818-3.731,2.223-5.795,2.517-9.132c-0.003-0.04,0.02-0.12,0.016-0.161c-0.004-0.04,0.019-0.12,0.015-0.161
	c-0.064-0.667-0.168-1.384-0.322-2.171c-0.402-1.995-0.444-3.9-0.364-5.831c0.106-2.623,0.418-5.203,0.284-8.048
	c-0.03-1.976-0.478-5.049,0.698-6.884c1.08-1.632,2.624-1.752,3.499-3.206c0.161-0.264,0.304-0.535,0.432-0.814
	c1.015-3.577-0.356-8.546,0.425-12.433c0.745-4.807,3.646-3.995,5.371-8.096c2.271-5.079,0.818-10.49,7.26-12.609
	C125.607,50.29,126.788,50.027,127.941,49.923"/>
<path class="st1" d="M126.392,46.736c4.294-0.474,7.966,1.056,10.921,3.496l0,0c2.951,2.368,5.17,5.612,6.563,8.702
	c1.999,4.26,4.111,11.151,9.513,13.665c0.224,0.088,0.412,0.181,0.601,0.232c0.852,0.233,1.535,0.06,2.344,0.297
	c0.228,0.067,0.455,0.171,0.681,0.31c1.167,0.619,1.483,1.787,2.368,2.593c0.321,0.302,0.709,0.561,1.222,0.739
	c0.012,0.019,0.162,0.039,0.174,0.058c2.297,0.834,3.963-0.761,5.585-1.184c0.546-0.548,1.098-0.995,1.669-1.251
	c1.999-0.834,3.29-0.634,5.045-1.679c2.471-1.496,3.806-4.454,5.928-6.138c3.599-2.956,7.954-4.862,12.383-4.862
	c1.998,0,4.032,0.403,6.025,1.242c4.315,1.865,7.217,4.294,12.056,5.573c0.031,0.005,0.099,0.031,0.13,0.035
	c0.03,0.005,0.099,0.031,0.129,0.037c2.512,0.766,4.412,1.827,5.965,2.951c0.077,0.055,0.155,0.113,0.234,0.171
	c3.33,1.68,5.957,4.122,9.242,6.594c2.941,2.023,8.309,6.553,10.906,7.504c0.286,0.105,0.558,0.189,0.759,0.222
	c0.167,0.177,1.498,0.064,1.64,0.207c2.035-0.974,3.903-1.451,5.653-1.587c0.423-0.035,0.835-0.049,1.238-0.044
	c1.755,0.023,3.32,0.418,4.803,0.931c1.346,0.018,2.703,0.117,4.206,0.054c0.942,0.026,1.793-0.1,2.637-0.291
	c3.38-0.767,5.972-3.444,9.218-6.185c1.443-1.285,2.74-2.38,4.137-3.258c1.582-0.965,3.067-1.605,4.613-2.02
	c0.905-0.193,1.887-0.324,2.974-0.39c0.646-0.051,1.291-0.027,1.934,0.002c5.302,0.243,10.488,2.671,13.332,7.113
	c1.601,2.509,1.737,4.659,2.613,7.13c0.888,2.829,2.286,3.478,5.192,4.497c2.324,0.872,3.975,1.741,5.267,2.921
	c1.436,0.612,2.634,1.504,3.833,2.936c0.988,1.084,1.919,2.409,2.876,4.044c2.928,4.836,5.606,7.802,8.908,11.866
	c0.284,0.362,0.559,0.728,0.827,1.098c0.019,0.026,0.037,0.051,0.055,0.075c0.542,0.589,1.248,1.355,1.871,2.082
	c0.478,0.563,0.946,1.143,1.407,1.744c0.008,0.013,0.035,0.043,0.043,0.056c0.008,0.013,0.035,0.044,0.043,0.056
	c1.799,2.386,3.269,4.985,4.422,7.693c1.909,4.444,2.612,9.68,1.282,14.064c-0.215,0.777-0.57,1.505-1.006,2.21
	c-2.035,3.589-6.083,6.611-5.456,11.942c0.632,5.759,5.247,7.157,3.57,13.791c-0.388,1.44-1.055,2.566-1.89,3.511
	c-1.45,3.211-4.794,4.786-5.8,10.264c-0.023,0.125-0.045,0.251-0.067,0.376c-1.172,6.88-0.19,13.295-2.294,19.17
	c-0.064,0.165-0.128,0.326-0.193,0.484c0.053,3.47-0.003,6.073,0.605,9.971c0.092,0.642,0.186,1.257,0.278,1.856
	c0.015,0.098,0.03,0.199,0.044,0.3c0.772,2.532,1.573,5.348,1.636,8.542c0.011,1.944-0.088,3.956-0.314,6.031
	c-0.002,0.012-0.005,0.051-0.007,0.063c-0.002,0.012-0.005,0.051-0.007,0.063c-0.492,4.383-1.308,8.636-1.992,12.699
	c-0.735,4.334-1.34,8.428-1.193,12.14c0.09,0.695,0.29,1.517,0.598,2.461c0.091,0.344,0.257,0.765,0.39,1.145
	c0.36,1.126,0.822,2.332,1.343,3.62c1.187,3.271,3.111,6.655,4.815,10.257c0.411,0.845,0.814,1.687,1.204,2.525
	c1.793,3.976,4.336,8.064,4.99,11.785c0.136,0.974,0.241,1.957,0.326,2.897c0.451,8.787-1.243,19.918-6.281,24.745
	c-0.286,0.276-0.602,0.506-0.935,0.705c-1.27,1.205-2.974,1.77-4.013,3.167c-1.516,2.03-1.448,4.038-2.361,5.916
	c-2.137,4.238-5.108,5.117-8.189,6.279c-0.453,0.328-0.943,0.712-1.425,1.075c-6.521,3.825-8.321,11.518-14.369,17.02
	c-0.018,0.016-0.057,0.051-0.074,0.067c-0.018,0.016-0.057,0.05-0.075,0.066c-1.873,1.638-4.293,2.889-6.677,3.269
	c-2,0.326-3.987,0.027-5.54-1.209c-2.863-1.993-3.48-5.96-3.903-8.399c-0.153-0.919-0.305-2.098-0.547-3.411
	c-0.981-3.985-2.714-9.294-7.71-12.359c-2.637-1.583-7.591-2.231-10.414-3.212c-2.581-0.732-4.296-1.551-6.588-2.696
	c-0.634-0.329-1.317-0.806-2.023-1.149c-0.007-0.002-0.02-0.011-0.027-0.013c-0.007-0.002-0.02-0.011-0.028-0.013
	c-0.262-0.128-0.527-0.235-0.793-0.311c-0.423-0.12-0.843-0.14-1.26-0.055c-1.949,0.308-1.805,1.827-1.374,3.638
	c-0.259,3.699-0.288,7.715-3.737,10.133c-1.64,1.224-3.642,1.764-5.77,1.97c-0.984,0.093-1.976,0.117-2.948,0.108
	c-0.827-0.009-1.648-0.045-2.427-0.082c-0.452-0.022-0.895-0.044-1.324-0.062c-0.028-0.001-0.091-0.004-0.119-0.005
	s-0.091-0.004-0.118-0.005c-5.402-0.252-7.449-2.267-10.268-5.756c-3.35-3.793-5.393-6.34-9.574-8.926
	c-3.836-2.459-4.507-4.818-6.943-7.661c-0.179-0.227-0.371-0.467-0.575-0.713c-0.09-0.109-0.183-0.22-0.277-0.332
	c-1.369-1.059-2.895-2.155-4.361-2.479c-0.005-0.004-0.045-0.008-0.051-0.012c-0.919-0.201-1.749-0.107-2.561,0.035
	c-0.259,0.102-0.519,0.206-0.781,0.306c-0.21,0.08-0.421,0.157-0.632,0.23c-0.635,0.387-1.305,0.734-2.036,0.944
	c-0.152,0.029-0.303,0.094-0.456,0.121c-1.735,0.305-3.289-0.284-4.905-0.062c-0.051,0.007-0.102,0.013-0.154,0.019
	c-1.661,0.269-3.191,0.988-4.73,1.815c-2.761,1.451-5.44,3.197-8.464,3.659c-0.537,0.075-1.092,0.135-1.649,0.182
	c-1.244,0.118-2.744,0.171-4.223,0.134c-0.755-0.019-1.497-0.051-2.19-0.126c-2.161,0.405-4.706-0.116-7.046,0.301
	c-0.1,0.018-0.2,0.032-0.301,0.048c-2.531,0.549-5.04,2.008-7.69,3.485c-3.122,1.74-6.282,3.524-9.691,4.028
	c-1.636,0.242-3.43,0.374-5.207,0.295c-3.815-0.175-7.545-1.264-9.499-4.145c-1.565-2.226-1.213-4.999-2.871-7.014
	c-0.563-0.294-1.316-0.522-2.361-0.654c-0.633-0.043-1.27-0.056-1.912-0.006c-2.192,0.174-4.495,0.904-6.88,1.743
	c-0.071,0.04-0.274,0.08-0.345,0.121c-0.11,0.063-0.424,0.128-0.534,0.193c-0.11,0.065-0.424,0.121-0.535,0.188
	c-4.3,1.584-8.825,3.327-13.225,2.757c-0.112-0.014-0.258-0.029-0.369-0.044c-5.811-0.952-13.161-4.151-17.964-7.983
	c-0.012-0.01-0.037-0.03-0.049-0.039c-0.012-0.01-0.037-0.03-0.049-0.039c-4.304-3.49-7.532-8.211-9.394-13.319
	c-1.49-3.792-3.976-10.093-3.57-14.007c0.499-2.709,1.621-4.067,2.997-4.678c1.175-0.523,2.53-0.51,3.872-0.244
	c0.482,0.137,0.931,0.218,1.361,0.302c1.745,0.659,3.247,1.474,4.019,1.649c0.97,0.399,3.326,1.113,5.395,0.324
	c0.693-0.264,1.334-0.675,1.871-1.345c2.775-3.116-1.131-7.103-1.05-10.343c0.003-2.69,1.834-3.825,3.229-5.177
	c1.045-0.995,1.828-2.099,1.366-4.079c-0.419-2.123-1.543-3.214-2.653-3.593c-0.86-0.293-1.709-0.198-2.258-0.077
	c-2.486,0.361-3.766,1.147-6.545,0.335c-0.203-0.072-0.37-0.147-0.573-0.216c-3.524-1.192-6.091-4.353-6.119-9.326
	c-0.04-1.534,0.079-2.781,0.357-3.846c0.673-2.785,2.46-4.052,5.326-6.092c2.302-1.676,2.364-3.453,3.737-5.647
	c0.185-0.381,0.403-0.774,0.664-1.181c1.18-1.839,2.896-2.922,4.736-3.912c1.031-0.544,2.086-1.037,3.084-1.604
	c0.746-0.664,1.426-1.452,1.939-2.535c1.265-2.316,0.83-4.687-0.231-6.916c-0.988-1.562-2.421-3.082-3.749-4.463
	c-0.087-0.088-0.172-0.174-0.256-0.26c-3.059-3.011-4.113-4.346-4.604-8.609c-0.389-3.278-1.326-4.747-2.343-6.698
	c-0.418-0.581-0.859-1.225-1.276-1.958c-1.704-2.887-1.643-6.242-3.322-9.531c-0.612-1.199-1.327-2.36-2.09-3.509
	c-2.013-2.965-4.727-6.065-6.637-9.806c-4.289-8.164-9.97-21.694-0.302-27.076c0.976-0.557,1.848-1.045,2.662-1.362
	c2.255-0.878,3.979-0.707,5.665,0.27c0.443,0.209,0.886,0.481,1.339,0.815c2.589,1.909,5.939,2.003,9.5,3.553
	c3.161,1.188,5.456,4.379,7.375,6.727c0.908,0.897,1.76,3.173,3.386,4.287c0.574,0.428,1.25,0.695,2.073,0.649
	c0.21-0.012,0.454-0.06,0.698-0.106c1.198-2.174,0.229-3.469,1.014-5.325c0.147-0.309,0.345-0.633,0.613-0.978
	c0.815-1.196,2.374-1.231,3.221-2.035c0.379-0.39,0.695-0.748,0.96-1.087c0.298-2.126-0.069-3.947-0.567-6.007
	c-0.235-1.014-0.453-2.13-0.684-2.966c-0.039-0.138-0.078-0.278-0.116-0.419c-1.668-5.789-2.77-12.441-1.007-20.052
	c0.823-3.693,2.226-5.811,2.612-9.134c-0.003-0.038,0.024-0.122,0.021-0.161c-0.003-0.038,0.024-0.122,0.02-0.161
	c-0.064-0.671-0.165-1.392-0.312-2.179c-0.384-1.992-0.422-3.908-0.334-5.853c0.116-2.641,0.443-5.233,0.361-8.067
	c0.013-2.002-0.358-5.035,0.822-6.887c1.068-1.624,2.581-1.812,3.467-3.26c0.163-0.263,0.31-0.534,0.442-0.812
	c0.975-3.58-0.286-8.524,0.558-12.459c0.781-4.736,3.63-4.133,5.386-8.165c2.346-5.046,1.219-10.359,7.614-12.494
	C124.045,47.131,125.231,46.857,126.392,46.736"/>
<path class="st1" d="M124.843,43.549c4.319-0.542,8.06,0.856,11.127,3.16l0,0c3.071,2.237,5.442,5.349,7.017,8.36
	c2.257,4.156,4.589,10.886,9.974,13.56c0.221,0.094,0.409,0.192,0.598,0.252c0.843,0.265,1.528,0.144,2.329,0.415
	c0.226,0.077,0.451,0.189,0.676,0.333c1.15,0.647,1.494,1.814,2.374,2.642c0.321,0.313,0.705,0.585,1.207,0.782
	c0.014,0.022,0.158,0.044,0.171,0.067c2.269,0.953,3.929-0.377,5.531-0.593c0.551-0.549,1.107-1.001,1.683-1.271
	c1.983-0.864,3.301-0.745,5.06-1.795c2.501-1.518,3.939-4.398,6.124-6.055c3.688-2.898,8.103-4.755,12.589-4.755
	c2.023,0,4.08,0.392,6.097,1.207c4.362,1.81,7.384,4.201,12.215,5.553c0.029,0.004,0.101,0.033,0.13,0.038
	c0.029,0.005,0.101,0.034,0.129,0.039c2.542,0.819,4.469,1.916,6.033,3.046c0.078,0.056,0.158,0.115,0.239,0.174
	c3.446,1.648,6.182,4.057,9.498,6.512c3.114,2.1,8.427,6.601,11.038,7.678c0.293,0.121,0.57,0.222,0.779,0.274
	c0.191,0.202,1.478,0.128,1.641,0.292c2.06-0.944,3.963-1.408,5.755-1.536c0.429-0.034,0.848-0.046,1.257-0.039
	c1.78,0.027,3.374,0.414,4.881,0.918c1.343-0.064,2.707-0.056,4.222-0.197c0.939-0.019,1.796-0.181,2.651-0.402
	c3.382-0.871,6.071-3.518,9.431-6.19c1.481-1.248,2.834-2.309,4.291-3.157c1.658-0.935,3.194-1.54,4.728-1.932
	c0.926-0.183,1.924-0.303,3.022-0.36c0.656-0.045,1.31-0.017,1.964,0.016c5.381,0.278,10.635,2.696,13.639,7.087
	c1.685,2.477,1.972,4.632,2.938,7.107c0.967,2.801,2.401,3.556,5.241,4.673c2.28,0.959,3.91,1.924,5.189,3.19
	c1.46,0.624,2.696,1.524,3.932,2.946c1.04,1.095,2.013,2.423,3.002,4.049c3.044,4.834,5.749,7.949,9.008,12.1
	c0.282,0.372,0.555,0.748,0.821,1.128c0.019,0.027,0.037,0.053,0.054,0.077c0.539,0.585,1.27,1.37,1.911,2.105
	c0.489,0.567,0.97,1.152,1.446,1.758c0.008,0.012,0.037,0.045,0.044,0.057c0.008,0.012,0.036,0.045,0.044,0.057
	c1.854,2.403,3.383,5.023,4.598,7.758c2.011,4.489,2.841,9.76,1.705,14.25c-0.181,0.798-0.496,1.551-0.888,2.283
	c-1.819,3.746-5.606,6.966-5.043,12.354c0.564,5.834,4.81,7.535,3.038,14.136c-0.414,1.445-1.097,2.59-1.942,3.561
	c-1.285,3.295-4.398,5.104-5.399,10.653c-0.023,0.127-0.045,0.255-0.067,0.382c-1.179,6.995-0.486,13.492-2.843,19.371
	c-0.072,0.166-0.144,0.328-0.217,0.487c0.089,3.501,0.068,6.231,0.626,10.213c0.084,0.662,0.169,1.295,0.253,1.908
	c0.014,0.1,0.027,0.204,0.04,0.309c0.783,2.568,1.612,5.462,1.706,8.762c0.029,1.988-0.057,4.053-0.281,6.191
	c-0.002,0.012-0.005,0.053-0.007,0.065c-0.002,0.012-0.005,0.053-0.007,0.065c-0.49,4.518-1.324,8.887-2.026,13.034
	c-0.764,4.484-1.396,8.692-1.225,12.456c0.104,0.694,0.33,1.531,0.677,2.508c0.102,0.344,0.288,0.776,0.436,1.161
	c0.4,1.132,0.909,2.355,1.478,3.67c1.279,3.295,3.271,6.761,4.984,10.504c0.411,0.872,0.811,1.742,1.196,2.608
	c1.781,4.153,4.194,8.42,4.804,12.214c0.125,1.018,0.22,2.028,0.296,2.977c0.363,9.145-1.501,20.31-6.717,25.309
	c-0.294,0.283-0.617,0.523-0.956,0.732c-1.257,1.291-2.935,1.96-3.993,3.399c-1.541,2.087-1.6,4.121-2.588,6.007
	c-2.31,4.262-5.422,5.215-8.498,6.374c-0.454,0.35-0.947,0.763-1.426,1.146c-6.315,3.871-8.228,11.49-14.303,17.017
	c-0.017,0.015-0.058,0.052-0.074,0.067c-0.017,0.015-0.058,0.051-0.075,0.066c-1.875,1.642-4.274,2.908-6.645,3.344
	c-1.991,0.373-3.974,0.148-5.55-0.97c-2.936-1.777-3.765-5.454-4.412-7.727c-0.238-0.857-0.475-1.964-0.797-3.204
	c-1.258-3.763-3.211-8.849-8.215-11.877c-2.678-1.583-7.53-2.31-10.352-3.376c-2.539-0.782-4.251-1.656-6.5-2.848
	c-0.626-0.346-1.298-0.834-1.99-1.195c-0.007-0.002-0.02-0.012-0.027-0.014c-0.007-0.002-0.02-0.012-0.027-0.014
	c-0.258-0.135-0.518-0.252-0.778-0.338c-0.415-0.138-0.826-0.18-1.235-0.124c-1.925,0.147-1.854,1.433-1.495,2.996
	c-0.466,3.584-0.736,7.435-4.256,9.746c-1.662,1.168-3.67,1.684-5.8,1.878c-0.987,0.088-1.98,0.109-2.95,0.099
	c-0.829-0.01-1.65-0.046-2.426-0.083c-0.452-0.022-0.896-0.044-1.325-0.062c-0.027-0.001-0.093-0.004-0.119-0.005
	c-0.026-0.001-0.092-0.004-0.119-0.005c-5.44-0.254-7.656-2.227-10.555-5.625c-3.493-3.724-5.663-6.334-9.79-8.98
	c-3.815-2.542-4.568-4.991-6.947-7.822c-0.179-0.233-0.37-0.478-0.574-0.731c-0.09-0.112-0.182-0.226-0.277-0.34
	c-1.407-1.062-2.949-2.161-4.421-2.531c-0.006-0.004-0.045-0.009-0.051-0.013c-0.927-0.233-1.764-0.187-2.579-0.096
	c-0.265,0.097-0.53,0.195-0.798,0.29c-0.215,0.075-0.43,0.148-0.646,0.217c-0.641,0.394-1.318,0.75-2.056,0.977
	c-0.153,0.033-0.306,0.1-0.46,0.131c-1.735,0.348-3.313-0.154-4.961,0.101c-0.051,0.008-0.103,0.015-0.155,0.022
	c-1.675,0.295-3.234,1.009-4.812,1.817c-2.842,1.42-5.613,3.087-8.656,3.527c-0.549,0.072-1.112,0.129-1.674,0.174
	c-1.235,0.112-2.742,0.161-4.241,0.119c-0.774-0.022-1.533-0.058-2.243-0.137c-2.168,0.476-4.719,0.091-7.107,0.57
	c-0.1,0.02-0.201,0.037-0.302,0.055c-2.555,0.602-5.111,2.054-7.824,3.499c-3.198,1.703-6.434,3.418-9.901,3.894
	c-1.671,0.228-3.488,0.345-5.285,0.255c-3.866-0.2-7.635-1.301-9.704-4.127c-1.661-2.189-1.497-4.917-3.211-6.949
	c-0.59-0.257-1.363-0.453-2.412-0.56c-0.641-0.028-1.287-0.03-1.938,0.028c-2.227,0.198-4.569,0.909-6.998,1.701
	c-0.067,0.038-0.284,0.076-0.352,0.114c-0.104,0.06-0.441,0.12-0.545,0.182c-0.104,0.062-0.441,0.113-0.545,0.176
	c-4.37,1.481-8.982,3.057-13.471,2.405c-0.114-0.016-0.26-0.033-0.374-0.05c-5.935-1.054-13.313-4.306-18.192-8.198
	c-0.011-0.009-0.038-0.03-0.049-0.039c-0.011-0.009-0.037-0.03-0.049-0.039c-4.295-3.481-7.551-8.155-9.488-13.217
	c-1.566-3.792-4.05-9.972-3.779-13.91c0.419-2.671,1.435-4.066,2.691-4.764c1.076-0.598,2.32-0.698,3.56-0.557
	c0.448,0.099,0.858,0.128,1.25,0.157c1.613,0.497,2.992,1.125,3.686,1.137c0.883,0.23,3.071,0.74,5.014-0.165
	c0.647-0.301,1.25-0.737,1.754-1.421c2.609-3.137-1.073-7.103-0.96-10.367c0.023-2.652,1.781-3.837,3.139-5.226
	c1.015-1.019,1.786-2.139,1.386-4.083c-0.348-2.104-1.345-3.24-2.347-3.674c-0.772-0.335-1.549-0.281-2.032-0.211
	c-2.368,0.187-3.591,0.749-6.205-0.213c-0.191-0.082-0.347-0.168-0.539-0.247c-3.304-1.359-5.686-4.577-5.602-9.52
	c-0.009-1.512,0.135-2.753,0.435-3.822c0.718-2.771,2.497-4.088,5.299-6.117c2.266-1.683,2.42-3.444,3.809-5.587
	c0.185-0.381,0.401-0.775,0.659-1.181c1.161-1.83,2.839-2.952,4.648-3.99c1.012-0.569,2.047-1.086,3.03-1.669
	c0.678-0.688,1.298-1.497,1.76-2.588c1.158-2.305,0.716-4.673-0.308-6.92c-0.982-1.549-2.389-3.075-3.699-4.488
	c-0.085-0.089-0.169-0.176-0.251-0.263c-2.982-3.025-4.035-4.462-4.535-8.645c-0.402-3.244-1.304-4.763-2.274-6.712
	c-0.422-0.581-0.867-1.225-1.286-1.947c-1.721-2.86-1.796-6.188-3.508-9.487c-0.621-1.197-1.338-2.362-2.099-3.52
	c-1.977-2.936-4.663-6.081-6.585-9.887c-4.257-8.185-9.817-21.605-0.606-27.351c0.93-0.595,1.761-1.13,2.549-1.494
	c2.151-0.995,3.84-0.978,5.502-0.21c0.439,0.151,0.88,0.362,1.331,0.633c2.575,1.558,5.909,1.432,9.479,2.717
	c3.187,0.946,5.591,3.819,7.667,5.933c0.988,0.797,1.93,2.904,3.61,3.924c0.588,0.394,1.273,0.637,2.095,0.586
	c0.212-0.013,0.457-0.061,0.701-0.107c1.287-2.079,0.52-3.315,1.408-5.067c0.166-0.292,0.382-0.597,0.663-0.923
	c0.849-1.127,2.405-1.153,3.291-1.9c0.392-0.363,0.725-0.696,1.01-1.01c0.275-2.159-0.067-4.01-0.534-6.063
	c-0.22-1.021-0.423-2.162-0.644-2.982c-0.038-0.138-0.076-0.278-0.115-0.421c-1.618-5.695-2.744-12.432-0.93-20.119
	c0.827-3.655,2.229-5.827,2.706-9.135c-0.003-0.036,0.029-0.124,0.026-0.161c-0.003-0.036,0.029-0.124,0.025-0.161
	c-0.063-0.675-0.162-1.399-0.302-2.187c-0.366-1.99-0.4-3.915-0.303-5.875c0.127-2.659,0.467-5.262,0.437-8.085
	c0.056-2.027-0.237-5.021,0.946-6.891c1.056-1.616,2.538-1.873,3.434-3.315c0.165-0.263,0.315-0.533,0.452-0.809
	c0.935-3.583-0.217-8.502,0.69-12.485c0.817-4.665,3.613-4.271,5.401-8.234c2.42-5.013,1.619-10.227,7.968-12.379
	C122.483,43.973,123.673,43.687,124.843,43.549"/>
</svg>
