<?xml version="1.0" encoding="utf-8"?>
<!-- Generator: Adobe Illustrator 25.0.0, SVG Export Plug-In . SVG Version: 6.00 Build 0)  -->
<!DOCTYPE svg PUBLIC "-//W3C//DTD SVG 1.1//EN" "http://www.w3.org/Graphics/SVG/1.1/DTD/svg11.dtd" [
	<!ENTITY ns_extend "http://ns.adobe.com/Extensibility/1.0/">
	<!ENTITY ns_ai "http://ns.adobe.com/AdobeIllustrator/10.0/">
	<!ENTITY ns_graphs "http://ns.adobe.com/Graphs/1.0/">
	<!ENTITY ns_vars "http://ns.adobe.com/Variables/1.0/">
	<!ENTITY ns_imrep "http://ns.adobe.com/ImageReplacement/1.0/">
	<!ENTITY ns_sfw "http://ns.adobe.com/SaveForWeb/1.0/">
	<!ENTITY ns_custom "http://ns.adobe.com/GenericCustomNamespace/1.0/">
	<!ENTITY ns_adobe_xpath "http://ns.adobe.com/XPath/1.0/">
]>
<svg version="1.1" id="Livello_1" xmlns:x="&ns_extend;" xmlns:i="&ns_ai;" xmlns:graph="&ns_graphs;"
	 xmlns="http://www.w3.org/2000/svg" xmlns:xlink="http://www.w3.org/1999/xlink" x="0px" y="0px" viewBox="0 0 400 400"
	 style="enable-background:new 0 0 400 400;" xml:space="preserve">
<style type="text/css">
	.st0{opacity:0.45;fill:#FFFFFF;}
	.st1{fill:none;stroke:#DC4B33;stroke-width:0.9;stroke-miterlimit:10;}
</style>
<metadata>
	<sfw  xmlns="&ns_sfw;">
		<slices></slices>
		<sliceSourceBounds  bottomLeftOrigin="true" height="278.676" width="286.297" x="52.863" y="60.592"></sliceSourceBounds>
	</sfw>
</metadata>
<path class="st0" d="M305.095,61.19c0.862,0.026,1.678,0.098,2.407,0.177c10.553,1.453,15.319,8.632,21.12,14.633
	c0.833,0.867,1.56,1.697,2.194,2.48c4.158,5.107,4.46,9.583,5.087,15.734c0.452,3.857,1.491,6.99,2.115,10.043
	c0.108,0.536,0.203,1.08,0.283,1.639c0.081,0.434,0.179,0.954,0.247,1.441c0.207,1.562,0.251,3.308-0.085,5.309
	c-1,4.933-1.375,9.46-2.047,14.384c-0.425,3.297-0.524,6.454-0.702,10.522c-0.02,0.386-0.043,0.773-0.07,1.164
	c-0.075,1.074-0.177,2.15-0.294,3.235c-0.003,0.021-0.006,0.062-0.009,0.083c-0.003,0.021-0.007,0.062-0.009,0.083
	c-0.281,2.549-0.678,4.989-0.958,7.379c-0.109,0.916-0.201,1.813-0.262,2.689c-0.026,0.377-0.041,0.753-0.048,1.126
	c-0.001,0.472,0.021,1.063,0.045,1.611c0.15,3.422,0.583,7.367-0.55,10.759c-0.058,0.268-0.876,2.916-0.974,3.195l-1.712,5.478
	c-4.437,20.875-10.413,41.712-18.341,60.428c-0.185,0.437-0.371,0.873-0.558,1.308c-3.748,8.759-7.967,16.86-12.991,24.888
	c-4.06,6.468-8.932,12.887-13.446,18.842c-0.392,0.517-1.116,1.473-1.501,1.982c-5.1,6.74-10.594,13.912-17.682,19.731
	c-1.185,0.977-2.403,1.907-3.659,2.786c-13.55,9.49-30.798,11.952-46.719,13.229c-0.078,0.007-0.244,0.019-0.322,0.025
	c-0.006,0.001-0.019,0.001-0.025,0.002c-0.006,0.001-0.019,0.001-0.025,0.002c-2.421,0.189-4.787,0.397-7.235,0.656
	c-0.659,0.069-1.312,0.129-1.957,0.181c-1.355,0.435-2.742,0.898-4.174,1.362c-4.156,1.105-8.301,2.456-13.152,3.669c0,0,0,0,0,0
	c-3.239,0.791-8.163,0.483-11.282,1.572c-6.841,2.339-7.717,10.315-13.845,11.986c-0.562,0.098-1.143,0.151-1.737,0.169
	c-0.647,0.093-1.316,0.145-1.995,0.165c-3.505,0.104-7.295-0.699-10.064-1.536c-0.564-0.182-1.095-0.353-1.601-0.513
	c-3.134-1.078-5.195-1.68-8.451-1.566c-1.169,0.041-2.462,0.17-3.999,0.373c-3.412,0.456-6.803,0.97-10.2,1.485
	c-0.356,0.059-0.715,0.118-1.08,0.176c-1.047,0.17-2.126,0.339-3.23,0.507c-2.853,0.455-5.966,0.92-9.24,1.312
	c-4.922,0.617-9.798,1.084-14.68,1.265c-0.773-0.033-4.918,0.228-10.254,0.059c-0.212-0.012-0.425-0.022-0.64-0.038
	c-12.687-0.946-27.56-4.841-31.476-14.849c-0.003-0.009-0.01-0.025-0.013-0.034c-0.003-0.009-0.01-0.025-0.013-0.034
	c-2.84-7.384-2.428-16.135,0.034-23.559c1.072-3.198,3.027-6.355,3.97-9.576c0.269-0.909,0.466-1.848,0.617-2.805
	c0.361-2.143,0.507-4.281,0.615-6.31c0.009-0.136,0.019-0.273,0.029-0.411c-0.025-0.539-0.051-1.094-0.07-1.624
	c-0.03-0.83-0.047-1.67-0.031-2.507c0.025-1.213,0.114-2.397,0.272-3.551c0.796-5.722,3.278-10.272,7.245-14.649
	c3.851-4.215,4.191-9.398,7.951-13.326c0.014-0.019,0.029-0.037,0.043-0.055c0.787-0.966,1.794-1.943,3.139-2.863
	c3.192-1.898,4.637-2.317,6.011-6.231c0.83-2.287,1.471-4.581,2.267-6.864c0.306-2.047,0.679-4.163,1.343-6.347
	c0.126-0.408,0.252-0.816,0.377-1.223c0.004-0.014,0.012-0.041,0.017-0.055c0.004-0.014,0.013-0.04,0.017-0.055
	c0.455-1.472,0.822-2.771,1.108-3.954c0.315-6.255-0.035-12.153-3.333-17.914c-3.964-6.788-4.531-12.481-0.173-19.716
	c0.833-1.388,1.674-2.789,2.532-4.196c1.073-1.759,2.144-3.545,3.248-5.346c1.979-3.228,4.055-6.489,6.379-9.64
	c0.922-1.243,1.285-2.366,2.26-3.489c0.55-0.654,1.182-0.719,1.795-0.943c0.434-0.164,0.869-0.433,1.266-1.1
	c0.434-0.729,0.64-1.609,0.774-2.564c0.084-2.301-0.301-5.004,0.881-7.187c0.581-1.053,1.37-1.84,2.198-2.59
	c0.013-0.01,0.032-0.03,0.045-0.04c0.013-0.01,0.032-0.03,0.045-0.04c1.046-0.944,2.126-1.813,2.894-3.066
	c0.321-0.514,0.558-1.057,0.739-1.616c0.118-0.604,0.183-1.236,0.226-1.881c0.106-1.664,0.035-3.403,0.349-4.965
	c1.417-7.672,2.715-9.793,9.468-11.891c2.791-1.086,6.74-2.133,9.217-3.574c2.841-1.643,3.881-3.762,7.226-4.561
	c0.696-0.159,1.348-0.267,1.957-0.345c0.122-0.013,0.343-0.045,0.462-0.055c0.388-0.041,0.789-0.077,1.185-0.108
	c3.226-0.525,5.978-0.68,9.764-4.108c0.731-0.662,1.376-1.362,1.962-2.086c0.013-0.025,0.052-0.057,0.065-0.082
	c0.013-0.025,0.051-0.056,0.064-0.082c0.255-0.324,0.495-0.652,0.722-0.982c1.875-4.638,2.491-10.217,7.375-13.725
	c1.751-1.205,3.168-1.716,4.539-1.929c0.023,0,0.063-0.011,0.085-0.011c0.022,0,0.063-0.011,0.085-0.01
	c1.621-0.196,3.117,0.046,4.993-0.128c0.474-0.044,0.989-0.134,1.504-0.216c2.908-0.535,4.177-2.317,6.425-3.811
	c0.407-0.26,0.816-0.519,1.227-0.775c5.776-5.063,12.014-10.594,18.997-14.666c3.612-2.139,6.766-3.968,10.391-4.273
	c2.741-0.231,5.721,0.447,9.38,2.609c0.673,0.361,1.308,0.856,1.929,1.396c1.116,0.976,2.167,2.098,3.282,2.84
	c2.416,1.618,5.908,2.116,8.749,3.794c3.823,2.266,5.057,3.793,6.13,7.81c2.876,0.44,5.117,0.837,7.115,1.606
	c2.114,0.596,4.167,1.687,6.471,3.824c3.39,3.135,4.08,4.167,9.057,5.052c5.132,0.575,7.584,2.575,11.403,5.935
	c0.216,0.113,0.439,0.231,0.671,0.353c1.82,1.224,3.089,1.454,4.113,1.146c1.362-0.41,2.155-2.04,3.061-4.4l0,0
	c0.457-1.122,0.939-2.344,1.501-3.61c0.129-0.286,0.262-0.568,0.395-0.845c1.034-2.654,2.315-5.155,3.182-8.071
	c0.148-0.501,0.272-1.023,0.381-1.558c0.006-0.086,0.058-0.223,0.062-0.31c0.004-0.087,0.057-0.224,0.06-0.312
	c0.749-3.842,0.829-8.081,3.272-10.885c1.362-1.629,3.169-1.451,4.405-2.938c1.406-1.669,0.946-3.376,2.716-4.853
	c0.707-0.511,1.624-0.887,2.632-1.152l0,0c1.34-0.325,2.79-0.473,4.108-0.508c0.127-0.006,0.35-0.003,0.475-0.006
	C304.752,61.18,304.972,61.19,305.095,61.19"/>
<path class="st1" d="M305.095,61.19c0.862,0.026,1.678,0.098,2.407,0.177c10.553,1.453,15.319,8.632,21.12,14.633
	c0.833,0.867,1.56,1.697,2.194,2.48c4.158,5.107,4.46,9.583,5.087,15.734c0.452,3.857,1.491,6.99,2.115,10.043
	c0.108,0.536,0.203,1.08,0.283,1.639c0.081,0.434,0.179,0.954,0.247,1.441c0.207,1.562,0.251,3.308-0.085,5.309
	c-1,4.933-1.375,9.46-2.047,14.384c-0.425,3.297-0.524,6.454-0.702,10.522c-0.02,0.386-0.043,0.773-0.07,1.164
	c-0.075,1.074-0.177,2.15-0.294,3.235c-0.003,0.021-0.006,0.062-0.009,0.083c-0.003,0.021-0.007,0.062-0.009,0.083
	c-0.281,2.549-0.678,4.989-0.958,7.379c-0.109,0.916-0.201,1.813-0.262,2.689c-0.026,0.377-0.041,0.753-0.048,1.126
	c-0.001,0.472,0.021,1.063,0.045,1.611c0.15,3.422,0.583,7.367-0.55,10.759c-0.058,0.268-0.876,2.916-0.974,3.195l-1.712,5.478
	c-4.437,20.875-10.413,41.712-18.341,60.428c-0.185,0.437-0.371,0.873-0.558,1.308c-3.748,8.759-7.967,16.86-12.991,24.888
	c-4.06,6.468-8.932,12.887-13.446,18.842c-0.392,0.517-1.116,1.473-1.501,1.982c-5.1,6.74-10.594,13.912-17.682,19.731
	c-1.185,0.977-2.403,1.907-3.659,2.786c-13.55,9.49-30.798,11.952-46.719,13.229c-0.078,0.007-0.244,0.019-0.322,0.025
	c-0.006,0.001-0.019,0.001-0.025,0.002c-0.006,0.001-0.019,0.001-0.025,0.002c-2.421,0.189-4.787,0.397-7.235,0.656
	c-0.659,0.069-1.312,0.129-1.957,0.181c-1.355,0.435-2.742,0.898-4.174,1.362c-4.156,1.105-8.301,2.456-13.152,3.669c0,0,0,0,0,0
	c-3.239,0.791-8.163,0.483-11.282,1.572c-6.841,2.339-7.717,10.315-13.845,11.986c-0.562,0.098-1.143,0.151-1.737,0.169
	c-0.647,0.093-1.316,0.145-1.995,0.165c-3.505,0.104-7.295-0.699-10.064-1.536c-0.564-0.182-1.095-0.353-1.601-0.513
	c-3.134-1.078-5.195-1.68-8.451-1.566c-1.169,0.041-2.462,0.17-3.999,0.373c-3.412,0.456-6.803,0.97-10.2,1.485
	c-0.356,0.059-0.715,0.118-1.08,0.176c-1.047,0.17-2.126,0.339-3.23,0.507c-2.853,0.455-5.966,0.92-9.24,1.312
	c-4.922,0.617-9.798,1.084-14.68,1.265c-0.773-0.033-4.918,0.228-10.254,0.059c-0.212-0.012-0.425-0.022-0.64-0.038
	c-12.687-0.946-27.56-4.841-31.476-14.849c-0.003-0.009-0.01-0.025-0.013-0.034c-0.003-0.009-0.01-0.025-0.013-0.034
	c-2.84-7.384-2.428-16.135,0.034-23.559c1.072-3.198,3.027-6.355,3.97-9.576c0.269-0.909,0.466-1.848,0.617-2.805
	c0.361-2.143,0.507-4.281,0.615-6.31c0.009-0.136,0.019-0.273,0.029-0.411c-0.025-0.539-0.051-1.094-0.07-1.624
	c-0.03-0.83-0.047-1.67-0.031-2.507c0.025-1.213,0.114-2.397,0.272-3.551c0.796-5.722,3.278-10.272,7.245-14.649
	c3.851-4.215,4.191-9.398,7.951-13.326c0.014-0.019,0.029-0.037,0.043-0.055c0.787-0.966,1.794-1.943,3.139-2.863
	c3.192-1.898,4.637-2.317,6.011-6.231c0.83-2.287,1.471-4.581,2.267-6.864c0.306-2.047,0.679-4.163,1.343-6.347
	c0.126-0.408,0.252-0.816,0.377-1.223c0.004-0.014,0.012-0.041,0.017-0.055c0.004-0.014,0.013-0.04,0.017-0.055
	c0.455-1.472,0.822-2.771,1.108-3.954c0.315-6.255-0.035-12.153-3.333-17.914c-3.964-6.788-4.531-12.481-0.173-19.716
	c0.833-1.388,1.674-2.789,2.532-4.196c1.073-1.759,2.144-3.545,3.248-5.346c1.979-3.228,4.055-6.489,6.379-9.64
	c0.922-1.243,1.285-2.366,2.26-3.489c0.55-0.654,1.182-0.719,1.795-0.943c0.434-0.164,0.869-0.433,1.266-1.1
	c0.434-0.729,0.64-1.609,0.774-2.564c0.084-2.301-0.301-5.004,0.881-7.187c0.581-1.053,1.37-1.84,2.198-2.59
	c0.013-0.01,0.032-0.03,0.045-0.04c0.013-0.01,0.032-0.03,0.045-0.04c1.046-0.944,2.126-1.813,2.894-3.066
	c0.321-0.514,0.558-1.057,0.739-1.616c0.118-0.604,0.183-1.236,0.226-1.881c0.106-1.664,0.035-3.403,0.349-4.965
	c1.417-7.672,2.715-9.793,9.468-11.891c2.791-1.086,6.74-2.133,9.217-3.574c2.841-1.643,3.881-3.762,7.226-4.561
	c0.696-0.159,1.348-0.267,1.957-0.345c0.122-0.013,0.343-0.045,0.462-0.055c0.388-0.041,0.789-0.077,1.185-0.108
	c3.226-0.525,5.978-0.68,9.764-4.108c0.731-0.662,1.376-1.362,1.962-2.086c0.013-0.025,0.052-0.057,0.065-0.082
	c0.013-0.025,0.051-0.056,0.064-0.082c0.255-0.324,0.495-0.652,0.722-0.982c1.875-4.638,2.491-10.217,7.375-13.725
	c1.751-1.205,3.168-1.716,4.539-1.929c0.023,0,0.063-0.011,0.085-0.011c0.022,0,0.063-0.011,0.085-0.01
	c1.621-0.196,3.117,0.046,4.993-0.128c0.474-0.044,0.989-0.134,1.504-0.216c2.908-0.535,4.177-2.317,6.425-3.811
	c0.407-0.26,0.816-0.519,1.227-0.775c5.776-5.063,12.014-10.594,18.997-14.666c3.612-2.139,6.766-3.968,10.391-4.273
	c2.741-0.231,5.721,0.447,9.38,2.609c0.673,0.361,1.308,0.856,1.929,1.396c1.116,0.976,2.167,2.098,3.282,2.84
	c2.416,1.618,5.908,2.116,8.749,3.794c3.823,2.266,5.057,3.793,6.13,7.81c2.876,0.44,5.117,0.837,7.115,1.606
	c2.114,0.596,4.167,1.687,6.471,3.824c3.39,3.135,4.08,4.167,9.057,5.052c5.132,0.575,7.584,2.575,11.403,5.935
	c0.216,0.113,0.439,0.231,0.671,0.353c1.82,1.224,3.089,1.454,4.113,1.146c1.362-0.41,2.155-2.04,3.061-4.4l0,0
	c0.457-1.122,0.939-2.344,1.501-3.61c0.129-0.286,0.262-0.568,0.395-0.845c1.034-2.654,2.315-5.155,3.182-8.071
	c0.148-0.501,0.272-1.023,0.381-1.558c0.006-0.086,0.058-0.223,0.062-0.31c0.004-0.087,0.057-0.224,0.06-0.312
	c0.749-3.842,0.829-8.081,3.272-10.885c1.362-1.629,3.169-1.451,4.405-2.938c1.406-1.669,0.946-3.376,2.716-4.853
	c0.707-0.511,1.624-0.887,2.632-1.152l0,0c1.34-0.325,2.79-0.473,4.108-0.508c0.127-0.006,0.35-0.003,0.475-0.006
	C304.752,61.18,304.972,61.19,305.095,61.19"/>
<path class="st1" d="M303.214,64.398c0.839,0.019,1.631,0.086,2.333,0.157c10.158,1.354,14.645,8.31,20.412,14.251
	c0.813,0.842,1.518,1.649,2.129,2.415c3.98,4.967,4.112,9.28,4.676,15.385c0.392,3.746,1.468,6.763,2.112,9.747
	c0.111,0.521,0.209,1.049,0.29,1.59c0.079,0.431,0.167,0.928,0.227,1.402c0.185,1.534,0.19,3.23-0.193,5.165
	c-1.103,4.879-1.517,9.246-2.09,13.97c-0.367,3.193-0.459,6.31-0.632,10.23c-0.019,0.376-0.043,0.753-0.07,1.132
	c-0.076,1.046-0.179,2.092-0.298,3.143c-0.003,0.022-0.006,0.059-0.009,0.081c-0.003,0.021-0.007,0.059-0.009,0.08
	c-0.283,2.458-0.671,4.827-0.941,7.167c-0.103,0.884-0.19,1.755-0.246,2.612c-0.023,0.364-0.037,0.728-0.042,1.092
	c-0.001,0.47,0.018,1.034,0.042,1.565c0.145,3.377,0.583,7.221-0.534,10.453c-0.044,0.201-0.878,2.893-0.951,3.103l-1.663,5.322
	c-4.325,20.361-10.171,40.843-17.984,59.3c-0.181,0.428-0.363,0.856-0.547,1.282c-3.675,8.597-7.811,16.545-12.743,24.426
	c-3.974,6.331-8.752,12.626-13.193,18.486c-0.41,0.541-1.069,1.411-1.473,1.945c-4.971,6.569-10.264,13.472-17.024,19.077
	c-1.138,0.947-2.309,1.85-3.518,2.706c-12.955,9.18-29.553,11.67-45.032,12.936c-0.082,0.007-0.229,0.018-0.311,0.025
	c-0.006,0.001-0.018,0.001-0.024,0.002c-0.006,0.001-0.018,0.001-0.024,0.002c-2.339,0.186-4.634,0.38-6.984,0.608
	c-0.636,0.061-1.267,0.115-1.891,0.163c-1.366,0.348-2.753,0.716-4.169,1.085c-4.161,0.888-8.218,2.034-12.864,3.148c0,0,0,0,0,0
	c-3.174,0.749-8.091,0.386-11.102,1.527c-6.607,2.45-7.047,11-13.276,12.842c-0.55,0.12-1.123,0.192-1.712,0.227
	c-0.636,0.092-1.294,0.14-1.964,0.156c-3.456,0.078-7.211-0.801-9.888-1.716c-0.555-0.197-1.075-0.383-1.57-0.556
	c-3.1-1.161-5.075-1.821-8.298-1.735c-1.141,0.03-2.41,0.152-3.935,0.352c-3.362,0.447-6.698,0.958-10.033,1.478
	c-0.351,0.059-0.705,0.117-1.062,0.175c-1.037,0.17-2.096,0.341-3.175,0.51c-2.857,0.466-5.907,0.941-9.081,1.352
	c-4.821,0.646-9.614,1.157-14.435,1.389c-0.58-0.002-4.706,0.318-10.096,0.2c-0.209-0.009-0.419-0.016-0.631-0.028
	c-12.202-0.702-27.33-4.086-31.239-14.076c-0.003-0.009-0.009-0.024-0.013-0.033c-0.003-0.009-0.009-0.024-0.013-0.033
	c-2.783-7.239-2.293-15.847,0.211-23.066c1.092-3.118,3.086-6.194,3.998-9.342c0.261-0.89,0.445-1.812,0.578-2.754
	c0.314-2.086,0.396-4.194,0.452-6.216c0.005-0.134,0.011-0.27,0.017-0.406c-0.025-0.53-0.05-1.071-0.068-1.591
	c-0.029-0.818-0.044-1.64-0.025-2.456c0.029-1.195,0.123-2.354,0.285-3.477c0.82-5.597,3.336-9.996,7.332-14.241
	c3.89-4.106,4.041-9.246,7.712-13.091c0.014-0.018,0.029-0.035,0.043-0.053c0.798-0.941,1.817-1.869,3.174-2.724
	c3.27-1.831,4.678-2.085,5.961-6.005c0.766-2.277,1.312-4.563,1.993-6.848c0.3-2.015,0.663-4.086,1.314-6.216
	c0.124-0.4,0.248-0.799,0.371-1.198c0.005-0.015,0.012-0.039,0.017-0.054c0.005-0.015,0.012-0.039,0.017-0.054
	c0.435-1.411,0.796-2.688,1.085-3.873c0.596-6.154,0.377-11.941-3.041-17.574c-4.113-6.687-4.79-12.229-0.43-19.395
	c0.829-1.365,1.661-2.746,2.505-4.133c1.058-1.738,2.114-3.499,3.201-5.271c1.959-3.192,4.01-6.404,6.305-9.495
	c0.92-1.232,1.252-2.338,2.223-3.445c0.551-0.65,1.187-0.682,1.803-0.881c0.44-0.146,0.878-0.396,1.273-1.059
	c0.429-0.722,0.614-1.596,0.717-2.546c0.068-2.277-0.372-4.961,0.801-7.095c0.583-1.041,1.378-1.803,2.209-2.526
	c0.013-0.01,0.031-0.029,0.045-0.039c0.013-0.01,0.032-0.029,0.045-0.039c1.049-0.908,2.13-1.746,2.883-2.995
	c0.313-0.508,0.537-1.049,0.703-1.608c0.119-0.595,0.181-1.219,0.219-1.854c0.094-1.646,0-3.367,0.304-4.9
	c1.411-7.734,2.648-9.637,9.465-11.546c2.754-0.946,6.699-1.912,9.108-3.328c2.767-1.616,3.655-3.782,7.004-4.585
	c0.68-0.156,1.318-0.261,1.917-0.335c0.128-0.014,0.33-0.041,0.454-0.052c0.385-0.039,0.776-0.07,1.162-0.097
	c3.244-0.424,5.923-0.425,9.589-3.914c0.705-0.671,1.315-1.385,1.86-2.127c0.014-0.026,0.047-0.057,0.06-0.084
	s0.046-0.057,0.06-0.084c0.237-0.333,0.459-0.67,0.667-1.01c1.869-4.591,2.348-10.09,7.142-13.468
	c1.757-1.192,3.156-1.659,4.496-1.819c0.024,0,0.06-0.009,0.084-0.008c0.024,0,0.06-0.008,0.084-0.007
	c1.595-0.138,3.057,0.167,4.917,0.035c0.464-0.033,0.969-0.112,1.476-0.186c2.877-0.497,4.033-2.326,6.211-3.879
	c0.391-0.27,0.784-0.539,1.179-0.808c5.673-4.973,11.781-10.394,18.586-14.361c3.621-2.144,6.719-3.93,10.266-4.165
	c2.692-0.169,5.611,0.588,9.219,2.868c0.654,0.382,1.268,0.902,1.865,1.468c1.075,1.022,2.083,2.192,3.158,2.957
	c2.34,1.67,5.811,2.139,8.602,3.817c3.803,2.287,4.897,3.769,5.821,7.825c2.871,0.354,5.11,0.654,7.121,1.364
	c2.098,0.579,4.107,1.658,6.368,3.801c3.346,3.155,3.9,4.097,8.977,4.869c5.154,0.533,7.486,2.514,11.247,5.844
	c0.222,0.139,0.451,0.283,0.688,0.432c1.881,1.386,3.184,1.748,4.201,1.52c1.391-0.312,2.159-1.937,3.041-4.31l0,0
	c0.431-1.105,0.886-2.323,1.425-3.594c0.123-0.285,0.248-0.567,0.375-0.844c1.026-2.637,2.284-5.101,3.064-8.003
	c0.134-0.5,0.242-1.021,0.332-1.558c0.006-0.09,0.047-0.219,0.051-0.31c0.005-0.091,0.045-0.22,0.048-0.312
	c0.596-3.836,0.465-8.149,2.807-11.003c1.321-1.666,3.109-1.448,4.3-2.984c1.343-1.72,0.734-3.492,2.469-5.031
	c0.678-0.532,1.579-0.923,2.579-1.201l0,0c1.304-0.341,2.737-0.501,4.053-0.542c0.133-0.006,0.337-0.005,0.468-0.008
	C302.883,64.391,303.085,64.398,303.214,64.398"/>
<path class="st1" d="M301.332,67.605c0.815,0.013,1.583,0.073,2.26,0.137c9.764,1.255,13.971,7.988,19.704,13.869
	c0.793,0.817,1.476,1.6,2.065,2.35c3.802,4.828,3.763,8.977,4.264,15.037c0.332,3.634,1.445,6.535,2.109,9.45
	c0.114,0.506,0.215,1.018,0.297,1.541c0.077,0.428,0.155,0.902,0.207,1.363c0.163,1.506,0.129,3.151-0.301,5.022
	c-1.206,4.825-1.659,9.032-2.134,13.555c-0.309,3.089-0.393,6.166-0.561,9.938c-0.019,0.366-0.043,0.732-0.07,1.099
	c-0.076,1.019-0.181,2.034-0.301,3.051c-0.003,0.022-0.006,0.056-0.009,0.078c-0.003,0.022-0.006,0.056-0.009,0.078
	c-0.285,2.367-0.665,4.666-0.924,6.955c-0.098,0.853-0.178,1.698-0.231,2.536c-0.021,0.35-0.033,0.703-0.036,1.058
	c-0.001,0.469,0.016,1.004,0.038,1.519c0.141,3.332,0.583,7.076-0.519,10.147c-0.029,0.134-0.879,2.871-0.928,3.01l-1.614,5.166
	c-4.213,19.847-9.93,39.974-17.626,58.171c-0.177,0.42-0.356,0.839-0.536,1.256c-3.602,8.435-7.655,16.23-12.495,23.964
	c-3.889,6.195-8.573,12.366-12.941,18.129c-0.429,0.566-1.023,1.35-1.444,1.907c-4.842,6.399-9.934,13.032-16.366,18.424
	c-1.091,0.917-2.215,1.794-3.377,2.626c-12.36,8.869-28.309,11.388-43.344,12.643c-0.085,0.007-0.215,0.017-0.3,0.025
	c-0.007,0.001-0.016,0.001-0.023,0.002c-0.007,0.001-0.016,0.001-0.023,0.002c-2.257,0.184-4.481,0.363-6.734,0.561
	c-0.613,0.053-1.222,0.101-1.825,0.145c-1.377,0.261-2.763,0.535-4.163,0.808c-4.166,0.672-8.134,1.612-12.576,2.627c0,0,0,0,0,0
	c-3.108,0.708-8.018,0.29-10.921,1.482c-6.373,2.561-6.378,11.686-12.707,13.697c-0.538,0.143-1.104,0.234-1.686,0.285
	c-0.624,0.091-1.272,0.136-1.932,0.146c-3.408,0.052-7.128-0.902-9.712-1.896c-0.546-0.212-1.055-0.412-1.538-0.6
	c-3.067-1.245-4.955-1.962-8.144-1.904c-1.113,0.02-2.359,0.133-3.871,0.331c-3.313,0.438-6.593,0.946-9.866,1.47
	c-0.346,0.058-0.694,0.116-1.044,0.174c-1.026,0.171-2.067,0.343-3.12,0.514c-2.861,0.477-5.848,0.962-8.921,1.392
	c-4.72,0.676-9.43,1.23-14.191,1.512c-0.387,0.03-4.494,0.408-9.937,0.341c-0.206-0.005-0.413-0.01-0.622-0.018
	c-11.717-0.463-27.1-3.332-31.002-13.304c-0.004-0.009-0.009-0.023-0.012-0.032c-0.004-0.009-0.009-0.023-0.012-0.032
	c-2.726-7.094-2.158-15.559,0.389-22.573c1.112-3.039,3.145-6.033,4.025-9.108c0.253-0.871,0.424-1.776,0.54-2.703
	c0.268-2.028,0.285-4.108,0.289-6.121c0.001-0.133,0.003-0.266,0.005-0.4c-0.025-0.52-0.049-1.047-0.066-1.559
	c-0.028-0.806-0.041-1.611-0.02-2.405c0.033-1.177,0.131-2.31,0.299-3.403c0.844-5.472,3.393-9.72,7.42-13.833
	c3.929-3.996,3.891-9.094,7.473-12.855c0.014-0.017,0.029-0.034,0.043-0.051c0.809-0.915,1.839-1.794,3.209-2.585
	c3.348-1.765,4.718-1.854,5.91-5.779c0.702-2.267,1.154-4.545,1.72-6.832c0.294-1.982,0.647-4.009,1.285-6.086
	c0.122-0.392,0.244-0.783,0.364-1.172c0.005-0.016,0.011-0.037,0.016-0.053s0.011-0.037,0.016-0.053
	c0.415-1.35,0.771-2.604,1.061-3.792c0.877-6.053,0.789-11.73-2.748-17.234c-4.262-6.586-5.049-11.976-0.686-19.074
	c0.825-1.343,1.647-2.703,2.477-4.069c1.043-1.717,2.085-3.454,3.154-5.195c1.939-3.156,3.965-6.318,6.232-9.351
	c0.917-1.221,1.219-2.311,2.186-3.4c0.552-0.645,1.192-0.645,1.811-0.819c0.447-0.128,0.888-0.359,1.28-1.018
	c0.424-0.715,0.588-1.583,0.659-2.528c0.052-2.252-0.443-4.918,0.72-7.004c0.584-1.029,1.386-1.765,2.22-2.461
	c0.014-0.011,0.031-0.027,0.045-0.037c0.014-0.011,0.031-0.027,0.045-0.037c1.051-0.873,2.134-1.68,2.873-2.924
	c0.304-0.503,0.516-1.041,0.666-1.6c0.12-0.587,0.18-1.201,0.212-1.828c0.082-1.628-0.035-3.33,0.258-4.835
	c1.405-7.796,2.582-9.481,9.462-11.202c2.716-0.807,6.658-1.691,9-3.083c2.692-1.589,3.429-3.801,6.781-4.609
	c0.663-0.152,1.288-0.254,1.877-0.324c0.133-0.015,0.316-0.037,0.446-0.049c0.382-0.037,0.764-0.064,1.139-0.086
	c3.262-0.322,5.875-0.164,9.414-3.721c0.681-0.679,1.254-1.408,1.758-2.168c0.015-0.028,0.042-0.058,0.056-0.086
	c0.014-0.028,0.041-0.058,0.055-0.086c0.219-0.341,0.422-0.688,0.613-1.038c1.862-4.543,2.205-9.963,6.908-13.212
	c1.763-1.179,3.144-1.602,4.454-1.709c0.025,0,0.058-0.006,0.083-0.005c0.025,0,0.058-0.005,0.083-0.005
	c1.569-0.081,2.998,0.287,4.84,0.199c0.453-0.022,0.95-0.091,1.448-0.156c2.846-0.46,3.889-2.334,5.996-3.946
	c0.375-0.28,0.752-0.56,1.13-0.84c5.571-4.883,11.548-10.195,18.174-14.057c3.63-2.149,6.671-3.9,10.14-4.057
	c2.643-0.112,5.5,0.728,9.058,3.128c0.636,0.403,1.228,0.949,1.802,1.54c1.034,1.069,1.999,2.286,3.035,3.074
	c2.264,1.721,5.714,2.162,8.454,3.841c3.783,2.309,4.737,3.745,5.513,7.841c2.866,0.268,5.102,0.472,7.127,1.121
	c2.083,0.562,4.046,1.629,6.266,3.778c3.303,3.176,3.72,4.028,8.897,4.686c5.176,0.49,7.388,2.452,11.091,5.754
	c0.228,0.165,0.462,0.335,0.706,0.51c1.942,1.548,3.276,2.044,4.288,1.893c1.42-0.211,2.163-1.833,3.021-4.219l0,0
	c0.405-1.088,0.833-2.302,1.348-3.578c0.116-0.285,0.235-0.566,0.355-0.843c1.018-2.62,2.252-5.047,2.945-7.935
	c0.12-0.499,0.211-1.02,0.283-1.557c0.006-0.094,0.035-0.215,0.04-0.31c0.005-0.096,0.033-0.216,0.037-0.313
	c0.442-3.83,0.101-8.218,2.343-11.121c1.281-1.703,3.049-1.445,4.195-3.029c1.279-1.77,0.521-3.608,2.222-5.21
	c0.65-0.552,1.534-0.96,2.525-1.25l0,0c1.268-0.356,2.683-0.53,3.999-0.577c0.139-0.006,0.325-0.007,0.462-0.011
	C301.014,67.601,301.198,67.605,301.332,67.605"/>
<path class="st1" d="M299.451,70.813c0.792,0.006,1.536,0.061,2.186,0.116c9.37,1.155,13.298,7.666,18.996,13.486
	c0.773,0.791,1.434,1.551,2,2.285c3.624,4.688,3.415,8.673,3.852,14.688c0.272,3.523,1.422,6.308,2.106,9.154
	c0.117,0.491,0.221,0.987,0.305,1.492c0.075,0.425,0.143,0.876,0.187,1.325c0.142,1.479,0.068,3.073-0.409,4.878
	c-1.309,4.772-1.802,8.818-2.177,13.141c-0.251,2.985-0.327,6.022-0.49,9.646c-0.019,0.356-0.043,0.712-0.07,1.067
	c-0.077,0.991-0.184,1.976-0.305,2.959c-0.003,0.023-0.006,0.052-0.009,0.076c-0.003,0.023-0.006,0.052-0.01,0.076
	c-0.286,2.276-0.658,4.505-0.907,6.742c-0.092,0.821-0.167,1.64-0.215,2.459c-0.019,0.337-0.028,0.679-0.03,1.023
	c-0.001,0.468,0.014,0.974,0.035,1.473c0.136,3.288,0.583,6.93-0.503,9.841c-0.015,0.067-0.881,2.848-0.906,2.918l-1.566,5.01
	c-4.101,19.333-9.688,39.104-17.268,57.043c-0.174,0.411-0.349,0.822-0.524,1.231c-3.529,8.274-7.5,15.915-12.248,23.502
	c-3.803,6.059-8.393,12.105-12.689,17.772c-0.448,0.591-0.976,1.288-1.416,1.87c-4.713,6.228-9.604,12.591-15.708,17.771
	c-1.044,0.887-2.121,1.738-3.236,2.546c-11.766,8.559-27.064,11.107-41.657,12.349c-0.089,0.008-0.2,0.017-0.289,0.024
	c-0.007,0.001-0.015,0.001-0.022,0.002c-0.007,0.001-0.015,0.001-0.022,0.002c-2.175,0.182-4.328,0.347-6.483,0.513
	c-0.59,0.045-1.176,0.087-1.759,0.127c-1.388,0.175-2.773,0.353-4.158,0.531c-4.171,0.456-8.051,1.19-12.288,2.105c0,0,0,0,0,0
	c-3.042,0.666-7.945,0.193-10.741,1.437c-6.138,2.673-5.709,12.371-12.137,14.553c-0.527,0.165-1.084,0.276-1.661,0.343
	c-0.613,0.09-1.25,0.131-1.9,0.136c-3.36,0.026-7.044-1.003-9.536-2.076c-0.537-0.227-1.036-0.441-1.506-0.643
	c-3.034-1.328-4.835-2.098-7.991-2.073c-1.084,0.011-2.307,0.115-3.808,0.309c-3.263,0.428-6.488,0.934-9.7,1.462
	c-0.341,0.057-0.683,0.115-1.026,0.173c-1.016,0.171-2.038,0.344-3.065,0.517c-2.865,0.489-5.789,0.983-8.761,1.431
	c-4.619,0.705-9.246,1.302-13.947,1.636c-0.193,0.061-4.282,0.498-9.778,0.481c-0.203-0.002-0.407-0.004-0.614-0.008
	c-11.234-0.229-26.87-2.578-30.765-12.532c-0.004-0.01-0.008-0.022-0.012-0.031c-0.004-0.01-0.008-0.022-0.012-0.031
	c-2.669-6.949-2.023-15.271,0.566-22.08c1.132-2.959,3.205-5.873,4.053-8.874c0.245-0.852,0.402-1.741,0.501-2.651
	c0.221-1.971,0.175-4.022,0.127-6.027c-0.003-0.131-0.005-0.263-0.007-0.395c-0.025-0.511-0.048-1.024-0.065-1.527
	c-0.026-0.793-0.037-1.581-0.014-2.354c0.036-1.159,0.14-2.267,0.312-3.329c0.868-5.347,3.45-9.445,7.507-13.425
	c3.968-3.886,3.741-8.942,7.235-12.619c0.015-0.016,0.029-0.032,0.044-0.048c0.819-0.89,1.862-1.72,3.245-2.446
	c3.426-1.698,4.759-1.623,5.859-5.554c0.639-2.257,0.995-4.527,1.447-6.816c0.287-1.95,0.631-3.933,1.256-5.955
	c0.121-0.384,0.24-0.766,0.357-1.147c0.005-0.016,0.011-0.036,0.016-0.052c0.005-0.016,0.011-0.036,0.016-0.052
	c0.395-1.288,0.746-2.52,1.038-3.71c1.157-5.952,1.2-11.518-2.456-16.895c-4.411-6.485-5.309-11.724-0.943-18.753
	c0.821-1.321,1.634-2.66,2.45-4.006c1.028-1.696,2.055-3.408,3.107-5.119c1.919-3.121,3.92-6.233,6.159-9.206
	c0.915-1.211,1.185-2.283,2.149-3.356c0.552-0.641,1.197-0.608,1.819-0.757c0.453-0.11,0.897-0.322,1.286-0.977
	c0.419-0.707,0.562-1.57,0.601-2.51c0.036-2.228-0.515-4.875,0.64-6.912c0.585-1.017,1.394-1.728,2.231-2.396
	c0.015-0.011,0.031-0.025,0.045-0.036c0.015-0.011,0.031-0.025,0.045-0.036c1.054-0.837,2.138-1.614,2.862-2.854
	c0.295-0.497,0.494-1.033,0.63-1.592c0.121-0.578,0.178-1.184,0.205-1.801c0.069-1.609-0.07-3.293,0.213-4.77
	c1.398-7.858,2.515-9.324,9.459-10.857c2.678-0.667,6.617-1.469,8.892-2.837c2.618-1.563,3.202-3.821,6.559-4.632
	c0.647-0.149,1.258-0.248,1.837-0.314c0.139-0.015,0.302-0.034,0.438-0.045c0.378-0.034,0.751-0.058,1.115-0.075
	c3.279-0.221,5.817,0.087,9.24-3.528c0.655-0.688,1.193-1.432,1.656-2.209c0.015-0.029,0.037-0.059,0.052-0.088
	c0.015-0.029,0.036-0.059,0.051-0.088c0.201-0.349,0.386-0.705,0.558-1.066c1.856-4.496,2.062-9.836,6.675-12.955
	c1.77-1.165,3.132-1.545,4.411-1.598c0.026,0,0.056-0.003,0.082-0.002c0.026,0,0.056-0.002,0.081-0.002
	c1.544-0.024,2.938,0.407,4.764,0.363c0.443-0.011,0.931-0.069,1.42-0.126c2.815-0.422,3.744-2.343,5.782-4.013
	c0.359-0.29,0.72-0.581,1.082-0.872c5.468-4.793,11.315-9.995,17.762-13.752c3.639-2.155,6.624-3.87,10.014-3.948
	c2.593-0.056,5.39,0.868,8.897,3.388c0.617,0.424,1.188,0.995,1.739,1.612c0.993,1.115,1.915,2.379,2.912,3.191
	c2.188,1.773,5.617,2.185,8.307,3.864c3.764,2.33,4.576,3.72,5.204,7.856c2.861,0.182,5.095,0.29,7.134,0.879
	c2.067,0.545,3.985,1.601,6.163,3.755c3.259,3.196,3.54,3.958,8.816,4.503c5.198,0.448,7.289,2.39,10.935,5.663
	c0.233,0.191,0.474,0.387,0.723,0.589c2.003,1.71,3.367,2.341,4.376,2.267c1.446-0.107,2.168-1.73,3.001-4.129l0,0
	c0.38-1.072,0.781-2.281,1.272-3.561c0.109-0.284,0.221-0.565,0.335-0.842c1.01-2.603,2.22-4.992,2.827-7.867
	c0.106-0.498,0.181-1.018,0.235-1.556c0.007-0.099,0.024-0.21,0.029-0.31c0.005-0.1,0.021-0.212,0.025-0.313
	c0.289-3.824-0.263-8.287,1.879-11.239c1.241-1.739,2.988-1.443,4.089-3.075c1.216-1.821,0.309-3.724,1.975-5.389
	c0.621-0.572,1.489-0.996,2.472-1.299l0,0c1.232-0.372,2.63-0.558,3.944-0.612c0.145-0.007,0.313-0.01,0.456-0.013
	C299.145,70.812,299.311,70.813,299.451,70.813"/>
<path class="st1" d="M297.57,74.021c0.768,0,1.488,0.048,2.112,0.096c8.976,1.056,12.624,7.344,18.288,13.104
	c5.52,5.616,4.944,9.648,5.376,16.56c0.384,6.192,3.984,9.936,2.064,16.32c-2.4,8.016-2.256,13.632-2.64,22.08
	c-0.24,4.416-1.248,8.592-1.488,12.96c-0.192,3.792,0.864,8.496-0.48,11.952l-2.4,7.68c-4.08,19.248-9.696,39.12-17.424,57.12
	c-3.456,8.112-7.344,15.6-12,23.04c-4.128,6.576-9.216,13.152-13.824,19.248c-5.376,7.104-10.896,14.256-18.144,19.584
	c-14.496,10.704-34.848,11.856-52.368,12.912c-4.176,0.24-7.968,0.768-12,1.584c-2.976,0.624-7.872,0.096-10.56,1.392
	c-5.904,2.784-5.04,13.056-11.568,15.408c-1.056,0.384-2.256,0.528-3.504,0.528c-3.312,0-6.96-1.104-9.36-2.256
	c-3.984-1.824-5.712-2.928-9.312-2.928c-1.056,0-2.256,0.096-3.744,0.288c-12.144,1.584-23.664,4.368-35.856,5.376
	c0,0.096-4.368,0.624-10.224,0.624c-10.752,0-26.64-1.824-30.528-11.76c-2.64-6.816-1.92-15.024,0.72-21.648
	c1.152-2.88,3.264-5.712,4.08-8.64c1.104-3.888,0.192-8.592,0.336-12.72c0.24-6.912,3.024-11.664,7.92-16.272
	c4.992-4.704,3.12-11.328,10.32-14.736c3.504-1.632,4.8-1.392,5.808-5.328c1.056-4.128,1.056-8.304,2.4-12.624
	c2.448-7.728,4.032-14.736-0.768-21.408c-4.56-6.384-5.568-11.472-1.2-18.432c3.744-5.952,7.2-12.288,11.568-18.048
	c0.912-1.2,1.152-2.256,2.112-3.312c0.96-1.104,2.208-0.096,3.12-1.632c1.392-2.352-0.528-6.48,1.104-9.312
	c1.344-2.304,3.888-2.928,5.184-5.184c1.344-2.304,0.48-5.52,0.96-8.064c1.392-7.92,2.448-9.168,9.456-10.512
	c2.64-0.528,6.576-1.248,8.784-2.592c2.544-1.536,2.976-3.84,6.336-4.656c5.184-1.2,8.064,1.056,12.384-3.744
	s2.784-12.384,8.592-16.224c1.776-1.152,3.12-1.488,4.368-1.488c1.584,0,2.976,0.528,4.848,0.528c0.432,0,0.912-0.048,1.392-0.096
	c2.784-0.384,3.6-2.352,5.568-4.08c5.664-4.944,11.712-10.464,18.384-14.352c3.648-2.16,6.576-3.84,9.888-3.84
	c2.544,0,5.28,1.008,8.736,3.648c1.68,1.248,2.976,3.696,4.464,4.992c2.112,1.824,5.52,2.208,8.16,3.888
	c3.744,2.352,4.416,3.696,4.896,7.872c5.712,0.192,8.928,0.048,13.2,4.368c3.216,3.216,3.36,3.888,8.736,4.32
	c5.568,0.432,7.44,2.592,11.52,6.24c2.064,1.872,3.456,2.64,4.464,2.64c2.112,0,2.64-3.36,4.176-7.584
	c1.056-2.928,2.448-5.472,3.024-8.64c0.768-4.128-0.816-9.936,1.632-13.536c1.2-1.776,2.928-1.44,3.984-3.12
	c1.152-1.872,0.096-3.84,1.728-5.568C291.858,74.549,294.978,74.021,297.57,74.021"/>
</svg>
