<?xml version="1.0" encoding="utf-8"?>
<!-- Generator: Adobe Illustrator 25.0.0, SVG Export Plug-In . SVG Version: 6.00 Build 0)  -->
<!DOCTYPE svg PUBLIC "-//W3C//DTD SVG 1.1//EN" "http://www.w3.org/Graphics/SVG/1.1/DTD/svg11.dtd" [
	<!ENTITY ns_extend "http://ns.adobe.com/Extensibility/1.0/">
	<!ENTITY ns_ai "http://ns.adobe.com/AdobeIllustrator/10.0/">
	<!ENTITY ns_graphs "http://ns.adobe.com/Graphs/1.0/">
	<!ENTITY ns_vars "http://ns.adobe.com/Variables/1.0/">
	<!ENTITY ns_imrep "http://ns.adobe.com/ImageReplacement/1.0/">
	<!ENTITY ns_sfw "http://ns.adobe.com/SaveForWeb/1.0/">
	<!ENTITY ns_custom "http://ns.adobe.com/GenericCustomNamespace/1.0/">
	<!ENTITY ns_adobe_xpath "http://ns.adobe.com/XPath/1.0/">
]>
<svg version="1.1" id="Livello_1" xmlns:x="&ns_extend;" xmlns:i="&ns_ai;" xmlns:graph="&ns_graphs;"
	 xmlns="http://www.w3.org/2000/svg" xmlns:xlink="http://www.w3.org/1999/xlink" x="0px" y="0px" viewBox="0 0 400 400"
	 style="enable-background:new 0 0 400 400;" xml:space="preserve">
<style type="text/css">
	.st0{opacity:0.45;fill:#FFFFFF;}
	.st1{fill:none;stroke:#DC4B33;stroke-width:0.9;stroke-miterlimit:10;}
</style>
<metadata>
	<sfw  xmlns="&ns_sfw;">
		<slices></slices>
		<sliceSourceBounds  bottomLeftOrigin="true" height="271.414" width="178.003" x="112.319" y="69.053"></sliceSourceBounds>
	</sfw>
</metadata>
<path class="st0" d="M138.466,60.054c3.464-0.271,6.934,0.225,9.903,1.584c2.531,1.427,3.259,2.125,4.876,2.084
	c0.867-0.022,1.912-0.217,3.576-0.622c0.558-0.129,1.124-0.242,1.697-0.338l0,0c1.645-0.273,3.334-0.403,4.994-0.372
	c3.362,0.064,6.691,0.768,9.615,2.234c1.553,0.638,3.007,1.483,4.308,2.555c0.627,0.513,1.218,1.077,1.767,1.696
	c2.021,2.32,2.53,2.952,5.673,4.545c6.453,2.764,11.569,6.771,16.029,11.399c7.474,6.79,13.391,14.909,20.949,21.692
	c1.891,1.562,3.826,2.886,5.741,4.136c0.432,0.264,0.887,0.537,1.343,0.814c3.316,2.019,6.716,4.324,9.153,8.477
	c3.412,5.825,1.664,12.289,3.675,17.811c0.032,0.092,0.065,0.184,0.099,0.277c0.612,1.163,1.447,2.306,2.596,3.424
	c0.568,0.773,1.12,1.464,1.66,2.088c0.006,0.008,0.016,0.018,0.022,0.026c0.263,0.289,0.528,0.559,0.782,0.812
	c4.314,4.647,7.777,3.559,14.934,6.775c0.532,0.305,1.071,0.568,1.616,0.797c0.053,0.021,0.126,0.053,0.178,0.074
	c0.053,0.02,0.126,0.052,0.179,0.071c5.815,2.278,12.081,0.679,17.443,4.068c9.046,5.866,9.723,18.273,7.582,28.184
	c0.37,7.677-0.183,17.317-5.877,23.704c-1.26,1.935-3.655,3.146-6.324,4.087c-5.508,2.081-12.405,2.824-10.46,7.593
	c0.651,1.57,2.047,2.11,3.656,2.28c2.513,0.265,5.621-0.446,7.57-0.176c0,0.007,0.177,0.014,0.177,0.021
	c6.792,1.829,9.688,8.702,10.698,15.932c0.092,0.602,0.125,1.409,0.189,2.021c0.063,0.607,0.035,1.407,0.073,2.02
	c0.023,2.042-0.072,4.063-0.234,5.987c-0.089,2.942-0.343,5.784-0.682,8.244c-0.092,0.621-0.189,1.216-0.29,1.781
	c-1.168,3.341-3.351,6.215-3.744,9.99c0.066,4.296,0.827,8.772,1.622,13.308c2.216,12.66,4.71,25.432-6.11,35.752
	c-5.152,4.812-13.244,8.057-19.507,11.018c-1.623,0.769-3.157,1.093-4.688,1.149c-2.447,0.091-4.778-0.559-7.162-1.201
	c-1.476-0.382-2.968-0.763-4.507-0.974c-0.739-0.097-1.492-0.156-2.265-0.159c-1.064-0.139-2.306-0.197-3.593-0.163
	c-3.847,0.101-8.494,0.858-13.394,1.673c-6.323,1.022-12.91,2.068-18.637,2.25c-0.858,0.022-1.721,0.018-2.531,0.004
	c-0.183,0-0.474-0.005-0.655-0.008c-0.224-0.003-0.578-0.033-0.798-0.041c-0.022-0.001-0.044-0.001-0.066-0.002
	c-2.761-0.092-5.591-0.367-8-1.076c-3.851-1.218-6.792-3.603-8.118-7.906c-0.204-0.656-0.341-1.295-0.423-1.921
	c-0.622-4.073,1.256-7.622,2.691-11.542c0.188-0.539,0.368-1.086,0.535-1.642c1.313-4.048,1.723-7.682-0.019-11.956
	c-0.64-1.589-1.316-2.962-2.018-4.151c-0.037-0.052-0.079-0.134-0.116-0.185c-0.038-0.051-0.079-0.132-0.117-0.182
	c-2.115-3.311-4.497-4.798-7.007-5.44c-0.415-0.031-0.832-0.053-1.25-0.066c-4.272-0.125-8.782,0.715-12.91,0.35
	c-0.883-0.076-1.807-0.2-2.639-0.416c-8.916-2.092-20.246-8.726-22.875-17.994c-1.732-5.989-1.396-12.269,0.519-18.107
	c1.271-3.914,3.774-5.444,5.521-8.957c0.434-0.868,0.771-1.76,1.023-2.671c1.005-3.613,0.772-7.384-0.072-11.03
	c-0.705-2.257-1.666-4.578-2.622-6.717c-1.104-2.47-2.272-4.858-3.255-7.069c-0.029-0.063-0.066-0.149-0.094-0.212
	c-0.028-0.063-0.065-0.149-0.093-0.212c-0.352-0.806-0.68-1.585-0.97-2.333c-0.715-1.944-1.46-3.889-2.218-5.842
	c-3.32-8.555-6.833-17.141-8.868-26.094c-0.033-0.333-0.113-0.815-0.173-1.152c-0.033-0.186-0.078-0.458-0.118-0.645
	c-0.24-1.065-0.63-2.238-1.046-3.35c-0.444-1.186-0.952-2.376-1.47-3.562c-0.012-0.028-0.03-0.068-0.042-0.096
	c-0.012-0.028-0.029-0.068-0.042-0.096c-0.753-1.722-1.516-3.403-2.138-4.987c-0.733-1.919-1.367-3.855-1.954-5.786
	c-1.033-3.404-1.923-6.774-2.967-9.988c-0.056-0.186-0.153-0.447-0.21-0.633c-0.057-0.186-0.15-0.449-0.208-0.635
	c-1.248-3.746-2.474-7.38-4.096-10.767c-1.129-2.881-0.645-4.735-0.095-6.785c0.216-0.926,0.442-1.935,0.565-3.116
	c0.015-0.337,0.025-0.677,0.031-1.017c0.157-7.577-1.841-16.005,0.582-23.862c0.286-0.96,0.632-1.911,1.049-2.852
	c1.805-4.819,3.385-9.576,4.835-14.392c0.087-0.291,0.179-0.619,0.267-0.931c0.767-2.646,1.531-5.442,2.375-8.3
	c1.262-4.277,0.869-7.633,4.797-10.805c1.478-1.075,3.231-1.916,5.049-2.446C134.674,60.347,136.595,60.054,138.466,60.054"/>
<path class="st1" d="M143.022,65.747c3.36,0,6.672,0.768,9.408,2.4c2.496,1.632,3.024,2.448,4.512,2.448
	c0.768,0,1.728-0.192,3.36-0.624c2.016-0.528,4.176-0.816,6.288-0.816c5.616,0,11.184,1.968,14.544,6.672
	c1.824,2.496,2.016,3.12,5.088,4.752c15.456,6.96,22.32,20.928,34.512,31.536c5.088,3.84,10.8,5.52,14.208,11.328
	c3.936,6.72,0,14.544,5.76,20.832c5.52,8.592,8.208,6.384,16.272,9.984c6.048,3.552,13.104,0.288,19.152,3.6
	c9.216,5.28,9.744,17.376,7.68,26.64c0.384,7.728-0.192,17.184-6,23.088c-4.176,6.048-21.36,3.648-18.48,10.32
	c0.672,1.536,2.16,1.968,3.888,1.968c2.688,0,6.048-1.104,8.16-1.104h0.192c14.112,1.728,13.392,24.288,11.04,34.752
	c-1.344,3.264-3.792,6-4.272,9.696c0.048,15.936,11.328,34.32-3.216,48.192c-5.088,4.752-13.296,7.92-19.536,10.848
	c-1.632,0.768-3.168,1.056-4.704,1.056c-4.656,0-8.88-2.88-13.968-3.072c-1.056-0.192-2.304-0.288-3.6-0.288
	c-9.264,0-23.616,4.464-34.512,4.464c-7.872,0-14.016-2.304-15.12-10.32c-0.672-6.048,3.696-10.56,6.336-15.6
	c2.064-3.936,2.976-7.248,1.344-11.136c-2.736-6.624-6.768-8.16-11.184-8.16c-3.888,0-8.016,1.2-11.808,1.2
	c-0.816,0-1.68-0.048-2.448-0.192c-8.592-1.536-20.16-7.776-22.704-16.752c-1.68-5.808-1.248-11.904,0.768-17.52
	c1.344-3.84,3.984-5.088,5.76-8.496c4.8-9.12-3.408-21.408-6.528-29.424c-3.744-10.224-8.352-20.352-10.752-30.912
	c-0.432-4.368-3.12-9.12-4.752-13.152c-3.408-8.688-4.608-18.048-9.12-26.304c-1.776-3.888-0.096-5.664,0.384-9.36
	c0.528-8.544-2.496-18,1.296-26.304c2.88-7.632,5.136-14.976,7.152-22.368c1.152-4.224,0.432-7.392,4.176-10.416
	C134.766,66.899,138.894,65.747,143.022,65.747"/>
<path class="st1" d="M140.744,62.901c3.412-0.135,6.803,0.497,9.655,1.992c2.513,1.53,3.142,2.285,4.694,2.266
	c0.817-0.012,1.82-0.204,3.468-0.623c0.54-0.133,1.088-0.25,1.644-0.349l0,0c1.592-0.285,3.233-0.429,4.846-0.413
	c3.264,0.032,6.504,0.697,9.34,2.124c1.496,0.682,2.887,1.573,4.119,2.692c0.591,0.535,1.146,1.122,1.658,1.763
	c1.923,2.408,2.273,3.036,5.38,4.648c6.259,2.748,11.188,6.656,15.548,11.102c7.035,6.695,12.714,14.598,20.197,21.212
	c1.787,1.416,3.63,2.595,5.445,3.732c0.41,0.248,0.83,0.5,1.25,0.756c3.178,1.937,6.297,4.087,8.528,7.889
	c3.294,5.624,1.445,11.927,3.529,17.425c0.033,0.089,0.067,0.179,0.102,0.268c0.561,1.19,1.341,2.354,2.434,3.479
	c0.541,0.786,1.061,1.485,1.567,2.11c0.007,0.009,0.015,0.018,0.021,0.027c0.25,0.301,0.498,0.583,0.739,0.846
	c4.255,4.846,7.466,3.706,14.507,6.86c0.52,0.302,1.047,0.559,1.58,0.778c0.055,0.022,0.12,0.049,0.175,0.071
	c0.055,0.021,0.12,0.048,0.176,0.068c5.705,2.169,11.958,0.208,17.353,3.388c9.131,5.573,9.734,17.825,7.631,27.412
	c0.377,7.702-0.187,17.251-5.939,23.396c-1.267,1.891-3.708,3.026-6.422,3.881c-5.893,1.917-13.183,2.417-11.21,7.119
	c0.661,1.553,2.103,2.039,3.772,2.124c2.6,0.132,5.835-0.775,7.865-0.64c0,0.003,0.184,0.007,0.185,0.01
	c7.078,1.365,10.188,8.088,11.274,15.486c0.096,0.628,0.155,1.362,0.222,2.001c0.066,0.634,0.079,1.366,0.118,2.006
	c0.072,2.014,0.025,4.024-0.1,5.953c-0.111,2.939-0.408,5.751-0.795,8.161c-0.102,0.616-0.21,1.205-0.323,1.762
	c-1.256,3.303-3.571,6.108-4.008,9.843c0.04,4.252,0.818,8.68,1.664,13.158c2.357,12.491,5.246,25.203-5.516,35.467
	c-5.12,4.782-13.27,7.988-19.522,10.933c-1.627,0.768-3.162,1.074-4.696,1.103c-2.449,0.046-4.78-0.678-7.172-1.391
	c-1.47-0.43-2.961-0.857-4.51-1.104c-0.74-0.116-1.494-0.191-2.268-0.207c-1.06-0.165-2.305-0.241-3.596-0.226
	c-3.822,0.056-8.472,0.804-13.382,1.654c-6.247,1.066-12.836,2.251-18.623,2.503c-0.86,0.035-1.714,0.046-2.532,0.039
	c-0.191,0-0.436-0.003-0.624-0.006c-0.233-0.004-0.531-0.021-0.761-0.03c-0.021-0.001-0.042-0.001-0.063-0.002
	c-2.729-0.096-5.373-0.439-7.615-1.229c-3.659-1.337-6.327-3.899-7.315-8.409c-0.142-0.688-0.215-1.357-0.23-2.01
	c-0.143-4.25,2.235-7.851,4.088-11.73c0.249-0.531,0.488-1.068,0.711-1.612c1.689-3.992,2.349-7.465,0.663-11.546
	c-0.623-1.528-1.296-2.823-2.008-3.921c-0.039-0.054-0.08-0.123-0.119-0.176c-0.039-0.053-0.08-0.121-0.12-0.172
	c-2.168-3.105-4.709-4.355-7.418-4.771c-0.391-0.028-0.785-0.044-1.181-0.051c-4.08-0.063-8.399,0.958-12.359,0.775
	c-0.85-0.038-1.744-0.124-2.543-0.304c-8.754-1.814-20.203-8.251-22.79-17.373c-1.706-5.898-1.322-12.086,0.643-17.814
	c1.307-3.877,3.879-5.266,5.64-8.727c0.437-0.852,0.771-1.729,1.014-2.625c0.956-3.509,0.585-7.252-0.401-10.924
	c-0.688-2.23-1.614-4.488-2.563-6.618c-1.088-2.441-2.241-4.793-3.21-6.956c-0.03-0.066-0.064-0.143-0.093-0.209
	c-0.03-0.066-0.063-0.143-0.092-0.208c-0.35-0.794-0.675-1.56-0.96-2.294c-0.703-1.916-1.436-3.831-2.181-5.75
	c-3.274-8.438-6.743-16.892-8.738-25.674c-0.034-0.348-0.1-0.771-0.163-1.123c-0.034-0.194-0.077-0.431-0.119-0.626
	c-0.233-1.059-0.593-2.179-0.995-3.268c-0.428-1.16-0.922-2.321-1.427-3.47c-0.013-0.029-0.028-0.064-0.041-0.093
	c-0.013-0.029-0.028-0.064-0.041-0.093c-0.739-1.676-1.493-3.31-2.106-4.846c-0.72-1.86-1.342-3.742-1.919-5.629
	c-1-3.277-1.862-6.556-2.857-9.737c-0.058-0.194-0.138-0.426-0.197-0.62c-0.059-0.194-0.137-0.426-0.197-0.62
	c-1.167-3.611-2.41-7.136-4.108-10.452c-1.184-2.795-0.721-4.564-0.174-6.6c0.226-0.903,0.467-1.879,0.601-3.03
	c0.017-0.328,0.03-0.658,0.038-0.989c0.197-7.472-1.842-15.675,0.419-23.251c0.274-0.936,0.611-1.863,1.023-2.778
	c1.774-4.72,3.322-9.356,4.733-14.007c0.088-0.292,0.179-0.603,0.267-0.905c0.78-2.636,1.535-5.343,2.314-8.083
	c1.208-4.25,0.65-7.513,4.486-10.611c1.543-1.122,3.346-1.978,5.243-2.531C136.814,63.187,138.791,62.901,140.744,62.901"/>
<path class="st1" d="M138.466,60.054c3.464-0.271,6.934,0.225,9.903,1.584c2.531,1.427,3.259,2.125,4.876,2.084
	c0.867-0.022,1.912-0.217,3.576-0.622c0.558-0.129,1.124-0.242,1.697-0.338l0,0c1.645-0.273,3.334-0.403,4.994-0.372
	c3.362,0.064,6.691,0.768,9.615,2.234c1.553,0.638,3.007,1.483,4.308,2.555c0.627,0.513,1.218,1.077,1.767,1.696
	c2.021,2.32,2.53,2.952,5.673,4.545c6.453,2.764,11.569,6.771,16.029,11.399c7.474,6.79,13.391,14.909,20.949,21.692
	c1.891,1.562,3.826,2.886,5.741,4.136c0.432,0.264,0.887,0.537,1.343,0.814c3.316,2.019,6.716,4.324,9.153,8.477
	c3.412,5.825,1.664,12.289,3.675,17.811c0.032,0.092,0.065,0.184,0.099,0.277c0.612,1.163,1.447,2.306,2.596,3.424
	c0.568,0.773,1.12,1.464,1.66,2.088c0.006,0.008,0.016,0.018,0.022,0.026c0.263,0.289,0.528,0.559,0.782,0.812
	c4.314,4.647,7.777,3.559,14.934,6.775c0.532,0.305,1.071,0.568,1.616,0.797c0.053,0.021,0.126,0.053,0.178,0.074
	c0.053,0.02,0.126,0.052,0.179,0.071c5.815,2.278,12.081,0.679,17.443,4.068c9.046,5.866,9.723,18.273,7.582,28.184
	c0.37,7.677-0.183,17.317-5.877,23.704c-1.26,1.935-3.655,3.146-6.324,4.087c-5.508,2.081-12.405,2.824-10.46,7.593
	c0.651,1.57,2.047,2.11,3.656,2.28c2.513,0.265,5.621-0.446,7.57-0.176c0,0.007,0.177,0.014,0.177,0.021
	c6.792,1.829,9.688,8.702,10.698,15.932c0.092,0.602,0.125,1.409,0.189,2.021c0.063,0.607,0.035,1.407,0.073,2.02
	c0.023,2.042-0.072,4.063-0.234,5.987c-0.089,2.942-0.343,5.784-0.682,8.244c-0.092,0.621-0.189,1.216-0.29,1.781
	c-1.168,3.341-3.351,6.215-3.744,9.99c0.066,4.296,0.827,8.772,1.622,13.308c2.216,12.66,4.71,25.432-6.11,35.752
	c-5.152,4.812-13.244,8.057-19.507,11.018c-1.623,0.769-3.157,1.093-4.688,1.149c-2.447,0.091-4.778-0.559-7.162-1.201
	c-1.476-0.382-2.968-0.763-4.507-0.974c-0.739-0.097-1.492-0.156-2.265-0.159c-1.064-0.139-2.306-0.197-3.593-0.163
	c-3.847,0.101-8.494,0.858-13.394,1.673c-6.323,1.022-12.91,2.068-18.637,2.25c-0.858,0.022-1.721,0.018-2.531,0.004
	c-0.183,0-0.474-0.005-0.655-0.008c-0.224-0.003-0.578-0.033-0.798-0.041c-0.022-0.001-0.044-0.001-0.066-0.002
	c-2.761-0.092-5.591-0.367-8-1.076c-3.851-1.218-6.792-3.603-8.118-7.906c-0.204-0.656-0.341-1.295-0.423-1.921
	c-0.622-4.073,1.256-7.622,2.691-11.542c0.188-0.539,0.368-1.086,0.535-1.642c1.313-4.048,1.723-7.682-0.019-11.956
	c-0.64-1.589-1.316-2.962-2.018-4.151c-0.037-0.052-0.079-0.134-0.116-0.185c-0.038-0.051-0.079-0.132-0.117-0.182
	c-2.115-3.311-4.497-4.798-7.007-5.44c-0.415-0.031-0.832-0.053-1.25-0.066c-4.272-0.125-8.782,0.715-12.91,0.35
	c-0.883-0.076-1.807-0.2-2.639-0.416c-8.916-2.092-20.246-8.726-22.875-17.994c-1.732-5.989-1.396-12.269,0.519-18.107
	c1.271-3.914,3.774-5.444,5.521-8.957c0.434-0.868,0.771-1.76,1.023-2.671c1.005-3.613,0.772-7.384-0.072-11.03
	c-0.705-2.257-1.666-4.578-2.622-6.717c-1.104-2.47-2.272-4.858-3.255-7.069c-0.029-0.063-0.066-0.149-0.094-0.212
	c-0.028-0.063-0.065-0.149-0.093-0.212c-0.352-0.806-0.68-1.585-0.97-2.333c-0.715-1.944-1.46-3.889-2.218-5.842
	c-3.32-8.555-6.833-17.141-8.868-26.094c-0.033-0.333-0.113-0.815-0.173-1.152c-0.033-0.186-0.078-0.458-0.118-0.645
	c-0.24-1.065-0.63-2.238-1.046-3.35c-0.444-1.186-0.952-2.376-1.47-3.562c-0.012-0.028-0.03-0.068-0.042-0.096
	c-0.012-0.028-0.029-0.068-0.042-0.096c-0.753-1.722-1.516-3.403-2.138-4.987c-0.733-1.919-1.367-3.855-1.954-5.786
	c-1.033-3.404-1.923-6.774-2.967-9.988c-0.056-0.186-0.153-0.447-0.21-0.633c-0.057-0.186-0.15-0.449-0.208-0.635
	c-1.248-3.746-2.474-7.38-4.096-10.767c-1.129-2.881-0.645-4.735-0.095-6.785c0.216-0.926,0.442-1.935,0.565-3.116
	c0.015-0.337,0.025-0.677,0.031-1.017c0.157-7.577-1.841-16.005,0.582-23.862c0.286-0.96,0.632-1.911,1.049-2.852
	c1.805-4.819,3.385-9.576,4.835-14.392c0.087-0.291,0.179-0.619,0.267-0.931c0.767-2.646,1.531-5.442,2.375-8.3
	c1.262-4.277,0.869-7.633,4.797-10.805c1.478-1.075,3.231-1.916,5.049-2.446C134.674,60.347,136.595,60.054,138.466,60.054"/>
</svg>
