<?xml version="1.0" encoding="utf-8"?>
<!-- Generator: Adobe Illustrator 25.0.0, SVG Export Plug-In . SVG Version: 6.00 Build 0)  -->
<!DOCTYPE svg PUBLIC "-//W3C//DTD SVG 1.1//EN" "http://www.w3.org/Graphics/SVG/1.1/DTD/svg11.dtd" [
	<!ENTITY ns_extend "http://ns.adobe.com/Extensibility/1.0/">
	<!ENTITY ns_ai "http://ns.adobe.com/AdobeIllustrator/10.0/">
	<!ENTITY ns_graphs "http://ns.adobe.com/Graphs/1.0/">
	<!ENTITY ns_vars "http://ns.adobe.com/Variables/1.0/">
	<!ENTITY ns_imrep "http://ns.adobe.com/ImageReplacement/1.0/">
	<!ENTITY ns_sfw "http://ns.adobe.com/SaveForWeb/1.0/">
	<!ENTITY ns_custom "http://ns.adobe.com/GenericCustomNamespace/1.0/">
	<!ENTITY ns_adobe_xpath "http://ns.adobe.com/XPath/1.0/">
]>
<svg version="1.1" id="Livello_1" xmlns:x="&ns_extend;" xmlns:i="&ns_ai;" xmlns:graph="&ns_graphs;"
	 xmlns="http://www.w3.org/2000/svg" xmlns:xlink="http://www.w3.org/1999/xlink" x="0px" y="0px" viewBox="0 0 400 400"
	 style="enable-background:new 0 0 400 400;" xml:space="preserve">
<style type="text/css">
	.st0{opacity:0.45;fill:#FFFFFF;}
	.st1{fill:none;stroke:#DC4B33;stroke-width:0.9;stroke-miterlimit:10;}
</style>
<metadata>
	<sfw  xmlns="&ns_sfw;">
		<slices></slices>
		<sliceSourceBounds  bottomLeftOrigin="true" height="328.619" width="234.146" x="85.782" y="33.233"></sliceSourceBounds>
	</sfw>
</metadata>
<path class="st0" d="M174.931,38.659c0.262,0,1.684-0.073,1.939-0.059l0,0c0.143,0.008,0.935,0.099,1.076,0.111
	c2.942,0.111,5.559,0.537,7.777,0.867c0.885,0.132,1.85,0.274,2.417,0.309c0.011,0.001,0.076,0.002,0.088,0.004
	c0.017,0.002,0.115,0.004,0.131,0.006c1.437,0.059,2.87,0.144,4.31,0.238c0.029,0.003,0.116,0.006,0.145,0.01
	c0.044,0.005,0.174,0.01,0.217,0.015c6.32,0.441,11.786,2.459,17.3,6.254c8.979,6.213,18.882,10.037,29.84,14.055
	c0.424,0.157,2.02,0.739,2.448,0.896c1.656,0.601,3.319,1.208,4.988,1.824c11.586,4.251,23.075,9.055,34.419,13.822
	c3.377,1.419,6.756,2.841,10.141,4.253c0.004,0.002,0.019,0.008,0.023,0.009c0.004,0.002,0.019,0.008,0.023,0.009
	c0.668,0.279,1.495,0.603,2.347,0.935c5.362,2.111,13.979,4.655,18.051,11.569c1.254,2.397,1.781,4.031,3.105,6.685
	c0.42,0.726,0.788,1.474,1.104,2.244c0.264,0.639,0.481,1.251,0.657,1.827c4.39,8.81,1.054,19.1-5.03,28.773
	c-2.946,4.637-6.332,8.836-8.923,12.471c-0.9,1.194-1.77,2.385-2.593,3.562c-1.123,1.591-2.586,3.647-3.259,4.95
	c-0.039,0.089-0.26,0.505-0.298,0.594c-0.044,0.103-0.325,0.567-0.369,0.67c-1.285,2.444-2.658,6.076-3.924,9.404
	c-0.627,1.649-1.265,3.317-1.932,4.96c-0.004,0.01-0.025,0.061-0.029,0.071c-0.004,0.01-0.025,0.061-0.029,0.071
	c-2.749,6.623-9.06,18.089-17.975,26.472c-3.03,2.616-6.007,5.139-8.994,7.549c-0.064,0.054-0.321,0.257-0.384,0.312
	s-0.326,0.249-0.389,0.304c-8.866,6.878-14.211,13.094-20.467,23.396c-0.054,0.08-0.248,0.389-0.303,0.467
	c-0.055,0.078-0.261,0.38-0.317,0.457c-2.667,3.813-5.782,6.76-8.322,9.618c-0.848,0.943-1.839,2.078-2.352,2.851
	c0,0.001-0.002,0.004-0.003,0.005c-0.004,0.006-0.02,0.031-0.024,0.037c-2.597,4.028-5.06,8.079-6.972,11.58
	c-0.316,0.577-0.718,1.538-1.088,2.422c-0.804,1.791-1.497,3.743-2.297,5.773c0.921,3.366,1.688,6.906,0.824,10.47
	c-0.126,0.867-0.408,1.701-0.766,2.537c-0.935,2.566-2.647,5.033-3.164,8.049c-0.51,3.374,0.098,6.964,1.148,9.278
	c0.369,0.598,0.748,1.146,1.128,1.628c0.907,1.271,1.864,2.318,2.837,3.193c4.297,2.177,9.483,4.653,11.394,11.168
	c0.004,0.008,0.011,0.041,0.015,0.049c0.004,0.008,0.011,0.041,0.015,0.049c0.071,0.234,0.137,0.472,0.199,0.715
	c0.695,2.849,0.383,6.332-0.061,9.13c-0.521,3.233-0.946,4.269-0.691,7.299c-0.014,3.739-1.583,7.697-2.086,10.955
	c-0.251,3.278-0.033,4.659-1.313,8.225c-2.842,5.621-9.195,8.414-15.041,10.301c-1.14,0.356-2.313,0.702-3.203,0.982
	c-3.554,1.122-7.064,1.952-10.114,2.708c-6.92,1.735-13.522,2.281-19.881,2.636c-1.659,0.091-3.272,0.17-4.896,0.255
	c-2.562,0.133-5.434,0.561-8.563,1.073c-5.563,0.801-11.476,2.416-17.897,3.242c-0.58,0.081-1.173,0.164-1.779,0.244
	c-2.205,0.315-4.677,0.605-7.299,0.732c-0.813,0.048-1.746,0.082-2.776,0.083c-2.558,0.02-5.767-0.006-9.256-0.36
	c-5.457-0.554-11.456-1.904-16.096-5.566c-0.639-0.512-1.199-1.077-1.705-1.684c-0.005-0.009-0.034-0.038-0.039-0.047
	c-0.005-0.009-0.034-0.038-0.039-0.047c-2.366-2.833-3.339-6.291-5.399-8.918c-0.693-0.913-1.375-1.737-2.041-2.492
	c-3.258-1.725-7.176-3.241-10.529-6.593c-3.196-3.196-5.31-6.405-6.522-10.532c-1.005-3.849-0.126-5.184-0.015-8.534
	c-0.034-3.612-1.543-8.059-1.336-12.057c0.001-0.007,0.001-0.027,0.002-0.033c0.001-0.006,0.001-0.027,0.002-0.033
	c0.259-4.415,2.195-7.583,3.141-11.266c0.688-2.784,1.113-5.695,1.45-8.39c-0.261-2.858-0.594-5.955-0.496-8.851
	c0.037-1.416,0.113-2.894,0.252-4.414c0-0.016,0.007-0.068,0.008-0.084s0.008-0.068,0.008-0.084
	c0.656-6.222,2.227-11.86,4.232-16.258c0.215-1.208,0.451-2.483,0.749-3.583c0.437-1.666,0.976-3.317,1.67-4.895
	c0.455-1.043,1.038-2.224,1.692-3.311c0.609-0.952,1.259-1.866,1.903-2.554c0-0.011,0.058-0.022,0.058-0.033
	c0.931-1.546,5.763-1.305,6.889-3.29c0.002-0.02,0.09-0.039,0.093-0.059c1.416-2.166,3.982-6.689,0.539-10.779
	c-1.768-3.919-5.465-10.394-5.295-13.909c-0.107-0.443-0.259-0.884-0.435-1.327c-2.748-1.976-6.195-4.221-7.918-7.02
	c-3.886-6.289-1.853-15.788-0.05-21.849c2.122-6.371,5.254-11.865,8.976-14.344c0.451-0.301,0.894-0.583,1.356-0.804
	c0.01,0.002,0.036-0.027,0.046-0.025c0.01,0.002,0.036-0.027,0.046-0.025c0.506-0.253,1.047-0.5,1.624-0.733
	c0.205-0.098,0.47-0.084,0.711-0.246c0.005-0.008,0.038-0.016,0.043-0.024c2.613-2.073,3.991-5.975,5.995-9.236
	c0.45-0.759,0.919-1.468,1.433-2.099c2.663-3.221,5.212-5.978,7.861-8.228c0.218-0.426,0.443-0.861,0.674-1.299
	c0.848-1.593,1.805-3.258,2.949-4.92c1.11-1.594,2.985-3.036,4.158-4.806c1.014-5.514-0.988-9.145-1.318-13.191
	c-0.016-0.577,0.005-1.128,0.049-1.653c-0.674-3.699,0.296-7.923,0.386-12.765c0.01-2.432-0.127-4.919,0.066-7.497
	c0.057-0.764,0.126-1.497,0.213-2.2c-0.28-2.043-0.362-4.07-0.094-6.101c0.223-1.62,0.485-2.976,0.703-4.236
	c0.275-1.478,0.481-2.811,0.466-4.305c0.001-0.011-0.002-0.065-0.002-0.076c0-0.011-0.002-0.065-0.002-0.076
	c-0.027-1.063-0.085-2.176-0.201-3.396c-0.461-7.482,1.496-13.718,2.916-18.691c1.383-4.323,4.264-6.033,7.047-7.333
	c1.502-1.416,3.368-3.064,5.402-5.34c2.658-2.992,4.329-5.943,7.653-8.378c1.037-0.769,2.21-1.505,3.617-2.191
	c4.822-2.363,9.445-3.991,15.849-4.539C173.875,38.703,174.386,38.679,174.931,38.659"/>
<g>
	<path class="st1" d="M180.012,71.608c4.032,0,7.488,1.152,11.616,1.152h0.096h0.144c4.368,0,7.776,1.152,11.472,3.696
		c10.128,7.008,20.88,10.704,32.448,14.928c13.728,4.944,27.36,10.896,41.088,16.608c4.704,1.968,11.424,3.408,12.912,8.208
		c0.72,2.256,0.384,2.976,1.632,5.088c8.112,9.888-9.312,22.56-14.112,31.152c-3.408,5.184-5.616,12.24-8.016,18.144
		c-3.168,7.632-9.12,16.752-15.888,21.936c-11.328,7.968-17.76,14.832-24.96,26.688c-2.832,4.224-6.96,7.2-9.6,11.328
		c-2.352,3.648-4.944,7.872-6.96,11.664c-2.784,5.232-2.736,10.176-7.296,14.4c-2.544,2.352-8.256,3.504-9.696,6.768
		c-1.344,3.072,0.864,7.2,3.648,8.592c5.376,2.784,15.264,0.48,18.048,7.248c0.912,2.208,0.48,5.52,0.144,7.776
		c-0.528,3.36-0.672,3.12,0.528,6.288c1.2,3.264,0.336,7.104,1.728,10.08c1.536,3.312,4.224,3.696,4.752,8.016
		c1.2,10.176-12.912,11.904-20.112,14.256c-8.976,2.928-17.616,2.784-26.832,3.312c-8.448,0.48-15.696,3.984-24,4.32
		c-2.208,0.096-4.8,0.288-7.536,0.288c-4.848,0-9.984-0.624-13.296-3.456c-2.832-2.448-1.92-6.864-4.608-9.408
		c-3.168-2.976-7.728-3.168-10.992-6.432c-3.072-3.072-4.704-6.048-5.184-10.416c-0.48-4.464,1.968-4.656,2.928-8.112
		c0.912-3.36-0.96-7.968-0.288-11.664c0.768-4.08,3.792-6.48,4.848-10.176c1.296-4.608-0.288-11.664-0.288-16.416
		c-0.048-9.024,0.336-20.784,7.104-27.456c1.584-1.488,3.888-3.744,6.096-4.08h0.096c1.536,0,9.504,3.456,11.04,3.456h0.144
		c2.064-0.768,5.856-5.28-0.672-9.024c-4.032-2.304-11.856-8.784-14.112-10.608c-2.544-2.016-7.968-4.08-9.648-6.816
		c-2.64-4.272,1.248-13.248,3.264-17.04c2.64-4.896,5.616-8.976,9.984-8.976c1.008,0,2.112,0.24,3.312,0.72
		c0.192,0.096,0.48,0.384,0.72,0.384h0.048c3.6-1.248,3.216-6.576,4.704-9.408c2.304-4.416,3.936-9.312,7.392-13.056
		c1.056-1.152,3.264-1.968,4.128-3.312c2.688-4.32-1.248-6.096-2.544-9.792c-1.392-3.984,1.728-7.44,1.44-11.232
		c-0.336-4.08-2.736-7.92-1.248-12.384c1.344-4.032,3.024-4.608,2.064-9.216c-1.008-4.896-0.864-10.128-1.248-15.312
		c-0.48-7.2,5.28-5.28,9.12-9.504c3.264-3.648,2.448-7.104,7.152-9.552c4.128-2.16,7.296-3.36,12.096-3.696
		C179.196,71.608,179.58,71.608,180.012,71.608"/>
</g>
<path class="st1" d="M179.504,68.313c0.419,0,0.948,0.005,1.355,0.028l0,0c0.229,0.013,0.521,0.037,0.747,0.056
	c1.853,0.141,3.608,0.452,5.359,0.704c0.554,0.08,1.119,0.156,1.65,0.213c0.018,0.002,0.042,0.004,0.06,0.006
	c0.027,0.003,0.062,0.006,0.089,0.009c0.966,0.094,1.95,0.16,2.969,0.169c0.003,0,0.098,0.001,0.101,0.001
	c0.004,0,0.147,0.001,0.151,0.002c4.563,0.044,8.177,1.283,12.055,3.952c8.288,5.735,17.037,9.271,26.352,12.709
	c0.679,0.251,1.478,0.544,2.163,0.794c1.46,0.533,2.931,1.067,4.415,1.61c10.224,3.69,20.392,7.924,30.567,12.198
	c2.996,1.259,5.994,2.521,8.996,3.776c0.006,0.003,0.014,0.006,0.02,0.008s0.014,0.006,0.02,0.008
	c0.679,0.284,1.374,0.571,2.071,0.859c4.77,1.982,11.68,3.533,13.426,8.544c0.773,2.27,0.524,3.081,1.779,5.248
	c0.404,0.514,0.746,1.036,1.031,1.566c0.237,0.441,0.434,0.883,0.592,1.325c2.503,6.518-3.059,13.899-8.546,20.556
	c-2.736,3.311-5.428,6.412-6.997,9.12c-0.604,0.902-1.175,1.85-1.717,2.832c-0.705,1.273-1.402,2.65-1.993,3.981
	c-0.062,0.142-0.141,0.316-0.202,0.459c-0.07,0.164-0.164,0.365-0.234,0.53c-0.987,2.283-1.912,4.752-2.816,7.125
	c-0.483,1.267-0.963,2.517-1.453,3.725c-0.007,0.016-0.015,0.037-0.021,0.053c-0.007,0.016-0.015,0.037-0.022,0.053
	c-3.126,7.531-9.114,16.886-16.097,22.39c-2.946,2.121-5.591,4.165-8.029,6.228c-0.102,0.087-0.223,0.189-0.325,0.276
	c-0.101,0.087-0.222,0.188-0.323,0.276c-6.708,5.745-11.536,11.709-16.811,20.396c-0.086,0.128-0.187,0.277-0.275,0.403
	c-0.088,0.126-0.192,0.272-0.283,0.396c-2.225,3.056-5.03,5.5-7.343,8.248c-0.672,0.797-1.323,1.638-1.869,2.488
	c-0.001,0.001-0.002,0.003-0.003,0.004c-0.006,0.01-0.014,0.022-0.02,0.032c-2.046,3.174-4.231,6.718-6.072,10.029
	c-0.332,0.597-0.663,1.225-0.978,1.838c-0.88,1.681-1.489,3.351-2.066,4.991c-0.971,3.404-1.766,6.648-4.647,9.594
	c-0.609,0.638-1.427,1.2-2.328,1.741c-2.549,1.555-5.781,2.935-6.791,5.409c-1.036,2.588,0.159,5.827,2.071,7.728
	c0.45,0.441,0.936,0.814,1.44,1.096c1.166,0.684,2.537,1.119,3.996,1.451c4.989,1.036,11.028,1.134,13.396,5.919
	c0.007,0.012,0.013,0.027,0.02,0.04c0.006,0.012,0.013,0.027,0.02,0.04c0.092,0.189,0.178,0.386,0.258,0.59
	c0.89,2.272,0.47,5.601,0.123,7.911c-0.527,3.347-0.699,3.235,0.406,6.389c1.079,3.312,0.144,7.163,1.347,10.168
	c1.357,3.309,3.798,3.792,4.145,8.037c0.357,6.002-4.498,9.039-9.974,11.013c-0.874,0.313-1.768,0.602-2.634,0.867
	c-2.995,0.918-5.991,1.609-8.328,2.349c-5.534,1.753-10.928,2.394-16.365,2.748c-1.342,0.087-2.684,0.157-4.033,0.222
	c-2.308,0.111-4.667,0.236-7.085,0.407c-5.144,0.341-9.93,1.754-14.82,2.855c-0.482,0.11-0.965,0.217-1.451,0.321
	c-1.95,0.421-3.942,0.78-5.995,0.984c-0.752,0.076-1.522,0.131-2.309,0.159c-2.243,0.088-4.897,0.261-7.708,0.223
	c-4.909-0.052-10.131-0.752-13.576-3.667c-0.531-0.455-0.941-0.975-1.273-1.537c-0.008-0.014-0.018-0.03-0.026-0.044
	c-0.008-0.014-0.018-0.03-0.025-0.044c-1.444-2.509-1.383-5.801-3.541-7.912c-0.671-0.657-1.397-1.193-2.155-1.66
	c-2.907-1.636-6.342-2.384-8.995-5.037c-3.084-3.084-4.765-6.084-5.318-10.428c-0.533-4.402,1.759-4.709,2.634-8.154
	c0.817-3.385-1.018-7.977-0.393-11.703c0.002-0.01,0.004-0.022,0.006-0.033c0.002-0.01,0.004-0.022,0.006-0.032
	c0.735-4.078,3.626-6.55,4.666-10.227c0.647-2.335,0.631-5.226,0.458-8.114c-0.236-2.947-0.631-5.939-0.622-8.384
	c-0.003-1.345,0.007-2.751,0.049-4.192c0.001-0.025,0.002-0.055,0.002-0.08c0.001-0.025,0.002-0.055,0.002-0.08
	c0.175-5.307,0.791-10.956,2.635-15.784c0.402-1.137,0.869-2.243,1.417-3.28c0.809-1.538,1.789-2.963,2.98-4.226
	c0.783-0.797,1.751-1.792,2.799-2.628c0.978-0.775,2.023-1.415,3.047-1.63c0-0.001,0.092-0.002,0.092-0.003
	c1.475-0.155,9.13,2.98,10.625,2.781c0-0.002,0.139-0.004,0.139-0.006c1.999-0.908,5.669-5.421-0.551-9.2
	c-3.806-2.465-11.217-8.945-13.23-10.938c-0.397-0.35-0.872-0.702-1.395-1.058c-2.764-1.731-6.694-3.585-8.123-5.912
	c-2.765-4.474,0.938-13.502,2.933-17.521c2.588-5.043,5.574-9.251,9.883-9.513c0.472-0.029,0.963-0.01,1.475,0.063
	c0.015,0.003,0.032,0.003,0.048,0.007c0.015,0.003,0.032,0.003,0.048,0.007c0.547,0.083,1.12,0.22,1.717,0.413
	c0.193,0.077,0.479,0.337,0.719,0.321c0-0.001,0.047-0.002,0.048-0.002c2.861-1.109,3.29-4.764,4.196-7.662
	c0.219-0.709,0.464-1.372,0.781-1.939c1.557-2.795,2.868-5.711,4.495-8.389c0.189-0.344,0.384-0.687,0.585-1.026
	c0.785-1.322,1.669-2.598,2.721-3.78c1.061-1.196,3.236-2.075,4.131-3.461c2.521-4.439-1.222-6.401-2.421-10.132
	c-0.14-0.453-0.226-0.898-0.271-1.335c-0.462-3.475,1.832-6.695,1.61-10.215c-0.146-2.024-0.743-4.003-1.133-6.028
	c-0.116-0.601-0.215-1.202-0.281-1.806c-0.221-1.58-0.214-3.197,0.31-4.891c0.43-1.386,0.899-2.391,1.294-3.292
	c0.493-1.111,0.873-2.061,0.927-3.376c0.001-0.017,0.001-0.038,0.002-0.055c0.001-0.017,0.001-0.039,0.002-0.056
	c0.019-0.762-0.059-1.64-0.271-2.725c-0.953-5.155-0.628-10.487-0.832-15.65c-0.119-4.285,1.898-5.407,4.347-6.475
	c1.63-0.78,3.501-1.578,5.106-3.346c2.484-2.779,2.776-5.455,4.86-7.665c0.671-0.714,1.527-1.381,2.704-1.989
	c4.197-2.18,7.511-3.423,12.471-3.78C178.664,68.318,179.061,68.315,179.504,68.313"/>
<path class="st1" d="M178.996,65.018c0.401,0,1.029-0.004,1.42,0.018l0,0c0.219,0.012,0.567,0.044,0.783,0.062
	c1.974,0.138,3.825,0.461,5.627,0.722c0.591,0.086,1.2,0.169,1.735,0.223c0.017,0.002,0.045,0.004,0.063,0.006
	c0.026,0.003,0.068,0.006,0.094,0.008c1.018,0.09,2.052,0.158,3.118,0.177c0.006,0.001,0.1,0.001,0.106,0.002
	c0.009,0.001,0.15,0.002,0.159,0.003c4.758,0.088,8.578,1.413,12.637,4.208c8.364,5.788,17.242,9.356,26.74,12.859
	c0.651,0.24,1.538,0.565,2.195,0.805c1.481,0.54,2.974,1.083,4.479,1.633c10.376,3.752,20.69,8.049,30.995,12.379
	c3.038,1.276,6.079,2.557,9.123,3.829c0.006,0.003,0.014,0.006,0.02,0.008c0.006,0.003,0.014,0.006,0.02,0.008
	c0.678,0.283,1.387,0.575,2.102,0.868c4.836,1.997,11.935,3.657,13.94,8.88c0.827,2.284,0.663,3.187,1.927,5.407
	c0.406,0.538,0.751,1.085,1.039,1.642c0.24,0.463,0.439,0.924,0.599,1.381c2.713,6.773-2.602,14.476-8.155,21.469
	c-2.759,3.458-5.529,6.682-7.211,9.493c-0.637,0.934-1.241,1.909-1.814,2.913c-0.751,1.308-1.534,2.76-2.134,4.089
	c-0.059,0.136-0.155,0.337-0.213,0.474c-0.067,0.157-0.182,0.387-0.249,0.546c-1.02,2.301-1.995,4.899-2.939,7.378
	c-0.499,1.309-0.996,2.606-1.506,3.862c-0.006,0.016-0.016,0.039-0.022,0.055s-0.016,0.039-0.022,0.055
	c-3.084,7.43-9.108,17.019-16.306,22.843c-2.956,2.176-5.637,4.274-8.136,6.374c-0.098,0.083-0.234,0.196-0.331,0.28
	c-0.097,0.083-0.234,0.195-0.33,0.279c-6.947,5.871-11.833,11.863-17.217,20.729c-0.082,0.122-0.193,0.29-0.278,0.41
	c-0.084,0.12-0.2,0.284-0.287,0.403c-2.274,3.14-5.114,5.64-7.452,8.4c-0.692,0.813-1.381,1.687-1.922,2.528
	c-0.001,0.001-0.002,0.003-0.003,0.004c-0.006,0.01-0.015,0.023-0.021,0.032c-2.107,3.269-4.323,6.869-6.172,10.201
	c-0.33,0.594-0.669,1.26-0.99,1.902c-0.871,1.693-1.49,3.395-2.092,5.078c-0.761,3.4-1.382,6.677-4.039,9.691
	c-0.556,0.664-1.314,1.256-2.155,1.829c-2.37,1.668-5.433,3.168-6.388,5.702c-0.977,2.675,0.152,5.953,1.968,7.9
	c0.441,0.459,0.915,0.851,1.405,1.155c1.137,0.749,2.462,1.252,3.867,1.645c4.912,1.163,10.856,1.525,13.173,6.502
	c0.006,0.012,0.013,0.029,0.019,0.041c0.006,0.012,0.013,0.029,0.019,0.041c0.09,0.194,0.174,0.396,0.252,0.604
	c0.869,2.336,0.461,5.682,0.103,8.047c-0.527,3.335-0.727,3.35,0.284,6.49c0.957,3.359-0.048,7.223,0.965,10.255
	c1.179,3.305,3.373,3.889,3.539,8.058c0.002,5.96-5.02,8.969-10.537,10.934c-0.904,0.318-1.829,0.613-2.697,0.88
	c-3.057,0.94-6.11,1.648-8.527,2.389c-5.688,1.751-11.216,2.381-16.756,2.735c-1.377,0.088-2.749,0.158-4.129,0.226
	c-2.336,0.114-4.752,0.272-7.249,0.481c-5.191,0.392-10.102,1.827-15.162,2.898c-0.493,0.106-0.988,0.211-1.488,0.312
	c-1.978,0.409-4.024,0.761-6.14,0.956c-0.758,0.073-1.547,0.126-2.361,0.15c-2.278,0.081-4.994,0.226-7.88,0.158
	c-4.97-0.117-10.278-0.88-13.856-3.878c-0.543-0.461-0.97-0.986-1.321-1.553c-0.007-0.013-0.02-0.031-0.027-0.044
	c-0.007-0.013-0.02-0.031-0.027-0.044c-1.546-2.545-1.6-5.856-3.748-8.024c-0.674-0.685-1.395-1.253-2.142-1.753
	c-2.946-1.646-6.435-2.48-9.166-5.21c-3.097-3.097-4.825-6.119-5.452-10.439c-0.585-4.341,1.549-4.762,2.339-8.196
	c0.723-3.41-1.077-7.986-0.498-11.743c0.002-0.01,0.003-0.023,0.005-0.033c0.002-0.01,0.004-0.023,0.005-0.032
	c0.682-4.116,3.467-6.665,4.497-10.342c0.652-2.385,0.684-5.278,0.568-8.145c-0.239-2.937-0.627-5.941-0.608-8.436
	c0.002-1.353,0.019-2.767,0.072-4.217c0.001-0.024,0.002-0.056,0.003-0.08c0.001-0.024,0.002-0.056,0.003-0.081
	c0.228-5.409,0.951-11.056,2.813-15.836c0.381-1.145,0.823-2.269,1.343-3.314c0.768-1.552,1.699-3.002,2.834-4.3
	c0.746-0.824,1.672-1.84,2.676-2.704c0.937-0.795,1.938-1.466,2.92-1.733c0-0.002,0.088-0.004,0.088-0.007
	c1.415-0.309,8.756,2.504,10.21,2.107c0-0.004,0.133-0.008,0.134-0.012c1.934-1.048,5.481-5.562-0.43-9.375
	c-3.579-2.627-10.578-9.106-12.349-11.268c-0.365-0.361-0.804-0.722-1.289-1.087c-2.762-1.758-6.639-3.656-8.1-6.035
	c-2.889-4.675,0.628-13.756,2.601-18.002c2.536-5.191,5.534-9.528,9.782-10.05c0.469-0.058,0.956-0.074,1.462-0.033
	c0.015,0.003,0.033,0,0.048,0.003c0.015,0.003,0.033,0,0.048,0.003c0.543,0.045,1.112,0.14,1.707,0.285
	c0.195,0.057,0.478,0.29,0.718,0.258c0.001-0.002,0.046-0.003,0.047-0.005c2.833-1.216,3.368-4.899,4.396-7.837
	c0.244-0.715,0.515-1.383,0.853-1.956c1.68-2.842,3.128-5.741,4.869-8.372c0.193-0.353,0.391-0.706,0.595-1.057
	c0.792-1.353,1.684-2.672,2.746-3.906c1.067-1.24,3.208-2.182,4.134-3.611c2.353-4.559-1.196-6.706-2.299-10.472
	c-0.126-0.467-0.201-0.924-0.235-1.371c-0.486-3.5,1.661-6.831,1.474-10.499c-0.128-2.069-0.675-4.104-1-6.192
	c-0.097-0.619-0.177-1.235-0.226-1.85c-0.228-1.632-0.231-3.294,0.265-5.025c0.407-1.412,0.853-2.456,1.229-3.397
	c0.468-1.152,0.829-2.144,0.876-3.479c0.001-0.016,0.001-0.041,0.002-0.058c0.001-0.016,0.001-0.042,0.001-0.058
	c0.014-0.795-0.062-1.7-0.263-2.799c-0.899-5.413-0.392-10.846-0.415-15.988c0.048-4.29,2.161-5.477,4.647-6.57
	c1.616-0.851,3.487-1.743,5.139-3.568c2.504-2.803,2.948-5.509,5.17-7.744c0.712-0.72,1.603-1.395,2.805-2.011
	c4.267-2.201,7.726-3.486,12.847-3.865C178.132,65.027,178.541,65.022,178.996,65.018"/>
<path class="st1" d="M178.488,61.723c0.384,0,1.111-0.013,1.485,0.009l0,0c0.21,0.012,0.613,0.051,0.82,0.068
	c2.095,0.135,4.042,0.471,5.896,0.74c0.627,0.092,1.281,0.182,1.82,0.234c0.017,0.002,0.049,0.004,0.066,0.005
	c0.025,0.003,0.074,0.005,0.099,0.008c1.07,0.086,2.154,0.156,3.267,0.184c0.009,0.001,0.102,0.002,0.111,0.003
	c0.013,0.001,0.153,0.003,0.166,0.005c4.953,0.132,8.979,1.544,13.22,4.463c8.441,5.841,17.447,9.441,27.127,13.008
	c0.623,0.23,1.599,0.587,2.227,0.816c1.503,0.548,3.017,1.098,4.543,1.657c10.527,3.815,20.988,8.175,31.423,12.559
	c3.081,1.294,6.163,2.592,9.25,3.882c0.006,0.002,0.015,0.006,0.021,0.009s0.015,0.006,0.021,0.009
	c0.676,0.283,1.401,0.578,2.132,0.876c4.902,2.011,12.191,3.782,14.454,9.216c0.88,2.298,0.803,3.292,2.074,5.567
	c0.408,0.561,0.756,1.134,1.047,1.717c0.243,0.485,0.444,0.965,0.606,1.437c2.922,7.028-2.145,15.054-7.765,22.382
	c-2.783,3.605-5.629,6.951-7.425,9.865c-0.67,0.967-1.307,1.969-1.911,2.994c-0.798,1.343-1.665,2.871-2.275,4.197
	c-0.057,0.13-0.168,0.358-0.224,0.489c-0.065,0.15-0.2,0.41-0.264,0.561c-1.053,2.319-2.078,5.046-3.062,7.631
	c-0.515,1.352-1.03,2.695-1.559,4c-0.006,0.015-0.017,0.042-0.023,0.057c-0.006,0.015-0.017,0.042-0.023,0.057
	c-3.042,7.329-9.102,17.153-16.514,23.297c-2.965,2.231-5.683,4.382-8.244,6.521c-0.094,0.08-0.245,0.204-0.338,0.284
	c-0.093,0.08-0.245,0.202-0.337,0.282c-7.187,5.996-12.13,12.017-17.623,21.063c-0.079,0.117-0.2,0.302-0.281,0.417
	c-0.081,0.115-0.208,0.296-0.29,0.409c-2.323,3.224-5.197,5.78-7.561,8.552c-0.711,0.829-1.438,1.736-1.976,2.569
	c-0.001,0.001-0.002,0.003-0.003,0.004c-0.006,0.009-0.015,0.024-0.021,0.033c-2.168,3.364-4.415,7.02-6.272,10.373
	c-0.328,0.592-0.675,1.295-1.002,1.967c-0.863,1.705-1.491,3.438-2.118,5.164c-0.551,3.396-0.998,6.705-3.432,9.788
	c-0.502,0.689-1.201,1.311-1.981,1.918c-2.19,1.78-5.085,3.401-5.985,5.996c-0.919,2.763,0.145,6.08,1.866,8.072
	c0.432,0.476,0.894,0.888,1.371,1.214c1.108,0.814,2.387,1.385,3.738,1.838c4.835,1.29,10.685,1.916,12.951,7.086
	c0.006,0.011,0.013,0.03,0.019,0.042c0.006,0.011,0.013,0.03,0.019,0.042c0.087,0.199,0.169,0.405,0.245,0.618
	c0.847,2.4,0.451,5.764,0.082,8.182c-0.526,3.322-0.754,3.465,0.162,6.591c0.836,3.407-0.24,7.282,0.584,10.343
	c1,3.302,2.947,3.985,2.932,8.079c-0.354,5.917-5.542,8.9-11.1,10.855c-0.934,0.323-1.889,0.624-2.761,0.893
	c-3.119,0.963-6.229,1.686-8.725,2.429c-5.842,1.749-11.504,2.369-17.146,2.723c-1.413,0.088-2.815,0.16-4.225,0.23
	c-2.364,0.116-4.837,0.308-7.413,0.555c-5.237,0.443-10.274,1.901-15.503,2.941c-0.503,0.103-1.012,0.205-1.524,0.304
	c-2.006,0.397-4.105,0.741-6.285,0.928c-0.765,0.07-1.572,0.12-2.413,0.142c-2.313,0.073-5.09,0.196-8.052,0.094
	c-5.031-0.174-10.425-1.008-14.136-4.089c-0.555-0.468-0.998-0.998-1.369-1.57c-0.007-0.013-0.022-0.032-0.029-0.045
	c-0.007-0.013-0.021-0.032-0.028-0.045c-1.648-2.581-1.817-5.91-3.954-8.136c-0.676-0.714-1.392-1.314-2.13-1.845
	c-2.985-1.656-6.528-2.575-9.336-5.383c-3.109-3.109-4.886-6.155-5.585-10.451c-0.638-4.279,1.34-4.814,2.045-8.238
	c0.628-3.436-1.135-7.995-0.602-11.782c0.002-0.01,0.003-0.023,0.005-0.033c0.002-0.009,0.003-0.023,0.005-0.033
	c0.629-4.153,3.308-6.779,4.327-10.458c0.656-2.435,0.738-5.33,0.678-8.176c-0.242-2.927-0.623-5.942-0.594-8.488
	c0.006-1.361,0.031-2.783,0.094-4.241c0.001-0.023,0.003-0.058,0.004-0.081c0.001-0.023,0.003-0.058,0.004-0.081
	c0.282-5.511,1.11-11.157,2.99-15.889c0.36-1.152,0.776-2.296,1.268-3.348c0.726-1.566,1.608-3.042,2.689-4.375
	c0.71-0.851,1.593-1.888,2.553-2.78c0.896-0.814,1.853-1.516,2.793-1.836c0-0.003,0.085-0.007,0.085-0.01
	c1.354-0.464,8.382,2.028,9.795,1.432c0.001-0.006,0.128-0.012,0.129-0.018c1.87-1.187,5.294-5.703-0.309-9.551
	c-3.353-2.788-9.939-9.267-11.467-11.598c-0.333-0.371-0.736-0.742-1.182-1.117c-2.76-1.786-6.583-3.726-8.078-6.158
	c-3.014-4.877,0.318-14.01,2.27-18.483c2.485-5.338,5.497-9.809,9.682-10.586c0.466-0.087,0.948-0.138,1.449-0.129
	c0.014,0.003,0.033-0.004,0.047-0.001c0.014,0.003,0.033-0.003,0.047,0c0.538,0.008,1.104,0.06,1.696,0.158
	c0.196,0.038,0.477,0.244,0.717,0.195c0.001-0.002,0.045-0.005,0.047-0.007c2.806-1.323,3.446-5.033,4.596-8.012
	c0.27-0.72,0.565-1.393,0.926-1.974c1.802-2.89,3.389-5.77,5.243-8.354c0.196-0.362,0.397-0.726,0.605-1.087
	c0.799-1.383,1.699-2.745,2.771-4.033c1.072-1.285,3.18-2.288,4.137-3.76c2.186-4.678-1.17-7.011-2.176-10.812
	c-0.112-0.481-0.175-0.949-0.2-1.406c-0.509-3.525,1.491-6.968,1.338-10.782c-0.111-2.115-0.606-4.206-0.867-6.355
	c-0.077-0.637-0.139-1.268-0.171-1.894c-0.234-1.683-0.247-3.391,0.22-5.16c0.384-1.438,0.807-2.521,1.163-3.502
	c0.444-1.193,0.786-2.227,0.825-3.582c0.001-0.016,0-0.044,0.001-0.06c0.001-0.016,0-0.045,0.001-0.06
	c0.009-0.829-0.065-1.759-0.255-2.874c-0.844-5.672-0.156-11.205,0.001-16.326c0.215-4.294,2.424-5.547,4.947-6.665
	c1.601-0.922,3.472-1.908,5.172-3.789c2.523-2.826,3.121-5.564,5.481-7.823c0.752-0.726,1.679-1.409,2.907-2.034
	c4.336-2.221,7.941-3.549,13.222-3.949C177.6,61.737,178.022,61.729,178.488,61.723"/>
<path class="st1" d="M177.98,58.429c0.366,0,1.193-0.021,1.55-0.001l0,0c0.2,0.011,0.659,0.058,0.857,0.074
	c2.216,0.131,4.258,0.48,6.165,0.758c0.664,0.097,1.362,0.195,1.905,0.245c0.016,0.002,0.053,0.003,0.069,0.005
	c0.024,0.003,0.08,0.005,0.103,0.008c1.123,0.082,2.257,0.154,3.416,0.192c0.012,0.001,0.104,0.003,0.116,0.004
	c0.017,0.002,0.156,0.004,0.173,0.006c5.149,0.177,9.38,1.675,13.803,4.719c8.518,5.894,17.652,9.527,27.515,13.158
	c0.594,0.22,1.659,0.609,2.258,0.828c1.525,0.556,3.06,1.114,4.606,1.681c10.678,3.877,21.286,8.301,31.851,12.74
	c3.123,1.312,6.248,2.628,9.377,3.935c0.006,0.002,0.015,0.006,0.021,0.009c0.006,0.002,0.015,0.006,0.021,0.009
	c0.675,0.282,1.414,0.582,2.163,0.885c4.967,2.025,12.446,3.907,14.968,9.553c0.934,2.313,0.943,3.398,2.221,5.727
	c0.41,0.585,0.76,1.182,1.056,1.792c0.246,0.507,0.449,1.006,0.614,1.493c3.132,7.282-1.688,15.632-7.374,23.295
	c-2.806,3.753-5.73,7.22-7.639,10.237c-0.703,0.999-1.373,2.028-2.009,3.075c-0.844,1.379-1.797,2.982-2.415,4.304
	c-0.054,0.124-0.181,0.379-0.234,0.504c-0.062,0.144-0.218,0.432-0.279,0.577c-1.086,2.337-2.161,5.193-3.185,7.885
	c-0.531,1.394-1.064,2.784-1.612,4.137c-0.006,0.014-0.018,0.045-0.024,0.059c-0.006,0.014-0.018,0.045-0.024,0.059
	c-3,7.229-9.096,17.287-16.723,23.75c-2.974,2.286-5.73,4.49-8.351,6.668c-0.089,0.076-0.256,0.212-0.345,0.288
	c-0.089,0.076-0.257,0.209-0.345,0.285c-7.427,6.122-12.427,12.171-18.03,21.396c-0.075,0.112-0.207,0.315-0.284,0.424
	c-0.077,0.11-0.215,0.308-0.294,0.416c-2.372,3.308-5.281,5.92-7.67,8.705c-0.731,0.846-1.495,1.785-2.03,2.609
	c-0.001,0.001-0.002,0.003-0.003,0.004c-0.006,0.009-0.016,0.025-0.022,0.034c-2.23,3.459-4.507,7.171-6.372,10.546
	c-0.327,0.59-0.681,1.33-1.015,2.032c-0.854,1.718-1.492,3.482-2.143,5.251c-0.34,3.392-0.614,6.734-2.824,9.886
	c-0.448,0.714-1.087,1.367-1.808,2.007c-2.011,1.892-4.736,3.634-5.582,6.289c-0.86,2.85,0.138,6.206,1.763,8.244
	c0.423,0.493,0.873,0.925,1.336,1.273c1.08,0.88,2.313,1.519,3.61,2.032c4.758,1.417,10.513,2.307,12.728,7.669
	c0.006,0.011,0.013,0.032,0.018,0.043c0.006,0.011,0.012,0.032,0.018,0.043c0.085,0.204,0.165,0.415,0.239,0.632
	c0.825,2.464,0.441,5.845,0.062,8.317c-0.525,3.309-0.781,3.579,0.04,6.692c0.714,3.454-0.432,7.341,0.202,10.43
	c0.821,3.298,2.521,4.081,2.326,8.1c-0.709,5.875-6.064,8.83-11.663,10.776c-0.963,0.327-1.95,0.635-2.824,0.905
	c-3.181,0.986-6.348,1.724-8.924,2.469c-5.996,1.747-11.792,2.356-17.537,2.711c-1.448,0.089-2.88,0.161-4.321,0.233
	c-2.393,0.118-4.922,0.344-7.577,0.629c-5.284,0.494-10.445,1.975-15.845,2.984c-0.514,0.1-1.035,0.199-1.56,0.295
	c-2.035,0.386-4.187,0.722-6.43,0.9c-0.772,0.067-1.597,0.115-2.465,0.134c-2.348,0.065-5.187,0.166-8.224,0.029
	c-5.092-0.23-10.573-1.136-14.416-4.3c-0.567-0.474-1.027-1.009-1.417-1.586c-0.007-0.012-0.023-0.033-0.03-0.045
	s-0.023-0.033-0.03-0.045c-1.751-2.617-2.035-5.965-4.161-8.247c-0.678-0.742-1.39-1.374-2.117-1.937
	c-3.024-1.666-6.62-2.67-9.506-5.556c-3.121-3.121-4.946-6.191-5.719-10.462c-0.69-4.218,1.13-4.867,1.751-8.281
	c0.534-3.461-1.193-8.004-0.707-11.821c0.002-0.009,0.003-0.024,0.005-0.033c0.002-0.009,0.003-0.024,0.005-0.033
	c0.576-4.19,3.149-6.894,4.158-10.573c0.661-2.485,0.791-5.382,0.789-8.206c-0.244-2.918-0.619-5.944-0.58-8.54
	c0.011-1.369,0.042-2.799,0.117-4.266c0-0.022,0.004-0.059,0.004-0.081c0.001-0.022,0.004-0.059,0.004-0.082
	c0.335-5.612,1.27-11.257,3.168-15.942c0.34-1.16,0.73-2.323,1.194-3.381c0.685-1.581,1.518-3.081,2.543-4.449
	c0.673-0.879,1.513-1.936,2.43-2.856c0.855-0.834,1.769-1.566,2.666-1.938c0-0.004,0.081-0.009,0.081-0.013
	c1.294-0.618,8.008,1.552,9.379,0.758c0.001-0.008,0.123-0.016,0.123-0.024c1.805-1.327,5.106-5.844-0.188-9.726
	c-3.126-2.95-9.3-9.428-10.585-11.928c-0.3-0.381-0.668-0.763-1.075-1.147c-2.759-1.813-6.528-3.797-8.055-6.281
	c-3.139-5.079,0.008-14.264,1.938-18.964c2.433-5.486,5.462-10.092,9.581-11.123c0.464-0.116,0.94-0.201,1.436-0.226
	c0.013,0.003,0.034-0.007,0.047-0.004c0.013,0.003,0.034-0.007,0.047-0.004c0.534-0.029,1.095-0.02,1.686,0.031
	c0.197,0.019,0.476,0.197,0.716,0.132c0.002-0.003,0.044-0.006,0.046-0.01c2.778-1.43,3.524-5.168,4.796-8.187
	c0.296-0.726,0.616-1.404,0.998-1.992c1.925-2.937,3.649-5.8,5.617-8.336c0.199-0.372,0.404-0.745,0.615-1.117
	c0.806-1.413,1.714-2.818,2.797-4.16c1.078-1.329,3.153-2.395,4.14-3.909c2.019-4.797-1.144-7.316-2.054-11.152
	c-0.098-0.494-0.149-0.975-0.164-1.441c-0.533-3.55,1.32-7.104,1.202-11.065c-0.094-2.16-0.538-4.308-0.733-6.518
	c-0.058-0.655-0.101-1.3-0.116-1.937c-0.241-1.734-0.263-3.488,0.175-5.294c0.361-1.464,0.761-2.586,1.097-3.606
	c0.42-1.233,0.742-2.311,0.773-3.685c0.001-0.015,0-0.047,0.001-0.062c0.001-0.015,0-0.048,0.001-0.063
	c0.004-0.862-0.068-1.819-0.248-2.948c-0.789-5.931,0.08-11.564,0.418-16.664c0.382-4.298,2.687-5.616,5.247-6.761
	c1.587-0.992,3.457-2.073,5.204-4.011c2.542-2.85,3.293-5.618,5.791-7.903c0.793-0.732,1.755-1.423,3.008-2.056
	c4.406-2.241,8.156-3.612,13.597-4.033C177.068,58.446,177.502,58.437,177.98,58.429"/>
<path class="st1" d="M177.472,55.134c0.349,0,1.275-0.03,1.614-0.011l0,0c0.191,0.011,0.705,0.065,0.893,0.081
	c2.337,0.128,4.475,0.49,6.433,0.776c0.701,0.103,1.443,0.209,1.991,0.255c0.015,0.002,0.057,0.003,0.072,0.005
	c0.023,0.002,0.086,0.005,0.108,0.007c1.175,0.078,2.359,0.153,3.565,0.199c0.015,0.002,0.106,0.003,0.12,0.005
	c0.022,0.002,0.159,0.005,0.181,0.008c5.344,0.221,9.781,1.805,14.386,4.975c8.595,5.947,17.857,9.612,27.902,13.307
	c0.566,0.209,1.719,0.631,2.29,0.839c1.547,0.563,3.103,1.13,4.67,1.705c10.83,3.939,21.584,8.426,32.279,12.92
	c3.165,1.33,6.333,2.664,9.505,3.988c0.005,0.002,0.016,0.007,0.021,0.009c0.005,0.002,0.016,0.007,0.021,0.009
	c0.674,0.282,1.428,0.585,2.194,0.893c5.033,2.04,12.702,4.031,15.481,9.889c0.987,2.327,1.083,3.503,2.368,5.886
	c0.411,0.608,0.765,1.231,1.064,1.868c0.249,0.529,0.454,1.047,0.621,1.548c3.341,7.537-1.231,16.21-6.983,24.208
	c-2.829,3.9-5.83,7.489-7.853,10.61c-0.736,1.032-1.44,2.088-2.106,3.156c-0.891,1.414-1.928,3.093-2.556,4.412
	c-0.051,0.118-0.194,0.4-0.245,0.519c-0.059,0.137-0.236,0.455-0.294,0.592c-1.119,2.355-2.243,5.34-3.308,8.138
	c-0.547,1.437-1.097,2.873-1.666,4.274c-0.005,0.014-0.019,0.048-0.025,0.061c-0.006,0.014-0.019,0.047-0.025,0.061
	c-2.959,7.128-9.09,17.421-16.932,24.204c-2.983,2.341-5.776,4.598-8.458,6.815c-0.085,0.072-0.267,0.219-0.351,0.292
	c-0.084,0.073-0.268,0.215-0.352,0.288c-7.667,6.248-12.725,12.325-18.436,21.729c-0.071,0.107-0.214,0.327-0.287,0.432
	c-0.073,0.105-0.223,0.32-0.298,0.423c-2.421,3.392-5.364,6.06-7.778,8.857c-0.75,0.862-1.552,1.833-2.083,2.649
	c-0.001,0.001-0.002,0.003-0.003,0.004c-0.005,0.008-0.017,0.026-0.022,0.034c-2.291,3.554-4.599,7.323-6.472,10.718
	c-0.325,0.588-0.687,1.364-1.027,2.097c-0.846,1.73-1.493,3.525-2.169,5.338c-0.13,3.387-0.231,6.762-2.216,9.983
	c-0.395,0.74-0.974,1.423-1.634,2.095c-1.832,2.004-4.388,3.867-5.179,6.582c-0.802,2.937,0.132,6.332,1.661,8.417
	c0.414,0.511,0.852,0.962,1.301,1.332c1.051,0.945,2.238,1.652,3.481,2.225c4.681,1.543,10.341,2.698,12.506,8.252
	c0.005,0.01,0.012,0.033,0.018,0.044c0.005,0.01,0.012,0.033,0.018,0.044c0.083,0.209,0.16,0.424,0.232,0.646
	c0.803,2.528,0.431,5.926,0.041,8.453c-0.524,3.296-0.809,3.694-0.082,6.793c0.593,3.502-0.623,7.401-0.179,10.518
	c0.642,3.295,2.095,4.177,1.719,8.121c-1.064,5.833-6.586,8.761-12.226,10.697c-0.993,0.332-2.011,0.646-2.887,0.918
	c-3.243,1.009-6.468,1.762-9.122,2.509c-6.15,1.745-12.081,2.344-17.928,2.698c-1.483,0.089-2.945,0.163-4.417,0.237
	c-2.421,0.121-5.008,0.38-7.742,0.703c-5.33,0.545-10.617,2.048-16.187,3.027c-0.525,0.097-1.058,0.193-1.597,0.287
	c-2.063,0.374-4.269,0.702-6.575,0.872c-0.779,0.063-1.622,0.109-2.517,0.125c-2.383,0.058-5.284,0.136-8.396-0.036
	c-5.153-0.285-10.72-1.264-14.696-4.511c-0.579-0.48-1.055-1.02-1.465-1.602c-0.006-0.012-0.025-0.034-0.032-0.045
	s-0.025-0.034-0.031-0.045c-1.853-2.653-2.252-6.019-4.367-8.359c-0.681-0.771-1.388-1.435-2.104-2.03
	c-3.063-1.676-6.713-2.765-9.677-5.729c-3.134-3.134-5.007-6.226-5.853-10.474c-0.743-4.156,0.921-4.92,1.456-8.323
	c0.439-3.486-1.252-8.014-0.812-11.861c0.002-0.009,0.003-0.024,0.004-0.033c0.002-0.009,0.003-0.024,0.004-0.033
	c0.523-4.228,2.99-7.009,3.988-10.688c0.665-2.535,0.845-5.434,0.899-8.237c-0.247-2.908-0.615-5.946-0.566-8.592
	c0.015-1.376,0.054-2.814,0.139-4.291c0-0.021,0.004-0.061,0.005-0.082c0-0.021,0.004-0.061,0.005-0.082
	c0.389-5.714,1.429-11.358,3.345-15.995c0.319-1.168,0.683-2.35,1.12-3.415c0.644-1.595,1.428-3.12,2.398-4.524
	c0.637-0.906,1.434-1.984,2.307-2.932c0.814-0.853,1.684-1.616,2.539-2.041c0-0.005,0.077-0.011,0.077-0.016
	c1.233-0.773,7.633,1.076,8.964,0.083c0.001-0.01,0.117-0.02,0.118-0.03c1.74-1.467,4.919-5.985-0.067-9.902
	c-2.9-3.111-8.661-9.589-9.703-12.258c-0.268-0.391-0.6-0.783-0.968-1.177c-2.757-1.84-6.472-3.868-8.032-6.404
	c-3.263-5.28-0.302-14.518,1.607-19.445c2.381-5.633,5.428-10.38,9.48-11.66c0.462-0.146,0.933-0.265,1.422-0.322
	c0.013,0.003,0.034-0.01,0.047-0.008c0.013,0.003,0.034-0.01,0.047-0.007c0.529-0.067,1.087-0.1,1.676-0.096
	c0.198-0.001,0.475,0.15,0.715,0.069c0.002-0.004,0.043-0.008,0.046-0.012c2.751-1.537,3.601-5.302,4.995-8.361
	c0.321-0.731,0.666-1.415,1.071-2.01c2.048-2.984,3.91-5.83,5.991-8.318c0.202-0.381,0.41-0.764,0.625-1.148
	c0.813-1.443,1.729-2.892,2.822-4.286c1.083-1.373,3.125-2.502,4.143-4.059c1.851-4.917-1.118-7.62-1.931-11.492
	c-0.085-0.508-0.124-1-0.129-1.476c-0.557-3.575,1.149-7.241,1.066-11.348c-0.077-2.205-0.469-4.41-0.6-6.681
	c-0.039-0.673-0.063-1.333-0.061-1.981c-0.247-1.786-0.28-3.585,0.13-5.429c0.338-1.49,0.715-2.651,1.031-3.711
	c0.396-1.274,0.699-2.394,0.722-3.789c0.001-0.014,0-0.05,0-0.065c0.001-0.014,0-0.05,0-0.065c-0.001-0.896-0.071-1.878-0.24-3.023
	c-0.735-6.189,0.316-11.923,0.834-17.002c0.549-4.302,2.95-5.686,5.547-6.856c1.573-1.063,3.442-2.238,5.237-4.232
	c2.562-2.873,3.466-5.672,6.101-7.982c0.834-0.738,1.831-1.436,3.11-2.079c4.475-2.262,8.371-3.676,13.973-4.117
	C176.535,55.156,176.983,55.144,177.472,55.134"/>
<path class="st1" d="M176.964,51.839c0.332,0,1.357-0.039,1.679-0.02l0,0c0.181,0.01,0.751,0.072,0.93,0.087
	c2.458,0.125,4.692,0.499,6.702,0.795c0.738,0.109,1.525,0.222,2.076,0.266c0.014,0.002,0.061,0.003,0.075,0.005
	c0.021,0.002,0.091,0.005,0.113,0.007c1.227,0.074,2.461,0.151,3.714,0.207c0.017,0.002,0.108,0.004,0.125,0.006
	c0.026,0.003,0.162,0.006,0.188,0.009c5.539,0.265,10.182,1.936,14.969,5.231c8.672,6,18.062,9.697,28.29,13.457
	c0.538,0.199,1.779,0.652,2.322,0.85c1.569,0.571,3.146,1.145,4.733,1.729c10.981,4.001,21.882,8.552,32.707,13.1
	c3.208,1.348,6.417,2.699,9.632,4.041c0.005,0.002,0.016,0.007,0.021,0.009s0.016,0.007,0.021,0.009
	c0.673,0.281,1.441,0.589,2.224,0.902c5.099,2.054,12.957,4.156,15.995,10.225c1.041,2.341,1.222,3.609,2.516,6.046
	c0.413,0.632,0.769,1.279,1.072,1.943c0.252,0.551,0.46,1.087,0.628,1.604c3.551,7.792-0.774,16.788-6.592,25.121
	c-2.853,4.048-5.931,7.759-8.067,10.982c-0.769,1.064-1.506,2.147-2.203,3.237c-0.937,1.449-2.06,3.204-2.696,4.52
	c-0.049,0.112-0.207,0.421-0.256,0.534c-0.056,0.13-0.254,0.477-0.309,0.608c-1.153,2.372-2.326,5.488-3.431,8.391
	c-0.563,1.479-1.131,2.961-1.719,4.411c-0.005,0.013-0.02,0.05-0.026,0.063c-0.005,0.013-0.021,0.05-0.026,0.063
	c-2.917,7.027-9.084,17.554-17.141,24.658c-2.993,2.396-5.822,4.706-8.565,6.961c-0.081,0.069-0.278,0.227-0.358,0.296
	c-0.08,0.069-0.28,0.222-0.359,0.291c-7.907,6.374-13.022,12.479-18.842,22.063c-0.068,0.101-0.221,0.339-0.29,0.439
	c-0.07,0.099-0.23,0.332-0.302,0.43c-2.47,3.477-5.448,6.2-7.887,9.009c-0.77,0.878-1.61,1.882-2.137,2.69
	c-0.001,0.001-0.002,0.003-0.003,0.004c-0.005,0.008-0.017,0.027-0.022,0.035c-2.352,3.649-4.692,7.474-6.572,10.891
	c-0.323,0.586-0.694,1.399-1.039,2.162c-0.838,1.742-1.493,3.569-2.194,5.425c0.08,3.383,0.153,6.791-1.608,10.08
	c-0.341,0.765-0.861,1.478-1.46,2.183c-1.652,2.117-4.04,4.1-4.776,6.876c-0.744,3.025,0.125,6.459,1.558,8.589
	c0.405,0.528,0.831,0.999,1.266,1.391c1.022,1.01,2.163,1.785,3.352,2.419c4.605,1.67,10.17,3.089,12.283,8.835
	c0.005,0.01,0.012,0.035,0.017,0.045c0.005,0.01,0.012,0.035,0.017,0.045c0.08,0.214,0.156,0.434,0.225,0.66
	c0.782,2.593,0.422,6.007,0.021,8.588c-0.524,3.284-0.836,3.809-0.204,6.894c0.472,3.549-0.815,7.46-0.561,10.605
	c0.464,3.291,1.67,4.274,1.113,8.141c-1.42,5.79-7.108,8.691-12.789,10.618c-1.022,0.337-2.071,0.658-2.95,0.931
	c-3.305,1.031-6.587,1.8-9.32,2.549c-6.304,1.743-12.369,2.331-18.318,2.686c-1.518,0.09-3.011,0.164-4.513,0.241
	c-2.449,0.123-5.093,0.416-7.906,0.777c-5.377,0.596-10.789,2.122-16.529,3.07c-0.536,0.094-1.081,0.187-1.633,0.278
	c-2.091,0.362-4.35,0.683-6.72,0.844c-0.786,0.06-1.646,0.104-2.569,0.117c-2.418,0.05-5.38,0.107-8.568-0.101
	c-5.214-0.34-10.867-1.392-14.976-4.722c-0.591-0.486-1.084-1.032-1.513-1.619c-0.006-0.011-0.027-0.035-0.033-0.046
	c-0.006-0.011-0.027-0.035-0.033-0.046c-1.956-2.689-2.47-6.073-4.574-8.471c-0.683-0.799-1.385-1.495-2.092-2.122
	c-3.102-1.685-6.806-2.86-9.847-5.902c-3.146-3.146-5.068-6.262-5.987-10.486c-0.795-4.095,0.711-4.973,1.162-8.365
	c0.344-3.511-1.31-8.023-0.917-11.9c0.002-0.008,0.002-0.025,0.004-0.033c0.002-0.008,0.002-0.025,0.004-0.033
	c0.47-4.265,2.831-7.124,3.819-10.804c0.67-2.584,0.899-5.487,1.009-8.267c-0.25-2.898-0.611-5.948-0.552-8.644
	c0.019-1.384,0.066-2.83,0.162-4.315c0-0.02,0.005-0.062,0.005-0.082c0-0.02,0.005-0.062,0.006-0.082
	c0.442-5.816,1.589-11.458,3.523-16.047c0.298-1.176,0.637-2.376,1.046-3.449c0.602-1.609,1.337-3.159,2.252-4.598
	c0.601-0.933,1.355-2.032,2.184-3.008c0.773-0.873,1.599-1.666,2.411-2.144c0-0.007,0.073-0.013,0.073-0.02
	c1.173-0.927,7.259,0.6,8.549-0.592c0.001-0.012,0.112-0.024,0.113-0.035c1.675-1.607,4.732-6.126,0.054-10.077
	c-2.674-3.273-8.022-9.75-8.822-12.589c-0.236-0.402-0.531-0.803-0.862-1.207c-2.755-1.867-6.417-3.938-8.009-6.528
	c-3.388-5.482-0.613-14.772,1.275-19.926c2.329-5.781,5.394-10.67,9.379-12.197c0.46-0.176,0.925-0.328,1.409-0.418
	c0.012,0.003,0.034-0.014,0.047-0.011c0.012,0.003,0.034-0.013,0.047-0.011c0.525-0.104,1.079-0.18,1.665-0.224
	c0.2-0.02,0.474,0.103,0.715,0.006c0.003-0.005,0.042-0.01,0.045-0.014c2.723-1.645,3.679-5.437,5.195-8.536
	c0.347-0.737,0.717-1.425,1.143-2.028c2.171-3.032,4.17-5.859,6.365-8.3c0.205-0.39,0.417-0.784,0.635-1.178
	c0.82-1.473,1.744-2.965,2.848-4.413c1.088-1.417,3.097-2.609,4.146-4.208c1.684-5.036-1.092-7.925-1.808-11.832
	c-0.071-0.522-0.098-1.026-0.093-1.512c-0.58-3.6,0.979-7.377,0.93-11.632c-0.059-2.25-0.401-4.512-0.467-6.844
	c-0.02-0.691-0.025-1.366-0.006-2.025c-0.254-1.837-0.296-3.682,0.086-5.563c0.315-1.516,0.669-2.716,0.966-3.816
	c0.372-1.315,0.655-2.477,0.671-3.892c0.001-0.013-0.001-0.053,0-0.067c0.001-0.013-0.001-0.053,0-0.067
	c-0.007-0.929-0.074-1.938-0.232-3.097c-0.68-6.448,0.552-12.282,1.25-17.339c0.716-4.306,3.213-5.755,5.847-6.951
	c1.559-1.133,3.427-2.403,5.27-4.454c2.581-2.897,3.639-5.726,6.412-8.061c0.874-0.744,1.907-1.45,3.211-2.101
	c4.544-2.282,8.586-3.739,14.348-4.202C176.003,51.865,176.464,51.851,176.964,51.839"/>
<path class="st1" d="M176.455,48.544c0.314,0,1.439-0.047,1.744-0.03l0,0c0.172,0.01,0.797,0.079,0.966,0.093
	c2.579,0.121,4.909,0.509,6.971,0.813c0.775,0.115,1.606,0.235,2.161,0.277c0.014,0.002,0.065,0.003,0.078,0.004
	c0.02,0.002,0.097,0.004,0.117,0.007c1.28,0.07,2.563,0.149,3.863,0.215c0.02,0.002,0.11,0.005,0.13,0.007
	c0.031,0.003,0.165,0.007,0.195,0.011c5.734,0.309,10.583,2.067,15.551,5.486c8.749,6.054,18.267,9.782,28.677,13.607
	c0.509,0.188,1.84,0.674,2.353,0.862c1.591,0.578,3.189,1.161,4.797,1.753c11.132,4.064,22.181,8.678,33.135,13.281
	c3.25,1.366,6.502,2.735,9.759,4.094c0.005,0.002,0.017,0.007,0.022,0.009c0.005,0.002,0.017,0.007,0.022,0.009
	c0.671,0.281,1.455,0.592,2.255,0.91c5.165,2.068,13.213,4.281,16.509,10.561c1.094,2.355,1.362,3.714,2.663,6.206
	c0.415,0.655,0.774,1.328,1.08,2.018c0.255,0.573,0.465,1.128,0.635,1.66c3.761,8.046-0.317,17.366-6.202,26.034
	c-2.876,4.195-6.031,8.028-8.281,11.354c-0.802,1.097-1.572,2.206-2.301,3.319c-0.983,1.485-2.191,3.314-2.837,4.627
	c-0.046,0.106-0.22,0.442-0.266,0.549c-0.053,0.123-0.272,0.5-0.324,0.624c-1.186,2.39-2.409,5.635-3.554,8.644
	c-0.579,1.522-1.164,3.05-1.772,4.548c-0.005,0.012-0.022,0.053-0.027,0.065c-0.005,0.012-0.022,0.053-0.027,0.065
	c-2.875,6.926-9.078,17.688-17.349,25.111c-3.002,2.451-5.868,4.815-8.672,7.108c-0.077,0.065-0.289,0.234-0.365,0.3
	c-0.076,0.065-0.291,0.229-0.367,0.294c-8.146,6.5-13.319,12.632-19.249,22.396c-0.064,0.096-0.227,0.352-0.293,0.446
	c-0.066,0.094-0.238,0.344-0.306,0.437c-2.519,3.561-5.532,6.34-7.996,9.161c-0.789,0.895-1.667,1.931-2.191,2.73
	c-0.001,0.001-0.002,0.003-0.003,0.004c-0.005,0.007-0.018,0.028-0.023,0.035c-2.413,3.744-4.784,7.625-6.672,11.063
	c-0.321,0.584-0.7,1.434-1.051,2.227c-0.829,1.754-1.494,3.612-2.22,5.512c0.29,3.379,0.537,6.82-1,10.178
	c-0.287,0.791-0.748,1.534-1.287,2.272c-1.473,2.229-3.692,4.333-4.373,7.169c-0.685,3.112,0.118,6.585,1.456,8.761
	c0.396,0.546,0.811,1.035,1.232,1.45c0.993,1.075,2.088,1.918,3.224,2.612c4.528,1.797,9.998,3.48,12.061,9.418
	c0.005,0.009,0.012,0.036,0.017,0.046c0.005,0.009,0.012,0.036,0.017,0.046c0.078,0.219,0.151,0.444,0.219,0.674
	c0.76,2.657,0.412,6.088,0,8.724c-0.523,3.271-0.864,3.924-0.325,6.995c0.35,3.597-1.007,7.519-0.942,10.693
	c0.285,3.288,1.244,4.37,0.506,8.162c-1.775,5.748-7.63,8.622-13.352,10.539c-1.052,0.342-2.132,0.669-3.013,0.943
	c-3.367,1.054-6.706,1.838-9.519,2.589c-6.458,1.741-12.657,2.319-18.709,2.673c-1.553,0.09-3.076,0.166-4.609,0.244
	c-2.477,0.126-5.178,0.452-8.07,0.851c-5.424,0.648-10.961,2.195-16.871,3.113c-0.547,0.09-1.104,0.181-1.67,0.27
	c-2.12,0.35-4.432,0.663-6.865,0.816c-0.793,0.057-1.671,0.098-2.621,0.108c-2.453,0.043-5.477,0.078-8.74-0.166
	c-5.275-0.394-11.014-1.52-15.256-4.933c-0.603-0.493-1.113-1.043-1.561-1.635c-0.006-0.01-0.029-0.035-0.035-0.046
	c-0.006-0.01-0.029-0.036-0.034-0.046c-2.058-2.725-2.687-6.128-4.78-8.583c-0.686-0.828-1.383-1.556-2.079-2.214
	c-3.141-1.695-6.898-2.955-10.018-6.075c-3.159-3.159-5.128-6.298-6.12-10.497c-0.848-4.033,0.502-5.026,0.868-8.407
	c0.25-3.536-1.368-8.032-1.021-11.939c0.001-0.008,0.002-0.025,0.003-0.033c0.001-0.008,0.002-0.025,0.003-0.033
	c0.417-4.302,2.672-7.239,3.65-10.919c0.674-2.634,0.952-5.539,1.119-8.298c-0.253-2.888-0.607-5.949-0.538-8.695
	c0.024-1.392,0.078-2.846,0.184-4.34c0-0.019,0.006-0.064,0.006-0.083c0-0.019,0.006-0.064,0.006-0.083
	c0.496-5.917,1.748-11.559,3.7-16.1c0.278-1.184,0.59-2.403,0.972-3.482c0.561-1.623,1.247-3.199,2.107-4.672
	c0.564-0.961,1.276-2.08,2.061-3.084c0.732-0.893,1.514-1.716,2.284-2.246c0-0.008,0.069-0.015,0.069-0.023
	c1.112-1.082,6.885,0.124,8.134-1.266c0.001-0.014,0.107-0.028,0.108-0.041c1.61-1.746,4.544-6.267,0.175-10.253
	c-2.447-3.434-7.383-9.911-7.94-12.919c-0.204-0.412-0.463-0.824-0.755-1.237c-2.753-1.894-6.361-4.009-7.986-6.651
	c-3.512-5.684-0.923-15.026,0.944-20.407c2.277-5.928,5.36-10.964,9.278-12.734c0.458-0.207,0.917-0.392,1.396-0.515
	c0.012,0.002,0.035-0.017,0.046-0.015c0.012,0.002,0.035-0.017,0.046-0.014c0.52-0.141,1.071-0.26,1.655-0.351
	c0.201-0.04,0.473,0.057,0.714-0.057c0.003-0.006,0.041-0.011,0.045-0.017c2.696-1.752,3.757-5.572,5.395-8.711
	c0.373-0.742,0.767-1.436,1.216-2.045c2.294-3.079,4.431-5.889,6.739-8.282c0.209-0.399,0.423-0.803,0.644-1.208
	c0.827-1.503,1.759-3.038,2.873-4.54c1.094-1.461,3.069-2.715,4.149-4.357c1.516-5.156-1.066-8.23-1.686-12.172
	c-0.057-0.536-0.072-1.051-0.057-1.547c-0.604-3.625,0.808-7.514,0.794-11.915c-0.042-2.296-0.333-4.613-0.334-7.007
	c-0.001-0.709,0.013-1.398,0.049-2.069c-0.261-1.889-0.312-3.779,0.041-5.698c0.292-1.542,0.623-2.781,0.9-3.921
	c0.347-1.356,0.612-2.561,0.62-3.995c0.001-0.013-0.001-0.056-0.001-0.069c0.001-0.013-0.001-0.056-0.001-0.069
	c-0.012-0.963-0.077-1.997-0.224-3.172c-0.625-6.706,0.788-12.641,1.667-17.677c0.883-4.311,3.475-5.825,6.147-7.047
	c1.544-1.204,3.412-2.568,5.303-4.675c2.6-2.921,3.811-5.78,6.722-8.14c0.915-0.751,1.982-1.464,3.313-2.124
	c4.614-2.302,8.8-3.802,14.723-4.286C175.471,48.575,175.944,48.558,176.455,48.544"/>
<path class="st1" d="M175.947,45.249c0.297,0,1.52-0.056,1.809-0.04l0,0c0.162,0.009,0.843,0.085,1.003,0.099
	c2.7,0.118,5.125,0.518,7.24,0.831c0.812,0.121,1.687,0.248,2.246,0.287c0.013,0.001,0.069,0.003,0.081,0.004
	c0.019,0.002,0.103,0.004,0.122,0.006c1.332,0.066,2.665,0.147,4.012,0.222c0.023,0.003,0.112,0.005,0.135,0.008
	c0.035,0.004,0.168,0.008,0.203,0.012c5.929,0.353,10.984,2.198,16.134,5.742c8.825,6.107,18.472,9.867,29.065,13.756
	c0.481,0.178,1.9,0.696,2.385,0.873c1.612,0.586,3.233,1.177,4.86,1.777c11.284,4.126,22.479,8.803,33.563,13.461
	c3.292,1.383,6.587,2.77,9.886,4.147c0.004,0.002,0.018,0.007,0.022,0.009c0.004,0.002,0.018,0.007,0.022,0.009
	c0.67,0.28,1.468,0.596,2.286,0.918c5.231,2.082,13.468,4.405,17.023,10.897c1.148,2.369,1.502,3.82,2.81,6.365
	c0.417,0.679,0.779,1.377,1.088,2.094c0.258,0.595,0.47,1.169,0.643,1.715c3.97,8.301,0.14,17.944-5.811,26.947
	c-2.899,4.342-6.132,8.297-8.495,11.727c-0.835,1.129-1.638,2.266-2.398,3.4c-1.03,1.52-2.323,3.425-2.978,4.735
	c-0.044,0.1-0.234,0.463-0.277,0.564c-0.05,0.116-0.29,0.522-0.339,0.639c-1.219,2.408-2.492,5.782-3.677,8.897
	c-0.595,1.564-1.198,3.139-1.825,4.685c-0.005,0.012-0.023,0.056-0.027,0.067c-0.005,0.012-0.023,0.056-0.028,0.067
	c-2.833,6.825-9.072,17.822-17.558,25.565c-3.011,2.506-5.915,4.923-8.78,7.255c-0.072,0.062-0.299,0.242-0.371,0.304
	s-0.303,0.236-0.374,0.298c-8.386,6.626-13.616,12.786-19.655,22.73c-0.061,0.091-0.234,0.364-0.296,0.453
	c-0.062,0.089-0.246,0.356-0.31,0.443c-2.568,3.645-5.615,6.48-8.105,9.313c-0.809,0.911-1.724,1.98-2.244,2.77
	c-0.001,0.001-0.002,0.004-0.003,0.004c-0.005,0.007-0.019,0.029-0.023,0.036c-2.474,3.839-4.876,7.776-6.772,11.235
	c-0.32,0.582-0.706,1.469-1.063,2.292c-0.821,1.767-1.495,3.656-2.245,5.599c0.5,3.375,0.921,6.848-0.392,10.275
	c-0.234,0.816-0.634,1.59-1.113,2.36c-1.294,2.341-3.344,4.566-3.97,7.462c-0.627,3.2,0.112,6.711,1.353,8.933
	c0.387,0.563,0.79,1.072,1.197,1.509c0.965,1.14,2.013,2.051,3.095,2.806c4.451,1.924,9.827,3.871,11.839,10.002
	c0.005,0.009,0.012,0.038,0.016,0.047c0.005,0.009,0.012,0.038,0.016,0.047c0.076,0.224,0.147,0.453,0.212,0.688
	c0.738,2.721,0.402,6.17-0.02,8.859c-0.522,3.258-0.891,4.039-0.447,7.097c0.229,3.644-1.199,7.579-1.323,10.78
	c0.106,3.284,0.818,4.466-0.1,8.183c-2.131,5.706-8.152,8.552-13.915,10.459c-1.081,0.346-2.192,0.68-3.077,0.956
	c-3.43,1.077-6.825,1.876-9.717,2.629c-6.612,1.739-12.946,2.306-19.1,2.661c-1.589,0.09-3.141,0.167-4.705,0.248
	c-2.506,0.128-5.263,0.489-8.234,0.925c-5.47,0.699-11.133,2.269-17.213,3.156c-0.558,0.087-1.127,0.176-1.706,0.261
	c-2.148,0.339-4.514,0.644-7.01,0.788c-0.8,0.054-1.696,0.093-2.673,0.1c-2.488,0.035-5.574,0.05-8.912-0.23
	c-5.336-0.448-11.161-1.648-15.536-5.144c-0.615-0.499-1.141-1.055-1.609-1.651c-0.006-0.01-0.031-0.036-0.036-0.046
	c-0.005-0.01-0.03-0.037-0.036-0.047c-2.161-2.761-2.905-6.182-4.987-8.694c-0.688-0.856-1.38-1.616-2.067-2.307
	c-3.18-1.705-6.991-3.05-10.188-6.247c-3.171-3.171-5.189-6.333-6.254-10.509c-0.9-3.972,0.292-5.079,0.573-8.449
	c0.155-3.561-1.427-8.041-1.126-11.978c0.001-0.007,0.002-0.026,0.003-0.033c0.001-0.007,0.002-0.026,0.003-0.033
	c0.364-4.34,2.513-7.353,3.48-11.035c0.679-2.684,1.006-5.591,1.23-8.328c-0.256-2.878-0.602-5.951-0.524-8.747
	c0.028-1.4,0.09-2.862,0.207-4.365c0-0.018,0.006-0.065,0.007-0.083c0-0.018,0.006-0.065,0.007-0.083
	c0.549-6.019,1.908-11.659,3.878-16.153c0.257-1.192,0.544-2.43,0.897-3.516c0.52-1.637,1.157-3.238,1.961-4.747
	c0.528-0.988,1.197-2.128,1.938-3.16c0.691-0.912,1.429-1.766,2.157-2.349c0-0.009,0.065-0.017,0.065-0.026
	c1.052-1.237,6.511-0.353,7.719-1.941c0.002-0.016,0.101-0.032,0.103-0.047c1.546-1.886,4.357-6.407,0.296-10.428
	c-2.221-3.596-6.743-10.072-7.058-13.249c-0.172-0.422-0.395-0.844-0.648-1.267c-2.751-1.922-6.306-4.08-7.964-6.774
	c-3.637-5.886-1.233-15.28,0.613-20.887c2.225-6.076,5.326-11.262,9.178-13.271c0.456-0.238,0.91-0.456,1.383-0.611
	c0.011,0.002,0.035-0.02,0.046-0.018c0.011,0.002,0.035-0.02,0.046-0.018c0.515-0.178,1.063-0.34,1.645-0.478
	c0.202-0.059,0.472,0.01,0.713-0.12c0.004-0.006,0.04-0.013,0.044-0.019c2.668-1.859,3.835-5.706,5.595-8.886
	c0.398-0.748,0.818-1.447,1.288-2.063c2.417-3.127,4.691-5.919,7.113-8.264c0.212-0.408,0.43-0.822,0.654-1.239
	c0.834-1.533,1.775-3.112,2.898-4.666c1.099-1.505,3.041-2.822,4.152-4.507c1.349-5.275-1.04-8.535-1.563-12.511
	c-0.043-0.549-0.047-1.077-0.022-1.582c-0.627-3.65,0.637-7.65,0.658-12.198c-0.025-2.341-0.264-4.715-0.2-7.171
	c0.019-0.727,0.051-1.431,0.104-2.112c-0.267-1.94-0.329-3.876-0.004-5.832c0.269-1.568,0.577-2.846,0.834-4.026
	c0.323-1.396,0.568-2.644,0.568-4.098c0.001-0.012-0.002-0.059-0.001-0.071c0-0.012-0.001-0.059-0.001-0.072
	c-0.017-0.996-0.079-2.057-0.216-3.247c-0.571-6.965,1.024-13,2.083-18.015c1.049-4.315,3.738-5.894,6.447-7.142
	c1.53-1.274,3.398-2.734,5.336-4.897c2.619-2.944,3.984-5.835,7.032-8.22c0.955-0.757,2.058-1.478,3.414-2.146
	c4.683-2.322,9.015-3.865,15.098-4.37C174.939,45.284,175.425,45.265,175.947,45.249"/>
<path class="st1" d="M175.439,41.954c0.279,0,1.602-0.065,1.874-0.049l0,0c0.153,0.009,0.889,0.092,1.039,0.105
	c2.821,0.115,5.342,0.528,7.508,0.849c0.848,0.127,1.768,0.261,2.331,0.298c0.012,0.001,0.073,0.003,0.085,0.004
	c0.018,0.002,0.109,0.004,0.127,0.006c1.384,0.062,2.767,0.145,4.161,0.23c0.026,0.003,0.114,0.006,0.14,0.009
	c0.039,0.004,0.171,0.009,0.21,0.014c6.124,0.397,11.385,2.328,16.717,5.998c8.902,6.16,18.677,9.952,29.452,13.906
	c0.453,0.167,1.96,0.717,2.417,0.884c1.634,0.593,3.276,1.192,4.924,1.801c11.435,4.188,22.777,8.929,33.991,13.642
	c3.335,1.401,6.672,2.806,10.013,4.2c0.004,0.002,0.018,0.008,0.022,0.009c0.004,0.002,0.018,0.008,0.022,0.009
	c0.669,0.28,1.482,0.599,2.316,0.927c5.297,2.097,13.724,4.53,17.537,11.233c1.201,2.383,1.641,3.925,2.957,6.525
	c0.418,0.702,0.783,1.425,1.096,2.169c0.261,0.617,0.475,1.21,0.65,1.771c4.18,8.556,0.597,18.522-5.42,27.86
	c-2.923,4.49-6.232,8.567-8.709,12.099c-0.868,1.162-1.704,2.325-2.495,3.481c-1.076,1.555-2.454,3.536-3.118,4.843
	c-0.041,0.094-0.247,0.484-0.287,0.579c-0.047,0.109-0.307,0.545-0.354,0.655c-1.252,2.426-2.575,5.929-3.8,9.151
	c-0.611,1.607-1.231,3.228-1.878,4.823c-0.004,0.011-0.024,0.059-0.028,0.069c-0.004,0.011-0.024,0.058-0.028,0.069
	c-2.791,6.724-9.066,17.955-17.767,26.018c-3.021,2.561-5.961,5.031-8.887,7.402c-0.068,0.058-0.31,0.25-0.378,0.308
	c-0.068,0.058-0.314,0.242-0.381,0.301c-8.626,6.752-13.914,12.94-20.061,23.063c-0.057,0.085-0.241,0.377-0.3,0.46
	c-0.059,0.084-0.253,0.368-0.313,0.45c-2.618,3.729-5.699,6.62-8.214,9.466c-0.828,0.927-1.782,2.029-2.298,2.811
	c-0.001,0.001-0.002,0.004-0.003,0.005c-0.004,0.007-0.019,0.03-0.024,0.037c-2.536,3.934-4.968,7.927-6.872,11.408
	c-0.318,0.579-0.712,1.503-1.075,2.357c-0.813,1.779-1.496,3.699-2.271,5.686c0.711,3.37,1.304,6.877,0.216,10.373
	c-0.18,0.841-0.521,1.646-0.94,2.449c-1.114,2.453-2.995,4.8-3.567,7.756c-0.568,3.287,0.105,6.838,1.25,9.106
	c0.378,0.581,0.769,1.109,1.162,1.568c0.936,1.206,1.938,2.185,2.966,2.999c4.374,2.051,9.655,4.262,11.616,10.585
	c0.004,0.008,0.012,0.039,0.016,0.048c0.004,0.008,0.011,0.039,0.016,0.048c0.073,0.229,0.142,0.463,0.205,0.701
	c0.717,2.785,0.392,6.251-0.041,8.994c-0.522,3.245-0.918,4.154-0.569,7.198c0.107,3.692-1.391,7.638-1.705,10.868
	c-0.073,3.281,0.393,4.563-0.707,8.204c-2.486,5.663-8.674,8.483-14.478,10.38c-1.111,0.351-2.253,0.691-3.14,0.969
	c-3.492,1.1-6.944,1.914-9.916,2.668c-6.766,1.737-13.234,2.294-19.491,2.648c-1.624,0.091-3.207,0.169-4.801,0.252
	c-2.534,0.131-5.348,0.525-8.399,0.999c-5.517,0.75-11.304,2.342-17.555,3.199c-0.569,0.084-1.15,0.17-1.743,0.253
	c-2.176,0.327-4.595,0.624-7.155,0.76c-0.806,0.051-1.721,0.087-2.724,0.091c-2.523,0.027-5.67,0.022-9.084-0.295
	c-5.397-0.501-11.308-1.776-15.816-5.355c-0.627-0.505-1.17-1.066-1.657-1.668c-0.005-0.009-0.032-0.037-0.038-0.047
	c-0.005-0.009-0.032-0.038-0.037-0.047c-2.263-2.797-3.122-6.237-5.193-8.806c-0.69-0.885-1.378-1.677-2.054-2.399
	c-3.219-1.715-7.084-3.145-10.359-6.42c-3.183-3.183-5.249-6.369-6.388-10.521c-0.953-3.91,0.083-5.131,0.279-8.491
	c0.06-3.587-1.485-8.05-1.231-12.018c0.001-0.007,0.001-0.026,0.003-0.033c0.001-0.007,0.001-0.026,0.003-0.033
	c0.311-4.377,2.354-7.468,3.311-11.15c0.683-2.734,1.059-5.643,1.34-8.359c-0.258-2.868-0.598-5.953-0.51-8.799
	c0.033-1.408,0.101-2.878,0.23-4.39c0-0.017,0.007-0.067,0.007-0.084c0-0.017,0.007-0.067,0.007-0.084
	c0.603-6.121,2.067-11.76,4.055-16.205c0.236-1.2,0.497-2.456,0.823-3.55c0.478-1.652,1.066-3.277,1.816-4.821
	c0.491-1.016,1.117-2.176,1.815-3.235c0.65-0.932,1.344-1.816,2.03-2.452c0-0.01,0.062-0.02,0.062-0.029
	c0.991-1.391,6.137-0.829,7.304-2.616c0.002-0.018,0.096-0.035,0.098-0.053c1.481-2.026,4.169-6.548,0.417-10.604
	c-1.994-3.757-6.104-10.233-6.176-13.579c-0.14-0.432-0.327-0.864-0.542-1.297c-2.75-1.949-6.25-4.151-7.941-6.897
	c-3.762-6.087-1.543-15.534,0.281-21.368c2.174-6.223,5.291-11.562,9.077-13.807c0.454-0.269,0.902-0.519,1.37-0.708
	c0.01,0.002,0.035-0.024,0.046-0.022c0.01,0.002,0.036-0.024,0.046-0.021c0.511-0.216,1.055-0.42,1.634-0.606
	c0.203-0.078,0.471-0.037,0.712-0.183c0.004-0.007,0.039-0.014,0.044-0.021c2.641-1.966,3.913-5.841,5.795-9.061
	c0.424-0.753,0.868-1.457,1.361-2.081c2.54-3.174,4.952-5.948,7.487-8.246c0.215-0.417,0.436-0.842,0.664-1.269
	c0.841-1.563,1.79-3.185,2.924-4.793c1.105-1.55,3.013-2.929,4.155-4.656c1.182-5.394-1.014-8.84-1.441-12.851
	c-0.029-0.563-0.021-1.103,0.014-1.618c-0.651-3.674,0.467-7.787,0.522-12.481c-0.007-2.386-0.196-4.817-0.067-7.334
	c0.038-0.746,0.088-1.464,0.159-2.156c-0.274-1.991-0.345-3.973-0.049-5.967c0.246-1.594,0.531-2.911,0.769-4.131
	c0.299-1.437,0.525-2.728,0.517-4.201c0.001-0.011-0.002-0.062-0.001-0.074c0-0.011-0.002-0.062-0.001-0.074
	c-0.022-1.029-0.082-2.116-0.208-3.321c-0.516-7.224,1.26-13.359,2.5-18.353c1.216-4.319,4.001-5.964,6.747-7.238
	c1.516-1.345,3.383-2.899,5.369-5.118c2.639-2.968,4.156-5.889,7.343-8.299c0.996-0.763,2.134-1.492,3.516-2.168
	c4.753-2.343,9.23-3.928,15.474-4.455C174.407,41.994,174.906,41.972,175.439,41.954"/>
<path class="st1" d="M174.931,38.659c0.262,0,1.684-0.073,1.939-0.059l0,0c0.143,0.008,0.935,0.099,1.076,0.111
	c2.942,0.111,5.559,0.537,7.777,0.867c0.885,0.132,1.85,0.274,2.417,0.309c0.011,0.001,0.076,0.002,0.088,0.004
	c0.017,0.002,0.115,0.004,0.131,0.006c1.437,0.059,2.87,0.144,4.31,0.238c0.029,0.003,0.116,0.006,0.145,0.01
	c0.044,0.005,0.174,0.01,0.217,0.015c6.32,0.441,11.786,2.459,17.3,6.254c8.979,6.213,18.882,10.037,29.84,14.055
	c0.424,0.157,2.02,0.739,2.448,0.896c1.656,0.601,3.319,1.208,4.988,1.824c11.586,4.251,23.075,9.055,34.419,13.822
	c3.377,1.419,6.756,2.841,10.141,4.253c0.004,0.002,0.019,0.008,0.023,0.009c0.004,0.002,0.019,0.008,0.023,0.009
	c0.668,0.279,1.495,0.603,2.347,0.935c5.362,2.111,13.979,4.655,18.051,11.569c1.254,2.397,1.781,4.031,3.105,6.685
	c0.42,0.726,0.788,1.474,1.104,2.244c0.264,0.639,0.481,1.251,0.657,1.827c4.39,8.81,1.054,19.1-5.03,28.773
	c-2.946,4.637-6.332,8.836-8.923,12.471c-0.9,1.194-1.77,2.385-2.593,3.562c-1.123,1.591-2.586,3.647-3.259,4.95
	c-0.039,0.089-0.26,0.505-0.298,0.594c-0.044,0.103-0.325,0.567-0.369,0.67c-1.285,2.444-2.658,6.076-3.924,9.404
	c-0.627,1.649-1.265,3.317-1.932,4.96c-0.004,0.01-0.025,0.061-0.029,0.071c-0.004,0.01-0.025,0.061-0.029,0.071
	c-2.749,6.623-9.06,18.089-17.975,26.472c-3.03,2.616-6.007,5.139-8.994,7.549c-0.064,0.054-0.321,0.257-0.384,0.312
	s-0.326,0.249-0.389,0.304c-8.866,6.878-14.211,13.094-20.467,23.396c-0.054,0.08-0.248,0.389-0.303,0.467
	c-0.055,0.078-0.261,0.38-0.317,0.457c-2.667,3.813-5.782,6.76-8.322,9.618c-0.848,0.943-1.839,2.078-2.352,2.851
	c0,0.001-0.002,0.004-0.003,0.005c-0.004,0.006-0.02,0.031-0.024,0.037c-2.597,4.028-5.06,8.079-6.972,11.58
	c-0.316,0.577-0.718,1.538-1.088,2.422c-0.804,1.791-1.497,3.743-2.297,5.773c0.921,3.366,1.688,6.906,0.824,10.47
	c-0.126,0.867-0.408,1.701-0.766,2.537c-0.935,2.566-2.647,5.033-3.164,8.049c-0.51,3.374,0.098,6.964,1.148,9.278
	c0.369,0.598,0.748,1.146,1.128,1.628c0.907,1.271,1.864,2.318,2.837,3.193c4.297,2.177,9.483,4.653,11.394,11.168
	c0.004,0.008,0.011,0.041,0.015,0.049c0.004,0.008,0.011,0.041,0.015,0.049c0.071,0.234,0.137,0.472,0.199,0.715
	c0.695,2.849,0.383,6.332-0.061,9.13c-0.521,3.233-0.946,4.269-0.691,7.299c-0.014,3.739-1.583,7.697-2.086,10.955
	c-0.251,3.278-0.033,4.659-1.313,8.225c-2.842,5.621-9.195,8.414-15.041,10.301c-1.14,0.356-2.313,0.702-3.203,0.982
	c-3.554,1.122-7.064,1.952-10.114,2.708c-6.92,1.735-13.522,2.281-19.881,2.636c-1.659,0.091-3.272,0.17-4.896,0.255
	c-2.562,0.133-5.434,0.561-8.563,1.073c-5.563,0.801-11.476,2.416-17.897,3.242c-0.58,0.081-1.173,0.164-1.779,0.244
	c-2.205,0.315-4.677,0.605-7.299,0.732c-0.813,0.048-1.746,0.082-2.776,0.083c-2.558,0.02-5.767-0.006-9.256-0.36
	c-5.457-0.554-11.456-1.904-16.096-5.566c-0.639-0.512-1.199-1.077-1.705-1.684c-0.005-0.009-0.034-0.038-0.039-0.047
	c-0.005-0.009-0.034-0.038-0.039-0.047c-2.366-2.833-3.339-6.291-5.399-8.918c-0.693-0.913-1.375-1.737-2.041-2.492
	c-3.258-1.725-7.176-3.241-10.529-6.593c-3.196-3.196-5.31-6.405-6.522-10.532c-1.005-3.849-0.126-5.184-0.015-8.534
	c-0.034-3.612-1.543-8.059-1.336-12.057c0.001-0.007,0.001-0.027,0.002-0.033c0.001-0.006,0.001-0.027,0.002-0.033
	c0.259-4.415,2.195-7.583,3.141-11.266c0.688-2.784,1.113-5.695,1.45-8.39c-0.261-2.858-0.594-5.955-0.496-8.851
	c0.037-1.416,0.113-2.894,0.252-4.414c0-0.016,0.007-0.068,0.008-0.084s0.008-0.068,0.008-0.084
	c0.656-6.222,2.227-11.86,4.232-16.258c0.215-1.208,0.451-2.483,0.749-3.583c0.437-1.666,0.976-3.317,1.67-4.895
	c0.455-1.043,1.038-2.224,1.692-3.311c0.609-0.952,1.259-1.866,1.903-2.554c0-0.011,0.058-0.022,0.058-0.033
	c0.931-1.546,5.763-1.305,6.889-3.29c0.002-0.02,0.09-0.039,0.093-0.059c1.416-2.166,3.982-6.689,0.539-10.779
	c-1.768-3.919-5.465-10.394-5.295-13.909c-0.107-0.443-0.259-0.884-0.435-1.327c-2.748-1.976-6.195-4.221-7.918-7.02
	c-3.886-6.289-1.853-15.788-0.05-21.849c2.122-6.371,5.254-11.865,8.976-14.344c0.451-0.301,0.894-0.583,1.356-0.804
	c0.01,0.002,0.036-0.027,0.046-0.025c0.01,0.002,0.036-0.027,0.046-0.025c0.506-0.253,1.047-0.5,1.624-0.733
	c0.205-0.098,0.47-0.084,0.711-0.246c0.005-0.008,0.038-0.016,0.043-0.024c2.613-2.073,3.991-5.975,5.995-9.236
	c0.45-0.759,0.919-1.468,1.433-2.099c2.663-3.221,5.212-5.978,7.861-8.228c0.218-0.426,0.443-0.861,0.674-1.299
	c0.848-1.593,1.805-3.258,2.949-4.92c1.11-1.594,2.985-3.036,4.158-4.806c1.014-5.514-0.988-9.145-1.318-13.191
	c-0.016-0.577,0.005-1.128,0.049-1.653c-0.674-3.699,0.296-7.923,0.386-12.765c0.01-2.432-0.127-4.919,0.066-7.497
	c0.057-0.764,0.126-1.497,0.213-2.2c-0.28-2.043-0.362-4.07-0.094-6.101c0.223-1.62,0.485-2.976,0.703-4.236
	c0.275-1.478,0.481-2.811,0.466-4.305c0.001-0.011-0.002-0.065-0.002-0.076c0-0.011-0.002-0.065-0.002-0.076
	c-0.027-1.063-0.085-2.176-0.201-3.396c-0.461-7.482,1.496-13.718,2.916-18.691c1.383-4.323,4.264-6.033,7.047-7.333
	c1.502-1.416,3.368-3.064,5.402-5.34c2.658-2.992,4.329-5.943,7.653-8.378c1.037-0.769,2.21-1.505,3.617-2.191
	c4.822-2.363,9.445-3.991,15.849-4.539C173.875,38.703,174.386,38.679,174.931,38.659"/>
</svg>
