<?xml version="1.0" encoding="utf-8"?>
<!-- Generator: Adobe Illustrator 25.0.0, SVG Export Plug-In . SVG Version: 6.00 Build 0)  -->
<!DOCTYPE svg PUBLIC "-//W3C//DTD SVG 1.1//EN" "http://www.w3.org/Graphics/SVG/1.1/DTD/svg11.dtd" [
	<!ENTITY ns_extend "http://ns.adobe.com/Extensibility/1.0/">
	<!ENTITY ns_ai "http://ns.adobe.com/AdobeIllustrator/10.0/">
	<!ENTITY ns_graphs "http://ns.adobe.com/Graphs/1.0/">
	<!ENTITY ns_vars "http://ns.adobe.com/Variables/1.0/">
	<!ENTITY ns_imrep "http://ns.adobe.com/ImageReplacement/1.0/">
	<!ENTITY ns_sfw "http://ns.adobe.com/SaveForWeb/1.0/">
	<!ENTITY ns_custom "http://ns.adobe.com/GenericCustomNamespace/1.0/">
	<!ENTITY ns_adobe_xpath "http://ns.adobe.com/XPath/1.0/">
]>
<svg version="1.1" id="Livello_1" xmlns:x="&ns_extend;" xmlns:i="&ns_ai;" xmlns:graph="&ns_graphs;"
	 xmlns="http://www.w3.org/2000/svg" xmlns:xlink="http://www.w3.org/1999/xlink" x="0px" y="0px" viewBox="0 0 400 400"
	 style="enable-background:new 0 0 400 400;" xml:space="preserve">
<style type="text/css">
	.st0{opacity:0.45;fill:#FFFFFF;}
	.st1{fill:none;stroke:#DC4B33;stroke-width:0.9;stroke-miterlimit:10;}
</style>
<metadata>
	<sfw  xmlns="&ns_sfw;">
		<slices></slices>
		<sliceSourceBounds  bottomLeftOrigin="true" height="320.354" width="340.108" x="26.622" y="35.797"></sliceSourceBounds>
	</sfw>
</metadata>
<path class="st0" d="M99.986,44.299L99.986,44.299c3.838,0,7.756,0.887,11.006,2.423c7.365,4.485,10.071,6.02,16.429,9.236
	c0.055,0.011,0.326,0.214,0.384,0.225c0.056,0.011,0.322,0.222,0.38,0.234c0.677,0.427,1.351,0.835,2.03,1.228
	c0.523,0.391,1.003,0.793,1.45,1.198c1.028,0.442,2.099,0.995,3.273,1.605c0.228,0.312,2.142,0.999,2.371,1.311
	c0.238,0.325,2.059,1.36,2.336,1.628c0.878,0.556,1.76,1.082,2.672,1.536c1.092,0.494,2.191,0.922,3.278,1.355
	c2.111,0.839,4.053,1.685,5.778,2.556c0.101-0.002,0.203-0.003,0.305-0.004c0.194-0.002,0.406-0.003,0.633-0.002
	c0.521,0.002,1.124,0.01,1.786,0.059c1.903,0.006,3.798,0.046,5.666,0.085c1.977,0.042,3.892,0.083,5.75,0.087
	c0.224,0,0.452,0,0.682,0c0.891-0.002,1.822-0.013,2.755-0.04c1.935-1.099,4.037-2.476,6.382-3.984
	c1.834-1.047,3.605-2.328,5.409-3.698c7.051-5.338,12.978-11.354,22.4-11.354c1.049,0,2.091,0.075,3.133,0.188
	c0.023,0.002,0.093,0.004,0.116,0.005c0.485,0.023,0.958,0.048,1.416,0.072c2.047-0.07,4.314-0.277,6.65-0.504
	c4.071-0.394,8.475-0.863,13.096-0.863c2.004,0,3.941,0.091,5.878,0.299c1.376,0.151,2.66,0.441,3.894,0.815
	c0.01,0.006,0.067,0.018,0.077,0.024s0.067,0.019,0.077,0.024c4.446,1.357,7.879,3.929,11.765,4.987
	c0.101,0.055,0.431,0.109,0.529,0.164c0.443,0.121,0.859,0.231,1.252,0.33c0.042-0.009,0.246-0.07,0.287-0.081
	c0.204-0.052,1.221-0.288,1.39-0.367c1.8-0.539,3.381-1.164,5.418-1.533c1.046-0.132,2.07-0.198,3.123-0.198
	c5.888,0,11.512,1.833,16.361,3.73c3.969,1.562,6.421,3.752,9.069,5.724c0.328,0.233,0.663,0.454,1.002,0.665
	c2.555,1.538,5.256,2.932,7.414,4.841c2.697,2.354,4.355,5.046,6.632,6.637c0.501,0.391,0.983,0.718,1.438,1.011
	c0.141,0.09,0.277,0.179,0.412,0.261c1.471,0.415,3.066,0.725,4.715,1.217c1.064-0.254,2.129-0.479,3.203-0.616
	c1.554-0.192,3.097-0.276,4.664-0.276c13.377,0,25.964,6.935,34.232,17.057c3.368,3.982,5.311,8.958,7.453,13.765
	c1.006,2.457,2.079,4.468,2.36,6.997c0.172,2.128,0.051,3.565-0.176,5.011c-0.151,1.121-0.403,2.223-0.657,3.61
	c-1.489,6.416,2.794,10.138,3.971,14.097c0.267,1.01,0.503,2.148,0.73,2.874c0.003,0.006,0.009,0.041,0.012,0.047
	c0.003,0.006,0.009,0.041,0.012,0.047c0.06,0.204,0.133,0.498,0.206,0.805c0.987,3.342,1.593,8.54,0.508,14.163
	c-0.277,1.583-0.615,3.212-1.04,4.879c0,0.008-0.013,0.047-0.014,0.054s-0.013,0.047-0.014,0.054
	c-0.012,0.047-0.024,0.094-0.036,0.141c2.745,10.122,2.834,20.476,2.369,27.148c-0.356,4.985-0.616,10.206-1.141,15.571
	c-0.714,9.654-0.44,20.1-3.318,30.8c-0.162,0.605-0.306,1.33-0.445,2.141c-0.146,0.78-0.28,1.624-0.415,2.509
	c-0.744,4.305-1.43,9.576-3.186,15.44c-0.001,0.007-0.021,0.067-0.022,0.074s-0.021,0.067-0.022,0.074
	c-0.101,0.334-0.193,0.649-0.275,0.95c-0.508,1.703-0.707,2.764-0.869,3.915c-0.003,0.011-0.015,0.13-0.018,0.141
	s-0.017,0.129-0.02,0.141c-2.156,15.505-14.92,26.777-24.784,35.398c-0.487,0.426-0.968,0.846-1.435,1.256
	c-0.255,0.763-0.532,1.569-0.839,2.414c-0.053,0.046-0.204,0.62-0.256,0.665c-0.052,0.046-0.24,0.611-0.291,0.657
	c-1.14,2.574-2.494,5.033-4.031,7.373c-4.687,6.358-7.583,11.214-13.295,17.047c-5.416,6.147-14.016,10.344-21.719,13.631
	c-2.261,0.956-4.451,1.851-6.256,2.627c-0.102,0.041-0.594,0.259-0.695,0.3c-0.685,0.467-1.485,1.092-2.185,1.614
	c-1.354,0.952-2.777,2.022-4.249,3.142c-7.427,4.538-12.588,13.255-24.695,14.556c-1.459,0.223-3.011,0.449-4.639,0.649
	c-1.763,0.314-3.9,0.762-6.121,1.214c-4.065,0.825-8.528,1.693-12.966,2.038c-2.462,0.191-4.871,0.187-7.184-0.081
	c-1.326-0.181-2.543-0.44-3.677-0.767c-5.84-1.747-8.807-5.366-13.235-8.81c-5.356-3.814-12.522-5.421-17.111-10.79
	c-1.314-1.533-2.145-3.099-2.855-4.728c-0.744-1.702-1.318-3.406-2.155-5.118c-0.714-1.563-1.506-2.713-2.35-3.655
	c-4.634-1.374-10.851-2.171-16.301-9.386c-0.002-0.003-0.015-0.018-0.017-0.021c-0.002-0.003-0.015-0.018-0.017-0.022
	c-1.891-2.364-3.128-4.939-4.253-7.368c-1.26-1.031-2.625-2.115-4.204-3.202c-2.945-2.17-5.955-3.275-8.615-6.546
	c-2.682-3.249-5.455-6.788-8.029-10.992c-0.671-1.09-1.287-2.178-1.854-3.256c-1.083-2.08-1.985-4.303-2.819-6.37
	c-2.766-3.288-6.301-7.72-9.607-12.343c-0.644-0.796-1.342-1.536-2.091-2.208c-0.422-0.323-0.797-0.638-1.193-0.918
	c-0.38-0.268-0.752-0.495-1.099-0.713c-5.496,2.353-7.876,8.625-14.579,11.159c-7.244,2.784-16.58,5.05-24.672,5.753
	c-3.201,0.246-6.268,0.247-9.058-0.021c-0.254,0.012-1.611-0.193-1.851-0.193c-0.162,0-1.032-0.139-1.187-0.145
	c-0.44-0.018-2.538-0.825-2.896-0.893c-10.627-4.807-15.448-14.662-19.752-20.952c-0.658-0.986-1.449-2.154-2.09-2.937
	c-0.248-0.236-2.238-1.55-2.52-1.75c-0.09-0.064-0.582-0.661-0.676-0.72c-0.233-0.312-1.741-2.386-1.897-2.705
	c-7.215-10.755-4.707-22.233-5.875-29.93c-0.063-0.675-0.133-1.455-0.243-2.124c-1.948-4.394-5.46-12.811-4.75-19.143
	c0.753-4.375,3.576-8.786,6.671-11.69c1.7-1.595,3.462-2.579,4.63-2.95c0.943-0.037,1.745,0.112,3.138-0.932
	c0.588-0.441,1.218-1.073,2.019-1.869c1.738-1.794,2.57-3.909,3.115-5.987c0.256-1.007,0.432-1.996,0.597-2.926
	c0.966-2.33,1.471-6.09,2.111-8.931c-0.848-1.627-1.663-3.11-2.349-4.148c-0.555-0.617-1.046-1.094-1.545-1.514
	c-0.608-0.511-1.233-0.908-1.793-1.441c-0.719-0.685-1.391-1.554-2.11-2.946c-1.695-3.408-1.759-7.372-1.021-11.596
	c0.092-0.537,0.175-1.07,0.25-1.6c0.014-1.226-0.218-2.936-0.457-4.405c-0.25-1.56-0.592-3.231-0.94-5.07
	c-0.164-0.866-0.328-1.76-0.482-2.69c-0.866-5.192-1.03-9.785,2.09-14.317c1.238-1.739,2.386-2.603,3.729-3.915
	c0.448-0.433,0.921-0.927,1.431-1.531c2.154-2.485,4.481-5.714,7.52-7.507c1.103-0.651,2.312-1.085,3.645-1.223
	c2.82-0.305,4.346,0.631,7.844,0.439c1.169,0.042,2.39-0.092,3.595-0.447c1.656-0.504,3.209-1.337,4.371-2.7
	c2.932-2.658,3.259-5.095,4.172-7.068c0.31-1.225,0.956-2.449,2.281-3.569c0.431-0.381,0.812-0.762,1.15-1.143
	c-1.226-8.458-8.664-16.351-6.656-24.177C77.078,51.823,87.544,44.299,99.986,44.299"/>
<g>
	<path class="st1" d="M116.527,84.744c3.216,0,6.624,1.2,8.832,3.168c8.352,8.016,5.472,6.384,16.032,8.64
		c3.648,1.68,4.8,7.008,8.592,8.496c0.912,0.24,1.92,0.336,3.024,0.336c2.16,0,4.464-0.336,6.528-0.336c0.432,0,0.864,0,1.296,0.048
		c3.312,0,6.768,0.144,10.176,0.144c3.12,0,6.192-0.096,9.168-0.528c10.656-1.584,11.088-15.264,21.744-15.264
		c0.816,0,1.68,0.096,2.64,0.24h0.096c5.712,0,11.616-1.152,17.472-1.152c1.68,0,3.312,0.096,4.992,0.336
		c5.472,0.816,7.488,6.528,12.72,6.528h0.48c3.216-0.192,3.984-1.968,6.864-2.88c0.96-0.192,1.872-0.288,2.832-0.288
		c4.704,0,9.504,2.256,13.584,4.176c3.456,1.632,4.32,4.272,6.288,6.72c1.584,1.968,4.656,2.832,6.864,5.04
		c2.064,2.064,2.88,4.704,5.664,5.472c0.528,0.144,1.056,0.192,1.584,0.192c2.592,0,5.04-1.584,7.536-2.064
		c1.344-0.24,2.64-0.336,3.936-0.336c11.136,0,21.168,8.112,25.392,18.384c1.776,3.936,1.104,9.216,1.536,13.536
		c0.24,2.496,0.768,3.936-0.192,6.336c-1.536,3.792-4.656,2.88-7.152,5.28c-5.472,5.424,3.312,5.76,5.664,8.736
		c3.024,3.744,3.84,9.792,3.456,14.592c-1.056,13.392,0.816,27.264-2.544,40.32c-1.584,6.24-0.816,12.192-3.024,18.24
		c-1.344,3.6-2.208,6.672-2.544,10.512c-1.056,10.416-14.544,19.728-21.888,26.784c-4.656,4.032-2.64,6.096-3.648,11.472
		c-2.88,11.088-20.976,16.272-30.432,20.544c-9.408,3.36-10.608,13.872-21.504,14.16c-5.856,0.768-14.304,3.312-21.408,3.312
		c-2.352,0-4.512-0.288-6.432-1.008c-7.872-2.928-6.24-10.848-9.552-16.512c-2.832-4.848-10.704-3.12-14.928-7.632
		c-2.64-2.832-1.632-5.472-3.408-8.496c-2.784-5.376-10.56,1.68-17.088-9.168c-2.064-3.36-2.16-7.824-4.752-10.8
		c-2.4-2.736-4.8-2.592-6.576-6.048c-2.256-4.272-4.992-8.016-7.488-12.288c-2.784-4.656-6.528-15.552-12.336-16.944
		c-0.528-0.096-0.96-0.144-1.392-0.144c-6.48,0-2.208,11.328-8.064,14.448c-6,3.936-19.968,8.064-28.8,8.064
		c-1.296,0-2.496-0.096-3.504-0.288c-8.064-3.648-9.456-14.592-16.8-19.248c-5.712-7.632,0.576-16.464-4.08-24.816
		c-2.256-5.088-6.288-15.216-2.736-19.536c2.88-3.504,9.84-6.24,15.696-6.24c3.504,0,6.576,1.008,8.16,3.408
		c1.392,2.064,2.256,4.416,4.272,4.416c0.768,0,1.632-0.336,2.784-1.056c3.648-2.4,2.592-6.384,1.008-9.552
		c-1.392-2.736-5.856-13.104-8.64-14.4c-0.912-0.432-1.728-0.528-2.544-0.528c-1.056,0-2.112,0.192-3.12,0.192
		c-1.248,0-2.496-0.288-3.888-1.632c-3.264-3.168-3.552-7.152-2.736-11.328c0.912-4.848-0.336-8.64-1.296-14.016
		c-1.056-5.904-0.96-9.984,4.8-13.488c3.072-1.872,5.52-0.384,8.64-2.112c3.36-1.872,6.528-4.848,10.272-4.848
		c1.392,0,2.88,0.432,4.512,1.488c3.408,2.256,3.552,7.056,7.104,9.312c1.344,0.864,2.736,1.344,4.032,1.344
		c1.728,0,3.264-0.864,4.032-2.976c1.872-4.992-6.96-11.664-3.6-16.032c5.328-7.056-13.68-13.92-11.04-24.048
		C108.751,86.616,112.543,84.744,116.527,84.744"/>
</g>
<path class="st1" d="M115.255,81.633L115.255,81.633c3.264,0,6.711,1.176,8.999,3.111c7.524,7.023,6.246,6.565,13.544,8.167
	c0.111,0.022,0.24,0.059,0.355,0.082c0.113,0.023,0.244,0.061,0.361,0.085c0.618,0.147,1.288,0.306,2.018,0.481
	c0.481,0.233,0.919,0.525,1.326,0.859c0.823,0.639,1.535,1.456,2.224,2.321c0.457,0.625,1.027,1.302,1.485,1.926
	c0.476,0.649,1.093,1.326,1.647,1.863c0.644,0.6,1.354,1.103,2.18,1.434c0.926,0.259,1.94,0.379,3.044,0.414
	c1.901,0.061,3.891-0.106,5.73-0.1c0.087-0.003,0.174-0.005,0.26-0.008c0.184-0.004,0.368-0.007,0.552-0.007
	c0.439,0,0.884,0.001,1.334,0.049c1.582,0,3.194,0.033,4.814,0.067c1.636,0.034,3.279,0.071,4.909,0.078
	c0.2,0.001,0.401,0.001,0.601,0.001c0.79,0,1.581-0.007,2.368-0.023c2.288-0.128,4.558-0.359,6.797-0.774
	c2.039-0.363,3.722-1.159,5.191-2.207c6.109-4.353,8.356-13.041,17.019-13.041c0.834,0,1.712,0.094,2.678,0.236
	c0.002,0,0.096,0,0.098,0c0.402,0.002,0.803-0.001,1.205-0.009c1.867-0.05,3.768-0.205,5.684-0.386
	c3.583-0.339,7.225-0.768,10.868-0.768c1.705,0,3.36,0.096,5.06,0.333c1.224,0.178,2.285,0.589,3.253,1.122
	c0.02,0.011,0.043,0.023,0.062,0.035c0.02,0.011,0.043,0.023,0.062,0.035c3.345,1.888,5.568,5.203,9.581,5.284
	c0.008,0.004,0.476,0.008,0.484,0.013c0.427-0.014,0.813-0.055,1.167-0.117c0.085-0.018,0.18-0.042,0.261-0.063
	c0.408-0.105,0.834-0.254,1.171-0.412c1.424-0.642,2.451-1.605,4.379-2.194c0.967-0.187,1.887-0.281,2.854-0.281
	c4.795,0,9.658,2.223,13.798,4.142c3.495,1.627,4.482,4.232,6.502,6.643c0.222,0.262,0.469,0.505,0.737,0.735
	c1.748,1.488,4.317,2.43,6.247,4.341c2.113,2.086,2.993,4.73,5.738,5.562c0.526,0.163,1.05,0.233,1.573,0.255
	c0.155,0.007,0.309,0.008,0.462,0.005c1.494-0.065,2.957-0.581,4.417-1.04c0.905-0.326,1.808-0.634,2.718-0.803
	c1.36-0.236,2.675-0.331,3.992-0.331c11.308,0,21.537,8.021,26.072,18.282c1.898,3.94,1.428,9.196,1.991,13.554
	c0.299,2.493,0.869,3.977,0.004,6.387c-0.79,2.148-2.073,2.847-3.463,3.5c-1.06,0.5-2.185,0.971-3.203,2.037
	c-5.166,5.5,3.272,6.097,5.534,9.148c0.508,0.681,0.951,1.437,1.337,2.209c0.006,0.011,0.012,0.025,0.018,0.037
	c0.006,0.011,0.012,0.025,0.018,0.036c0.1,0.205,0.198,0.419,0.292,0.638c1.561,3.547,1.997,8.067,1.639,11.929
	c-0.123,1.406-0.221,2.821-0.305,4.242c-0.001,0.015-0.002,0.033-0.003,0.048c-0.001,0.015-0.002,0.033-0.003,0.048
	c-0.002,0.041-0.005,0.083-0.007,0.124c-0.057,7.824,0.284,15.765-0.182,23.306c-0.274,4.413-0.792,8.806-1.839,13.131
	c-1.422,6.13-0.87,12.088-2.684,18.124c-0.123,0.407-0.254,0.824-0.397,1.247c-0.168,0.48-0.328,0.957-0.481,1.433
	c-0.981,2.966-1.656,5.782-2.089,9.074c-0.001,0.014-0.004,0.031-0.006,0.045c-0.001,0.014-0.004,0.031-0.006,0.045
	c-0.025,0.19-0.047,0.381-0.068,0.572c-0.108,0.809-0.249,1.564-0.438,2.32c-0.006,0.023-0.013,0.054-0.019,0.076
	c-0.006,0.023-0.013,0.053-0.019,0.076c-1.945,7.656-9.466,14.473-16.047,20.234c-0.286,0.25-0.57,0.498-0.851,0.744
	c-0.371,0.366-0.74,0.731-1.107,1.097c-0.105,0.092-0.218,0.225-0.322,0.316c-0.105,0.092-0.22,0.224-0.323,0.315
	c-1.263,1.232-2.475,2.414-3.58,3.542c-4.658,4.211-3.02,6.49-4.39,11.901c-2.072,6.844-9.831,11.427-17.652,14.939
	c-1.928,0.864-3.858,1.665-5.69,2.414c-0.204,0.083-0.436,0.179-0.638,0.26c-0.787,0.333-1.567,0.671-2.319,0.994
	c-1.613,0.684-3.132,1.347-4.492,1.997c-9.256,3.451-10.76,13.825-21.749,14.19c-1.287,0.171-2.694,0.42-4.183,0.703
	c-1.747,0.341-3.63,0.743-5.562,1.129c-3.918,0.782-8.052,1.497-11.841,1.525c-2.36,0.014-4.54-0.251-6.49-0.937
	c-1.248-0.44-2.269-1.001-3.118-1.655c-4.519-3.495-4.084-9.655-7-14.324c-3.026-4.768-10.844-3.297-15.096-7.875
	c-1.299-1.403-1.747-2.766-2.077-4.153c-0.342-1.437-0.556-2.896-1.454-4.446c-0.701-1.367-1.698-1.978-2.899-2.292
	c-3.742-0.827-9.378,0.879-14.309-7.173c-0.004-0.006-0.008-0.013-0.012-0.02c-0.004-0.006-0.008-0.013-0.012-0.02
	c-1.276-2.04-1.858-4.457-2.668-6.713c-0.579-1.459-1.272-2.855-2.347-4.034c-2.442-2.692-4.889-2.645-6.733-6.086
	c-1.85-3.362-3.983-6.444-6.05-9.752c-0.55-0.88-1.093-1.773-1.622-2.687c-0.816-1.386-1.69-3.251-2.655-5.235
	c-2.019-3.915-4.483-8.447-7.505-10.801c-0.74-0.56-1.52-0.979-2.343-1.214c-0.52-0.113-0.948-0.183-1.377-0.204
	c-0.461-0.022-0.869,0.016-1.23,0.101c-4.739,1.493-1.888,11.171-7.419,14.039c-4.428,2.753-12.609,5.553-20.158,6.958
	c-2.671,0.492-5.266,0.809-7.597,0.89c-0.508,0.025-1.088,0.021-1.567,0.021c-0.324,0-0.696-0.017-1.005-0.029
	c-0.88-0.035-1.827-0.18-2.543-0.317c-6.708-3.034-9.112-10.674-13.395-16.044c-0.543-0.684-1.125-1.351-1.737-1.946
	c-0.496-0.472-1.156-0.995-1.721-1.395c-0.18-0.127-0.394-0.291-0.581-0.41c-0.467-0.624-0.951-1.391-1.265-2.03
	c-3.599-7.036,0.405-14.849-2.477-22.107c-0.184-0.48-0.396-0.967-0.642-1.444c-2.232-5.035-6.224-15.031-2.891-19.506
	c2.716-3.571,9.367-6.445,15.002-6.659c3.37-0.128,6.336,0.732,7.888,2.919c1.357,1.902,2.215,4.089,4.185,4.005
	c0.753-0.032,1.6-0.393,2.725-1.118c2.392-1.624,2.761-3.93,2.318-6.223c-0.218-1.125-0.634-2.245-1.102-3.28
	c-0.78-1.859-2.849-6.942-4.872-10.536c-1.109-1.826-2.207-3.281-3.121-3.762c-0.885-0.446-1.676-0.572-2.467-0.604
	c-1.022-0.041-2.044,0.107-3.018,0.066c-1.207-0.053-2.411-0.385-3.751-1.733c-3.143-3.187-3.414-7.169-2.604-11.349
	c0.104-0.556,0.181-1.1,0.234-1.633c0.139-1.524,0.066-3.007-0.117-4.485c-0.203-1.644-0.549-3.313-0.914-5.138
	c-0.175-0.874-0.354-1.782-0.525-2.74c-1.041-5.849-0.965-9.969,4.592-13.552c2.22-1.428,4.109-1.049,6.194-1.515
	c0.697-0.156,1.417-0.407,2.179-0.853c3.267-1.919,6.371-4.913,10.06-5.053c1.37-0.05,2.836,0.315,4.445,1.279
	c3.363,2.059,3.613,6.562,7.161,8.629c1.331,0.801,2.709,1.234,3.998,1.206c1.722-0.039,3.26-0.9,4.058-2.955
	c1.407-3.356-2.008-7.421-3.238-10.999c-0.577-1.677-0.671-3.258,0.411-4.618c0.384-0.494,0.649-0.986,0.813-1.479
	c1.699-6.691-13.845-13.382-11.427-22.667C106.315,83.94,110.62,81.633,115.255,81.633"/>
<path class="st1" d="M113.982,78.522L113.982,78.522c3.312,0,6.798,1.152,9.166,3.053c7.511,6.811,6.564,6.52,13.784,8.257
	c0.106,0.021,0.247,0.072,0.357,0.094c0.108,0.022,0.25,0.075,0.363,0.097c0.623,0.171,1.293,0.35,2.019,0.543
	c0.484,0.246,0.926,0.547,1.336,0.887c0.84,0.623,1.582,1.417,2.312,2.261c0.438,0.599,1.12,1.277,1.559,1.875
	c0.456,0.622,1.174,1.329,1.705,1.843c0.663,0.597,1.388,1.101,2.221,1.443c0.94,0.279,1.961,0.422,3.063,0.493
	c1.917,0.123,3.904,0.043,5.734,0.122c0.088-0.003,0.176-0.005,0.264-0.007c0.185-0.004,0.372-0.007,0.559-0.006
	c0.446,0,0.904,0.002,1.371,0.05c1.609,0.001,3.244,0.034,4.885,0.068c1.664,0.035,3.33,0.072,4.979,0.079
	c0.202,0.001,0.405,0.001,0.608,0.001c0.799,0,1.601-0.007,2.401-0.025c2.259-0.209,4.515-0.535,6.763-1.041
	c2.022-0.42,3.712-1.256,5.209-2.331c6.187-4.435,8.741-12.9,17.468-12.9c0.852,0,1.743,0.093,2.716,0.232
	c0.004,0,0.096,0.001,0.099,0.001c0.409,0.004,0.816,0.003,1.222-0.002c1.882-0.051,3.813-0.211,5.764-0.396
	c3.624-0.343,7.329-0.776,11.053-0.776c1.73,0,3.409,0.095,5.128,0.33c1.237,0.176,2.316,0.577,3.306,1.096
	c0.019,0.011,0.045,0.023,0.064,0.034c0.019,0.011,0.045,0.023,0.063,0.034c3.437,1.843,5.761,5.097,9.763,5.26
	c0.015,0.008,0.472,0.017,0.488,0.025c0.429-0.003,0.817-0.031,1.174-0.079c0.081-0.017,0.186-0.044,0.263-0.064
	c0.391-0.1,0.866-0.257,1.189-0.408c1.455-0.633,2.529-1.568,4.466-2.139c0.973-0.183,1.902-0.274,2.877-0.274
	c4.886,0,9.813,2.191,14.011,4.107c3.535,1.621,4.643,4.192,6.716,6.567c0.231,0.26,0.486,0.501,0.759,0.729
	c1.815,1.493,4.395,2.472,6.344,4.383c2.161,2.109,3.107,4.757,5.813,5.651c0.524,0.182,1.044,0.272,1.562,0.318
	c0.154,0.014,0.306,0.023,0.458,0.026c1.492-0.025,2.966-0.473,4.442-0.852c0.919-0.32,1.835-0.621,2.758-0.788
	c1.376-0.233,2.71-0.327,4.048-0.327c11.481,0,21.906,7.931,26.752,18.18c2.021,3.943,1.751,9.176,2.446,13.571
	c0.358,2.49,0.97,4.018,0.201,6.438c-0.71,2.146-1.896,2.907-3.189,3.626c-0.984,0.552-2.037,1.075-2.991,2.168
	c-4.859,5.577,3.232,6.433,5.404,9.561c0.488,0.709,0.914,1.496,1.286,2.264c0.006,0.011,0.012,0.026,0.017,0.037
	c0.006,0.011,0.012,0.026,0.017,0.037c0.097,0.205,0.193,0.426,0.285,0.652c1.513,3.53,1.963,8.106,1.545,12.115
	c-0.135,1.421-0.254,2.853-0.366,4.295c-0.001,0.015-0.003,0.034-0.004,0.049c-0.001,0.015-0.003,0.034-0.004,0.049
	c-0.003,0.042-0.006,0.084-0.009,0.126c0.176,8.015,0.496,16.158,0.03,23.627c-0.281,4.461-0.777,8.923-1.781,13.334
	c-1.363,6.424-0.834,12.756-2.737,19.18c-0.126,0.423-0.258,0.866-0.401,1.322c-0.166,0.505-0.324,1.013-0.476,1.522
	c-0.961,3.078-1.637,6.098-2.18,9.605c-0.001,0.013-0.006,0.034-0.007,0.047c-0.001,0.013-0.006,0.034-0.007,0.047
	c-0.031,0.202-0.06,0.403-0.086,0.603c-0.141,0.884-0.287,1.664-0.474,2.453c-0.006,0.022-0.013,0.06-0.019,0.082
	s-0.013,0.06-0.019,0.082c-1.962,8.31-9.92,15.499-16.775,21.497c-0.303,0.265-0.603,0.527-0.9,0.787
	c-0.361,0.399-0.723,0.801-1.085,1.207c-0.101,0.088-0.217,0.258-0.317,0.345c-0.1,0.088-0.221,0.256-0.321,0.343
	c-1.253,1.344-2.476,2.632-3.618,3.862c-4.661,4.39-3.4,6.883-5.132,12.33c-2.35,6.786-10.18,11.336-17.991,14.83
	c-1.956,0.872-3.907,1.681-5.738,2.432c-0.195,0.079-0.449,0.185-0.643,0.264c-0.778,0.344-1.561,0.706-2.308,1.045
	c-1.591,0.707-3.102,1.403-4.472,2.092c-9.103,3.541-10.913,13.777-21.995,14.221c-1.301,0.176-2.721,0.423-4.221,0.699
	c-1.749,0.339-3.652,0.745-5.609,1.136c-3.93,0.786-8.092,1.512-11.935,1.567c-2.369,0.028-4.567-0.215-6.548-0.865
	c-1.254-0.418-2.292-0.954-3.164-1.581c-4.629-3.349-4.478-9.297-7.52-13.864c-3.22-4.689-10.984-3.474-15.264-8.118
	c-1.3-1.414-1.78-2.793-2.142-4.201c-0.376-1.459-0.619-2.938-1.512-4.502c-0.702-1.383-1.682-2.039-2.853-2.406
	c-3.816-0.873-9.501,0.625-14.475-7.358c-0.004-0.006-0.009-0.014-0.013-0.02c-0.004-0.006-0.009-0.014-0.013-0.02
	c-1.327-2.067-1.964-4.497-2.8-6.767c-0.636-1.423-1.385-2.794-2.502-3.964c-2.484-2.649-4.978-2.697-6.89-6.125
	c-1.919-3.353-4.106-6.472-6.215-9.855c-0.561-0.898-1.109-1.807-1.641-2.734c-0.838-1.443-1.715-3.338-2.669-5.329
	c-2.082-3.863-4.635-8.386-7.68-10.929c-0.732-0.58-1.506-1.026-2.322-1.297c-0.512-0.131-0.936-0.222-1.361-0.263
	c-0.454-0.044-0.859-0.026-1.219,0.034c-4.802,1.564-2.387,10.959-8.016,13.799c-4.663,2.756-12.94,5.511-20.534,6.858
	c-2.715,0.471-5.35,0.762-7.719,0.814c-0.487,0.023-1.131,0.003-1.59,0.003c-0.31,0-0.724-0.027-1.021-0.039
	c-0.844-0.034-1.886-0.234-2.572-0.365c-7.034-3.182-9.64-11.006-13.924-16.453c-0.552-0.709-1.152-1.418-1.766-2.029
	c-0.476-0.452-1.246-1.042-1.788-1.425c-0.172-0.122-0.409-0.322-0.589-0.436c-0.447-0.598-1.017-1.474-1.317-2.087
	c-3.9-7.346-0.021-15.465-2.76-22.759c-0.174-0.496-0.374-1.007-0.608-1.5c-2.209-4.981-6.161-14.846-3.046-19.476
	c2.553-3.638,8.892-6.649,14.308-7.078c3.235-0.256,6.097,0.456,7.617,2.43c1.323,1.741,2.174,3.762,4.098,3.593
	c0.739-0.065,1.568-0.449,2.666-1.181c2.338-1.638,2.746-3.928,2.385-6.203c-0.179-1.115-0.545-2.225-0.961-3.251
	c-0.635-1.898-2.489-6.871-4.291-10.402c-1.088-1.81-2.162-3.267-3.057-3.794c-0.857-0.46-1.624-0.617-2.39-0.68
	c-0.989-0.081-1.976,0.024-2.916-0.059c-1.165-0.104-2.326-0.483-3.614-1.834c-3.023-3.205-3.276-7.186-2.472-11.369
	c0.103-0.555,0.18-1.097,0.235-1.631c0.128-1.499,0.042-3.001-0.145-4.479c-0.207-1.637-0.552-3.306-0.916-5.132
	c-0.174-0.873-0.352-1.78-0.521-2.736c-1.027-5.794-0.971-9.953,4.383-13.616c2.138-1.454,3.966-1.178,5.988-1.715
	c0.677-0.179,1.376-0.45,2.116-0.91c3.174-1.966,6.215-4.979,9.849-5.257c1.348-0.099,2.793,0.199,4.379,1.071
	c3.318,1.862,3.674,6.067,7.218,7.947c1.317,0.738,2.683,1.123,3.965,1.069c1.717-0.077,3.256-0.937,4.084-2.933
	c1.534-3.298-1.569-7.227-2.62-10.671c-0.503-1.639-0.535-3.19,0.567-4.531c0.388-0.484,0.663-0.968,0.841-1.451
	c1.456-6.838-13.413-13.63-11.03-22.793C103.878,81.263,108.697,78.522,113.982,78.522"/>
<path class="st1" d="M112.71,75.41L112.71,75.41c3.36,0,6.885,1.128,9.334,2.996c7.498,6.6,6.883,6.474,14.025,8.346
	c0.101,0.02,0.254,0.085,0.36,0.106c0.103,0.021,0.257,0.088,0.364,0.11c0.628,0.194,1.298,0.394,2.02,0.606
	c0.488,0.259,0.933,0.569,1.347,0.915c0.858,0.606,1.629,1.379,2.399,2.202c0.419,0.572,1.213,1.251,1.632,1.823
	c0.437,0.595,1.254,1.332,1.762,1.823c0.683,0.593,1.422,1.099,2.262,1.451c0.954,0.299,1.982,0.466,3.083,0.571
	c1.935,0.185,3.918,0.192,5.738,0.343c0.09-0.003,0.179-0.005,0.268-0.007c0.186-0.004,0.375-0.006,0.566-0.006
	c0.453,0.001,0.924,0.002,1.409,0.05c1.636,0.001,3.294,0.035,4.956,0.07c1.693,0.036,3.381,0.073,5.049,0.079
	c0.204,0.001,0.409,0.001,0.615,0.001c0.807-0.001,1.621-0.008,2.433-0.026c2.23-0.29,4.471-0.712,6.728-1.309
	c2.005-0.477,3.702-1.354,5.227-2.455c6.266-4.517,9.126-12.76,17.916-12.76c0.87,0,1.775,0.091,2.754,0.228
	c0.005,0,0.095,0.001,0.101,0.001c0.416,0.005,0.829,0.007,1.24,0.004c1.897-0.053,3.859-0.217,5.845-0.406
	c3.664-0.348,7.434-0.784,11.239-0.784c1.755,0,3.457,0.095,5.196,0.327c1.25,0.174,2.348,0.564,3.36,1.07
	c0.018,0.01,0.047,0.022,0.065,0.033c0.018,0.01,0.047,0.023,0.065,0.033c3.529,1.799,5.953,4.991,9.945,5.235
	c0.023,0.013,0.469,0.025,0.491,0.038c0.43,0.008,0.821-0.007,1.181-0.042c0.078-0.017,0.191-0.047,0.265-0.066
	c0.374-0.096,0.898-0.26,1.207-0.404c1.486-0.625,2.606-1.532,4.552-2.084c0.98-0.178,1.918-0.267,2.899-0.267
	c4.977,0,9.967,2.158,14.225,4.073c3.574,1.616,4.805,4.152,6.93,6.49c0.24,0.257,0.502,0.497,0.781,0.723
	c1.882,1.497,4.473,2.514,6.441,4.424c2.21,2.131,3.22,4.783,5.887,5.741c0.522,0.201,1.039,0.312,1.55,0.381
	c0.152,0.021,0.304,0.037,0.454,0.047c1.49,0.015,2.975-0.364,4.467-0.664c0.932-0.314,1.862-0.608,2.799-0.772
	c1.392-0.229,2.745-0.322,4.104-0.322c11.653,0,22.275,7.84,27.432,18.078c2.143,3.947,2.075,9.157,2.901,13.589
	c0.417,2.487,1.071,4.059,0.397,6.488c-0.63,2.145-1.719,2.967-2.915,3.752c-0.909,0.603-1.888,1.179-2.779,2.299
	c-4.553,5.653,3.193,6.77,5.273,9.973c0.468,0.736,0.877,1.556,1.236,2.32c0.005,0.01,0.011,0.028,0.017,0.038
	c0.005,0.01,0.011,0.028,0.017,0.038c0.094,0.204,0.187,0.432,0.277,0.666c1.465,3.513,1.93,8.146,1.451,12.302
	c-0.148,1.436-0.287,2.886-0.427,4.348c-0.001,0.014-0.004,0.035-0.005,0.049c-0.001,0.014-0.004,0.035-0.005,0.049
	c-0.004,0.042-0.008,0.085-0.012,0.127c0.41,8.207,0.709,16.55,0.243,23.947c-0.288,4.508-0.763,9.039-1.723,13.538
	c-1.304,6.717-0.798,13.424-2.79,20.236c-0.129,0.44-0.263,0.908-0.405,1.396c-0.164,0.53-0.32,1.069-0.47,1.612
	c-0.941,3.189-1.618,6.414-2.272,10.135c-0.001,0.012-0.007,0.037-0.008,0.05c-0.001,0.013-0.007,0.037-0.008,0.05
	c-0.037,0.214-0.072,0.426-0.103,0.635c-0.175,0.958-0.325,1.764-0.51,2.586c-0.005,0.021-0.013,0.066-0.019,0.087
	c-0.006,0.021-0.014,0.066-0.019,0.087c-1.98,8.964-10.375,16.524-17.503,22.761c-0.319,0.279-0.636,0.556-0.949,0.829
	c-0.352,0.432-0.705,0.871-1.062,1.316c-0.097,0.085-0.216,0.291-0.311,0.375c-0.096,0.084-0.223,0.288-0.318,0.372
	c-1.242,1.455-2.478,2.85-3.655,4.181c-4.663,4.569-3.781,7.277-5.874,12.758c-2.629,6.728-10.528,11.246-18.33,14.721
	c-1.983,0.88-3.957,1.696-5.785,2.449c-0.187,0.076-0.463,0.192-0.647,0.267c-0.77,0.356-1.554,0.741-2.297,1.097
	c-1.569,0.729-3.073,1.46-4.451,2.188c-8.951,3.632-11.065,13.73-22.24,14.251c-1.316,0.18-2.747,0.425-4.259,0.694
	c-1.75,0.337-3.675,0.746-5.655,1.143c-3.943,0.789-8.132,1.527-12.029,1.61c-2.377,0.042-4.595-0.178-6.606-0.794
	c-1.261-0.397-2.315-0.907-3.211-1.507c-4.739-3.204-4.872-8.94-8.039-13.405c-3.415-4.609-11.124-3.651-15.432-8.361
	c-1.301-1.425-1.813-2.821-2.207-4.249c-0.409-1.481-0.683-2.981-1.571-4.558c-0.703-1.4-1.666-2.1-2.808-2.52
	c-3.891-0.918-9.623,0.371-14.641-7.542c-0.003-0.006-0.01-0.014-0.013-0.02c-0.003-0.006-0.01-0.014-0.013-0.02
	c-1.378-2.094-2.07-4.538-2.932-6.822c-0.693-1.388-1.497-2.732-2.656-3.895c-2.526-2.605-5.067-2.75-7.047-6.163
	c-1.989-3.344-4.228-6.501-6.38-9.959c-0.571-0.915-1.125-1.841-1.661-2.782c-0.861-1.501-1.74-3.426-2.682-5.424
	c-2.144-3.81-4.786-8.325-7.856-11.058c-0.724-0.599-1.491-1.072-2.301-1.38c-0.503-0.148-0.923-0.261-1.346-0.323
	c-0.448-0.065-0.849-0.069-1.209-0.034c-4.865,1.636-2.886,10.747-8.613,13.559c-4.897,2.758-13.271,5.469-20.91,6.757
	c-2.759,0.451-5.433,0.715-7.841,0.738c-0.466,0.022-1.175-0.015-1.614-0.015c-0.297,0-0.752-0.037-1.036-0.048
	c-0.807-0.033-1.946-0.288-2.602-0.413c-7.361-3.33-10.168-11.339-14.454-16.862c-0.562-0.735-1.179-1.485-1.796-2.111
	c-0.455-0.432-1.337-1.088-1.854-1.454c-0.165-0.116-0.425-0.353-0.597-0.462c-0.428-0.572-1.083-1.557-1.37-2.143
	c-4.201-7.656-0.447-16.08-3.043-23.411c-0.164-0.512-0.352-1.048-0.575-1.557c-2.185-4.928-6.097-14.661-3.201-19.445
	c2.389-3.705,8.416-6.853,13.613-7.498c3.099-0.384,5.857,0.18,7.345,1.941c1.288,1.579,2.134,3.434,4.01,3.182
	c0.725-0.098,1.536-0.506,2.607-1.243c2.283-1.652,2.73-3.927,2.451-6.184c-0.139-1.105-0.456-2.204-0.819-3.221
	c-0.489-1.937-2.129-6.8-3.709-10.269c-1.066-1.793-2.117-3.253-2.993-3.827c-0.83-0.475-1.572-0.661-2.313-0.755
	c-0.955-0.121-1.908-0.06-2.814-0.185c-1.124-0.156-2.241-0.58-3.478-1.935c-2.902-3.223-3.138-7.203-2.34-11.39
	c0.102-0.553,0.18-1.095,0.237-1.628c0.118-1.474,0.018-2.995-0.174-4.472c-0.211-1.63-0.556-3.3-0.918-5.127
	c-0.173-0.872-0.35-1.779-0.517-2.732c-1.012-5.74-0.976-9.938,4.175-13.679c2.056-1.48,3.822-1.308,5.783-1.915
	c0.656-0.202,1.334-0.494,2.054-0.966c3.082-2.014,6.057-5.052,9.637-5.462c1.326-0.152,2.749,0.082,4.312,0.862
	c3.272,1.665,3.735,5.573,7.275,7.264c1.304,0.674,2.656,1.013,3.931,0.931c1.711-0.116,3.251-0.973,4.11-2.912
	c1.662-3.24-1.13-7.033-2.003-10.344c-0.429-1.602-0.4-3.123,0.723-4.443c0.392-0.475,0.677-0.949,0.869-1.423
	c1.212-6.986-12.981-13.877-10.632-22.918C101.442,78.587,106.774,75.41,112.71,75.41"/>
<path class="st1" d="M111.437,72.299L111.437,72.299c3.407,0,6.972,1.104,9.501,2.939c7.484,6.388,7.202,6.429,14.265,8.435
	c0.097,0.019,0.261,0.098,0.362,0.118c0.099,0.02,0.263,0.101,0.366,0.122c0.633,0.217,1.304,0.438,2.021,0.668
	c0.491,0.273,0.94,0.592,1.357,0.944c0.875,0.59,1.676,1.341,2.486,2.142c0.4,0.546,1.306,1.226,1.706,1.772
	c0.417,0.568,1.335,1.335,1.82,1.804c0.702,0.589,1.455,1.097,2.303,1.46c0.967,0.318,2.003,0.51,3.102,0.649
	c1.952,0.248,3.931,0.342,5.742,0.564c0.091-0.003,0.181-0.005,0.272-0.007c0.187-0.004,0.378-0.006,0.572-0.006
	c0.459,0.001,0.944,0.003,1.447,0.051c1.663,0.002,3.345,0.036,5.027,0.071c1.721,0.036,3.432,0.074,5.119,0.08
	c0.206,0.001,0.413,0.001,0.621,0.001c0.816-0.001,1.641-0.008,2.465-0.027c2.2-0.371,4.428-0.888,6.693-1.576
	c1.988-0.534,3.693-1.451,5.246-2.58c6.345-4.599,9.512-12.619,18.364-12.619c0.888,0,1.807,0.09,2.792,0.224
	c0.007,0.001,0.095,0.001,0.102,0.002c0.423,0.007,0.842,0.011,1.257,0.011c1.912-0.055,3.904-0.223,5.925-0.416
	c3.705-0.352,7.538-0.792,11.425-0.792c1.78,0,3.505,0.095,5.265,0.325c1.262,0.172,2.379,0.552,3.413,1.045
	c0.017,0.01,0.049,0.022,0.066,0.032c0.017,0.01,0.049,0.022,0.066,0.032c3.621,1.755,6.146,4.885,10.127,5.21
	c0.031,0.017,0.465,0.034,0.495,0.051c0.431,0.02,0.824,0.017,1.188-0.005c0.074-0.016,0.197-0.049,0.268-0.067
	c0.357-0.092,0.931-0.263,1.225-0.4c1.518-0.616,2.684-1.495,4.639-2.029c0.986-0.174,1.933-0.26,2.921-0.26
	c5.068,0,10.122,2.126,14.438,4.039c3.614,1.611,4.966,4.112,7.144,6.414c0.249,0.255,0.518,0.493,0.803,0.717
	c1.95,1.501,4.552,2.556,6.538,4.466c2.259,2.153,3.334,4.809,5.962,5.83c0.52,0.22,1.033,0.352,1.539,0.444
	c0.151,0.027,0.301,0.051,0.45,0.069c1.488,0.055,2.984-0.255,4.492-0.476c0.945-0.308,1.889-0.595,2.839-0.757
	c1.409-0.225,2.781-0.318,4.16-0.318c11.825,0,22.644,7.75,28.112,17.976c2.266,3.95,2.399,9.137,3.357,13.606
	c0.476,2.484,1.172,4.1,0.593,6.539c-0.55,2.143-1.542,3.027-2.641,3.878c-0.833,0.655-1.74,1.284-2.567,2.43
	c-4.247,5.729,3.153,7.107,5.143,10.386c0.448,0.764,0.839,1.615,1.185,2.375c0.005,0.01,0.011,0.029,0.016,0.039
	c0.005,0.01,0.011,0.029,0.016,0.039c0.09,0.204,0.182,0.439,0.27,0.68c1.417,3.496,1.896,8.185,1.356,12.488
	c-0.161,1.45-0.319,2.919-0.489,4.401c-0.001,0.013-0.005,0.036-0.005,0.05c-0.001,0.013-0.005,0.036-0.005,0.05
	c-0.005,0.043-0.009,0.085-0.014,0.128c0.643,8.398,0.921,16.943,0.456,24.267c-0.295,4.556-0.748,9.156-1.665,13.741
	c-1.245,7.011-0.762,14.091-2.843,21.293c-0.133,0.456-0.267,0.95-0.409,1.471c-0.162,0.555-0.316,1.124-0.465,1.702
	c-0.922,3.301-1.599,6.731-2.363,10.666c-0.001,0.012-0.008,0.04-0.01,0.052c-0.001,0.012-0.009,0.04-0.01,0.052
	c-0.044,0.226-0.084,0.448-0.12,0.666c-0.208,1.033-0.363,1.864-0.546,2.719c-0.005,0.02-0.013,0.073-0.019,0.092
	c-0.005,0.02-0.014,0.072-0.02,0.092c-1.998,9.618-10.829,17.549-18.231,24.025c-0.336,0.294-0.669,0.585-0.997,0.872
	c-0.342,0.465-0.688,0.941-1.04,1.426c-0.092,0.081-0.214,0.323-0.306,0.404c-0.092,0.08-0.224,0.32-0.315,0.4
	c-1.232,1.567-2.479,3.069-3.693,4.5c-4.666,4.748-4.161,7.671-6.616,13.187c-2.908,6.67-10.877,11.156-18.669,14.612
	c-2.011,0.887-4.006,1.712-5.832,2.467c-0.178,0.072-0.476,0.199-0.652,0.27c-0.761,0.367-1.547,0.776-2.286,1.149
	c-1.548,0.751-3.043,1.516-4.431,2.283c-8.799,3.723-11.217,13.682-22.486,14.282c-1.33,0.184-2.773,0.427-4.297,0.69
	c-1.751,0.334-3.697,0.748-5.702,1.15c-3.955,0.793-8.171,1.551-12.123,1.653c-2.386,0.062-4.622-0.142-6.663-0.723
	c-1.267-0.375-2.337-0.86-3.258-1.433c-4.849-3.058-5.265-8.583-8.559-12.945c-3.609-4.53-11.263-3.828-15.6-8.604
	c-1.303-1.435-1.847-2.849-2.272-4.297c-0.443-1.503-0.746-3.023-1.629-4.614c-0.704-1.416-1.65-2.162-2.762-2.633
	c-3.965-0.964-9.746,0.117-14.807-7.727c-0.003-0.005-0.01-0.015-0.013-0.02s-0.01-0.015-0.013-0.02
	c-1.429-2.121-2.176-4.578-3.064-6.877c-0.75-1.352-1.61-2.67-2.811-3.826c-2.568-2.562-5.156-2.802-7.203-6.201
	c-2.058-3.334-4.351-6.53-6.545-10.062c-0.581-0.933-1.142-1.874-1.68-2.829c-0.883-1.559-1.764-3.514-2.696-5.519
	c-2.206-3.758-4.938-8.265-8.031-11.186c-0.716-0.619-1.476-1.118-2.28-1.463c-0.495-0.166-0.911-0.3-1.331-0.382
	c-0.441-0.087-0.839-0.112-1.198-0.102c-4.928,1.708-3.385,10.535-9.209,13.319c-5.132,2.761-13.602,5.427-21.286,6.657
	c-2.804,0.43-5.517,0.669-7.963,0.662c-0.444,0.021-1.219-0.033-1.638-0.033c-0.283,0-0.78-0.047-1.051-0.058
	c-0.77-0.031-2.005-0.341-2.631-0.461c-7.687-3.478-10.696-11.671-14.984-17.271c-0.571-0.76-1.206-1.552-1.825-2.194
	c-0.434-0.413-1.427-1.134-1.921-1.484c-0.157-0.111-0.441-0.384-0.605-0.488c-0.408-0.546-1.149-1.64-1.423-2.199
	c-4.503-7.966-0.873-16.695-3.326-24.063c-0.154-0.529-0.33-1.089-0.542-1.614c-2.161-4.874-6.033-14.476-3.356-19.415
	c2.226-3.772,7.937-7.056,12.919-7.917c2.962-0.512,5.618-0.096,7.074,1.452c1.254,1.418,2.095,3.106,3.923,2.77
	c0.711-0.13,1.505-0.563,2.549-1.306c2.229-1.666,2.714-3.925,2.517-6.164c-0.1-1.095-0.367-2.183-0.678-3.191
	c-0.344-1.977-1.769-6.729-3.127-10.135c-1.044-1.776-2.071-3.239-2.928-3.859c-0.802-0.489-1.52-0.705-2.237-0.831
	c-0.92-0.162-1.84-0.144-2.712-0.311c-1.083-0.208-2.156-0.678-3.341-2.036c-2.781-3.242-3-7.22-2.208-11.41
	c0.101-0.552,0.179-1.092,0.238-1.625c0.107-1.449-0.005-2.989-0.202-4.465c-0.215-1.623-0.559-3.293-0.921-5.121
	c-0.172-0.872-0.348-1.777-0.514-2.728c-0.997-5.685-0.982-9.923,3.966-13.743c1.974-1.506,3.679-1.437,5.578-2.115
	c0.635-0.225,1.293-0.537,1.992-1.023c2.989-2.061,5.9-5.119,9.425-5.666c1.304-0.202,2.705-0.035,4.245,0.654
	c3.227,1.468,3.796,5.079,7.332,6.582c1.29,0.611,2.63,0.902,3.898,0.793c1.706-0.155,3.247-1.01,4.136-2.891
	c1.789-3.182-0.691-6.84-1.385-10.016c-0.355-1.564-0.264-3.056,0.879-4.356c0.396-0.465,0.69-0.93,0.897-1.395
	c0.968-7.133-12.55-14.124-10.235-23.044C99.005,75.91,104.851,72.299,111.437,72.299"/>
<path class="st1" d="M110.165,69.188L110.165,69.188c3.455,0,7.059,1.079,9.668,2.881c7.471,6.177,7.521,6.384,14.506,8.524
	c0.092,0.018,0.269,0.111,0.364,0.13c0.094,0.019,0.27,0.115,0.367,0.135c0.638,0.241,1.309,0.482,2.022,0.73
	c0.495,0.286,0.947,0.614,1.367,0.972c0.892,0.574,1.723,1.302,2.574,2.082c0.381,0.52,1.399,1.201,1.78,1.721
	c0.397,0.541,1.415,1.337,1.877,1.784c0.722,0.586,1.489,1.096,2.344,1.468c0.981,0.338,2.024,0.554,3.122,0.728
	c1.97,0.311,3.945,0.491,5.746,0.786c0.092-0.003,0.184-0.005,0.275-0.006c0.188-0.004,0.381-0.006,0.579-0.005
	c0.466,0.001,0.964,0.004,1.484,0.052c1.689,0.002,3.395,0.037,5.098,0.073c1.75,0.037,3.483,0.075,5.189,0.081
	c0.208,0.001,0.418,0.001,0.628,0.001c0.824-0.001,1.661-0.009,2.497-0.029c2.171-0.452,4.384-1.064,6.659-1.844
	c1.971-0.591,3.683-1.549,5.264-2.704c6.423-4.682,9.897-12.478,18.813-12.478c0.906,0,1.838,0.088,2.829,0.22
	c0.009,0.001,0.095,0.001,0.104,0.002c0.429,0.009,0.855,0.015,1.275,0.018c1.927-0.056,3.95-0.229,6.006-0.425
	c3.746-0.357,7.642-0.8,11.611-0.8c1.805,0,3.554,0.094,5.333,0.322c1.275,0.169,2.41,0.54,3.467,1.019
	c0.016,0.009,0.051,0.022,0.067,0.031c0.016,0.01,0.051,0.022,0.067,0.031c3.712,1.711,6.338,4.778,10.309,5.185
	c0.039,0.021,0.461,0.042,0.499,0.063c0.433,0.031,0.828,0.04,1.195,0.032c0.071-0.015,0.202-0.051,0.27-0.069
	c0.34-0.087,0.963-0.266,1.244-0.397c1.549-0.608,2.761-1.458,4.726-1.974c0.993-0.169,1.948-0.253,2.944-0.253
	c5.16,0,10.276,2.093,14.652,4.004c3.653,1.605,5.128,4.072,7.358,6.337c0.257,0.253,0.534,0.488,0.825,0.712
	c2.017,1.505,4.63,2.598,6.636,4.508c2.307,2.176,3.447,4.836,6.036,5.92c0.518,0.239,1.027,0.393,1.528,0.507
	c0.15,0.034,0.298,0.065,0.446,0.09c1.486,0.095,2.993-0.146,4.516-0.288c0.958-0.302,1.915-0.582,2.88-0.741
	c1.425-0.222,2.816-0.313,4.216-0.313c11.998,0,23.013,7.659,28.792,17.873c2.388,3.954,2.722,9.117,3.812,13.624
	c0.535,2.481,1.272,4.141,0.79,6.59c-0.47,2.141-1.365,3.087-2.368,4.004c-0.757,0.707-1.591,1.388-2.354,2.561
	c-3.94,5.806,3.113,7.444,5.013,10.798c0.428,0.791,0.802,1.674,1.135,2.431c0.005,0.01,0.011,0.03,0.016,0.04
	c0.005,0.009,0.011,0.03,0.016,0.04c0.087,0.204,0.176,0.445,0.263,0.694c1.37,3.479,1.862,8.225,1.262,12.674
	c-0.174,1.465-0.352,2.951-0.55,4.454c-0.001,0.013-0.006,0.037-0.006,0.05c0,0.013-0.006,0.037-0.006,0.05
	c-0.006,0.043-0.011,0.086-0.017,0.13c0.877,8.59,1.134,17.335,0.668,24.587c-0.301,4.604-0.733,9.273-1.606,13.944
	c-1.186,7.305-0.727,14.759-2.896,22.349c-0.136,0.473-0.271,0.992-0.413,1.545c-0.161,0.58-0.312,1.18-0.459,1.791
	c-0.902,3.413-1.581,7.047-2.454,11.196c-0.001,0.011-0.01,0.043-0.011,0.055c-0.001,0.011-0.01,0.043-0.011,0.055
	c-0.05,0.238-0.096,0.47-0.137,0.698c-0.241,1.107-0.401,1.964-0.582,2.852c-0.005,0.019-0.014,0.079-0.019,0.098
	c-0.005,0.019-0.014,0.079-0.02,0.098c-2.015,10.273-11.284,18.575-18.959,25.288c-0.353,0.309-0.702,0.614-1.046,0.915
	c-0.332,0.498-0.671,1.011-1.018,1.536c-0.088,0.077-0.213,0.356-0.3,0.433c-0.087,0.077-0.226,0.353-0.313,0.429
	c-1.222,1.679-2.481,3.287-3.731,4.819c-4.668,4.926-4.541,8.064-7.358,13.616c-3.186,6.612-11.226,11.066-19.008,14.503
	c-2.039,0.895-4.056,1.727-5.879,2.485c-0.17,0.069-0.489,0.205-0.657,0.273c-0.753,0.378-1.54,0.811-2.274,1.2
	c-1.526,0.774-3.013,1.572-4.411,2.379c-8.646,3.813-11.369,13.635-22.731,14.312c-1.344,0.189-2.8,0.43-4.335,0.685
	c-1.753,0.332-3.72,0.75-5.748,1.157c-3.967,0.797-8.211,1.568-12.216,1.696c-2.394,0.077-4.65-0.105-6.721-0.651
	c-1.274-0.354-2.36-0.814-3.304-1.359c-4.959-2.912-5.659-8.225-9.079-12.486c-3.803-4.45-11.403-4.005-15.768-8.847
	c-1.304-1.446-1.88-2.877-2.337-4.345c-0.476-1.525-0.81-3.066-1.687-4.67c-0.705-1.432-1.634-2.223-2.716-2.747
	c-4.04-1.009-9.869-0.138-14.973-7.911c-0.003-0.005-0.011-0.015-0.014-0.02c-0.003-0.005-0.011-0.015-0.014-0.02
	c-1.481-2.148-2.281-4.618-3.197-6.931c-0.806-1.316-1.723-2.609-2.966-3.757c-2.61-2.518-5.244-2.855-7.36-6.24
	c-2.127-3.325-4.474-6.558-6.71-10.165c-0.591-0.95-1.158-1.908-1.699-2.877c-0.905-1.617-1.789-3.601-2.71-5.613
	c-2.268-3.706-5.089-8.204-8.206-11.315c-0.708-0.639-1.461-1.165-2.259-1.546c-0.487-0.183-0.898-0.338-1.316-0.442
	c-0.434-0.108-0.83-0.154-1.187-0.17c-4.991,1.78-3.884,10.322-9.806,13.079c-5.367,2.763-13.933,5.386-21.662,6.557
	c-2.848,0.41-5.6,0.622-8.084,0.586c-0.423,0.02-1.262-0.05-1.661-0.05c-0.27,0-0.808-0.057-1.066-0.068
	c-0.734-0.03-2.064-0.395-2.661-0.509c-8.014-3.625-11.224-12.003-15.514-17.68c-0.581-0.785-1.233-1.619-1.855-2.277
	c-0.414-0.393-1.517-1.18-1.987-1.513c-0.15-0.106-0.457-0.415-0.613-0.513c-0.389-0.52-1.214-1.723-1.476-2.255
	c-4.804-8.276-1.299-17.311-3.609-24.715c-0.144-0.545-0.308-1.129-0.509-1.67c-2.138-4.821-5.97-14.291-3.511-19.385
	c2.062-3.839,7.457-7.259,12.225-8.336c2.824-0.638,5.378-0.372,6.802,0.963c1.219,1.256,2.055,2.777,3.836,2.359
	c0.697-0.164,1.473-0.619,2.49-1.368c2.174-1.681,2.698-3.923,2.584-6.144c-0.06-1.085-0.278-2.162-0.536-3.162
	c-0.198-2.016-1.409-6.658-2.545-10.001c-1.022-1.76-2.026-3.224-2.864-3.891c-0.775-0.503-1.467-0.75-2.16-0.907
	c-0.886-0.202-1.773-0.228-2.61-0.436c-1.043-0.26-2.071-0.775-3.204-2.137c-2.661-3.26-2.862-7.237-2.076-11.431
	c0.1-0.55,0.179-1.09,0.239-1.622c0.097-1.424-0.029-2.983-0.23-4.459c-0.219-1.616-0.563-3.286-0.923-5.115
	c-0.171-0.871-0.346-1.775-0.51-2.723c-0.983-5.63-0.987-9.908,3.758-13.807c1.892-1.532,3.535-1.567,5.372-2.315
	c0.614-0.248,1.252-0.58,1.929-1.079c2.896-2.108,5.742-5.187,9.213-5.871c1.281-0.252,2.661-0.152,4.178,0.445
	c3.182,1.271,3.857,4.585,7.389,5.899c1.277,0.548,2.603,0.792,3.864,0.655c1.7-0.194,3.243-1.046,4.162-2.87
	c1.916-3.124-0.252-6.646-0.768-9.689c-0.281-1.526-0.129-2.988,1.034-4.268c0.4-0.456,0.704-0.912,0.926-1.367
	c0.724-7.28-12.118-14.372-9.837-23.17C96.569,73.234,102.928,69.188,110.165,69.188"/>
<path class="st1" d="M108.893,66.077L108.893,66.077c3.503,0,7.146,1.055,9.835,2.824c7.458,5.965,7.839,6.338,14.746,8.613
	c0.088,0.017,0.276,0.124,0.367,0.142c0.089,0.018,0.276,0.128,0.369,0.147c0.643,0.264,1.314,0.526,2.023,0.792
	c0.498,0.299,0.954,0.636,1.378,1c0.909,0.557,1.77,1.264,2.661,2.023c0.362,0.494,1.492,1.176,1.854,1.67
	c0.377,0.514,1.495,1.34,1.934,1.765c0.742,0.582,1.523,1.094,2.385,1.477c0.995,0.357,2.045,0.599,3.141,0.806
	c1.988,0.375,3.958,0.64,5.75,1.007c0.093-0.002,0.186-0.005,0.279-0.006c0.188-0.004,0.384-0.005,0.586-0.005
	c0.473,0.001,0.984,0.005,1.522,0.053c1.716,0.003,3.445,0.038,5.169,0.075c1.778,0.037,3.534,0.076,5.259,0.081
	c0.21,0.001,0.422,0.001,0.635,0.001c0.832-0.001,1.681-0.009,2.529-0.03c2.141-0.533,4.341-1.241,6.624-2.112
	c1.954-0.648,3.673-1.646,5.282-2.828c6.502-4.764,10.282-12.338,19.261-12.338c0.923,0,1.87,0.086,2.867,0.216
	c0.011,0.001,0.095,0.002,0.105,0.003c0.436,0.011,0.868,0.019,1.293,0.025c1.942-0.058,3.996-0.235,6.086-0.435
	c3.786-0.362,7.746-0.808,11.796-0.808c1.83,0,3.602,0.094,5.401,0.319c1.288,0.167,2.442,0.528,3.52,0.994
	c0.016,0.009,0.053,0.021,0.068,0.03c0.015,0.009,0.053,0.021,0.068,0.031c3.804,1.667,6.531,4.672,10.491,5.16
	c0.046,0.025,0.457,0.05,0.503,0.076c0.434,0.042,0.832,0.064,1.202,0.07c0.067-0.014,0.208-0.054,0.272-0.07
	c0.323-0.083,0.995-0.268,1.262-0.393c1.58-0.599,2.839-1.422,4.812-1.919c1-0.164,1.963-0.247,2.966-0.247
	c5.251,0,10.431,2.061,14.866,3.97c3.693,1.6,5.289,4.032,7.571,6.261c0.266,0.25,0.55,0.484,0.848,0.706
	c2.084,1.509,4.708,2.639,6.733,4.549c2.356,2.198,3.561,4.862,6.111,6.01c0.516,0.258,1.022,0.433,1.517,0.57
	c0.149,0.041,0.296,0.079,0.442,0.112c1.484,0.135,3.002-0.037,4.541-0.1c0.972-0.296,1.942-0.569,2.92-0.725
	c1.441-0.218,2.851-0.308,4.272-0.308c12.17,0,23.382,7.569,29.472,17.771c2.511,3.957,3.046,9.097,4.267,13.642
	c0.593,2.478,1.373,4.182,0.986,6.641c-0.389,2.139-1.188,3.146-2.094,4.129c-0.681,0.759-1.443,1.493-2.142,2.692
	c-3.634,5.882,3.073,7.78,4.883,11.21c0.407,0.818,0.764,1.733,1.084,2.486c0.005,0.009,0.011,0.032,0.015,0.041
	c0.005,0.009,0.01,0.032,0.015,0.041c0.084,0.204,0.171,0.452,0.256,0.707c1.322,3.461,1.829,8.264,1.168,12.86
	c-0.187,1.48-0.385,2.984-0.611,4.507c0,0.012-0.007,0.039-0.007,0.051c0,0.012-0.007,0.039-0.007,0.051
	c-0.006,0.044-0.013,0.087-0.019,0.131c1.11,8.781,1.347,17.728,0.881,24.907c-0.308,4.651-0.719,9.389-1.548,14.148
	c-1.127,7.598-0.691,15.427-2.948,23.406c-0.139,0.489-0.275,1.035-0.417,1.62c-0.159,0.605-0.308,1.235-0.454,1.881
	c-0.882,3.524-1.562,7.363-2.546,11.726c-0.001,0.011-0.011,0.046-0.012,0.057c-0.001,0.011-0.011,0.046-0.012,0.057
	c-0.057,0.25-0.108,0.493-0.154,0.729c-0.275,1.182-0.44,2.064-0.618,2.985c-0.005,0.018-0.014,0.085-0.019,0.103
	s-0.015,0.085-0.02,0.103c-2.033,10.927-11.738,19.6-19.687,26.552c-0.37,0.323-0.736,0.643-1.095,0.957
	c-0.323,0.531-0.653,1.081-0.995,1.646c-0.083,0.073-0.212,0.389-0.295,0.462c-0.083,0.073-0.228,0.385-0.31,0.457
	c-1.212,1.791-2.483,3.505-3.768,5.138c-4.67,5.105-4.921,8.458-8.1,14.045c-3.465,6.554-11.575,10.976-19.347,14.394
	c-2.067,0.902-4.105,1.743-5.926,2.503c-0.161,0.066-0.502,0.212-0.662,0.277c-0.744,0.389-1.533,0.846-2.263,1.252
	c-1.505,0.796-2.984,1.628-4.391,2.474c-8.494,3.904-11.522,13.587-22.977,14.343c-1.359,0.193-2.826,0.432-4.373,0.681
	c-1.754,0.33-3.742,0.751-5.795,1.164c-3.979,0.8-8.25,1.584-12.31,1.739c-2.403,0.091-4.678-0.069-6.779-0.58
	c-1.28-0.332-2.383-0.767-3.351-1.285c-5.069-2.767-6.052-7.868-9.598-12.026c-3.997-4.371-11.543-4.182-15.936-9.09
	c-1.305-1.457-1.913-2.905-2.401-4.393c-0.51-1.547-0.874-3.108-1.746-4.726c-0.706-1.449-1.618-2.284-2.67-2.86
	c-4.114-1.055-9.992-0.392-15.139-8.095c-0.003-0.005-0.011-0.015-0.014-0.02c-0.003-0.005-0.011-0.015-0.014-0.02
	c-1.532-2.175-2.387-4.658-3.329-6.986c-0.863-1.28-1.836-2.547-3.121-3.687c-2.652-2.475-5.333-2.907-7.517-6.278
	c-2.197-3.315-4.596-6.587-6.875-10.269c-0.601-0.968-1.174-1.942-1.719-2.924c-0.927-1.675-1.813-3.689-2.723-5.708
	c-2.331-3.654-5.241-8.144-8.381-11.443c-0.7-0.658-1.446-1.211-2.238-1.628c-0.479-0.201-0.885-0.376-1.3-0.501
	c-0.427-0.129-0.82-0.197-1.176-0.238c-5.054,1.851-4.383,10.11-10.402,12.839c-5.601,2.766-14.264,5.344-22.039,6.456
	c-2.892,0.389-5.684,0.575-8.206,0.51c-0.402,0.019-1.306-0.068-1.685-0.068c-0.256,0-0.836-0.067-1.081-0.077
	c-0.697-0.028-2.123-0.449-2.69-0.557c-8.341-3.773-11.752-12.336-16.044-18.089c-0.59-0.81-1.26-1.686-1.884-2.359
	c-0.393-0.373-1.607-1.226-2.054-1.543c-0.142-0.101-0.472-0.445-0.621-0.539c-0.37-0.494-1.28-1.805-1.528-2.312
	c-5.106-8.585-1.725-17.926-3.893-25.367c-0.134-0.561-0.286-1.17-0.476-1.727c-2.114-4.768-5.906-14.106-3.666-19.355
	c1.898-3.906,6.975-7.459,11.531-8.755c2.684-0.764,5.139-0.648,6.531,0.474c1.185,1.094,2.017,2.447,3.749,1.948
	c0.683-0.197,1.441-0.676,2.431-1.431c2.12-1.695,2.682-3.921,2.65-6.125c-0.021-1.076-0.19-2.141-0.394-3.132
	c-0.053-2.055-1.049-6.587-1.963-9.867c-1-1.743-1.98-3.21-2.799-3.923c-0.747-0.517-1.415-0.794-2.083-0.983
	c-0.851-0.241-1.705-0.312-2.507-0.562c-1.002-0.312-1.986-0.872-3.067-2.238c-2.54-3.279-2.725-7.254-1.944-11.452
	c0.099-0.548,0.178-1.087,0.241-1.619c0.087-1.399-0.053-2.977-0.259-4.452c-0.223-1.609-0.567-3.279-0.925-5.11
	c-0.171-0.87-0.343-1.773-0.507-2.719c-0.968-5.575-0.992-9.892,3.549-13.871c1.811-1.558,3.391-1.696,5.167-2.515
	c0.593-0.271,1.21-0.624,1.867-1.136c2.803-2.155,5.585-5.254,9.002-6.075c1.259-0.303,2.618-0.268,4.112,0.237
	c3.137,1.074,3.919,4.09,7.445,5.217c1.263,0.485,2.576,0.681,3.83,0.518c1.695-0.232,3.239-1.082,4.188-2.848
	c2.043-3.065,0.187-6.452-0.15-9.361c-0.207-1.489,0.007-2.921,1.19-4.181c0.404-0.447,0.717-0.893,0.954-1.339
	c0.48-7.427-11.686-14.619-9.44-23.296C94.133,70.558,101.005,66.077,108.893,66.077"/>
<path class="st1" d="M107.62,62.966L107.62,62.966c3.551,0,7.233,1.031,10.002,2.767c7.445,5.754,8.158,6.293,14.986,8.702
	c0.083,0.017,0.283,0.136,0.369,0.154c0.085,0.017,0.283,0.142,0.371,0.159c0.648,0.287,1.32,0.571,2.024,0.854
	c0.502,0.312,0.961,0.659,1.388,1.029c0.926,0.541,1.817,1.225,2.749,1.963c0.343,0.468,1.584,1.15,1.928,1.618
	c0.357,0.487,1.576,1.343,1.992,1.745c0.761,0.578,1.557,1.092,2.426,1.485c1.009,0.377,2.066,0.644,3.161,0.885
	c2.005,0.44,3.972,0.789,5.754,1.228c0.094-0.002,0.189-0.004,0.283-0.006c0.189-0.003,0.387-0.005,0.593-0.005
	c0.48,0.001,1.004,0.006,1.56,0.054c1.743,0.003,3.496,0.039,5.24,0.076c1.806,0.038,3.585,0.077,5.33,0.082
	c0.212,0.001,0.426,0.001,0.641,0.001c0.841-0.001,1.701-0.01,2.561-0.032c2.112-0.613,4.298-1.417,6.59-2.379
	c1.937-0.705,3.664-1.744,5.3-2.952c6.58-4.846,10.667-12.197,19.709-12.197c0.941,0,1.902,0.085,2.905,0.212
	c0.013,0.001,0.094,0.002,0.107,0.003c0.443,0.012,0.88,0.023,1.31,0.031c1.957-0.06,4.041-0.241,6.167-0.445
	c3.827-0.366,7.85-0.815,11.982-0.815c1.854,0,3.65,0.093,5.469,0.316c1.3,0.165,2.473,0.515,3.574,0.968
	c0.015,0.009,0.055,0.021,0.07,0.029c0.015,0.009,0.055,0.021,0.069,0.03c3.896,1.622,6.723,4.566,10.673,5.136
	c0.054,0.029,0.453,0.059,0.506,0.088c0.435,0.054,0.836,0.088,1.209,0.107c0.064-0.014,0.213-0.056,0.274-0.072
	c0.306-0.079,1.028-0.271,1.28-0.389c1.612-0.59,2.916-1.385,4.899-1.863c1.006-0.16,1.979-0.24,2.989-0.24
	c5.342,0,10.585,2.028,15.079,3.936c3.732,1.595,5.451,3.992,7.785,6.184c0.275,0.248,0.566,0.48,0.87,0.7
	c2.151,1.513,4.786,2.681,6.83,4.591c2.405,2.22,3.674,4.888,6.185,6.099c0.514,0.277,1.016,0.474,1.505,0.633
	c0.148,0.048,0.293,0.094,0.437,0.133c1.483,0.175,3.011,0.072,4.566,0.088c0.985-0.29,1.969-0.556,2.961-0.71
	c1.457-0.214,2.886-0.304,4.328-0.304c12.343,0,23.751,7.478,30.152,17.669c2.633,3.961,3.37,9.077,4.722,13.659
	c0.652,2.475,1.474,4.223,1.182,6.692c-0.309,2.138-1.011,3.206-1.82,4.255c-0.606,0.81-1.294,1.597-1.93,2.824
	c-3.328,5.958,3.033,8.117,4.752,11.623c0.387,0.846,0.727,1.792,1.033,2.542c0.004,0.009,0.01,0.033,0.015,0.042
	c0.004,0.009,0.01,0.033,0.015,0.042c0.08,0.204,0.166,0.459,0.249,0.721c1.274,3.444,1.795,8.303,1.074,13.046
	c-0.2,1.494-0.418,3.016-0.672,4.56c0,0.011-0.008,0.04-0.008,0.051c0,0.011-0.008,0.04-0.008,0.051
	c-0.007,0.044-0.014,0.088-0.021,0.132c1.344,8.973,1.559,18.121,1.094,25.227c-0.315,4.699-0.704,9.506-1.49,14.351
	c-1.068,7.892-0.655,16.094-3.001,24.462c-0.143,0.506-0.28,1.077-0.421,1.694c-0.157,0.63-0.304,1.291-0.448,1.971
	c-0.862,3.636-1.543,7.679-2.637,12.257c-0.001,0.01-0.013,0.049-0.014,0.059c-0.001,0.01-0.013,0.049-0.014,0.059
	c-0.063,0.262-0.12,0.515-0.172,0.761c-0.308,1.256-0.478,2.164-0.654,3.118c-0.005,0.017-0.014,0.092-0.019,0.109
	c-0.005,0.017-0.015,0.091-0.02,0.108c-2.051,11.581-12.193,20.625-20.415,27.816c-0.386,0.338-0.769,0.672-1.143,1
	c-0.313,0.564-0.636,1.15-0.973,1.755c-0.079,0.069-0.211,0.422-0.289,0.491c-0.079,0.069-0.23,0.417-0.307,0.486
	c-1.201,1.903-2.484,3.723-3.806,5.458c-4.673,5.284-5.302,8.852-8.842,14.474c-3.744,6.496-11.923,10.885-19.686,14.285
	c-2.094,0.91-4.155,1.758-5.973,2.52c-0.153,0.062-0.515,0.219-0.666,0.28c-0.736,0.4-1.526,0.882-2.252,1.304
	c-1.483,0.818-2.954,1.684-4.37,2.569c-8.342,3.994-11.674,13.54-23.222,14.373c-1.373,0.197-2.853,0.434-4.411,0.676
	c-1.755,0.328-3.765,0.753-5.841,1.171c-3.992,0.804-8.29,1.6-12.404,1.781c-2.411,0.106-4.705-0.032-6.837-0.509
	c-1.287-0.311-2.406-0.72-3.398-1.211c-5.179-2.621-6.446-7.511-10.118-11.567c-4.191-4.291-11.683-4.359-16.103-9.333
	c-1.307-1.468-1.946-2.932-2.466-4.441c-0.543-1.569-0.937-3.151-1.804-4.782c-0.707-1.465-1.602-2.345-2.625-2.974
	c-4.188-1.1-10.114-0.646-15.305-8.28c-0.003-0.005-0.012-0.016-0.015-0.02c-0.003-0.005-0.012-0.016-0.015-0.021
	c-1.583-2.202-2.493-4.698-3.461-7.04c-0.92-1.245-1.948-2.485-3.275-3.618c-2.693-2.431-5.422-2.96-7.674-6.316
	c-2.266-3.306-4.719-6.616-7.04-10.372c-0.611-0.985-1.19-1.975-1.738-2.972c-0.95-1.733-1.838-3.777-2.737-5.802
	c-2.393-3.602-5.392-8.083-8.556-11.572c-0.692-0.678-1.431-1.258-2.217-1.711c-0.471-0.218-0.873-0.414-1.285-0.561
	c-0.42-0.149-0.81-0.239-1.165-0.306c-5.117,1.923-4.882,9.898-10.999,12.599c-5.836,2.768-14.594,5.302-22.415,6.356
	c-2.936,0.369-5.767,0.528-8.328,0.435c-0.381,0.018-1.35-0.086-1.709-0.086c-0.243,0-0.864-0.078-1.096-0.087
	c-0.66-0.027-2.182-0.503-2.719-0.605c-8.667-3.921-12.28-12.668-16.573-18.498c-0.6-0.835-1.287-1.752-1.913-2.442
	c-0.372-0.354-1.697-1.273-2.121-1.572c-0.135-0.095-0.488-0.476-0.629-0.565c-0.35-0.468-1.346-1.888-1.581-2.368
	c-5.407-8.895-2.151-18.541-4.176-26.019c-0.123-0.577-0.264-1.211-0.443-1.784c-2.09-4.714-5.842-13.921-3.821-19.325
	c1.735-3.973,6.491-7.658,10.836-9.175c2.545-0.888,4.899-0.924,6.259-0.016c1.15,0.933,1.978,2.116,3.662,1.536
	c0.67-0.231,1.409-0.733,2.372-1.494c2.065-1.709,2.666-3.92,2.717-6.105c0.019-1.066-0.101-2.121-0.253-3.103
	c0.093-2.094-0.689-6.516-1.381-9.734c-0.979-1.727-1.935-3.196-2.735-3.955c-0.72-0.531-1.362-0.837-2.006-1.059
	c-0.817-0.281-1.638-0.397-2.405-0.688c-0.962-0.365-1.901-0.97-2.931-2.339c-2.419-3.297-2.587-7.271-1.813-11.472
	c0.098-0.547,0.178-1.085,0.242-1.617c0.076-1.375-0.076-2.971-0.287-4.445c-0.226-1.602-0.57-3.272-0.927-5.104
	c-0.17-0.87-0.341-1.771-0.503-2.715c-0.954-5.521-0.998-9.877,3.341-13.934c1.729-1.584,3.248-1.826,4.962-2.715
	c0.573-0.294,1.169-0.667,1.805-1.192c2.711-2.202,5.427-5.32,8.79-6.28c1.237-0.353,2.574-0.385,4.045,0.028
	c3.091,0.877,3.98,3.596,7.502,4.534c1.25,0.421,2.55,0.571,3.797,0.38c1.689-0.271,3.235-1.119,4.214-2.827
	c2.17-3.007,0.626-6.258,0.467-9.033c-0.133-1.451,0.142-2.854,1.346-4.093c0.408-0.437,0.731-0.874,0.982-1.311
	c0.236-7.574-11.254-14.866-9.042-23.422C91.696,67.881,99.082,62.966,107.62,62.966"/>
<path class="st1" d="M106.348,59.855L106.348,59.855c3.599,0,7.32,1.007,10.17,2.71c7.431,5.542,8.477,6.247,15.227,8.791
	c0.078,0.016,0.29,0.149,0.372,0.166c0.08,0.016,0.289,0.155,0.372,0.172c0.653,0.311,1.325,0.615,2.025,0.917
	c0.505,0.325,0.968,0.681,1.398,1.057c0.943,0.524,1.864,1.187,2.836,1.904c0.324,0.442,1.677,1.125,2.002,1.567
	c0.337,0.46,1.656,1.346,2.049,1.726c0.781,0.575,1.591,1.091,2.467,1.494c1.023,0.396,2.087,0.69,3.181,0.963
	c2.023,0.505,3.985,0.939,5.758,1.449c0.096-0.002,0.191-0.004,0.286-0.006c0.19-0.003,0.39-0.005,0.599-0.004
	c0.487,0.001,1.024,0.006,1.597,0.055c1.769,0.004,3.546,0.04,5.311,0.078c1.835,0.039,3.636,0.078,5.4,0.083
	c0.214,0.001,0.43,0.001,0.648,0c0.849-0.001,1.721-0.01,2.594-0.033c2.082-0.694,4.254-1.594,6.555-2.647
	c1.92-0.762,3.654-1.841,5.318-3.077c6.659-4.928,11.052-12.057,20.158-12.057c0.959,0,1.933,0.083,2.943,0.208
	c0.014,0.001,0.094,0.002,0.109,0.003c0.45,0.014,0.893,0.027,1.328,0.038c1.972-0.061,4.087-0.247,6.247-0.455
	c3.868-0.371,7.954-0.823,12.168-0.823c1.879,0,3.699,0.093,5.537,0.313c1.313,0.163,2.504,0.503,3.627,0.943
	c0.014,0.008,0.057,0.02,0.071,0.028c0.014,0.008,0.057,0.021,0.071,0.029c3.987,1.578,6.916,4.46,10.855,5.111
	c0.062,0.034,0.45,0.067,0.51,0.101c0.437,0.065,0.84,0.112,1.216,0.144c0.06-0.013,0.219-0.058,0.276-0.073
	c0.289-0.074,1.06-0.274,1.298-0.385c1.643-0.582,2.994-1.348,4.985-1.808c1.013-0.155,1.994-0.233,3.011-0.233
	c5.433,0,10.739,1.996,15.293,3.901c3.772,1.589,5.613,3.952,7.999,6.107c0.284,0.245,0.582,0.475,0.892,0.694
	c2.219,1.517,4.865,2.723,6.927,4.633c2.453,2.243,3.788,4.915,6.26,6.189c0.512,0.296,1.011,0.514,1.494,0.696
	c0.147,0.055,0.29,0.108,0.433,0.154c1.481,0.215,3.02,0.18,4.591,0.276c0.998-0.284,1.996-0.543,3.001-0.694
	c1.473-0.211,2.921-0.299,4.384-0.299c12.515,0,24.12,7.388,30.832,17.567c2.756,3.964,3.693,9.057,5.177,13.677
	c0.711,2.472,1.575,4.264,1.379,6.743c-0.229,2.136-0.834,3.266-1.546,4.381c-0.53,0.862-1.146,1.701-1.718,2.955
	c-3.021,6.035,2.993,8.454,4.622,12.035c0.367,0.873,0.69,1.852,0.983,2.597c0.004,0.008,0.01,0.034,0.014,0.042
	c0.004,0.008,0.01,0.034,0.014,0.042c0.077,0.204,0.16,0.465,0.242,0.735c1.226,3.427,1.761,8.343,0.979,13.232
	c-0.213,1.509-0.451,3.049-0.734,4.613c0,0.011-0.009,0.041-0.009,0.052c0,0.011-0.009,0.041-0.009,0.052
	c-0.008,0.045-0.016,0.089-0.024,0.134c1.578,9.164,1.772,18.513,1.306,25.547c-0.322,4.747-0.689,9.623-1.432,14.554
	c-1.009,8.186-0.619,16.762-3.054,25.518c-0.146,0.522-0.284,1.119-0.425,1.768c-0.155,0.655-0.3,1.346-0.443,2.061
	c-0.843,3.747-1.524,7.995-2.729,12.787c-0.001,0.01-0.014,0.052-0.015,0.062c-0.001,0.01-0.014,0.052-0.015,0.062
	c-0.069,0.274-0.132,0.538-0.189,0.792c-0.341,1.33-0.516,2.264-0.69,3.251c-0.004,0.016-0.014,0.098-0.019,0.114
	c-0.004,0.016-0.015,0.098-0.02,0.114c-2.068,12.235-12.647,21.65-21.143,29.079c-0.403,0.353-0.802,0.701-1.192,1.043
	c-0.303,0.597-0.619,1.22-0.951,1.865c-0.075,0.065-0.21,0.455-0.284,0.52c-0.074,0.065-0.231,0.45-0.305,0.514
	c-1.191,2.014-2.486,3.942-3.843,5.777c-4.675,5.463-5.682,9.246-9.585,14.903c-4.023,6.437-12.272,10.795-20.024,14.176
	c-2.122,0.918-4.204,1.774-6.02,2.538c-0.144,0.059-0.528,0.226-0.671,0.283c-0.728,0.412-1.52,0.917-2.241,1.355
	c-1.462,0.841-2.925,1.741-4.35,2.665c-8.189,4.085-11.826,13.493-23.467,14.403c-1.387,0.202-2.879,0.437-4.449,0.672
	c-1.757,0.325-3.787,0.754-5.888,1.178c-4.004,0.807-8.33,1.616-12.498,1.824c-2.419,0.121-4.733,0.005-6.895-0.438
	c-1.293-0.289-2.429-0.674-3.444-1.137c-5.289-2.476-6.839-7.153-10.637-11.107c-4.385-4.212-11.823-4.536-16.271-9.576
	c-1.308-1.479-1.979-2.96-2.531-4.489c-0.577-1.592-1.001-3.194-1.863-4.838c-0.709-1.481-1.586-2.407-2.579-3.087
	c-4.263-1.146-10.237-0.9-15.471-8.464c-0.003-0.004-0.012-0.016-0.015-0.021s-0.012-0.016-0.015-0.021
	c-1.634-2.229-2.599-4.739-3.593-7.095c-0.977-1.209-2.061-2.424-3.43-3.549c-2.735-2.388-5.511-3.012-7.831-6.355
	c-2.335-3.296-4.842-6.644-7.204-10.475c-0.621-1.003-1.206-2.009-1.757-3.019c-0.972-1.791-1.862-3.865-2.751-5.897
	c-2.455-3.549-5.544-8.023-8.731-11.7c-0.684-0.698-1.416-1.304-2.196-1.794c-0.463-0.236-0.86-0.452-1.27-0.62
	c-0.414-0.17-0.801-0.282-1.154-0.374c-5.18,1.995-5.381,9.686-11.596,12.359c-6.071,2.771-14.925,5.26-22.791,6.255
	c-2.98,0.348-5.85,0.481-8.45,0.359c-0.36,0.017-1.393-0.104-1.732-0.104c-0.229,0-0.892-0.088-1.111-0.097
	c-0.624-0.025-2.242-0.556-2.749-0.653c-8.994-4.069-12.808-13-17.103-18.907c-0.61-0.86-1.314-1.819-1.943-2.524
	c-0.352-0.334-1.787-1.319-2.187-1.602c-0.127-0.09-0.504-0.507-0.637-0.591c-0.331-0.442-1.412-1.971-1.634-2.424
	c-5.708-9.205-2.577-19.157-4.459-26.671c-0.113-0.594-0.242-1.252-0.409-1.841c-2.067-4.661-5.779-13.736-3.975-19.294
	c1.571-4.04,6.006-7.854,10.142-9.594c2.404-1.011,4.66-1.2,5.988-0.505c1.116,0.771,1.94,1.784,3.574,1.125
	c0.657-0.265,1.377-0.789,2.313-1.556c2.011-1.723,2.65-3.918,2.783-6.085c0.058-1.056-0.012-2.1-0.111-3.073
	c0.238-2.134-0.329-6.445-0.799-9.6c-0.957-1.71-1.89-3.181-2.671-3.987c-0.693-0.546-1.309-0.881-1.929-1.135
	c-0.782-0.32-1.57-0.481-2.303-0.813c-0.921-0.417-1.816-1.067-2.794-2.44c-2.299-3.316-2.449-7.288-1.681-11.493
	c0.097-0.545,0.177-1.082,0.243-1.614c0.066-1.35-0.1-2.966-0.315-4.439c-0.23-1.595-0.574-3.265-0.929-5.098
	c-0.169-0.869-0.339-1.77-0.5-2.711c-0.939-5.466-1.003-9.862,3.132-13.998c1.647-1.61,3.104-1.955,4.756-2.915
	c0.552-0.317,1.128-0.71,1.743-1.249c2.618-2.249,5.269-5.387,8.578-6.484c1.214-0.403,2.53-0.502,3.978-0.18
	c3.046,0.68,4.041,3.102,7.559,3.852c1.236,0.358,2.523,0.46,3.763,0.242c1.684-0.31,3.23-1.155,4.241-2.806
	c2.297-2.949,1.064-6.064,1.085-8.706c-0.06-1.413,0.278-2.786,1.502-4.006c0.412-0.428,0.744-0.855,1.01-1.283
	c-0.007-7.722-10.823-15.114-8.644-23.548C89.26,65.205,97.159,59.855,106.348,59.855"/>
<path class="st1" d="M105.075,56.743L105.075,56.743c3.647,0,7.407,0.983,10.337,2.652c7.418,5.331,8.796,6.202,15.467,8.88
	c0.074,0.015,0.298,0.162,0.374,0.178c0.075,0.015,0.296,0.168,0.374,0.184c0.658,0.334,1.33,0.659,2.026,0.979
	c0.509,0.338,0.975,0.703,1.409,1.085c0.96,0.508,1.911,1.149,2.924,1.844c0.305,0.416,1.77,1.1,2.075,1.516
	c0.318,0.433,1.737,1.349,2.107,1.706c0.8,0.571,1.625,1.089,2.508,1.502c1.037,0.416,2.108,0.736,3.2,1.041
	c2.041,0.571,3.999,1.088,5.762,1.671c0.097-0.002,0.193-0.004,0.29-0.005c0.191-0.003,0.393-0.005,0.606-0.004
	c0.494,0.002,1.044,0.007,1.635,0.055c1.796,0.004,3.596,0.041,5.382,0.079c1.863,0.039,3.687,0.079,5.47,0.084
	c0.216,0.001,0.435,0.001,0.655,0c0.858-0.002,1.741-0.011,2.626-0.034c2.053-0.775,4.211-1.77,6.52-2.914
	c1.903-0.819,3.644-1.938,5.337-3.201c6.737-5.01,11.437-11.916,20.606-11.916c0.977,0,1.965,0.081,2.981,0.204
	c0.016,0.001,0.094,0.002,0.11,0.004c0.457,0.016,0.906,0.031,1.345,0.045c1.987-0.063,4.132-0.253,6.328-0.464
	c3.908-0.375,8.059-0.831,12.354-0.831c1.904,0,3.747,0.093,5.605,0.31c1.326,0.16,2.535,0.491,3.68,0.917
	c0.013,0.008,0.059,0.02,0.072,0.027c0.013,0.008,0.059,0.02,0.072,0.028c4.079,1.534,7.109,4.354,11.037,5.086
	c0.07,0.038,0.446,0.076,0.514,0.114c0.438,0.076,0.844,0.136,1.224,0.181c0.057-0.012,0.224-0.061,0.278-0.075
	c0.272-0.07,1.092-0.277,1.317-0.382c1.675-0.573,3.071-1.311,5.072-1.753c1.019-0.151,2.009-0.226,3.033-0.226
	c5.524,0,10.894,1.963,15.507,3.867c3.811,1.584,5.774,3.912,8.213,6.031c0.293,0.243,0.599,0.471,0.914,0.688
	c2.286,1.522,4.943,2.765,7.025,4.674c2.502,2.265,3.901,4.941,6.334,6.278c0.51,0.315,1.005,0.555,1.483,0.759
	c0.145,0.062,0.288,0.122,0.429,0.176c1.479,0.255,3.029,0.289,4.616,0.465c1.011-0.278,2.022-0.531,3.042-0.679
	c1.489-0.207,2.956-0.295,4.44-0.295c12.687,0,24.489,7.297,31.512,17.465c2.878,3.968,4.017,9.038,5.632,13.694
	c0.77,2.469,1.676,4.305,1.575,6.793c-0.149,2.134-0.657,3.326-1.272,4.507c-0.454,0.914-0.997,1.806-1.506,3.086
	c-2.715,6.111,2.954,8.791,4.492,12.447c0.347,0.901,0.652,1.911,0.932,2.653c0.004,0.008,0.01,0.036,0.014,0.043
	c0.004,0.008,0.01,0.036,0.014,0.043c0.073,0.204,0.155,0.472,0.235,0.749c1.179,3.41,1.728,8.382,0.885,13.418
	c-0.226,1.524-0.484,3.082-0.795,4.667c0,0.01-0.01,0.042-0.01,0.052c0,0.01-0.01,0.042-0.01,0.052
	c-0.009,0.045-0.017,0.09-0.026,0.135c1.811,9.356,1.984,18.906,1.519,25.867c-0.329,4.794-0.675,9.74-1.374,14.758
	c-0.95,8.479-0.584,17.43-3.107,26.575c-0.149,0.539-0.288,1.161-0.429,1.843c-0.153,0.68-0.296,1.402-0.437,2.15
	c-0.823,3.859-1.505,8.312-2.82,13.318c-0.001,0.009-0.015,0.055-0.016,0.064c-0.001,0.009-0.016,0.055-0.017,0.064
	c-0.076,0.286-0.144,0.56-0.206,0.824c-0.375,1.405-0.554,2.364-0.725,3.384c-0.004,0.015-0.015,0.104-0.019,0.119
	c-0.004,0.015-0.016,0.104-0.02,0.119c-2.086,12.889-13.102,22.676-21.872,30.343c-0.42,0.367-0.835,0.73-1.241,1.085
	c-0.293,0.63-0.601,1.29-0.928,1.975c-0.07,0.061-0.209,0.488-0.278,0.549c-0.07,0.061-0.233,0.482-0.302,0.543
	c-1.181,2.126-2.487,4.16-3.881,6.096c-4.678,5.642-6.062,9.639-10.327,15.331c-4.301,6.379-12.621,10.705-20.363,14.067
	c-2.15,0.925-4.253,1.789-6.068,2.556c-0.136,0.055-0.541,0.232-0.676,0.287c-0.719,0.423-1.513,0.952-2.23,1.407
	c-1.44,0.863-2.895,1.797-4.33,2.76c-8.037,4.176-11.978,13.445-23.713,14.434c-1.402,0.206-2.906,0.439-4.487,0.667
	c-1.758,0.323-3.81,0.756-5.935,1.185c-4.016,0.811-8.369,1.632-12.591,1.867c-2.428,0.135-4.761,0.041-6.953-0.366
	c-1.3-0.267-2.452-0.627-3.491-1.063c-5.399-2.33-7.233-6.796-11.157-10.648c-4.58-4.132-11.963-4.713-16.439-9.818
	c-1.309-1.489-2.012-2.988-2.596-4.537c-0.61-1.614-1.064-3.236-1.921-4.894c-0.71-1.497-1.57-2.468-2.533-3.201
	c-4.337-1.192-10.36-1.154-15.637-8.649c-0.003-0.004-0.013-0.017-0.015-0.021c-0.003-0.004-0.013-0.017-0.015-0.021
	c-1.686-2.256-2.705-4.779-3.725-7.149c-1.033-1.173-2.174-2.362-3.585-3.479c-2.777-2.344-5.6-3.065-7.988-6.393
	c-2.405-3.287-4.964-6.673-7.369-10.579c-0.631-1.02-1.222-2.043-1.777-3.067c-0.994-1.849-1.887-3.952-2.764-5.992
	c-2.517-3.497-5.695-7.962-8.907-11.829c-0.676-0.718-1.402-1.351-2.175-1.877c-0.454-0.253-0.847-0.49-1.254-0.68
	c-0.407-0.19-0.791-0.325-1.143-0.441c-5.243,2.066-5.88,9.474-12.192,12.119c-6.306,2.773-15.256,5.218-23.167,6.155
	c-3.024,0.328-5.934,0.435-8.571,0.283c-0.339,0.016-1.437-0.122-1.756-0.122c-0.216,0-0.92-0.098-1.126-0.106
	c-0.587-0.024-2.301-0.61-2.778-0.701c-9.32-4.216-13.336-13.332-17.633-19.316c-0.619-0.886-1.341-1.886-1.972-2.607
	c-0.331-0.314-1.877-1.365-2.254-1.632c-0.12-0.085-0.52-0.538-0.644-0.617c-0.311-0.416-1.478-2.054-1.686-2.48
	c-6.01-9.515-3.003-19.772-4.742-27.323c-0.103-0.61-0.221-1.292-0.376-1.897c-2.043-4.607-5.715-13.551-4.13-19.264
	c1.408-4.107,5.519-8.047,9.448-10.013c2.263-1.132,4.42-1.475,5.716-0.994c1.081,0.61,1.902,1.452,3.487,0.713
	c0.643-0.299,1.345-0.846,2.254-1.619c1.956-1.738,2.634-3.916,2.849-6.066c0.098-1.046,0.077-2.079,0.03-3.044
	c0.384-2.173,0.031-6.374-0.217-9.466c-0.935-1.693-1.844-3.167-2.606-4.02c-0.665-0.56-1.257-0.924-1.852-1.21
	c-0.747-0.359-1.503-0.566-2.201-0.939c-0.881-0.47-1.731-1.165-2.657-2.541c-2.178-3.334-2.311-7.304-1.549-11.513
	c0.096-0.543,0.177-1.08,0.245-1.611c0.055-1.325-0.124-2.96-0.344-4.432c-0.234-1.588-0.577-3.259-0.931-5.093
	c-0.168-0.869-0.337-1.768-0.496-2.707c-0.924-5.411-1.008-9.846,2.924-14.062c1.565-1.635,2.961-2.085,4.551-3.115
	c0.531-0.34,1.086-0.754,1.68-1.305c2.525-2.297,5.111-5.453,8.367-6.689c1.192-0.453,2.487-0.618,3.912-0.389
	c3.001,0.483,4.102,2.608,7.616,3.169c1.223,0.295,2.496,0.35,3.729,0.104c1.678-0.349,3.226-1.192,4.267-2.785
	c2.424-2.891,1.503-5.87,1.702-8.378c0.014-1.376,0.414-2.719,1.657-3.919c0.415-0.419,0.758-0.837,1.038-1.255
	c-0.251-7.869-10.391-15.361-8.247-23.674C86.824,62.528,95.236,56.743,105.075,56.743"/>
<path class="st1" d="M103.803,53.632L103.803,53.632c3.694,0,7.494,0.959,10.504,2.595c7.405,5.119,9.115,6.157,15.708,8.969
	c0.069,0.014,0.305,0.175,0.377,0.189c0.071,0.014,0.302,0.182,0.375,0.197c0.662,0.357,1.335,0.703,2.027,1.041
	c0.512,0.352,0.982,0.726,1.419,1.114c0.977,0.491,1.958,1.11,3.011,1.784c0.286,0.39,1.863,1.075,2.149,1.465
	c0.298,0.406,1.817,1.351,2.164,1.686c0.82,0.567,1.659,1.087,2.549,1.511c1.051,0.435,2.129,0.782,3.22,1.12
	c2.059,0.637,4.012,1.237,5.766,1.892c0.098-0.002,0.196-0.004,0.294-0.005c0.192-0.003,0.396-0.004,0.613-0.003
	c0.501,0.002,1.064,0.008,1.673,0.056c1.823,0.005,3.647,0.042,5.453,0.081c1.891,0.04,3.739,0.08,5.54,0.084
	c0.218,0.001,0.439,0.001,0.662,0c0.866-0.002,1.762-0.011,2.658-0.036c2.024-0.856,4.167-1.946,6.486-3.182
	c1.886-0.876,3.635-2.036,5.355-3.325c6.816-5.092,11.823-11.775,21.055-11.775c0.995,0,1.996,0.08,3.019,0.2
	c0.018,0.001,0.094,0.003,0.112,0.004c0.464,0.018,0.919,0.035,1.363,0.051c2.002-0.065,4.178-0.259,6.408-0.474
	c3.949-0.38,8.163-0.839,12.539-0.839c1.929,0,3.796,0.092,5.673,0.307c1.338,0.158,2.567,0.478,3.734,0.891
	c0.012,0.007,0.061,0.019,0.073,0.027c0.012,0.007,0.061,0.02,0.073,0.027c4.171,1.49,7.301,4.248,11.219,5.061
	c0.077,0.042,0.442,0.084,0.518,0.126c0.439,0.088,0.847,0.16,1.231,0.219c0.053-0.011,0.23-0.063,0.28-0.076
	c0.255-0.065,1.124-0.28,1.335-0.378c1.706-0.565,3.149-1.275,5.159-1.698c1.026-0.146,2.024-0.219,3.056-0.219
	c5.615,0,11.048,1.931,15.72,3.833c3.851,1.578,5.936,3.872,8.427,5.954c0.302,0.24,0.615,0.467,0.936,0.683
	c2.353,1.526,5.021,2.806,7.122,4.716c2.551,2.287,4.015,4.967,6.408,6.368c0.508,0.334,1,0.595,1.472,0.822
	c0.144,0.069,0.285,0.136,0.425,0.197c1.477,0.295,3.038,0.398,4.641,0.653c1.025-0.272,2.049-0.518,3.082-0.663
	c1.505-0.203,2.991-0.29,4.496-0.29c12.86,0,24.857,7.207,32.192,17.363c3,3.971,4.341,9.018,6.087,13.712
	c0.829,2.466,1.777,4.345,1.771,6.844c-0.068,2.133-0.48,3.386-0.998,4.633c-0.378,0.966-0.849,1.91-1.294,3.217
	c-2.409,6.187,2.914,9.127,4.362,12.86c0.327,0.928,0.615,1.97,0.881,2.708c0.004,0.007,0.01,0.037,0.013,0.044
	c0.004,0.007,0.009,0.037,0.013,0.044c0.07,0.204,0.15,0.478,0.228,0.763c1.131,3.393,1.694,8.422,0.791,13.604
	c-0.238,1.538-0.517,3.114-0.856,4.72c0,0.009-0.01,0.043-0.011,0.053c0,0.009-0.011,0.043-0.011,0.053
	c-0.009,0.046-0.019,0.091-0.028,0.136c2.045,9.547,2.197,19.298,1.731,26.187c-0.336,4.842-0.66,9.856-1.316,14.961
	c-0.891,8.773-0.548,18.097-3.16,27.631c-0.153,0.555-0.293,1.204-0.433,1.917c-0.151,0.705-0.292,1.457-0.432,2.24
	c-0.803,3.97-1.486,8.628-2.912,13.848c-0.001,0.009-0.017,0.058-0.018,0.067s-0.017,0.058-0.018,0.066
	c-0.082,0.298-0.156,0.582-0.223,0.855c-0.408,1.479-0.592,2.464-0.761,3.517c-0.004,0.014-0.015,0.111-0.019,0.125
	c-0.004,0.014-0.016,0.11-0.02,0.125c-2.103,13.543-13.556,23.701-22.6,31.607c-0.437,0.382-0.868,0.759-1.289,1.128
	c-0.284,0.664-0.584,1.36-0.906,2.085c-0.066,0.058-0.207,0.521-0.273,0.578c-0.065,0.057-0.234,0.514-0.299,0.571
	c-1.171,2.238-2.489,4.378-3.919,6.415c-4.68,5.821-6.442,10.033-11.069,15.76c-4.58,6.321-12.97,10.615-20.702,13.958
	c-2.178,0.933-4.303,1.805-6.115,2.574c-0.127,0.052-0.555,0.239-0.681,0.29c-0.711,0.434-1.506,0.987-2.218,1.459
	c-1.419,0.885-2.866,1.853-4.31,2.856c-7.885,4.266-12.131,13.398-23.958,14.464c-1.416,0.21-2.932,0.442-4.525,0.663
	c-1.759,0.321-3.833,0.757-5.981,1.193c-4.028,0.815-8.409,1.648-12.685,1.91c-2.436,0.149-4.788,0.078-7.01-0.295
	c-1.306-0.246-2.475-0.58-3.537-0.989c-5.509-2.184-7.626-6.439-11.676-10.188c-4.774-4.053-12.103-4.89-16.607-10.061
	c-1.31-1.5-2.045-3.016-2.66-4.585c-0.644-1.636-1.128-3.279-1.979-4.95c-0.711-1.514-1.554-2.529-2.487-3.314
	c-4.411-1.237-10.482-1.409-15.803-8.833c-0.002-0.004-0.014-0.017-0.016-0.021c-0.002-0.004-0.014-0.017-0.016-0.021
	c-1.737-2.283-2.81-4.819-3.857-7.204c-1.09-1.138-2.287-2.3-3.74-3.41c-2.819-2.301-5.689-3.117-8.145-6.431
	c-2.474-3.277-5.087-6.702-7.534-10.682c-0.641-1.038-1.238-2.077-1.796-3.114c-1.016-1.906-1.912-4.04-2.778-6.086
	c-2.58-3.445-5.847-7.901-9.082-11.957c-0.668-0.737-1.387-1.397-2.154-1.96c-0.446-0.27-0.834-0.527-1.239-0.739
	c-0.4-0.21-0.781-0.367-1.132-0.509c-5.306,2.138-6.379,9.261-12.789,11.879c-6.54,2.776-15.587,5.176-23.543,6.054
	c-3.068,0.307-6.017,0.388-8.693,0.207c-0.317,0.015-1.48-0.139-1.78-0.139c-0.202,0-0.948-0.108-1.141-0.116
	c-0.55-0.022-2.36-0.664-2.808-0.749c-9.647-4.364-13.864-13.665-18.163-19.725c-0.629-0.911-1.368-1.953-2.002-2.69
	c-0.31-0.295-1.968-1.411-2.321-1.661c-0.112-0.079-0.535-0.569-0.652-0.643c-0.292-0.39-1.543-2.137-1.739-2.537
	c-6.311-9.825-3.429-20.387-5.025-27.974c-0.093-0.626-0.199-1.333-0.343-1.954c-2.019-4.554-5.651-13.366-4.285-19.234
	c1.244-4.174,5.033-8.237,8.754-10.432c2.121-1.251,4.181-1.751,5.444-1.483c1.047,0.448,1.863,1.118,3.4,0.302
	c0.63-0.334,1.313-0.903,2.195-1.681c1.902-1.752,2.618-3.915,2.916-6.046c0.138-1.036,0.166-2.058,0.172-3.014
	c0.529-2.212,0.391-6.303,0.365-9.332c-0.913-1.677-1.799-3.153-2.542-4.052c-0.638-0.574-1.204-0.967-1.776-1.286
	c-0.712-0.398-1.436-0.651-2.099-1.064c-0.841-0.524-1.646-1.262-2.52-2.642c-2.057-3.353-2.173-7.321-1.417-11.534
	c0.095-0.542,0.176-1.077,0.246-1.608c0.045-1.3-0.147-2.954-0.372-4.425c-0.238-1.581-0.581-3.252-0.933-5.087
	c-0.167-0.868-0.335-1.766-0.493-2.703c-0.91-5.356-1.014-9.831,2.715-14.126c1.483-1.661,2.817-2.214,4.345-3.315
	c0.51-0.363,1.045-0.797,1.618-1.362c2.432-2.344,4.954-5.518,8.155-6.893c1.17-0.502,2.443-0.735,3.845-0.597
	c2.956,0.286,4.163,2.113,7.673,2.486c1.209,0.232,2.47,0.239,3.696-0.033c1.673-0.387,3.222-1.228,4.293-2.763
	c2.551-2.833,1.942-5.676,2.32-8.051c0.088-1.338,0.549-2.652,1.813-3.831c0.419-0.409,0.771-0.818,1.066-1.227
	c-0.495-8.016-9.959-15.609-7.849-23.8C84.387,59.852,93.313,53.632,103.803,53.632"/>
<path class="st1" d="M102.531,50.521L102.531,50.521c3.742,0,7.581,0.935,10.671,2.538c7.391,4.908,9.433,6.111,15.948,9.058
	c0.065,0.013,0.312,0.188,0.379,0.201c0.066,0.013,0.309,0.195,0.377,0.209c0.667,0.381,1.341,0.747,2.028,1.103
	c0.516,0.365,0.989,0.748,1.429,1.142c0.994,0.475,2.005,1.072,3.099,1.725c0.267,0.364,1.956,1.049,2.223,1.413
	c0.278,0.379,1.898,1.354,2.221,1.667c0.839,0.564,1.692,1.085,2.59,1.519c1.065,0.455,2.15,0.829,3.239,1.198
	c2.076,0.704,4.026,1.386,5.77,2.113c0.099-0.002,0.198-0.004,0.298-0.005c0.192-0.003,0.399-0.004,0.619-0.003
	c0.508,0.002,1.084,0.009,1.711,0.057c1.849,0.005,3.697,0.044,5.524,0.082c1.92,0.041,3.79,0.081,5.61,0.085
	c0.22,0.001,0.443,0.001,0.668,0c0.875-0.002,1.782-0.012,2.69-0.037c1.994-0.937,4.124-2.123,6.451-3.449
	c1.869-0.933,3.625-2.133,5.373-3.449c6.894-5.174,12.208-11.635,21.503-11.635c1.013,0,2.028,0.078,3.057,0.196
	c0.02,0.002,0.093,0.003,0.113,0.005c0.471,0.02,0.932,0.039,1.381,0.058c2.017-0.066,4.223-0.265,6.489-0.484
	c3.99-0.385,8.267-0.847,12.725-0.847c1.954,0,3.844,0.092,5.742,0.304c1.351,0.156,2.598,0.466,3.787,0.866
	c0.011,0.007,0.063,0.019,0.074,0.026c0.011,0.007,0.063,0.019,0.074,0.026c4.263,1.446,7.494,4.141,11.401,5.036
	c0.085,0.046,0.438,0.092,0.521,0.139c0.441,0.099,0.851,0.183,1.238,0.256c0.049-0.011,0.235-0.066,0.282-0.078
	c0.238-0.061,1.157-0.282,1.353-0.374c1.737-0.556,3.226-1.238,5.245-1.643c1.033-0.141,2.039-0.212,3.078-0.212
	c5.706,0,11.203,1.898,15.934,3.798c3.89,1.573,6.097,3.832,8.641,5.878c0.31,0.238,0.631,0.462,0.958,0.677
	c2.421,1.53,5.099,2.848,7.219,4.758c2.599,2.31,4.128,4.994,6.483,6.457c0.505,0.353,0.994,0.636,1.461,0.885
	c0.143,0.076,0.283,0.15,0.421,0.218c1.475,0.335,3.047,0.507,4.665,0.841c1.038-0.266,2.076-0.505,3.122-0.647
	c1.522-0.2,3.027-0.286,4.552-0.286c13.032,0,25.226,7.116,32.872,17.261c3.123,3.975,4.664,8.998,6.542,13.729
	c0.888,2.463,1.878,4.386,1.967,6.895c0.012,2.131-0.303,3.445-0.724,4.759c-0.303,1.017-0.7,2.014-1.082,3.348
	c-2.102,6.264,2.874,9.464,4.232,13.272c0.307,0.956,0.577,2.029,0.831,2.763c0.003,0.007,0.009,0.038,0.013,0.045
	c0.003,0.007,0.009,0.038,0.013,0.045c0.067,0.204,0.144,0.485,0.221,0.777c1.083,3.376,1.661,8.461,0.697,13.79
	c-0.251,1.553-0.55,3.147-0.918,4.773c0,0.009-0.011,0.044-0.012,0.053c0,0.009-0.012,0.044-0.012,0.053
	c-0.01,0.046-0.02,0.092-0.031,0.138c2.278,9.739,2.409,19.691,1.944,26.508c-0.342,4.889-0.646,9.973-1.257,15.165
	c-0.832,9.067-0.512,18.765-3.213,28.687c-0.156,0.572-0.297,1.246-0.437,1.992c-0.149,0.73-0.288,1.513-0.426,2.33
	c-0.784,4.082-1.468,8.944-3.003,14.379c-0.001,0.008-0.018,0.061-0.019,0.069c-0.001,0.008-0.018,0.061-0.019,0.069
	c-0.089,0.31-0.168,0.605-0.241,0.887c-0.441,1.554-0.63,2.564-0.797,3.649c-0.004,0.013-0.015,0.117-0.019,0.13
	c-0.004,0.013-0.016,0.117-0.02,0.13c-2.121,14.197-14.011,24.726-23.328,32.87c-0.454,0.396-0.901,0.788-1.338,1.171
	c-0.274,0.697-0.566,1.43-0.884,2.195c-0.061,0.054-0.206,0.554-0.267,0.607c-0.061,0.054-0.236,0.547-0.297,0.6
	c-1.16,2.35-2.491,4.597-3.956,6.734c-4.683,6-6.822,10.427-11.811,16.189c-4.859,6.263-13.318,10.524-21.041,13.849
	c-2.205,0.941-4.352,1.82-6.162,2.591c-0.119,0.048-0.568,0.246-0.685,0.293c-0.702,0.445-1.499,1.022-2.207,1.51
	c-1.397,0.908-2.836,1.909-4.289,2.951c-7.732,4.357-12.283,13.35-24.204,14.495c-1.43,0.215-2.958,0.444-4.563,0.658
	c-1.76,0.319-3.855,0.759-6.028,1.2c-4.04,0.818-8.448,1.663-12.779,1.953c-2.445,0.163-4.816,0.114-7.068-0.224
	c-1.313-0.224-2.498-0.533-3.584-0.915c-5.619-2.039-8.02-6.081-12.196-9.729c-4.968-3.973-12.242-5.067-16.775-10.304
	c-1.312-1.511-2.079-3.043-2.725-4.633c-0.677-1.658-1.191-3.321-2.038-5.006c-0.712-1.53-1.538-2.59-2.441-3.428
	c-4.486-1.283-10.605-1.663-15.969-9.017c-0.002-0.004-0.014-0.017-0.016-0.021c-0.002-0.004-0.014-0.018-0.016-0.021
	c-1.788-2.31-2.916-4.859-3.989-7.258c-1.147-1.102-2.4-2.239-3.894-3.341c-2.861-2.257-5.778-3.17-8.301-6.47
	c-2.543-3.268-5.21-6.73-7.699-10.786c-0.651-1.055-1.255-2.11-1.815-3.161c-1.039-1.964-1.936-4.128-2.792-6.181
	c-2.642-3.393-5.998-7.841-9.257-12.086c-0.66-0.757-1.372-1.443-2.133-2.043c-0.438-0.288-0.822-0.564-1.224-0.799
	c-0.393-0.229-0.771-0.41-1.121-0.577c-5.369,2.21-6.878,9.049-13.386,11.639c-6.775,2.778-15.918,5.134-23.919,5.954
	c-3.112,0.287-6.101,0.341-8.815,0.131c-0.296,0.014-1.524-0.157-1.803-0.157c-0.189,0-0.976-0.118-1.156-0.126
	c-0.514-0.021-2.419-0.717-2.837-0.797c-9.974-4.512-14.392-13.997-18.692-20.134c-0.638-0.936-1.395-2.02-2.031-2.772
	c-0.29-0.275-2.058-1.458-2.387-1.691c-0.105-0.074-0.551-0.599-0.66-0.669c-0.272-0.364-1.609-2.22-1.792-2.593
	c-6.612-10.135-3.855-21.003-5.309-28.626c-0.083-0.643-0.177-1.374-0.31-2.011c-1.996-4.501-5.587-13.181-4.44-19.204
	c1.08-4.241,4.546-8.424,8.06-10.851c1.98-1.368,3.941-2.027,5.173-1.972c1.012,0.287,1.824,0.783,3.313-0.109
	c0.616-0.37,1.281-0.96,2.137-1.744c1.847-1.766,2.602-3.913,2.982-6.027c0.177-1.027,0.254-2.037,0.314-2.985
	c0.675-2.252,0.751-6.232,0.947-9.198c-0.891-1.66-1.753-3.139-2.478-4.084c-0.61-0.588-1.151-1.01-1.699-1.362
	c-0.677-0.436-1.368-0.737-1.997-1.19c-0.8-0.577-1.561-1.359-2.383-2.743c-1.937-3.371-2.035-7.338-1.285-11.555
	c0.094-0.54,0.176-1.075,0.247-1.605c0.034-1.275-0.171-2.948-0.4-4.418c-0.242-1.574-0.585-3.245-0.936-5.081
	c-0.166-0.867-0.333-1.764-0.489-2.699c-0.895-5.302-1.019-9.816,2.507-14.189c1.401-1.687,2.673-2.344,4.14-3.515
	c0.489-0.386,1.003-0.841,1.556-1.418c2.339-2.391,4.796-5.584,7.943-7.098c1.147-0.552,2.399-0.852,3.778-0.806
	c2.91,0.089,4.224,1.619,7.73,1.804c1.196,0.169,2.443,0.129,3.662-0.171c1.667-0.426,3.218-1.264,4.319-2.742
	c2.678-2.775,2.381-5.483,2.937-7.723c0.162-1.3,0.685-2.584,1.969-3.744c0.423-0.4,0.785-0.799,1.094-1.199
	c-0.739-8.163-9.527-15.856-7.452-23.925C81.951,57.175,91.39,50.521,102.531,50.521"/>
<path class="st1" d="M101.258,47.41L101.258,47.41c3.79,0,7.668,0.911,10.838,2.48c7.378,4.696,9.752,6.066,16.188,9.147
	c0.06,0.012,0.319,0.201,0.381,0.213c0.061,0.012,0.315,0.209,0.379,0.222c0.672,0.404,1.346,0.791,2.029,1.166
	c0.519,0.378,0.996,0.77,1.44,1.17c1.011,0.459,2.052,1.034,3.186,1.665c0.247,0.338,2.049,1.024,2.297,1.362
	c0.258,0.352,1.978,1.357,2.279,1.647c0.859,0.56,1.726,1.084,2.631,1.528c1.078,0.474,2.17,0.875,3.259,1.276
	c2.094,0.771,4.039,1.536,5.774,2.335c0.1-0.002,0.201-0.003,0.301-0.005c0.193-0.002,0.403-0.004,0.626-0.003
	c0.514,0.002,1.104,0.009,1.748,0.058c1.876,0.006,3.747,0.045,5.595,0.084c1.948,0.041,3.841,0.082,5.68,0.086
	c0.222,0,0.447,0.001,0.675,0c0.883-0.002,1.802-0.012,2.722-0.039c1.965-1.018,4.08-2.299,6.416-3.717
	c1.852-0.99,3.615-2.231,5.391-3.574c6.973-5.256,12.593-11.494,21.951-11.494c1.031,0,2.06,0.077,3.095,0.192
	c0.022,0.002,0.093,0.003,0.115,0.005c0.478,0.021,0.945,0.043,1.398,0.065c2.032-0.068,4.269-0.271,6.57-0.494
	c4.03-0.389,8.371-0.855,12.911-0.855c1.979,0,3.892,0.092,5.81,0.302c1.364,0.154,2.629,0.454,3.841,0.84
	c0.011,0.006,0.065,0.019,0.076,0.025c0.011,0.006,0.065,0.019,0.075,0.025c4.354,1.401,7.686,4.035,11.583,5.011
	c0.093,0.05,0.434,0.101,0.525,0.152c0.442,0.11,0.855,0.207,1.245,0.293c0.046-0.01,0.241-0.068,0.285-0.079
	c0.221-0.057,1.189-0.285,1.371-0.37c1.769-0.547,3.304-1.201,5.332-1.588c1.039-0.137,2.055-0.205,3.1-0.205
	c5.797,0,11.357,1.866,16.147,3.764c3.93,1.568,6.259,3.792,8.855,5.801c0.319,0.235,0.647,0.458,0.98,0.671
	c2.488,1.534,5.178,2.89,7.316,4.799c2.648,2.332,4.242,5.02,6.557,6.547c0.503,0.372,0.988,0.677,1.449,0.948
	c0.142,0.083,0.28,0.165,0.417,0.24c1.473,0.375,3.056,0.616,4.69,1.029c1.051-0.26,2.103-0.492,3.163-0.632
	c1.538-0.196,3.062-0.281,4.608-0.281c13.204,0,25.595,7.026,33.552,17.159c3.245,3.978,4.988,8.978,6.998,13.747
	c0.947,2.46,1.979,4.427,2.164,6.946c0.092,2.129-0.126,3.505-0.45,4.885c-0.227,1.069-0.552,2.119-0.869,3.479
	c-1.796,6.34,2.834,9.801,4.101,13.685c0.287,0.983,0.54,2.088,0.78,2.819c0.003,0.006,0.009,0.04,0.012,0.046
	c0.003,0.006,0.009,0.04,0.012,0.046c0.063,0.204,0.139,0.491,0.213,0.791c1.035,3.359,1.627,8.501,0.603,13.977
	c-0.264,1.568-0.583,3.179-0.979,4.826c0,0.008-0.012,0.046-0.013,0.054s-0.012,0.046-0.013,0.054
	c-0.011,0.047-0.022,0.093-0.033,0.139c2.512,9.93,2.622,20.083,2.157,26.828c-0.349,4.937-0.631,10.09-1.199,15.368
	c-0.773,9.36-0.476,19.432-3.265,29.744c-0.159,0.588-0.301,1.288-0.441,2.066c-0.148,0.755-0.284,1.569-0.421,2.419
	c-0.764,4.193-1.449,9.26-3.094,14.909c-0.001,0.007-0.02,0.064-0.02,0.071c-0.001,0.007-0.02,0.064-0.021,0.071
	c-0.095,0.322-0.181,0.627-0.258,0.918c-0.475,1.628-0.668,2.664-0.833,3.782c-0.003,0.012-0.015,0.123-0.018,0.136
	c-0.003,0.012-0.017,0.123-0.02,0.135c-2.139,14.851-14.465,25.751-24.056,34.134c-0.47,0.411-0.935,0.817-1.387,1.213
	c-0.264,0.73-0.549,1.5-0.862,2.304c-0.057,0.05-0.205,0.587-0.262,0.636c-0.057,0.05-0.238,0.579-0.294,0.628
	c-1.15,2.462-2.492,4.815-3.994,7.054c-4.685,6.179-7.203,10.82-12.553,16.618c-5.137,6.205-13.667,10.434-21.38,13.74
	c-2.233,0.948-4.402,1.835-6.209,2.609c-0.11,0.045-0.581,0.252-0.69,0.297c-0.694,0.456-1.492,1.057-2.196,1.562
	c-1.376,0.93-2.807,1.966-4.269,3.047c-7.58,4.448-12.435,13.303-24.449,14.525c-1.445,0.219-2.985,0.446-4.601,0.654
	c-1.762,0.317-3.878,0.761-6.074,1.207c-4.053,0.822-8.488,1.678-12.873,1.995c-2.453,0.177-4.843,0.151-7.126-0.152
	c-1.319-0.203-2.52-0.487-3.631-0.841c-5.729-1.893-8.413-5.724-12.715-9.269c-5.162-3.894-12.382-5.244-16.943-10.547
	c-1.313-1.522-2.112-3.071-2.79-4.68c-0.711-1.68-1.255-3.364-2.096-5.062c-0.713-1.546-1.522-2.651-2.396-3.541
	c-4.56-1.328-10.728-1.917-16.135-9.202c-0.002-0.003-0.015-0.018-0.017-0.021c-0.002-0.003-0.015-0.018-0.017-0.021
	c-1.839-2.337-3.022-4.899-4.121-7.313c-1.204-1.066-2.512-2.177-4.049-3.272c-2.903-2.214-5.867-3.222-8.458-6.508
	c-2.612-3.258-5.332-6.759-7.864-10.889c-0.661-1.073-1.271-2.144-1.835-3.209c-1.061-2.022-1.961-4.216-2.805-6.275
	c-2.704-3.341-6.15-7.78-9.432-12.214c-0.652-0.777-1.357-1.49-2.112-2.125c-0.43-0.305-0.809-0.601-1.209-0.858
	c-0.387-0.249-0.762-0.452-1.11-0.645c-5.433,2.281-7.377,8.837-13.982,11.399c-7.01,2.781-16.249,5.092-24.295,5.853
	c-3.156,0.266-6.184,0.294-8.937,0.055c-0.275,0.013-1.568-0.175-1.827-0.175c-0.175,0-1.004-0.128-1.172-0.135
	c-0.477-0.019-2.479-0.771-2.866-0.845c-10.3-4.66-14.92-14.329-19.222-20.543c-0.648-0.961-1.422-2.087-2.061-2.855
	c-0.269-0.255-2.148-1.504-2.454-1.72c-0.097-0.069-0.567-0.63-0.668-0.694c-0.253-0.338-1.675-2.303-1.845-2.649
	c-6.914-10.445-4.281-21.618-5.592-29.278c-0.073-0.659-0.155-1.414-0.277-2.067c-1.972-4.447-5.524-12.996-4.595-19.174
	c0.917-4.308,4.06-8.607,7.365-11.271c1.84-1.483,3.702-2.303,4.901-2.461c0.978,0.125,1.785,0.448,3.226-0.521
	c0.602-0.405,1.25-1.016,2.078-1.806c1.793-1.78,2.586-3.911,3.048-6.007c0.217-1.017,0.343-2.017,0.455-2.955
	c0.82-2.291,1.111-6.161,1.529-9.065c-0.87-1.643-1.708-3.124-2.413-4.116c-0.583-0.602-1.098-1.052-1.622-1.438
	c-0.643-0.473-1.301-0.822-1.895-1.316c-0.76-0.631-1.476-1.457-2.247-2.845c-1.816-3.39-1.897-7.355-1.153-11.575
	c0.093-0.539,0.176-1.072,0.249-1.603c0.024-1.25-0.195-2.942-0.429-4.412c-0.246-1.567-0.588-3.238-0.938-5.076
	c-0.165-0.867-0.33-1.762-0.485-2.694c-0.88-5.247-1.025-9.801,2.299-14.253c1.319-1.713,2.53-2.473,3.935-3.715
	c0.468-0.41,0.962-0.884,1.494-1.475c2.247-2.438,4.638-5.649,7.731-7.302c1.125-0.601,2.355-0.969,3.712-1.014
	c2.865-0.108,4.285,1.125,7.787,1.121c1.183,0.105,2.417,0.018,3.629-0.309c1.662-0.465,3.214-1.301,4.345-2.721
	c2.805-2.716,2.82-5.289,3.555-7.395c0.236-1.263,0.82-2.517,2.125-3.656c0.427-0.39,0.799-0.781,1.122-1.171
	c-0.983-8.311-9.095-16.103-7.054-24.051C79.514,54.499,89.467,47.41,101.258,47.41"/>
<path class="st1" d="M99.986,44.299L99.986,44.299c3.838,0,7.756,0.887,11.006,2.423c7.365,4.485,10.071,6.02,16.429,9.236
	c0.055,0.011,0.326,0.214,0.384,0.225c0.056,0.011,0.322,0.222,0.38,0.234c0.677,0.427,1.351,0.835,2.03,1.228
	c0.523,0.391,1.003,0.793,1.45,1.198c1.028,0.442,2.099,0.995,3.273,1.605c0.228,0.312,2.142,0.999,2.371,1.311
	c0.238,0.325,2.059,1.36,2.336,1.628c0.878,0.556,1.76,1.082,2.672,1.536c1.092,0.494,2.191,0.922,3.278,1.355
	c2.111,0.839,4.053,1.685,5.778,2.556c0.101-0.002,0.203-0.003,0.305-0.004c0.194-0.002,0.406-0.003,0.633-0.002
	c0.521,0.002,1.124,0.01,1.786,0.059c1.903,0.006,3.798,0.046,5.666,0.085c1.977,0.042,3.892,0.083,5.75,0.087
	c0.224,0,0.452,0,0.682,0c0.891-0.002,1.822-0.013,2.755-0.04c1.935-1.099,4.037-2.476,6.382-3.984
	c1.834-1.047,3.605-2.328,5.409-3.698c7.051-5.338,12.978-11.354,22.4-11.354c1.049,0,2.091,0.075,3.133,0.188
	c0.023,0.002,0.093,0.004,0.116,0.005c0.485,0.023,0.958,0.048,1.416,0.072c2.047-0.07,4.314-0.277,6.65-0.504
	c4.071-0.394,8.475-0.863,13.096-0.863c2.004,0,3.941,0.091,5.878,0.299c1.376,0.151,2.66,0.441,3.894,0.815
	c0.01,0.006,0.067,0.018,0.077,0.024s0.067,0.019,0.077,0.024c4.446,1.357,7.879,3.929,11.765,4.987
	c0.101,0.055,0.431,0.109,0.529,0.164c0.443,0.121,0.859,0.231,1.252,0.33c0.042-0.009,0.246-0.07,0.287-0.081
	c0.204-0.052,1.221-0.288,1.39-0.367c1.8-0.539,3.381-1.164,5.418-1.533c1.046-0.132,2.07-0.198,3.123-0.198
	c5.888,0,11.512,1.833,16.361,3.73c3.969,1.562,6.421,3.752,9.069,5.724c0.328,0.233,0.663,0.454,1.002,0.665
	c2.555,1.538,5.256,2.932,7.414,4.841c2.697,2.354,4.355,5.046,6.632,6.637c0.501,0.391,0.983,0.718,1.438,1.011
	c0.141,0.09,0.277,0.179,0.412,0.261c1.471,0.415,3.066,0.725,4.715,1.217c1.064-0.254,2.129-0.479,3.203-0.616
	c1.554-0.192,3.097-0.276,4.664-0.276c13.377,0,25.964,6.935,34.232,17.057c3.368,3.982,5.311,8.958,7.453,13.765
	c1.006,2.457,2.079,4.468,2.36,6.997c0.172,2.128,0.051,3.565-0.176,5.011c-0.151,1.121-0.403,2.223-0.657,3.61
	c-1.489,6.416,2.794,10.138,3.971,14.097c0.267,1.01,0.503,2.148,0.73,2.874c0.003,0.006,0.009,0.041,0.012,0.047
	c0.003,0.006,0.009,0.041,0.012,0.047c0.06,0.204,0.133,0.498,0.206,0.805c0.987,3.342,1.593,8.54,0.508,14.163
	c-0.277,1.583-0.615,3.212-1.04,4.879c0,0.008-0.013,0.047-0.014,0.054s-0.013,0.047-0.014,0.054
	c-0.012,0.047-0.024,0.094-0.036,0.141c2.745,10.122,2.834,20.476,2.369,27.148c-0.356,4.985-0.616,10.206-1.141,15.571
	c-0.714,9.654-0.44,20.1-3.318,30.8c-0.162,0.605-0.306,1.33-0.445,2.141c-0.146,0.78-0.28,1.624-0.415,2.509
	c-0.744,4.305-1.43,9.576-3.186,15.44c-0.001,0.007-0.021,0.067-0.022,0.074s-0.021,0.067-0.022,0.074
	c-0.101,0.334-0.193,0.649-0.275,0.95c-0.508,1.703-0.707,2.764-0.869,3.915c-0.003,0.011-0.015,0.13-0.018,0.141
	s-0.017,0.129-0.02,0.141c-2.156,15.505-14.92,26.777-24.784,35.398c-0.487,0.426-0.968,0.846-1.435,1.256
	c-0.255,0.763-0.532,1.569-0.839,2.414c-0.053,0.046-0.204,0.62-0.256,0.665c-0.052,0.046-0.24,0.611-0.291,0.657
	c-1.14,2.574-2.494,5.033-4.031,7.373c-4.687,6.358-7.583,11.214-13.295,17.047c-5.416,6.147-14.016,10.344-21.719,13.631
	c-2.261,0.956-4.451,1.851-6.256,2.627c-0.102,0.041-0.594,0.259-0.695,0.3c-0.685,0.467-1.485,1.092-2.185,1.614
	c-1.354,0.952-2.777,2.022-4.249,3.142c-7.427,4.538-12.588,13.255-24.695,14.556c-1.459,0.223-3.011,0.449-4.639,0.649
	c-1.763,0.314-3.9,0.762-6.121,1.214c-4.065,0.825-8.528,1.693-12.966,2.038c-2.462,0.191-4.871,0.187-7.184-0.081
	c-1.326-0.181-2.543-0.44-3.677-0.767c-5.84-1.747-8.807-5.366-13.235-8.81c-5.356-3.814-12.522-5.421-17.111-10.79
	c-1.314-1.533-2.145-3.099-2.855-4.728c-0.744-1.702-1.318-3.406-2.155-5.118c-0.714-1.563-1.506-2.713-2.35-3.655
	c-4.634-1.374-10.851-2.171-16.301-9.386c-0.002-0.003-0.015-0.018-0.017-0.021c-0.002-0.003-0.015-0.018-0.017-0.022
	c-1.891-2.364-3.128-4.939-4.253-7.368c-1.26-1.031-2.625-2.115-4.204-3.202c-2.945-2.17-5.955-3.275-8.615-6.546
	c-2.682-3.249-5.455-6.788-8.029-10.992c-0.671-1.09-1.287-2.178-1.854-3.256c-1.083-2.08-1.985-4.303-2.819-6.37
	c-2.766-3.288-6.301-7.72-9.607-12.343c-0.644-0.796-1.342-1.536-2.091-2.208c-0.422-0.323-0.797-0.638-1.193-0.918
	c-0.38-0.268-0.752-0.495-1.099-0.713c-5.496,2.353-7.876,8.625-14.579,11.159c-7.244,2.784-16.58,5.05-24.672,5.753
	c-3.201,0.246-6.268,0.247-9.058-0.021c-0.254,0.012-1.611-0.193-1.851-0.193c-0.162,0-1.032-0.139-1.187-0.145
	c-0.44-0.018-2.538-0.825-2.896-0.893c-10.627-4.807-15.448-14.662-19.752-20.952c-0.658-0.986-1.449-2.154-2.09-2.937
	c-0.248-0.236-2.238-1.55-2.52-1.75c-0.09-0.064-0.582-0.661-0.676-0.72c-0.233-0.312-1.741-2.386-1.897-2.705
	c-7.215-10.755-4.707-22.233-5.875-29.93c-0.063-0.675-0.133-1.455-0.243-2.124c-1.948-4.394-5.46-12.811-4.75-19.143
	c0.753-4.375,3.576-8.786,6.671-11.69c1.7-1.595,3.462-2.579,4.63-2.95c0.943-0.037,1.745,0.112,3.138-0.932
	c0.588-0.441,1.218-1.073,2.019-1.869c1.738-1.794,2.57-3.909,3.115-5.987c0.256-1.007,0.432-1.996,0.597-2.926
	c0.966-2.33,1.471-6.09,2.111-8.931c-0.848-1.627-1.663-3.11-2.349-4.148c-0.555-0.617-1.046-1.094-1.545-1.514
	c-0.608-0.511-1.233-0.908-1.793-1.441c-0.719-0.685-1.391-1.554-2.11-2.946c-1.695-3.408-1.759-7.372-1.021-11.596
	c0.092-0.537,0.175-1.07,0.25-1.6c0.014-1.226-0.218-2.936-0.457-4.405c-0.25-1.56-0.592-3.231-0.94-5.07
	c-0.164-0.866-0.328-1.76-0.482-2.69c-0.866-5.192-1.03-9.785,2.09-14.317c1.238-1.739,2.386-2.603,3.729-3.915
	c0.448-0.433,0.921-0.927,1.431-1.531c2.154-2.485,4.481-5.714,7.52-7.507c1.103-0.651,2.312-1.085,3.645-1.223
	c2.82-0.305,4.346,0.631,7.844,0.439c1.169,0.042,2.39-0.092,3.595-0.447c1.656-0.504,3.209-1.337,4.371-2.7
	c2.932-2.658,3.259-5.095,4.172-7.068c0.31-1.225,0.956-2.449,2.281-3.569c0.431-0.381,0.812-0.762,1.15-1.143
	c-1.226-8.458-8.664-16.351-6.656-24.177C77.078,51.823,87.544,44.299,99.986,44.299"/>
</svg>
