<?xml version="1.0" encoding="utf-8"?>
<!-- Generator: Adobe Illustrator 25.0.0, SVG Export Plug-In . SVG Version: 6.00 Build 0)  -->
<!DOCTYPE svg PUBLIC "-//W3C//DTD SVG 1.1//EN" "http://www.w3.org/Graphics/SVG/1.1/DTD/svg11.dtd" [
	<!ENTITY ns_extend "http://ns.adobe.com/Extensibility/1.0/">
	<!ENTITY ns_ai "http://ns.adobe.com/AdobeIllustrator/10.0/">
	<!ENTITY ns_graphs "http://ns.adobe.com/Graphs/1.0/">
	<!ENTITY ns_vars "http://ns.adobe.com/Variables/1.0/">
	<!ENTITY ns_imrep "http://ns.adobe.com/ImageReplacement/1.0/">
	<!ENTITY ns_sfw "http://ns.adobe.com/SaveForWeb/1.0/">
	<!ENTITY ns_custom "http://ns.adobe.com/GenericCustomNamespace/1.0/">
	<!ENTITY ns_adobe_xpath "http://ns.adobe.com/XPath/1.0/">
]>
<svg version="1.1" id="Livello_1" xmlns:x="&ns_extend;" xmlns:i="&ns_ai;" xmlns:graph="&ns_graphs;"
	 xmlns="http://www.w3.org/2000/svg" xmlns:xlink="http://www.w3.org/1999/xlink" x="0px" y="0px" viewBox="0 0 400 400"
	 style="enable-background:new 0 0 400 400;" xml:space="preserve">
<style type="text/css">
	.st0{opacity:0.45;fill:#FFFFFF;}
	.st1{fill:none;stroke:#DC4B33;stroke-width:0.9;stroke-miterlimit:10;}
</style>
<metadata>
	<sfw  xmlns="&ns_sfw;">
		<slices></slices>
		<sliceSourceBounds  bottomLeftOrigin="true" height="287.199" width="289.764" x="58.724" y="61.505"></sliceSourceBounds>
	</sfw>
</metadata>
<path class="st0" d="M241.181,51.746L241.181,51.746c8.638,0,15.92,5.328,22.843,12.092c4.442,4.327,8.549,9.104,12.703,12.983
	c2.442,2.266,5.264,4.599,7.909,5.94c1.132,0.321,2.336,0.565,3.604,0.736c0.233,0.013,0.467,0.026,0.703,0.038
	c0.413,0.021,0.826,0.039,1.238,0.043c2.652,0.026,5.232-0.172,7.737,0.02c2.58,0.202,5.043,0.803,7.385,2.455
	c7.951,3.301,20.809,8.243,15.704,19.828c-0.004,0.781,0.166,1.365,0.384,1.898c0.259,0.611,0.602,1.156,0.77,1.925
	c0.678,3.021,0.338,6.854,1.409,9.993c4.139,4.48,10.927,7.684,15.967,12.843c0.154,0.151,0.307,0.302,0.458,0.454
	c1.529,1.477,3.025,3.266,4.189,5.437c2.54,4.441,5.055,8.866,3.234,14.342c-1.078,2.611-2.518,4.28-4.05,5.916
	c-0.121,0.087-0.323,0.364-0.443,0.45c-0.12,0.087-0.334,0.358-0.452,0.446c-2.111,2.287-4.177,4.448-5.323,8.573
	c-0.222,0.307-0.438,0.587-0.647,0.843c-0.059,0.085-0.137,0.305-0.194,0.382c-0.78,1.049-2.034,2.424-2.619,2.749
	c-1.521,1.438-2.937,2.582-4.676,6.808c-2.209,6.491-8.847,10.524-11.377,16.298c-0.44,0.724-0.955,1.46-1.423,2.132
	c-0.053,0.081-0.136,0.245-0.189,0.326c-0.257,0.387-0.715,1.147-0.964,1.53c-0.645,1.041-1.254,2.061-1.724,3.103
	c-0.334,1.186-0.523,2.462-0.453,3.884c0.144,3.231,1.507,5.708-0.795,8.998c-1.712,2.445-3.602,3.684-5.651,4.19
	c-1.141,0.282-2.329,0.301-3.541,0.24c-3.154-0.141-6.409-1.08-9.563-0.832c-0.873,0.009-1.75,0.049-2.631,0.157
	c-5.674,0.681-10.909,3.485-16.6,4.319c-0.649,0.095-1.299,0.165-1.953,0.203c-0.86,0.065-1.676,0.048-2.525,0.022
	c-4.144-0.13-8.156-0.974-11.918-1.299c-0.661-0.057-1.311-0.108-1.952-0.129c-0.302-0.01-0.614-0.019-0.922-0.022
	c-0.865,0.136-1.781,0.336-2.651,0.569c-0.401,0.107-0.805,0.226-1.213,0.357c-3.339,0.743-6.067,1.792-7.866,3.093
	c-1.271,2.041-1.117,4.533,1.017,7.502c0.477,0.649,1.025,1.323,1.644,2.022c1.782,1.799,4.177,3.526,5.785,5.604
	c2.514,2.101,4.083,4.728,2.447,8.603c-0.011,2.576,0.563,4.466,0.969,6.275c0.624,2.783,0.841,5.205-1.843,9.316
	c-4.051,9.218,4.999,9.827,5.568,16.514c0.709,6.276-3.295,8.887-8.544,9.429c-4.272,0.441-9.374-0.618-13.006-1.689
	c-1.16-0.349-2.671-1.121-4.272-1.868c-1.924-0.894-3.945-1.757-5.612-1.802c-0.198-0.005-0.395-0.01-0.592,0.023
	c-3.255,1.204-5.349,3.691-7.204,6.29c-1.334,2.955-2.649,6.011-4.577,8.369c-0.306,0.377-0.626,0.733-0.964,1.065
	c-0.307,0.311-0.638,0.559-0.986,0.762c-2.323,1.754-5.743,0.814-6.897,4.066c-0.936,2.549,0.951,4.486,0.368,6.838
	c-0.328,1.488-1.158,2.347-2.219,2.92c-2.294,1.735-6.151,1.633-6.953,5.568c-0.536,1.805-0.324,2.874-0.21,4.471
	c0.657,5.213-4.488,10.94-10.267,11.617c-1.967,0.23-3.995-0.082-5.922-1.131c-1.36-0.821-2.613-1.39-3.804-1.767
	c-0.996-0.353-1.934-0.522-2.852-0.554c-2.719-0.098-5.244,0.868-8.468,1.608c-0.369,0.172-1.061,0.464-1.469,0.627
	c-0.415,0.088-1.325,0.273-1.717,0.341c-2.078,0.383-3.966,0.594-5.692,0.651c-1.712,0.05-3.258-0.055-4.681-0.299
	c-6.886-1.188-10.793-5.653-15.895-11.416c-1.282-0.797-2.656-1.673-4.162-2.611c-1.147-0.505-2.145-0.712-2.954-0.673
	c-1.469,0.069-2.324,1.107-2.439,2.592c-0.027,0.124-0.049,0.25-0.066,0.379c-0.111,1.144,0.441,1.449-0.187,2.76
	c-3.171,3.104-8.853,4.623-13.88,3.537c-3.445-0.744-6.619-2.741-8.378-6.331c-0.128-0.251-0.254-0.515-0.377-0.793
	c-1.455-2.821-4.645-8.468-6.376-13.73c-1.632-4.991-1.727-9.151,2.275-10.416c0.229-0.072,0.486-0.175,0.75-0.223
	c0.183-1.636,0.295-3.114,0.344-4.456c-0.94-6.688-5.33-8.568-10.493-10.71c-0.235-0.055-0.636-0.296-0.877-0.351
	c-0.236-0.054-0.622-0.308-0.863-0.364c-3.968-1.807-7.934-3.954-10.876-8.418c-1.142-1.572-1.165-2.904-1.115-4.344
	c0.138-0.675-0.006-2.044-0.095-2.862c-0.058-0.567-0.387-1.396-0.587-1.729c-0.125-0.209-0.282-0.62-0.444-0.773
	c-1.019-1.039-2.369-1.609-3.198-3.329c-0.332-2.778-0.737-4.54-1.218-5.805c-1.152-3.028-2.936-1.766-5.337-8.061
	c-1.242-2.937-1.199-5.02-0.73-6.726c0.346-3.752,3.085-5.462-3.502-11.362c-1.81-2.153-2.124-5.634-2.237-8.427
	c-0.003-0.08-0.009-0.236-0.012-0.315c-0.017-0.457-0.028-0.901-0.038-1.325c-0.154-5.119,2.045-5.641,4.291-9.26
	c2.324-3.96,2.07-8.273,3.785-11.61c0.497-1.353,1.359-2.033,2.504-2.386c1.472-0.453,3.347-0.314,5.319-0.088
	c2.512,0.346,5.109,0.823,7.068,0.386c0.766-0.171,1.434-0.47,1.871-1.139c1.957-4.036,5.11-7.102,9.551-7.462
	c1.438-0.116,2.965,0.013,4.657,0.487c1.585,0.436,2.82,1.34,4.105,2.112c1.075,0.657,2.17,1.217,3.531,1.307
	c1.525-0.329,2.643-0.468,3.622-0.357c1.135-0.193,2.089,0.055,3.821,0.9c2.562,0.372,4.066,0.675,5.506,0.533
	c2.093-0.207,4.03-1.183,8.261-3.641c5.24-3.11,3.765-2.507,8.809-5.72c1.029-0.545,1.837-1.177,2.472-1.875
	c0.002-0.004,0.009-0.006,0.01-0.011s0.009-0.006,0.01-0.011c0.926-0.981,1.462-2.096,1.746-3.305
	c0.175-0.558,0.309-1.124,0.411-1.697c-0.817-5.491-2.933-11.858-2.592-17.529c0,0,0,0,0,0c0.477-8.182,4.134-8.429,9.805-10.136
	c4.613-1.728,6.07-5.351,9.706-7.711c3.154-2.044,6.861-3.273,10.455-3.519c2.033-0.139,4.061-0.011,5.862,0.512
	c2.413,0.441,4.017,1.488,5.554,2.699c0.01,0.017,0.036,0.024,0.046,0.041s0.036,0.024,0.046,0.041
	c1.58,1.398,2.987,3.003,5.164,4.151c0.695,0.396,1.354,0.526,1.937,0.468c2.875-0.291,5.164-4.563,8.608-5.745
	c1.836-0.288,3.327-0.356,4.701-0.356c0.156,0,0.312,0,0.507,0.001c2.365,0.007,4.252-0.007,7.462-1.772
	c0.58-0.276,1.235-0.359,1.927-0.319c1.174,0.068,2.458,0.426,3.737,0.525c0.728,0.054,1.455-0.004,2.141-0.212
	c3.156-0.825,5.021-3.012,7.438-4.457c0.016-0.017,0.054-0.037,0.07-0.054c1.076-0.796,2.228-1.461,3.56-1.873
	c0.641-0.195,1.241-0.4,1.806-0.614c3.37-1.685,5.787-3.689,8.591-5.145c1.916-1.441,4.128-2.671,7.272-3.244
	c3.004-0.834,6.135-2.311,8.282-4.095c0.49-0.491,0.989-1.104,1.321-1.705c0.49-0.925,0.707-1.937,0.545-2.996
	c-0.757-1.398-1.94-2.81-3.718-4.147c-0.52-0.689-0.888-1.423-1.175-2.172c-0.582-1.587-0.823-3.272-1.615-4.879
	c-1.394-3.085-4.044-3.891-6.516-6.355c-1.991-2.008-2.814-4.8-4.746-6.891c-0.67-0.732-1.382-1.463-2.115-2.2
	c-0.009-0.007-0.023-0.025-0.032-0.032c-0.009-0.007-0.023-0.025-0.032-0.032c-3.739-3.771-7.922-7.64-9.849-12.512
	c-2.361-6.035-1.434-15.251,4.21-18.329c1.87-2.606,4.482-4.462,7.549-5.323C237.99,51.97,239.577,51.746,241.181,51.746"/>
<g id="Livello_4_copia_2_5_">
	<g>
		<path class="st1" d="M238.397,67.926c16.752,0,26.064,26.304,41.52,29.472c0.576,0.048,1.152,0.096,1.728,0.096
			c2.352,0,4.656-0.384,6.912-0.384c2.304,0,4.512,0.384,6.624,1.968c7.392,3.072,19.2,7.344,11.28,17.328
			c-0.192,1.68,0.768,2.064,1.056,3.264c0.672,2.736,0.192,6.144,1.92,8.496c4.704,6.192,14.496,8.592,18.528,15.456
			c2.496,4.032,5.088,7.584,3.12,12.144c-3.072,5.952-8.16,4.272-9.408,12.816c-3.12,5.184-4.416,1.104-7.008,9.216
			c-1.872,5.952-8.784,9.504-10.992,15.696c-1.872,3.552-4.944,6.288-4.656,10.464c0.192,3.216,2.016,5.376-0.528,8.496
			c-1.92,2.4-3.984,3.216-6.096,3.216c-4.416,0-9.072-3.504-13.344-3.888c-0.864-0.144-1.728-0.24-2.592-0.24
			c-6.24,0-11.568,3.792-17.664,4.368c-0.816,0.096-1.584,0.096-2.4,0.096c-3.792,0-7.632-0.672-11.424-0.672
			c-2.16,0-4.32,0.24-6.48,0.912c-8.544,1.68-11.712,5.472-3.888,11.76c4.656,3.12,13.344,5.472,8.784,12.576
			c-0.624,6.672,3.6,7.632-1.92,14.688c-4.944,8.736,7.536,7.584,9.072,14.928c1.488,7.104-2.496,9.264-7.488,9.264
			c-4.368,0-9.552-1.632-12.672-3.12c-2.256-1.056-6.528-4.56-9.36-4.56c-0.192,0-0.384,0-0.576,0.048
			c-5.952,3.264-6.432,13.296-11.04,17.904c-2.592,2.688-7.488-0.288-8.64,3.504c-0.816,2.592,1.968,4.464,1.728,6.912
			c-0.576,5.76-8.976,1.632-9.792,7.296c-0.48,1.872,0,2.832,0.384,4.464c2.016,4.704-2.688,10.512-7.968,10.512
			c-1.728,0-3.504-0.624-5.136-2.064c-2.256-2.16-3.984-2.976-5.616-2.976c-2.64,0-4.992,2.016-8.832,3.552
			c-2.496,0.528-4.656,0.768-6.528,0.768c-10.752,0-12.336-7.872-20.016-16.512c-1.056-0.72-1.92-1.056-2.544-1.056
			c-1.392,0-1.872,1.488-1.248,3.6c0.432,1.44,1.68,1.872,1.44,3.6c-1.872,4.224-7.104,7.056-11.904,7.056
			c-3.552,0-6.912-1.584-8.4-5.28c-2.544-4.992-12.624-21.984-2.208-21.984c0.288,0,0.624,0,0.96,0.048
			c3.216-19.824-12.768-10.128-22.32-21.024c-1.92-2.592-0.144-4.272-0.432-6.912c-0.336-3.312-3.024-2.64-4.224-5.28
			c-0.432-11.376-2.592-3.408-6.432-12.72c-4.848-9.984,7.728-7.824-3.648-16.56c-2.448-1.872-2.496-6.288-2.592-9.312
			c-0.192-5.136,2.352-4.704,4.848-8.304c2.4-3.456,1.296-7.776,2.784-11.232c0.576-1.344,1.584-1.824,2.928-1.824
			c3.888,0,10.176,4.464,13.536,4.464c0.816,0,1.488-0.24,1.872-0.912c1.536-4.128,4.368-7.296,8.688-7.296
			c1.344,0,2.784,0.288,4.416,0.96c2.784,1.152,4.032,4.176,6.912,4.32c1.344-0.48,2.208-0.768,2.928-0.768
			c1.056,0,1.872,0.528,3.648,1.776c2.688,0.72,4.032,1.296,5.28,1.296c1.68,0,3.12-1.056,7.392-4.128
			c5.424-3.888,2.448-3.312,7.632-7.68c6.72-5.616-0.48-17.568,0.048-26.352c0.48-8.256,4.56-7.008,10.992-7.92
			c4.992-0.72,5.808-4.272,9.456-6.576c2.928-1.824,6.528-2.976,10.08-2.976c1.824,0,3.696,0.288,5.376,1.008
			c5.424,2.064,5.76,7.776,9.6,11.136c0.672,0.576,1.296,0.816,1.824,0.816c2.592,0,4.416-5.088,7.68-6.432
			c1.728-0.288,3.024-0.336,4.176-0.336c0.144,0,0.288,0,0.48,0c2.16,0,3.744-0.096,7.008-2.448
			c0.528-0.384,1.152-0.528,1.824-0.528c1.104,0,2.352,0.336,3.6,0.336c0.72,0,1.44-0.144,2.112-0.48
			c4.08-2.016,5.328-7.584,9.984-9.312c7.296-2.736,8.88-8.16,16.944-8.64c6.96-1.248,14.112-6.768,5.184-12.48
			c-1.488-2.256-0.864-4.944-1.68-7.344c-1.104-3.312-3.744-3.696-6.192-6.048c-1.968-1.92-2.496-4.752-4.464-6.624
			c-4.176-4.032-10.56-7.632-13.296-13.008c-2.784-5.52-1.92-14.976,4.368-16.992C235.181,68.166,236.813,67.926,238.397,67.926"/>
	</g>
</g>
<path class="st1" d="M238.954,64.69L238.954,64.69c7.902,0,14.27,5.533,20.366,11.952c3.87,4.072,7.593,8.474,11.514,11.954
	c2.369,2.099,4.883,3.937,7.494,5.081c1.049,0.411,2.133,0.728,3.255,0.94c0.214,0.016,0.427,0.033,0.641,0.048
	c0.377,0.026,0.753,0.045,1.129,0.045c2.412,0.005,4.771-0.342,7.077-0.303c2.359,0.04,4.618,0.468,6.776,2.065
	c7.504,3.118,19.522,7.524,12.165,17.828c-0.069,0.75,0.077,1.258,0.287,1.699c0.262,0.545,0.626,0.987,0.789,1.676
	c0.673,2.793,0.221,6.286,1.818,8.795c3.561,4.494,9.799,7.132,14.509,11.091c0.149,0.124,0.297,0.249,0.443,0.375
	c1.556,1.327,2.952,2.836,3.993,4.645c2.505,4.114,5.081,7.84,3.143,12.584c-1.199,2.428-2.729,3.69-4.236,4.882
	c-0.145,0.105-0.306,0.246-0.449,0.35c-0.144,0.104-0.305,0.246-0.447,0.352c-1.941,1.596-3.701,3.372-4.448,7.746
	c-0.183,0.292-0.361,0.556-0.533,0.796c-0.071,0.102-0.144,0.227-0.213,0.319c-0.936,1.259-1.819,1.875-2.521,2.265
	c-1.289,0.835-2.423,1.563-3.966,6.149c-1.939,6.06-8.797,9.708-11.069,15.816c-0.394,0.726-0.844,1.427-1.293,2.103
	c-0.064,0.097-0.133,0.211-0.197,0.307c-0.308,0.464-0.658,0.998-0.958,1.457c-0.63,0.977-1.215,1.952-1.641,2.981
	c-0.431,1.138-0.676,2.353-0.587,3.717c0.182,3.219,1.914,5.442-0.581,8.596c-1.878,2.409-3.909,3.311-6.007,3.411
	c-1.212,0.058-2.446-0.157-3.69-0.489c-3.23-0.858-6.508-2.568-9.606-2.74c-0.866-0.113-1.732-0.182-2.6-0.161
	c-5.615,0.136-10.555,3.141-15.97,4.142c-0.618,0.114-1.241,0.202-1.871,0.257c-0.825,0.09-1.602,0.086-2.425,0.081
	c-3.862-0.028-7.736-0.731-11.523-0.797c-0.634-0.011-1.267-0.005-1.897,0.027c-0.298,0.015-0.597,0.035-0.896,0.061
	c-0.851,0.103-1.712,0.258-2.564,0.469c-0.391,0.097-0.783,0.206-1.175,0.329c-3.455,0.697-6.073,1.736-7.485,3.127
	c-1.537,1.787-1.273,4.113,1.455,7.02c0.535,0.572,1.16,1.167,1.878,1.784c2.066,1.505,4.934,2.867,6.988,4.596
	c2.544,1.969,3.987,4.456,1.686,8.306c-0.202,2.646,0.332,4.426,0.707,6.063c0.568,2.476,0.772,4.592-2.418,8.805
	c-4.765,8.832,7.029,8.033,8.371,15.245c1.332,6.938-2.657,9.191-7.699,9.297c-4.35,0.091-9.516-1.429-12.739-2.834
	c-1.054-0.455-2.512-1.4-4.062-2.296c-1.855-1.073-3.835-2.076-5.403-2.086c-0.193-0.001-0.386-0.002-0.579,0.043
	c-3.041,1.551-4.747,4.723-6.273,8.048c-1.251,2.982-2.403,6.078-4.183,8.367c-0.291,0.375-0.598,0.727-0.925,1.053
	c-0.299,0.309-0.628,0.546-0.977,0.729c-2.618,1.45-6.465-0.296-7.512,3.04c-0.84,2.583,1.765,4.468,1.456,6.897
	c-0.194,1.584-0.977,2.426-2.025,2.936c-2.618,1.369-7.012,0.545-7.642,4.598c-0.491,1.859-0.065,2.84,0.265,4.465
	c1.744,4.806-3.047,10.604-8.428,10.733c-1.776,0.048-3.602-0.516-5.293-1.877c-1.204-1.056-2.273-1.775-3.265-2.228
	c-0.906-0.424-1.743-0.611-2.559-0.617c-2.375-0.02-4.539,1.387-7.595,2.658c-0.443,0.206-0.968,0.435-1.458,0.631
	c-0.498,0.105-1.083,0.22-1.554,0.302c-1.91,0.337-3.619,0.499-5.15,0.511c-1.579,0.01-2.974-0.141-4.228-0.434
	c-6.109-1.426-8.877-6.205-13.355-11.979c-1.018-1.178-2.126-2.407-3.377-3.663c-1.074-0.677-1.965-0.988-2.626-0.979
	c-1.322,0.012-1.899,1.236-1.586,3.018c0.023,0.148,0.051,0.301,0.086,0.456c0.323,1.381,1.432,1.787,1.115,3.432
	c-2.132,4-7.454,6.572-12.299,6.352c-3.343-0.147-6.498-1.654-8.141-4.927c-0.117-0.231-0.227-0.471-0.33-0.722
	c-1.31-2.564-4.478-8.1-6.052-13.054c-1.55-4.889-1.509-9.105,3.465-9.363c0.275-0.014,0.596-0.035,0.918-0.006
	c0.241-1.584,0.37-2.988,0.401-4.237c-0.055-7.486-4.195-8.959-9.364-10.359c-0.282-0.066-0.601-0.169-0.889-0.236
	c-0.284-0.065-0.6-0.171-0.888-0.238c-3.974-1.105-8.271-2.513-11.668-6.609c-1.169-1.585-1.005-2.848-0.776-4.202
	c0.166-0.81,0.296-1.786,0.189-2.768c-0.069-0.68-0.278-1.267-0.518-1.666c-0.15-0.25-0.329-0.506-0.523-0.689
	c-0.99-0.949-2.392-1.314-3.183-3.035c-0.156-2.926-0.421-4.599-0.794-5.64c-1.017-2.845-2.91-0.541-5.662-7.309
	c-1.397-2.952-1.315-4.882-0.784-6.363c1.107-3.46,4.743-4.403-2.981-10.502c-2.007-1.689-2.36-5.079-2.479-7.901
	c-0.004-0.096-0.008-0.207-0.012-0.302c-0.016-0.437-0.028-0.86-0.04-1.259c-0.184-5.133,2.291-4.891,4.737-8.495
	c2.385-3.557,1.451-7.875,2.984-11.308c0.56-1.346,1.538-1.865,2.843-1.936c1.654-0.09,3.757,0.62,5.889,1.434
	c2.739,1.058,5.515,2.281,7.417,2.197c0.807-0.036,1.477-0.286,1.872-0.957c1.62-4.11,4.516-7.262,8.861-7.329
	c1.363-0.025,2.82,0.233,4.464,0.865c1.521,0.585,2.613,1.702,3.756,2.629c0.968,0.788,1.97,1.44,3.301,1.511
	c1.38-0.45,2.295-0.708,3.067-0.686c1.072-0.039,1.915,0.433,3.683,1.601c2.663,0.65,4.039,1.173,5.325,1.143
	c1.762-0.04,3.302-1.081,7.566-4.031c5.387-3.732,2.711-3.151,7.867-7.288c0.961-0.74,1.658-1.597,2.148-2.547
	c0.002-0.005,0.005-0.01,0.008-0.015s0.005-0.01,0.008-0.015c0.697-1.349,0.97-2.883,0.985-4.535
	c0.018-0.687-0.007-1.393-0.064-2.112c-0.709-5.381-2.948-11.554-2.636-16.744c0,0,0,0,0,0c0.479-8.241,4.475-7.292,10.755-8.363
	c4.916-0.922,5.86-4.488,9.506-6.803c2.973-1.868,6.594-3.033,10.155-3.085c1.866-0.027,3.769,0.228,5.473,0.909
	c2.532,0.868,3.995,2.509,5.26,4.328c0.012,0.02,0.028,0.038,0.04,0.059c0.012,0.02,0.027,0.038,0.04,0.059
	c1.357,2.013,2.478,4.229,4.503,5.85c0.677,0.54,1.308,0.758,1.847,0.746c2.649-0.058,4.566-4.983,7.866-6.295
	c1.75-0.288,3.085-0.34,4.281-0.34c0.146,0,0.293,0,0.485,0c2.201,0.001,3.846-0.078,7.099-2.313
	c0.538-0.363,1.169-0.494,1.845-0.486c1.118,0.014,2.373,0.354,3.627,0.374c0.722,0.011,1.443-0.116,2.118-0.426
	c2.963-1.317,4.511-4.356,6.834-6.542c0.019-0.02,0.043-0.041,0.063-0.061c0.939-0.896,1.997-1.655,3.304-2.124
	c0.609-0.219,1.179-0.455,1.717-0.704c3.35-1.637,5.493-3.783,8.064-5.407c1.923-1.309,4.112-2.334,7.308-2.602
	c3.066-0.609,6.187-2.016,8.012-3.871c0.502-0.532,0.914-1.121,1.173-1.732c0.403-0.965,0.451-2.012,0.012-3.106
	c-0.602-1.258-1.796-2.564-3.764-3.863c-0.481-0.709-0.762-1.462-0.948-2.235c-0.393-1.661-0.35-3.418-0.954-5.051
	c-1.162-3.267-3.804-3.735-6.257-6.109c-1.973-1.938-2.56-4.762-4.52-6.677c-0.681-0.674-1.418-1.339-2.185-2.004
	c-0.011-0.009-0.022-0.02-0.033-0.029c-0.011-0.009-0.022-0.02-0.033-0.029c-3.91-3.381-8.585-6.749-10.791-11.3
	c-2.699-5.623-1.823-15.031,4.336-17.259c1.298-0.871,2.696-1.446,4.158-1.717C237.425,64.758,238.19,64.69,238.954,64.69"/>
<path class="st1" d="M239.51,61.454L239.51,61.454c8.086,0,14.682,5.482,20.985,11.987c4.013,4.136,7.832,8.631,11.811,12.211
	c2.387,2.141,4.979,4.102,7.597,5.296c1.07,0.388,2.184,0.687,3.342,0.889c0.218,0.016,0.437,0.031,0.657,0.045
	c0.386,0.024,0.771,0.043,1.156,0.045c2.472,0.01,4.887-0.299,7.242-0.222c2.414,0.081,4.724,0.552,6.928,2.163
	c7.616,3.164,19.844,7.704,13.049,18.328c-0.052,0.758,0.1,1.285,0.311,1.749c0.261,0.562,0.62,1.029,0.784,1.739
	c0.674,2.85,0.25,6.428,1.716,9.095c3.706,4.49,10.081,7.27,14.874,11.529c0.15,0.13,0.299,0.262,0.447,0.394
	c1.549,1.364,2.97,2.943,4.042,4.843c2.514,4.196,5.075,8.097,3.166,13.023c-1.169,2.474-2.676,3.837-4.189,5.141
	c-0.139,0.1-0.31,0.276-0.448,0.375c-0.138,0.1-0.312,0.274-0.448,0.375c-1.984,1.768-3.82,3.641-4.667,7.953
	c-0.193,0.296-0.38,0.564-0.562,0.807c-0.068,0.098-0.143,0.246-0.208,0.335c-0.897,1.206-1.873,2.012-2.546,2.386
	c-1.347,0.986-2.551,1.818-4.144,6.314c-2.007,6.168-8.809,9.912-11.146,15.937c-0.406,0.726-0.871,1.435-1.325,2.11
	c-0.061,0.093-0.134,0.219-0.195,0.312c-0.295,0.445-0.672,1.035-0.959,1.475c-0.634,0.993-1.225,1.979-1.662,3.012
	c-0.407,1.15-0.637,2.38-0.554,3.759c0.173,3.222,1.812,5.509-0.635,8.697c-1.837,2.418-3.834,3.406-5.918,3.606
	c-1.194,0.115-2.417-0.042-3.653-0.306c-3.211-0.679-6.484-2.196-9.595-2.263c-0.868-0.083-1.737-0.125-2.607-0.081
	c-5.63,0.273-10.644,3.227-16.128,4.186c-0.625,0.109-1.256,0.193-1.892,0.244c-0.834,0.084-1.621,0.076-2.45,0.066
	c-3.933-0.056-7.841-0.79-11.622-0.923c-0.641-0.022-1.278-0.031-1.911-0.012c-0.299,0.009-0.601,0.021-0.903,0.04
	c-0.854,0.111-1.729,0.277-2.586,0.494c-0.394,0.099-0.788,0.211-1.184,0.336c-3.426,0.708-6.072,1.75-7.58,3.118
	c-1.47,1.85-1.234,4.218,1.346,7.141c0.521,0.591,1.126,1.206,1.82,1.844c1.995,1.579,4.745,3.032,6.687,4.848
	c2.537,2.002,4.011,4.524,1.876,8.38c-0.154,2.628,0.39,4.436,0.773,6.116c0.582,2.553,0.789,4.745-2.275,8.933
	c-4.587,8.929,6.521,8.481,7.67,15.562c1.176,6.773-2.817,9.117-7.91,9.33c-4.331,0.181-9.481-1.226-12.806-2.548
	c-1.08-0.428-2.552-1.33-4.115-2.189c-1.873-1.028-3.863-1.995-5.455-2.015c-0.194-0.002-0.388-0.004-0.583,0.038
	c-3.094,1.464-4.897,4.465-6.505,7.608c-1.272,2.975-2.464,6.062-4.281,8.368c-0.295,0.375-0.605,0.729-0.935,1.056
	c-0.301,0.309-0.63,0.549-0.979,0.737c-2.544,1.526-6.285-0.018-7.358,3.296c-0.864,2.575,1.561,4.473,1.184,6.883
	c-0.228,1.56-1.022,2.406-2.074,2.932c-2.537,1.461-6.797,0.817-7.47,4.84c-0.502,1.845-0.13,2.849,0.147,4.467
	c1.472,4.908-3.407,10.68-8.888,10.954c-1.823,0.091-3.701-0.407-5.451-1.691c-1.243-0.997-2.358-1.679-3.4-2.113
	c-0.929-0.407-1.791-0.589-2.632-0.601c-2.461-0.039-4.715,1.257-7.813,2.396c-0.425,0.198-0.992,0.442-1.461,0.63
	c-0.477,0.101-1.144,0.233-1.595,0.312c-1.952,0.348-3.706,0.523-5.286,0.546c-1.612,0.02-3.045-0.12-4.342-0.4
	c-6.304-1.367-9.356-6.067-13.99-11.838c-1.084-1.082-2.259-2.223-3.573-3.4c-1.092-0.634-2.01-0.918-2.708-0.903
	c-1.359,0.029-2.005,1.204-1.799,2.912c0.01,0.142,0.026,0.288,0.048,0.437c0.215,1.322,1.184,1.703,0.789,3.264
	c-2.392,3.776-7.805,6.088-12.694,5.648c-3.369-0.294-6.528-1.925-8.2-5.278c-0.12-0.236-0.234-0.482-0.342-0.74
	c-1.346-2.628-4.52-8.192-6.133-13.223c-1.57-4.914-1.573-9.112,3.168-9.626c0.263-0.029,0.569-0.07,0.876-0.061
	c0.226-1.597,0.351-3.02,0.387-4.292c-0.277-7.286-4.479-8.861-9.647-10.446c-0.271-0.064-0.61-0.201-0.886-0.264
	c-0.272-0.063-0.605-0.205-0.882-0.27c-3.973-1.28-8.187-2.873-11.47-7.061c-1.163-1.581-1.045-2.862-0.861-4.238
	c0.159-0.776,0.22-1.851,0.118-2.792c-0.066-0.652-0.306-1.299-0.535-1.681c-0.144-0.24-0.317-0.535-0.504-0.71
	c-0.998-0.972-2.386-1.388-3.187-3.108c-0.2-2.889-0.5-4.584-0.9-5.682c-1.05-2.89-2.917-0.847-5.581-7.497
	c-1.358-2.949-1.286-4.917-0.771-6.454c0.916-3.533,4.328-4.668-3.111-10.717c-1.958-1.805-2.301-5.218-2.418-8.033
	c-0.004-0.092-0.009-0.214-0.012-0.305c-0.017-0.442-0.028-0.87-0.04-1.276c-0.177-5.129,2.229-5.079,4.625-8.686
	c2.37-3.658,1.606-7.975,3.185-11.383c0.545-1.348,1.493-1.907,2.759-2.049c1.607-0.18,3.655,0.387,5.747,1.053
	c2.682,0.88,5.415,1.914,7.33,1.744c0.797-0.071,1.467-0.332,1.872-1.003c1.704-4.091,4.664-7.217,9.033-7.362
	c1.381-0.046,2.856,0.178,4.512,0.771c1.537,0.548,2.665,1.611,3.843,2.5c0.995,0.756,2.02,1.384,3.359,1.46
	c1.416-0.42,2.382-0.648,3.205-0.603c1.088-0.077,1.959,0.339,3.717,1.425c2.637,0.581,4.045,1.049,5.37,0.991
	c1.845-0.081,3.484-1.107,7.74-3.933c5.35-3.577,2.975-2.99,8.103-6.896c0.978-0.691,1.703-1.492,2.229-2.379
	c0.002-0.005,0.006-0.009,0.008-0.014c0.002-0.005,0.006-0.009,0.008-0.014c0.754-1.257,1.093-2.686,1.175-4.227
	c0.057-0.655,0.072-1.326,0.055-2.008c-0.736-5.408-2.944-11.63-2.625-16.94c0,0,0,0,0,0c0.479-8.226,4.39-7.576,10.517-8.807
	c4.84-1.123,5.913-4.704,9.556-7.03c3.019-1.912,6.661-3.092,10.23-3.193c1.907-0.054,3.842,0.168,5.57,0.81
	c2.503,0.761,4,2.254,5.334,3.92c0.012,0.019,0.03,0.035,0.041,0.054c0.012,0.019,0.03,0.035,0.041,0.054
	c1.413,1.86,2.605,3.923,4.668,5.426c0.681,0.504,1.319,0.7,1.869,0.677c2.705-0.116,4.715-4.878,8.051-6.157
	c1.771-0.288,3.145-0.344,4.386-0.344c0.149,0,0.298,0,0.491,0c2.242,0.003,3.947-0.06,7.19-2.177
	c0.549-0.341,1.185-0.46,1.865-0.444c1.132,0.029,2.395,0.372,3.655,0.412c0.723,0.021,1.446-0.088,2.124-0.373
	c3.011-1.194,4.639-4.02,6.985-6.021c0.019-0.019,0.046-0.04,0.065-0.059c0.973-0.871,2.055-1.606,3.368-2.061
	c0.617-0.213,1.195-0.442,1.739-0.682c3.355-1.649,5.566-3.759,8.196-5.341c1.922-1.342,4.116-2.418,7.299-2.762
	c3.05-0.665,6.174-2.09,8.08-3.927c0.499-0.522,0.933-1.116,1.21-1.726c0.425-0.955,0.515-1.994,0.146-3.078
	c-0.641-1.293-1.832-2.626-3.753-3.934c-0.491-0.704-0.794-1.453-1.005-2.219c-0.441-1.642-0.468-3.381-1.119-5.008
	c-1.22-3.221-3.864-3.774-6.321-6.171c-1.977-1.955-2.623-4.771-4.577-6.731c-0.678-0.689-1.409-1.37-2.168-2.053
	c-0.01-0.009-0.023-0.021-0.033-0.03c-0.01-0.009-0.023-0.021-0.033-0.03c-3.868-3.479-8.419-6.972-10.556-11.603
	c-2.615-5.726-1.726-15.086,4.305-17.527c1.441-1.305,3.143-2.2,5.006-2.619C237.566,61.561,238.537,61.454,239.51,61.454"/>
<path class="st1" d="M240.067,58.218L240.067,58.218c8.27,0,15.095,5.431,21.604,12.022c4.156,4.2,8.071,8.789,12.108,12.468
	c2.405,2.182,5.074,4.268,7.701,5.511c1.091,0.366,2.235,0.646,3.429,0.838c0.223,0.015,0.447,0.03,0.672,0.043
	c0.395,0.023,0.79,0.042,1.184,0.044c2.532,0.015,5.002-0.257,7.407-0.142c2.47,0.121,4.83,0.636,7.08,2.26
	c7.727,3.21,20.166,7.883,13.934,18.828c-0.036,0.765,0.122,1.312,0.335,1.799c0.26,0.578,0.614,1.071,0.779,1.801
	c0.676,2.907,0.28,6.57,1.613,9.394c3.85,4.487,10.363,7.408,15.238,11.967c0.152,0.137,0.302,0.275,0.45,0.414
	c1.542,1.402,2.989,3.051,4.091,5.041c2.522,4.277,5.068,8.353,3.189,13.463c-1.139,2.519-2.623,3.985-4.143,5.399
	c-0.133,0.096-0.314,0.305-0.446,0.4c-0.132,0.096-0.319,0.302-0.449,0.399c-2.026,1.941-3.939,3.91-4.886,8.159
	c-0.203,0.3-0.399,0.572-0.59,0.819c-0.065,0.093-0.141,0.266-0.204,0.35c-0.858,1.154-1.927,2.15-2.57,2.507
	c-1.405,1.136-2.68,2.072-4.321,6.478c-2.074,6.276-8.822,10.116-11.223,16.057c-0.417,0.725-0.899,1.443-1.358,2.117
	c-0.058,0.089-0.135,0.228-0.193,0.316c-0.282,0.425-0.687,1.073-0.961,1.494c-0.637,1.009-1.234,2.006-1.682,3.042
	c-0.383,1.162-0.599,2.407-0.52,3.801c0.163,3.225,1.71,5.575-0.688,8.797c-1.795,2.427-3.757,3.499-5.829,3.8
	c-1.177,0.171-2.388,0.072-3.615-0.124c-3.192-0.499-6.459-1.824-9.585-1.786c-0.869-0.052-1.741-0.067-2.615-0.002
	c-5.645,0.409-10.732,3.313-16.285,4.23c-0.633,0.105-1.27,0.184-1.912,0.23c-0.842,0.078-1.639,0.066-2.475,0.051
	c-4.003-0.084-7.946-0.851-11.72-1.048c-0.648-0.034-1.289-0.057-1.924-0.051c-0.3,0.003-0.605,0.008-0.909,0.02
	c-0.858,0.119-1.746,0.297-2.608,0.519c-0.396,0.102-0.794,0.216-1.194,0.343c-3.397,0.72-6.07,1.764-7.675,3.11
	c-1.404,1.914-1.195,4.323,1.236,7.261c0.506,0.611,1.092,1.245,1.761,1.903c1.924,1.652,4.556,3.196,6.386,5.1
	c2.529,2.035,4.035,4.592,2.066,8.454c-0.106,2.611,0.448,4.446,0.838,6.169c0.596,2.629,0.806,4.898-2.131,9.061
	c-4.408,9.025,6.014,8.93,6.97,15.88c1.021,6.607-2.977,9.042-8.122,9.363c-4.311,0.269-9.445-1.024-12.872-2.262
	c-1.107-0.402-2.591-1.26-4.167-2.082c-1.89-0.983-3.891-1.915-5.507-1.944c-0.195-0.003-0.391-0.006-0.586,0.033
	c-3.148,1.378-5.048,4.207-6.738,7.169c-1.292,2.969-2.526,6.045-4.38,8.368c-0.298,0.376-0.612,0.73-0.944,1.059
	c-0.303,0.31-0.633,0.553-0.981,0.745c-2.47,1.602-6.104,0.259-7.204,3.553c-0.888,2.566,1.358,4.477,0.912,6.868
	c-0.261,1.536-1.067,2.387-2.122,2.928c-2.456,1.552-6.581,1.089-7.298,5.083c-0.514,1.832-0.195,2.857,0.028,4.468
	c1.201,5.009-3.767,10.766-9.348,11.175c-1.871,0.137-3.799-0.299-5.608-1.504c-1.282-0.938-2.443-1.582-3.535-1.997
	c-0.951-0.389-1.839-0.567-2.706-0.585c-2.547-0.059-4.891,1.127-8.032,2.133c-0.406,0.189-1.015,0.449-1.463,0.629
	c-0.456,0.097-1.204,0.246-1.635,0.322c-1.994,0.36-3.793,0.546-5.421,0.581c-1.646,0.03-3.116-0.098-4.455-0.366
	c-6.498-1.307-9.835-5.929-14.625-11.697c-1.15-0.987-2.391-2.04-3.77-3.137c-1.111-0.591-2.055-0.849-2.79-0.826
	c-1.396,0.043-2.111,1.171-2.013,2.805c-0.002,0.136,0.001,0.275,0.01,0.417c0.106,1.262,0.936,1.618,0.464,3.096
	c-2.651,3.552-8.155,5.604-13.09,4.945c-3.395-0.441-6.558-2.197-8.259-5.629c-0.123-0.241-0.241-0.493-0.354-0.758
	c-1.383-2.692-4.562-8.284-6.214-13.392c-1.591-4.94-1.631-9.12,2.87-9.889c0.251-0.043,0.541-0.105,0.834-0.115
	c0.212-1.61,0.333-3.051,0.373-4.346c-0.498-7.087-4.763-8.763-9.929-10.534c-0.259-0.061-0.618-0.232-0.883-0.293
	c-0.26-0.06-0.611-0.239-0.875-0.301c-3.971-1.456-8.103-3.233-11.272-7.514c-1.156-1.578-1.085-2.876-0.946-4.273
	c0.152-0.742,0.145-1.915,0.047-2.815c-0.063-0.623-0.333-1.332-0.552-1.697c-0.138-0.229-0.305-0.563-0.484-0.731
	c-1.005-0.994-2.38-1.462-3.191-3.182c-0.244-2.852-0.579-4.569-1.006-5.723c-1.084-2.936-2.923-1.153-5.5-7.685
	c-1.319-2.945-1.257-4.951-0.757-6.545c0.726-3.606,3.914-4.933-3.241-10.932c-1.909-1.921-2.242-5.356-2.358-8.164
	c-0.004-0.088-0.009-0.221-0.012-0.308c-0.017-0.447-0.028-0.881-0.039-1.292c-0.169-5.126,2.168-5.266,4.514-8.878
	c2.354-3.759,1.76-8.074,3.385-11.459c0.529-1.349,1.448-1.948,2.674-2.161c1.562-0.271,3.552,0.153,5.604,0.673
	c2.626,0.702,5.314,1.549,7.242,1.291c0.787-0.105,1.456-0.378,1.872-1.048c1.788-4.073,4.813-7.178,9.206-7.395
	c1.4-0.069,2.892,0.123,4.56,0.676c1.553,0.511,2.717,1.521,3.931,2.371c1.022,0.723,2.07,1.329,3.416,1.409
	c1.453-0.389,2.469-0.588,3.344-0.521c1.103-0.116,2.002,0.244,3.752,1.25c2.612,0.511,4.052,0.925,5.415,0.838
	c1.927-0.122,3.666-1.132,7.914-3.836c5.313-3.421,3.238-2.829,8.338-6.504c0.995-0.643,1.747-1.387,2.31-2.211
	c0.002-0.005,0.007-0.008,0.009-0.013c0.002-0.005,0.007-0.008,0.009-0.013c0.811-1.165,1.216-2.489,1.366-3.92
	c0.096-0.623,0.151-1.259,0.174-1.904c-0.763-5.436-2.94-11.706-2.614-17.136c0,0,0,0,0,0c0.478-8.212,4.304-7.861,10.28-9.25
	c4.765-1.325,5.965-4.919,9.606-7.257c3.064-1.956,6.727-3.151,10.305-3.302c1.949-0.082,3.915,0.108,5.667,0.711
	c2.473,0.654,4.006,1.999,5.407,3.513c0.011,0.018,0.032,0.031,0.043,0.05c0.011,0.018,0.032,0.031,0.043,0.05
	c1.468,1.706,2.732,3.616,4.833,5.001c0.686,0.468,1.331,0.642,1.892,0.607c2.762-0.174,4.865-4.773,8.237-6.02
	c1.793-0.288,3.206-0.348,4.491-0.348c0.151,0,0.303,0,0.496,0c2.283,0.004,4.049-0.043,7.281-2.042
	c0.559-0.319,1.202-0.427,1.886-0.403c1.146,0.041,2.416,0.39,3.682,0.449c0.725,0.032,1.449-0.06,2.129-0.319
	c3.059-1.071,4.766-3.684,7.136-5.499c0.018-0.018,0.049-0.039,0.067-0.057c1.008-0.846,2.113-1.558,3.432-1.999
	c0.625-0.207,1.21-0.428,1.761-0.659c3.36-1.661,5.64-3.736,8.328-5.276c1.92-1.375,4.12-2.503,7.29-2.923
	c3.035-0.722,6.161-2.163,8.147-3.983c0.496-0.512,0.951-1.112,1.247-1.719c0.447-0.945,0.579-1.975,0.279-3.051
	c-0.68-1.328-1.868-2.687-3.741-4.005c-0.5-0.699-0.825-1.443-1.062-2.203c-0.488-1.624-0.587-3.345-1.284-4.965
	c-1.278-3.176-3.924-3.813-6.386-6.232c-1.982-1.973-2.687-4.781-4.633-6.784c-0.675-0.703-1.4-1.401-2.15-2.102
	c-0.01-0.008-0.023-0.022-0.032-0.03c-0.01-0.008-0.023-0.022-0.032-0.03c-3.825-3.576-8.254-7.195-10.32-11.906
	c-2.53-5.829-1.629-15.141,4.273-17.794c1.584-1.738,3.589-2.954,5.853-3.52C237.708,58.364,238.883,58.218,240.067,58.218"/>
<path class="st1" d="M240.624,54.982L240.624,54.982c8.454,0,15.507,5.38,22.224,12.057c4.299,4.263,8.31,8.946,12.406,12.726
	c2.424,2.224,5.169,4.433,7.805,5.725c1.112,0.344,2.285,0.606,3.516,0.787c0.228,0.014,0.457,0.028,0.687,0.04
	c0.404,0.022,0.808,0.04,1.211,0.043c2.592,0.021,5.117-0.215,7.572-0.061c2.525,0.162,4.936,0.719,7.232,2.358
	c7.839,3.256,20.487,8.063,14.819,19.328c-0.02,0.773,0.144,1.338,0.36,1.849c0.259,0.594,0.608,1.113,0.775,1.863
	c0.677,2.964,0.309,6.712,1.511,9.693c3.995,4.484,10.645,7.546,15.603,12.405c0.153,0.144,0.304,0.289,0.454,0.434
	c1.536,1.439,3.007,3.159,4.14,5.239c2.531,4.359,5.061,8.609,3.212,13.902c-1.109,2.565-2.57,4.132-4.097,5.658
	c-0.127,0.091-0.319,0.334-0.444,0.425c-0.126,0.091-0.327,0.33-0.45,0.423c-2.069,2.114-4.058,4.179-5.104,8.366
	c-0.212,0.303-0.419,0.579-0.619,0.831c-0.062,0.089-0.139,0.285-0.199,0.366c-0.819,1.101-1.98,2.287-2.595,2.628
	c-1.463,1.287-2.808,2.327-4.499,6.643c-2.142,6.383-8.834,10.32-11.3,16.178c-0.428,0.725-0.927,1.451-1.39,2.125
	c-0.056,0.085-0.135,0.237-0.191,0.321c-0.269,0.406-0.701,1.11-0.963,1.512c-0.641,1.025-1.244,2.034-1.703,3.072
	c-0.359,1.174-0.561,2.435-0.487,3.842c0.153,3.228,1.609,5.642-0.741,8.897c-1.754,2.436-3.68,3.592-5.74,3.995
	c-1.159,0.227-2.359,0.186-3.578,0.058c-3.173-0.32-6.434-1.452-9.574-1.309c-0.871-0.021-1.746-0.009-2.623,0.078
	c-5.659,0.545-10.82,3.399-16.443,4.275c-0.641,0.1-1.285,0.174-1.933,0.217c-0.851,0.071-1.658,0.056-2.5,0.037
	c-4.073-0.112-8.051-0.912-11.819-1.174c-0.654-0.045-1.3-0.082-1.938-0.09c-0.301-0.004-0.609-0.005-0.916-0.001
	c-0.861,0.128-1.763,0.317-2.629,0.544c-0.399,0.105-0.8,0.221-1.203,0.35c-3.368,0.731-6.068,1.778-7.771,3.101
	c-1.337,1.977-1.156,4.428,1.126,7.382c0.492,0.63,1.058,1.284,1.702,1.962c1.853,1.725,4.366,3.361,6.085,5.352
	c2.521,2.068,4.059,4.66,2.256,8.528c-0.059,2.594,0.506,4.456,0.904,6.222c0.61,2.706,0.824,5.052-1.987,9.188
	c-4.23,9.121,5.506,9.378,6.269,16.197c0.865,6.441-3.136,8.966-8.333,9.396c-4.292,0.355-9.41-0.821-12.939-1.975
	c-1.133-0.376-2.631-1.191-4.219-1.975c-1.907-0.938-3.918-1.834-5.56-1.873c-0.197-0.004-0.393-0.008-0.589,0.028
	c-3.201,1.291-5.199,3.949-6.971,6.73c-1.313,2.962-2.587,6.028-4.479,8.369c-0.302,0.377-0.619,0.732-0.954,1.062
	c-0.305,0.31-0.635,0.556-0.984,0.753c-2.397,1.678-5.924,0.537-7.05,3.809c-0.912,2.558,1.154,4.481,0.64,6.853
	c-0.295,1.512-1.112,2.367-2.171,2.924c-2.375,1.644-6.366,1.361-7.125,5.325c-0.525,1.818-0.259,2.865-0.091,4.47
	c0.929,5.111-4.128,10.852-9.807,11.396c-1.919,0.184-3.897-0.191-5.765-1.318c-1.321-0.88-2.528-1.486-3.669-1.882
	c-0.974-0.371-1.887-0.544-2.779-0.57c-2.633-0.078-5.068,0.998-8.25,1.871c-0.388,0.181-1.038,0.457-1.466,0.628
	c-0.436,0.092-1.264,0.26-1.676,0.331c-2.036,0.372-3.879,0.57-5.557,0.616c-1.679,0.04-3.187-0.077-4.568-0.333
	c-6.692-1.248-10.314-5.791-15.26-11.557c-1.216-0.892-2.524-1.856-3.966-2.874c-1.129-0.548-2.1-0.78-2.872-0.75
	c-1.432,0.056-2.218,1.139-2.226,2.699c-0.015,0.13-0.024,0.263-0.028,0.398c-0.002,1.203,0.689,1.534,0.139,2.928
	c-2.911,3.328-8.503,5.109-13.485,4.241c-3.42-0.596-6.588-2.469-8.319-5.98c-0.125-0.246-0.247-0.504-0.365-0.776
	c-1.419-2.757-4.603-8.376-6.295-13.561c-1.611-4.965-1.682-9.132,2.573-10.152c0.24-0.057,0.514-0.14,0.792-0.169
	c0.198-1.623,0.314-3.083,0.358-4.401c-0.719-6.888-5.046-8.666-10.211-10.622c-0.247-0.058-0.627-0.264-0.88-0.322
	c-0.248-0.057-0.616-0.273-0.869-0.332c-3.97-1.631-8.018-3.593-11.074-7.966c-1.149-1.575-1.125-2.89-1.03-4.309
	c0.145-0.708,0.07-1.98-0.024-2.839c-0.06-0.595-0.36-1.364-0.569-1.713c-0.132-0.219-0.294-0.591-0.464-0.752
	c-1.012-1.016-2.374-1.535-3.194-3.255c-0.288-2.815-0.658-4.554-1.112-5.764c-1.118-2.982-2.93-1.46-5.418-7.873
	c-1.281-2.941-1.228-4.986-0.744-6.636c0.536-3.679,3.499-5.197-3.372-11.147c-1.859-2.037-2.183-5.495-2.297-8.295
	c-0.004-0.084-0.009-0.228-0.012-0.311c-0.017-0.452-0.028-0.891-0.039-1.308c-0.161-5.122,2.106-5.454,4.403-9.069
	c2.339-3.859,1.915-8.173,3.585-11.534c0.513-1.351,1.403-1.99,2.589-2.273c1.517-0.362,3.45-0.08,5.461,0.292
	c2.569,0.524,5.212,1.185,7.155,0.838c0.777-0.138,1.445-0.424,1.871-1.093c1.873-4.055,4.961-7.14,9.378-7.428
	c1.419-0.093,2.929,0.068,4.608,0.582c1.569,0.473,2.769,1.43,4.018,2.242c1.049,0.69,2.12,1.273,3.473,1.358
	c1.489-0.359,2.556-0.528,3.483-0.439c1.119-0.155,2.046,0.15,3.786,1.075c2.587,0.442,4.059,0.8,5.461,0.685
	c2.01-0.164,3.848-1.158,8.087-3.738c5.276-3.266,3.501-2.668,8.574-6.112c1.012-0.594,1.792-1.282,2.391-2.043
	c0.002-0.004,0.008-0.007,0.01-0.012c0.002-0.004,0.008-0.007,0.01-0.012c0.869-1.073,1.339-2.293,1.556-3.612
	c0.136-0.59,0.23-1.191,0.292-1.801c-0.79-5.464-2.937-11.782-2.603-17.333c0,0,0,0,0,0c0.478-8.197,4.219-8.145,10.043-9.693
	c4.689-1.526,6.018-5.135,9.656-7.484c3.109-2,6.794-3.212,10.38-3.41c1.991-0.11,3.988,0.049,5.765,0.611
	c2.443,0.547,4.012,1.744,5.481,3.106c0.011,0.018,0.034,0.027,0.045,0.045c0.011,0.018,0.034,0.027,0.044,0.045
	c1.524,1.552,2.86,3.309,4.999,4.576c0.691,0.432,1.342,0.584,1.914,0.537c2.818-0.232,5.014-4.668,8.422-5.882
	c1.814-0.288,3.267-0.352,4.596-0.352c0.154,0,0.307,0,0.501,0.001c2.324,0.006,4.15-0.025,7.372-1.907
	c0.569-0.298,1.218-0.393,1.906-0.361c1.16,0.055,2.437,0.408,3.709,0.487c0.727,0.043,1.452-0.032,2.135-0.265
	c3.107-0.948,4.893-3.348,7.287-4.978c0.017-0.018,0.051-0.038,0.069-0.055c1.042-0.821,2.17-1.509,3.496-1.936
	c0.633-0.201,1.226-0.414,1.784-0.637c3.365-1.673,5.713-3.712,8.46-5.211c1.918-1.408,4.124-2.587,7.281-3.084
	c3.019-0.778,6.148-2.237,8.215-4.039c0.493-0.501,0.97-1.108,1.284-1.712c0.468-0.935,0.643-1.956,0.412-3.024
	c-0.718-1.363-1.904-2.749-3.73-4.076c-0.51-0.694-0.857-1.433-1.118-2.188c-0.535-1.606-0.705-3.309-1.449-4.922
	c-1.336-3.131-3.984-3.852-6.451-6.293c-1.986-1.99-2.75-4.791-4.69-6.838c-0.673-0.718-1.391-1.432-2.133-2.151
	c-0.009-0.008-0.023-0.023-0.032-0.031c-0.009-0.008-0.023-0.023-0.032-0.031c-3.782-3.674-8.088-7.417-10.085-12.209
	c-2.446-5.932-1.531-15.196,4.242-18.062c1.727-2.172,4.035-3.708,6.701-4.422C237.849,55.167,239.23,54.982,240.624,54.982"/>
<path class="st1" d="M241.181,51.746L241.181,51.746c8.638,0,15.92,5.328,22.843,12.092c4.442,4.327,8.549,9.104,12.703,12.983
	c2.442,2.266,5.264,4.599,7.909,5.94c1.132,0.321,2.336,0.565,3.604,0.736c0.233,0.013,0.467,0.026,0.703,0.038
	c0.413,0.021,0.826,0.039,1.238,0.043c2.652,0.026,5.232-0.172,7.737,0.02c2.58,0.202,5.043,0.803,7.385,2.455
	c7.951,3.301,20.809,8.243,15.704,19.828c-0.004,0.781,0.166,1.365,0.384,1.898c0.259,0.611,0.602,1.156,0.77,1.925
	c0.678,3.021,0.338,6.854,1.409,9.993c4.139,4.48,10.927,7.684,15.967,12.843c0.154,0.151,0.307,0.302,0.458,0.454
	c1.529,1.477,3.025,3.266,4.189,5.437c2.54,4.441,5.055,8.866,3.234,14.342c-1.078,2.611-2.518,4.28-4.05,5.916
	c-0.121,0.087-0.323,0.364-0.443,0.45c-0.12,0.087-0.334,0.358-0.452,0.446c-2.111,2.287-4.177,4.448-5.323,8.573
	c-0.222,0.307-0.438,0.587-0.647,0.843c-0.059,0.085-0.137,0.305-0.194,0.382c-0.78,1.049-2.034,2.424-2.619,2.749
	c-1.521,1.438-2.937,2.582-4.676,6.808c-2.209,6.491-8.847,10.524-11.377,16.298c-0.44,0.724-0.955,1.46-1.423,2.132
	c-0.053,0.081-0.136,0.245-0.189,0.326c-0.257,0.387-0.715,1.147-0.964,1.53c-0.645,1.041-1.254,2.061-1.724,3.103
	c-0.334,1.186-0.523,2.462-0.453,3.884c0.144,3.231,1.507,5.708-0.795,8.998c-1.712,2.445-3.602,3.684-5.651,4.19
	c-1.141,0.282-2.329,0.301-3.541,0.24c-3.154-0.141-6.409-1.08-9.563-0.832c-0.873,0.009-1.75,0.049-2.631,0.157
	c-5.674,0.681-10.909,3.485-16.6,4.319c-0.649,0.095-1.299,0.165-1.953,0.203c-0.86,0.065-1.676,0.048-2.525,0.022
	c-4.144-0.13-8.156-0.974-11.918-1.299c-0.661-0.057-1.311-0.108-1.952-0.129c-0.302-0.01-0.614-0.019-0.922-0.022
	c-0.865,0.136-1.781,0.336-2.651,0.569c-0.401,0.107-0.805,0.226-1.213,0.357c-3.339,0.743-6.067,1.792-7.866,3.093
	c-1.271,2.041-1.117,4.533,1.017,7.502c0.477,0.649,1.025,1.323,1.644,2.022c1.782,1.799,4.177,3.526,5.785,5.604
	c2.514,2.101,4.083,4.728,2.447,8.603c-0.011,2.576,0.563,4.466,0.969,6.275c0.624,2.783,0.841,5.205-1.843,9.316
	c-4.051,9.218,4.999,9.827,5.568,16.514c0.709,6.276-3.295,8.887-8.544,9.429c-4.272,0.441-9.374-0.618-13.006-1.689
	c-1.16-0.349-2.671-1.121-4.272-1.868c-1.924-0.894-3.945-1.757-5.612-1.802c-0.198-0.005-0.395-0.01-0.592,0.023
	c-3.255,1.204-5.349,3.691-7.204,6.29c-1.334,2.955-2.649,6.011-4.577,8.369c-0.306,0.377-0.626,0.733-0.964,1.065
	c-0.307,0.311-0.638,0.559-0.986,0.762c-2.323,1.754-5.743,0.814-6.897,4.066c-0.936,2.549,0.951,4.486,0.368,6.838
	c-0.328,1.488-1.158,2.347-2.219,2.92c-2.294,1.735-6.151,1.633-6.953,5.568c-0.536,1.805-0.324,2.874-0.21,4.471
	c0.657,5.213-4.488,10.94-10.267,11.617c-1.967,0.23-3.995-0.082-5.922-1.131c-1.36-0.821-2.613-1.39-3.804-1.767
	c-0.996-0.353-1.934-0.522-2.852-0.554c-2.719-0.098-5.244,0.868-8.468,1.608c-0.369,0.172-1.061,0.464-1.469,0.627
	c-0.415,0.088-1.325,0.273-1.717,0.341c-2.078,0.383-3.966,0.594-5.692,0.651c-1.712,0.05-3.258-0.055-4.681-0.299
	c-6.886-1.188-10.793-5.653-15.895-11.416c-1.282-0.797-2.656-1.673-4.162-2.611c-1.147-0.505-2.145-0.712-2.954-0.673
	c-1.469,0.069-2.324,1.107-2.439,2.592c-0.027,0.124-0.049,0.25-0.066,0.379c-0.111,1.144,0.441,1.449-0.187,2.76
	c-3.171,3.104-8.853,4.623-13.88,3.537c-3.445-0.744-6.619-2.741-8.378-6.331c-0.128-0.251-0.254-0.515-0.377-0.793
	c-1.455-2.821-4.645-8.468-6.376-13.73c-1.632-4.991-1.727-9.151,2.275-10.416c0.229-0.072,0.486-0.175,0.75-0.223
	c0.183-1.636,0.295-3.114,0.344-4.456c-0.94-6.688-5.33-8.568-10.493-10.71c-0.235-0.055-0.636-0.296-0.877-0.351
	c-0.236-0.054-0.622-0.308-0.863-0.364c-3.968-1.807-7.934-3.954-10.876-8.418c-1.142-1.572-1.165-2.904-1.115-4.344
	c0.138-0.675-0.006-2.044-0.095-2.862c-0.058-0.567-0.387-1.396-0.587-1.729c-0.125-0.209-0.282-0.62-0.444-0.773
	c-1.019-1.039-2.369-1.609-3.198-3.329c-0.332-2.778-0.737-4.54-1.218-5.805c-1.152-3.028-2.936-1.766-5.337-8.061
	c-1.242-2.937-1.199-5.02-0.73-6.726c0.346-3.752,3.085-5.462-3.502-11.362c-1.81-2.153-2.124-5.634-2.237-8.427
	c-0.003-0.08-0.009-0.236-0.012-0.315c-0.017-0.457-0.028-0.901-0.038-1.325c-0.154-5.119,2.045-5.641,4.291-9.26
	c2.324-3.96,2.07-8.273,3.785-11.61c0.497-1.353,1.359-2.033,2.504-2.386c1.472-0.453,3.347-0.314,5.319-0.088
	c2.512,0.346,5.109,0.823,7.068,0.386c0.766-0.171,1.434-0.47,1.871-1.139c1.957-4.036,5.11-7.102,9.551-7.462
	c1.438-0.116,2.965,0.013,4.657,0.487c1.585,0.436,2.82,1.34,4.105,2.112c1.075,0.657,2.17,1.217,3.531,1.307
	c1.525-0.329,2.643-0.468,3.622-0.357c1.135-0.193,2.089,0.055,3.821,0.9c2.562,0.372,4.066,0.675,5.506,0.533
	c2.093-0.207,4.03-1.183,8.261-3.641c5.24-3.11,3.765-2.507,8.809-5.72c1.029-0.545,1.837-1.177,2.472-1.875
	c0.002-0.004,0.009-0.006,0.01-0.011s0.009-0.006,0.01-0.011c0.926-0.981,1.462-2.096,1.746-3.305
	c0.175-0.558,0.309-1.124,0.411-1.697c-0.817-5.491-2.933-11.858-2.592-17.529c0,0,0,0,0,0c0.477-8.182,4.134-8.429,9.805-10.136
	c4.613-1.728,6.07-5.351,9.706-7.711c3.154-2.044,6.861-3.273,10.455-3.519c2.033-0.139,4.061-0.011,5.862,0.512
	c2.413,0.441,4.017,1.488,5.554,2.699c0.01,0.017,0.036,0.024,0.046,0.041s0.036,0.024,0.046,0.041
	c1.58,1.398,2.987,3.003,5.164,4.151c0.695,0.396,1.354,0.526,1.937,0.468c2.875-0.291,5.164-4.563,8.608-5.745
	c1.836-0.288,3.327-0.356,4.701-0.356c0.156,0,0.312,0,0.507,0.001c2.365,0.007,4.252-0.007,7.462-1.772
	c0.58-0.276,1.235-0.359,1.927-0.319c1.174,0.068,2.458,0.426,3.737,0.525c0.728,0.054,1.455-0.004,2.141-0.212
	c3.156-0.825,5.021-3.012,7.438-4.457c0.016-0.017,0.054-0.037,0.07-0.054c1.076-0.796,2.228-1.461,3.56-1.873
	c0.641-0.195,1.241-0.4,1.806-0.614c3.37-1.685,5.787-3.689,8.591-5.145c1.916-1.441,4.128-2.671,7.272-3.244
	c3.004-0.834,6.135-2.311,8.282-4.095c0.49-0.491,0.989-1.104,1.321-1.705c0.49-0.925,0.707-1.937,0.545-2.996
	c-0.757-1.398-1.94-2.81-3.718-4.147c-0.52-0.689-0.888-1.423-1.175-2.172c-0.582-1.587-0.823-3.272-1.615-4.879
	c-1.394-3.085-4.044-3.891-6.516-6.355c-1.991-2.008-2.814-4.8-4.746-6.891c-0.67-0.732-1.382-1.463-2.115-2.2
	c-0.009-0.007-0.023-0.025-0.032-0.032c-0.009-0.007-0.023-0.025-0.032-0.032c-3.739-3.771-7.922-7.64-9.849-12.512
	c-2.361-6.035-1.434-15.251,4.21-18.329c1.87-2.606,4.482-4.462,7.549-5.323C237.99,51.97,239.577,51.746,241.181,51.746"/>
</svg>
