<svg version="1.1" id="Livello_2_copia_2" xmlns:x="&ns_extend;" xmlns:i="&ns_ai;" xmlns:graph="&ns_graphs;"
	 xmlns="http://www.w3.org/2000/svg" xmlns:xlink="http://www.w3.org/1999/xlink" x="0px" y="0px" viewBox="0 0 907.1 907.1"
	 style="enable-background:new 0 0 907.1 907.1;" xml:space="preserve">
<style type="text/css">
	.st0{fill:none;stroke:#000000;stroke-miterlimit:10;}
</style>
<metadata>
	<sfw  xmlns="&ns_sfw;">
		<slices></slices>
		<sliceSourceBounds  bottomLeftOrigin="true" height="778.3" width="593.4" x="158.4" y="61.2"></sliceSourceBounds>
	</sfw>
</metadata>
<path id="line-1" class="st0" d="M439.8,374.9c0.2,0,0.5,0,0.8,0c2.5,0,4.7,0.7,7.3,0.7h0.1h0.1c2.7,0,4.9,0.7,7.2,2.3
	c6.3,4.4,13,6.7,20.3,9.3c8.6,3.1,17.1,6.8,25.7,10.4c2.9,1.2,7.1,2.1,8.1,5.1c0.5,1.4,0.2,1.9,1,3.2c5.1,6.2-5.8,14.1-8.8,19.5
	c-2.1,3.2-3.5,7.6-5,11.3c-2,4.8-5.7,10.5-9.9,13.7c-7.1,5-11.1,9.3-15.6,16.7c-1.8,2.6-4.4,4.5-6,7.1c-1.5,2.3-3.1,4.9-4.4,7.3
	c-1.7,3.3-1.7,6.4-4.6,9c-1.6,1.5-5.2,2.2-6.1,4.2c-0.8,1.9,0.5,4.5,2.3,5.4c3.4,1.7,9.5,0.3,11.3,4.5c0.6,1.4,0.3,3.5,0.1,4.9
	c-0.3,2.1-0.4,2,0.3,3.9c0.8,2,0.2,4.4,1.1,6.3c1,2.1,2.6,2.3,3,5c0.8,6.4-8.1,7.4-12.6,8.9c-5.6,1.8-11,1.7-16.8,2.1
	c-5.3,0.3-9.8,2.5-15,2.7c-1.4,0.1-3,0.2-4.7,0.2c-3,0-6.2-0.4-8.3-2.2c-1.8-1.5-1.2-4.3-2.9-5.9c-2-1.9-4.8-2-6.9-4
	c-1.9-1.9-2.9-3.8-3.2-6.5c-0.3-2.8,1.2-2.9,1.8-5.1c0.6-2.1-0.6-5-0.2-7.3c0.5-2.5,2.4-4,3-6.4c0.8-2.9-0.2-7.3-0.2-10.3
	c0-5.6,0.2-13,4.4-17.2c1-0.9,2.4-2.3,3.8-2.5h0.1c1,0,5.9,2.2,6.9,2.2h0.1c1.3-0.5,3.7-3.3-0.4-5.6c-2.5-1.4-7.4-5.5-8.8-6.6
	c-1.6-1.3-5-2.5-6-4.3c-1.6-2.7,0.8-8.3,2-10.6c1.6-3.1,3.5-5.6,6.2-5.6c0.6,0,1.3,0.1,2.1,0.5c0.1,0.1,0.3,0.2,0.5,0.2h0
	c2.2-0.8,2-4.1,2.9-5.9c1.4-2.8,2.5-5.8,4.6-8.2c0.7-0.7,2-1.2,2.6-2.1c1.7-2.7-0.8-3.8-1.6-6.1c-0.9-2.5,1.1-4.6,0.9-7
	c-0.2-2.5-1.7-5-0.8-7.7c0.8-2.5,1.9-2.9,1.3-5.8c-0.6-3.1-0.5-6.3-0.8-9.6c-0.3-4.5,3.3-3.3,5.7-5.9c2-2.3,1.5-4.4,4.5-6
	C434.9,375.8,436.8,375.1,439.8,374.9"/>
<path id="line-2" class="st0" d="M438.3,364.3C438.3,364.3,438.3,364.3,438.3,364.3C438.3,364.3,438.3,364.3,438.3,364.3
	c0.3,0,0.6,0,0.9,0c0.1,0,0.2,0,0.2,0l0,0c0.3,0,0.6,0,0.9,0c1.3,0.1,2.6,0.3,3.7,0.5c0.1,0,0.1,0,0.2,0c1.2,0.1,2.5,0.3,3.8,0.3
	c0,0,0.1,0,0.1,0c0,0,0.1,0,0.1,0c0.9,0,1.8,0.1,2.7,0.3c2.1,0.4,4,1.3,6,2.7c3.9,2.7,8.1,4.7,12.5,6.5c0.4,0.2,0.8,0.3,1.3,0.5
	c2.8,1.1,5.7,2.1,8.6,3.2c4.5,1.6,8.9,3.4,13.4,5.2c1.8,0.7,3.6,1.5,5.4,2.2c0.2,0.1,0.5,0.2,0.7,0.3c2.8,1.2,5.8,2.4,8.8,3.7
	c2,0.9,4.3,1.7,6.1,2.9c1.4,0.9,2.5,2,3.1,3.5c0.5,1.6,0.4,2.2,1.3,3.7c0.2,0.3,0.4,0.5,0.5,0.8c0,0,0,0,0,0c1.9,3.1,1,6.4-0.8,9.8
	c-1.7,3.2-4.3,6.4-6.5,9.3c-0.9,1.1-1.6,2.2-2.2,3.2c-1.3,2-2.5,4.3-3.5,6.5c-0.2,0.4-0.4,0.9-0.6,1.3c0,0.1-0.1,0.2-0.1,0.3
	c-0.3,0.8-0.6,1.7-1,2.5c-0.3,0.8-0.6,1.6-0.9,2.3c0,0,0,0,0,0.1s0,0,0,0.1c-1.7,4.1-4.5,8.7-7.8,12.3c-1,1.1-2,2-3,2.9
	c-3.8,2.9-6.9,5.5-9.7,8.4c-0.1,0.1-0.3,0.3-0.4,0.4c-0.1,0.1-0.3,0.3-0.4,0.4c-2.6,2.7-4.6,5.5-6.9,9.2c-0.1,0.2-0.2,0.4-0.4,0.5
	c-0.1,0.2-0.3,0.4-0.4,0.5c-1.9,2.5-4.3,4.4-5.9,6.8c-0.1,0.1-0.2,0.3-0.3,0.4c-0.1,0.2-0.3,0.4-0.4,0.6c-0.6,1.2-1.2,2.5-1.8,3.7
	l0,0c-0.5,1.1-1.1,2.3-1.5,3.3c-1.6,3.7-1.5,7.1-4.3,10c-0.1,0.2-0.3,0.3-0.5,0.4c-1.6,1.4-4.4,2.4-5.1,4.5
	c-0.6,1.7,0.1,3.7,1.3,5.1c0,0,0,0,0,0s0,0,0,0c0.3,0.3,0.6,0.6,1,0.8c3.3,2.2,9.3,1.3,10.9,5.9c0.5,1.5,0.1,3.7-0.2,5.3
	c-0.1,0.5-0.2,0.9-0.2,1.2c-0.2,1.1-0.2,1.4,0.3,3c0.6,2.2-0.1,4.7,0.5,6.7c0.8,2.2,2.2,2.6,2.3,5.3c-0.1,4.7-4.8,6.7-9.2,8
	c-0.4,0.1-0.7,0.2-1.1,0.3c-1.6,0.5-3.1,0.8-4.4,1.2c-4.7,1.5-9.3,1.8-13.8,2c-0.7,0-1.4,0.1-2.2,0.1c-0.7,0-1.5,0.1-2.3,0.2
	c-0.2,0-0.4,0-0.6,0c-3.7,0.3-7.1,1.3-10.8,2.1c-0.3,0.1-0.5,0.1-0.8,0.2c-1.4,0.3-2.8,0.5-4.3,0.6c-0.4,0-0.7,0-1.1,0.1
	c-1.6,0.1-3.4,0.2-5.3,0.1c-0.9,0-1.9-0.1-2.8-0.2c-2.5-0.3-4.8-0.9-6.6-2.3c-2-1.6-1.7-4.5-3.6-6.3c-0.2-0.2-0.4-0.4-0.6-0.5
	c0,0,0,0-0.1,0s0,0-0.1,0c-2.1-1.6-4.8-2.1-6.8-4.2c-1.8-1.7-2.9-3.4-3.6-5.6c-0.1-0.4-0.2-0.9-0.3-1.3c-0.5-2.9,0.9-3.2,1.4-5.5
	c0.4-2.3-0.9-5.4-0.6-7.9c0.4-2.8,2.1-4.5,2.7-7.1c0.2-0.8,0.2-1.6,0.3-2.5c0,0,0,0,0,0c0,0,0,0,0,0c0-2.9-0.5-6.2-0.5-8.8
	c0-1.6,0.1-3.2,0.2-4.9c0.1-2.2,0.3-4.5,0.9-6.7c0,0,0-0.1,0-0.1c0,0,0-0.1,0-0.1c0.7-2.8,1.9-5.3,3.7-7.3c0.7-0.7,1.5-1.7,2.4-2.4
	c0.4-0.3,0.8-0.5,1.3-0.7c0,0,0.1,0,0.1,0c0.9-0.3,5.8,1.5,6.8,1.2c0,0,0.1,0,0.1,0c0.9-0.5,2.4-2.2,1.7-4c-0.2-0.8-0.9-1.6-2-2.4
	c-0.8-0.6-1.9-1.6-3-2.6c-2.4-1.9-4.9-4.2-5.8-5.2c-1.6-1.5-5-3.1-6-5.1c-1.2-2.2-0.2-6,1-9c0.4-1.1,0.9-2.1,1.3-2.9
	c1.4-2.7,2.9-5,4.8-6c0,0,0,0,0.1,0s0,0,0.1,0c0.5-0.3,1.1-0.4,1.7-0.5c0.7-0.1,1.4,0,2.2,0.2c0.1,0,0.3,0.2,0.5,0.2c0,0,0,0,0,0
	c2.3-1,2.3-4.5,3.4-6.4c1.3-2.2,2.3-4.5,3.8-6.6c0.4-0.8,0.9-1.6,1.5-2.3c0.3-0.4,0.8-0.7,1.2-1.1c0.3-0.2,0.6-0.5,0.9-0.7
	c0.2-0.2,0.4-0.4,0.5-0.7c0.2-0.4,0.4-0.8,0.4-1.2c0.5-2.2-1.4-3.5-2-5.7c-0.6-1.9,0.2-3.6,0.7-5.3c0.2-0.8,0.4-1.7,0.3-2.5
	c0-0.4-0.1-0.8-0.2-1.2c-0.1-0.7-0.3-1.3-0.4-1.9c0,0,0-0.1,0-0.1s0-0.1,0-0.1c-0.4-1.7-0.7-3.5-0.2-5.4c0.6-2,1.3-2.8,1.5-4.3
	c0.1-0.6,0.1-1.3-0.1-2.2c-0.5-3.4-0.2-7-0.1-10.5c0.1-2.3,1-3.3,2.2-4c1.3-0.9,3.1-1.4,4.6-3c1.4-1.5,1.9-3,2.9-4.2
	c0.6-0.9,1.4-1.7,2.8-2.4C432.3,365.4,434.7,364.5,438.3,364.3"/>
<path id="line-3" class="st0" d="M436.7,353.7C436.7,353.7,436.7,353.7,436.7,353.7C436.7,353.7,436.7,353.7,436.7,353.7
	c0.4,0,0.7,0,1.1,0c0.1,0,0.2,0,0.3,0l0,0c0.4,0,0.8,0,1.1,0c1.6,0.1,3.1,0.3,4.4,0.5c0.1,0,0.2,0,0.2,0c1.5,0.1,2.9,0.3,4.5,0.4
	c0,0,0.1,0,0.1,0c0,0,0.1,0,0.1,0c1.1,0.1,2.1,0.2,3.1,0.4c2.5,0.6,4.8,1.6,7.1,3.2c4.2,2.9,8.7,5,13.7,7c0.5,0.2,0.9,0.4,1.4,0.5
	c3.1,1.2,6.2,2.3,9.4,3.5c4.9,1.8,9.8,3.7,14.6,5.7c2,0.8,3.9,1.6,5.9,2.5c0.2,0.1,0.5,0.2,0.8,0.3c3,1.2,6.2,2.6,9.6,4.1
	c2.2,1.1,4.8,2.1,6.9,3.5c1.6,1.1,2.8,2.3,3.5,4c0.6,1.7,0.6,2.5,1.5,4.2c0.2,0.3,0.4,0.6,0.6,0.9c0,0,0,0,0,0
	c2.1,3.5,1.4,7.4-0.3,11.2c-1.7,3.8-4.4,7.5-6.8,11c-0.9,1.3-1.8,2.5-2.4,3.7c-1.5,2.4-2.9,4.9-4.1,7.3c-0.2,0.5-0.5,1-0.7,1.5
	c0,0.1-0.1,0.3-0.2,0.4c-0.3,0.8-0.7,1.9-1.1,2.8c-0.3,0.9-0.7,1.8-1.1,2.7c0,0,0,0.1,0,0.1s0,0.1,0,0.1c-1.9,4.5-4.9,9.5-8.4,13.5
	c-1,1.2-2.1,2.3-3.3,3.2c-4.1,3.2-7.4,6.1-10.5,9.2c-0.1,0.1-0.3,0.3-0.4,0.4c-0.1,0.1-0.3,0.3-0.4,0.4c-3,3-5.1,5.9-7.6,10
	c-0.1,0.2-0.3,0.4-0.4,0.6c-0.1,0.1-0.3,0.4-0.4,0.6c-2.1,2.8-4.7,5-6.4,7.5c-0.1,0.1-0.2,0.3-0.3,0.4c-0.1,0.2-0.3,0.5-0.4,0.7
	c-0.5,1.3-1,2.7-1.6,4.1l0,0c-0.5,1.2-0.9,2.5-1.4,3.7c-1.4,4.1-1.4,7.9-4.1,11.1c-0.1,0.2-0.3,0.3-0.5,0.5
	c-1.4,1.6-4.1,2.8-4.7,5.2c-0.5,1.8,0.2,4,1.4,5.6c0,0,0,0,0,0c0,0,0,0,0,0c0.3,0.4,0.6,0.7,1,1c3.3,2.7,9.1,2.3,10.4,7.4
	c0.4,1.7,0,4-0.4,5.7c-0.1,0.5-0.2,0.9-0.3,1.3c-0.3,1.2-0.3,1.6,0.1,3.3c0.4,2.4-0.5,5.1,0,7.2c0.6,2.3,1.8,2.8,1.7,5.7
	c-0.7,5-5.9,7.1-10.6,8.5c-0.4,0.1-0.8,0.2-1.2,0.3c-1.8,0.5-3.4,0.9-4.9,1.4c-5.3,1.6-10.4,2-15.4,2.2c-0.8,0-1.6,0.1-2.4,0.1
	c-0.7,0-1.7,0.1-2.5,0.2c-0.2,0-0.5,0-0.7,0.1c-3.9,0.4-7.8,1.5-12,2.2c-0.3,0.1-0.6,0.1-0.9,0.2c-1.5,0.3-3.1,0.5-4.8,0.6
	c-0.4,0-0.8,0-1.2,0.1c-1.8,0-3.8,0.1-5.9,0.1c-1,0-2.1-0.1-3.1-0.2c-2.7-0.3-5.3-1.1-7.3-2.5c-2.3-1.7-2.3-4.7-4.4-6.6
	c-0.2-0.2-0.5-0.4-0.7-0.6c0,0,0,0-0.1,0c0,0,0,0-0.1,0c-2.4-1.8-5.2-2.6-7.3-4.9c-1.9-1.8-3.3-3.6-4.1-6c-0.2-0.5-0.3-0.9-0.4-1.4
	c-0.6-3,0.6-3.5,0.9-5.9c0.2-2.5-1.2-5.8-1-8.6c0.2-3,1.9-5,2.4-7.8c0.2-0.8,0.2-1.8,0.2-2.7c0,0,0,0,0,0s0,0,0,0
	c0-3.2-0.5-6.8-0.4-9.6c0.1-1.7,0.1-3.5,0.3-5.4c0.1-2.4,0.4-4.9,0.9-7.3c0,0,0-0.1,0-0.1s0-0.1,0-0.1c0.8-3.1,2-5.9,3.9-8
	c0.6-0.9,1.5-2,2.4-2.8c0.4-0.4,0.8-0.6,1.2-0.8c0,0,0.1,0,0.1,0c0.9-0.5,5.7,0.9,6.7,0.3c0,0,0.1,0,0.1,0c0.9-0.7,2.4-2.5,1.8-4.5
	c-0.2-0.9-0.8-1.8-1.9-2.7c-0.7-0.8-1.7-1.9-2.8-3c-2.5-2.1-5-4.6-6-5.9c-1.7-1.8-5-3.6-6-5.9c-1.1-2.6-0.1-6.6,1.1-9.9
	c0.5-1.2,1-2.4,1.4-3.2c1.5-3,3.1-5.6,5-6.7c0,0,0,0,0.1,0c0,0,0,0,0.1,0c0.6-0.3,1.1-0.6,1.8-0.7c0.7-0.2,1.5-0.2,2.3,0
	c0.1,0,0.3,0.2,0.5,0.1c0,0,0,0,0,0c2.4-1.2,2.6-4.8,3.9-6.9c1.5-2.4,2.7-4.9,4.4-7.1c0.4-0.9,0.9-1.8,1.5-2.6
	c0.3-0.5,0.8-0.9,1.2-1.3c0.3-0.3,0.6-0.5,0.9-0.8c0.2-0.2,0.4-0.5,0.5-0.7c0.2-0.5,0.3-0.9,0.4-1.3c0.5-2.4-1.4-4-2-6.4
	c-0.5-2,0.2-3.9,0.8-5.8c0.2-0.9,0.3-1.9,0.3-2.8c0-0.4-0.1-0.9-0.2-1.3c-0.1-0.7-0.3-1.5-0.4-2.1c0,0,0-0.1,0-0.1c0,0,0-0.1,0-0.1
	c-0.4-1.9-0.7-3.9-0.1-5.9c0.6-2.1,1.4-3.1,1.6-4.7c0.1-0.7,0.1-1.4,0-2.4c-0.3-3.7,0.2-7.6,0.6-11.4c0.3-2.5,1.4-3.7,2.8-4.5
	c1.4-1,3.4-1.8,5.1-3.6c1.6-1.6,2.3-3.2,3.5-4.6c0.8-0.9,1.7-1.8,3.3-2.6C429.7,355,432.6,354,436.7,353.7"/>
<path id="line-4" class="st0" d="M435.1,343.2C435.2,343.2,435.2,343.2,435.1,343.2C435.2,343.2,435.2,343.2,435.1,343.2
	c0.4,0,0.8,0,1.3,0c0.1,0,0.2,0,0.3,0l0,0c0.5,0,0.9,0,1.3,0c1.9,0.1,3.7,0.4,5.1,0.6c0.1,0,0.2,0,0.3,0c1.7,0.2,3.4,0.3,5.1,0.5
	c0,0,0.1,0,0.1,0c0,0,0.1,0,0.1,0c1.3,0.1,2.5,0.3,3.6,0.6c2.9,0.7,5.5,1.9,8.2,3.8c4.4,3.1,9.4,5.3,14.9,7.5c0.5,0.2,1,0.4,1.5,0.6
	c3.3,1.3,6.7,2.5,10.2,3.8c5.3,2,10.6,4.1,15.8,6.3c2.1,0.9,4.3,1.8,6.4,2.7c0.3,0.1,0.6,0.2,0.9,0.4c3.2,1.3,6.7,2.7,10.3,4.5
	c2.5,1.2,5.3,2.5,7.6,4.1c1.7,1.2,3.1,2.7,3.9,4.6c0.7,1.9,0.8,2.9,1.8,4.7c0.2,0.4,0.4,0.7,0.6,1.1c0,0,0,0,0,0
	c2.3,3.9,1.8,8.3,0.1,12.7c-1.6,4.3-4.4,8.6-7,12.6c-1,1.5-1.9,2.9-2.7,4.2c-1.8,2.7-3.4,5.5-4.8,8.1c-0.3,0.5-0.6,1.1-0.9,1.6
	c0,0.1-0.2,0.3-0.2,0.4c-0.4,0.9-0.8,2.1-1.2,3.2c-0.4,1-0.8,2-1.2,3c0,0,0,0.1,0,0.1s0,0.1,0,0.1c-2,4.9-5.3,10.4-9,14.7
	c-1.1,1.3-2.3,2.5-3.5,3.5c-4.3,3.5-8,6.7-11.4,10.1c-0.1,0.1-0.4,0.3-0.5,0.4s-0.4,0.3-0.5,0.4c-3.4,3.2-5.7,6.3-8.4,10.8
	c-0.1,0.1-0.3,0.5-0.4,0.6c-0.1,0.1-0.3,0.5-0.4,0.6c-2.3,3.1-5.1,5.5-7,8.2c-0.1,0.1-0.2,0.3-0.3,0.4c-0.2,0.3-0.3,0.5-0.5,0.8
	c-0.4,1.4-0.9,2.9-1.3,4.4l0,0c-0.4,1.4-0.8,2.7-1.2,4c-1.3,4.5-1.2,8.6-3.9,12.1c-0.1,0.2-0.3,0.4-0.5,0.6
	c-1.3,1.8-3.8,3.3-4.3,5.9c-0.5,2,0.3,4.4,1.5,6.1c0,0,0,0,0,0.1s0,0,0,0.1c0.3,0.4,0.6,0.8,1,1.1c3.3,3.2,8.9,3.4,10,8.8
	c0.3,1.9-0.2,4.3-0.6,6.2c-0.1,0.6-0.3,1-0.4,1.4c-0.3,1.3-0.4,1.8-0.1,3.5c0.2,2.5-0.8,5.4-0.6,7.6c0.4,2.4,1.4,3.1,1,6
	c-1.3,5.3-7,7.5-12,9c-0.4,0.1-0.9,0.3-1.3,0.4c-1.9,0.6-3.8,1-5.4,1.5c-5.9,1.7-11.5,2.1-16.9,2.4c-0.9,0-1.8,0.1-2.6,0.1
	c-0.8,0.1-1.8,0.2-2.7,0.3c-0.2,0-0.5,0.1-0.8,0.1c-4.2,0.4-8.5,1.7-13.1,2.4c-0.3,0.1-0.6,0.1-0.9,0.2c-1.6,0.3-3.4,0.5-5.2,0.6
	c-0.4,0-0.9,0-1.3,0.1c-2,0-4.2,0.1-6.5,0c-1.1-0.1-2.3-0.1-3.4-0.3c-3-0.4-5.8-1.2-8.1-2.8c-2.5-1.8-2.8-4.9-5.1-7
	c-0.3-0.2-0.5-0.4-0.8-0.6c0,0,0,0-0.1,0s0,0-0.1,0c-2.6-2-5.6-3-7.8-5.6c-2.1-1.9-3.6-3.8-4.6-6.4c-0.2-0.5-0.4-1-0.5-1.5
	c-0.8-3.1,0.2-3.8,0.4-6.4c0-2.7-1.5-6.2-1.5-9.2c0.1-3.2,1.7-5.4,2.1-8.5c0.1-0.9,0.2-1.9,0.2-3c0,0,0,0,0,0s0,0,0,0
	c0-3.5-0.5-7.3-0.4-10.4c0.1-1.9,0.2-3.8,0.5-5.8c0.1-2.5,0.4-5.2,1-7.9c0,0,0-0.1,0-0.1c0,0,0-0.1,0-0.1c0.8-3.4,2.1-6.4,4.1-8.8
	c0.6-1,1.4-2.2,2.3-3.1c0.4-0.4,0.8-0.7,1.2-1c0,0,0.1,0,0.1,0c0.9-0.8,5.6,0.3,6.6-0.6c0,0,0.1,0,0.1,0c0.9-0.8,2.4-2.8,1.8-4.9
	c-0.2-1-0.7-2.1-1.7-3.1c-0.7-0.9-1.6-2.1-2.6-3.4c-2.5-2.4-5.1-5.1-6.2-6.7c-1.7-2.1-5-4.2-5.9-6.7c-1.1-2.9-0.1-7.2,1.3-10.8
	c0.5-1.3,1-2.6,1.5-3.5c1.6-3.3,3.3-6.2,5.3-7.5c0,0,0.1,0,0.1,0c0,0,0.1,0,0.1,0c0.6-0.4,1.2-0.7,1.9-0.9c0.7-0.2,1.5-0.3,2.4-0.3
	c0.1,0,0.4,0.1,0.5,0.1c0,0,0,0,0,0c2.5-1.4,2.8-5.2,4.4-7.5c1.7-2.6,3.2-5.2,5.1-7.5c0.4-1,0.9-2,1.5-2.9c0.3-0.5,0.8-1,1.2-1.5
	c0.3-0.3,0.6-0.6,0.9-1c0.2-0.3,0.3-0.5,0.4-0.8c0.2-0.5,0.3-1,0.4-1.4c0.4-2.6-1.4-4.4-1.9-7c-0.5-2.2,0.3-4.3,0.9-6.4
	c0.2-1,0.3-2.1,0.3-3.1c0-0.5-0.1-1-0.2-1.4c-0.1-0.8-0.3-1.6-0.4-2.4c0,0,0-0.1,0-0.1c0,0,0-0.1,0-0.1c-0.4-2.1-0.7-4.2-0.1-6.5
	c0.6-2.2,1.4-3.5,1.7-5.2c0.1-0.7,0.2-1.6,0.1-2.6c-0.2-4.1,0.6-8.3,1.2-12.3c0.5-2.7,1.8-4,3.4-5c1.6-1.3,3.6-2.3,5.6-4.2
	c1.7-1.8,2.7-3.5,4.2-5c0.9-1,2.1-1.9,3.8-2.8C427.2,344.6,430.5,343.5,435.1,343.2"/>
<path id="line-5" class="st0" d="M433.6,332.6C433.6,332.6,433.6,332.6,433.6,332.6C433.6,332.6,433.6,332.6,433.6,332.6
	c0.5,0,0.9,0,1.4,0c0.1,0,0.2,0,0.3,0l0,0c0.5,0,1,0,1.5,0c2.2,0.1,4.2,0.4,5.8,0.7c0.1,0,0.2,0,0.3,0c1.9,0.2,3.9,0.4,5.8,0.5
	c0,0,0.1,0,0.1,0c0,0,0.1,0,0.2,0c1.4,0.1,2.8,0.4,4.1,0.7c3.2,0.8,6.2,2.2,9.3,4.3c4.7,3.3,10.1,5.6,16.1,8
	c0.5,0.2,1.1,0.4,1.6,0.6c3.6,1.4,7.3,2.7,11,4.1c5.7,2.1,11.4,4.4,17,6.8c2.3,0.9,4.6,1.9,6.9,2.9c0.3,0.1,0.6,0.2,0.9,0.4
	c3.4,1.4,7.2,2.9,11.1,4.8c2.8,1.4,5.9,2.9,8.3,4.8c1.8,1.4,3.4,3.1,4.3,5.1c0.8,2,1,3.2,2,5.2c0.2,0.4,0.4,0.8,0.6,1.2c0,0,0,0,0,0
	c2.5,4.4,2.2,9.2,0.5,14.1c-1.6,4.9-4.5,9.7-7.3,14.2c-1.1,1.7-2.1,3.2-3,4.7c-2,3.1-3.9,6.1-5.5,9c-0.3,0.6-0.7,1.2-1,1.8
	c0,0.1-0.2,0.4-0.2,0.4c-0.4,1-0.9,2.4-1.4,3.5c-0.4,1.1-0.9,2.2-1.3,3.4c0,0,0,0.1,0,0.1c0,0,0,0.1,0,0.1
	c-2.2,5.3-5.6,11.2-9.7,15.9c-1.2,1.4-2.4,2.7-3.7,3.9c-4.5,3.9-8.5,7.4-12.2,10.9c-0.1,0.1-0.4,0.4-0.5,0.5
	c-0.1,0.1-0.4,0.4-0.5,0.5c-3.8,3.5-6.2,6.6-9.2,11.6c-0.1,0.1-0.3,0.5-0.4,0.7c-0.1,0.1-0.4,0.5-0.5,0.6c-2.6,3.5-5.6,6.1-7.6,8.9
	c-0.1,0.2-0.2,0.3-0.4,0.5c-0.2,0.3-0.3,0.5-0.5,0.8c-0.3,1.5-0.7,3.1-1.1,4.8l0,0c-0.3,1.5-0.7,2.9-1,4.3c-1.1,4.8-1,9.4-3.7,13.1
	c-0.1,0.2-0.3,0.4-0.4,0.6c-1.1,2-3.4,3.7-3.8,6.6c-0.4,2.1,0.4,4.7,1.6,6.6c0,0,0,0,0,0.1s0,0,0,0.1c0.3,0.5,0.6,0.9,1,1.2
	c3.3,3.7,8.7,4.4,9.6,10.2c0.3,2-0.3,4.6-0.9,6.6c-0.2,0.6-0.3,1.1-0.4,1.5c-0.4,1.3-0.6,2-0.3,3.8c0.1,2.7-1.1,5.7-1.1,8.1
	c0.2,2.5,0.9,3.3,0.4,6.3c-1.9,5.6-8.1,7.9-13.4,9.4c-0.5,0.1-1,0.3-1.4,0.4c-2.1,0.6-4.1,1.1-5.8,1.6c-6.5,1.9-12.6,2.3-18.4,2.5
	c-1,0-1.9,0.1-2.9,0.1c-0.8,0.1-2,0.2-3,0.4c-0.3,0-0.5,0.1-0.8,0.1c-4.5,0.5-9.2,1.8-14.3,2.6c-0.3,0.1-0.7,0.1-1,0.2
	c-1.7,0.3-3.6,0.5-5.7,0.6c-0.5,0-1,0-1.4,0c-2.2,0-4.6,0.1-7,0c-1.2-0.1-2.5-0.2-3.7-0.4c-3.2-0.5-6.3-1.4-8.8-3
	c-2.8-1.9-3.4-5.2-5.9-7.4c-0.3-0.2-0.6-0.5-0.9-0.7c0,0-0.1,0-0.1-0.1c0,0-0.1,0-0.1-0.1c-2.8-2.2-6-3.5-8.4-6.3
	c-2.2-2-3.9-4.1-5.1-6.8c-0.2-0.5-0.4-1-0.6-1.6c-0.9-3.2-0.1-4.1,0-6.8c-0.2-2.9-1.8-6.6-1.9-9.9c0-3.4,1.4-5.9,1.8-9.2
	c0.1-1,0.1-2.1,0.1-3.2c0,0,0,0,0,0s0,0,0,0c-0.1-3.7-0.6-7.9-0.4-11.2c0.1-2,0.3-4.1,0.6-6.2c0.1-2.7,0.4-5.6,1-8.5
	c0,0,0-0.1,0-0.1c0,0,0-0.1,0-0.1c0.9-3.7,2.3-7,4.3-9.5c0.6-1.1,1.4-2.4,2.2-3.5c0.4-0.5,0.8-0.9,1.2-1.1c0,0,0.1,0,0.1,0
	c0.9-1.1,5.5-0.3,6.5-1.6c0,0,0.1,0,0.1,0c0.9-1,2.4-3.1,1.9-5.4c-0.2-1.1-0.6-2.3-1.6-3.4c-0.6-1.1-1.5-2.4-2.4-3.8
	c-2.6-2.6-5.3-5.6-6.4-7.4c-1.7-2.3-5-4.7-5.9-7.5c-1.1-3.2,0-7.8,1.4-11.8c0.5-1.4,1.1-2.8,1.6-3.8c1.7-3.7,3.6-6.8,5.6-8.2
	c0,0,0.1,0,0.1-0.1s0.1,0,0.1-0.1c0.6-0.4,1.2-0.8,1.9-1.1c0.8-0.3,1.6-0.5,2.5-0.5c0.2,0,0.4,0.1,0.6,0c0,0,0,0,0,0
	c2.6-1.5,3.1-5.5,4.8-8c1.9-2.8,3.6-5.5,5.8-8c0.4-1.1,0.9-2.2,1.4-3.2c0.3-0.6,0.8-1.1,1.2-1.7c0.3-0.4,0.6-0.7,0.9-1.1
	c0.2-0.3,0.3-0.6,0.4-0.9c0.2-0.5,0.3-1.1,0.4-1.6c0.4-2.9-1.4-4.9-1.9-7.7c-0.5-2.4,0.3-4.7,1-6.9c0.2-1.1,0.3-2.2,0.2-3.3
	c0-0.5-0.1-1-0.2-1.5c-0.1-0.9-0.3-1.8-0.4-2.6c0,0,0-0.1,0-0.1s0-0.1,0-0.1c-0.4-2.3-0.7-4.6-0.1-7c0.6-2.4,1.4-3.8,1.7-5.7
	c0.1-0.8,0.2-1.7,0.2-2.8c0-4.4,1-8.9,1.9-13.2c0.7-2.9,2.2-4.4,4-5.5c1.7-1.5,3.9-2.7,6.1-4.9c1.9-1.9,3.1-3.8,4.9-5.4
	c1.1-1.1,2.4-2.1,4.3-3C424.6,334.2,428.4,332.9,433.6,332.6"/>
<path id="line-6" class="st0" d="M432,322C432,322,432,322,432,322C432,322,432,322,432,322c0.5,0,1,0,1.6,0c0.1,0,0.3,0,0.4,0
	l0,0c0.6,0,1.1,0,1.6,0.1c2.5,0.1,4.8,0.5,6.5,0.7c0.1,0,0.2,0,0.4,0.1c2.2,0.2,4.3,0.4,6.5,0.6c0,0,0.1,0,0.1,0c0,0,0.2,0,0.2,0
	c1.6,0.2,3.1,0.4,4.5,0.8c3.6,0.9,6.9,2.5,10.3,4.9c5,3.4,10.8,6,17.3,8.5c0.6,0.2,1.2,0.5,1.7,0.7c3.9,1.5,7.8,2.9,11.8,4.4
	c6.1,2.3,12.2,4.8,18.2,7.3c2.4,1,4.9,2.1,7.4,3.1c0.3,0.1,0.7,0.3,1,0.4c3.5,1.4,7.6,3.1,11.9,5.2c3.1,1.6,6.4,3.3,9.1,5.4
	c2,1.6,3.7,3.4,4.7,5.7c0.9,2.2,1.2,3.5,2.2,5.7c0.2,0.4,0.5,0.9,0.7,1.3c0,0,0,0,0,0c2.7,4.8,2.6,10.2,0.9,15.6
	c-1.5,5.4-4.5,10.8-7.6,15.9c-1.2,1.8-2.3,3.6-3.3,5.2c-2.2,3.4-4.4,6.7-6.2,9.8c-0.4,0.6-0.8,1.3-1.2,1.9c0,0.1-0.2,0.4-0.2,0.5
	c-0.4,1-1,2.6-1.5,3.9c-0.5,1.2-0.9,2.5-1.5,3.7c0,0,0,0.1,0,0.1s0,0.1,0,0.1c-2.4,5.7-6,12-10.3,17.1c-1.3,1.5-2.6,2.9-3.9,4.2
	c-4.8,4.2-9,8-13,11.8c-0.1,0.1-0.4,0.4-0.5,0.5c-0.1,0.1-0.4,0.4-0.5,0.5c-4.2,3.8-6.7,7-10,12.4c-0.1,0.1-0.4,0.6-0.5,0.7
	c-0.1,0.1-0.4,0.6-0.5,0.7c-2.8,3.8-6,6.6-8.1,9.6c-0.1,0.2-0.3,0.3-0.4,0.5c-0.2,0.3-0.4,0.6-0.6,0.9c-0.2,1.6-0.5,3.4-0.8,5.1l0,0
	c-0.3,1.6-0.6,3.1-0.8,4.7c-0.9,5.2-0.8,10.2-3.4,14.2c-0.1,0.2-0.3,0.5-0.4,0.7c-1,2.2-3.1,4.1-3.4,7.3c-0.3,2.3,0.5,5,1.7,7.1
	c0,0,0,0.1,0,0.1c0,0,0,0.1,0,0.1c0.3,0.5,0.6,1,0.9,1.3c3.2,4.2,8.4,5.4,9.2,11.6c0.2,2.2-0.5,4.9-1.1,7.1
	c-0.2,0.6-0.3,1.1-0.5,1.6c-0.4,1.4-0.7,2.1-0.5,4c-0.1,2.9-1.5,6-1.7,8.5c0,2.6,0.5,3.6-0.2,6.6c-2.5,5.8-9.2,8.3-14.9,9.9
	c-0.5,0.1-1.1,0.3-1.5,0.4c-2.2,0.7-4.4,1.2-6.3,1.8c-7.1,2-13.7,2.4-20,2.7c-1.1,0-2.1,0.1-3.1,0.1c-0.9,0.1-2.1,0.3-3.2,0.4
	c-0.3,0-0.6,0.1-0.9,0.1c-4.8,0.6-9.9,2-15.5,2.8c-0.4,0.1-0.7,0.1-1.1,0.2c-1.8,0.3-3.9,0.5-6.2,0.6c-0.5,0-1,0-1.6,0
	c-2.4,0-5,0-7.6-0.1c-1.3-0.1-2.7-0.2-4-0.4c-3.5-0.5-6.8-1.5-9.5-3.3c-3.1-2-3.9-5.4-6.7-7.8c-0.3-0.3-0.6-0.5-0.9-0.8
	c0,0-0.1,0-0.1-0.1c0,0-0.1,0-0.1-0.1c-3-2.4-6.4-3.9-8.9-7c-2.4-2.1-4.3-4.3-5.7-7.1c-0.3-0.5-0.5-1.1-0.7-1.7
	c-1.1-3.4-0.4-4.3-0.5-7.2c-0.4-3.1-2.1-7.1-2.3-10.5c-0.1-3.6,1.2-6.4,1.5-9.9c0.1-1.1,0.1-2.2,0.1-3.4c0,0,0,0,0,0c0,0,0,0,0,0
	c-0.1-4-0.6-8.4-0.3-12c0.1-2.2,0.4-4.4,0.7-6.7c0.1-2.9,0.4-6,1-9.2c0,0,0-0.1,0-0.1s0-0.1,0-0.1c0.9-4,2.4-7.5,4.5-10.3
	c0.6-1.2,1.3-2.6,2.2-3.8c0.4-0.5,0.8-1,1.2-1.3c0,0,0.1,0,0.1,0c0.9-1.4,5.4-0.9,6.4-2.5c0,0,0.1,0,0.1-0.1
	c0.9-1.2,2.3-3.4,1.9-5.8c-0.1-1.2-0.6-2.5-1.5-3.7c-0.6-1.2-1.4-2.7-2.2-4.2c-2.7-2.8-5.4-6-6.6-8.1c-1.8-2.6-5-5.3-5.9-8.4
	c-1-3.5,0.1-8.5,1.6-12.7c0.5-1.6,1.1-3,1.7-4.1c1.8-4,3.8-7.3,5.9-8.9c0,0,0.1-0.1,0.1-0.1c0,0,0.1-0.1,0.1-0.1
	c0.6-0.5,1.3-0.9,2-1.3c0.8-0.4,1.7-0.6,2.6-0.8c0.2,0,0.4,0,0.6-0.1c0,0,0,0,0,0c2.7-1.7,3.4-5.9,5.3-8.5c2.1-2.9,4-5.9,6.4-8.4
	c0.4-1.2,0.9-2.4,1.4-3.5c0.3-0.6,0.8-1.2,1.2-1.8c0.3-0.4,0.6-0.8,0.9-1.2c0.2-0.3,0.3-0.7,0.4-1c0.2-0.6,0.3-1.1,0.3-1.7
	c0.4-3.1-1.4-5.3-1.9-8.4c-0.4-2.6,0.4-5,1.1-7.4c0.2-1.2,0.3-2.4,0.2-3.6c0-0.6-0.1-1.1-0.2-1.7c-0.1-1-0.3-1.9-0.4-2.8
	c0,0,0-0.1,0-0.1s0-0.1,0-0.1c-0.4-2.5-0.7-5-0.1-7.6c0.6-2.5,1.4-4.1,1.8-6.1c0.2-0.9,0.3-1.9,0.3-3c0.2-4.8,1.3-9.6,2.6-14.1
	c0.9-3.1,2.6-4.7,4.6-5.9c1.8-1.7,4.2-3.1,6.7-5.5c2.1-2.1,3.5-4.1,5.5-5.8c1.2-1.1,2.7-2.2,4.8-3.2
	C422.1,323.8,426.3,322.4,432,322"/>
<path id="line-7" class="st0" d="M430.5,311.4C430.5,311.4,430.5,311.4,430.5,311.4C430.5,311.4,430.5,311.4,430.5,311.4
	c0.6,0,1.2,0,1.8,0c0.1,0,0.3,0,0.4,0l0,0c0.7,0,1.3,0,1.8,0.1c2.8,0.1,5.3,0.5,7.2,0.8c0.1,0,0.3,0,0.4,0.1
	c2.4,0.2,4.8,0.4,7.2,0.7c0,0,0.1,0,0.1,0c0,0,0.2,0,0.2,0c1.7,0.2,3.4,0.5,5,1c4,1.1,7.7,2.8,11.4,5.4c5.2,3.6,11.4,6.3,18.5,9
	c0.6,0.2,1.2,0.5,1.9,0.7c4.2,1.6,8.3,3.1,12.6,4.7c6.6,2.5,13,5.1,19.5,7.8c2.6,1.1,5.3,2.2,7.9,3.3c0.3,0.1,0.7,0.3,1.1,0.4
	c3.7,1.5,8.1,3.2,12.7,5.6c3.4,1.8,6.9,3.7,9.8,6.1c2.1,1.8,3.9,3.8,5,6.2c1,2.3,1.4,3.9,2.5,6.2c0.3,0.5,0.5,1,0.7,1.5c0,0,0,0,0,0
	c3,5.3,2.9,11.1,1.4,17c-1.5,6-4.5,11.9-7.9,17.5c-1.2,2-2.5,3.9-3.5,5.6c-2.4,3.7-4.8,7.3-6.8,10.6c-0.4,0.7-0.9,1.4-1.3,2.1
	c0,0.1-0.2,0.4-0.3,0.5c-0.5,1.1-1.1,2.9-1.7,4.2c-0.5,1.3-1,2.7-1.6,4.1c0,0,0,0.1,0,0.1s0,0.1,0,0.1c-2.5,6.1-6.4,12.8-11,18.3
	c-1.3,1.6-2.7,3.1-4.1,4.5c-5,4.5-9.5,8.6-13.9,12.6c-0.1,0.1-0.5,0.4-0.6,0.5c-0.1,0.1-0.5,0.4-0.6,0.5c-4.6,4-7.2,7.4-10.7,13.2
	c-0.1,0.1-0.4,0.6-0.5,0.8s-0.4,0.6-0.5,0.7c-3,4.1-6.4,7.2-8.7,10.2c-0.1,0.2-0.3,0.4-0.4,0.5c-0.2,0.3-0.4,0.6-0.6,0.9
	c-0.1,1.8-0.3,3.6-0.6,5.5l0,0c-0.2,1.7-0.4,3.4-0.7,5c-0.8,5.6-0.6,10.9-3.2,15.2c-0.1,0.3-0.3,0.5-0.4,0.8c-0.8,2.3-2.8,4.5-2.9,8
	c-0.3,2.4,0.6,5.3,1.8,7.6c0,0,0,0.1,0,0.1s0,0.1,0,0.1c0.3,0.5,0.6,1,0.9,1.5c3.2,4.6,8.2,6.4,8.7,13c0.1,2.3-0.6,5.2-1.4,7.5
	c-0.2,0.6-0.4,1.2-0.5,1.7c-0.5,1.5-0.8,2.3-0.7,4.2c-0.3,3-1.8,6.3-2.2,9c-0.2,2.8,0.1,3.8-0.9,7c-3.1,6.1-10.3,8.7-16.3,10.4
	c-0.6,0.2-1.2,0.3-1.6,0.5c-2.4,0.7-4.7,1.3-6.8,1.9c-7.7,2.1-14.9,2.6-21.5,2.9c-1.1,0.1-2.3,0.1-3.4,0.2c-0.9,0.1-2.3,0.3-3.5,0.5
	c-0.3,0-0.6,0.1-1,0.1c-5.1,0.7-10.6,2.2-16.7,3c-0.4,0.1-0.8,0.1-1.2,0.2c-1.9,0.3-4.2,0.5-6.7,0.6c-0.6,0-1.1,0-1.7,0
	c-2.6,0-5.4,0-8.2-0.2c-1.4-0.1-2.9-0.3-4.3-0.5c-3.8-0.6-7.3-1.6-10.3-3.5c-3.3-2.2-4.4-5.6-7.4-8.2c-0.3-0.3-0.7-0.6-1-0.8
	c0,0-0.1-0.1-0.1-0.1c0,0-0.1-0.1-0.1-0.1c-3.3-2.6-6.8-4.4-9.5-7.7c-2.5-2.2-4.6-4.5-6.2-7.5c-0.3-0.6-0.6-1.2-0.8-1.8
	c-1.2-3.5-0.7-4.6-1-7.6c-0.5-3.4-2.4-7.5-2.7-11.2c-0.2-3.8,1-6.8,1.2-10.6c0.1-1.2,0.1-2.4,0-3.7c0,0,0,0,0,0s0,0,0,0
	c-0.1-4.3-0.6-9-0.3-12.8c0.2-2.3,0.4-4.7,0.9-7.1c0.1-3.1,0.4-6.4,1.1-9.8c0,0,0-0.1,0-0.1c0,0,0-0.1,0-0.1c1-4.3,2.5-8.1,4.8-11
	c0.5-1.3,1.3-2.9,2.1-4.2c0.4-0.6,0.8-1.1,1.1-1.5c0,0,0.1,0,0.1,0c0.9-1.6,5.3-1.5,6.3-3.5c0,0,0.1,0,0.1-0.1
	c0.9-1.3,2.3-3.7,2-6.3c-0.1-1.4-0.5-2.7-1.4-4c-0.5-1.4-1.2-3-2-4.6c-2.8-3-5.6-6.5-6.8-8.9c-1.8-2.9-5-5.8-5.9-9.2
	c-1-3.8,0.1-9.1,1.7-13.6c0.6-1.7,1.2-3.2,1.7-4.5c1.9-4.3,4-7.9,6.2-9.7c0,0,0.1-0.1,0.1-0.1s0.1-0.1,0.1-0.1
	c0.6-0.5,1.3-1,2.1-1.5c0.8-0.5,1.7-0.8,2.7-1c0.2-0.1,0.4,0,0.6-0.1c0,0,0,0,0,0c2.8-1.9,3.6-6.2,5.8-9.1c2.3-3.1,4.5-6.2,7.1-8.9
	c0.4-1.3,0.8-2.5,1.4-3.8c0.3-0.7,0.7-1.4,1.2-2c0.3-0.4,0.6-0.9,0.9-1.3c0.1-0.3,0.3-0.7,0.4-1.1c0.2-0.6,0.3-1.2,0.3-1.8
	c0.3-3.3-1.4-5.8-1.8-9c-0.4-2.8,0.5-5.4,1.2-8c0.1-1.3,0.3-2.6,0.2-3.9c0-0.6-0.1-1.2-0.2-1.8c-0.1-1.1-0.3-2.1-0.4-3
	c0,0,0-0.1,0-0.1s0-0.1,0-0.1c-0.4-2.7-0.7-5.4-0.1-8.2c0.6-2.7,1.5-4.4,1.9-6.6c0.2-1,0.3-2,0.3-3.2c0.3-5.1,1.7-10.2,3.2-15
	c1.1-3.3,3-5.1,5.2-6.4c1.9-1.9,4.5-3.6,7.2-6.1c2.3-2.2,3.9-4.4,6.2-6.2c1.4-1.2,3-2.4,5.3-3.4
	C419.5,313.4,424.2,311.9,430.5,311.4"/>
<path id="line-8" class="st0" d="M428.9,300.9C428.9,300.9,428.9,300.9,428.9,300.9C428.9,300.9,428.9,300.9,428.9,300.9
	c0.6,0,1.3,0,1.9,0c0.2,0,0.3,0,0.5,0l0,0c0.7,0,1.4,0,2,0.1c3.1,0.1,5.9,0.5,7.9,0.8c0.1,0,0.3,0,0.4,0.1c2.6,0.2,5.2,0.4,7.9,0.8
	c0,0,0.1,0,0.2,0c0,0,0.2,0,0.2,0c1.9,0.2,3.7,0.6,5.5,1.1c4.4,1.2,8.4,3.1,12.5,6c5.5,3.8,12.1,6.6,19.7,9.5c0.7,0.3,1.3,0.5,2,0.8
	c4.4,1.7,8.9,3.3,13.3,5c7,2.6,13.9,5.5,20.7,8.3c2.8,1.2,5.6,2.3,8.4,3.5c0.3,0.1,0.8,0.3,1.1,0.5c3.9,1.5,8.6,3.4,13.5,5.9
	c3.7,1.9,7.5,4.1,10.6,6.7c2.3,1.9,4.2,4.1,5.4,6.8c1.1,2.5,1.6,4.2,2.7,6.7c0.3,0.5,0.5,1.1,0.8,1.6c0,0,0,0,0,0
	c3.2,5.7,3.3,12,1.8,18.4c-1.4,6.5-4.6,13-8.2,19.1c-1.3,2.2-2.6,4.2-3.8,6.1c-2.7,4.1-5.3,8-7.5,11.4c-0.5,0.7-1,1.5-1.4,2.2
	c0,0.1-0.3,0.5-0.3,0.6c-0.5,1.2-1.2,3.1-1.8,4.6c-0.5,1.4-1.1,2.9-1.7,4.4c0,0,0,0.1,0,0.1s0,0.1,0,0.1
	c-2.7,6.5-6.8,13.6-11.6,19.5c-1.4,1.7-2.9,3.3-4.4,4.8c-5.3,4.9-10,9.2-14.7,13.5c-0.1,0.1-0.5,0.5-0.6,0.6s-0.5,0.5-0.6,0.6
	c-5,4.3-7.8,7.8-11.5,13.9c-0.1,0.1-0.4,0.7-0.5,0.8s-0.5,0.7-0.6,0.8c-3.2,4.4-6.8,7.8-9.2,10.9c-0.1,0.2-0.3,0.4-0.4,0.6
	c-0.2,0.3-0.4,0.7-0.6,1c0,1.9-0.2,3.8-0.3,5.8l0,0c-0.1,1.8-0.3,3.6-0.5,5.3c-0.6,6-0.5,11.7-3,16.3c-0.1,0.3-0.3,0.6-0.4,0.8
	c-0.6,2.5-2.4,5-2.5,8.7c-0.2,2.6,0.7,5.6,1.9,8.1c0,0,0,0.1,0,0.1c0,0,0,0.1,0,0.1c0.3,0.6,0.6,1.1,0.9,1.6c3.2,5.1,8,7.5,8.3,14.4
	c0,2.5-0.8,5.5-1.6,8c-0.2,0.7-0.4,1.2-0.6,1.8c-0.6,1.6-0.9,2.5-0.9,4.5c-0.4,3.2-2.1,6.6-2.8,9.4c-0.4,2.9-0.3,4.1-1.5,7.3
	c-3.8,6.4-11.5,9.1-17.7,10.9c-0.6,0.2-1.3,0.4-1.8,0.5c-2.6,0.8-5.1,1.4-7.3,2c-8.3,2.2-16,2.7-23.1,3c-1.2,0.1-2.4,0.1-3.6,0.2
	c-1,0.1-2.4,0.3-3.7,0.5c-0.3,0.1-0.7,0.1-1,0.2c-5.4,0.8-11.3,2.4-17.9,3.2c-0.4,0.1-0.9,0.1-1.3,0.2c-2.1,0.3-4.5,0.5-7.2,0.6
	c-0.6,0-1.2,0-1.8,0c-2.8,0-5.8,0-8.8-0.2c-1.5-0.1-3.1-0.3-4.6-0.5c-4-0.6-7.8-1.8-11-3.8c-3.6-2.3-5-5.8-8.2-8.6
	c-0.4-0.3-0.7-0.6-1.1-0.9c0,0-0.1-0.1-0.1-0.1s-0.1-0.1-0.1-0.1c-3.5-2.8-7.2-4.8-10-8.4c-2.7-2.3-5-4.7-6.7-7.9
	c-0.3-0.6-0.6-1.2-0.9-1.9c-1.4-3.6-1.1-4.9-1.4-8.1c-0.7-3.6-2.7-7.9-3.1-11.8c-0.3-4.1,0.7-7.3,0.9-11.3c0.1-1.2,0-2.5,0-3.9
	c0,0,0,0,0,0s0,0,0,0c-0.2-4.6-0.6-9.5-0.2-13.7c0.2-2.5,0.5-5,1-7.6c0.1-3.3,0.4-6.8,1.1-10.4c0,0,0-0.1,0-0.1c0,0,0-0.1,0-0.1
	c1-4.6,2.7-8.6,5-11.8c0.5-1.4,1.2-3.1,2-4.6c0.4-0.6,0.7-1.2,1.1-1.6c0,0,0.1,0,0.1,0c0.8-1.9,5.2-2.2,6.2-4.4c0,0,0.1,0,0.1-0.1
	c0.9-1.5,2.3-4,2-6.7c-0.1-1.5-0.4-2.9-1.2-4.3c-0.5-1.5-1.1-3.3-1.7-5c-2.9-3.3-5.7-6.9-7-9.6c-1.8-3.1-5-6.4-5.8-10
	c-1-4.1,0.2-9.7,1.9-14.6c0.6-1.8,1.3-3.4,1.8-4.8c2-4.6,4.3-8.5,6.4-10.4c0,0,0.1-0.1,0.1-0.1c0,0,0.1-0.1,0.1-0.1
	c0.7-0.6,1.4-1.2,2.2-1.6c0.8-0.5,1.8-1,2.8-1.3c0.2-0.1,0.4-0.1,0.7-0.2c0,0,0,0,0,0c2.9-2.1,3.9-6.6,6.2-9.6
	c2.5-3.3,4.9-6.5,7.8-9.3c0.4-1.4,0.8-2.7,1.4-4.1c0.3-0.8,0.7-1.5,1.2-2.2c0.3-0.5,0.6-1,0.9-1.4c0.1-0.4,0.3-0.8,0.3-1.2
	c0.2-0.7,0.2-1.3,0.3-1.9c0.3-3.5-1.4-6.2-1.8-9.7c-0.4-2.9,0.5-5.7,1.3-8.5c0.1-1.4,0.2-2.8,0.2-4.1c0-0.7-0.1-1.3-0.2-1.9
	c-0.1-1.1-0.3-2.2-0.4-3.2c0,0,0-0.1,0-0.1c0,0,0-0.1,0-0.1c-0.4-2.9-0.7-5.8-0.1-8.7c0.7-2.8,1.5-4.7,2-7.1c0.2-1,0.4-2.2,0.4-3.4
	c0.5-5.5,2.1-10.9,3.9-15.9c1.3-3.4,3.4-5.4,5.7-6.9c2.1-2.1,4.8-4,7.7-6.8c2.4-2.4,4.3-4.6,6.9-6.7c1.5-1.3,3.3-2.5,5.8-3.6
	C416.9,303,422.1,301.3,428.9,300.9"/>
<path id="line-9" class="st0" d="M427.3,290.3C427.3,290.3,427.3,290.3,427.3,290.3C427.3,290.3,427.4,290.3,427.3,290.3
	c0.7,0,1.4,0,2.1,0c0.2,0,0.3,0,0.5,0l0,0c0.8,0,1.5,0,2.1,0.1c3.4,0.1,6.4,0.6,8.6,0.9c0.1,0,0.3,0,0.5,0.1
	c2.9,0.2,5.7,0.5,8.6,0.8c0,0,0.1,0,0.2,0c0.1,0,0.2,0,0.2,0c2,0.3,4,0.7,6,1.2c4.7,1.3,9.1,3.4,13.6,6.5c5.8,4,12.8,6.9,20.9,10.1
	c0.7,0.3,1.4,0.5,2.1,0.8c4.7,1.8,9.4,3.5,14.1,5.3c7.4,2.8,14.7,5.8,21.9,8.8c2.9,1.2,5.9,2.5,8.9,3.7c0.3,0.1,0.8,0.3,1.2,0.5
	c4.1,1.6,9.1,3.6,14.3,6.3c4,2.1,8,4.5,11.3,7.4c2.4,2.1,4.5,4.5,5.8,7.3c1.2,2.6,1.8,4.5,3,7.2c0.3,0.6,0.6,1.1,0.8,1.7
	c0,0,0,0,0,0.1c3.4,6.2,3.7,13,2.2,19.9c-1.4,7.1-4.6,14.1-8.4,20.8c-1.4,2.4-2.8,4.6-4.1,6.6c-2.9,4.4-5.8,8.6-8.2,12.3
	c-0.5,0.8-1.1,1.7-1.6,2.4c0,0.1-0.3,0.5-0.3,0.6c-0.5,1.2-1.3,3.3-1.9,4.9c-0.6,1.6-1.2,3.1-1.9,4.8c0,0,0,0.1-0.1,0.1
	c0,0,0,0.1-0.1,0.1c-2.9,7-7.2,14.4-12.2,20.7c-1.5,1.8-3,3.6-4.6,5.1c-5.5,5.2-10.6,9.9-15.5,14.3c-0.1,0.1-0.6,0.5-0.7,0.6
	s-0.6,0.5-0.7,0.6c-5.4,4.6-8.3,8.2-12.3,14.7c-0.1,0.1-0.5,0.7-0.6,0.9s-0.5,0.7-0.6,0.8c-3.4,4.8-7.2,8.3-9.8,11.6
	c-0.2,0.2-0.3,0.4-0.5,0.6c-0.2,0.4-0.5,0.7-0.7,1.1c0,2,0,4.1-0.1,6.2l0,0c-0.1,1.9-0.2,3.8-0.3,5.7c-0.4,6.4-0.3,12.4-2.8,17.3
	c-0.1,0.3-0.3,0.6-0.4,0.9c-0.5,2.7-2.1,5.4-2.1,9.3c-0.1,2.7,0.8,5.9,2,8.6c0,0,0,0.1,0,0.1s0,0.1,0,0.1c0.3,0.6,0.6,1.2,0.9,1.7
	c3.1,5.6,7.8,8.5,7.9,15.9c0,2.6-0.9,5.8-1.9,8.4c-0.2,0.7-0.5,1.3-0.7,1.8c-0.6,1.7-1.1,2.7-1.1,4.7c-0.6,3.4-2.5,6.9-3.3,9.9
	c-0.6,3-0.7,4.3-2.1,7.6c-4.4,6.7-12.6,9.5-19.1,11.4c-0.6,0.2-1.4,0.4-1.9,0.5c-2.7,0.8-5.4,1.5-7.8,2.2
	c-8.9,2.4-17.1,2.8-24.6,3.2c-1.3,0.1-2.6,0.1-3.8,0.2c-1,0.1-2.6,0.4-3.9,0.6c-0.4,0.1-0.7,0.1-1.1,0.2c-5.7,0.9-12,2.5-19.1,3.3
	c-0.4,0.1-0.9,0.1-1.4,0.2c-2.2,0.3-4.8,0.6-7.6,0.7c-0.6,0-1.3,0-1.9,0c-3.1,0-6.2,0-9.4-0.3c-1.6-0.1-3.3-0.3-4.9-0.6
	c-4.3-0.7-8.3-1.9-11.7-4c-3.8-2.4-5.5-6-8.9-8.9c-0.4-0.3-0.8-0.6-1.1-0.9c0,0-0.1-0.1-0.1-0.1s-0.1-0.1-0.1-0.1
	c-3.7-3-7.6-5.3-10.5-9.2c-2.9-2.4-5.3-4.9-7.2-8.3c-0.4-0.6-0.7-1.3-1-1.9c-1.5-3.7-1.4-5.2-1.9-8.5c-0.9-3.8-3-8.3-3.6-12.5
	c-0.5-4.3,0.5-7.8,0.6-12c0-1.3,0-2.7-0.1-4.1c0,0,0,0,0-0.1c0,0,0,0,0-0.1c-0.2-4.9-0.6-10.1-0.2-14.5c0.2-2.6,0.6-5.3,1.1-8
	c0.1-3.4,0.4-7.2,1.2-11c0,0,0-0.1,0-0.1s0-0.1,0-0.1c1.1-4.9,2.8-9.2,5.2-12.6c0.5-1.5,1.2-3.3,2-4.9c0.4-0.7,0.7-1.3,1.1-1.8
	c0,0,0,0,0.1-0.1c0.8-2.2,5.1-2.8,6.1-5.3c0,0,0.1-0.1,0.1-0.1c0.9-1.7,2.3-4.3,2-7.2c0-1.6-0.4-3.1-1.1-4.7c-0.4-1.7-1-3.5-1.5-5.5
	c-3-3.5-5.9-7.4-7.2-10.3c-1.9-3.4-5-6.9-5.8-10.8c-1-4.4,0.3-10.3,2-15.5c0.6-1.9,1.3-3.6,1.9-5.1c2.1-5,4.5-9.1,6.7-11.2
	c0,0,0.1-0.1,0.1-0.1s0.1-0.1,0.1-0.1c0.7-0.7,1.4-1.3,2.2-1.8c0.9-0.6,1.8-1.1,2.9-1.5c0.2-0.1,0.5-0.1,0.7-0.3c0,0,0,0,0,0
	c3-2.3,4.2-6.9,6.7-10.1c2.7-3.5,5.3-6.9,8.4-9.7c0.4-1.5,0.8-2.9,1.4-4.4c0.3-0.8,0.7-1.6,1.2-2.4c0.3-0.5,0.6-1,0.9-1.6
	c0.1-0.4,0.2-0.8,0.3-1.3c0.1-0.7,0.2-1.4,0.3-2.1c0.3-3.7-1.4-6.7-1.7-10.3c-0.3-3.1,0.6-6.1,1.4-9.1c0.1-1.5,0.2-3,0.1-4.4
	c0-0.7-0.1-1.4-0.2-2c-0.1-1.2-0.3-2.4-0.4-3.4c0,0,0-0.1,0-0.2c0,0,0-0.1,0-0.2c-0.5-3.1-0.7-6.1,0-9.3c0.7-3,1.5-5,2-7.5
	c0.2-1.1,0.4-2.3,0.5-3.6c0.6-5.8,2.4-11.5,4.5-16.8c1.5-3.6,3.8-5.8,6.3-7.3c2.2-2.3,5.1-4.4,8.2-7.4c2.6-2.5,4.7-4.9,7.5-7.1
	c1.7-1.3,3.7-2.7,6.3-3.9C414.4,292.6,420,290.8,427.3,290.3"/>
<path id="line-10" class="st0" d="M425.8,279.7C425.8,279.7,425.8,279.7,425.8,279.7C425.8,279.7,425.8,279.7,425.8,279.7
	c0.8,0,1.5,0,2.3,0c0.2,0,0.4,0,0.5,0l0,0c0.9,0,1.6,0,2.3,0.1c3.7,0.1,6.9,0.6,9.2,1c0.2,0,0.3,0.1,0.5,0.1
	c3.1,0.2,6.2,0.5,9.2,0.9c0,0,0.1,0,0.2,0c0.1,0,0.2,0,0.3,0c2.2,0.3,4.3,0.7,6.4,1.3c5.1,1.5,9.8,3.7,14.7,7
	c6.1,4.2,13.5,7.3,22.1,10.6c0.7,0.3,1.5,0.6,2.2,0.8c5,1.9,9.9,3.7,14.9,5.6c7.8,3,15.5,6.1,23.1,9.3c3.1,1.3,6.3,2.6,9.4,3.9
	c0.3,0.1,0.8,0.3,1.3,0.5c4.2,1.7,9.5,3.7,15.1,6.7c4.2,2.3,8.5,4.9,12,8c2.6,2.3,4.8,4.9,6.2,7.9c1.3,2.8,1.9,4.9,3.2,7.7
	c0.3,0.6,0.6,1.2,0.8,1.9c0,0,0,0,0,0.1c3.6,6.6,4.1,13.9,2.7,21.3c-1.3,7.6-4.6,15.2-8.7,22.4c-1.5,2.5-3,4.9-4.3,7.1
	c-3.1,4.8-6.2,9.2-8.8,13.1c-0.6,0.8-1.2,1.8-1.7,2.5c0,0.1-0.3,0.6-0.4,0.6c-0.6,1.3-1.4,3.6-2.1,5.3c-0.6,1.7-1.3,3.4-2,5.1
	c0,0,0,0.1-0.1,0.1c0,0-0.1,0.1-0.1,0.1c-3.1,7.4-7.6,15.2-12.9,21.9c-1.6,1.9-3.2,3.8-4.8,5.5c-5.7,5.6-11.1,10.5-16.4,15.2
	c-0.1,0.1-0.6,0.5-0.7,0.6c-0.1,0.1-0.6,0.5-0.7,0.6c-5.8,4.8-8.8,8.6-13,15.5c-0.1,0.1-0.5,0.8-0.6,0.9s-0.5,0.8-0.6,0.9
	c-3.6,5.1-7.7,8.9-10.4,12.3c-0.2,0.2-0.3,0.4-0.5,0.6c-0.2,0.4-0.5,0.8-0.7,1.1c0.1,2.1,0.2,4.3,0.2,6.5l0,0c0,2-0.1,4-0.2,6
	c-0.3,6.8-0.1,13.2-2.6,18.3c-0.1,0.3-0.3,0.7-0.4,1c-0.3,2.9-1.7,5.8-1.6,10c-0.1,2.9,0.9,6.2,2.1,9.1c0,0,0,0.1,0,0.1
	c0,0,0,0.1,0,0.1c0.3,0.7,0.6,1.3,0.9,1.9c3.1,6.1,7.6,9.5,7.5,17.3c-0.1,2.8-1.1,6.1-2.1,8.8c-0.2,0.7-0.5,1.4-0.7,1.9
	c-0.7,1.7-1.2,2.8-1.3,4.9c-0.8,3.5-2.8,7.2-3.9,10.3c-0.8,3.1-1.2,4.6-2.8,7.9c-5,6.9-13.7,9.9-20.6,11.8c-0.7,0.2-1.5,0.4-2,0.6
	c-2.9,0.9-5.7,1.6-8.3,2.3c-9.5,2.5-18.2,3-26.1,3.4c-1.4,0.1-2.8,0.1-4.1,0.2c-1,0.1-2.8,0.4-4.2,0.7c-0.4,0.1-0.8,0.1-1.2,0.2
	c-5.9,0.9-12.7,2.7-20.3,3.5c-0.5,0.1-1,0.1-1.5,0.2c-2.3,0.3-5.1,0.6-8.1,0.7c-0.7,0-1.4,0-2,0c-3.3,0-6.6-0.1-9.9-0.3
	c-1.7-0.2-3.5-0.4-5.2-0.7c-4.5-0.8-8.8-2.1-12.5-4.3c-4.1-2.5-6.1-6.2-9.7-9.3c-0.4-0.3-0.8-0.7-1.2-1c0,0-0.1-0.1-0.1-0.1
	c0,0-0.1-0.1-0.1-0.1c-3.9-3.2-8-5.7-11.1-9.9c-3-2.4-5.6-5.1-7.8-8.6c-0.4-0.7-0.8-1.3-1.1-2c-1.7-3.8-1.7-5.5-2.4-8.9
	c-1.1-4-3.3-8.7-4-13.1c-0.6-4.5,0.2-8.2,0.3-12.8c0-1.4,0-2.9-0.1-4.4c0,0,0,0,0-0.1s0,0,0-0.1c-0.3-5.1-0.6-10.6-0.2-15.3
	c0.3-2.8,0.7-5.6,1.3-8.5c0.1-3.6,0.4-7.6,1.2-11.7c0,0,0-0.1,0-0.1s0-0.1,0-0.1c1.1-5.2,3-9.7,5.4-13.3c0.5-1.6,1.1-3.5,1.9-5.3
	c0.3-0.7,0.7-1.4,1.1-2c0,0,0,0,0-0.1c0.8-2.5,5-3.4,6-6.3c0,0,0.1-0.1,0.1-0.1c0.9-1.8,2.3-4.7,2.1-7.7c0-1.7-0.3-3.4-1-5
	c-0.3-1.8-0.8-3.8-1.3-5.9c-3.1-3.7-6-7.9-7.4-11.1c-1.9-3.7-5-7.5-5.8-11.6c-0.9-4.8,0.3-10.9,2.1-16.4c0.7-2,1.4-3.8,2-5.4
	c2.2-5.3,4.7-9.7,7-11.9c0,0,0.1-0.1,0.1-0.1s0.1-0.1,0.1-0.1c0.7-0.7,1.5-1.4,2.3-2c0.9-0.7,1.9-1.3,3-1.8c0.2-0.1,0.5-0.1,0.7-0.3
	c0,0,0,0,0,0c3.1-2.5,4.5-7.3,7.2-10.7c2.9-3.7,5.7-7.2,9.1-10.2c0.4-1.6,0.8-3.1,1.4-4.7c0.3-0.9,0.7-1.7,1.2-2.6
	c0.3-0.6,0.6-1.1,0.9-1.7c0.1-0.4,0.2-0.9,0.3-1.4c0.1-0.7,0.2-1.5,0.2-2.2c0.2-3.9-1.4-7.1-1.7-11c-0.3-3.3,0.6-6.5,1.5-9.6
	c0.1-1.6,0.2-3.2,0.1-4.7c0-0.7-0.1-1.5-0.2-2.2c-0.1-1.3-0.3-2.5-0.5-3.6c0,0,0-0.1,0-0.2s0-0.1,0-0.2c-0.5-3.3-0.7-6.5,0-9.8
	c0.7-3.1,1.6-5.4,2.1-8c0.3-1.2,0.5-2.4,0.6-3.9c0.8-6.2,2.8-12.2,5.2-17.7c1.7-3.8,4.2-6.1,6.9-7.8c2.3-2.5,5.4-4.8,8.8-8
	c2.8-2.6,5.1-5.2,8.2-7.5c1.8-1.4,4-2.8,6.9-4.1C411.8,282.1,417.9,280.3,425.8,279.7"/>
<path id="line-11" class="st0" d="M424.2,269.2C424.2,269.2,424.2,269.2,424.2,269.2C424.2,269.2,424.2,269.2,424.2,269.2
	c0.8,0,1.6,0,2.4-0.1c0.2,0,0.4,0,0.6,0l0,0c0.9,0,1.7,0,2.5,0.1c4,0.1,7.5,0.7,9.9,1c0.2,0,0.4,0.1,0.5,0.1c3.3,0.2,6.6,0.5,9.9,1
	c0,0,0.1,0,0.2,0c0.1,0,0.2,0,0.3,0c2.4,0.3,4.7,0.8,6.9,1.5c5.5,1.6,10.6,4,15.7,7.6c6.3,4.4,14.1,7.6,23.3,11.1
	c0.8,0.3,1.6,0.6,2.4,0.9c5.2,2,10.5,3.9,15.7,5.9c8.2,3.1,16.3,6.5,24.3,9.8c3.3,1.4,6.6,2.8,9.9,4.1c0.3,0.1,0.9,0.3,1.3,0.5
	c4.4,1.7,10,3.9,15.9,7c4.5,2.5,9,5.3,12.8,8.6c2.7,2.5,5,5.2,6.6,8.4c1.4,2.9,2.1,5.2,3.5,8.2c0.3,0.7,0.6,1.3,0.9,2c0,0,0,0,0,0.1
	c3.9,7.1,4.5,14.8,3.1,22.8c-1.3,8.2-4.7,16.3-9,24c-1.6,2.7-3.1,5.2-4.6,7.6c-3.3,5.1-6.7,9.8-9.5,13.9c-0.6,0.9-1.3,1.9-1.8,2.7
	c0,0.1-0.4,0.6-0.4,0.7c-0.6,1.4-1.5,3.8-2.2,5.6c-0.7,1.8-1.4,3.6-2.1,5.4c0,0-0.1,0.1-0.1,0.1c0,0-0.1,0.1-0.1,0.1
	c-3.2,7.8-8,16.1-13.5,23.1c-1.6,2.1-3.3,4-5,5.8c-6,5.9-11.6,11.1-17.2,16c-0.1,0.1-0.7,0.6-0.8,0.7c-0.1,0.1-0.7,0.5-0.8,0.6
	c-6.2,5.1-9.3,8.9-13.8,16.3c-0.1,0.1-0.5,0.8-0.6,1c-0.1,0.1-0.6,0.8-0.7,0.9c-3.8,5.4-8.1,9.4-10.9,13c-0.2,0.2-0.4,0.4-0.5,0.7
	c-0.3,0.4-0.5,0.8-0.7,1.2c0.2,2.2,0.4,4.5,0.4,6.9l0,0c0.1,2.1,0.1,4.3,0,6.3c-0.1,7.2,0.1,13.9-2.3,19.4c-0.1,0.4-0.3,0.7-0.4,1
	c-0.2,3.1-1.4,6.2-1.2,10.7c0,3,1,6.5,2.2,9.6c0,0,0,0.1,0,0.1c0,0,0,0.1,0,0.1c0.3,0.7,0.6,1.4,0.9,2c3.1,6.6,7.3,10.5,7,18.7
	c-0.2,3-1.2,6.4-2.4,9.3c-0.3,0.8-0.5,1.4-0.8,2c-0.7,1.8-1.3,3-1.5,5.2c-0.9,3.7-3.1,7.5-4.4,10.8c-1,3.2-1.6,4.8-3.4,8.3
	c-5.6,7.2-14.8,10.3-22,12.3c-0.7,0.2-1.6,0.4-2.1,0.6c-3.1,0.9-6,1.7-8.7,2.4c-10.1,2.6-19.3,3.1-27.7,3.5
	c-1.5,0.1-2.9,0.1-4.3,0.2c-1.1,0.1-2.9,0.5-4.4,0.7c-0.4,0.1-0.8,0.1-1.2,0.2c-6.2,1-13.4,2.9-21.5,3.7c-0.5,0.1-1,0.1-1.6,0.2
	c-2.4,0.3-5.4,0.6-8.6,0.7c-0.7,0-1.4,0-2.1,0c-3.5,0-7-0.1-10.5-0.4c-1.9-0.2-3.7-0.4-5.5-0.7c-4.8-0.8-9.3-2.2-13.2-4.5
	c-4.3-2.6-6.6-6.4-10.4-9.7c-0.4-0.4-0.8-0.7-1.3-1.1c0,0-0.1-0.1-0.1-0.1c0,0-0.1-0.1-0.1-0.1c-4.1-3.4-8.4-6.2-11.6-10.6
	c-3.2-2.5-6-5.4-8.3-9c-0.4-0.7-0.9-1.4-1.2-2.1c-1.8-3.9-2-5.8-2.8-9.3c-1.3-4.2-3.6-9.1-4.4-13.8c-0.7-4.7,0-8.7,0-13.5
	c0-1.5-0.1-3-0.2-4.6c0,0,0-0.1,0-0.1c0,0,0-0.1,0-0.1c-0.3-5.4-0.7-11.1-0.1-16.1c0.3-2.9,0.7-5.9,1.4-8.9c0-3.8,0.4-8,1.3-12.3
	c0,0,0-0.1,0-0.2s0-0.1,0-0.2c1.2-5.5,3.1-10.3,5.6-14.1c0.4-1.7,1.1-3.8,1.8-5.6c0.3-0.8,0.7-1.5,1-2.1c0,0,0,0,0-0.1
	c0.8-2.7,4.8-4,5.9-7.2c0,0,0.1-0.1,0.1-0.1c0.9-2,2.3-5,2.1-8.1c0-1.8-0.2-3.6-0.9-5.3c-0.3-2-0.7-4.1-1.1-6.3
	c-3.2-3.9-6.1-8.3-7.6-11.8c-2-3.9-5-8-5.8-12.5c-0.9-5.1,0.4-11.5,2.3-17.4c0.7-2.1,1.4-4,2.1-5.7c2.3-5.6,4.9-10.3,7.3-12.6
	c0,0,0.1-0.1,0.1-0.1s0.1-0.1,0.1-0.1c0.7-0.8,1.5-1.5,2.4-2.2c0.9-0.8,2-1.4,3.1-2c0.2-0.1,0.5-0.2,0.7-0.4c0,0,0,0,0,0
	c3.2-2.7,4.7-7.6,7.6-11.2c3.1-3.9,6.2-7.5,9.8-10.6c0.3-1.7,0.8-3.3,1.3-5c0.3-0.9,0.7-1.8,1.2-2.8c0.3-0.6,0.6-1.2,0.9-1.8
	c0.1-0.5,0.2-1,0.3-1.5c0.1-0.8,0.2-1.6,0.2-2.3c0.2-4.1-1.4-7.6-1.7-11.6c-0.3-3.5,0.7-6.8,1.6-10.2c0.1-1.7,0.2-3.4,0.1-4.9
	c0-0.8-0.1-1.5-0.2-2.3c-0.1-1.4-0.3-2.7-0.5-3.8c0,0,0-0.2,0-0.2c0,0,0-0.2,0-0.2c-0.5-3.5-0.7-6.9,0-10.4c0.7-3.3,1.6-5.7,2.2-8.5
	c0.3-1.3,0.5-2.6,0.7-4.1c0.9-6.5,3.2-12.8,5.9-18.6c1.9-4,4.6-6.4,7.5-8.3c2.4-2.7,5.7-5.3,9.3-8.6c2.9-2.8,5.5-5.5,8.9-7.9
	c2-1.5,4.3-3,7.4-4.3C409.3,271.7,415.7,269.7,424.2,269.2"/>
<path id="line-12" class="st0" d="M422.6,258.6C422.6,258.6,422.7,258.6,422.6,258.6C422.7,258.6,422.7,258.6,422.6,258.6
	c0.9,0,1.7-0.1,2.6-0.1c0.2,0,0.4,0,0.6,0l0,0c1,0,1.9,0,2.6,0.1c4.4,0.1,8,0.7,10.6,1.1c0.2,0,0.4,0.1,0.6,0.1
	c3.6,0.2,7.1,0.5,10.6,1c0.1,0,0.2,0,0.2,0c0.1,0,0.2,0,0.3,0c2.5,0.4,5,0.9,7.4,1.6c5.9,1.7,11.3,4.4,16.8,8.1
	c6.6,4.6,14.8,7.9,24.5,11.6c0.8,0.3,1.6,0.6,2.5,0.9c5.5,2.1,11,4.1,16.5,6.2c8.6,3.3,17.2,6.8,25.6,10.3c3.4,1.4,6.9,2.9,10.4,4.3
	c0.3,0.1,0.9,0.4,1.4,0.5c4.6,1.8,10.5,4.1,16.7,7.4c4.8,2.7,9.6,5.7,13.5,9.3c2.9,2.6,5.3,5.6,7,9c1.5,3.1,2.3,5.5,3.7,8.7
	c0.3,0.7,0.6,1.4,0.9,2.1c0,0,0,0,0,0.1c4.1,7.5,4.8,15.7,3.5,24.2c-1.2,8.7-4.7,17.4-9.3,25.7c-1.6,2.9-3.3,5.6-4.9,8.1
	c-3.6,5.5-7.2,10.4-10.2,14.7c-0.6,0.9-1.4,2-2,2.8c0,0.1-0.4,0.7-0.4,0.7c-0.6,1.4-1.6,4.1-2.4,6c-0.7,1.9-1.4,3.8-2.3,5.8
	c0,0-0.1,0.1-0.1,0.2s-0.1,0.1-0.1,0.2c-3.4,8.2-8.4,16.9-14.2,24.3c-1.7,2.2-3.5,4.2-5.3,6.1c-6.2,6.2-12.1,11.7-18,16.9
	c-0.1,0.1-0.7,0.6-0.8,0.7s-0.7,0.6-0.8,0.7c-6.6,5.4-9.9,9.3-14.6,17.1c-0.1,0.1-0.6,0.9-0.6,1s-0.6,0.9-0.7,1
	c-4,5.7-8.5,10-11.5,13.7c-0.2,0.2-0.4,0.5-0.6,0.7c-0.3,0.4-0.5,0.8-0.8,1.2c0.3,2.3,0.5,4.8,0.7,7.3l0,0c0.1,2.3,0.2,4.5,0.2,6.7
	c0,7.6,0.3,14.7-2.1,20.4c-0.1,0.4-0.3,0.7-0.4,1.1c0,3.3-1.1,6.7-0.7,11.4c0.1,3.2,1.1,6.8,2.3,10.1c0,0,0,0.1,0,0.1s0,0.1,0,0.1
	c0.3,0.8,0.6,1.5,0.9,2.1c3.1,7.1,7.1,11.6,6.6,20.1c-0.3,3.1-1.4,6.7-2.6,9.7c-0.3,0.8-0.6,1.5-0.9,2.1c-0.8,1.9-1.4,3.2-1.8,5.4
	c-1.1,3.9-3.5,7.8-4.9,11.2c-1.2,3.3-2,5.1-4.1,8.6c-6.2,7.5-15.9,10.7-23.4,12.8c-0.8,0.2-1.7,0.5-2.2,0.6c-3.2,1-6.4,1.8-9.2,2.6
	c-10.7,2.8-20.4,3.3-29.2,3.7c-1.6,0.1-3.1,0.1-4.5,0.2c-1.1,0.1-3.1,0.5-4.7,0.8c-0.4,0.1-0.9,0.2-1.3,0.2
	c-6.5,1.1-14,3.1-22.7,3.9c-0.5,0.1-1.1,0.1-1.6,0.2c-2.5,0.3-5.6,0.6-9.1,0.7c-0.8,0-1.5,0-2.3,0c-3.7,0-7.4-0.1-11.1-0.5
	c-2-0.2-3.9-0.4-5.8-0.8c-5-0.9-9.8-2.4-14-4.7c-4.6-2.7-7.1-6.7-11.2-10.1c-0.4-0.4-0.9-0.8-1.3-1.1c0,0-0.1-0.1-0.1-0.1
	c0,0-0.1-0.1-0.1-0.1c-4.4-3.6-8.7-6.7-12.2-11.3c-3.3-2.6-6.3-5.6-8.8-9.4c-0.5-0.7-0.9-1.4-1.4-2.2c-2-4-2.4-6.1-3.3-9.8
	c-1.5-4.4-3.9-9.6-4.8-14.4c-0.8-4.9-0.2-9.2-0.3-14.2c0-1.5-0.1-3.2-0.2-4.9c0,0,0-0.1,0-0.1c0,0,0-0.1,0-0.1
	c-0.3-5.7-0.7-11.7-0.1-16.9c0.3-3.1,0.8-6.2,1.5-9.3c0-4,0.4-8.4,1.3-12.9c0,0,0-0.1,0-0.2s0-0.1,0-0.2c1.2-5.8,3.2-10.8,5.8-14.8
	c0.4-1.8,1-4,1.8-6c0.3-0.8,0.7-1.6,1-2.3c0,0,0,0,0-0.1c0.8-3,4.7-4.6,5.8-8.1c0,0,0.1-0.1,0.1-0.1c0.9-2.2,2.3-5.3,2.2-8.6
	c0-1.9-0.2-3.8-0.7-5.6c-0.2-2.1-0.6-4.4-0.9-6.7c-3.3-4.2-6.3-8.8-7.8-12.6c-2-4.2-5-8.5-5.7-13.3c-0.9-5.4,0.5-12.1,2.4-18.3
	c0.7-2.2,1.5-4.2,2.2-6c2.4-5.9,5.2-10.9,7.6-13.4c0,0,0.1-0.1,0.1-0.1c0,0,0.1-0.1,0.1-0.1c0.7-0.8,1.6-1.6,2.5-2.4
	c1-0.8,2-1.6,3.2-2.3c0.2-0.2,0.5-0.2,0.8-0.4c0,0,0,0,0,0c3.3-2.9,5-8,8.1-11.7c3.3-4,6.6-7.8,10.4-11.1c0.3-1.8,0.8-3.5,1.3-5.2
	c0.3-1,0.7-2,1.2-3c0.3-0.6,0.6-1.3,0.9-1.9c0.1-0.5,0.2-1,0.2-1.6c0.1-0.8,0.2-1.6,0.2-2.5c0.1-4.4-1.4-8-1.6-12.3
	c-0.2-3.7,0.8-7.2,1.8-10.7c0.1-1.8,0.1-3.5,0.1-5.2c0-0.8-0.1-1.6-0.2-2.4c-0.1-1.5-0.3-2.9-0.5-4c0,0,0-0.2,0-0.2s0-0.2,0-0.2
	c-0.5-3.6-0.7-7.3,0-10.9c0.7-3.4,1.6-6,2.2-8.9c0.3-1.3,0.6-2.7,0.7-4.3c1.1-6.9,3.6-13.5,6.5-19.5c2.1-4.2,5-6.8,8.1-8.8
	c2.6-2.9,6-5.7,9.8-9.3c3.1-2.9,5.9-5.8,9.5-8.3c2.1-1.5,4.6-3.1,7.9-4.5C406.7,261.3,413.6,259.2,422.6,258.6"/>
<path id="line-13" class="st0" d="M421.1,248C421.1,248,421.1,248,421.1,248C421.1,248,421.1,248,421.1,248
	c0.9,0,1.8-0.1,2.8-0.1c0.2,0,0.4,0,0.7,0l0,0c1,0,2,0,2.8,0.1c4.6,0.1,8.6,0.8,11.3,1.2c0.2,0,0.4,0.1,0.6,0.1
	c3.8,0.2,7.5,0.6,11.3,1.1c0.1,0,0.2,0,0.2,0c0.1,0,0.2,0,0.3,0c2.7,0.4,5.3,1,7.8,1.7c6.2,1.8,12,4.7,17.9,8.7
	c6.9,4.7,15.5,8.2,25.7,12.1c0.9,0.3,1.7,0.7,2.6,1c5.8,2.1,11.5,4.3,17.3,6.5c9.1,3.5,18,7.2,26.8,10.8c3.6,1.5,7.3,3,10.9,4.5
	c0.4,0.1,1,0.4,1.5,0.6c4.8,1.8,10.9,4.2,17.5,7.8c5.1,2.8,10.1,6.1,14.2,9.9c3,2.8,5.6,5.9,7.4,9.5c1.6,3.2,2.5,5.9,4,9.2
	c0.3,0.7,0.7,1.5,1,2.3c0,0,0,0,0,0.1c4.3,7.9,5.2,16.7,3.9,25.7c-1.2,9.3-4.8,18.5-9.6,27.3c-1.7,3.1-3.5,5.9-5.1,8.6
	c-3.8,5.8-7.7,11-10.8,15.5c-0.7,1-1.5,2.1-2.1,3c0,0.1-0.4,0.7-0.4,0.8c-0.7,1.5-1.7,4.3-2.5,6.4c-0.8,2-1.5,4-2.4,6.1
	c0,0-0.1,0.2-0.1,0.2s-0.1,0.2-0.1,0.2c-3.6,8.6-8.8,17.7-14.8,25.5c-1.8,2.3-3.6,4.4-5.5,6.4c-6.5,6.6-12.7,12.4-18.9,17.7
	c-0.1,0.1-0.8,0.6-0.8,0.7c-0.1,0.1-0.8,0.6-0.8,0.7c-7,5.6-10.4,9.7-15.4,17.9c-0.1,0.1-0.6,0.9-0.7,1.1c-0.1,0.1-0.6,0.9-0.7,1
	c-4.2,6-8.9,10.5-12,14.3c-0.2,0.2-0.4,0.5-0.6,0.7c-0.3,0.4-0.6,0.9-0.8,1.3c0.4,2.4,0.7,5,0.9,7.6l0,0c0.2,2.4,0.3,4.7,0.3,7
	c0.2,8,0.4,15.5-1.9,21.5c-0.1,0.4-0.3,0.8-0.4,1.2c0.1,3.5-0.7,7.1-0.3,12.1c0.1,3.3,1.2,7.2,2.4,10.6c0,0,0,0.1,0,0.1s0,0.1,0,0.1
	c0.3,0.8,0.6,1.5,0.9,2.3c3,7.6,6.9,12.6,6.2,21.5c-0.4,3.3-1.5,7-2.9,10.2c-0.3,0.8-0.6,1.5-0.9,2.2c-0.8,2-1.6,3.3-2,5.6
	c-1.3,4-3.8,8.2-5.5,11.6c-1.4,3.4-2.4,5.3-4.7,8.9c-6.8,7.8-17,11.1-24.8,13.3c-0.8,0.2-1.8,0.5-2.3,0.7c-3.4,1.1-6.7,1.9-9.7,2.7
	c-11.3,2.9-21.6,3.4-30.8,3.9c-1.7,0.1-3.2,0.1-4.8,0.2c-1.2,0.1-3.2,0.6-4.9,0.9c-0.4,0.1-0.9,0.2-1.4,0.3
	c-6.8,1.2-14.7,3.2-23.9,4.1c-0.6,0.1-1.1,0.1-1.7,0.2c-2.6,0.3-5.9,0.6-9.5,0.7c-0.8,0-1.6,0-2.4,0c-3.9,0-7.8-0.1-11.7-0.5
	c-2.1-0.2-4.1-0.5-6.1-0.8c-5.3-1-10.3-2.5-14.7-5c-4.9-2.8-7.7-6.9-11.9-10.5c-0.5-0.4-0.9-0.8-1.4-1.2c0,0-0.1-0.1-0.1-0.1
	c0,0-0.1-0.1-0.1-0.1c-4.6-3.8-9.1-7.1-12.7-12c-3.5-2.7-6.6-5.8-9.4-9.8c-0.5-0.7-1-1.5-1.5-2.3c-2.1-4.1-2.7-6.4-3.8-10.2
	c-1.6-4.6-4.2-10-5.3-15.1c-0.9-5.1-0.5-9.6-0.6-14.9c0-1.6-0.1-3.3-0.2-5.1c0,0,0-0.1,0-0.1s0-0.1,0-0.1c-0.4-6-0.7-12.2-0.1-17.7
	c0.4-3.2,0.9-6.5,1.7-9.8c0-4.1,0.4-8.7,1.3-13.5c0,0,0-0.2,0-0.2s0-0.2,0-0.2c1.3-6.1,3.4-11.4,6-15.6c0.4-2,1-4.2,1.7-6.3
	c0.3-0.9,0.6-1.7,1-2.4c0,0,0-0.1,0-0.1c0.7-3.3,4.6-5.3,5.8-9.1c0,0,0.1-0.1,0.1-0.1c0.9-2.3,2.3-5.6,2.2-9c0.1-2-0.1-4-0.6-6
	c-0.2-2.2-0.5-4.7-0.7-7.1c-3.4-4.4-6.4-9.2-8-13.3c-2-4.5-5-9.1-5.7-14.1c-0.8-5.7,0.5-12.7,2.6-19.2c0.7-2.3,1.5-4.4,2.3-6.3
	c2.5-6.3,5.4-11.5,7.8-14.1c0,0,0.1-0.1,0.1-0.1c0,0,0.1-0.1,0.1-0.1c0.8-0.9,1.6-1.7,2.5-2.6c1-0.9,2.1-1.8,3.3-2.5
	c0.2-0.2,0.5-0.3,0.8-0.5c0,0,0,0,0,0c3.4-3.1,5.3-8.3,8.6-12.3c3.5-4.2,7-8.2,11.1-11.5c0.3-1.9,0.8-3.7,1.3-5.5
	c0.3-1.1,0.7-2.1,1.2-3.1c0.3-0.7,0.6-1.4,0.9-2c0.1-0.5,0.2-1.1,0.2-1.6c0.1-0.9,0.1-1.7,0.1-2.6c0.1-4.6-1.4-8.5-1.6-13
	c-0.2-3.9,0.8-7.6,1.9-11.2c0.1-1.9,0.1-3.7,0-5.5c0-0.9-0.1-1.7-0.2-2.5c-0.1-1.5-0.3-3-0.5-4.2c0,0,0-0.2,0-0.2c0,0,0-0.2,0-0.2
	c-0.5-3.8-0.7-7.6,0-11.5c0.7-3.6,1.6-6.3,2.3-9.4c0.3-1.4,0.6-2.9,0.8-4.5c1.3-7.2,3.9-14.1,7.2-20.4c2.3-4.4,5.5-7.1,8.6-9.2
	c2.7-3.1,6.3-6.1,10.4-9.9c3.3-3.1,6.4-6,10.2-8.7c2.3-1.6,5-3.2,8.4-4.7C404.1,250.9,411.5,248.7,421.1,248"/>
<path id="line-14" class="st0" d="M419.5,237.4C419.5,237.4,419.5,237.4,419.5,237.4C419.5,237.4,419.6,237.4,419.5,237.4
	c1,0,1.9-0.1,2.9-0.1c0.2,0,0.5,0,0.7,0l0,0c1.1,0,2.1,0,3,0.1c5,0.2,9.1,0.8,12,1.2c0.2,0,0.4,0.1,0.6,0.1c4,0.2,8,0.6,12,1.2
	c0.1,0,0.2,0,0.2,0c0.1,0,0.3,0,0.3,0.1c2.8,0.4,5.6,1.1,8.3,1.9c6.6,2,12.8,5,19,9.2c7.1,4.9,16.1,8.6,26.9,12.6
	c0.9,0.3,1.8,0.7,2.7,1c6,2.2,12.1,4.5,18.1,6.8c9.5,3.7,18.8,7.5,28,11.3c3.8,1.6,7.6,3.2,11.4,4.7c0.4,0.1,1,0.4,1.6,0.6
	c4.9,1.9,11.4,4.4,18.3,8.2c5.4,3,10.6,6.5,15,10.6c3.2,3,5.9,6.3,7.8,10.1c1.7,3.4,2.7,6.2,4.2,9.7c0.4,0.8,0.7,1.6,1,2.4
	c0,0,0,0,0,0.1c4.5,8.4,5.6,17.6,4.4,27.1c-1.2,9.8-4.8,19.6-9.8,28.9c-1.8,3.2-3.6,6.3-5.4,9.1c-4,6.2-8.1,11.7-11.5,16.4
	c-0.7,1-1.6,2.2-2.3,3.1c0,0.1-0.4,0.7-0.5,0.8c-0.7,1.6-1.8,4.5-2.7,6.7c-0.8,2.1-1.6,4.2-2.5,6.5c0,0-0.1,0.2-0.1,0.2
	s-0.1,0.2-0.1,0.2c-3.7,9-9.2,18.5-15.4,26.7c-1.8,2.4-3.8,4.6-5.7,6.7c-6.7,6.9-13.2,13-19.7,18.5c-0.1,0.1-0.8,0.7-0.9,0.7
	s-0.8,0.6-0.9,0.7c-7.4,5.9-10.9,10.1-16.1,18.7c-0.1,0.1-0.6,1-0.7,1.1c-0.1,0.1-0.7,1-0.8,1.1c-4.5,6.4-9.4,11.1-12.6,15
	c-0.2,0.2-0.4,0.5-0.6,0.7c-0.3,0.5-0.6,0.9-0.9,1.4c0.5,2.6,0.9,5.2,1.2,8l0,0c0.3,2.5,0.4,4.9,0.5,7.3c0.4,8.4,0.6,16.2-1.7,22.5
	c-0.1,0.4-0.3,0.8-0.4,1.2c0.3,3.7-0.4,7.5,0.1,12.8c0.2,3.5,1.3,7.5,2.5,11.1c0,0,0,0.1,0,0.1c0,0,0,0.1,0,0.1
	c0.3,0.8,0.6,1.6,0.9,2.4c3,8,6.7,13.6,5.8,22.9c-0.4,3.4-1.7,7.3-3.1,10.6c-0.3,0.8-0.7,1.6-1,2.3c-0.9,2.1-1.7,3.5-2.2,5.9
	c-1.4,4.2-4.1,8.5-6,12.1c-1.6,3.6-2.9,5.6-5.3,9.2c-7.4,8-18.2,11.5-26.3,13.7c-0.8,0.2-1.9,0.5-2.4,0.7c-3.6,1.1-7,2-10.2,2.8
	c-11.9,3-22.7,3.6-32.3,4c-1.7,0.1-3.4,0.2-5,0.2c-1.2,0.1-3.4,0.6-5.2,0.9c-0.5,0.1-0.9,0.2-1.4,0.3c-7.1,1.3-15.4,3.4-25.1,4.2
	c-0.6,0.1-1.2,0.1-1.8,0.2c-2.8,0.3-6.2,0.6-10,0.7c-0.8,0-1.7,0-2.5,0c-4.1,0-8.2-0.2-12.3-0.6c-2.2-0.2-4.3-0.5-6.4-0.9
	c-5.6-1-10.8-2.7-15.4-5.2c-5.1-2.9-8.2-7.1-12.7-10.9c-0.5-0.4-1-0.8-1.5-1.2c0,0-0.1-0.1-0.1-0.1s-0.1-0.1-0.1-0.1
	c-4.8-4-9.5-7.6-13.3-12.7c-3.6-2.8-7-6-9.9-10.1c-0.5-0.8-1.1-1.6-1.6-2.4c-2.3-4.3-3-6.6-4.2-10.6c-1.8-4.8-4.5-10.4-5.7-15.7
	c-1-5.4-0.7-10.1-0.9-15.6c-0.1-1.7-0.2-3.5-0.3-5.3c0,0,0-0.1,0-0.1s0-0.1,0-0.1c-0.4-6.3-0.7-12.8,0-18.6c0.4-3.4,1-6.8,1.8-10.2
	c0-4.3,0.4-9.1,1.4-14.2c0,0,0-0.2,0-0.2c0,0,0-0.2,0-0.2c1.3-6.3,3.5-11.9,6.2-16.3c0.4-2.1,0.9-4.4,1.6-6.7c0.3-0.9,0.6-1.8,1-2.6
	c0,0,0-0.1,0-0.1c0.7-3.6,4.5-5.9,5.7-10c0,0,0.1-0.1,0.1-0.1c0.9-2.5,2.3-5.9,2.3-9.5c0.1-2.1,0-4.2-0.5-6.3
	c-0.1-2.4-0.3-4.9-0.5-7.5c-3.5-4.6-6.6-9.7-8.1-14c-2.1-4.7-5-9.6-5.7-14.9c-0.8-6,0.6-13.4,2.7-20.2c0.8-2.4,1.6-4.6,2.4-6.6
	c2.6-6.6,5.6-12,8.1-14.9c0,0,0.1-0.1,0.1-0.1s0.1-0.1,0.1-0.1c0.8-0.9,1.7-1.9,2.6-2.8c1-1,2.2-1.9,3.4-2.8
	c0.2-0.2,0.5-0.3,0.8-0.6c0,0,0,0,0,0c3.5-3.3,5.6-8.7,9-12.8c3.7-4.4,7.5-8.5,11.7-12c0.3-2,0.7-3.9,1.3-5.8
	c0.3-1.1,0.7-2.2,1.2-3.3c0.3-0.7,0.6-1.4,0.9-2.2c0.1-0.6,0.1-1.1,0.2-1.7c0.1-0.9,0.1-1.8,0.1-2.7c0.1-4.8-1.4-8.9-1.5-13.6
	c-0.2-4,0.9-7.9,2-11.8c0.1-2,0.1-3.9,0-5.7c-0.1-0.9-0.1-1.8-0.2-2.7c-0.1-1.6-0.3-3.2-0.5-4.4c0,0,0-0.2,0-0.2c0,0,0-0.2,0-0.2
	c-0.5-4-0.7-8,0-12.1c0.7-3.7,1.7-6.6,2.4-9.9c0.3-1.5,0.7-3,0.9-4.7c1.4-7.5,4.3-14.7,7.9-21.4c2.5-4.5,5.9-7.5,9.2-9.7
	c2.8-3.3,6.6-6.6,10.9-10.5c3.5-3.2,6.8-6.3,10.9-9.1c2.4-1.7,5.3-3.4,8.9-4.9C401.6,240.5,409.4,238.1,419.5,237.4"/>
<path id="line-15" class="st0" d="M417.9,226.9C418,226.9,418,226.9,417.9,226.9C418,226.9,418,226.9,417.9,226.9
	c1,0,2.1-0.1,3.1-0.1c0.3,0,0.5,0,0.8,0l0,0c1.2,0,2.2,0,3.1,0.1c5.3,0.2,9.7,0.8,12.7,1.3c0.2,0,0.5,0.1,0.7,0.1
	c4.3,0.2,8.5,0.6,12.7,1.2c0.1,0,0.2,0,0.2,0c0.1,0,0.3,0,0.4,0.1c3,0.5,5.9,1.1,8.8,2c7,2.1,13.5,5.3,20,9.8
	c7.4,5.1,16.8,8.9,28.1,13.1c0.9,0.4,1.9,0.7,2.8,1.1c6.3,2.3,12.6,4.7,18.9,7.1c9.9,3.8,19.6,7.8,29.2,11.9c3.9,1.6,7.9,3.3,11.9,5
	c0.4,0.2,1.1,0.4,1.6,0.6c5.1,2,11.9,4.6,19.1,8.5c5.7,3.2,11.2,6.9,15.7,11.2c3.3,3.2,6.2,6.6,8.2,10.6c1.8,3.5,2.9,6.5,4.5,10.2
	c0.4,0.8,0.7,1.7,1,2.5c0,0,0,0.1,0,0.1c4.8,8.8,6,18.5,4.8,28.5c-1.1,10.4-4.8,20.7-10.1,30.6c-1.9,3.4-3.8,6.6-5.7,9.6
	c-4.2,6.5-8.6,12.3-12.2,17.2c-0.8,1.1-1.7,2.3-2.4,3.3c0,0.1-0.5,0.8-0.5,0.8c-0.7,1.6-1.9,4.8-2.8,7.1c-0.8,2.2-1.7,4.5-2.7,6.8
	c0,0-0.1,0.2-0.1,0.2s-0.1,0.2-0.1,0.2c-3.9,9.4-9.5,19.3-16.1,27.9c-1.9,2.5-3.9,4.9-5.9,7.1c-6.9,7.2-13.7,13.6-20.5,19.4
	c-0.1,0.1-0.8,0.7-0.9,0.8c-0.1,0.1-0.9,0.7-0.9,0.8c-7.9,6.2-11.5,10.5-16.9,19.4c-0.1,0.1-0.7,1-0.7,1.2c-0.1,0.1-0.7,1-0.8,1.1
	c-4.7,6.7-9.8,11.6-13.2,15.7c-0.2,0.2-0.4,0.5-0.7,0.8c-0.3,0.5-0.6,1-0.9,1.4c0.6,2.7,1.1,5.5,1.4,8.3l0,0
	c0.3,2.6,0.5,5.2,0.7,7.7c0.5,8.8,0.8,17-1.4,23.5c-0.1,0.4-0.2,0.9-0.4,1.3c0.5,3.8-0.1,7.9,0.6,13.5c0.3,3.6,1.4,7.8,2.6,11.6
	c0,0,0,0.1,0,0.1c0,0,0,0.1,0,0.1c0.3,0.9,0.6,1.7,0.9,2.5c3,8.5,6.5,14.6,5.3,24.4c-0.5,3.6-1.8,7.6-3.3,11.1
	c-0.3,0.9-0.7,1.7-1,2.4c-1,2.1-1.8,3.7-2.4,6.1c-1.6,4.4-4.5,8.8-6.6,12.5c-1.8,3.7-3.3,5.8-6,9.6c-8,8.3-19.3,11.9-27.7,14.2
	c-0.9,0.2-2,0.5-2.6,0.7c-3.7,1.2-7.3,2.1-10.7,3c-12.5,3.1-23.8,3.7-33.8,4.2c-1.8,0.1-3.6,0.2-5.3,0.3c-1.2,0.2-3.6,0.6-5.4,1
	c-0.5,0.1-1,0.2-1.5,0.3c-7.4,1.4-16.1,3.6-26.3,4.4c-0.6,0.1-1.2,0.1-1.9,0.2c-2.9,0.3-6.5,0.6-10.5,0.7c-0.9,0-1.8,0-2.6,0
	c-4.3,0-8.6-0.2-12.9-0.6c-2.3-0.2-4.5-0.6-6.7-1c-5.8-1.1-11.3-2.8-16.2-5.5c-5.4-3-8.8-7.3-13.4-11.2c-0.5-0.4-1-0.9-1.6-1.3
	c0,0-0.1-0.1-0.1-0.1s-0.1-0.1-0.1-0.1c-5-4.1-9.9-8-13.8-13.4c-3.8-2.9-7.3-6.2-10.4-10.5c-0.6-0.8-1.1-1.6-1.7-2.5
	c-2.4-4.4-3.3-6.9-4.7-11.1c-2-5-4.8-10.8-6.1-16.4c-1.2-5.6-0.9-10.6-1.2-16.3c-0.1-1.8-0.2-3.6-0.3-5.6c0,0,0-0.1,0-0.1
	s0-0.1,0-0.1c-0.4-6.5-0.7-13.3,0-19.4c0.4-3.5,1-7.1,1.9-10.7c0-4.5,0.4-9.5,1.4-14.8c0,0,0-0.2,0-0.2c0,0,0-0.2,0-0.2
	c1.4-6.6,3.7-12.5,6.5-17.1c0.4-2.2,0.9-4.7,1.6-7.1c0.3-1,0.6-1.9,0.9-2.8c0,0,0-0.1,0-0.1c0.7-3.8,4.4-6.5,5.6-10.9
	c0,0,0.1-0.1,0.1-0.1c0.9-2.6,2.3-6.2,2.3-9.9c0.1-2.2,0.1-4.4-0.4-6.6c0-2.5-0.2-5.2-0.3-7.9c-3.5-4.8-6.7-10.2-8.3-14.8
	c-2.1-5-5-10.2-5.7-15.8c-0.8-6.3,0.7-14,2.9-21.1c0.8-2.5,1.6-4.9,2.5-6.9c2.7-6.9,5.8-12.6,8.4-15.6c0,0,0.1-0.1,0.1-0.1
	c0,0,0.1-0.1,0.1-0.1c0.8-1,1.7-2,2.7-3c1.1-1.1,2.2-2.1,3.5-3c0.3-0.2,0.6-0.4,0.9-0.6c0,0,0,0,0,0c3.6-3.5,5.8-9,9.5-13.3
	c3.9-4.6,7.9-8.8,12.4-12.4c0.3-2.1,0.7-4.1,1.3-6.1c0.3-1.2,0.7-2.3,1.2-3.5c0.3-0.8,0.6-1.5,0.9-2.3c0.1-0.6,0.1-1.2,0.2-1.8
	c0.1-0.9,0.1-1.9,0.1-2.8c0-5-1.4-9.3-1.5-14.3c-0.1-4.2,0.9-8.3,2.1-12.3c0-2.1,0.1-4.1,0-6c-0.1-1-0.1-1.9-0.2-2.8
	c-0.1-1.7-0.3-3.3-0.5-4.6c0,0,0-0.2,0-0.2s0-0.2,0-0.2c-0.5-4.2-0.7-8.4,0.1-12.6c0.7-3.9,1.7-6.9,2.5-10.3c0.4-1.6,0.7-3.2,1-4.9
	c1.6-7.9,4.7-15.4,8.5-22.3c2.7-4.7,6.3-7.8,9.8-10.2c2.9-3.5,6.8-7,11.4-11.1c3.6-3.4,7.2-6.6,11.5-9.5c2.6-1.8,5.6-3.5,9.4-5.1
	C399,230.1,407.3,227.6,417.9,226.9"/>
<path id="line-16" class="st0" d="M416.4,216.3C416.4,216.3,416.4,216.3,416.4,216.3C416.4,216.3,416.4,216.3,416.4,216.3
	c1.1,0,2.2-0.1,3.3-0.1c0.3,0,0.5,0,0.8,0l0,0c1.2,0,2.4,0,3.3,0.1c5.6,0.2,10.2,0.9,13.4,1.4c0.2,0,0.5,0.1,0.7,0.1
	c4.5,0.2,8.9,0.6,13.3,1.3c0.1,0,0.2,0,0.3,0c0.1,0,0.3,0,0.4,0.1c3.2,0.5,6.2,1.2,9.2,2.1c7.4,2.2,14.2,5.6,21.1,10.3
	c7.7,5.3,17.5,9.2,29.3,13.6c1,0.4,2,0.7,3,1.1c6.6,2.4,13.1,4.9,19.7,7.4c10.3,4,20.5,8.2,30.5,12.4c4.1,1.7,8.3,3.5,12.4,5.2
	c0.4,0.2,1.1,0.4,1.7,0.6c5.3,2,12.3,4.7,19.8,8.9c6,3.4,11.7,7.3,16.5,11.9c3.5,3.3,6.4,7,8.6,11.2c1.9,3.7,3.1,6.8,4.7,10.7
	c0.4,0.9,0.7,1.8,1.1,2.6c0,0,0,0.1,0,0.1c5,9.3,6.4,19.5,5.2,30c-1.1,11-4.9,21.8-10.4,32.2c-1.9,3.6-4,6.9-5.9,10
	c-4.5,6.9-9.1,12.9-12.8,18c-0.8,1.1-1.8,2.4-2.5,3.4c0,0.1-0.5,0.8-0.5,0.9c-0.8,1.7-2,5-2.9,7.4c-0.9,2.3-1.8,4.7-2.8,7.2
	c0,0-0.1,0.2-0.1,0.2s-0.1,0.2-0.1,0.2c-4.1,9.8-9.9,20.1-16.7,29c-2,2.6-4,5.1-6.2,7.4c-7.2,7.6-14.2,14.2-21.4,20.2
	c-0.1,0.1-0.9,0.7-1,0.8s-0.9,0.7-1,0.8c-8.3,6.4-12,10.9-17.7,20.2c-0.1,0.1-0.7,1.1-0.8,1.2c-0.1,0.1-0.7,1.1-0.8,1.2
	c-4.9,7-10.2,12.2-13.7,16.4c-0.2,0.3-0.5,0.5-0.7,0.8c-0.3,0.5-0.6,1-0.9,1.5c0.7,2.8,1.2,5.7,1.7,8.7l0,0c0.4,2.7,0.7,5.4,0.8,8
	c0.7,9.2,1,17.7-1.2,24.6c-0.1,0.5-0.2,0.9-0.4,1.4c0.6,4,0.3,8.4,1,14.2c0.3,3.8,1.5,8.1,2.7,12.1c0,0,0,0.1,0,0.1c0,0,0,0.1,0,0.1
	c0.3,0.9,0.6,1.8,0.9,2.6c3,9,6.3,15.7,4.9,25.8c-0.6,3.7-2,7.9-3.6,11.5c-0.4,0.9-0.7,1.7-1.1,2.5c-1,2.2-1.9,3.9-2.6,6.3
	c-1.8,4.5-4.8,9.1-7.1,13c-2,3.8-3.7,6.1-6.6,9.9c-8.6,8.6-20.4,12.3-29.1,14.7c-0.9,0.3-2.1,0.6-2.7,0.7c-3.9,1.2-7.7,2.2-11.2,3.1
	c-13.1,3.3-24.9,3.9-35.4,4.4c-1.9,0.1-3.7,0.2-5.5,0.3c-1.3,0.2-3.7,0.7-5.6,1.1c-0.5,0.1-1,0.2-1.6,0.3
	c-7.7,1.5-16.8,3.8-27.5,4.6c-0.6,0.1-1.3,0.1-2,0.2c-3,0.3-6.8,0.6-11,0.7c-0.9,0-1.8,0-2.7,0c-4.5,0-9-0.2-13.4-0.7
	c-2.4-0.3-4.7-0.6-7-1c-6.1-1.2-11.8-3-16.9-5.7c-5.6-3.1-9.3-7.5-14.2-11.6c-0.5-0.5-1.1-0.9-1.6-1.4c0,0-0.1-0.1-0.1-0.1
	c0,0-0.1-0.1-0.1-0.1c-5.3-4.3-10.3-8.5-14.3-14.1c-3.9-3-7.6-6.5-10.9-10.9c-0.6-0.8-1.2-1.7-1.8-2.6c-2.6-4.5-3.7-7.2-5.2-11.5
	c-2.2-5.2-5.1-11.2-6.5-17c-1.3-5.8-1.2-11-1.5-17c-0.1-1.9-0.2-3.8-0.4-5.8c0,0,0-0.1,0-0.1s0-0.1,0-0.1c-0.5-6.8-0.8-13.9,0-20.2
	c0.4-3.7,1.1-7.4,2-11.1c0-4.7,0.4-9.9,1.5-15.4c0,0,0-0.2,0-0.2c0,0,0-0.2,0-0.2c1.4-6.9,3.8-13,6.7-17.8c0.3-2.3,0.8-4.9,1.5-7.4
	c0.3-1,0.6-2,0.9-2.9c0,0,0-0.1,0-0.1c0.7-4.1,4.3-7.1,5.5-11.9c0-0.1,0.1-0.1,0.1-0.2c0.9-2.8,2.3-6.5,2.3-10.4
	c0.2-2.3,0.1-4.7-0.2-6.9c0-2.7-0.1-5.5-0.1-8.3c-3.6-5.1-6.9-10.6-8.5-15.5c-2.1-5.3-5-10.7-5.6-16.6c-0.7-6.6,0.7-14.6,3-22
	c0.8-2.6,1.7-5.1,2.5-7.2c2.9-7.2,6.1-13.2,8.7-16.3c0,0,0.1-0.1,0.1-0.1c0,0,0.1-0.1,0.1-0.1c0.8-1,1.8-2.1,2.8-3.1
	c1.1-1.1,2.3-2.2,3.7-3.3c0.3-0.2,0.6-0.4,0.9-0.7c0,0,0,0,0.1,0c3.7-3.7,6.1-9.4,10-13.9c4.1-4.8,8.3-9.2,13.1-12.9
	c0.3-2.2,0.7-4.3,1.3-6.4c0.3-1.2,0.7-2.5,1.2-3.7c0.3-0.8,0.6-1.6,0.9-2.4c0.1-0.6,0.1-1.3,0.1-1.9c0.1-1,0.1-2,0.1-3
	c0-5.2-1.4-9.8-1.5-14.9c-0.1-4.4,1-8.7,2.2-12.9c0-2.2,0.1-4.3-0.1-6.3c-0.1-1-0.1-2-0.2-2.9c-0.1-1.8-0.3-3.5-0.5-4.9
	c0,0,0-0.2,0-0.2s0-0.2,0-0.2c-0.5-4.4-0.7-8.8,0.1-13.2c0.7-4,1.7-7.3,2.5-10.8c0.4-1.6,0.8-3.3,1.1-5.1c1.7-8.2,5.1-16,9.2-23.2
	c2.9-4.9,6.7-8.2,10.4-10.6c3.1-3.7,7.1-7.4,11.9-11.8c3.8-3.5,7.6-6.9,12.2-9.9c2.7-1.8,5.9-3.7,9.9-5.4
	C396.5,219.7,405.2,217.1,416.4,216.3"/>
<path id="line-17" class="st0" d="M414.8,205.7C414.8,205.7,414.8,205.7,414.8,205.7C414.8,205.7,414.9,205.7,414.8,205.7
	c1.2,0,2.3-0.1,3.4-0.1c0.3,0,0.6,0,0.8,0l0,0c1.3,0,2.5,0,3.5,0.1c5.9,0.2,10.8,0.9,14.1,1.4c0.2,0,0.5,0.1,0.8,0.1
	c4.7,0.2,9.4,0.6,14,1.4c0.1,0,0.2,0,0.3,0c0.1,0,0.3,0,0.4,0.1c3.3,0.5,6.5,1.3,9.7,2.2c7.7,2.3,14.9,5.9,22.2,10.9
	c7.9,5.5,18.2,9.5,30.5,14.2c1,0.4,2,0.8,3.1,1.1c6.8,2.5,13.7,5.1,20.5,7.7c10.7,4.2,21.3,8.5,31.7,12.9c4.2,1.8,8.6,3.6,12.9,5.4
	c0.4,0.2,1.2,0.4,1.8,0.7c5.5,2.1,12.8,4.9,20.6,9.3c6.3,3.6,12.2,7.7,17.2,12.5c3.6,3.5,6.7,7.4,9,11.7c2,3.8,3.3,7.2,5,11.2
	c0.4,0.9,0.8,1.8,1.1,2.8c0,0,0,0.1,0,0.1c5.2,9.7,6.8,20.4,5.7,31.4c-1,11.5-4.9,22.9-10.7,33.8c-2,3.8-4.1,7.3-6.2,10.5
	c-4.7,7.2-9.6,13.5-13.5,18.8c-0.9,1.1-1.9,2.5-2.7,3.6c0,0.1-0.5,0.9-0.6,0.9c-0.8,1.8-2.1,5.3-3.1,7.8c-0.9,2.4-1.9,4.9-2.9,7.5
	c0,0-0.1,0.2-0.1,0.2s-0.1,0.2-0.1,0.2c-4.2,10.2-10.3,20.9-17.4,30.2c-2.1,2.7-4.2,5.3-6.4,7.7c-7.4,7.9-14.7,14.9-22.2,21.1
	c-0.1,0.1-0.9,0.8-1,0.8s-1,0.7-1,0.8c-8.7,6.7-12.5,11.2-18.4,21c-0.1,0.1-0.7,1.2-0.8,1.3c-0.1,0.1-0.8,1.1-0.8,1.2
	c-5.1,7.3-10.6,12.7-14.3,17.1c-0.2,0.3-0.5,0.6-0.7,0.8c-0.3,0.5-0.7,1-1,1.5c0.8,2.9,1.4,5.9,1.9,9l0,0c0.5,2.8,0.8,5.6,1,8.3
	c0.9,9.6,1.2,18.5-1,25.6c-0.1,0.5-0.2,1-0.4,1.4c0.8,4.2,0.6,8.8,1.5,14.8c0.4,3.9,1.6,8.4,2.8,12.6c0,0,0,0.1,0,0.1
	c0,0,0,0.1,0,0.1c0.3,1,0.6,1.9,0.9,2.8c2.9,9.5,6,16.7,4.5,27.2c-0.7,3.9-2.1,8.2-3.8,11.9c-0.4,0.9-0.8,1.8-1.2,2.6
	c-1.1,2.3-2.1,4-2.8,6.6c-2,4.7-5.1,9.4-7.7,13.4c-2.2,3.9-4.1,6.3-7.3,10.2c-9.2,8.9-21.5,12.7-30.5,15.2c-1,0.3-2.2,0.6-2.8,0.8
	c-4.1,1.3-8,2.3-11.7,3.2c-13.7,3.4-26,4-36.9,4.5c-2,0.1-3.9,0.2-5.7,0.3c-1.3,0.2-3.9,0.7-5.9,1.1c-0.5,0.1-1.1,0.2-1.6,0.3
	c-7.9,1.5-17.5,3.9-28.7,4.8c-0.7,0.1-1.4,0.1-2.1,0.2c-3.1,0.3-7.1,0.6-11.5,0.7c-1,0-1.9,0-2.9,0c-4.7,0-9.4-0.2-14-0.7
	c-2.5-0.3-4.9-0.6-7.3-1.1c-6.3-1.2-12.4-3.1-17.7-6c-5.9-3.2-9.9-7.7-15-12c-0.6-0.5-1.1-0.9-1.7-1.4c0,0-0.1-0.1-0.1-0.1
	c0,0-0.1-0.1-0.1-0.1c-5.5-4.5-10.7-8.9-14.9-14.8c-4.1-3.1-8-6.7-11.5-11.2c-0.7-0.9-1.3-1.7-1.9-2.6c-2.7-4.6-4-7.5-5.6-11.9
	c-2.4-5.4-5.4-11.6-7-17.7c-1.4-6-1.4-11.5-1.8-17.7c-0.1-1.9-0.3-4-0.4-6c0,0,0-0.1,0-0.1s0-0.1,0-0.1c-0.5-7.1-0.8-14.4,0.1-21
	c0.5-3.9,1.2-7.7,2.2-11.6c0-4.9,0.4-10.3,1.5-16c0,0,0-0.2,0-0.2c0,0,0-0.2,0-0.2c1.5-7.2,3.9-13.6,6.9-18.6
	c0.3-2.4,0.8-5.1,1.4-7.8c0.3-1.1,0.6-2.1,0.9-3.1c0,0,0-0.1,0-0.1c0.7-4.4,4.2-7.7,5.4-12.8c0-0.1,0.1-0.1,0.1-0.2
	c0.9-3,2.3-6.8,2.4-10.9c0.2-2.4,0.2-4.9-0.1-7.2c0.1-2.8,0-5.8,0.1-8.7c-3.7-5.3-7-11.1-8.7-16.2c-2.2-5.5-5-11.3-5.6-17.4
	c-0.7-7,0.8-15.2,3.2-23c0.8-2.7,1.8-5.3,2.6-7.6c3-7.6,6.3-13.8,9-17.1c0,0,0.1-0.1,0.1-0.1c0,0,0.1-0.1,0.1-0.1
	c0.9-1.1,1.8-2.2,2.8-3.3c1.1-1.2,2.4-2.4,3.8-3.5c0.3-0.3,0.6-0.4,0.9-0.8c0,0,0,0,0.1,0c3.8-3.9,6.4-9.7,10.5-14.4
	c4.3-5,8.7-9.5,13.7-13.3c0.3-2.3,0.7-4.5,1.2-6.7c0.3-1.3,0.7-2.6,1.2-3.9c0.3-0.9,0.6-1.7,0.9-2.5c0.1-0.6,0.1-1.3,0.1-2
	c0-1,0.1-2.1,0-3.1c0-5.4-1.4-10.2-1.4-15.6c-0.1-4.6,1-9,2.3-13.4c0-2.3,0-4.5-0.1-6.5c-0.1-1-0.1-2.1-0.2-3
	c-0.1-1.9-0.3-3.6-0.5-5.1c0,0,0-0.2,0-0.2s0-0.2,0-0.2c-0.5-4.6-0.7-9.2,0.1-13.7c0.7-4.2,1.7-7.6,2.6-11.3
	c0.4-1.7,0.8-3.5,1.2-5.3c1.9-8.6,5.4-16.7,9.9-24.1c3.1-5.1,7.1-8.5,11-11.1c3.2-3.9,7.4-7.9,12.5-12.4c4-3.6,8-7.2,12.9-10.3
	c2.9-1.9,6.3-3.8,10.4-5.6C393.9,209.3,403.1,206.5,414.8,205.7"/>
<path id="line-18" class="st0" d="M413.3,195.1C413.3,195.1,413.3,195.1,413.3,195.1C413.3,195.1,413.3,195.1,413.3,195.1
	c1.2-0.1,2.4-0.1,3.6-0.1c0.3,0,0.6,0,0.9,0l0,0c1.4,0,2.6,0,3.7,0.1c6.2,0.2,11.3,1,14.8,1.5c0.2,0,0.5,0.1,0.8,0.1
	c5,0.2,9.9,0.7,14.7,1.4c0.1,0,0.2,0,0.3,0c0.1,0,0.3,0,0.4,0.1c3.5,0.6,6.9,1.4,10.2,2.4c8.1,2.5,15.7,6.2,23.3,11.4
	c8.2,5.7,18.8,9.8,31.8,14.7c1.1,0.4,2.1,0.8,3.2,1.2c7.1,2.6,14.2,5.3,21.2,8c11.1,4.3,22.1,8.9,32.9,13.4
	c4.4,1.8,8.9,3.7,13.3,5.6c0.4,0.2,1.2,0.5,1.8,0.7c5.6,2.2,13.3,5,21.4,9.6c6.5,3.7,12.7,8.1,17.9,13.1c3.8,3.7,7,7.7,9.4,12.3
	c2.1,4,3.5,7.5,5.2,11.7c0.4,1,0.8,1.9,1.2,2.9c0,0,0,0.1,0,0.1c5.4,10.2,7.1,21.3,6.1,32.9c-1,12.1-5,24-11,35.5
	c-2.1,3.9-4.3,7.6-6.5,11c-4.9,7.6-10,14.1-14.2,19.7c-0.9,1.2-2,2.7-2.8,3.7c0,0.1-0.6,0.9-0.6,1c-0.8,1.8-2.2,5.5-3.2,8.1
	c-1,2.5-2,5.1-3.1,7.9c0,0-0.1,0.2-0.1,0.2s-0.1,0.2-0.1,0.2c-4.4,10.6-10.7,21.8-18,31.4c-2.1,2.8-4.3,5.5-6.6,8
	c-7.7,8.3-15.3,15.5-23,21.9c-0.1,0.1-1,0.8-1,0.9c-0.1,0.1-1,0.8-1.1,0.8c-9.1,7-13,11.6-19.2,21.8c-0.1,0.1-0.7,1.2-0.8,1.3
	c-0.1,0.1-0.8,1.2-0.9,1.3c-5.3,7.7-11,13.3-14.8,17.7c-0.2,0.3-0.5,0.6-0.8,0.9c-0.3,0.5-0.7,1.1-1,1.6c0.9,3,1.6,6.1,2.2,9.4l0,0
	c0.5,2.9,0.9,5.8,1.2,8.7c1,10,1.3,19.2-0.8,26.6c-0.1,0.5-0.2,1-0.4,1.5c0.9,4.4,0.9,9.2,1.9,15.5c0.5,4.1,1.7,8.7,2.9,13.1
	c0,0,0,0.1,0,0.1c0,0,0,0.1,0,0.1c0.3,1,0.6,2,0.9,2.9c2.9,10,5.8,17.7,4.1,28.6c-0.7,4.1-2.3,8.5-4.1,12.4c-0.4,1-0.8,1.8-1.2,2.7
	c-1.1,2.4-2.2,4.2-3,6.8c-2.1,4.9-5.5,9.7-8.2,13.9c-2.4,4-4.6,6.6-7.9,10.5c-9.9,9.1-22.6,13.1-32,15.7c-1,0.3-2.3,0.6-2.9,0.8
	c-4.2,1.3-8.3,2.4-12.1,3.4c-14.3,3.5-27.1,4.2-38.4,4.7c-2.1,0.1-4.1,0.2-6,0.3c-1.4,0.2-4,0.8-6.1,1.2c-0.5,0.1-1.1,0.2-1.7,0.3
	c-8.2,1.6-18.2,4.1-29.8,5c-0.7,0.1-1.4,0.1-2.2,0.2c-3.2,0.3-7.4,0.6-11.9,0.7c-1,0-2,0-3,0c-4.9,0-9.8-0.3-14.6-0.8
	c-2.6-0.3-5.1-0.7-7.6-1.2c-6.6-1.3-12.9-3.3-18.4-6.2c-6.1-3.3-10.4-8-15.7-12.4c-0.6-0.5-1.2-1-1.8-1.5c0,0-0.1-0.1-0.1-0.1
	c0,0-0.1-0.1-0.1-0.1c-5.7-4.7-11.1-9.4-15.4-15.5c-4.3-3.2-8.3-6.9-12-11.6c-0.7-0.9-1.3-1.8-2-2.7c-2.9-4.7-4.3-7.8-6.1-12.3
	c-2.6-5.7-5.7-12-7.4-18.3c-1.5-6.2-1.6-12-2.1-18.4c-0.1-2-0.3-4.1-0.5-6.3c0,0,0-0.1,0-0.1s0-0.1,0-0.1c-0.6-7.4-0.8-15,0.1-21.8
	c0.5-4,1.3-8,2.3-12c0-5,0.4-10.7,1.6-16.7c0,0,0-0.2,0-0.2c0,0,0-0.2,0-0.2c1.5-7.5,4.1-14.1,7.1-19.4c0.3-2.5,0.8-5.3,1.4-8.1
	c0.3-1.1,0.6-2.2,0.8-3.2c0,0,0-0.1,0-0.1c0.7-4.7,4.1-8.3,5.3-13.7c0-0.1,0.1-0.1,0.1-0.2c0.9-3.1,2.3-7.1,2.4-11.3
	c0.2-2.6,0.3-5.1,0-7.6c0.1-3,0.2-6.1,0.3-9.1c-3.8-5.5-7.2-11.6-8.9-17c-2.2-5.8-5-11.8-5.6-18.2c-0.7-7.3,0.9-15.8,3.3-23.9
	c0.9-2.8,1.8-5.5,2.7-7.9c3.1-7.9,6.5-14.4,9.2-17.8c0,0,0.1-0.1,0.1-0.2c0,0,0.1-0.1,0.1-0.2c0.9-1.2,1.8-2.3,2.9-3.5
	c1.2-1.3,2.4-2.6,3.9-3.8c0.3-0.3,0.6-0.5,0.9-0.8c0,0,0,0,0.1,0c3.8-4,6.7-10.1,10.9-14.9c4.5-5.1,9.2-9.8,14.4-13.8
	c0.3-2.4,0.7-4.7,1.2-7c0.3-1.4,0.7-2.7,1.2-4.1c0.3-0.9,0.6-1.8,0.9-2.6c0-0.7,0.1-1.4,0.1-2.1c0-1.1,0-2.1,0-3.2
	c-0.1-5.7-1.4-10.7-1.4-16.2c0-4.8,1.1-9.4,2.4-13.9c0-2.4,0-4.7-0.1-6.8c-0.1-1.1-0.1-2.1-0.2-3.2c-0.1-1.9-0.3-3.8-0.5-5.3
	c0,0,0-0.2,0-0.2s0-0.2,0-0.2c-0.5-4.8-0.7-9.5,0.1-14.3c0.7-4.3,1.8-7.9,2.7-11.8c0.4-1.8,0.8-3.6,1.2-5.5c2-8.9,5.8-17.3,10.5-25
	c3.4-5.3,7.5-8.9,11.6-11.6c3.3-4.1,7.7-8.3,13-13c4.2-3.8,8.4-7.5,13.5-10.7c3-2,6.6-4,10.9-5.8C391.3,198.9,401,196,413.3,195.1"
	/>
<path id="line-19" class="st0" d="M411.7,184.6C411.7,184.6,411.7,184.6,411.7,184.6C411.7,184.6,411.7,184.6,411.7,184.6
	c1.3-0.1,2.5-0.1,3.8-0.1c0.3,0,0.6,0,0.9,0l0,0c1.4,0,2.7,0.1,3.8,0.1c6.5,0.2,11.8,1,15.5,1.6c0.3,0,0.6,0.1,0.8,0.1
	c5.2,0.2,10.3,0.7,15.4,1.5c0.1,0,0.2,0,0.3,0c0.1,0,0.3,0,0.4,0.1c3.6,0.6,7.2,1.4,10.6,2.5c8.5,2.6,16.4,6.5,24.3,12
	c8.5,5.9,19.5,10.2,33,15.2c1.1,0.4,2.2,0.8,3.3,1.2c7.4,2.7,14.7,5.5,22,8.3c11.6,4.5,22.9,9.2,34.1,13.9c4.6,1.9,9.3,3.9,13.8,5.8
	c0.4,0.2,1.2,0.5,1.9,0.7c5.8,2.2,13.7,5.2,22.2,10c6.8,3.9,13.3,8.5,18.7,13.8c3.9,3.9,7.3,8.1,9.8,12.8c2.2,4.1,3.7,7.8,5.4,12.2
	c0.4,1,0.8,2,1.2,3c0,0,0,0.1,0,0.1c5.6,10.6,7.5,22.3,6.5,34.3c-0.9,12.6-5,25.1-11.3,37.1c-2.2,4.1-4.5,8-6.7,11.5
	c-5.1,7.9-10.5,14.8-14.8,20.5c-1,1.2-2.2,2.8-3,3.9c0,0.1-0.6,0.9-0.6,1c-0.9,1.9-2.3,5.7-3.4,8.5c-1,2.6-2,5.4-3.2,8.2
	c0,0-0.1,0.2-0.1,0.2c0,0-0.1,0.2-0.1,0.2c-4.6,11.1-11.1,22.6-18.7,32.6c-2.2,2.9-4.5,5.7-6.8,8.3c-7.9,8.6-15.8,16.1-23.9,22.8
	c-0.1,0.1-1,0.8-1.1,0.9c-0.1,0.1-1,0.8-1.1,0.9c-9.5,7.2-13.6,12-20,22.6c-0.1,0.1-0.8,1.3-0.9,1.4c-0.1,0.1-0.8,1.2-0.9,1.3
	c-5.5,8-11.5,13.8-15.4,18.4c-0.2,0.3-0.5,0.6-0.8,0.9c-0.4,0.6-0.7,1.1-1.1,1.7c1,3.1,1.8,6.4,2.4,9.7l0,0c0.6,3,1,6.1,1.4,9
	c1.2,10.4,1.5,20-0.6,27.7c-0.1,0.5-0.2,1.1-0.4,1.6c1.1,4.6,1.3,9.6,2.3,16.2c0.5,4.2,1.8,9,3,13.6c0,0,0,0.1,0,0.1s0,0.1,0,0.1
	c0.3,1,0.6,2.1,0.9,3c2.9,10.5,5.6,18.7,3.7,30c-0.8,4.2-2.5,8.8-4.3,12.8c-0.4,1-0.9,1.9-1.3,2.8c-1.2,2.5-2.3,4.4-3.2,7.1
	c-2.3,5-5.8,10-8.8,14.3c-2.6,4.1-5,6.8-8.5,10.9c-10.5,9.4-23.7,13.5-33.4,16.1c-1,0.3-2.4,0.7-3,0.8c-4.4,1.4-8.6,2.5-12.6,3.5
	c-14.9,3.7-28.3,4.3-40,4.9c-2.2,0.1-4.2,0.2-6.2,0.3c-1.4,0.2-4.2,0.8-6.4,1.3c-0.6,0.1-1.2,0.2-1.7,0.4c-8.5,1.7-18.9,4.3-31,5.2
	c-0.7,0.1-1.5,0.1-2.2,0.2c-3.3,0.3-7.6,0.6-12.4,0.7c-1,0-2.1,0-3.1,0c-5.2-0.1-10.2-0.3-15.2-0.9c-2.7-0.3-5.3-0.7-7.9-1.2
	c-6.9-1.3-13.4-3.4-19.1-6.5c-6.4-3.4-10.9-8.2-16.5-12.8c-0.6-0.5-1.2-1-1.8-1.5c0,0-0.1-0.1-0.1-0.1c0,0-0.1-0.1-0.1-0.1
	c-5.9-4.9-11.5-9.8-16-16.3c-4.4-3.3-8.7-7.1-12.5-12c-0.7-0.9-1.4-1.9-2.1-2.8c-3-4.8-4.6-8.1-6.5-12.8c-2.7-5.9-6.1-12.5-7.8-18.9
	c-1.6-6.4-1.9-12.4-2.4-19.1c-0.2-2.1-0.4-4.3-0.5-6.5c0,0,0-0.1,0-0.1s0-0.1,0-0.1c-0.6-7.7-0.8-15.5,0.1-22.7
	c0.5-4.2,1.3-8.3,2.4-12.4c0-5.2,0.4-11.1,1.6-17.3c0,0,0-0.2,0-0.2s0-0.2,0-0.2c1.6-7.8,4.2-14.7,7.3-20.1c0.3-2.6,0.7-5.6,1.3-8.5
	c0.3-1.2,0.5-2.3,0.8-3.4c0,0,0-0.1,0-0.1c0.6-4.9,4-9,5.2-14.7c0-0.1,0.1-0.1,0.1-0.2c0.9-3.3,2.3-7.4,2.5-11.8
	c0.2-2.7,0.3-5.3,0.1-7.9c0.2-3.1,0.3-6.4,0.5-9.6c-3.9-5.7-7.3-12-9.1-17.7c-2.2-6.1-5-12.4-5.5-19c-0.6-7.6,0.9-16.4,3.5-24.8
	c0.9-2.9,1.9-5.7,2.8-8.2c3.2-8.2,6.7-15,9.5-18.6c0,0,0.1-0.2,0.1-0.2c0,0,0.1-0.2,0.1-0.2c0.9-1.2,1.9-2.5,3-3.7
	c1.2-1.4,2.5-2.7,4-4c0.3-0.3,0.6-0.5,1-0.9c0,0,0,0,0.1-0.1c3.9-4.2,6.9-10.4,11.4-15.4c4.7-5.3,9.6-10.2,15.1-14.2
	c0.3-2.5,0.7-4.9,1.2-7.3c0.3-1.4,0.7-2.8,1.2-4.2c0.3-0.9,0.6-1.9,0.9-2.8c0-0.7,0.1-1.4,0-2.2c0-1.1,0-2.2,0-3.4
	c-0.1-5.9-1.3-11.1-1.4-16.9c0-4.9,1.2-9.7,2.5-14.5c0-2.5,0-4.8-0.1-7.1c-0.1-1.1-0.1-2.2-0.2-3.3c-0.1-2-0.3-3.9-0.5-5.5
	c0,0,0-0.2,0-0.3c0,0,0-0.2,0-0.3c-0.5-5-0.7-9.9,0.1-14.9c0.7-4.5,1.8-8.2,2.8-12.2c0.5-1.9,0.9-3.8,1.3-5.8
	c2.2-9.3,6.2-18,11.2-25.9c3.6-5.5,7.9-9.2,12.1-12c3.4-4.3,8-8.7,13.5-13.7c4.3-3.9,8.8-7.7,14.2-11.1c3.2-2,6.9-4.1,11.4-6
	C388.8,188.4,398.9,185.5,411.7,184.6"/>
<path id="line-20" class="st0" d="M410.1,174C410.1,174,410.2,174,410.1,174C410.2,174,410.2,174,410.1,174c1.3-0.1,2.6-0.1,3.9-0.1
	c0.3,0,0.6,0,1,0l0,0c1.5,0,2.9,0.1,4,0.1c6.8,0.2,12.4,1.1,16.1,1.6c0.3,0,0.6,0.1,0.9,0.1c5.4,0.2,10.8,0.7,16.1,1.6
	c0.1,0,0.2,0,0.3,0.1c0.1,0,0.3,0.1,0.5,0.1c3.8,0.6,7.5,1.5,11.1,2.6c8.9,2.7,17.1,6.8,25.4,12.5c8.7,6,20.2,10.5,34.2,15.7
	c1.1,0.4,2.3,0.9,3.4,1.3c7.6,2.8,15.3,5.7,22.8,8.6c12,4.7,23.8,9.6,35.3,14.4c4.7,2,9.6,4,14.3,6c0.4,0.2,1.3,0.5,2,0.7
	c6,2.3,14.2,5.4,23,10.4c7.1,4.1,13.8,8.8,19.4,14.4c4.1,4,7.5,8.4,10.2,13.4c2.3,4.3,3.8,8.2,5.7,12.7c0.4,1,0.9,2.1,1.2,3.2
	c0,0,0,0.1,0,0.1c5.9,11.1,7.9,23.2,6.9,35.7c-0.9,13.2-5,26.2-11.5,38.7c-2.3,4.3-4.7,8.3-7,12c-5.4,8.3-11,15.4-15.5,21.3
	c-1,1.3-2.3,2.9-3.1,4c0,0.1-0.6,1-0.6,1c-0.9,2-2.4,6-3.5,8.8c-1,2.8-2.1,5.6-3.3,8.5c0,0-0.1,0.2-0.1,0.2s-0.1,0.2-0.1,0.2
	c-4.8,11.5-11.5,23.4-19.3,33.8c-2.3,3-4.6,5.9-7.1,8.7c-8.1,8.9-16.3,16.7-24.7,23.6c-0.1,0.1-1.1,0.9-1.1,0.9
	c-0.1,0.1-1.1,0.8-1.2,0.9c-9.9,7.5-14.1,12.4-20.8,23.4c-0.1,0.1-0.8,1.3-0.9,1.4c-0.1,0.1-0.9,1.3-0.9,1.4
	c-5.7,8.3-11.9,14.4-16,19.1c-0.3,0.3-0.5,0.6-0.8,0.9c-0.4,0.6-0.7,1.2-1.1,1.7c1.1,3.2,1.9,6.6,2.7,10.1l0,0
	c0.7,3.1,1.2,6.3,1.5,9.3c1.4,10.7,1.7,20.8-0.3,28.7c-0.1,0.6-0.2,1.1-0.4,1.6c1.2,4.8,1.6,10.1,2.8,16.9c0.6,4.4,1.9,9.3,3.1,14.1
	c0,0,0,0.1,0,0.1s0,0.1,0,0.1c0.3,1.1,0.6,2.1,0.9,3.2c2.8,10.9,5.4,19.8,3.2,31.4c-0.9,4.4-2.6,9.1-4.6,13.3c-0.4,1-0.9,2-1.4,2.8
	c-1.2,2.5-2.4,4.6-3.4,7.3c-2.5,5.2-6.1,10.3-9.3,14.8c-2.8,4.2-5.4,7.1-9.2,11.2c-11.1,9.7-24.9,13.9-34.8,16.6
	c-1.1,0.3-2.5,0.7-3.1,0.9c-4.5,1.4-9,2.6-13.1,3.6c-15.5,3.8-29.4,4.5-41.5,5c-2.2,0.1-4.4,0.2-6.5,0.3c-1.5,0.2-4.4,0.8-6.6,1.3
	c-0.6,0.1-1.2,0.3-1.8,0.4c-8.8,1.8-19.6,4.5-32.2,5.3c-0.8,0.1-1.5,0.1-2.3,0.2c-3.5,0.3-7.9,0.6-12.9,0.7c-1.1,0-2.2,0-3.2,0
	c-5.4-0.1-10.6-0.3-15.8-0.9c-2.8-0.3-5.5-0.7-8.2-1.3c-7.1-1.4-13.9-3.6-19.9-6.7c-6.7-3.5-11.5-8.4-17.2-13.2
	c-0.6-0.5-1.3-1.1-1.9-1.6c0,0-0.1-0.1-0.1-0.1c0,0-0.1-0.1-0.1-0.1c-6.2-5.1-11.9-10.3-16.5-17c-4.6-3.4-9-7.3-13-12.4
	c-0.8-0.9-1.5-1.9-2.2-2.9c-3.2-4.9-5-8.4-7-13.2c-2.9-6.1-6.4-12.9-8.2-19.6c-1.8-6.7-2.1-12.9-2.7-19.9c-0.2-2.2-0.4-4.4-0.6-6.7
	c0,0,0-0.1,0-0.1s0-0.1,0-0.1c-0.6-7.9-0.8-16.1,0.2-23.5c0.6-4.3,1.4-8.6,2.6-12.9c0-5.4,0.4-11.5,1.6-17.9c0,0,0-0.2,0-0.2
	c0,0,0-0.2,0-0.2c1.6-8.1,4.3-15.2,7.5-20.9c0.2-2.7,0.7-5.8,1.2-8.9c0.3-1.2,0.5-2.4,0.8-3.6c0,0,0-0.1,0-0.1
	c0.6-5.2,3.9-9.6,5.1-15.6c0-0.1,0.1-0.1,0.1-0.2c0.9-3.5,2.3-7.8,2.5-12.2c0.3-2.8,0.4-5.5,0.3-8.2c0.2-3.3,0.4-6.6,0.7-10
	c-4-6-7.4-12.5-9.3-18.4c-2.3-6.3-5-12.9-5.5-19.9c-0.6-7.9,1-17,3.6-25.7c0.9-3,1.9-5.9,2.9-8.5c3.3-8.5,7-15.6,9.8-19.3
	c0,0,0.1-0.2,0.1-0.2c0,0,0.1-0.2,0.1-0.2c0.9-1.3,1.9-2.6,3.1-3.9c1.2-1.4,2.6-2.9,4.1-4.3c0.3-0.3,0.7-0.6,1-0.9c0,0,0,0,0.1-0.1
	c4-4.4,7.2-10.8,11.9-16c4.9-5.5,10-10.5,15.7-14.7c0.3-2.5,0.6-5.1,1.2-7.6c0.3-1.5,0.7-3,1.2-4.4c0.3-1,0.6-1.9,0.9-2.9
	c0-0.7,0-1.5,0-2.3c0-1.1,0-2.3-0.1-3.5c-0.2-6.1-1.3-11.6-1.3-17.5c0-5.1,1.2-10.1,2.6-15c0-2.6,0-5-0.2-7.3
	c-0.1-1.2-0.1-2.3-0.2-3.4c-0.1-2.1-0.3-4.1-0.5-5.7c0,0,0-0.2,0-0.3s0-0.2,0-0.3c-0.5-5.2-0.7-10.3,0.1-15.4
	c0.7-4.6,1.8-8.5,2.8-12.7c0.5-1.9,0.9-3.9,1.4-6c2.4-9.6,6.6-18.6,11.9-26.8c3.8-5.7,8.3-9.6,12.7-12.5c3.6-4.5,8.3-9.1,14-14.3
	c4.5-4.1,9.2-8,14.9-11.5c3.4-2.1,7.2-4.2,11.9-6.2C386.2,178,396.8,174.9,410.1,174"/>
<path id="line-21" class="st0" d="M408.6,163.4C408.6,163.4,408.6,163.4,408.6,163.4C408.6,163.4,408.6,163.4,408.6,163.4
	c1.4-0.1,2.7-0.1,4.1-0.1c0.3,0,0.7,0,1,0l0,0c1.6,0,3,0.1,4.2,0.1c7.1,0.2,12.9,1.1,16.8,1.7c0.3,0,0.6,0.1,0.9,0.1
	c5.7,0.2,11.2,0.7,16.7,1.6c0.1,0,0.2,0,0.3,0.1c0.1,0,0.3,0.1,0.5,0.1c3.9,0.7,7.8,1.6,11.6,2.8c9.2,2.9,17.8,7.1,26.5,13.1
	c9,6.2,20.9,10.8,35.4,16.2c1.2,0.4,2.4,0.9,3.6,1.3c7.9,2.9,15.8,5.9,23.6,8.9c12.4,4.8,24.6,9.9,36.6,14.9c4.9,2,9.9,4.2,14.8,6.2
	c0.4,0.2,1.3,0.5,2,0.8c6.2,2.3,14.7,5.5,23.8,10.7c7.4,4.3,14.3,9.2,20.1,15.1c4.2,4.2,7.8,8.8,10.6,13.9c2.4,4.4,4,8.5,5.9,13.3
	c0.5,1.1,0.9,2.2,1.3,3.3c0,0,0,0.1,0,0.1c6.1,11.5,8.3,24.1,7.4,37.2c-0.8,13.7-5.1,27.3-11.8,40.4c-2.3,4.5-4.8,8.6-7.3,12.5
	c-5.6,8.6-11.4,16-16.2,22.1c-1,1.3-2.4,3-3.2,4.2c0,0.1-0.7,1-0.7,1.1c-0.9,2-2.5,6.2-3.6,9.2c-1.1,2.9-2.2,5.8-3.5,8.9
	c0,0-0.1,0.2-0.1,0.2c0,0-0.1,0.2-0.1,0.2c-4.9,11.9-11.9,24.2-19.9,35c-2.4,3.2-4.8,6.2-7.3,9c-8.4,9.3-16.8,17.4-25.5,24.5
	c-0.1,0.1-1.1,0.9-1.2,1c-0.1,0.1-1.1,0.9-1.2,0.9c-10.3,7.8-14.6,12.8-21.5,24.1c-0.1,0.1-0.8,1.4-0.9,1.5c-0.1,0.1-0.9,1.3-1,1.4
	c-5.9,8.6-12.3,14.9-16.5,19.8c-0.3,0.3-0.6,0.6-0.9,1c-0.4,0.6-0.8,1.2-1.1,1.8c1.1,3.3,2.1,6.8,2.9,10.4l0,0
	c0.7,3.3,1.3,6.5,1.7,9.7c1.5,11.1,1.9,21.5-0.1,29.8c-0.1,0.6-0.2,1.1-0.4,1.7c1.4,5,1.9,10.5,3.2,17.6c0.7,4.5,2,9.6,3.2,14.6
	c0,0,0,0.1,0,0.2s0,0.1,0,0.2c0.3,1.1,0.6,2.2,0.9,3.3c2.8,11.4,5.2,20.8,2.8,32.9c-1,4.5-2.8,9.4-4.8,13.7c-0.5,1-0.9,2-1.4,2.9
	c-1.3,2.6-2.6,4.7-3.6,7.5c-2.6,5.4-6.5,10.6-9.9,15.2c-3,4.4-5.8,7.3-9.8,11.5c-11.7,10-26,14.2-36.2,17.1
	c-1.1,0.3-2.6,0.7-3.3,0.9c-4.7,1.5-9.3,2.7-13.6,3.8c-16,3.9-30.5,4.6-43.1,5.2c-2.3,0.1-4.6,0.2-6.7,0.3c-1.5,0.2-4.5,0.9-6.9,1.4
	c-0.6,0.1-1.2,0.3-1.9,0.4c-9.1,1.9-20.3,4.6-33.4,5.5c-0.8,0.1-1.6,0.1-2.4,0.2c-3.6,0.3-8.2,0.6-13.4,0.7c-1.1,0-2.2,0-3.3,0
	c-5.6-0.1-11-0.3-16.3-1c-2.9-0.3-5.7-0.8-8.5-1.3c-7.4-1.5-14.4-3.7-20.6-6.9c-6.9-3.6-12-8.6-18-13.6c-0.7-0.5-1.3-1.1-2-1.6
	c0,0-0.1-0.1-0.2-0.1s-0.1-0.1-0.2-0.1c-6.4-5.3-12.3-10.7-17.1-17.7c-4.7-3.5-9.3-7.6-13.6-12.7c-0.8-1-1.6-2-2.3-3
	c-3.4-5-5.3-8.7-7.5-13.6c-3.1-6.3-6.7-13.3-8.6-20.2c-1.9-6.9-2.3-13.4-3-20.6c-0.2-2.3-0.4-4.6-0.6-7c0,0,0-0.1,0-0.1
	c0,0,0-0.1,0-0.1c-0.7-8.2-0.8-16.6,0.2-24.3c0.6-4.5,1.5-8.9,2.7-13.3c0-5.6,0.4-11.8,1.7-18.5c0,0,0-0.2,0-0.2s0-0.2,0-0.2
	c1.7-8.4,4.5-15.8,7.7-21.6c0.2-2.8,0.6-6,1.2-9.2c0.2-1.3,0.5-2.5,0.8-3.7c0,0,0-0.1,0-0.1c0.6-5.5,3.7-10.2,5-16.6
	c0-0.1,0.1-0.1,0.1-0.2c0.9-3.6,2.3-8.1,2.6-12.7c0.3-2.9,0.5-5.7,0.4-8.5c0.3-3.4,0.6-6.9,0.9-10.4c-4.1-6.2-7.6-12.9-9.5-19.2
	c-2.3-6.6-5-13.5-5.5-20.7c-0.6-8.2,1.1-17.6,3.8-26.7c0.9-3.1,2-6.1,3-8.8c3.4-8.9,7.2-16.2,10.1-20c0,0,0.1-0.2,0.1-0.2
	c0,0,0.1-0.2,0.1-0.2c0.9-1.3,2-2.7,3.1-4.1c1.3-1.5,2.6-3,4.2-4.5c0.3-0.3,0.7-0.6,1-1c0,0,0,0,0.1-0.1c4.1-4.6,7.5-11.1,12.3-16.5
	c5.1-5.7,10.5-10.8,16.4-15.1c0.2-2.6,0.6-5.3,1.2-7.9c0.3-1.6,0.7-3.1,1.2-4.6c0.3-1,0.6-2,0.9-3c0-0.8,0-1.6,0-2.4
	c0-1.2,0-2.4-0.1-3.6c-0.2-6.3-1.3-12-1.3-18.2c0.1-5.3,1.3-10.5,2.7-15.6c0-2.7-0.1-5.2-0.2-7.6c-0.1-1.2-0.1-2.4-0.2-3.5
	c-0.1-2.2-0.3-4.3-0.5-5.9c0,0,0-0.3,0-0.3s0-0.3,0-0.3c-0.5-5.4-0.7-10.7,0.1-16c0.8-4.8,1.9-8.8,2.9-13.2c0.5-2,1-4.1,1.5-6.2
	c2.5-10,6.9-19.3,12.5-27.7c4-5.8,8.7-9.9,13.3-13c3.7-4.7,8.6-9.6,14.6-14.9c4.7-4.2,9.6-8.3,15.5-11.9c3.5-2.2,7.5-4.4,12.4-6.4
	C383.6,167.6,394.6,164.4,408.6,163.4"/>
<path id="line-22" class="st0" d="M407,152.9C407,152.9,407,152.9,407,152.9C407,152.9,407.1,152.9,407,152.9
	c1.4-0.1,2.8-0.1,4.3-0.1c0.3,0,0.7,0,1,0l0,0c1.6,0,3.1,0.1,4.3,0.1c7.4,0.2,13.5,1.2,17.5,1.8c0.3,0,0.6,0.1,0.9,0.1
	c5.9,0.2,11.7,0.8,17.4,1.7c0.1,0,0.2,0,0.3,0.1c0.1,0,0.4,0.1,0.5,0.1c4.1,0.7,8.1,1.7,12,2.9c9.6,3,18.6,7.4,27.6,13.6
	c9.3,6.4,21.5,11.1,36.6,16.7c1.2,0.5,2.4,0.9,3.7,1.4c8.2,3,16.3,6.1,24.4,9.2c12.8,5,25.4,10.2,37.8,15.4
	c5.1,2.1,10.3,4.3,15.3,6.4c0.5,0.2,1.4,0.5,2.1,0.8c6.3,2.4,15.1,5.7,24.6,11.1c7.7,4.4,14.9,9.6,20.9,15.7
	c4.4,4.4,8.1,9.2,11,14.5c2.5,4.6,4.2,8.8,6.2,13.8c0.5,1.1,0.9,2.3,1.3,3.4c0,0,0,0.1,0,0.1c6.3,11.9,8.7,25.1,7.8,38.6
	c-0.8,14.3-5.1,28.4-12.1,42c-2.4,4.6-5,9-7.5,13c-5.8,8.9-11.9,16.6-16.9,23c-1.1,1.4-2.5,3.1-3.4,4.3c0,0.1-0.7,1.1-0.7,1.1
	c-1,2.1-2.6,6.4-3.8,9.5c-1.1,3-2.3,6-3.6,9.2c0,0-0.1,0.2-0.1,0.2c0,0-0.1,0.2-0.1,0.2c-5.1,12.3-12.3,25-20.6,36.2
	c-2.4,3.3-4.9,6.4-7.5,9.3c-8.6,9.6-17.4,18-26.4,25.3c-0.1,0.1-1.2,0.9-1.2,1c-0.1,0.1-1.2,0.9-1.2,1c-10.7,8-15.1,13.2-22.3,24.9
	c-0.1,0.1-0.9,1.4-0.9,1.5s-0.9,1.4-1,1.5c-6.1,9-12.7,15.5-17.1,20.5c-0.3,0.3-0.6,0.7-0.9,1c-0.4,0.6-0.8,1.2-1.2,1.8
	c1.2,3.5,2.3,7.1,3.2,10.8l0,0c0.8,3.4,1.4,6.7,1.9,10c1.7,11.5,2.1,22.3,0.1,30.8c-0.1,0.6-0.2,1.2-0.4,1.8
	c1.6,5.1,2.3,10.9,3.7,18.3c0.7,4.7,2.1,9.9,3.3,15.1c0,0,0,0.2,0,0.2c0,0,0,0.2,0,0.2c0.3,1.2,0.6,2.3,0.9,3.4
	c2.8,11.9,4.9,21.8,2.4,34.3c-1.1,4.7-2.9,9.7-5.1,14.2c-0.5,1.1-1,2.1-1.5,3c-1.4,2.7-2.7,4.9-3.8,7.8c-2.8,5.5-6.8,10.9-10.4,15.7
	c-3.2,4.5-6.3,7.6-10.5,11.8c-12.3,10.2-27.1,14.6-37.7,17.6c-1.2,0.3-2.7,0.7-3.4,0.9c-4.9,1.5-9.6,2.8-14.1,3.9
	c-16.6,4-31.6,4.8-44.6,5.4c-2.4,0.1-4.7,0.2-6.9,0.3c-1.5,0.2-4.7,0.9-7.1,1.5c-0.6,0.1-1.3,0.3-1.9,0.4c-9.4,2-21,4.8-34.6,5.7
	c-0.8,0.1-1.6,0.1-2.5,0.2c-3.7,0.3-8.5,0.7-13.9,0.7c-1.2,0-2.3,0-3.5,0c-5.8-0.1-11.4-0.4-16.9-1c-3-0.4-5.9-0.8-8.8-1.4
	c-7.6-1.5-14.9-3.9-21.4-7.2c-7.2-3.7-12.6-8.8-18.7-13.9c-0.7-0.6-1.4-1.1-2-1.7c0,0-0.1-0.1-0.2-0.1s-0.1-0.1-0.2-0.1
	c-6.6-5.5-12.7-11.2-17.6-18.4c-4.9-3.6-9.7-7.8-14.1-13.1c-0.8-1-1.6-2-2.4-3.1c-3.5-5.2-5.6-8.9-7.9-14.1
	c-3.3-6.5-7-13.7-9.1-20.9c-2-7.1-2.6-13.8-3.3-21.3c-0.2-2.3-0.5-4.7-0.7-7.2c0,0,0-0.1,0-0.1s0-0.1,0-0.1
	c-0.7-8.5-0.9-17.1,0.2-25.1c0.6-4.6,1.6-9.2,2.8-13.8c0-5.7,0.4-12.2,1.7-19.2c0,0,0-0.2,0-0.2s0-0.2,0-0.2
	c1.7-8.7,4.6-16.3,7.9-22.4c0.2-2.9,0.6-6.2,1.1-9.6c0.2-1.3,0.5-2.6,0.7-3.9c0,0,0-0.1,0-0.1c0.6-5.7,3.6-10.8,4.9-17.5
	c0-0.1,0.1-0.1,0.1-0.2c0.9-3.8,2.3-8.4,2.6-13.1c0.3-3,0.5-6,0.5-8.8c0.4-3.6,0.7-7.2,1.1-10.8c-4.2-6.4-7.7-13.4-9.7-19.9
	c-2.4-6.9-5-14-5.5-21.5c-0.6-8.5,1.1-18.3,3.9-27.6c1-3.2,2-6.3,3.1-9.1c3.5-9.2,7.4-16.7,10.4-20.8c0,0,0.1-0.2,0.1-0.2
	s0.1-0.2,0.1-0.2c1-1.4,2-2.8,3.2-4.3c1.3-1.6,2.7-3.2,4.3-4.8c0.3-0.4,0.7-0.7,1.1-1.1c0,0,0,0,0.1-0.1c4.2-4.8,7.7-11.5,12.8-17
	c5.3-5.9,10.9-11.2,17.1-15.6c0.2-2.7,0.6-5.5,1.2-8.2c0.3-1.6,0.7-3.2,1.2-4.8c0.3-1.1,0.6-2.1,0.9-3.1c0-0.8,0-1.6,0-2.5
	c0-1.2,0-2.5-0.1-3.7c-0.2-6.5-1.3-12.5-1.2-18.9c0.1-5.5,1.3-10.8,2.8-16.1c-0.1-2.8-0.1-5.4-0.2-7.9c-0.1-1.3-0.1-2.5-0.2-3.6
	c-0.1-2.3-0.3-4.4-0.5-6.1c0,0,0-0.3,0-0.3s0-0.3,0-0.3c-0.5-5.6-0.6-11,0.2-16.5c0.8-4.9,1.9-9.2,3-13.6c0.5-2.1,1-4.2,1.6-6.4
	c2.7-10.3,7.3-19.9,13.2-28.6c4.2-6,9.1-10.2,13.9-13.5c3.8-4.9,8.9-10,15.1-15.5c4.9-4.4,10-8.6,16.2-12.3c3.7-2.2,7.9-4.5,13-6.6
	C381.1,157.2,392.5,153.9,407,152.9"/>
<path id="line-23" class="st0" d="M405.4,142.3C405.4,142.3,405.5,142.3,405.4,142.3C405.5,142.3,405.5,142.3,405.4,142.3
	c1.5-0.1,3-0.1,4.4-0.2c0.4,0,0.7,0,1.1,0l0,0c1.7,0,3.2,0.1,4.5,0.1c7.7,0.2,14,1.2,18.2,1.8c0.3,0,0.7,0.1,1,0.1
	c6.1,0.2,12.2,0.8,18.1,1.8c0.1,0,0.2,0,0.3,0.1c0.2,0,0.4,0.1,0.5,0.1c4.3,0.7,8.4,1.7,12.5,3c10,3.1,19.3,7.7,28.7,14.1
	c9.5,6.6,22.2,11.5,37.8,17.2c1.3,0.5,2.5,0.9,3.8,1.4c8.5,3.1,16.8,6.3,25.2,9.5c13.2,5.2,26.2,10.6,39,15.9
	c5.2,2.2,10.6,4.4,15.8,6.6c0.5,0.2,1.4,0.5,2.2,0.8c6.5,2.5,15.6,5.9,25.4,11.5c8,4.6,15.4,10,21.6,16.4c4.5,4.6,8.4,9.5,11.4,15
	c2.6,4.8,4.4,9.2,6.4,14.3c0.5,1.2,0.9,2.4,1.4,3.6c0,0,0,0.1,0,0.1c6.5,12.4,9,26,8.2,40.1c-0.7,14.8-5.2,29.5-12.4,43.6
	c-2.5,4.8-5.2,9.3-7.8,13.5c-6,9.3-12.4,17.2-17.5,23.8c-1.1,1.4-2.6,3.2-3.5,4.5c0,0.1-0.7,1.1-0.7,1.2c-1,2.2-2.7,6.7-3.9,9.9
	c-1.2,3.1-2.4,6.2-3.7,9.6c0,0-0.1,0.2-0.1,0.3s-0.1,0.2-0.1,0.3c-5.3,12.7-12.7,25.8-21.2,37.4c-2.5,3.4-5.1,6.6-7.7,9.6
	c-8.9,9.9-17.9,18.6-27.2,26.2c-0.1,0.1-1.2,1-1.3,1c-0.1,0.1-1.2,0.9-1.3,1c-11.1,8.3-15.7,13.5-23.1,25.7c-0.1,0.1-0.9,1.5-1,1.6
	c-0.1,0.1-1,1.4-1,1.5c-6.4,9.3-13.1,16.1-17.6,21.2c-0.3,0.3-0.6,0.7-0.9,1c-0.4,0.6-0.8,1.3-1.2,1.9c1.3,3.6,2.5,7.3,3.4,11.1l0,0
	c0.9,3.5,1.5,6.9,2,10.3c1.8,11.9,2.2,23,0.3,31.8c-0.1,0.6-0.2,1.2-0.3,1.8c1.7,5.3,2.6,11.3,4.1,19c0.8,4.8,2.1,10.3,3.4,15.6
	c0,0,0,0.2,0,0.2s0,0.2,0,0.2c0.3,1.2,0.6,2.4,0.8,3.6c2.8,12.4,4.7,22.8,2,35.7c-1.1,4.8-3.1,10-5.3,14.6c-0.5,1.1-1,2.1-1.5,3.1
	c-1.4,2.8-2.8,5.1-4,8c-3,5.7-7.1,11.2-11,16.1c-3.4,4.6-6.7,7.9-11.1,12.2c-12.9,10.5-28.2,15-39.1,18c-1.2,0.3-2.8,0.8-3.5,1
	c-5,1.6-9.9,2.9-14.6,4c-17.2,4.2-32.7,4.9-46.1,5.6c-2.5,0.1-4.9,0.2-7.2,0.3c-1.6,0.2-4.8,1-7.3,1.5c-0.7,0.1-1.3,0.3-2,0.4
	c-9.6,2-21.6,5-35.8,5.9c-0.8,0.1-1.7,0.1-2.6,0.2c-3.8,0.3-8.8,0.7-14.3,0.7c-1.2,0-2.4,0-3.6,0c-6-0.1-11.8-0.4-17.5-1.1
	c-3.1-0.4-6.1-0.9-9.1-1.5c-7.9-1.6-15.4-4-22.1-7.4c-7.4-3.8-13.1-9-19.5-14.3c-0.7-0.6-1.4-1.2-2.1-1.8c0,0-0.2-0.1-0.2-0.1
	s-0.2-0.1-0.2-0.1c-6.8-5.7-13.1-11.6-18.1-19.1c-5-3.7-10-8-14.6-13.5c-0.9-1-1.7-2.1-2.5-3.2c-3.7-5.3-6-9.2-8.4-14.5
	c-3.5-6.7-7.3-14.1-9.5-21.5c-2.1-7.3-2.8-14.3-3.6-22c-0.2-2.4-0.5-4.9-0.7-7.4c0,0,0-0.1,0-0.1s0-0.1,0-0.1
	c-0.7-8.8-0.9-17.7,0.3-25.9c0.7-4.8,1.6-9.5,3-14.2c0-5.9,0.4-12.6,1.8-19.8c0,0,0-0.2,0-0.2c0,0,0-0.2,0.1-0.2
	c1.8-9,4.8-16.9,8.2-23.1c0.2-3,0.5-6.5,1-9.9c0.2-1.4,0.5-2.7,0.7-4.1c0,0,0-0.1,0-0.1c0.6-6,3.5-11.4,4.8-18.4
	c0-0.1,0.1-0.2,0.1-0.2c0.9-4,2.3-8.7,2.6-13.6c0.4-3.1,0.6-6.2,0.6-9.2c0.4-3.7,0.8-7.5,1.3-11.2c-4.3-6.6-7.9-13.9-9.9-20.6
	c-2.4-7.1-5-14.5-5.4-22.3c-0.5-8.8,1.2-18.9,4.1-28.5c1-3.3,2.1-6.5,3.2-9.4c3.6-9.5,7.7-17.3,10.6-21.5c0,0,0.1-0.2,0.1-0.2
	c0,0,0.1-0.2,0.1-0.2c1-1.4,2.1-2.9,3.3-4.5c1.3-1.7,2.8-3.4,4.4-5c0.3-0.4,0.7-0.7,1.1-1.1c0,0,0,0,0.1-0.1c4.3-5,8-11.8,13.3-17.6
	c5.5-6,11.3-11.5,17.7-16c0.2-2.8,0.6-5.7,1.1-8.5c0.3-1.7,0.7-3.3,1.2-5c0.3-1.1,0.6-2.2,0.9-3.2c0-0.8,0-1.7-0.1-2.6
	c0-1.3-0.1-2.6-0.1-3.9c-0.3-6.7-1.3-12.9-1.2-19.5c0.1-5.7,1.4-11.2,2.9-16.7c-0.1-2.9-0.1-5.6-0.2-8.1c-0.1-1.3-0.1-2.6-0.2-3.8
	c-0.1-2.3-0.3-4.6-0.5-6.3c0,0,0-0.3,0-0.3c0,0,0-0.3,0-0.3c-0.5-5.7-0.6-11.4,0.2-17.1c0.8-5.1,1.9-9.5,3-14.1
	c0.5-2.2,1.1-4.3,1.6-6.6c2.8-10.6,7.7-20.6,13.9-29.5c4.4-6.2,9.5-10.6,14.5-13.9c3.9-5.1,9.2-10.4,15.6-16.2
	c5-4.5,10.4-8.9,16.9-12.7c3.8-2.3,8.2-4.7,13.5-6.9C378.5,146.8,390.4,143.3,405.4,142.3"/>
<path id="line-24" class="st0" d="M403.9,131.7C403.9,131.7,403.9,131.7,403.9,131.7C403.9,131.7,403.9,131.7,403.9,131.7
	c1.6-0.1,3.1-0.1,4.6-0.2c0.4,0,0.7,0,1.1,0l0,0c1.8,0,3.3,0.1,4.7,0.1c8,0.2,14.6,1.2,18.9,1.9c0.3,0,0.7,0.1,1,0.2
	c6.4,0.2,12.6,0.8,18.8,1.8c0.1,0,0.3,0,0.4,0.1c0.2,0,0.4,0.1,0.5,0.1c4.4,0.8,8.7,1.8,13,3.1c10.4,3.2,20,8,29.7,14.7
	c9.8,6.8,22.9,11.8,39,17.7c1.3,0.5,2.6,1,3.9,1.5c8.7,3.2,17.4,6.5,26,9.8c13.6,5.3,27,10.9,40.2,16.4c5.4,2.3,10.9,4.6,16.3,6.8
	c0.5,0.2,1.5,0.6,2.2,0.8c6.7,2.5,16.1,6,26.2,11.9c8.3,4.8,15.9,10.4,22.4,17c4.7,4.7,8.6,9.9,11.8,15.6c2.7,4.9,4.6,9.5,6.7,14.8
	c0.5,1.2,1,2.5,1.4,3.7c0,0,0,0.1,0,0.1c6.8,12.8,9.4,26.9,8.7,41.5c-0.7,15.4-5.2,30.6-12.7,45.3c-2.6,5-5.3,9.6-8.1,13.9
	c-6.2,9.6-12.9,17.8-18.2,24.6c-1.2,1.5-2.7,3.3-3.6,4.6c0,0-0.7,1.2-0.8,1.2c-1,2.2-2.8,6.9-4.1,10.2c-1.2,3.2-2.5,6.5-3.9,9.9
	c0,0-0.1,0.3-0.1,0.3s-0.1,0.3-0.1,0.3c-5.4,13.1-13,26.7-21.9,38.6c-2.6,3.5-5.2,6.8-7.9,9.9c-9.1,10.3-18.4,19.2-28,27
	c-0.1,0.1-1.2,1-1.3,1.1s-1.3,0.9-1.3,1c-11.5,8.6-16.2,13.9-23.8,26.5c-0.1,0.1-0.9,1.5-1,1.6c-0.1,0.1-1,1.5-1.1,1.6
	c-6.6,9.6-13.6,16.6-18.2,21.8c-0.3,0.3-0.6,0.7-0.9,1.1c-0.4,0.7-0.8,1.3-1.2,2c1.4,3.7,2.6,7.5,3.7,11.5l0,0
	c0.9,3.6,1.7,7.2,2.2,10.7c2,12.3,2.4,23.8,0.6,32.9c-0.1,0.6-0.2,1.3-0.3,1.9c1.9,5.5,3,11.8,4.5,19.6c0.9,5,2.2,10.6,3.5,16.1
	c0,0,0,0.2,0,0.2s0,0.2,0,0.2c0.3,1.3,0.6,2.5,0.8,3.7c2.7,12.9,4.5,23.9,1.5,37.1c-1.2,5-3.2,10.3-5.6,15c-0.5,1.1-1.1,2.2-1.6,3.2
	c-1.5,2.9-2.9,5.2-4.2,8.2c-3.1,5.9-7.5,11.6-11.5,16.6c-3.5,4.7-7.1,8.1-11.7,12.5c-13.5,10.8-29.3,15.4-40.5,18.5
	c-1.2,0.3-2.9,0.8-3.6,1c-5.2,1.7-10.3,3-15,4.2c-17.8,4.3-33.8,5.1-47.7,5.7c-2.6,0.1-5,0.2-7.4,0.4c-1.6,0.2-5,1-7.6,1.6
	c-0.7,0.2-1.4,0.3-2.1,0.5c-9.9,2.1-22.3,5.1-37,6.1c-0.9,0.1-1.8,0.1-2.7,0.2c-3.9,0.3-9.1,0.7-14.8,0.7c-1.2,0-2.5,0-3.7,0
	c-6.2-0.1-12.2-0.4-18.1-1.1c-3.2-0.4-6.3-0.9-9.4-1.5c-8.1-1.7-15.9-4.1-22.8-7.7c-7.7-3.9-13.6-9.2-20.2-14.7
	c-0.7-0.6-1.5-1.2-2.2-1.8c0,0-0.2-0.1-0.2-0.1c0,0-0.2-0.1-0.2-0.1c-7-5.9-13.5-12.1-18.7-19.8c-5.2-3.7-10.3-8.2-15.1-13.9
	c-0.9-1.1-1.8-2.1-2.6-3.2c-3.8-5.4-6.3-9.5-8.9-14.9c-3.7-6.9-7.6-14.5-9.9-22.2c-2.2-7.5-3-14.8-3.9-22.7
	c-0.3-2.5-0.5-5.1-0.8-7.7c0,0,0-0.1,0-0.1c0,0,0-0.1,0-0.1c-0.8-9.1-0.9-18.2,0.3-26.7c0.7-4.9,1.7-9.8,3.1-14.7
	c0-6.1,0.4-13,1.8-20.4c0,0,0-0.2,0.1-0.3s0-0.2,0.1-0.3c1.8-9.3,4.9-17.4,8.4-23.9c0.1-3.2,0.5-6.7,1-10.3c0.2-1.4,0.5-2.8,0.7-4.2
	c0,0,0-0.1,0-0.2c0.5-6.3,3.4-12,4.7-19.4c0-0.1,0.1-0.2,0.1-0.2c0.9-4.1,2.3-9,2.7-14.1c0.4-3.2,0.7-6.4,0.8-9.5
	c0.5-3.8,0.9-7.8,1.5-11.6c-4.4-6.9-8-14.3-10.1-21.4c-2.4-7.4-5-15.1-5.4-23.1c-0.5-9.2,1.3-19.5,4.2-29.5c1-3.4,2.1-6.7,3.3-9.7
	c3.7-9.8,7.9-17.9,10.9-22.3c0,0,0.1-0.2,0.1-0.2s0.1-0.2,0.1-0.2c1-1.5,2.1-3,3.4-4.7c1.3-1.7,2.8-3.5,4.5-5.3
	c0.3-0.4,0.7-0.8,1.1-1.2c0,0,0,0,0.1-0.1c4.4-5.2,8.3-12.2,13.7-18.1c5.7-6.2,11.7-11.8,18.4-16.5c0.2-2.9,0.6-5.9,1.1-8.8
	c0.3-1.7,0.7-3.5,1.2-5.2c0.3-1.1,0.6-2.3,0.9-3.4c0-0.9,0-1.7-0.1-2.6c0-1.3-0.1-2.6-0.2-4c-0.3-6.9-1.3-13.4-1.2-20.2
	c0.2-5.9,1.5-11.6,3-17.2c-0.1-3-0.1-5.8-0.3-8.4c-0.1-1.4-0.1-2.7-0.2-3.9c-0.1-2.4-0.3-4.7-0.5-6.5c0,0,0-0.3,0-0.3
	c0,0,0-0.3,0-0.3c-0.6-5.9-0.6-11.8,0.2-17.6c0.8-5.2,1.9-9.8,3.1-14.6c0.6-2.2,1.1-4.5,1.7-6.8c3-11,8.1-21.2,14.5-30.4
	c4.6-6.4,9.9-10.9,15-14.4c4.1-5.3,9.5-10.9,16.1-16.8c5.2-4.7,10.8-9.1,17.5-13.1c4-2.4,8.5-4.8,14-7.1
	C376,136.4,388.3,132.8,403.9,131.7"/>
<path id="line-25" class="st0" d="M402.3,121.1C402.3,121.1,402.3,121.1,402.3,121.1C402.3,121.1,402.4,121.1,402.3,121.1
	c1.6-0.1,3.2-0.1,4.8-0.2c0.4,0,0.8,0,1.2,0l0,0c1.8,0,3.5,0.1,4.8,0.1c8.3,0.2,15.1,1.3,19.6,2c0.3,0.1,0.7,0.1,1.1,0.2
	c6.6,0.2,13.1,0.8,19.5,1.9c0.1,0,0.3,0,0.4,0.1c0.2,0,0.4,0.1,0.6,0.1c4.6,0.8,9.1,1.9,13.4,3.3c10.7,3.4,20.7,8.3,30.8,15.2
	c10.1,7,23.5,12.1,40.2,18.2c1.3,0.5,2.7,1,4,1.5c9,3.3,17.9,6.7,26.8,10.1c14.1,5.5,27.9,11.3,41.4,16.9c5.5,2.3,11.3,4.7,16.8,7
	c0.5,0.2,1.5,0.6,2.3,0.9c6.9,2.6,16.5,6.2,27,12.2c8.5,5,16.4,10.8,23.1,17.6c4.8,4.9,8.9,10.2,12.2,16.1c2.8,5.1,4.8,9.8,6.9,15.3
	c0.5,1.3,1,2.5,1.4,3.8c0,0,0,0.1,0,0.1c7,13.3,9.8,27.9,9.1,43c-0.6,15.9-5.2,31.7-12.9,46.9c-2.6,5.2-5.5,10-8.3,14.4
	c-6.5,10-13.3,18.5-18.9,25.4c-1.2,1.5-2.8,3.4-3.8,4.8c0,0-0.8,1.2-0.8,1.2c-1.1,2.3-2.9,7.2-4.2,10.6c-1.3,3.3-2.5,6.7-4,10.3
	c0,0-0.1,0.3-0.1,0.3c0,0-0.1,0.3-0.1,0.3c-5.6,13.5-13.4,27.5-22.5,39.8c-2.6,3.6-5.4,7-8.2,10.3c-9.3,10.6-18.9,19.9-28.9,27.9
	c-0.1,0.1-1.3,1-1.3,1.1c-0.1,0.1-1.3,1-1.4,1c-11.9,8.9-16.7,14.3-24.6,27.3c-0.1,0.1-1,1.6-1,1.7c-0.1,0.1-1,1.5-1.1,1.6
	c-6.8,9.9-14,17.2-18.8,22.5c-0.3,0.3-0.7,0.7-1,1.1c-0.4,0.7-0.9,1.4-1.3,2c1.5,3.8,2.8,7.8,3.9,11.9l0,0c1,3.7,1.8,7.4,2.4,11
	c2.2,12.7,2.6,24.6,0.8,33.9c-0.1,0.7-0.2,1.3-0.3,2c2,5.7,3.3,12.2,5,20.3c0.9,5.1,2.3,10.9,3.6,16.6c0,0,0,0.2,0,0.2s0,0.2,0,0.2
	c0.3,1.3,0.6,2.6,0.8,3.8c2.7,13.4,4.3,24.9,1.1,38.5c-1.3,5.2-3.4,10.6-5.8,15.5c-0.5,1.2-1.1,2.2-1.7,3.3
	c-1.5,2.9-3.1,5.4-4.4,8.5c-3.3,6-7.8,11.9-12.1,17c-3.7,4.8-7.5,8.4-12.4,12.8c-14.1,11.1-30.5,15.8-41.9,19c-1.3,0.4-3,0.8-3.7,1
	c-5.4,1.7-10.6,3.1-15.5,4.3c-18.4,4.4-35,5.2-49.2,5.9c-2.7,0.1-5.2,0.2-7.7,0.4c-1.7,0.2-5.1,1-7.8,1.6c-0.7,0.2-1.4,0.3-2.1,0.5
	c-10.2,2.2-23,5.3-38.2,6.3c-0.9,0.1-1.8,0.1-2.8,0.2c-4,0.3-9.4,0.7-15.3,0.7c-1.3,0-2.6,0-3.8,0c-6.4-0.1-12.6-0.5-18.7-1.2
	c-3.3-0.4-6.5-0.9-9.7-1.6c-8.4-1.7-16.4-4.3-23.6-7.9c-7.9-4-14.2-9.5-21-15.1c-0.8-0.6-1.5-1.2-2.3-1.9c0,0-0.2-0.1-0.2-0.1
	s-0.2-0.1-0.2-0.1c-7.3-6.1-13.9-12.6-19.2-20.5c-5.4-3.8-10.7-8.4-15.7-14.2c-0.9-1.1-1.8-2.2-2.7-3.3c-4-5.5-6.6-9.8-9.3-15.3
	c-3.9-7.1-7.9-15-10.3-22.8c-2.3-7.7-3.3-15.2-4.2-23.4c-0.3-2.6-0.6-5.2-0.8-7.9c0,0,0-0.1,0-0.1s0-0.1,0-0.1
	c-0.8-9.4-0.9-18.8,0.3-27.6c0.7-5.1,1.8-10.1,3.2-15.1c0-6.3,0.4-13.4,1.9-21c0,0,0-0.2,0.1-0.3c0,0,0-0.2,0.1-0.3
	c1.9-9.6,5-18,8.6-24.6c0.1-3.3,0.4-6.9,0.9-10.6c0.2-1.5,0.4-2.9,0.7-4.4c0-0.1,0-0.1,0-0.2c0.5-6.6,3.3-12.7,4.6-20.3
	c0-0.1,0.1-0.2,0.1-0.3c0.9-4.3,2.3-9.3,2.7-14.5c0.4-3.3,0.8-6.6,0.9-9.8c0.5-4,1.1-8,1.7-12c-4.4-7.1-8.2-14.8-10.3-22.1
	c-2.5-7.7-5-15.6-5.4-24c-0.5-9.5,1.3-20.1,4.3-30.4c1-3.6,2.2-6.9,3.4-10c3.8-10.2,8.1-18.5,11.2-23c0,0,0.1-0.2,0.1-0.2
	c0,0,0.1-0.2,0.1-0.2c1-1.5,2.2-3.2,3.4-4.8c1.4-1.8,2.9-3.7,4.6-5.5c0.4-0.4,0.8-0.8,1.1-1.3c0,0,0,0,0.1-0.1
	c4.5-5.4,8.6-12.5,14.2-18.6c5.9-6.4,12.2-12.1,19-16.9c0.2-3,0.6-6.1,1.1-9.1c0.3-1.8,0.7-3.6,1.2-5.4c0.3-1.2,0.6-2.3,0.9-3.5
	c0-0.9-0.1-1.8-0.1-2.7c0-1.3-0.1-2.7-0.2-4.1c-0.3-7.2-1.3-13.8-1.1-20.8c0.2-6,1.5-11.9,3.2-17.7c-0.1-3.1-0.1-6-0.3-8.7
	c-0.1-1.4-0.1-2.7-0.2-4c-0.2-2.5-0.3-4.9-0.5-6.7c0,0,0-0.3,0-0.3s0-0.3,0-0.3c-0.6-6.1-0.6-12.2,0.2-18.2c0.8-5.4,2-10.1,3.2-15
	c0.6-2.3,1.2-4.6,1.8-7c3.1-11.3,8.4-21.9,15.2-31.3c4.8-6.6,10.3-11.3,15.6-14.9c4.2-5.5,9.7-11.3,16.7-17.4
	c5.4-4.8,11.2-9.4,18.2-13.5c4.1-2.4,8.8-5,14.5-7.3C373.4,126,386.2,122.3,402.3,121.1"/>
<path id="line-26" class="st0" d="M400.7,110.6C400.8,110.6,400.8,110.6,400.7,110.6C400.8,110.6,400.8,110.6,400.7,110.6
	c1.7-0.1,3.3-0.2,4.9-0.2c0.4,0,0.8,0,1.2,0l0,0c1.9,0,3.6,0.1,5,0.1c8.6,0.2,15.7,1.3,20.3,2c0.3,0.1,0.7,0.1,1.1,0.2
	c6.8,0.2,13.5,0.9,20.2,2c0.1,0,0.3,0,0.4,0.1c0.2,0,0.4,0.1,0.6,0.1c4.7,0.8,9.4,2,13.9,3.4c11.1,3.5,21.5,8.6,31.9,15.8
	c10.3,7.2,24.2,12.4,41.4,18.8c1.4,0.5,2.8,1,4.2,1.5c9.3,3.4,18.4,6.9,27.6,10.4c14.5,5.7,28.7,11.6,42.7,17.5
	c5.7,2.4,11.6,4.9,17.3,7.3c0.5,0.2,1.6,0.6,2.4,0.9c7,2.6,17,6.4,27.8,12.6c8.8,5.2,17,11.2,23.8,18.3c4.9,5.1,9.2,10.6,12.6,16.7
	c2.9,5.2,5,10.2,7.2,15.8c0.5,1.3,1,2.6,1.5,4c0,0,0,0.1,0,0.1c7.2,13.7,10.2,28.8,9.5,44.4c-0.6,16.5-5.3,32.8-13.2,48.5
	c-2.7,5.3-5.7,10.3-8.6,14.9c-6.7,10.3-13.8,19.1-19.5,26.3c-1.3,1.6-2.9,3.5-3.9,4.9c0,0-0.8,1.2-0.8,1.3c-1.1,2.4-3,7.4-4.4,10.9
	c-1.3,3.4-2.6,6.9-4.1,10.6c0,0-0.1,0.3-0.1,0.3c0,0-0.1,0.3-0.1,0.3c-5.8,13.9-13.8,28.3-23.1,41c-2.7,3.7-5.5,7.2-8.4,10.6
	c-9.6,11-19.4,20.5-29.7,28.7c-0.1,0.1-1.3,1.1-1.4,1.1s-1.4,1-1.4,1.1c-12.3,9.1-17.3,14.7-25.4,28.1c-0.1,0.1-1,1.6-1.1,1.7
	s-1.1,1.6-1.1,1.7c-7,10.2-14.4,17.7-19.3,23.2c-0.3,0.3-0.7,0.7-1,1.1c-0.4,0.7-0.9,1.4-1.3,2.1c1.6,3.9,3,8,4.2,12.2l0,0
	c1.1,3.8,1.9,7.6,2.5,11.3c2.3,13.1,2.8,25.3,1,34.9c-0.1,0.7-0.2,1.4-0.3,2c2.2,5.9,3.6,12.6,5.4,21c1,5.3,2.4,11.2,3.7,17.1
	c0,0,0,0.2,0,0.2c0,0,0,0.2,0,0.2c0.3,1.3,0.6,2.7,0.8,3.9c2.7,13.9,4.1,25.9,0.7,39.9c-1.4,5.3-3.5,10.9-6,15.9
	c-0.6,1.2-1.1,2.3-1.7,3.4c-1.6,3-3.2,5.6-4.6,8.7c-3.5,6.2-8.1,12.2-12.6,17.4c-3.9,4.9-8,8.6-13,13.1
	c-14.7,11.3-31.6,16.2-43.4,19.5c-1.3,0.4-3.1,0.8-3.8,1.1c-5.5,1.8-10.9,3.2-16,4.4c-19,4.6-36.1,5.4-50.8,6.1
	c-2.8,0.1-5.4,0.2-7.9,0.4c-1.7,0.2-5.3,1.1-8.1,1.7c-0.7,0.2-1.5,0.3-2.2,0.5c-10.5,2.3-23.7,5.5-39.4,6.4
	c-0.9,0.1-1.9,0.1-2.9,0.2c-4.2,0.3-9.6,0.7-15.8,0.7c-1.3,0-2.6,0-3.9,0c-6.6-0.1-13-0.5-19.3-1.3c-3.4-0.4-6.7-1-10-1.7
	c-8.7-1.8-16.9-4.4-24.3-8.2c-8.2-4.1-14.7-9.7-21.7-15.5c-0.8-0.6-1.6-1.3-2.3-1.9c0,0-0.2-0.1-0.2-0.2c0,0-0.2-0.1-0.2-0.2
	c-7.5-6.3-14.3-13-19.8-21.2c-5.5-3.9-11-8.6-16.2-14.6c-1-1.1-1.9-2.3-2.8-3.4c-4.1-5.6-6.9-10.1-9.8-15.8
	c-4-7.3-8.2-15.4-10.8-23.5c-2.5-8-3.5-15.7-4.5-24.1c-0.3-2.6-0.6-5.4-0.8-8.1c0,0,0-0.1,0-0.1s0-0.1,0-0.1
	c-0.9-9.6-0.9-19.3,0.4-28.4c0.7-5.2,1.9-10.4,3.4-15.5c0-6.5,0.4-13.8,1.9-21.7c0,0,0-0.3,0.1-0.3c0,0,0.1-0.3,0.1-0.3
	c2-9.9,5.2-18.5,8.8-25.4c0.1-3.4,0.4-7.2,0.8-11c0.2-1.5,0.4-3,0.6-4.5c0-0.1,0-0.1,0-0.2c0.5-6.8,3.2-13.3,4.5-21.2
	c0-0.1,0.1-0.2,0.1-0.3c0.9-4.5,2.2-9.6,2.8-15c0.5-3.4,0.8-6.8,1-10.1c0.6-4.1,1.2-8.3,1.9-12.4c-4.5-7.3-8.3-15.2-10.5-22.8
	c-2.5-7.9-5-16.2-5.4-24.8c-0.4-9.8,1.4-20.7,4.5-31.3c1.1-3.7,2.3-7.1,3.4-10.3c3.9-10.5,8.3-19.1,11.5-23.8c0,0,0.1-0.2,0.1-0.2
	s0.1-0.2,0.1-0.2c1.1-1.6,2.2-3.3,3.5-5c1.4-1.9,3-3.8,4.7-5.8c0.4-0.4,0.8-0.8,1.2-1.3c0,0,0,0,0.1-0.1c4.6-5.6,8.8-12.9,14.7-19.2
	c6.1-6.6,12.6-12.5,19.7-17.4c0.2-3.1,0.6-6.3,1.1-9.4c0.3-1.9,0.7-3.7,1.2-5.5c0.3-1.2,0.6-2.4,0.9-3.6c0-0.9-0.1-1.8-0.1-2.8
	c-0.1-1.4-0.1-2.8-0.2-4.3c-0.4-7.4-1.3-14.3-1.1-21.5c0.2-6.2,1.6-12.3,3.3-18.3c-0.1-3.2-0.2-6.1-0.3-8.9
	c-0.1-1.4-0.2-2.8-0.2-4.1c-0.2-2.6-0.3-5-0.5-6.9c0,0,0-0.3,0-0.3s0-0.3,0-0.3c-0.6-6.3-0.6-12.6,0.2-18.8c0.8-5.5,2-10.4,3.3-15.5
	c0.6-2.4,1.2-4.8,1.9-7.2c3.3-11.7,8.8-22.5,15.9-32.2c5-6.8,10.7-11.6,16.2-15.3c4.3-5.7,10-11.7,17.2-18
	c5.6-4.9,11.6-9.7,18.8-13.9c4.3-2.5,9.2-5.1,15-7.5C370.8,115.6,384.1,111.7,400.7,110.6"/>
<path id="line-27" class="st0" d="M399.2,100C399.2,100,399.2,100,399.2,100C399.2,100,399.3,100,399.2,100c1.7-0.1,3.4-0.2,5.1-0.2
	c0.4,0,0.8,0,1.2,0l0,0c2,0,3.7,0.1,5.2,0.2c8.9,0.2,16.2,1.4,21,2.1c0.4,0.1,0.8,0.1,1.1,0.2c7.1,0.2,14,0.9,20.8,2
	c0.1,0,0.3,0,0.4,0.1c0.2,0,0.4,0.1,0.6,0.1c4.9,0.9,9.7,2.1,14.4,3.5c11.5,3.6,22.2,8.9,33,16.3c10.6,7.3,24.9,12.8,42.6,19.3
	c1.4,0.5,2.8,1.1,4.3,1.6c9.5,3.5,19,7.1,28.4,10.7c14.9,5.8,29.5,11.9,43.9,18c5.9,2.5,11.9,5,17.8,7.5c0.5,0.2,1.6,0.6,2.4,0.9
	c7.2,2.7,17.5,6.5,28.6,13c9.1,5.3,17.5,11.6,24.6,18.9c5.1,5.2,9.5,11,13,17.2c3,5.4,5.2,10.5,7.4,16.3c0.5,1.4,1,2.7,1.5,4.1
	c0,0,0,0.1,0,0.1c7.4,14.2,10.6,29.7,9.9,45.8c-0.6,17-5.3,33.9-13.5,50.2c-2.8,5.5-5.8,10.7-8.9,15.4
	c-6.9,10.7-14.3,19.7-20.2,27.1c-1.3,1.6-3,3.7-4.1,5.1c0,0-0.8,1.3-0.8,1.3c-1.1,2.4-3.1,7.6-4.5,11.3c-1.3,3.5-2.7,7.1-4.3,10.9
	c0,0-0.1,0.3-0.1,0.3s-0.1,0.3-0.1,0.3c-5.9,14.3-14.2,29.1-23.8,42.2c-2.8,3.8-5.7,7.5-8.6,10.9c-9.8,11.3-20,21.1-30.5,29.6
	c-0.1,0.1-1.4,1.1-1.4,1.1c0,0.1-1.4,1-1.5,1.1c-12.7,9.4-17.8,15.1-26.2,28.9c0,0.1-1,1.7-1.1,1.7s-1.1,1.6-1.2,1.7
	c-7.2,10.6-14.8,18.3-19.9,23.9c-0.3,0.4-0.7,0.8-1,1.1c-0.5,0.7-0.9,1.4-1.4,2.1c1.7,4,3.2,8.2,4.4,12.6l0,0
	c1.1,3.9,2,7.8,2.7,11.7c2.5,13.5,3,26.1,1.2,36c-0.1,0.7-0.2,1.4-0.3,2.1c2.3,6.1,4,13.1,5.9,21.7c1.1,5.4,2.5,11.5,3.8,17.6
	c0,0,0,0.2,0,0.2s0,0.2,0,0.2c0.3,1.4,0.6,2.7,0.8,4.1c2.7,14.3,3.8,26.9,0.3,41.3c-1.4,5.5-3.7,11.2-6.3,16.4
	c-0.6,1.2-1.2,2.4-1.8,3.5c-1.6,3.1-3.3,5.8-4.8,8.9c-3.6,6.4-8.5,12.5-13.2,17.9c-4.1,5-8.4,8.9-13.7,13.5
	c-15.4,11.6-32.7,16.6-44.8,19.9c-1.4,0.4-3.2,0.9-4,1.1c-5.7,1.8-11.2,3.3-16.5,4.6c-19.6,4.7-37.2,5.5-52.3,6.2
	c-2.8,0.1-5.5,0.2-8.1,0.4c-1.8,0.3-5.5,1.1-8.3,1.8c-0.7,0.2-1.5,0.3-2.3,0.5c-10.8,2.4-24.4,5.7-40.6,6.6
	c-0.9,0.1-1.9,0.1-2.9,0.2c-4.3,0.3-9.9,0.7-16.3,0.7c-1.4,0-2.7,0-4.1,0c-6.8-0.1-13.4-0.5-19.8-1.3c-3.5-0.4-6.9-1-10.3-1.7
	c-8.9-1.8-17.4-4.6-25.1-8.4c-8.5-4.2-15.3-9.9-22.5-15.9c-0.8-0.7-1.6-1.3-2.4-2c0,0-0.2-0.1-0.2-0.2s-0.2-0.2-0.2-0.2
	c-7.7-6.5-14.7-13.5-20.3-21.9c-5.7-4-11.4-8.9-16.7-15c-1-1.1-2-2.3-2.9-3.5c-4.3-5.7-7.3-10.4-10.3-16.2
	c-4.2-7.5-8.5-15.8-11.2-24.1c-2.6-8.2-3.8-16.2-4.8-24.8c-0.3-2.7-0.6-5.5-0.9-8.4c0,0,0-0.1,0-0.1s0-0.1,0-0.1
	c-0.9-9.9-0.9-19.9,0.4-29.2c0.8-5.4,1.9-10.7,3.5-16c0-6.6,0.4-14.2,1.9-22.3c0,0,0.1-0.3,0.1-0.3c0,0,0.1-0.3,0.1-0.3
	c2-10.2,5.3-19.1,9-26.2c0.1-3.5,0.3-7.4,0.7-11.4c0.2-1.6,0.4-3.2,0.6-4.7c0-0.1,0-0.1,0-0.2c0.5-7.1,3.1-13.9,4.4-22.2
	c0-0.1,0.1-0.2,0.1-0.3c0.9-4.6,2.2-9.9,2.8-15.4c0.5-3.5,0.9-7,1.1-10.4c0.6-4.3,1.3-8.6,2.1-12.8c-4.6-7.5-8.4-15.7-10.6-23.6
	c-2.5-8.2-5-16.7-5.3-25.6c-0.4-10.1,1.5-21.3,4.6-32.3c1.1-3.8,2.3-7.4,3.5-10.7c4-10.8,8.6-19.7,11.8-24.5c0,0,0.1-0.2,0.1-0.2
	c0,0,0.1-0.2,0.1-0.2c1.1-1.6,2.3-3.4,3.6-5.2c1.4-2,3-4,4.8-6c0.4-0.5,0.8-0.9,1.2-1.4c0,0,0-0.1,0.1-0.1
	c4.7-5.8,9.1-13.2,15.2-19.7c6.3-6.8,13-12.8,20.4-17.8c0.2-3.2,0.5-6.5,1.1-9.7c0.3-1.9,0.7-3.8,1.2-5.7c0.3-1.3,0.6-2.5,1-3.7
	c0-0.9-0.1-1.9-0.2-2.9c-0.1-1.4-0.2-2.9-0.2-4.4c-0.4-7.6-1.3-14.7-1-22.1c0.3-6.4,1.6-12.7,3.4-18.8c-0.1-3.3-0.2-6.3-0.3-9.2
	c-0.1-1.5-0.2-2.9-0.2-4.3c-0.2-2.7-0.3-5.2-0.5-7.1c0,0,0-0.3,0-0.3c0,0,0-0.3,0-0.3c-0.6-6.5-0.6-12.9,0.2-19.3
	c0.8-5.7,2-10.7,3.3-16c0.6-2.5,1.3-4.9,2-7.4c3.5-12,9.2-23.2,16.5-33.1c5.2-7,11.1-12,16.8-15.8c4.4-5.9,10.3-12.2,17.7-18.7
	c5.7-5.1,12-10,19.5-14.3c4.4-2.6,9.5-5.2,15.5-7.7C368.3,105.2,382,101.2,399.2,100"/>
<path id="line-28" class="st0" d="M397.6,89.4C397.6,89.4,397.7,89.4,397.6,89.4C397.7,89.4,397.7,89.4,397.6,89.4
	c1.8-0.1,3.5-0.2,5.3-0.2c0.4,0,0.9,0,1.3,0l0,0c2,0,3.8,0.1,5.4,0.2c9.2,0.2,16.8,1.4,21.7,2.2c0.4,0.1,0.8,0.1,1.2,0.2
	c7.3,0.2,14.5,0.9,21.5,2.1c0.1,0,0.3,0,0.4,0.1c0.2,0,0.4,0.1,0.6,0.1c5.1,0.9,10,2.1,14.8,3.7c11.9,3.7,22.9,9.2,34,16.9
	c10.9,7.5,25.6,13.1,43.8,19.8c1.5,0.5,2.9,1.1,4.4,1.6c9.8,3.6,19.5,7.3,29.1,11.1c15.3,6,30.3,12.3,45.1,18.5
	c6,2.5,12.3,5.1,18.3,7.7c0.5,0.2,1.7,0.6,2.5,0.9c7.4,2.8,17.9,6.7,29.3,13.3c9.4,5.5,18,12,25.3,19.6c5.2,5.4,9.8,11.3,13.4,17.8
	c3.1,5.5,5.4,10.8,7.7,16.8c0.6,1.4,1.1,2.8,1.6,4.2c0,0,0,0.1,0,0.1c7.7,14.6,10.9,30.7,10.4,47.3c-0.5,17.6-5.3,35-13.8,51.8
	c-2.9,5.7-6,11-9.1,15.9c-7.1,11-14.8,20.3-20.9,27.9c-1.4,1.7-3.1,3.8-4.2,5.2c0,0-0.9,1.3-0.9,1.4c-1.2,2.5-3.2,7.9-4.6,11.6
	c-1.4,3.6-2.8,7.4-4.4,11.3c0,0-0.1,0.3-0.1,0.3s-0.1,0.3-0.1,0.3c-6.1,14.7-14.6,29.9-24.4,43.4c-2.9,3.9-5.8,7.7-8.8,11.2
	c-10.1,11.6-20.5,21.7-31.4,30.4c0,0.1-1.4,1.1-1.5,1.2c0,0.1-1.5,1.1-1.5,1.1c-13.1,9.7-18.3,15.5-26.9,29.6c0,0.1-1.1,1.7-1.1,1.8
	s-1.1,1.7-1.2,1.7c-7.4,10.9-15.3,18.8-20.4,24.6c-0.3,0.4-0.7,0.8-1.1,1.2c-0.5,0.7-0.9,1.5-1.4,2.2c1.8,4.1,3.3,8.5,4.7,12.9l0,0
	c1.2,4,2.1,8.1,2.9,12c2.7,13.9,3.1,26.8,1.4,37c-0.1,0.7-0.2,1.5-0.3,2.2c2.5,6.3,4.3,13.5,6.3,22.4c1.2,5.6,2.6,11.8,3.9,18.1
	c0,0,0,0.2,0,0.2s0,0.2,0,0.2c0.3,1.4,0.6,2.8,0.8,4.2c2.6,14.8,3.6,28-0.2,42.8c-1.5,5.6-3.8,11.5-6.5,16.8
	c-0.6,1.2-1.2,2.4-1.8,3.6c-1.7,3.2-3.4,5.9-5,9.2c-3.8,6.5-8.8,12.8-13.7,18.3c-4.3,5.2-8.8,9.1-14.3,13.8
	c-16,11.9-33.8,17-46.2,20.4c-1.4,0.4-3.3,0.9-4.1,1.1c-5.9,1.9-11.6,3.4-17,4.7c-20.2,4.8-38.3,5.7-53.8,6.4
	c-2.9,0.1-5.7,0.3-8.4,0.4c-1.8,0.3-5.6,1.2-8.5,1.8c-0.8,0.2-1.5,0.4-2.3,0.5c-11.1,2.5-25.1,5.8-41.8,6.8c-1,0.1-2,0.1-3,0.2
	c-4.4,0.3-10.2,0.7-16.7,0.8c-1.4,0-2.8,0-4.2,0c-7-0.1-13.8-0.5-20.4-1.4c-3.6-0.5-7.1-1.1-10.6-1.8c-9.2-1.9-17.9-4.7-25.8-8.7
	c-8.7-4.3-15.8-10.1-23.3-16.2c-0.8-0.7-1.7-1.4-2.5-2.1c0,0-0.2-0.2-0.2-0.2c0,0-0.2-0.2-0.2-0.2c-7.9-6.7-15.1-13.9-20.8-22.6
	c-5.8-4.1-11.7-9.1-17.2-15.4c-1-1.2-2-2.4-3-3.6c-4.4-5.8-7.6-10.7-10.7-16.6c-4.4-7.7-8.8-16.2-11.6-24.8
	c-2.7-8.4-4-16.6-5.1-25.5c-0.4-2.8-0.7-5.7-0.9-8.6c0,0,0-0.1,0-0.1c0,0,0-0.1,0-0.1c-0.9-10.2-1-20.4,0.4-30
	c0.8-5.5,2-11,3.6-16.4c-0.1-6.8,0.4-14.6,2-22.9c0,0,0.1-0.3,0.1-0.3c0,0,0.1-0.3,0.1-0.3c2.1-10.5,5.5-19.6,9.2-26.9
	c0.1-3.6,0.3-7.6,0.7-11.7c0.2-1.6,0.4-3.3,0.6-4.9c0-0.1,0-0.1,0-0.2c0.5-7.4,3-14.5,4.3-23.1c0-0.1,0.1-0.2,0.1-0.3
	c0.9-4.8,2.2-10.2,2.9-15.9c0.5-3.7,1-7.3,1.3-10.8c0.7-4.4,1.5-8.9,2.3-13.2c-4.7-7.8-8.6-16.2-10.8-24.3c-2.6-8.5-5-17.3-5.3-26.4
	c-0.4-10.4,1.5-21.9,4.8-33.2c1.1-3.9,2.4-7.6,3.6-11c4.1-11.1,8.8-20.3,12-25.2c0,0,0.1-0.2,0.1-0.2c0,0,0.1-0.2,0.1-0.2
	c1.1-1.7,2.3-3.5,3.7-5.4c1.5-2,3.1-4.2,4.9-6.3c0.4-0.5,0.8-0.9,1.2-1.4c0,0,0-0.1,0.1-0.1c4.8-6,9.4-13.6,15.6-20.2
	c6.5-7,13.5-13.1,21-18.3c0.2-3.3,0.5-6.7,1.1-10c0.3-2,0.7-3.9,1.2-5.9c0.3-1.3,0.6-2.6,1-3.8c-0.1-1-0.1-2-0.2-3
	c-0.1-1.5-0.2-3-0.3-4.5c-0.5-7.8-1.3-15.2-1-22.8c0.3-6.6,1.7-13,3.5-19.4c-0.1-3.3-0.2-6.5-0.4-9.5c-0.1-1.5-0.2-3-0.2-4.4
	c-0.2-2.7-0.3-5.3-0.5-7.4c0,0,0-0.3,0-0.3c0,0,0-0.3,0-0.3c-0.6-6.7-0.6-13.3,0.3-19.9c0.8-5.8,2-11.1,3.4-16.4
	c0.6-2.5,1.3-5.1,2-7.7c3.6-12.4,9.5-23.8,17.2-34c5.4-7.1,11.5-12.3,17.4-16.3c4.6-6.1,10.6-12.6,18.2-19.3
	c5.9-5.2,12.4-10.3,20.2-14.7c4.6-2.6,9.8-5.4,16-7.9C365.7,94.8,379.9,90.7,397.6,89.4"/>
<path id="line-29" class="st0" d="M396.1,78.9C396.1,78.9,396.1,78.8,396.1,78.9C396.1,78.8,396.1,78.8,396.1,78.9
	c1.8-0.1,3.6-0.2,5.4-0.2c0.4,0,0.9,0,1.3,0l0,0c2.1,0,4,0.1,5.5,0.2c9.5,0.3,17.3,1.5,22.4,2.2c0.4,0.1,0.8,0.1,1.2,0.2
	c7.5,0.2,14.9,0.9,22.2,2.2c0.1,0,0.3,0.1,0.4,0.1c0.2,0,0.4,0.1,0.6,0.1c5.2,0.9,10.3,2.2,15.3,3.8c12.2,3.9,23.6,9.5,35.1,17.4
	c11.2,7.7,26.2,13.4,45,20.3c1.5,0.6,3,1.1,4.5,1.7c10.1,3.7,20,7.5,29.9,11.4c15.7,6.2,31.2,12.6,46.3,19
	c6.2,2.6,12.6,5.3,18.8,7.9c0.5,0.2,1.7,0.6,2.6,1c7.6,2.8,18.4,6.9,30.1,13.7c9.7,5.7,18.6,12.4,26,20.2c5.4,5.6,10,11.7,13.8,18.3
	c3.1,5.7,5.6,11.2,7.9,17.3c0.6,1.4,1.1,2.9,1.6,4.4c0,0,0,0.1,0,0.1c7.9,15,11.3,31.6,10.8,48.7c-0.5,18.1-5.4,36.1-14.1,53.4
	c-3,5.9-6.2,11.3-9.4,16.4c-7.4,11.4-15.2,20.9-21.5,28.7c-1.4,1.7-3.2,3.9-4.3,5.4c0,0-0.9,1.4-0.9,1.4c-1.2,2.6-3.3,8.1-4.8,12
	c-1.4,3.7-2.9,7.6-4.5,11.6c0,0-0.1,0.3-0.1,0.3s-0.1,0.3-0.1,0.3c-6.3,15.2-15,30.7-25.1,44.6c-2.9,4-6,7.9-9.1,11.6
	c-10.3,12-21,22.4-32.2,31.3c0,0-1.5,1.2-1.5,1.2c0,0-1.5,1.1-1.6,1.2c-13.6,9.9-18.8,15.8-27.7,30.4c0,0.1-1.1,1.8-1.1,1.8
	c0,0.1-1.2,1.7-1.2,1.8c-7.6,11.2-15.7,19.4-21,25.2c-0.3,0.4-0.7,0.8-1.1,1.2c-0.5,0.8-1,1.5-1.4,2.3c1.9,4.2,3.5,8.7,4.9,13.3l0,0
	c1.3,4.2,2.3,8.3,3,12.3c2.8,14.3,3.3,27.6,1.7,38.1c-0.1,0.8-0.2,1.5-0.3,2.2c2.7,6.4,4.6,13.9,6.8,23.1c1.2,5.7,2.7,12.1,4,18.6
	c0,0,0,0.2,0,0.2c0,0,0,0.2,0,0.2c0.3,1.5,0.6,2.9,0.8,4.3c2.6,15.3,3.4,29-0.6,44.2c-1.6,5.8-4,11.7-6.8,17.2
	c-0.6,1.3-1.3,2.5-1.9,3.7c-1.8,3.3-3.6,6.1-5.3,9.4c-4,6.7-9.1,13.1-14.3,18.8c-4.5,5.3-9.2,9.4-14.9,14.1
	c-16.6,12.2-34.9,17.4-47.6,20.9c-1.4,0.4-3.4,0.9-4.2,1.2c-6,1.9-11.9,3.5-17.5,4.8c-20.8,4.9-39.4,5.8-55.4,6.6
	c-3,0.1-5.9,0.3-8.6,0.4c-1.8,0.3-5.8,1.2-8.8,1.9c-0.8,0.2-1.6,0.4-2.4,0.6c-11.4,2.5-25.8,6-43,7c-1,0.1-2,0.1-3.1,0.2
	c-4.5,0.3-10.5,0.7-17.2,0.8c-1.4,0-2.9,0-4.3,0c-7.2-0.1-14.2-0.6-21-1.4c-3.7-0.5-7.3-1.1-10.9-1.8c-9.4-2-18.4-4.9-26.5-8.9
	c-9-4.4-16.3-10.3-24-16.6c-0.9-0.7-1.7-1.4-2.5-2.1c0,0-0.2-0.2-0.2-0.2c0,0-0.2-0.2-0.2-0.2c-8.2-6.9-15.5-14.4-21.4-23.4
	c-6-4.2-12-9.3-17.8-15.7c-1.1-1.2-2.1-2.4-3.1-3.7c-4.6-5.9-7.9-11-11.2-17c-4.6-8-9.1-16.6-12-25.4c-2.8-8.6-4.2-17.1-5.4-26.2
	c-0.4-2.9-0.7-5.8-1-8.8c0,0,0-0.1,0-0.1c0,0,0-0.1,0-0.1c-1-10.5-1-21,0.5-30.8c0.8-5.7,2.1-11.3,3.8-16.9c-0.1-7,0.4-15,2-23.5
	c0,0,0.1-0.3,0.1-0.3s0.1-0.3,0.1-0.3c2.1-10.8,5.6-20.2,9.4-27.7c0-3.7,0.2-7.8,0.6-12.1c0.2-1.7,0.4-3.4,0.6-5c0-0.1,0-0.1,0-0.2
	c0.5-7.7,2.9-15.1,4.2-24c0-0.1,0.1-0.2,0.1-0.3c0.9-5,2.2-10.6,2.9-16.3c0.5-3.8,1-7.5,1.4-11.1c0.8-4.6,1.6-9.2,2.5-13.7
	c-4.8-8-8.7-16.6-11-25.1c-2.6-8.7-5-17.8-5.3-27.2c-0.3-10.7,1.6-22.5,4.9-34.1c1.2-4,2.4-7.8,3.7-11.3c4.2-11.5,9-20.9,12.3-26
	c0,0,0.1-0.2,0.1-0.2s0.1-0.2,0.1-0.2c1.1-1.8,2.4-3.6,3.7-5.6c1.5-2.1,3.2-4.3,5-6.5c0.4-0.5,0.8-1,1.3-1.5c0,0,0.1-0.1,0.1-0.1
	c4.9-6.2,9.7-13.9,16.1-20.8c6.7-7.1,13.9-13.5,21.7-18.7c0.2-3.4,0.5-6.9,1-10.3c0.3-2,0.7-4.1,1.2-6.1c0.3-1.4,0.6-2.7,1-4
	c-0.1-1-0.1-2-0.2-3.1c-0.1-1.5-0.2-3.1-0.3-4.6c-0.5-8-1.3-15.6-1-23.5c0.3-6.8,1.8-13.4,3.6-19.9c-0.1-3.4-0.2-6.7-0.4-9.7
	c-0.1-1.6-0.2-3.1-0.2-4.5c-0.2-2.8-0.3-5.5-0.5-7.6c0,0,0-0.3,0-0.3c0,0,0-0.3,0-0.3c-0.6-6.9-0.6-13.7,0.3-20.4
	c0.8-6,2.1-11.4,3.5-16.9c0.7-2.6,1.4-5.2,2.1-7.9c3.8-12.7,9.9-24.5,17.9-34.9c5.6-7.3,11.9-12.7,17.9-16.8
	c4.7-6.3,10.9-13,18.8-19.9c6.1-5.4,12.8-10.6,20.8-15.1c4.7-2.7,10.1-5.5,16.5-8.1C363.2,84.3,377.8,80.1,396.1,78.9"/>
<path id="line-30" class="st0" d="M394.5,68.3C394.5,68.3,394.5,68.3,394.5,68.3C394.5,68.3,394.6,68.3,394.5,68.3
	c1.9-0.1,3.7-0.2,5.6-0.2c0.5,0,0.9,0,1.4,0l0,0c2.2,0,4.1,0.1,5.7,0.2c9.8,0.3,17.8,1.5,23,2.3c0.4,0.1,0.8,0.1,1.2,0.2
	c7.8,0.2,15.4,0.9,22.9,2.2c0.1,0,0.3,0.1,0.4,0.1c0.2,0,0.5,0.1,0.7,0.1c5.4,1,10.6,2.3,15.8,3.9c12.6,4,24.4,9.8,36.2,18
	c11.4,7.9,26.9,13.7,46.2,20.8c1.5,0.6,3.1,1.1,4.6,1.7c10.3,3.8,20.6,7.7,30.7,11.7c16.1,6.4,32,13,47.5,19.5
	c6.4,2.7,12.9,5.4,19.3,8.1c0.6,0.2,1.7,0.7,2.6,1c7.7,2.9,18.9,7,30.9,14.1c10,5.9,19.1,12.8,26.8,20.9c5.5,5.8,10.3,12,14.1,18.9
	c3.2,5.8,5.7,11.5,8.1,17.8c0.6,1.5,1.1,3,1.6,4.5c0,0,0,0.1,0,0.1c8.1,15.5,11.7,32.5,11.2,50.2c-0.4,18.7-5.4,37.2-14.3,55.1
	c-3,6-6.3,11.7-9.7,16.9c-7.6,11.7-15.7,21.6-22.2,29.6c-1.4,1.8-3.3,4-4.5,5.5c0,0-0.9,1.4-0.9,1.5c-1.2,2.6-3.4,8.4-4.9,12.3
	c-1.5,3.8-3,7.8-4.7,12c0,0-0.1,0.3-0.1,0.3c0,0-0.1,0.3-0.1,0.3c-6.5,15.6-15.4,31.5-25.7,45.8c-3,4.1-6.1,8.1-9.3,11.9
	c-10.5,12.3-21.5,23-33,32.1c0,0-1.5,1.2-1.6,1.2c0,0-1.6,1.1-1.6,1.2c-14,10.2-19.4,16.2-28.5,31.2c0,0.1-1.1,1.8-1.2,1.9
	c0,0.1-1.2,1.8-1.2,1.8c-7.8,11.5-16.1,19.9-21.6,25.9c-0.4,0.4-0.8,0.8-1.1,1.2c-0.5,0.8-1,1.6-1.5,2.3c2,4.4,3.7,8.9,5.2,13.6l0,0
	c1.3,4.3,2.4,8.5,3.2,12.7c3,14.7,3.5,28.3,1.9,39.1c-0.1,0.8-0.2,1.5-0.3,2.3c2.8,6.6,5,14.3,7.2,23.8c1.3,5.9,2.8,12.4,4.1,19.1
	c0,0,0,0.2,0,0.2s0,0.2,0,0.2c0.3,1.5,0.6,3,0.8,4.5c2.6,15.8,3.2,30-1,45.6c-1.7,6-4.1,12-7,17.7c-0.6,1.3-1.3,2.5-2,3.8
	c-1.8,3.3-3.7,6.3-5.5,9.7c-4.2,6.9-9.5,13.4-14.8,19.2c-4.7,5.4-9.6,9.6-15.6,14.4c-17.2,12.4-36,17.8-49.1,21.4
	c-1.5,0.4-3.5,0.9-4.3,1.2c-6.2,2-12.2,3.6-18,5c-21.4,5.1-40.5,6-56.9,6.7c-3.1,0.1-6,0.3-8.9,0.4c-1.9,0.3-5.9,1.2-9,2
	c-0.8,0.2-1.6,0.4-2.5,0.6c-11.6,2.6-26.5,6.2-44.2,7.2c-1,0.1-2.1,0.1-3.2,0.2c-4.6,0.3-10.8,0.7-17.7,0.8c-1.5,0-3,0-4.4,0
	c-7.5-0.1-14.6-0.6-21.6-1.5c-3.8-0.5-7.5-1.1-11.2-1.9c-9.7-2-18.9-5-27.3-9.1c-9.2-4.5-16.9-10.5-24.8-17
	c-0.9-0.7-1.7-1.4-2.6-2.2c0,0-0.2-0.2-0.2-0.2c0,0-0.2-0.2-0.2-0.2c-8.4-7.1-15.9-14.8-21.9-24.1c-6.1-4.3-12.4-9.5-18.3-16.1
	c-1.1-1.2-2.2-2.5-3.2-3.8c-4.7-6.1-8.2-11.2-11.7-17.5c-4.8-8.2-9.4-17-12.5-26.1c-2.9-8.8-4.5-17.6-5.7-27c-0.4-3-0.7-6-1-9.1
	c0,0,0-0.1,0-0.1c0,0,0-0.1,0-0.1c-1-10.8-1-21.5,0.5-31.7c0.9-5.8,2.2-11.6,3.9-17.3c-0.1-7.2,0.4-15.3,2.1-24.2
	c0,0,0.1-0.3,0.1-0.3c0,0,0.1-0.3,0.1-0.3c2.2-11.1,5.7-20.7,9.6-28.4c0-3.8,0.2-8.1,0.5-12.4c0.2-1.7,0.3-3.5,0.5-5.2
	c0-0.1,0-0.1,0-0.2c0.4-7.9,2.8-15.8,4.1-25c0-0.1,0.1-0.2,0.1-0.3c0.9-5.1,2.2-10.9,3-16.8c0.6-3.9,1.1-7.7,1.5-11.4
	c0.8-4.7,1.7-9.4,2.8-14.1c-4.9-8.2-8.9-17.1-11.2-25.8c-2.6-9-5-18.4-5.2-28.1c-0.3-11,1.7-23.2,5.1-35.1c1.2-4.1,2.5-8,3.8-11.6
	c4.3-11.8,9.2-21.4,12.6-26.7c0,0,0.1-0.2,0.1-0.2c0,0,0.1-0.2,0.1-0.2c1.1-1.8,2.4-3.8,3.8-5.8c1.5-2.2,3.2-4.5,5.1-6.8
	c0.4-0.5,0.8-1,1.3-1.6c0,0,0.1-0.1,0.1-0.1c5-6.4,9.9-14.3,16.6-21.3c6.9-7.3,14.3-13.8,22.4-19.2c0.2-3.5,0.5-7,1-10.6
	c0.3-2.1,0.7-4.2,1.2-6.3c0.3-1.4,0.6-2.8,1-4.1c-0.1-1-0.1-2.1-0.2-3.2c-0.1-1.6-0.2-3.1-0.3-4.8c-0.5-8.2-1.3-16-0.9-24.1
	c0.4-6.9,1.8-13.7,3.7-20.4c-0.2-3.5-0.3-6.9-0.4-10c-0.1-1.6-0.2-3.2-0.2-4.6c-0.2-2.9-0.3-5.7-0.5-7.8c0,0,0-0.3,0-0.4
	c0,0,0-0.3,0-0.4c-0.6-7.1-0.6-14.1,0.3-21c0.8-6.1,2.1-11.7,3.6-17.4c0.7-2.7,1.4-5.4,2.2-8.1c3.9-13.1,10.3-25.1,18.5-35.8
	c5.8-7.5,12.3-13,18.5-17.2c4.8-6.5,11.2-13.4,19.3-20.6c6.2-5.5,13.2-10.8,21.5-15.5c4.9-2.8,10.5-5.7,17-8.4
	C360.6,73.9,375.7,69.6,394.5,68.3"/>
</svg>
