<?xml version="1.0" encoding="UTF-8"?>
<svg width="179px" height="42px" viewBox="0 0 179 42" version="1.1" xmlns="http://www.w3.org/2000/svg" xmlns:xlink="http://www.w3.org/1999/xlink">
    <title>logo-xs</title>
    <g id="logo-xs" stroke="none" stroke-width="1" fill="none" fill-rule="evenodd">
        <g id="Group-2-Copy" transform="translate(0.000000, -1.500000)" fill="#000000" fill-rule="nonzero">
            <path d="M11.4,21.36 L17.52,7.848 L17.568,7.848 L18.24,17.976 C18.256,18.392 18.2613333,18.648 18.2631111,18.8577778 L18.2639671,19.0563621 C18.264,19.0882963 18.264,19.12 18.264,19.152 C18.264,20.208 17.448,20.208 16.2,20.28 L16.2,21 C17.52,20.952 18.84,20.904 20.16,20.904 C21.312,20.904 22.488,20.952 23.616,21 L23.616,20.28 C22.176,20.232 21.576,20.136 21.48,18.936 L20.568,7.944 C20.52,7.416 20.424,6.696 20.448,6.072 C20.496,5.016 21.96,4.968 22.68,4.968 L22.896,4.968 L22.896,4.248 C22.056,4.248 21.192,4.344 20.352,4.344 C19.488,4.344 18.624,4.248 17.904,4.248 L12.216,16.8 L6.6,4.248 L6.06,4.263 L6.06,4.263 L4.98,4.329 C4.8,4.338 4.62,4.344 4.44,4.344 C3.456,4.344 2.496,4.248 1.512,4.248 L1.512,4.968 L1.824,4.968 C2.88,4.968 3.912,5.424 3.912,6.768 C3.912,7.728 3.816,9.288 3.624,10.992 L2.904,17.664 C2.688,19.392 2.616,20.208 0.72,20.28 L0.384,20.28 L0.384,21 C1.32,20.952 2.28,20.904 3.216,20.904 C4.296,20.904 5.4,20.952 6.48,21 L6.48,20.28 L6.192,20.28 C5.52,20.256 5.016,20.232 4.656,20.016 C4.344,19.8 4.152,19.416 4.152,18.648 L4.968,8.112 L5.016,8.112 L10.824,21.36 L11.4,21.36 Z M33.192,21.36 C34.344,21.36 34.992,20.736 35.712,19.848 L35.4,19.416 C35.256,19.56 34.944,19.728 34.728,19.728 C34.0933333,19.728 33.9938519,19.0643704 33.9847572,18.1212551 L33.984,13.056 C33.984,10.968 32.856,9.864 30.744,9.864 C30.264,9.864 29.832,9.888 29.304,10.2 C28.392,10.728 27.504,11.184 26.712,11.592 C25.968,11.976 25.392,12.672 25.392,13.608 C25.392,13.968 25.584,14.16 25.848,14.16 C26.208,14.16 27.504,13.848 27.552,13.2 C27.648,11.856 28.008,11.496 29.4,11.496 C30.48,11.496 31.296,12.048 31.296,13.44 L31.296,14.784 L28.32,15.816 C26.616,16.44 25.08,17.016 25.08,18.888 C25.08,20.472 26.256,21.36 27.696,21.36 C29.232,21.36 30.312,20.496 31.368,19.464 C31.464,20.568 32.04,21.36 33.192,21.36 Z M29.232,19.728 C28.296,19.728 27.768,19.2 27.768,18.168 C27.768,16.488 29.976,16.032 31.296,15.6 L31.296,18.456 C31.032,18.816 30.336,19.728 29.232,19.728 Z M38.568,26.472 C39.432,26.472 40.032,25.752 40.392,24.888 L45.288,13.056 C45.984,11.376 46.248,10.944 46.68,10.944 L47.088,10.944 L47.088,10.224 C46.536,10.272 45.936,10.32 45.36,10.32 C44.616,10.32 43.872,10.272 43.128,10.224 L43.128,10.944 L43.44,10.944 C44.04,10.944 44.568,11.016 44.568,11.496 C44.568,11.88 44.448,12.312 44.256,12.792 L42.36,17.64 L42.312,17.64 L40.2,12.168 C40.08,11.856 39.96,11.52 39.96,11.304 C39.96,10.944 40.632,10.944 40.992,10.944 L41.208,10.944 L41.208,10.224 C40.32,10.272 39.432,10.32 38.544,10.32 C37.608,10.32 36.696,10.272 35.76,10.224 L35.76,10.944 L36.12,10.944 C36.672,10.944 36.912,11.304 37.296,12.24 L40.92,21.216 L39.696,24.144 C39.336,23.904 39,23.784 38.496,23.784 C37.728,23.784 37.2,24.432 37.2,25.08 C37.2,25.896 37.776,26.472 38.568,26.472 Z M53.352,21.36 C56.592,21.36 59.136,18.72 59.136,15.456 C59.136,12.096 56.832,9.864 53.352,9.864 C49.992,9.864 47.616,12.36 47.616,15.6 C47.616,18.912 49.968,21.36 53.352,21.36 Z M53.496,20.496 C51.168,20.496 50.544,17.688 50.544,15.672 C50.544,13.728 50.76,10.728 53.304,10.728 C55.632,10.728 56.208,14.304 56.208,16.032 C56.208,18.192 55.728,20.496 53.496,20.496 Z M66.816,21 L66.816,20.28 L66.0780867,20.2791012 C65.1844983,20.2723599 64.68,20.2150588 64.68,19.728 L64.68,13.416 C64.68,12.24 65.424,11.784 66,11.784 C66.744,11.784 66.744,12.696 67.68,12.696 C68.424,12.696 69.024,12.192 69.024,11.28 C69.024,10.248 68.304,9.864 67.488,9.864 C66.24,9.864 65.16,10.968 64.728,11.664 L64.68,11.664 L64.68,10.008 L64.416,9.864 C63.048,10.488 61.752,11.04 60.48,11.28 L60.48,11.856 L61.248,12 L61.248,12 C61.848,12.096 61.992,12.336 61.992,13.128 L61.992,19.656 C61.992,20.184 61.488,20.28 60.672,20.28 L60.432,20.28 L60.432,21 C61.44,20.976 62.424,20.904 63.432,20.904 C64.56,20.904 65.688,20.976 66.816,21 Z M73.536,21.36 C75.528,21.36 77.616,20.424 77.616,17.832 C77.616,14.184 72.648,14.784 72.648,12.168 C72.648,11.232 73.464,10.728 74.28,10.728 C75.816,10.728 76.32,11.76 76.44,13.104 L77.112,12.984 C77.04,12.144 77.088,11.304 77.16,10.44 C76.248,10.104 75.408,9.864 74.328,9.864 C72.12,9.864 70.488,11.184 70.488,13.296 C70.488,16.992 75.312,16.608 75.312,18.912 C75.312,19.968 74.448,20.496 73.512,20.496 C72.096,20.496 71.304,19.248 71.16,17.928 L70.488,18.072 L70.704,20.736 C71.52,21.024 72.384,21.36 73.536,21.36 Z M103.08,12.576 C103.08,7.56 99.456,4.248 93.552,4.248 C92.52,4.248 91.224,4.344 89.688,4.344 C88.152,4.344 86.568,4.248 85.848,4.248 L85.848,4.968 L86.184,4.968 C87.048,4.968 87.96,5.088 87.96,6.336 L87.96,18.912 C87.96,20.1057391 87.1255803,20.2674329 86.296889,20.2792366 L85.848,20.28 L85.848,21 C86.472,21 88.176,20.904 89.808,20.904 C91.44,20.904 93.12,20.952 94.176,21 C99.048,21.288 103.08,17.376 103.08,12.576 Z M93.528,20.136 C91.8,20.136 91.032,19.92 91.032,18.24 L91.032,5.232 C91.56,5.184 92.112,5.112 92.664,5.112 C96.504,5.112 99.72,6.696 99.72,13.032 C99.72,16.728 97.608,20.136 93.528,20.136 Z M107.352,6.504 C108.168,6.504 108.816,5.856 108.816,5.04 C108.816,4.248 108.168,3.576 107.352,3.576 C106.536,3.576 105.888,4.248 105.888,5.04 C105.888,5.856 106.536,6.504 107.352,6.504 Z M110.208,21 L110.208,20.28 L109.848,20.28 C109.248,20.28 108.696,20.28 108.696,19.704 L108.696,10.08 L108.432,9.864 C107.904,10.08 107.328,10.392 106.776,10.584 C106.152,10.8 105.336,11.088 104.592,11.28 L104.592,11.856 C104.88,11.928 105.144,12.024 105.432,12.096 C105.96,12.24 106.008,12.384 106.008,12.768 L106.008,19.56 C106.008,20.2376471 105.519031,20.2775087 104.881246,20.2798535 L104.592,20.28 L104.592,21 C105.528,20.952 106.488,20.904 107.472,20.904 C108.384,20.904 109.296,20.952 110.208,21 Z M119.928,21.36 C121.08,21.36 121.728,20.736 122.448,19.848 L122.136,19.416 C121.992,19.56 121.68,19.728 121.464,19.728 C120.792,19.728 120.72,18.984 120.72,17.952 L120.72,13.056 C120.72,10.968 119.592,9.864 117.48,9.864 C117,9.864 116.568,9.888 116.04,10.2 C115.128,10.728 114.24,11.184 113.448,11.592 C112.704,11.976 112.128,12.672 112.128,13.608 C112.128,13.968 112.32,14.16 112.584,14.16 C112.944,14.16 114.24,13.848 114.288,13.2 C114.384,11.856 114.744,11.496 116.136,11.496 C117.216,11.496 118.032,12.048 118.032,13.44 L118.032,14.784 L115.056,15.816 L114.693927,15.9494694 C113.140408,16.528898 111.816,17.1497143 111.816,18.888 C111.816,20.472 112.992,21.36 114.432,21.36 C115.968,21.36 117.048,20.496 118.104,19.464 C118.2,20.568 118.776,21.36 119.928,21.36 Z M115.968,19.728 C115.032,19.728 114.504,19.2 114.504,18.168 C114.504,16.488 116.712,16.032 118.032,15.6 L118.032,18.456 C117.768,18.816 117.072,19.728 115.968,19.728 Z M128.88,21 L128.88,20.28 L128.616,20.28 C127.944,20.28 127.368,20.232 127.368,19.536 L127.368,2.88 L127.104,2.664 C125.928,3.216 124.344,3.816 123.264,4.08 L123.264,4.656 C123.528,4.752 123.792,4.872 124.056,4.968 C124.608,5.184 124.68,5.4 124.68,5.928 L124.68,19.536 C124.68,20.28 124.032,20.28 123.264,20.28 L123.264,21 C124.152,20.952 125.136,20.904 126.12,20.904 C127.056,20.904 127.968,20.952 128.88,21 Z M136.056,21.36 C139.296,21.36 141.84,18.72 141.84,15.456 C141.84,12.096 139.536,9.864 136.056,9.864 C132.696,9.864 130.32,12.36 130.32,15.6 C130.32,18.912 132.672,21.36 136.056,21.36 Z M136.2,20.496 C133.872,20.496 133.248,17.688 133.248,15.672 C133.248,13.728 133.464,10.728 136.008,10.728 C138.336,10.728 138.912,14.304 138.912,16.032 C138.912,18.192 138.432,20.496 136.2,20.496 Z M147.936,26.472 C150.48,26.472 154.176,25.176 154.176,21.48 C154.176,19.632 152.688,18.888 151.032,18.888 C149.976,18.888 148.92,19.008 147.864,19.008 C146.928,19.008 145.968,18.984 146.04,17.76 L146.616,17.28 C147.12,17.424 147.648,17.496 148.176,17.496 C150.456,17.496 152.712,16.008 152.712,13.704 C152.712,13.08 152.616,12.504 152.328,11.832 L154.176,11.832 L154.176,10.632 L152.088,10.632 C151.728,10.632 151.296,10.632 151.008,10.488 C150.072,10.032 149.184,9.864 148.08,9.864 C145.872,9.864 143.472,11.28 143.472,13.704 C143.472,15.264 144.456,16.44 145.824,17.064 L143.736,18.504 C143.736,20.136 144.528,20.904 146.16,21.048 L146.16,21.096 C144.384,21.84 143.328,22.32 143.328,23.904 C143.328,25.68 145.68,26.472 147.936,26.472 Z M148.224,16.632 C146.712,16.632 146.16,14.664 146.16,13.464 C146.16,12.24 146.496,10.584 148.056,10.584 C149.592,10.584 150.024,12.792 150.024,13.968 C150.024,15.168 149.688,16.632 148.224,16.632 Z M148.368,25.608 C146.616,25.608 145.296,25.08 145.296,23.472 C145.296,21.648 147.744,21.36 149.232,21.36 C150.528,21.36 152.208,21.528 152.208,23.088 C152.208,24.744 149.976,25.608 148.368,25.608 Z M163.656,21.36 C164.832,20.88 166.224,20.688 167.472,20.472 L167.472,19.896 L166.752,19.896 C166.248,19.896 166.104,19.68 166.104,19.032 L166.104,12.168 C166.104,11.424 166.128,10.68 166.224,10.008 L165.984,9.864 C164.856,10.32 162.864,10.488 161.64,10.56 L161.64,11.136 L162.84,11.52 C163.32,11.688 163.416,11.784 163.416,12.288 L163.416,18.432 C162.864,18.888 162.048,19.44 161.16,19.44 C160.056,19.44 159.384,18.888 159.384,17.472 L159.384,12.168 C159.384,11.424 159.456,10.68 159.504,10.008 L159.264,9.864 C158.112,10.248 156.576,10.488 155.184,10.56 L155.184,11.136 L156.192,11.424 C156.624,11.544 156.696,11.688 156.696,12.048 L156.696,18.552 C156.696,20.184 157.488,21.36 159.624,21.36 C161.016,21.36 162.384,20.328 163.416,19.464 L163.416,21.168 L163.656,21.36 Z M173.664,21.36 C175.68,21.36 177.312,20.04 178.272,18.36 L177.888,17.904 C177.12,18.768 176.184,19.2 175.032,19.2 C172.44,19.2 171.312,16.776 171.312,14.328 L177.792,14.328 L178.08,14.064 C178.128,11.688 176.784,9.864 174.312,9.864 C171.048,9.864 169.008,12.816 169.008,15.84 C169.008,18.576 170.64,21.36 173.664,21.36 Z M174.258858,13.6077968 L171.36,13.608 C171.624,12.12 172.44,10.728 173.904,10.728 C174.984,10.728 175.584,11.808 175.584,12.72 C175.584,13.5464348 175.408333,13.6043251 174.258858,13.6077968 L174.258858,13.6077968 Z" id="MayorsDialogue"></path>
            <path d="M4.04265977,39.7750155 C5.81102408,39.7750155 7.19951753,38.3341261 7.19951753,36.5526628 C7.19951753,34.7188035 5.94201403,33.500597 4.04265977,33.500597 C2.20880049,33.500597 0.912,34.8628925 0.912,36.6312568 C0.912,38.4389181 2.1957015,39.7750155 4.04265977,39.7750155 Z M4.12125374,39.3034517 C2.85065124,39.3034517 2.51007737,37.7708693 2.51007737,36.6705538 C2.51007737,35.6095352 2.62796833,33.9721608 4.01646178,33.9721608 C5.28706428,33.9721608 5.60144016,35.9239111 5.60144016,36.8670387 C5.60144016,38.0459482 5.33946026,39.3034517 4.12125374,39.3034517 Z M14.6921426,39.5785306 L14.6921426,39.1855608 L14.5349547,39.1855608 C14.2205788,39.1855608 13.8931039,39.1855608 13.8931039,38.8187889 L13.8931039,35.1903673 C13.8931039,33.9590618 13.2119562,33.500597 12.2688285,33.500597 C11.4697899,33.500597 10.8017411,34.0638538 10.2253853,34.4568236 L10.2253853,33.618488 L10.0812964,33.500597 C9.79311851,33.618488 9.47874264,33.7887749 9.17746576,33.8935669 C8.83689189,34.0114578 8.39152606,34.1686457 7.98545722,34.2734377 L7.98545722,34.5878136 C8.14264516,34.6271106 8.2867341,34.6795065 8.44392204,34.7188035 C8.73209993,34.7973975 8.75829792,34.8759915 8.75829792,35.0855754 L8.75829792,38.7925909 C8.75829792,39.1624449 8.4914229,39.184201 8.14332504,39.1854808 L7.98545722,39.1855608 L7.98545722,39.5785306 C8.49631802,39.5523326 9.02027782,39.5261346 9.55733661,39.5261346 C10.0550984,39.5261346 10.5528602,39.5523326 11.050622,39.5785306 L11.050622,39.1855608 L10.8541371,39.1855608 C10.5266622,39.1855608 10.2253853,39.1855608 10.2253853,38.8711849 L10.2253853,34.9152885 C10.5135632,34.7319025 10.998226,34.4699226 11.4304929,34.4699226 C12.0199476,34.4699226 12.4260165,34.7711995 12.4260165,35.5702382 L12.4260165,38.8449869 C12.4260165,39.1642749 12.0921456,39.1842304 11.834547,39.1854776 L11.6531758,39.1855608 L11.6531758,39.5785306 C12.1771356,39.5523326 12.6879964,39.5261346 13.2119562,39.5261346 C13.709718,39.5261346 14.1943808,39.5523326 14.6921426,39.5785306 Z M24.3068048,39.7750155 C25.6560013,39.7750155 26.7956138,39.5392336 27.9614244,39.2117588 L27.9614244,38.9759769 L27.6601475,38.8056899 L27.6601475,36.8146427 C27.6601475,36.3561779 27.9090284,36.146594 28.3674932,36.146594 L28.5377802,36.146594 L28.5377802,35.7536241 C27.9483254,35.7798221 27.3719696,35.8060201 26.7825148,35.8060201 C26.1275651,35.8060201 25.4726154,35.7798221 24.8176656,35.7536241 L24.8176656,36.146594 L24.9879525,36.146594 C25.4726154,36.146594 25.9834762,36.2775839 25.9834762,36.8146427 L25.9834762,38.9497789 C25.8131892,39.1069668 25.1582395,39.2117588 24.5294877,39.1986598 C22.0275797,39.1986598 20.9927591,36.8932367 20.9927591,34.7319025 C20.9927591,32.5443704 22.1454707,30.8153031 24.4901907,30.8153031 C26.0227731,30.8153031 27.1361877,31.3785598 27.5291576,32.9897362 L27.9221274,32.9635382 C27.7649395,32.2037965 27.7649395,31.2082729 27.7649395,30.7236101 C27.2409797,30.7105111 26.7956138,30.5926201 26.284753,30.4747292 C25.7738922,30.3568382 25.2106355,30.2389473 24.3984978,30.2389473 C21.7525008,30.2389473 19.1588998,31.8239257 19.1588998,34.8628925 C19.1588998,38.0197502 21.37263,39.7750155 24.3068048,39.7750155 Z M32.5067756,39.5785306 L32.5067756,39.1855608 L32.1040288,39.1850702 C31.6163159,39.1813909 31.3409651,39.1501164 31.3409651,38.8842839 L31.3409651,35.4392482 C31.3409651,34.7973975 31.7470339,34.5485166 32.0614098,34.5485166 C32.4674786,34.5485166 32.4674786,35.0462784 32.9783394,35.0462784 C33.3844083,35.0462784 33.7118831,34.7711995 33.7118831,34.2734377 C33.7118831,33.7101809 33.3189133,33.500597 32.8735475,33.500597 C32.1923997,33.500597 31.602945,34.1031508 31.367163,34.4830216 L31.3409651,34.4830216 L31.3409651,33.579191 L31.1968761,33.500597 C30.4502334,33.8411709 29.7428877,34.1424478 29.048641,34.2734377 L29.048641,34.5878136 L29.4678088,34.6664076 L29.4678088,34.6664076 C29.7952837,34.7188035 29.8738776,34.8497935 29.8738776,35.2820603 L29.8738776,38.8449869 C29.8738776,39.1331648 29.5987987,39.1855608 29.1534329,39.1855608 L29.022443,39.1855608 L29.022443,39.5785306 C29.5726007,39.5654316 30.1096595,39.5261346 30.6598173,39.5261346 C31.2754701,39.5261346 31.8911228,39.5654316 32.5067756,39.5785306 Z M37.5367896,39.7750155 C39.3051539,39.7750155 40.6936474,38.3341261 40.6936474,36.5526628 C40.6936474,34.7188035 39.4361439,33.500597 37.5367896,33.500597 C35.7029303,33.500597 34.4061299,34.8628925 34.4061299,36.6312568 C34.4061299,38.4389181 35.6898313,39.7750155 37.5367896,39.7750155 Z M37.6153836,39.3034517 C36.3447811,39.3034517 36.0042072,37.7708693 36.0042072,36.6705538 C36.0042072,35.6095352 36.1220982,33.9721608 37.5105916,33.9721608 C38.7811941,33.9721608 39.09557,35.9239111 39.09557,36.8670387 C39.09557,38.0459482 38.8335901,39.3034517 37.6153836,39.3034517 Z M44.295871,39.7750155 L46.0249383,35.8584161 L47.6230157,39.7750155 L47.9897875,39.7750155 L49.9546367,34.9807834 C50.1249237,34.5747146 50.2821116,34.0900518 50.7929724,34.0900518 L50.8977644,34.0900518 L50.8977644,33.6970819 C50.5571905,33.7232799 50.2297156,33.7494779 49.8891418,33.7494779 C49.4961719,33.7494779 49.1163011,33.7232799 48.7233312,33.6970819 L48.7233312,34.0900518 L48.8674202,34.0900518 C49.194895,34.0900518 49.4568749,34.1162498 49.4568749,34.4306256 C49.4568749,34.5747146 49.417578,34.7711995 49.365182,34.9283874 L48.3303614,37.6136814 L47.1776498,34.7450015 C47.0990559,34.5485166 47.0597589,34.4306256 47.0597589,34.2734377 C47.0597589,34.1031508 47.3741348,34.0900518 47.5837187,34.0900518 L47.7147086,34.0900518 L47.7147086,33.6970819 C47.2562438,33.7232799 46.78468,33.7494779 46.3262152,33.7494779 C45.7629584,33.7494779 45.1997016,33.7232799 44.6364448,33.6970819 L44.6364448,34.0900518 L44.7805338,34.0900518 C45.0163157,34.0900518 45.3044936,34.1293488 45.4223845,34.3520317 L45.7891564,35.1772683 L44.6757418,37.6922754 L43.4444363,34.6009126 C43.3920403,34.4699226 43.3396443,34.3520317 43.3658423,34.2210417 C43.4015669,34.0781436 43.6321525,34.0868041 43.801721,34.0895597 L43.9683961,34.0900518 L43.9683961,33.6970819 C43.4968323,33.7232799 43.0383675,33.7494779 42.5668036,33.7494779 C42.0559428,33.7494779 41.558181,33.7232799 41.0473202,33.6970819 L41.0473202,34.0900518 L41.1390132,34.0900518 C41.676072,34.0900518 41.715369,34.2734377 41.8987549,34.7581005 L43.9290991,39.7750155 L44.295871,39.7750155 Z M53.4520684,39.7750155 C54.1987111,39.7750155 54.7488689,39.3427487 55.2335317,38.713997 L55.0632447,38.491314 C54.8143638,38.648502 54.6178789,38.727096 54.290404,38.727096 C53.9236322,38.727096 53.5961573,38.569908 53.5961573,38.0197502 L53.5961573,34.4306256 L55.1549377,34.4306256 L55.1549377,33.6970819 L53.5961573,33.6970819 L53.5961573,32.3216875 L53.4389694,32.2430935 C52.8495146,32.9897362 52.0504759,33.7363789 51.3431302,34.1162498 L51.3431302,34.4306256 L52.1290699,34.4306256 L52.1290699,38.4258191 C52.1290699,39.1462638 52.4565448,39.7750155 53.4520684,39.7750155 Z M62.4248799,39.5785306 L62.4248799,39.1855608 L62.2676919,39.1855608 C61.953316,39.1855608 61.6258412,39.1855608 61.6258412,38.8187889 L61.6258412,35.1903673 C61.6258412,33.9590618 60.9446934,33.500597 60.0015658,33.500597 C59.2025271,33.500597 58.5344784,34.0638538 57.9581226,34.4568236 L57.9581226,29.6887895 L57.8140337,29.5708986 C57.1721829,29.8721754 56.3076493,30.1996503 55.7181945,30.3437392 L55.7181945,30.6581151 L56.1504613,30.8284021 C56.4517382,30.946293 56.4910352,31.064184 56.4910352,31.3523619 L56.4910352,38.7794919 C56.4910352,39.1855608 56.1373623,39.1855608 55.7181945,39.1855608 L55.7181945,39.5785306 C56.2290553,39.5523326 56.7530151,39.5261346 57.2900739,39.5261346 C57.7878357,39.5261346 58.2855975,39.5523326 58.7833593,39.5785306 L58.7833593,39.1855608 L58.5868744,39.1855608 C58.2593995,39.1855608 57.9581226,39.1855608 57.9581226,38.8711849 L57.9581226,34.9152885 C58.2463005,34.7319025 58.7309633,34.4699226 59.1632301,34.4699226 C59.7526849,34.4699226 60.1587537,34.7711995 60.1587537,35.5702382 L60.1587537,38.8449869 C60.1587537,39.1642749 59.8248829,39.1842304 59.5672842,39.1854776 L59.385913,39.1855608 L59.385913,39.5785306 C59.9098728,39.5523326 60.4207336,39.5261346 60.9446934,39.5261346 C61.4424552,39.5261346 61.927118,39.5523326 62.4248799,39.5785306 Z M71.3714933,39.7750155 C72.0002451,39.7750155 72.353918,39.4344417 72.7468878,38.9497789 L72.5766009,38.713997 C72.4980069,38.7925909 72.32772,38.8842839 72.209829,38.8842839 C71.8430572,38.8842839 71.8037602,38.4782151 71.8037602,37.9149583 L71.8037602,35.2427633 C71.8037602,34.1031508 71.1881074,33.500597 70.0353959,33.500597 C69.773416,33.500597 69.5376341,33.513696 69.2494562,33.6839829 C68.7516944,33.9721608 68.2670316,34.2210417 67.8347647,34.4437246 C67.4286959,34.6533086 67.11432,35.0331794 67.11432,35.5440402 C67.11432,35.7405251 67.219112,35.8453171 67.3632009,35.8453171 C67.5596858,35.8453171 68.2670316,35.6750302 68.2932295,35.3213573 C68.3456255,34.5878136 68.5421104,34.3913287 69.3018522,34.3913287 C69.8913069,34.3913287 70.3366727,34.6926055 70.3366727,35.4523472 L70.3366727,36.185891 L68.7123974,36.7491477 C67.7823687,37.0897216 66.9440331,37.4040975 66.9440331,38.4258191 C66.9440331,39.2903527 67.5858838,39.7750155 68.3718235,39.7750155 C69.2101592,39.7750155 69.799614,39.3034517 70.3759697,38.740195 C70.4283657,39.3427487 70.7427416,39.7750155 71.3714933,39.7750155 Z M69.2101592,38.8842839 C68.6992984,38.8842839 68.4111205,38.596106 68.4111205,38.0328492 C68.4111205,37.1159196 69.616228,36.8670387 70.3366727,36.6312568 L70.3366727,38.1900372 C70.1925838,38.3865221 69.8127129,38.8842839 69.2101592,38.8842839 Z M79.898939,39.5785306 L79.898939,39.1855608 L79.7417511,39.1855608 C79.4273752,39.1855608 79.0999003,39.1855608 79.0999003,38.8187889 L79.0999003,35.1903673 C79.0999003,33.9590618 78.4187526,33.500597 77.4756249,33.500597 C76.6765863,33.500597 76.0085375,34.0638538 75.4321817,34.4568236 L75.4321817,33.618488 L75.2880928,33.500597 C74.9999149,33.618488 74.685539,33.7887749 74.3842622,33.8935669 C74.0436883,34.0114578 73.5983225,34.1686457 73.1922536,34.2734377 L73.1922536,34.5878136 C73.3494416,34.6271106 73.4935305,34.6795065 73.6507184,34.7188035 C73.9388963,34.7973975 73.9650943,34.8759915 73.9650943,35.0855754 L73.9650943,38.7925909 C73.9650943,39.1624449 73.6982193,39.184201 73.3501214,39.1854808 L73.1922536,39.1855608 L73.1922536,39.5785306 C73.7031144,39.5523326 74.2270742,39.5261346 74.764133,39.5261346 C75.2618948,39.5261346 75.7596566,39.5523326 76.2574184,39.5785306 L76.2574184,39.1855608 L76.0609335,39.1855608 C75.7334586,39.1855608 75.4321817,39.1855608 75.4321817,38.8711849 L75.4321817,34.9152885 C75.7203596,34.7319025 76.2050224,34.4699226 76.6372893,34.4699226 C77.226744,34.4699226 77.6328129,34.7711995 77.6328129,35.5702382 L77.6328129,38.8449869 C77.6328129,39.1642749 77.298942,39.1842304 77.0413434,39.1854776 L76.8599722,39.1855608 L76.8599722,39.5785306 C77.383932,39.5523326 77.8947928,39.5261346 78.4187526,39.5261346 C78.9165144,39.5261346 79.4011772,39.5523326 79.898939,39.5785306 Z M85.086141,39.7750155 C85.2433289,39.7226196 85.6886947,39.6047286 86.1471595,39.4606397 C86.5925254,39.3296497 87.0378912,39.2248578 87.1950791,39.1986598 L87.1950791,38.8711849 L86.4353374,38.9366799 L86.4353374,29.6756905 L86.2781495,29.5708986 C85.5839028,29.9507694 84.8241611,30.2389473 84.0906173,30.4878282 L84.0906173,30.7105111 L84.96825,31.024887 L84.96825,33.6970819 C84.6669731,33.566092 84.3525972,33.500597 83.8941324,33.500597 C82.2698571,33.500597 80.6848787,34.9807834 80.6848787,37.0242266 C80.6848787,38.556809 81.7327983,39.7750155 83.0034008,39.7750155 C83.9203304,39.7750155 84.3263993,39.4606397 84.981349,38.8973829 L84.981349,39.6964216 L85.086141,39.7750155 Z M83.8941324,38.8842839 C82.8593118,38.8842839 82.1519661,37.7708693 82.1519661,36.3692769 C82.1519661,35.3344563 82.49254,34.0769528 83.6714495,34.0769528 C84.1954093,34.0769528 84.7324681,34.4306256 84.96825,34.9152885 L84.96825,38.491314 C84.7455671,38.661601 84.3133003,38.8842839 83.8941324,38.8842839 Z M93.9541605,39.7750155 C95.6308318,39.7750155 97.1241172,38.8318879 97.1241172,37.0242266 C97.1241172,33.8804679 93.1944188,34.5354176 93.1944188,32.3609845 C93.1944188,31.3261639 93.7707745,30.7105111 94.8055951,30.7105111 C95.7094258,30.7105111 96.2595836,31.5226488 96.3512765,32.3740835 L96.7180484,32.3085885 C96.6394544,31.6798367 96.5870584,31.051085 96.5870584,30.4354322 C96.1809896,30.3830362 95.067575,30.2389473 94.7008032,30.2389473 C93.0110328,30.2389473 91.8059253,31.2475699 91.8059253,32.9504392 C91.8059253,36.107297 95.6570298,35.3868523 95.6570298,37.7053744 C95.6570298,38.635403 94.9365851,39.1986598 94.0458534,39.1986598 C92.8014489,39.1986598 92.1726972,38.2293342 92.0155092,37.1159196 L91.6487374,37.1945136 C91.7142324,37.8625623 91.8059253,38.517512 91.8714203,39.1855608 C92.513271,39.5130356 93.2206168,39.7750155 93.9541605,39.7750155 Z M101.289598,39.7750155 C103.057962,39.7750155 104.446455,38.3341261 104.446455,36.5526628 C104.446455,34.7188035 103.188952,33.500597 101.289598,33.500597 C99.4557383,33.500597 98.1589378,34.8628925 98.1589378,36.6312568 C98.1589378,38.4389181 99.4426393,39.7750155 101.289598,39.7750155 Z M101.368192,39.3034517 C100.097589,39.3034517 99.7570152,37.7708693 99.7570152,36.6705538 C99.7570152,35.6095352 99.8749061,33.9721608 101.2634,33.9721608 C102.534002,33.9721608 102.848378,35.9239111 102.848378,36.8670387 C102.848378,38.0459482 102.586398,39.3034517 101.368192,39.3034517 Z M108.29756,39.5785306 L108.29756,39.1855608 L108.153471,39.1855608 C107.786699,39.1855608 107.472323,39.1593628 107.472323,38.7794919 L107.472323,29.6887895 L107.328234,29.5708986 C106.686383,29.8721754 105.82185,30.1996503 105.232395,30.3437392 L105.232395,30.6581151 L105.664662,30.8284021 L105.664662,30.8284021 C105.965939,30.946293 106.005236,31.064184 106.005236,31.3523619 L106.005236,38.7794919 C106.005236,39.1855608 105.651563,39.1855608 105.232395,39.1855608 L105.232395,39.5785306 C105.717058,39.5523326 106.254117,39.5261346 106.791175,39.5261346 C107.302036,39.5261346 107.799798,39.5523326 108.29756,39.5785306 Z M110.3803,31.6667377 C110.825666,31.6667377 111.179339,31.3130649 111.179339,30.867699 C111.179339,30.4354322 110.825666,30.0686604 110.3803,30.0686604 C109.934934,30.0686604 109.581261,30.4354322 109.581261,30.867699 C109.581261,31.3130649 109.934934,31.6667377 110.3803,31.6667377 Z M111.93908,39.5785306 L111.93908,39.1855608 L111.742595,39.1855608 C111.415121,39.1855608 111.113844,39.1855608 111.113844,38.8711849 L111.113844,33.618488 L110.969755,33.500597 C110.681577,33.618488 110.367201,33.7887749 110.065924,33.8935669 C109.72535,34.0114578 109.279984,34.1686457 108.873916,34.2734377 L108.873916,34.5878136 C109.031104,34.6271106 109.175192,34.6795065 109.33238,34.7188035 C109.620558,34.7973975 109.646756,34.8759915 109.646756,35.0855754 L109.646756,38.7925909 C109.646756,39.1624449 109.379881,39.184201 109.031783,39.1854808 L108.873916,39.1855608 L108.873916,39.5785306 C109.384776,39.5523326 109.908736,39.5261346 110.445795,39.5261346 C110.943557,39.5261346 111.441319,39.5523326 111.93908,39.5785306 Z M117.126282,39.7750155 C117.28347,39.7226196 117.728836,39.6047286 118.187301,39.4606397 C118.632667,39.3296497 119.078033,39.2248578 119.235221,39.1986598 L119.235221,38.8711849 L118.475479,38.9366799 L118.475479,29.6756905 L118.318291,29.5708986 C117.624044,29.9507694 116.864302,30.2389473 116.130759,30.4878282 L116.130759,30.7105111 L117.008391,31.024887 L117.008391,33.6970819 C116.707115,33.566092 116.392739,33.500597 115.934274,33.500597 C114.309998,33.500597 112.72502,34.9807834 112.72502,37.0242266 C112.72502,38.556809 113.77294,39.7750155 115.043542,39.7750155 C115.960472,39.7750155 116.366541,39.4606397 117.02149,38.8973829 L117.02149,39.6964216 L117.126282,39.7750155 Z M115.934274,38.8842839 C114.899453,38.8842839 114.192108,37.7708693 114.192108,36.3692769 C114.192108,35.3344563 114.532681,34.0769528 115.711591,34.0769528 C116.235551,34.0769528 116.77261,34.4306256 117.008391,34.9152885 L117.008391,38.491314 C116.785709,38.661601 116.353442,38.8842839 115.934274,38.8842839 Z M124.527214,39.7750155 C125.155966,39.7750155 125.509639,39.4344417 125.902609,38.9497789 L125.732322,38.713997 C125.653728,38.7925909 125.483441,38.8842839 125.36555,38.8842839 C124.998778,38.8842839 124.959481,38.4782151 124.959481,37.9149583 L124.959481,35.2427633 C124.959481,34.1031508 124.343829,33.500597 123.191117,33.500597 C122.929137,33.500597 122.693355,33.513696 122.405177,33.6839829 C121.907415,33.9721608 121.422753,34.2210417 120.990486,34.4437246 C120.584417,34.6533086 120.270041,35.0331794 120.270041,35.5440402 C120.270041,35.7405251 120.374833,35.8453171 120.518922,35.8453171 C120.715407,35.8453171 121.422753,35.6750302 121.448951,35.3213573 C121.501347,34.5878136 121.697832,34.3913287 122.457573,34.3913287 C123.047028,34.3913287 123.492394,34.6926055 123.492394,35.4523472 L123.492394,36.185891 L121.868119,36.7491477 L121.670502,36.8219942 C120.822605,37.1382413 120.099754,37.4770776 120.099754,38.4258191 C120.099754,39.2903527 120.741605,39.7750155 121.527545,39.7750155 C122.36588,39.7750155 122.955335,39.3034517 123.531691,38.740195 C123.584087,39.3427487 123.898463,39.7750155 124.527214,39.7750155 Z M122.36588,38.8842839 C121.85502,38.8842839 121.566842,38.596106 121.566842,38.0328492 C121.566842,37.1159196 122.771949,36.8670387 123.492394,36.6312568 L123.492394,38.1900372 C123.348305,38.3865221 122.968434,38.8842839 122.36588,38.8842839 Z M129.753713,39.5785306 L129.753713,39.1855608 L129.350967,39.1850702 C128.863254,39.1813909 128.587903,39.1501164 128.587903,38.8842839 L128.587903,35.4392482 C128.587903,34.7973975 128.993972,34.5485166 129.308348,34.5485166 C129.714416,34.5485166 129.714416,35.0462784 130.225277,35.0462784 C130.631346,35.0462784 130.958821,34.7711995 130.958821,34.2734377 C130.958821,33.7101809 130.565851,33.500597 130.120485,33.500597 C129.439338,33.500597 128.849883,34.1031508 128.614101,34.4830216 L128.587903,34.4830216 L128.587903,33.579191 L128.443814,33.500597 C127.697171,33.8411709 126.989826,34.1424478 126.295579,34.2734377 L126.295579,34.5878136 L126.714747,34.6664076 L126.714747,34.6664076 C127.042221,34.7188035 127.120815,34.8497935 127.120815,35.2820603 L127.120815,38.8449869 C127.120815,39.1331648 126.845737,39.1855608 126.400371,39.1855608 L126.269381,39.1855608 L126.269381,39.5785306 C126.819539,39.5654316 127.356597,39.5261346 127.906755,39.5261346 C128.522408,39.5261346 129.138061,39.5654316 129.753713,39.5785306 Z M132.949868,31.6667377 C133.395234,31.6667377 133.748907,31.3130649 133.748907,30.867699 C133.748907,30.4354322 133.395234,30.0686604 132.949868,30.0686604 C132.504502,30.0686604 132.150829,30.4354322 132.150829,30.867699 C132.150829,31.3130649 132.504502,31.6667377 132.949868,31.6667377 Z M134.508649,39.5785306 L134.508649,39.1855608 L134.312164,39.1855608 C133.984689,39.1855608 133.683412,39.1855608 133.683412,38.8711849 L133.683412,33.618488 L133.539323,33.500597 C133.251145,33.618488 132.936769,33.7887749 132.635492,33.8935669 C132.294918,34.0114578 131.849553,34.1686457 131.443484,34.2734377 L131.443484,34.5878136 C131.600672,34.6271106 131.744761,34.6795065 131.901949,34.7188035 C132.190126,34.7973975 132.216324,34.8759915 132.216324,35.0855754 L132.216324,38.7925909 C132.216324,39.1624449 131.949449,39.184201 131.601352,39.1854808 L131.443484,39.1855608 L131.443484,39.5785306 C131.954345,39.5523326 132.478304,39.5261346 133.015363,39.5261346 C133.513125,39.5261346 134.010887,39.5523326 134.508649,39.5785306 Z M137.180844,39.7750155 C137.927486,39.7750155 138.477644,39.3427487 138.962307,38.713997 L138.79202,38.491314 C138.543139,38.648502 138.346654,38.727096 138.019179,38.727096 C137.652407,38.727096 137.324932,38.569908 137.324932,38.0197502 L137.324932,34.4306256 L138.883713,34.4306256 L138.883713,33.6970819 L137.324932,33.6970819 L137.324932,32.3216875 L137.167745,32.2430935 C136.57829,32.9897362 135.779251,33.7363789 135.071905,34.1162498 L135.071905,34.4306256 L135.857845,34.4306256 L135.857845,38.4258191 C135.857845,39.1462638 136.18532,39.7750155 137.180844,39.7750155 Z M140.87476,42.5651014 C141.346324,42.5651014 141.673799,42.1721316 141.870284,41.7005678 L144.542479,35.2427633 C144.922349,34.3258337 145.066438,34.0900518 145.30222,34.0900518 L145.524903,34.0900518 L145.524903,33.6970819 C145.223626,33.7232799 144.896151,33.7494779 144.581776,33.7494779 C144.175707,33.7494779 143.769638,33.7232799 143.363569,33.6970819 L143.363569,34.0900518 L143.533856,34.0900518 C143.861331,34.0900518 144.149509,34.1293488 144.149509,34.3913287 C144.149509,34.6009126 144.084014,34.8366945 143.979222,35.0986744 L142.944401,37.7446713 L142.918203,37.7446713 L141.765492,34.7581005 C141.699997,34.5878136 141.634502,34.4044277 141.634502,34.2865367 C141.634502,34.0900518 142.001274,34.0900518 142.197759,34.0900518 L142.315649,34.0900518 L142.315649,33.6970819 C141.830987,33.7232799 141.346324,33.7494779 140.861661,33.7494779 C140.3508,33.7494779 139.853038,33.7232799 139.342178,33.6970819 L139.342178,34.0900518 L139.538663,34.0900518 C139.839939,34.0900518 139.970929,34.2865367 140.180513,34.7973975 L142.158462,39.6964216 L141.490413,41.2944989 C141.293928,41.163509 141.110542,41.098014 140.835463,41.098014 C140.416295,41.098014 140.128117,41.4516869 140.128117,41.8053597 C140.128117,42.2507256 140.442493,42.5651014 140.87476,42.5651014 Z" id="onGrowthandSolidarity"></path>
        </g>
    </g>
</svg>