<?xml version="1.0" encoding="UTF-8"?>
<svg width="179px" height="42px" viewBox="0 0 179 42" version="1.1" xmlns="http://www.w3.org/2000/svg" xmlns:xlink="http://www.w3.org/1999/xlink">
    <title>logo-xs</title>
    <g id="logo-xs" stroke="none" stroke-width="1" fill="none" fill-rule="evenodd">
        <path d="M8.6,16.74 L12.68,7.732 L12.712,7.732 L13.16,14.484 C13.17,14.744 13.17375,14.91025 13.1751563,15.04525 L13.1759687,15.19625 C13.176,15.22025 13.176,15.244 13.176,15.268 C13.176,15.972 12.632,15.972 11.8,16.02 L11.8,16.5 C12.68,16.468 13.56,16.436 14.44,16.436 C15.208,16.436 15.992,16.468 16.744,16.5 L16.744,16.02 C15.784,15.988 15.384,15.924 15.32,15.124 L14.712,7.796 C14.68,7.444 14.616,6.964 14.632,6.548 C14.664,5.844 15.64,5.812 16.12,5.812 L16.264,5.812 L16.264,5.332 C15.704,5.332 15.128,5.396 14.568,5.396 C13.992,5.396 13.416,5.332 12.936,5.332 L9.144,13.7 L5.4,5.332 C4.92,5.332 4.44,5.396 3.96,5.396 C3.304,5.396 2.664,5.332 2.008,5.332 L2.008,5.812 L2.216,5.812 C2.92,5.812 3.608,6.116 3.608,7.012 C3.608,7.652 3.544,8.692 3.416,9.828 L2.936,14.276 C2.792,15.428 2.744,15.972 1.48,16.02 L1.256,16.02 L1.256,16.5 C1.88,16.468 2.52,16.436 3.144,16.436 C3.864,16.436 4.6,16.468 5.32,16.5 L5.32,16.02 L5.128,16.02 C4.68,16.004 4.344,15.988 4.104,15.844 C3.896,15.7 3.768,15.444 3.768,14.932 L4.312,7.908 L4.344,7.908 L8.216,16.74 L8.6,16.74 Z M23.128,16.74 C23.896,16.74 24.328,16.324 24.808,15.732 L24.6,15.444 C24.504,15.54 24.296,15.652 24.152,15.652 C23.7338667,15.652 23.6641778,15.2199289 23.6567443,14.6029499 L23.656,11.204 C23.656,9.812 22.904,9.076 21.496,9.076 C21.176,9.076 20.888,9.092 20.536,9.3 C19.928,9.652 19.336,9.956 18.808,10.228 C18.312,10.484 17.928,10.948 17.928,11.572 C17.928,11.812 18.056,11.94 18.232,11.94 C18.472,11.94 19.336,11.732 19.368,11.3 C19.432,10.404 19.672,10.164 20.6,10.164 C21.32,10.164 21.864,10.532 21.864,11.46 L21.864,12.356 L19.88,13.044 C18.744,13.46 17.72,13.844 17.72,15.092 C17.72,16.148 18.504,16.74 19.464,16.74 C20.488,16.74 21.208,16.164 21.912,15.476 C21.976,16.212 22.36,16.74 23.128,16.74 Z M20.488,15.652 C19.864,15.652 19.512,15.3 19.512,14.612 C19.512,13.492 20.984,13.188 21.864,12.9 L21.864,14.804 C21.688,15.044 21.224,15.652 20.488,15.652 Z M26.712,20.148 C27.288,20.148 27.688,19.668 27.928,19.092 L31.192,11.204 C31.656,10.084 31.832,9.796 32.12,9.796 L32.392,9.796 L32.392,9.316 C32.024,9.348 31.624,9.38 31.24,9.38 C30.744,9.38 30.248,9.348 29.752,9.316 L29.752,9.796 L29.96,9.796 C30.36,9.796 30.712,9.844 30.712,10.164 C30.712,10.42 30.632,10.708 30.504,11.028 L29.24,14.26 L29.208,14.26 L27.8,10.612 C27.72,10.404 27.64,10.18 27.64,10.036 C27.64,9.796 28.088,9.796 28.328,9.796 L28.472,9.796 L28.472,9.316 C27.88,9.348 27.288,9.38 26.696,9.38 C26.072,9.38 25.464,9.348 24.84,9.316 L24.84,9.796 L25.08,9.796 C25.448,9.796 25.608,10.036 25.864,10.66 L28.28,16.644 L27.464,18.596 C27.224,18.436 27,18.356 26.664,18.356 C26.152,18.356 25.8,18.788 25.8,19.22 C25.8,19.764 26.184,20.148 26.712,20.148 Z M36.568,16.74 C38.728,16.74 40.424,14.98 40.424,12.804 C40.424,10.564 38.888,9.076 36.568,9.076 C34.328,9.076 32.744,10.74 32.744,12.9 C32.744,15.108 34.312,16.74 36.568,16.74 Z M36.664,16.164 C35.112,16.164 34.696,14.292 34.696,12.948 C34.696,11.652 34.84,9.652 36.536,9.652 C38.088,9.652 38.472,12.036 38.472,13.188 C38.472,14.628 38.152,16.164 36.664,16.164 Z M45.544,16.5 L45.544,16.02 L45.304,16.02 C44.552,16.02 44.12,16.02 44.12,15.652 L44.12,11.444 C44.12,10.66 44.616,10.356 45,10.356 C45.496,10.356 45.496,10.964 46.12,10.964 C46.616,10.964 47.016,10.628 47.016,10.02 C47.016,9.332 46.536,9.076 45.992,9.076 C45.16,9.076 44.44,9.812 44.152,10.276 L44.12,10.276 L44.12,9.172 L43.944,9.076 C43.032,9.492 42.168,9.86 41.32,10.02 L41.32,10.404 L41.832,10.5 L41.832,10.5 C42.232,10.564 42.328,10.724 42.328,11.252 L42.328,15.604 C42.328,15.956 41.992,16.02 41.448,16.02 L41.288,16.02 L41.288,16.5 C41.96,16.484 42.616,16.436 43.288,16.436 C44.04,16.436 44.792,16.484 45.544,16.5 Z M50.024,16.74 C51.352,16.74 52.744,16.116 52.744,14.388 C52.744,13.172 51.916,12.664 51.088,12.242 L50.7587627,12.0763123 C50.05392,11.7208711 49.432,11.3677333 49.432,10.612 C49.432,9.988 49.976,9.652 50.52,9.652 C51.544,9.652 51.88,10.34 51.96,11.236 L52.408,11.156 C52.36,10.596 52.392,10.036 52.44,9.46 C51.832,9.236 51.272,9.076 50.552,9.076 C49.08,9.076 47.992,9.956 47.992,11.364 C47.992,13.828 51.208,13.572 51.208,15.108 C51.208,15.812 50.632,16.164 50.008,16.164 C49.064,16.164 48.536,15.332 48.44,14.452 L47.992,14.548 L48.136,16.324 C48.68,16.516 49.256,16.74 50.024,16.74 Z M69.72,10.884 C69.72,7.54 67.304,5.332 63.368,5.332 C62.68,5.332 61.816,5.396 60.792,5.396 C59.768,5.396 58.712,5.332 58.232,5.332 L58.232,5.812 L58.456,5.812 C59.032,5.812 59.64,5.892 59.64,6.724 L59.64,15.108 C59.64,15.8910588 59.1014256,16.0079862 58.557849,16.0190328 L58.232,16.02 L58.232,16.5 C58.648,16.5 59.784,16.436 60.872,16.436 C61.96,16.436 63.08,16.468 63.784,16.5 C67.032,16.692 69.72,14.084 69.72,10.884 Z M63.352,15.924 C62.2,15.924 61.688,15.78 61.688,14.66 L61.688,5.988 C62.04,5.956 62.408,5.908 62.776,5.908 C65.336,5.908 67.48,6.964 67.48,11.188 C67.48,13.652 66.072,15.924 63.352,15.924 Z M72.568,6.836 C73.112,6.836 73.544,6.404 73.544,5.86 C73.544,5.332 73.112,4.884 72.568,4.884 C72.024,4.884 71.592,5.332 71.592,5.86 C71.592,6.404 72.024,6.836 72.568,6.836 Z M74.472,16.5 L74.472,16.02 L74.232,16.02 C73.832,16.02 73.464,16.02 73.464,15.636 L73.464,9.22 L73.288,9.076 C72.936,9.22 72.552,9.428 72.184,9.556 C71.768,9.7 71.224,9.892 70.728,10.02 L70.728,10.404 L71.288,10.564 L71.288,10.564 C71.64,10.66 71.672,10.756 71.672,11.012 L71.672,15.54 C71.672,15.9830769 71.3584379,16.0171598 70.945249,16.0197815 L70.728,16.02 L70.728,16.5 C71.352,16.468 71.992,16.436 72.648,16.436 C73.256,16.436 73.864,16.468 74.472,16.5 Z M80.952,16.74 C81.72,16.74 82.152,16.324 82.632,15.732 L82.424,15.444 C82.328,15.54 82.12,15.652 81.976,15.652 C81.5578667,15.652 81.4881778,15.2199289 81.4807443,14.6029499 L81.48,11.204 C81.48,9.812 80.728,9.076 79.32,9.076 C79,9.076 78.712,9.092 78.36,9.3 C77.752,9.652 77.16,9.956 76.632,10.228 C76.136,10.484 75.752,10.948 75.752,11.572 C75.752,11.812 75.88,11.94 76.056,11.94 C76.296,11.94 77.16,11.732 77.192,11.3 C77.256,10.404 77.496,10.164 78.424,10.164 C79.144,10.164 79.688,10.532 79.688,11.46 L79.688,12.356 L77.704,13.044 C76.568,13.46 75.544,13.844 75.544,15.092 C75.544,16.148 76.328,16.74 77.288,16.74 C78.312,16.74 79.032,16.164 79.736,15.476 C79.8,16.212 80.184,16.74 80.952,16.74 Z M78.312,15.652 C77.688,15.652 77.336,15.3 77.336,14.612 C77.336,13.492 78.808,13.188 79.688,12.9 L79.688,14.804 C79.512,15.044 79.048,15.652 78.312,15.652 Z M86.92,16.5 L86.92,16.02 L86.744,16.02 C86.296,16.02 85.912,15.988 85.912,15.524 L85.912,4.42 L85.736,4.276 C84.952,4.644 83.896,5.044 83.176,5.22 L83.176,5.604 L83.704,5.812 L83.704,5.812 C84.072,5.956 84.12,6.1 84.12,6.452 L84.12,15.524 C84.12,16.02 83.688,16.02 83.176,16.02 L83.176,16.5 C83.768,16.468 84.424,16.436 85.08,16.436 C85.704,16.436 86.312,16.468 86.92,16.5 Z M91.704,16.74 C93.864,16.74 95.56,14.98 95.56,12.804 C95.56,10.564 94.024,9.076 91.704,9.076 C89.464,9.076 87.88,10.74 87.88,12.9 C87.88,15.108 89.448,16.74 91.704,16.74 Z M91.8,16.164 C90.248,16.164 89.832,14.292 89.832,12.948 C89.832,11.652 89.976,9.652 91.672,9.652 C93.224,9.652 93.608,12.036 93.608,13.188 C93.608,14.628 93.288,16.164 91.8,16.164 Z M99.624,20.148 C101.32,20.148 103.784,19.284 103.784,16.82 C103.784,15.588 102.792,15.092 101.688,15.092 C100.984,15.092 100.28,15.172 99.576,15.172 C98.952,15.172 98.312,15.156 98.36,14.34 L98.744,14.02 C99.08,14.116 99.432,14.164 99.784,14.164 C101.304,14.164 102.808,13.172 102.808,11.636 C102.808,11.22 102.744,10.836 102.552,10.388 L103.784,10.388 L103.784,9.588 L102.392,9.588 C102.152,9.588 101.864,9.588 101.672,9.492 C101.048,9.188 100.456,9.076 99.72,9.076 C98.248,9.076 96.648,10.02 96.648,11.636 C96.648,12.676 97.304,13.46 98.216,13.876 L96.824,14.836 C96.824,15.924 97.352,16.436 98.44,16.532 L98.44,16.564 C97.256,17.06 96.552,17.38 96.552,18.436 C96.552,19.62 98.12,20.148 99.624,20.148 Z M99.816,13.588 C98.808,13.588 98.44,12.276 98.44,11.476 C98.44,10.66 98.664,9.556 99.704,9.556 C100.728,9.556 101.016,11.028 101.016,11.812 C101.016,12.612 100.792,13.588 99.816,13.588 Z M99.912,19.572 C98.744,19.572 97.864,19.22 97.864,18.148 C97.864,16.932 99.496,16.74 100.488,16.74 C101.352,16.74 102.472,16.852 102.472,17.892 C102.472,18.996 100.984,19.572 99.912,19.572 Z M110.104,16.74 C110.888,16.42 111.816,16.292 112.648,16.148 L112.648,15.764 L112.168,15.764 C111.832,15.764 111.736,15.62 111.736,15.188 L111.736,10.612 C111.736,10.116 111.752,9.62 111.816,9.172 L111.656,9.076 C110.904,9.38 109.576,9.492 108.76,9.54 L108.76,9.924 L109.56,10.18 C109.88,10.292 109.944,10.356 109.944,10.692 L109.944,14.788 C109.576,15.092 109.032,15.46 108.44,15.46 C107.704,15.46 107.256,15.092 107.256,14.148 L107.256,10.612 C107.256,10.116 107.304,9.62 107.336,9.172 L107.176,9.076 C106.408,9.332 105.384,9.492 104.456,9.54 L104.456,9.924 L105.128,10.116 C105.416,10.196 105.464,10.292 105.464,10.532 L105.464,14.868 C105.464,15.956 105.992,16.74 107.416,16.74 C108.344,16.74 109.256,16.052 109.944,15.476 L109.944,16.612 L110.104,16.74 Z M116.776,16.74 C118.12,16.74 119.208,15.86 119.848,14.74 L119.592,14.436 C119.08,15.012 118.456,15.3 117.688,15.3 C115.96,15.3 115.208,13.684 115.208,12.052 L119.528,12.052 L119.72,11.876 C119.752,10.292 118.856,9.076 117.208,9.076 C115.032,9.076 113.672,11.044 113.672,13.06 C113.672,14.884 114.76,16.74 116.776,16.74 Z M117.208954,11.5717232 L115.24,11.572 C115.416,10.58 115.96,9.652 116.936,9.652 C117.656,9.652 118.056,10.372 118.056,10.98 C118.056,11.5221176 117.942616,11.5681799 117.208954,11.5717232 Z M5.432,34.74 C7.592,34.74 9.288,32.98 9.288,30.804 C9.288,28.564 7.752,27.076 5.432,27.076 C3.192,27.076 1.608,28.74 1.608,30.9 C1.608,33.108 3.176,34.74 5.432,34.74 Z M5.528,34.164 C3.976,34.164 3.56,32.292 3.56,30.948 C3.56,29.652 3.704,27.652 5.4,27.652 C6.952,27.652 7.336,30.036 7.336,31.188 C7.336,32.628 7.016,34.164 5.528,34.164 Z M18.44,34.5 L18.44,34.02 L18.248,34.02 C17.864,34.02 17.464,34.02 17.464,33.572 L17.464,29.14 C17.464,27.636 16.632,27.076 15.48,27.076 C14.504,27.076 13.688,27.764 12.984,28.244 L12.984,27.22 L12.808,27.076 C12.456,27.22 12.072,27.428 11.704,27.556 C11.288,27.7 10.744,27.892 10.248,28.02 L10.248,28.404 L10.808,28.564 L10.808,28.564 C11.16,28.66 11.192,28.756 11.192,29.012 L11.192,33.54 C11.192,33.9830769 10.8784379,34.0171598 10.465249,34.0197815 L10.248,34.02 L10.248,34.5 C10.872,34.468 11.512,34.436 12.168,34.436 C12.776,34.436 13.384,34.468 13.992,34.5 L13.992,34.02 L13.752,34.02 C13.352,34.02 12.984,34.02 12.984,33.636 L12.984,28.804 C13.336,28.58 13.928,28.26 14.456,28.26 C15.176,28.26 15.672,28.628 15.672,29.604 L15.672,33.604 C15.672,33.988 15.2766391,34.0175385 14.9641256,34.0198107 L14.728,34.02 L14.728,34.5 C15.368,34.468 15.992,34.436 16.632,34.436 C17.24,34.436 17.832,34.468 18.44,34.5 Z M30.184,34.74 C31.832,34.74 33.224,34.452 34.648,34.052 L34.648,33.764 L34.28,33.556 L34.28,31.124 C34.28,30.564 34.584,30.308 35.144,30.308 L35.352,30.308 L35.352,29.828 C34.632,29.86 33.928,29.892 33.208,29.892 C32.408,29.892 31.608,29.86 30.808,29.828 L30.808,30.308 L31.016,30.308 C31.608,30.308 32.232,30.468 32.232,31.124 L32.232,33.732 C32.024,33.924 31.224,34.052 30.456,34.036 C27.4,34.036 26.136,31.22 26.136,28.58 C26.136,25.908 27.544,23.796 30.408,23.796 C32.28,23.796 33.64,24.484 34.12,26.452 L34.6,26.42 C34.44,25.6466667 34.4133333,24.6733333 34.4088889,24.0277778 L34.408,23.684 L34.408,23.684 C33.768,23.668 33.224,23.524 32.6,23.38 C31.976,23.236 31.288,23.092 30.296,23.092 C27.064,23.092 23.896,25.028 23.896,28.74 C23.896,32.596 26.6,34.74 30.184,34.74 Z M40.2,34.5 L40.2,34.02 L39.96,34.02 C39.208,34.02 38.776,34.02 38.776,33.652 L38.776,29.444 C38.776,28.66 39.272,28.356 39.656,28.356 C40.152,28.356 40.152,28.964 40.776,28.964 C41.272,28.964 41.672,28.628 41.672,28.02 C41.672,27.332 41.192,27.076 40.648,27.076 C39.816,27.076 39.096,27.812 38.808,28.276 L38.776,28.276 L38.776,27.172 L38.6,27.076 C37.688,27.492 36.824,27.86 35.976,28.02 L35.976,28.404 L36.488,28.5 L36.488,28.5 C36.888,28.564 36.984,28.724 36.984,29.252 L36.984,33.604 C36.984,33.956 36.648,34.02 36.104,34.02 L35.944,34.02 L35.944,34.5 C36.616,34.484 37.272,34.436 37.944,34.436 C38.696,34.436 39.448,34.484 40.2,34.5 Z M46.344,34.74 C48.504,34.74 50.2,32.98 50.2,30.804 C50.2,28.564 48.664,27.076 46.344,27.076 C44.104,27.076 42.52,28.74 42.52,30.9 C42.52,33.108 44.088,34.74 46.344,34.74 Z M46.44,34.164 C44.888,34.164 44.472,32.292 44.472,30.948 C44.472,29.652 44.616,27.652 46.312,27.652 C47.864,27.652 48.248,30.036 48.248,31.188 C48.248,32.628 47.928,34.164 46.44,34.164 Z M54.6,34.74 L56.712,29.956 L58.664,34.74 L59.112,34.74 L61.512,28.884 C61.72,28.388 61.912,27.796 62.536,27.796 L62.664,27.796 L62.664,27.316 C62.248,27.348 61.848,27.38 61.432,27.38 C60.952,27.38 60.488,27.348 60.008,27.316 L60.008,27.796 L60.184,27.796 C60.584,27.796 60.904,27.828 60.904,28.212 C60.904,28.388 60.856,28.628 60.792,28.82 L59.528,32.1 L58.12,28.596 C58.024,28.356 57.976,28.212 57.976,28.02 C57.976,27.812 58.36,27.796 58.616,27.796 L58.776,27.796 L58.776,27.316 C58.216,27.348 57.64,27.38 57.08,27.38 C56.392,27.38 55.704,27.348 55.016,27.316 L55.016,27.796 L55.192,27.796 C55.48,27.796 55.832,27.844 55.976,28.116 L56.424,29.124 L55.064,32.196 L53.56,28.42 C53.496,28.26 53.432,28.116 53.464,27.956 C53.5066667,27.7853333 53.7768889,27.7916543 53.9824966,27.795166 L54.2,27.796 L54.2,27.316 C53.624,27.348 53.064,27.38 52.488,27.38 C51.864,27.38 51.256,27.348 50.632,27.316 L50.632,27.796 L50.744,27.796 C51.4,27.796 51.448,28.02 51.672,28.612 L54.152,34.74 L54.6,34.74 Z M65.784,34.74 C66.696,34.74 67.368,34.212 67.96,33.444 L67.752,33.172 C67.448,33.364 67.208,33.46 66.808,33.46 C66.36,33.46 65.96,33.268 65.96,32.596 L65.96,28.212 L67.864,28.212 L67.864,27.316 L65.96,27.316 L65.96,25.636 L65.768,25.54 C65.048,26.452 64.072,27.364 63.208,27.828 L63.208,28.212 L64.168,28.212 L64.168,33.092 C64.168,33.972 64.568,34.74 65.784,34.74 Z M76.744,34.5 L76.744,34.02 L76.552,34.02 C76.168,34.02 75.768,34.02 75.768,33.572 L75.768,29.14 C75.768,27.636 74.936,27.076 73.784,27.076 C72.808,27.076 71.992,27.764 71.288,28.244 L71.288,22.42 L71.112,22.276 C70.328,22.644 69.272,23.044 68.552,23.22 L68.552,23.604 L69.08,23.812 C69.448,23.956 69.496,24.1 69.496,24.452 L69.496,33.524 C69.496,34.02 69.064,34.02 68.552,34.02 L68.552,34.5 C69.176,34.468 69.816,34.436 70.472,34.436 C71.08,34.436 71.688,34.468 72.296,34.5 L72.296,34.02 L72.056,34.02 C71.656,34.02 71.288,34.02 71.288,33.636 L71.288,28.804 C71.64,28.58 72.232,28.26 72.76,28.26 C73.48,28.26 73.976,28.628 73.976,29.604 L73.976,33.604 C73.976,33.988 73.5806391,34.0175385 73.2681256,34.0198107 L73.032,34.02 L73.032,34.5 C73.672,34.468 74.296,34.436 74.936,34.436 C75.544,34.436 76.136,34.468 76.744,34.5 Z M87.672,34.74 C88.44,34.74 88.872,34.324 89.352,33.732 L89.144,33.444 C89.048,33.54 88.84,33.652 88.696,33.652 C88.2778667,33.652 88.2081778,33.2199289 88.2007443,32.6029499 L88.2,29.204 C88.2,27.812 87.448,27.076 86.04,27.076 C85.72,27.076 85.432,27.092 85.08,27.3 C84.472,27.652 83.88,27.956 83.352,28.228 C82.856,28.484 82.472,28.948 82.472,29.572 C82.472,29.812 82.6,29.94 82.776,29.94 C83.016,29.94 83.88,29.732 83.912,29.3 C83.976,28.404 84.216,28.164 85.144,28.164 C85.864,28.164 86.408,28.532 86.408,29.46 L86.408,30.356 L84.424,31.044 C83.288,31.46 82.264,31.844 82.264,33.092 C82.264,34.148 83.048,34.74 84.008,34.74 C85.032,34.74 85.752,34.164 86.456,33.476 C86.52,34.212 86.904,34.74 87.672,34.74 Z M85.032,33.652 C84.408,33.652 84.056,33.3 84.056,32.612 C84.056,31.492 85.528,31.188 86.408,30.9 L86.408,32.804 C86.232,33.044 85.768,33.652 85.032,33.652 Z M98.088,34.5 L98.088,34.02 L97.896,34.02 C97.512,34.02 97.112,34.02 97.112,33.572 L97.112,29.14 C97.112,27.636 96.28,27.076 95.128,27.076 C94.152,27.076 93.336,27.764 92.632,28.244 L92.632,27.22 L92.456,27.076 C92.104,27.22 91.72,27.428 91.352,27.556 C90.936,27.7 90.392,27.892 89.896,28.02 L89.896,28.404 L90.456,28.564 L90.456,28.564 C90.808,28.66 90.84,28.756 90.84,29.012 L90.84,33.54 C90.84,33.9830769 90.5264379,34.0171598 90.113249,34.0197815 L89.896,34.02 L89.896,34.5 C90.52,34.468 91.16,34.436 91.816,34.436 C92.424,34.436 93.032,34.468 93.64,34.5 L93.64,34.02 L93.4,34.02 C93,34.02 92.632,34.02 92.632,33.636 L92.632,28.804 C92.984,28.58 93.576,28.26 94.104,28.26 C94.824,28.26 95.32,28.628 95.32,29.604 L95.32,33.604 C95.32,33.988 94.9246391,34.0175385 94.6121256,34.0198107 L94.376,34.02 L94.376,34.5 C95.016,34.468 95.64,34.436 96.28,34.436 C96.888,34.436 97.48,34.468 98.088,34.5 Z M104.424,34.74 C104.616,34.676 105.16,34.532 105.72,34.356 C106.264,34.196 106.808,34.068 107,34.036 L107,33.636 L106.072,33.716 L106.072,22.404 L105.88,22.276 C105.032,22.74 104.104,23.092 103.208,23.396 L103.208,23.668 L104.28,24.052 L104.28,27.316 C103.912,27.156 103.528,27.076 102.968,27.076 C100.984,27.076 99.048,28.884 99.048,31.38 C99.048,33.252 100.328,34.74 101.88,34.74 C103,34.74 103.496,34.356 104.296,33.668 L104.296,34.644 L104.424,34.74 Z M102.968,33.652 C101.704,33.652 100.84,32.292 100.84,30.58 C100.84,29.316 101.256,27.78 102.696,27.78 C103.336,27.78 103.992,28.212 104.28,28.804 L104.28,33.172 C104.008,33.38 103.48,33.652 102.968,33.652 Z M115.256,34.74 C117.304,34.74 119.128,33.588 119.128,31.38 C119.128,27.54 114.328,28.34 114.328,25.684 C114.328,24.42 115.032,23.668 116.296,23.668 C117.4,23.668 118.072,24.66 118.184,25.7 L118.632,25.62 C118.536,24.852 118.472,24.084 118.472,23.332 C118.265333,23.3053333 117.908667,23.2592222 117.530472,23.2145 L117.074528,23.1628333 C116.699667,23.1225556 116.354667,23.092 116.168,23.092 C114.104,23.092 112.632,24.324 112.632,26.404 C112.632,30.26 117.336,29.38 117.336,32.212 C117.336,33.348 116.456,34.036 115.368,34.036 C113.848,34.036 113.08,32.852 112.888,31.492 L112.44,31.588 C112.52,32.404 112.632,33.204 112.712,34.02 C113.496,34.42 114.36,34.74 115.256,34.74 Z M124.216,34.74 C126.376,34.74 128.072,32.98 128.072,30.804 C128.072,28.564 126.536,27.076 124.216,27.076 C121.976,27.076 120.392,28.74 120.392,30.9 C120.392,33.108 121.96,34.74 124.216,34.74 Z M124.312,34.164 C122.76,34.164 122.344,32.292 122.344,30.948 C122.344,29.652 122.488,27.652 124.184,27.652 C125.736,27.652 126.12,30.036 126.12,31.188 C126.12,32.628 125.8,34.164 124.312,34.164 Z M132.776,34.5 L132.776,34.02 L132.6,34.02 C132.152,34.02 131.768,33.988 131.768,33.524 L131.768,22.42 L131.592,22.276 C130.808,22.644 129.752,23.044 129.032,23.22 L129.032,23.604 L129.56,23.812 L129.56,23.812 C129.928,23.956 129.976,24.1 129.976,24.452 L129.976,33.524 C129.976,34.02 129.544,34.02 129.032,34.02 L129.032,34.5 C129.624,34.468 130.28,34.436 130.936,34.436 C131.56,34.436 132.168,34.468 132.776,34.5 Z M135.32,24.836 C135.864,24.836 136.296,24.404 136.296,23.86 C136.296,23.332 135.864,22.884 135.32,22.884 C134.776,22.884 134.344,23.332 134.344,23.86 C134.344,24.404 134.776,24.836 135.32,24.836 Z M137.224,34.5 L137.224,34.02 L136.984,34.02 C136.584,34.02 136.216,34.02 136.216,33.636 L136.216,27.22 L136.04,27.076 C135.688,27.22 135.304,27.428 134.936,27.556 C134.52,27.7 133.976,27.892 133.48,28.02 L133.48,28.404 L134.04,28.564 L134.04,28.564 C134.392,28.66 134.424,28.756 134.424,29.012 L134.424,33.54 C134.424,33.9830769 134.110438,34.0171598 133.697249,34.0197815 L133.48,34.02 L133.48,34.5 C134.104,34.468 134.744,34.436 135.4,34.436 C136.008,34.436 136.616,34.468 137.224,34.5 Z M143.56,34.74 C143.752,34.676 144.296,34.532 144.856,34.356 C145.4,34.196 145.944,34.068 146.136,34.036 L146.136,33.636 L145.208,33.716 L145.208,22.404 L145.016,22.276 C144.168,22.74 143.24,23.092 142.344,23.396 L142.344,23.668 L143.416,24.052 L143.416,27.316 C143.048,27.156 142.664,27.076 142.104,27.076 C140.12,27.076 138.184,28.884 138.184,31.38 C138.184,33.252 139.464,34.74 141.016,34.74 C142.136,34.74 142.632,34.356 143.432,33.668 L143.432,34.644 L143.56,34.74 Z M142.104,33.652 C140.84,33.652 139.976,32.292 139.976,30.58 C139.976,29.316 140.392,27.78 141.832,27.78 C142.472,27.78 143.128,28.212 143.416,28.804 L143.416,33.172 C143.144,33.38 142.616,33.652 142.104,33.652 Z M152.6,34.74 C153.368,34.74 153.8,34.324 154.28,33.732 L154.072,33.444 C153.976,33.54 153.768,33.652 153.624,33.652 C153.205867,33.652 153.136178,33.2199289 153.128744,32.6029499 L153.128,29.204 C153.128,27.812 152.376,27.076 150.968,27.076 C150.648,27.076 150.36,27.092 150.008,27.3 C149.4,27.652 148.808,27.956 148.28,28.228 C147.784,28.484 147.4,28.948 147.4,29.572 C147.4,29.812 147.528,29.94 147.704,29.94 C147.944,29.94 148.808,29.732 148.84,29.3 C148.904,28.404 149.144,28.164 150.072,28.164 C150.792,28.164 151.336,28.532 151.336,29.46 L151.336,30.356 L149.352,31.044 C148.216,31.46 147.192,31.844 147.192,33.092 C147.192,34.148 147.976,34.74 148.936,34.74 C149.96,34.74 150.68,34.164 151.384,33.476 C151.448,34.212 151.832,34.74 152.6,34.74 Z M149.96,33.652 C149.336,33.652 148.984,33.3 148.984,32.612 C148.984,31.492 150.456,31.188 151.336,30.9 L151.336,32.804 C151.16,33.044 150.696,33.652 149.96,33.652 Z M158.984,34.5 L158.984,34.02 L158.744,34.02 C157.992,34.02 157.56,34.02 157.56,33.652 L157.56,29.444 C157.56,28.66 158.056,28.356 158.44,28.356 C158.936,28.356 158.936,28.964 159.56,28.964 C160.056,28.964 160.456,28.628 160.456,28.02 C160.456,27.332 159.976,27.076 159.432,27.076 C158.6,27.076 157.88,27.812 157.592,28.276 L157.56,28.276 L157.56,27.172 L157.384,27.076 C156.472,27.492 155.608,27.86 154.76,28.02 L154.76,28.404 L155.272,28.5 L155.272,28.5 C155.672,28.564 155.768,28.724 155.768,29.252 L155.768,33.604 C155.768,33.956 155.432,34.02 154.888,34.02 L154.728,34.02 L154.728,34.5 C155.4,34.484 156.056,34.436 156.728,34.436 C157.48,34.436 158.232,34.484 158.984,34.5 Z M162.888,24.836 C163.432,24.836 163.864,24.404 163.864,23.86 C163.864,23.332 163.432,22.884 162.888,22.884 C162.344,22.884 161.912,23.332 161.912,23.86 C161.912,24.404 162.344,24.836 162.888,24.836 Z M164.792,34.5 L164.792,34.02 L164.552,34.02 C164.152,34.02 163.784,34.02 163.784,33.636 L163.784,27.22 L163.608,27.076 C163.256,27.22 162.872,27.428 162.504,27.556 C162.088,27.7 161.544,27.892 161.048,28.02 L161.048,28.404 L161.608,28.564 L161.608,28.564 C161.96,28.66 161.992,28.756 161.992,29.012 L161.992,33.54 C161.992,33.9830769 161.678438,34.0171598 161.265249,34.0197815 L161.048,34.02 L161.048,34.5 C161.672,34.468 162.312,34.436 162.968,34.436 C163.576,34.436 164.184,34.468 164.792,34.5 Z M168.056,34.74 C168.968,34.74 169.64,34.212 170.232,33.444 L170.024,33.172 C169.72,33.364 169.48,33.46 169.08,33.46 C168.632,33.46 168.232,33.268 168.232,32.596 L168.232,28.212 L170.136,28.212 L170.136,27.316 L168.232,27.316 L168.232,25.636 L168.04,25.54 C167.32,26.452 166.344,27.364 165.48,27.828 L165.48,28.212 L166.44,28.212 L166.44,33.092 C166.44,33.972 166.84,34.74 168.056,34.74 Z M172.568,38.148 C173.144,38.148 173.544,37.668 173.784,37.092 L177.048,29.204 C177.512,28.084 177.688,27.796 177.976,27.796 L178.248,27.796 L178.248,27.316 C177.88,27.348 177.48,27.38 177.096,27.38 C176.6,27.38 176.104,27.348 175.608,27.316 L175.608,27.796 L175.816,27.796 C176.216,27.796 176.568,27.844 176.568,28.164 C176.568,28.42 176.488,28.708 176.36,29.028 L175.096,32.26 L175.064,32.26 L173.656,28.612 C173.576,28.404 173.496,28.18 173.496,28.036 C173.496,27.796 173.944,27.796 174.184,27.796 L174.328,27.796 L174.328,27.316 C173.736,27.348 173.144,27.38 172.552,27.38 C171.928,27.38 171.32,27.348 170.696,27.316 L170.696,27.796 L170.936,27.796 C171.304,27.796 171.464,28.036 171.72,28.66 L174.136,34.644 L173.32,36.596 C173.08,36.436 172.856,36.356 172.52,36.356 C172.008,36.356 171.656,36.788 171.656,37.22 C171.656,37.764 172.04,38.148 172.568,38.148 Z" id="MayorsDialogueonGrowthandSolidarity" fill="#131415" fill-rule="nonzero"></path>
    </g>
</svg>