<?xml version="1.0" encoding="utf-8"?>
<!-- Generator: Adobe Illustrator 25.0.0, SVG Export Plug-In . SVG Version: 6.00 Build 0)  -->
<!DOCTYPE svg PUBLIC "-//W3C//DTD SVG 1.1//EN" "http://www.w3.org/Graphics/SVG/1.1/DTD/svg11.dtd" [
	<!ENTITY ns_extend "http://ns.adobe.com/Extensibility/1.0/">
	<!ENTITY ns_ai "http://ns.adobe.com/AdobeIllustrator/10.0/">
	<!ENTITY ns_graphs "http://ns.adobe.com/Graphs/1.0/">
	<!ENTITY ns_vars "http://ns.adobe.com/Variables/1.0/">
	<!ENTITY ns_imrep "http://ns.adobe.com/ImageReplacement/1.0/">
	<!ENTITY ns_sfw "http://ns.adobe.com/SaveForWeb/1.0/">
	<!ENTITY ns_custom "http://ns.adobe.com/GenericCustomNamespace/1.0/">
	<!ENTITY ns_adobe_xpath "http://ns.adobe.com/XPath/1.0/">
]>
<svg version="1.1" id="Livello_1" xmlns:x="&ns_extend;" xmlns:i="&ns_ai;" xmlns:graph="&ns_graphs;"
	 xmlns="http://www.w3.org/2000/svg" xmlns:xlink="http://www.w3.org/1999/xlink" x="0px" y="0px" viewBox="0 0 400 400"
	 style="enable-background:new 0 0 400 400;" xml:space="preserve">
<style type="text/css">
	.st0{opacity:0.45;fill:#FFFFFF;}
	.st1{fill:none;stroke:#DC4B33;stroke-width:0.9;stroke-miterlimit:10;}
</style>
<metadata>
	<sfw  xmlns="&ns_sfw;">
		<slices></slices>
		<sliceSourceBounds  bottomLeftOrigin="true" height="362.028" width="327.672" x="39.144" y="21.786"></sliceSourceBounds>
	</sfw>
</metadata>
<path class="st0" d="M272.849,16.636L272.849,16.636c14.715,0,29.913,7.779,38.603,19.507c5.573,7.407,8.617,14.875,11.582,21.351
	c0.786,1.71,1.596,3.331,2.422,4.855c0.5,0.835,1.505,2.251,2.307,3.39c0.99,1.404,2.068,2.949,3.109,4.64
	c0.638,1.043,1.275,2.14,1.893,3.288c0.002,0.005,0.021,0.039,0.023,0.044c0.002,0.005,0.021,0.039,0.023,0.044
	c3.884,7.276,7.065,15.531,9.206,23.792c0.944,3.652,1.622,7.489,2.157,11.337c0,0.01,0.012,0.082,0.013,0.092
	s0.012,0.082,0.012,0.092c0.704,5.128,0.934,10.307,1.411,14.879c0.221,2.072,0.52,4.537,0.962,6.574
	c3.944,3.841,10.758,6.971,15.064,14.054c0.002,0.003,0.017,0.029,0.019,0.032c0.002,0.003,0.017,0.029,0.019,0.032
	c7.462,12.392,5.212,28.672-1.123,42.259c-3.658,8.222-9.264,16.527-15.68,23.221c-6.088,6.382-12.471,11.95-18.656,17.404
	c-2.13,1.878-4.192,3.702-6.19,5.524c-0.916,0.835-1.823,1.665-2.72,2.496c-4.318,3.998-8.844,7.42-12.957,10.513
	c-3.254,2.447-6.368,4.779-8.911,7.047c-1.329,1.288-3.177,5.1-4.563,7.776c-1.116,2.118-2.282,4.396-3.572,6.745
	c-0.739,1.329-1.506,2.689-2.315,4.062c-0.006,0.007-0.059,0.103-0.065,0.109c-0.006,0.007-0.06,0.102-0.065,0.109
	c-5.063,8.485-10.327,15.969-15.347,22.84c-2.659,3.781-4.05,10.123-5.706,17.146c-2.131,6.622-4.636,13.325-8.024,20.273
	c-3.319,6.588-6.027,13.767-9.419,20.852c-0.002,0.011-0.034,0.065-0.036,0.076c-0.002,0.011-0.034,0.065-0.036,0.076
	c-4.609,9.62-10.439,17.507-19.205,22.29c-2.862,1.682-6.185,2.308-9.789,2.308c-7.476,0-14.928-2.196-21.221-3.907
	c-2.1-0.572-4.818-1.298-6.567-1.602c-1.701,0.157-3.354,0.313-4.957,0.485c-1.182,0.124-2.311,0.27-3.428,0.399
	c-2.921,0.417-5.731,0.675-8.456,0.77c-2.504,0.089-4.934,0.035-7.289-0.166c-11.68-1.008-21.634-5.696-29.98-15.258
	c-2.652-2.996-5.376-5.99-8.071-9.109c-1.546-1.019-4.699-2.384-7.071-3.394c-6.753-2.881-14.797-5.985-21.748-12.144
	c-8.284-7.265-13.947-16.893-14.738-27.632c-0.577-8.574,1.182-15.874,4.906-22.493c3.664-6.67,8.963-11.928,15.314-16.457
	c3.941-2.887,8.403-5.583,12.988-8.057c7.115-3.843,13.594-6.795,17.536-10.113c-0.819-1.226-1.688-2.535-2.592-3.934
	c-1.065-1.656-2.158-3.343-3.219-5.1c-0.1-0.109-1.039-0.855-1.143-0.96c-0.212-0.214-1.774-2.097-1.997-2.299
	c-0.507-0.509-1.545-1.424-2.37-2.15c-4.044-3.549-9.393-8.228-12.631-15.756c-0.729-1.39-2.815-3.931-3.253-5.283
	c-1.446-3.299-2.631-6.374-3.567-9.275c-1.493-0.539-3.03-1.156-4.561-1.902c-1.633-0.797-3.183-1.709-4.614-2.756
	c-4.884-3.474-7.9-8.407-10.594-13.841c-1.505-2.988-2.713-5.876-4.07-8.33c-0.092-0.171-0.184-0.339-0.275-0.504
	c-5.652-2.589-14.325-3.685-21.01-9.283c-8.63-6.354-8.975-15.899-11.957-22.157c-0.718-2.027-1.403-3.638-2.116-4.866
	c-0.085-0.017-0.184-0.561-0.27-0.576c-0.02-0.003-0.043-0.128-0.063-0.132c-0.02-0.003-0.041-0.128-0.061-0.131
	c-1.468-3.479-2.498-6.443-2.911-10.053c-0.174-2.314,0.057-4.532,0.366-6.598c0.052-0.333,0.114-0.688,0.179-1.047
	c-0.424-1.303-0.849-2.763-1.267-4.359c-0.839-3.531-1.096-7.579-0.811-12.062c0.352-3.79,0.955-8.182,1.61-12.849
	c0.384-4.996,0.791-9.617,4.742-14.709c0.005-0.009,0.06-0.073,0.065-0.083c0.005-0.009,0.061-0.073,0.066-0.082
	c0.737-0.915,1.556-1.802,2.463-2.669c4.192-3.924,9.713-6.239,13.837-8.226c0.956-0.46,1.823-0.899,2.604-1.323
	c0.158-0.086,0.321-0.176,0.486-0.267c2.021-2.348,3.734-5.297,7.061-8.239c2.83-2.54,6.374-4.27,10.194-5.349
	c4.379-1.237,9.137-1.602,13.56-1.499c1.5,0.08,2.98,0.259,4.45,0.519c9.112,1.436,16.452,5.861,21.436,6.703c0,0,0,0,0,0
	c0.469,0.114,0.894,0.233,1.352,0.354c3.043,0.768,5.798,1.598,8.31,2.681c2.052,0.885,3.925,1.92,5.624,3.058
	c1.336,0.911,2.533,1.89,3.625,2.837c1.613,0.236,3.335,0.547,5.186,0.9c2.689,0.55,5.308,1.15,8.016,1.491
	c0.286,0.036,0.57,0.077,0.893,0.118c0.955,0.098,1.873,0.198,2.756,0.303c0.854-0.896,1.687-1.847,2.523-2.836
	c5.451-6.293,8.617-13.539,14.773-17.814c0.947-0.688,1.923-1.32,2.928-1.896c6-3.599,12.926-4.921,20.676-4.921
	c4.392,0,8.646,0.411,12.585,0.805c1.596-0.569,3.33-1.125,5.209-1.636c0.177-0.047,0.354-0.093,0.531-0.138
	c0.342-0.09,0.643-0.18,0.987-0.259c4.214-0.961,6.429-2.436,10.64-3.076c0.814-0.12,1.573-0.142,2.356-0.108
	c0.385,0.017,0.766,0.049,1.143,0.092c1.778-1.261,3.776-2.212,6.012-3.519c0.551-0.286,1.101-0.618,1.671-0.915
	c6.906-3.598,11.092-9.502,17.512-12.834C262.271,17.778,267.467,16.636,272.849,16.636"/>
<g>
	<path class="st1" d="M259.3,66.1c7.5,0,15.3,4.2,19.5,9.9c4.3,5.7,6.3,11.7,9.2,17.7c1.8,3.6,4.6,6.7,6.5,10.1
		c3.6,6.5,6.4,14.4,7.8,21.9c1.4,7.8,0,18.8,3.7,25.8c2.7,5.2,9.4,5.7,12.5,10.8c6.1,10.1-1.5,24.7-8.3,32.1
		c-7.5,8.2-16.4,15.1-24.5,22.7c-6.4,6-14.1,10.6-20.4,16.5c-6.6,6.2-8.4,16.3-12.5,24c-3.5,6.4-7.7,11.7-12.5,17.3
		c-11.9,13.9-7.5,34.8-17.2,49.3c-2.1,3.1-5.1,4.1-8.6,4.1c-7.4,0-16.8-4.6-23.8-4.6c-0.9,0-1.7,0.1-2.5,0.2
		c-4.1,0.9-7.9,1.4-11.4,1.4c-8.2,0-15-2.9-20.9-11.8c-6.3-9.4-19.5-9.8-27.6-17c-5.6-4.9-9.7-12.5-7.3-21.6
		c3.9-14.8,16.9-14.3,29.7-16.8c10.5-2.1,22.6-8.8,15.7-21.1c-4.2-7.6-13.4-10-15.3-19.3l-3.8-2.9c-3.2-4-8.2-6.7-10.7-11.5
		c-3.2-6.1,1-15.3-3.4-20.5c-4-4.8-12-2.8-17.1-4.4c-9-2.7-6.2-11.8-12.5-16.5c-4.4-3.3-11.5-1.2-15.6-5.6c-2.7-2.8-2.6-6.3-2.7-9.9
		c-0.1-7,5.3-13.8,3.1-20.6c-1.9-5.8-6.3-9.5-0.7-15.6c2.8-3,8.2-4.5,11.7-6.4c4.8-2.6,4.8-5.7,8.1-8.6c2.1-1.9,5.3-2.6,8.6-2.6
		c3.9,0,8,1,10.7,2c7.6,2.8,10.7,11.4,18.7,11.4c0.4,0,0.7,0,1.1,0c2.4-0.2,4.7-0.6,7-0.6c1.7,0,3.4,0.2,5,0.8c4.5,1.6,7.4,7,12.3,7
		c0.2,0,0.4,0,0.7,0c11.9-1.2,7.5-13.3,11.2-18.8c4.3-6.4,10.4-7.9,16.9-7.9c4.8,0,9.8,0.8,14.6,1.1c0.3,0,0.5,0,0.8,0
		c4.4,0,3.6-2.7,7.4-4.3c0.7-0.3,1.3-0.4,2-0.4c2.5,0,5.1,1.6,7.6,1.9c0.6,0.1,1.2,0.1,1.8,0.1c8.6,0,8.3-8.9,12.8-13.5
		C250.3,67.6,254.7,66.1,259.3,66.1"/>
</g>
<path class="st1" d="M260.203,62.802L260.203,62.802c7.981,0,16.274,4.439,20.774,10.54c4.385,5.814,6.454,11.912,9.359,17.943
	c0.652,1.314,1.425,2.562,2.238,3.779c0.606,0.899,1.268,1.822,1.903,2.727c0.869,1.237,1.718,2.484,2.449,3.78
	c0.489,0.875,0.964,1.777,1.424,2.702c0.005,0.011,0.012,0.024,0.018,0.035c0.005,0.011,0.012,0.024,0.018,0.035
	c2.977,6.006,5.292,12.882,6.564,19.479c0.523,2.807,0.704,5.997,0.874,9.265c0.001,0.024,0.003,0.052,0.004,0.077
	s0.003,0.052,0.004,0.077c0.213,4.078,0.399,8.271,1.22,11.975c0.386,1.74,0.915,3.406,1.655,4.886
	c2.783,5.109,9.491,5.785,12.671,11.017c0.005,0.008,0.011,0.018,0.016,0.026c0.005,0.008,0.011,0.018,0.015,0.026
	c6.139,10.251-1.092,24.929-7.85,32.73c-3.435,4.037-7.272,7.828-11.24,11.436c-3.593,3.272-7.268,6.428-10.85,9.645
	c-1.174,1.054-2.335,2.112-3.479,3.182c-0.512,0.479-1.031,0.95-1.555,1.414c-2.386,2.117-4.905,4.065-7.415,5.961
	c-1.742,1.316-3.483,2.61-5.163,3.917c-1.317,1.026-2.653,2.233-3.926,3.393c-1.076,0.974-2.132,1.979-3.162,3.02
	c-0.622,0.626-1.206,1.286-1.761,1.973c-0.014,0.017-0.031,0.039-0.045,0.056c-0.014,0.017-0.031,0.039-0.045,0.056
	c-3.231,4.053-5.354,8.938-7.388,13.747c-1.31,3.152-2.504,6.459-3.995,9.52c-3.409,6.415-7.496,11.808-12.202,17.498
	c-4.863,5.861-7.028,12.902-8.653,20.166c-0.005,0.026-0.013,0.055-0.018,0.081c-0.005,0.026-0.013,0.055-0.018,0.081
	c-2.233,10.054-3.452,20.418-9.278,28.573c-2.151,3.005-5.172,3.981-8.679,3.981c-4.877,0-10.504-1.872-15.756-3.25
	c-1.677-0.44-3.365-0.843-4.925-1.101c-1.29-0.183-2.535-0.289-3.715-0.278c-0.919,0.008-1.741,0.111-2.562,0.213
	c-2.168,0.461-4.254,0.812-6.26,1.04c-1.881,0.214-3.691,0.32-5.43,0.307c-8.432-0.067-15.442-3.086-21.505-12.031
	c-1.783-2.596-4.05-4.565-6.568-6.216c-1.592-0.987-3.393-1.865-5.185-2.664c-5.648-2.521-11.821-4.503-16.466-8.63
	c-5.779-5.058-9.983-12.793-7.796-22.002c1.815-7.607,5.989-11.424,11.351-13.749c5.171-2.259,11.431-3.081,17.717-4.528
	c3.712-0.882,7.643-2.283,10.929-4.242c5.191-3.095,8.704-7.563,7.094-13.649c-0.362-1.043-0.859-2.134-1.507-3.275
	c-0.773-1.381-1.698-2.609-2.705-3.75c-0.24-0.263-0.541-0.562-0.79-0.814c-0.509-0.514-1.126-1.12-1.662-1.603
	c-0.581-0.527-1.206-1.069-1.818-1.597c-3.699-3.191-7.469-6.382-8.73-12.001c-0.049-0.093-3.734-2.969-3.764-3.059
	c-1.578-2.072-3.552-3.831-5.434-5.667c-0.983-0.834-1.951-1.693-2.844-2.627c-0.972-1.018-1.85-2.121-2.559-3.368
	c-2.276-3.95-1.482-9.232-1.88-13.935c-0.217-2.504-0.756-4.829-2.271-6.676c-0.095-0.118-0.193-0.233-0.292-0.344
	c-4.191-4.255-11.995-2.585-17.087-4.415c-8.975-2.944-6.385-12.073-12.464-16.877c-1.324-1.092-2.889-1.67-4.539-2.069
	c-0.204-0.04-0.41-0.114-0.617-0.15c-0.047-0.008-0.095-0.025-0.142-0.033c-0.047-0.008-0.095-0.024-0.143-0.032
	c-3.416-0.787-7.03-1.153-9.48-3.994c-1.408-1.602-1.986-3.398-2.234-5.289c-0.038-0.293-0.067-0.59-0.091-0.89
	c-0.144-1.247-0.182-2.544-0.244-3.861c-0.101-3.376,1.023-6.743,2.012-10.117c1.071-3.575,1.958-7.164,0.935-10.771
	c-1.486-4.947-4.665-8.445-2.08-13.15c0.012-0.023,0.027-0.049,0.04-0.071c0.012-0.023,0.028-0.049,0.04-0.071
	c0.446-0.778,1.048-1.586,1.836-2.437c2.893-3.062,8.301-4.616,11.842-6.522c0.82-0.44,1.506-0.892,2.095-1.353
	c0.124-0.097,0.245-0.195,0.361-0.294c2.493-2.217,3.108-4.685,5.781-7.035c2.149-1.943,5.372-2.711,8.706-2.783
	c3.932-0.082,8.076,0.827,10.891,1.767c1.187,0.406,2.273,0.945,3.292,1.568c5.699,3.446,9.232,9.497,15.887,9.553c0,0,0,0,0,0
	c0.405,0.008,0.713,0.016,1.117,0.024c2.443-0.135,4.773-0.457,7.087-0.381c1.723,0.056,3.435,0.315,5.042,0.951
	c1.138,0.434,2.174,1.094,3.162,1.839c1.183,0.817,2.317,1.76,3.488,2.609c1.809,1.321,3.683,2.413,5.951,2.434
	c0.206,0.002,0.411,0.005,0.713,0.008c0.801-0.068,1.533-0.18,2.202-0.333c1.108-0.334,2.035-0.791,2.817-1.345
	c5.565-3.913,3.532-12.735,6.771-17.225c0.57-0.8,1.169-1.524,1.794-2.177c4.259-4.494,9.736-5.65,15.553-5.65
	c3.292,0,6.657,0.362,9.974,0.693c1.479,0.099,2.961,0.193,4.437,0.252c0.146,0.006,0.292,0.012,0.437,0.017
	c0.303-0.006,0.51-0.012,0.812-0.017c4.388-0.07,3.789-2.682,7.616-4.218c0.708-0.288,1.318-0.383,2.024-0.381
	c0.326,0.001,0.654,0.028,0.983,0.075c2.169,0.212,4.406,1.313,6.588,1.47c0.597,0.074,1.194,0.051,1.791,0.032
	c8.492-0.262,8.486-8.94,13.114-13.456C251.098,64.279,255.551,62.802,260.203,62.802"/>
<path class="st1" d="M261.107,59.505L261.107,59.505c8.462,0,17.248,4.677,22.047,11.181c4.47,5.928,6.609,12.123,9.518,18.187
	c0.662,1.342,1.438,2.617,2.251,3.856c0.599,0.894,1.285,1.853,1.932,2.774c0.877,1.249,1.743,2.518,2.496,3.841
	c0.499,0.887,0.986,1.803,1.458,2.743c0.005,0.011,0.013,0.025,0.018,0.036c0.005,0.011,0.013,0.025,0.018,0.036
	c3.042,6.097,5.419,13.071,6.753,19.787c0.553,2.868,0.77,6.104,0.966,9.413c0.001,0.023,0.004,0.055,0.005,0.078
	s0.004,0.055,0.005,0.078c0.248,4.153,0.437,8.416,1.234,12.182c0.375,1.763,0.887,3.487,1.606,5.006
	c2.866,5.019,9.581,5.869,12.842,11.234c0.005,0.008,0.011,0.018,0.016,0.026c0.005,0.008,0.011,0.018,0.016,0.026
	c6.233,10.404-0.641,25.196-7.369,33.411c-3.451,4.336-7.414,8.449-11.557,12.278c-3.771,3.494-7.639,6.823-11.407,10.2
	c-1.242,1.113-2.468,2.226-3.673,3.349c-0.541,0.504-1.088,1.001-1.638,1.492c-2.524,2.251-5.186,4.305-7.811,6.286
	c-1.85,1.396-3.689,2.765-5.431,4.141c-1.318,1.045-2.691,2.438-3.972,3.706c-1.079,1.055-2.142,2.151-3.191,3.286
	c-0.63,0.676-1.228,1.386-1.8,2.122c-0.013,0.016-0.033,0.044-0.046,0.06c-0.013,0.016-0.033,0.044-0.046,0.06
	c-3.362,4.37-5.709,9.44-7.957,14.396c-1.406,3.197-2.614,6.72-4.117,10.064c-3.317,6.43-7.291,11.917-11.903,17.696
	c-4.753,5.913-6.956,12.964-8.707,20.215c-0.005,0.025-0.014,0.055-0.019,0.08s-0.014,0.055-0.019,0.08
	c-2.403,10.023-3.951,20.21-9.987,28.124c-2.202,2.911-5.245,3.861-8.758,3.861c-5.063,0-10.82-1.895-16.147-3.297
	c-1.707-0.449-3.469-0.876-5.042-1.137c-1.319-0.159-2.593-0.246-3.804-0.223c-0.938,0.016-1.781,0.123-2.624,0.227
	c-2.222,0.458-4.359,0.802-6.416,1.021c-1.925,0.205-3.78,0.3-5.563,0.273c-8.664-0.134-15.885-3.273-22.111-12.261
	c-1.845-2.624-4.145-4.667-6.676-6.423c-1.589-0.989-3.486-1.902-5.32-2.716c-5.727-2.546-12.034-4.609-16.843-8.881
	c-5.958-5.215-10.266-13.086-8.292-22.404c1.644-7.676,5.646-11.742,10.891-14.374c5.063-2.574,11.255-3.713,17.545-5.38
	c3.728-1.025,7.697-2.519,11.076-4.515c5.328-3.148,9.053-7.508,7.84-13.397c-0.394-1.056-0.919-2.163-1.585-3.322
	c-0.794-1.401-1.731-2.661-2.741-3.846c-0.23-0.252-0.576-0.583-0.816-0.824c-0.488-0.493-1.172-1.19-1.686-1.653
	c-0.575-0.526-1.231-1.094-1.857-1.636c-3.723-3.217-7.606-6.514-9.009-12.269c-0.097-0.185-3.669-3.037-3.727-3.218
	c-1.569-2.16-3.487-4.012-5.3-5.924c-1.019-0.813-2.028-1.655-2.966-2.575c-1.019-1.002-1.945-2.091-2.706-3.325
	c-2.463-3.916-1.94-9.173-2.503-13.928c-0.309-2.539-0.896-4.904-2.399-6.795c-0.095-0.122-0.192-0.24-0.291-0.355
	c-4.296-4.136-12.161-2.663-17.367-4.763c-8.951-3.187-6.57-12.346-12.428-17.254c-1.28-1.159-2.783-1.81-4.366-2.269
	c-0.196-0.039-0.394-0.146-0.592-0.18c-0.045-0.008-0.091-0.032-0.137-0.04c-0.045-0.008-0.091-0.032-0.137-0.039
	c-3.276-0.98-6.706-1.531-9.011-4.427c-1.32-1.653-1.84-3.479-2.048-5.383c-0.032-0.296-0.054-0.597-0.071-0.901
	c-0.164-1.251-0.23-2.559-0.317-3.897c-0.153-3.387,0.872-6.803,1.81-10.256c1.019-3.59,1.886-7.236,0.983-10.919
	c-1.352-4.95-4.275-8.528-1.593-13.261c0.011-0.022,0.03-0.051,0.042-0.072c0.012-0.022,0.03-0.05,0.042-0.072
	c0.467-0.788,1.084-1.602,1.881-2.453c2.986-3.123,8.402-4.732,11.985-6.643c0.829-0.441,1.528-0.893,2.131-1.351
	c0.127-0.097,0.25-0.194,0.37-0.292c2.459-2.227,3.153-4.729,5.872-7.121c2.197-1.985,5.444-2.822,8.813-2.967
	c3.964-0.164,8.152,0.653,11.081,1.533c1.209,0.382,2.324,0.896,3.375,1.493c5.943,3.303,9.747,9.237,16.283,9.35c0,0,0,0,0,0
	c0.409,0.015,0.726,0.031,1.134,0.047c2.486-0.071,4.846-0.313,7.175-0.162c1.746,0.113,3.47,0.429,5.083,1.101
	c1.153,0.468,2.2,1.15,3.195,1.91c1.214,0.776,2.39,1.673,3.609,2.487c1.872,1.266,3.799,2.318,6.099,2.367
	c0.211,0.004,0.423,0.01,0.726,0.016c0.812-0.056,1.557-0.153,2.242-0.287c1.09-0.374,2.01-0.867,2.796-1.451
	c5.557-4.083,3.895-12.793,7.343-17.267c0.597-0.792,1.223-1.509,1.875-2.157c4.383-4.43,9.964-5.598,15.919-5.598
	c3.37,0,6.799,0.365,10.161,0.701c1.487,0.051,2.987,0.099,4.492,0.117c0.148,0.002,0.296,0.004,0.444,0.006
	c0.306-0.012,0.519-0.025,0.825-0.034c4.376-0.139,3.977-2.665,7.832-4.137c0.715-0.276,1.336-0.366,2.048-0.361
	c0.331,0.002,0.662,0.03,0.994,0.076c2.141,0.107,4.361,1.062,6.546,1.114c0.593,0.049,1.187,0.002,1.783-0.035
	c8.382-0.52,8.672-8.98,13.428-13.411C251.896,60.957,256.402,59.505,261.107,59.505"/>
<path class="st1" d="M262.01,56.207L262.01,56.207c8.943,0,18.223,4.916,23.321,11.821c4.555,6.041,6.763,12.335,9.676,18.43
	c0.672,1.37,1.45,2.672,2.264,3.933c0.591,0.89,1.302,1.883,1.961,2.822c0.886,1.261,1.768,2.551,2.543,3.903
	c0.51,0.899,1.009,1.829,1.491,2.785c0.005,0.01,0.013,0.026,0.018,0.036c0.005,0.01,0.013,0.026,0.018,0.036
	c3.106,6.187,5.546,13.26,6.941,20.095c0.583,2.928,0.836,6.21,1.057,9.561c0.001,0.022,0.004,0.057,0.005,0.079
	c0.001,0.022,0.004,0.057,0.005,0.079c0.283,4.228,0.476,8.562,1.247,12.389c0.363,1.787,0.859,3.567,1.556,5.127
	c2.949,4.928,9.672,5.954,13.013,11.451c0.004,0.007,0.012,0.019,0.016,0.027c0.004,0.007,0.012,0.019,0.016,0.027
	c6.328,10.557-0.191,25.464-6.889,34.091c-3.467,4.635-7.557,9.071-11.874,13.12c-3.949,3.716-8.011,7.217-11.965,10.754
	c-1.311,1.172-2.601,2.339-3.866,3.516c-0.57,0.53-1.144,1.052-1.721,1.569c-2.662,2.386-5.468,4.544-8.207,6.612
	c-1.958,1.477-3.895,2.92-5.698,4.364c-1.319,1.064-2.728,2.642-4.017,4.019c-1.082,1.137-2.153,2.324-3.221,3.552
	c-0.638,0.727-1.249,1.486-1.84,2.272c-0.013,0.015-0.035,0.048-0.048,0.063s-0.035,0.048-0.048,0.063
	c-3.493,4.687-6.064,9.942-8.525,15.046c-1.503,3.242-2.725,6.982-4.239,10.609c-3.226,6.444-7.087,12.025-11.605,17.895
	c-4.642,5.965-6.885,13.026-8.762,20.264c-0.005,0.024-0.016,0.056-0.02,0.08c-0.005,0.024-0.016,0.056-0.02,0.08
	c-2.572,9.992-4.45,20.002-10.696,27.675c-2.252,2.816-5.317,3.742-8.838,3.742c-5.249,0-11.136-1.918-16.537-3.344
	c-1.737-0.459-3.572-0.908-5.159-1.173c-1.349-0.135-2.652-0.203-3.893-0.169c-0.956,0.025-1.822,0.134-2.686,0.24
	c-2.275,0.455-4.465,0.792-6.573,1.001c-1.97,0.197-3.868,0.28-5.696,0.239c-8.896-0.202-16.327-3.459-22.716-12.492
	c-1.907-2.653-4.24-4.768-6.783-6.629c-1.585-0.991-3.58-1.939-5.455-2.768c-5.806-2.572-12.246-4.714-17.22-9.132
	c-6.137-5.373-10.549-13.379-8.788-22.806c1.474-7.745,5.303-12.06,10.43-14.998c4.956-2.889,11.079-4.345,17.374-6.232
	c3.744-1.169,7.751-2.755,11.223-4.787c5.465-3.202,9.402-7.453,8.585-13.144c-0.427-1.069-0.978-2.192-1.662-3.369
	c-0.815-1.421-1.764-2.714-2.778-3.943c-0.22-0.241-0.612-0.604-0.841-0.835c-0.467-0.471-1.218-1.26-1.709-1.703
	c-0.57-0.524-1.255-1.12-1.896-1.676c-3.748-3.242-7.743-6.646-9.287-12.537c-0.146-0.278-3.603-3.106-3.691-3.377
	c-1.559-2.247-3.421-4.194-5.167-6.182c-1.056-0.791-2.105-1.617-3.089-2.524c-1.066-0.986-2.04-2.062-2.852-3.281
	c-2.649-3.882-2.399-9.114-3.125-13.922c-0.401-2.573-1.035-4.979-2.528-6.913c-0.095-0.126-0.191-0.248-0.29-0.367
	c-4.4-4.017-12.328-2.742-17.647-5.111c-8.926-3.431-6.755-12.62-12.391-17.631c-1.237-1.226-2.676-1.951-4.193-2.468
	c-0.187-0.037-0.378-0.178-0.567-0.211c-0.043-0.008-0.088-0.039-0.131-0.047c-0.044-0.007-0.087-0.039-0.131-0.046
	c-3.137-1.172-6.382-1.908-8.542-4.859c-1.231-1.704-1.694-3.56-1.862-5.476c-0.025-0.299-0.041-0.604-0.052-0.912
	c-0.184-1.255-0.277-2.575-0.39-3.932c-0.206-3.398,0.72-6.862,1.608-10.395c0.968-3.605,1.814-7.309,1.031-11.068
	c-1.219-4.954-3.885-8.612-1.106-13.373c0.011-0.021,0.032-0.052,0.043-0.073c0.011-0.021,0.033-0.052,0.044-0.073
	c0.488-0.798,1.12-1.617,1.926-2.47c3.078-3.185,8.503-4.848,12.127-6.765c0.839-0.443,1.551-0.893,2.168-1.349
	c0.129-0.096,0.255-0.193,0.379-0.29c2.426-2.236,3.198-4.773,5.963-7.207c2.246-2.028,5.515-2.932,8.919-3.15
	c3.996-0.245,8.227,0.48,11.272,1.3c1.231,0.359,2.374,0.847,3.458,1.418c6.186,3.159,10.263,8.978,16.679,9.146c0,0,0,0,0,0
	c0.414,0.023,0.739,0.047,1.15,0.071c2.529-0.006,4.919-0.169,7.262,0.056c1.77,0.17,3.505,0.544,5.125,1.252
	c1.167,0.502,2.226,1.207,3.229,1.981c1.244,0.734,2.462,1.586,3.731,2.365c1.935,1.211,3.915,2.227,6.246,2.3
	c0.217,0.007,0.434,0.015,0.739,0.024c0.823-0.044,1.582-0.126,2.281-0.242c1.072-0.415,1.985-0.942,2.775-1.558
	c5.549-4.253,4.258-12.85,7.914-17.31c0.624-0.784,1.277-1.495,1.956-2.137c4.508-4.366,10.192-5.546,16.285-5.546
	c3.449,0,6.941,0.369,10.347,0.709c1.496,0.004,3.014,0.005,4.548-0.018c0.15-0.002,0.3-0.003,0.45-0.005
	c0.308-0.018,0.529-0.037,0.837-0.052c4.364-0.208,4.166-2.647,8.048-4.055c0.723-0.264,1.355-0.348,2.071-0.342
	c0.335,0.003,0.67,0.031,1.006,0.077c2.113,0.002,4.316,0.81,6.505,0.757c0.59,0.023,1.181-0.047,1.774-0.103
	c8.271-0.776,8.858-9.02,13.742-13.367C252.694,57.636,257.253,56.207,262.01,56.207"/>
<path class="st1" d="M262.913,52.91L262.913,52.91c9.424,0,19.197,5.154,24.594,12.462c4.639,6.155,6.918,12.547,9.835,18.674
	c0.681,1.399,1.462,2.727,2.277,4.01c0.583,0.885,1.319,1.914,1.99,2.869c0.895,1.273,1.793,2.584,2.59,3.964
	c0.521,0.911,1.031,1.855,1.525,2.827c0.005,0.01,0.014,0.027,0.019,0.037s0.014,0.027,0.019,0.037
	c3.171,6.278,5.672,13.449,7.13,20.403c0.613,2.988,0.901,6.317,1.149,9.709c0.001,0.021,0.005,0.059,0.006,0.08
	s0.005,0.059,0.006,0.08c0.318,4.303,0.514,8.707,1.261,12.597c0.351,1.811,0.831,3.648,1.507,5.248
	c3.032,4.838,9.762,6.039,13.184,11.668c0.004,0.007,0.012,0.02,0.016,0.027c0.004,0.007,0.012,0.02,0.016,0.027
	c6.422,10.71,0.259,25.731-6.409,34.772c-3.483,4.934-7.699,9.692-12.191,13.961c-4.127,3.938-8.383,7.612-12.523,11.308
	c-1.379,1.231-2.733,2.453-4.06,3.684c-0.599,0.555-1.201,1.103-1.804,1.646c-2.8,2.52-5.749,4.784-8.603,6.937
	c-2.066,1.558-4.101,3.075-5.966,4.588c-1.32,1.083-2.765,2.847-4.063,4.332c-1.085,1.219-2.164,2.497-3.25,3.818
	c-0.647,0.777-1.271,1.587-1.88,2.421c-0.012,0.015-0.037,0.053-0.049,0.067s-0.037,0.053-0.049,0.067
	c-3.624,5.003-6.419,10.445-9.094,15.695c-1.599,3.287-2.835,7.244-4.361,11.154c-3.135,6.459-6.883,12.133-11.306,18.093
	c-4.532,6.017-6.813,13.088-8.817,20.313c-0.005,0.023-0.017,0.057-0.022,0.08c-0.005,0.023-0.017,0.057-0.022,0.08
	c-2.742,9.961-4.949,19.794-11.405,27.226c-2.303,2.722-5.389,3.622-8.917,3.622c-5.434,0-11.452-1.942-16.927-3.391
	c-1.767-0.468-3.676-0.941-5.277-1.209c-1.378-0.111-2.71-0.16-3.981-0.114c-0.975,0.033-1.863,0.145-2.747,0.253
	c-2.329,0.452-4.57,0.782-6.73,0.982c-2.014,0.188-3.957,0.259-5.829,0.206c-9.128-0.269-16.769-3.646-23.321-12.722
	c-1.969-2.682-4.334-4.87-6.89-6.836c-1.582-0.994-3.673-1.976-5.59-2.82c-5.885-2.598-12.459-4.82-17.598-9.383
	c-6.316-5.531-10.832-13.672-9.284-23.208c1.303-7.814,4.959-12.378,9.97-15.623c4.848-3.204,10.902-4.976,17.202-7.084
	c3.761-1.312,7.806-2.99,11.37-5.06c5.603-3.255,9.752-7.398,9.331-12.891c-0.46-1.082-1.037-2.22-1.74-3.417
	c-0.836-1.44-1.797-2.766-2.815-4.039c-0.21-0.23-0.648-0.625-0.866-0.845c-0.445-0.45-1.264-1.33-1.733-1.752
	c-0.565-0.523-1.279-1.145-1.936-1.715c-3.773-3.268-7.881-6.778-9.566-12.805c-0.194-0.371-3.537-3.175-3.654-3.536
	c-1.55-2.335-3.355-4.376-5.034-6.44c-1.092-0.77-2.182-1.578-3.212-2.472c-1.114-0.97-2.136-2.032-2.999-3.237
	c-2.835-3.848-2.857-9.055-3.747-13.915c-0.493-2.608-1.175-5.054-2.656-7.031c-0.095-0.13-0.191-0.256-0.288-0.378
	c-4.504-3.898-12.494-2.82-17.928-5.458c-8.901-3.674-6.94-12.893-12.355-18.009c-1.194-1.293-2.57-2.092-4.02-2.668
	c-0.179-0.035-0.362-0.209-0.542-0.241c-0.041-0.007-0.084-0.047-0.125-0.054c-0.042-0.007-0.084-0.047-0.125-0.053
	c-2.998-1.364-6.059-2.286-8.073-5.292c-1.143-1.755-1.548-3.641-1.677-5.57c-0.019-0.302-0.029-0.611-0.033-0.924
	c-0.204-1.259-0.325-2.591-0.463-3.968c-0.259-3.409,0.569-6.922,1.407-10.534c0.917-3.621,1.743-7.382,1.08-11.216
	c-1.085-4.957-3.496-8.696-0.618-13.484c0.01-0.02,0.034-0.054,0.045-0.074c0.011-0.02,0.035-0.054,0.046-0.074
	c0.509-0.807,1.157-1.633,1.97-2.487c3.171-3.246,8.604-4.964,12.27-6.887c0.849-0.444,1.574-0.894,2.204-1.347
	c0.131-0.095,0.261-0.191,0.388-0.288c2.392-2.245,3.242-4.817,6.055-7.293c2.295-2.071,5.587-3.043,9.025-3.333
	c4.028-0.327,8.303,0.306,11.463,1.067c1.254,0.336,2.425,0.798,3.541,1.344c6.43,3.015,10.779,8.718,17.076,8.942c0,0,0,0,0,0
	c0.419,0.031,0.752,0.062,1.167,0.094c2.572,0.058,4.992-0.025,7.349,0.275c1.793,0.228,3.54,0.659,5.166,1.402
	c1.181,0.536,2.251,1.264,3.262,2.052c1.275,0.693,2.535,1.5,3.852,2.243c1.998,1.156,4.031,2.136,6.394,2.232
	c0.223,0.009,0.445,0.02,0.752,0.031c0.834-0.032,1.606-0.099,2.321-0.197c1.053-0.455,1.96-1.017,2.754-1.664
	c5.541-4.423,4.621-12.907,8.486-17.352c0.651-0.776,1.331-1.48,2.037-2.117c4.632-4.302,10.42-5.494,16.651-5.494
	c3.527,0,7.083,0.373,10.533,0.717c1.504-0.044,3.04-0.089,4.603-0.153c0.152-0.005,0.305-0.011,0.457-0.016
	c0.311-0.024,0.538-0.049,0.85-0.069c4.351-0.275,4.354-2.63,8.264-3.974c0.73-0.252,1.373-0.331,2.095-0.322
	c0.339,0.005,0.678,0.032,1.017,0.078c2.085-0.104,4.271,0.558,6.464,0.401c0.587-0.003,1.174-0.096,1.765-0.171
	c8.158-1.029,9.045-9.061,14.057-13.322C253.492,54.314,258.105,52.91,262.913,52.91"/>
<path class="st1" d="M263.816,49.612L263.816,49.612c9.905,0,20.171,5.393,25.868,13.102c4.724,6.269,7.072,12.758,9.994,18.917
	c0.691,1.427,1.474,2.782,2.29,4.086c0.576,0.881,1.335,1.945,2.018,2.916c0.903,1.285,1.818,2.617,2.637,4.026
	c0.531,0.923,1.053,1.881,1.558,2.869c0.005,0.009,0.015,0.028,0.019,0.038s0.015,0.028,0.019,0.038
	c3.236,6.369,5.799,13.639,7.319,20.711c0.643,3.049,0.967,6.423,1.241,9.857c0.001,0.02,0.006,0.061,0.007,0.081
	c0.001,0.02,0.005,0.061,0.006,0.081c0.353,4.378,0.552,8.852,1.274,12.804c0.339,1.835,0.802,3.729,1.457,5.368
	c3.115,4.747,9.853,6.124,13.355,11.885c0.004,0.007,0.013,0.021,0.017,0.028c0.004,0.007,0.013,0.021,0.017,0.028
	c6.517,10.863,0.71,25.999-5.928,35.453c-3.499,5.233-7.841,10.313-12.508,14.803c-4.306,4.16-8.754,8.006-13.08,11.862
	c-1.447,1.29-2.866,2.567-4.254,3.851c-0.628,0.581-1.257,1.154-1.888,1.723c-2.938,2.654-6.03,5.024-8.999,7.262
	c-2.174,1.639-4.307,3.23-6.234,4.811c-1.32,1.101-2.803,3.052-4.108,4.645c-1.087,1.3-2.174,2.669-3.279,4.084
	c-0.655,0.827-1.292,1.687-1.919,2.57c-0.012,0.014-0.039,0.057-0.051,0.071s-0.039,0.057-0.051,0.071
	c-3.755,5.32-6.775,10.947-9.662,16.345c-1.695,3.332-2.946,7.506-4.484,11.698c-3.044,6.474-6.679,12.242-11.008,18.291
	c-4.422,6.069-6.742,13.149-8.872,20.362c-0.004,0.022-0.019,0.058-0.023,0.079c-0.004,0.022-0.019,0.058-0.023,0.079
	c-2.912,9.93-5.448,19.586-12.114,26.777c-2.354,2.627-5.462,3.503-8.996,3.503c-5.62,0-11.768-1.965-17.318-3.438
	c-1.798-0.477-3.78-0.973-5.394-1.244c-1.407-0.086-2.769-0.117-4.07-0.06c-0.994,0.041-1.904,0.157-2.809,0.266
	c-2.383,0.448-4.676,0.773-6.887,0.963c-2.059,0.179-4.046,0.239-5.961,0.172c-9.36-0.336-17.211-3.832-23.927-12.953
	c-2.031-2.71-4.429-4.972-6.998-7.043c-1.579-0.996-3.766-2.013-5.724-2.873c-5.964-2.624-12.671-4.926-17.975-9.634
	c-6.495-5.688-11.116-13.964-9.78-23.611c1.132-7.883,4.616-12.696,9.51-16.247c4.74-3.519,10.726-5.608,17.031-7.936
	c3.777-1.455,7.86-3.226,11.517-5.332c5.74-3.308,10.101-7.343,10.077-12.639c-0.492-1.095-1.096-2.249-1.817-3.464
	c-0.857-1.46-1.829-2.819-2.852-4.136c-0.2-0.219-0.683-0.646-0.891-0.856c-0.424-0.428-1.311-1.399-1.757-1.802
	c-0.56-0.522-1.303-1.171-1.975-1.755c-3.797-3.293-8.018-6.909-9.845-13.074c-0.243-0.463-3.472-3.243-3.618-3.694
	c-1.54-2.423-3.289-4.557-4.9-6.697c-1.129-0.749-2.259-1.54-3.334-2.42c-1.161-0.955-2.231-2.003-3.146-3.193
	c-3.021-3.814-3.315-8.996-4.37-13.908c-0.585-2.643-1.315-5.129-2.785-7.149c-0.094-0.133-0.19-0.263-0.287-0.389
	c-4.609-3.779-12.661-2.899-18.208-5.806c-8.877-3.918-7.125-13.166-12.319-18.386c-1.151-1.359-2.464-2.232-3.847-2.868
	c-0.17-0.034-0.346-0.241-0.518-0.272c-0.039-0.007-0.08-0.054-0.12-0.061c-0.04-0.007-0.08-0.054-0.119-0.061
	c-2.859-1.556-5.735-2.664-7.604-5.725c-1.055-1.805-1.402-3.722-1.491-5.663c-0.012-0.305-0.016-0.618-0.014-0.935
	c-0.224-1.263-0.373-2.606-0.536-4.003c-0.312-3.42,0.418-6.982,1.205-10.673c0.865-3.636,1.671-7.455,1.128-11.365
	c-0.952-4.961-3.106-8.78-0.131-13.596c0.01-0.019,0.037-0.056,0.047-0.075c0.01-0.019,0.037-0.056,0.048-0.074
	c0.53-0.817,1.193-1.648,2.015-2.503c3.264-3.308,8.704-5.08,12.412-7.009c0.858-0.446,1.596-0.894,2.24-1.345
	c0.134-0.094,0.266-0.19,0.397-0.286c2.358-2.255,3.287-4.86,6.146-7.379c2.343-2.113,5.659-3.154,9.131-3.516
	c4.06-0.409,8.379,0.133,11.653,0.834c1.276,0.312,2.475,0.749,3.623,1.269c6.674,2.872,11.295,8.458,17.472,8.739c0,0,0,0,0,0
	c0.423,0.038,0.765,0.078,1.184,0.118c2.614,0.123,5.066,0.121,7.437,0.494c1.817,0.286,3.575,0.773,5.208,1.553
	c1.195,0.57,2.277,1.321,3.295,2.124c1.306,0.651,2.608,1.413,3.973,2.121c2.061,1.101,4.147,2.045,6.541,2.165
	c0.229,0.011,0.457,0.026,0.764,0.039c0.845-0.02,1.63-0.072,2.361-0.151c1.035-0.495,1.936-1.093,2.733-1.771
	c5.532-4.593,4.985-12.965,9.057-17.394c0.678-0.768,1.384-1.466,2.118-2.097c4.757-4.238,10.647-5.442,17.017-5.442
	c3.606,0,7.225,0.376,10.72,0.725c1.512-0.092,3.067-0.183,4.658-0.288c0.155-0.009,0.309-0.018,0.464-0.027
	c0.314-0.03,0.548-0.061,0.862-0.086c4.339-0.341,4.543-2.612,8.48-3.892c0.738-0.24,1.391-0.314,2.119-0.303
	c0.343,0.006,0.686,0.034,1.029,0.08c2.057-0.209,4.226,0.306,6.423,0.045c0.584-0.029,1.168-0.145,1.757-0.238
	c8.044-1.279,9.231-9.101,14.371-13.278C254.29,50.993,258.956,49.612,263.816,49.612"/>
<path class="st1" d="M264.72,46.314L264.72,46.314c10.386,0,21.145,5.632,27.141,13.743c4.809,6.383,7.227,12.97,10.153,19.16
	c0.7,1.455,1.486,2.837,2.304,4.163c0.568,0.876,1.352,1.975,2.047,2.964c0.912,1.297,1.843,2.65,2.685,4.087
	c0.542,0.935,1.075,1.907,1.591,2.911c0.004,0.009,0.015,0.029,0.02,0.038s0.015,0.03,0.02,0.038
	c3.301,6.46,5.926,13.828,7.508,21.019c0.673,3.109,1.032,6.53,1.332,10.005c0.001,0.019,0.006,0.063,0.007,0.082
	s0.006,0.063,0.007,0.082c0.388,4.453,0.59,8.998,1.288,13.012c0.327,1.858,0.774,3.81,1.408,5.489
	c3.198,4.656,9.943,6.208,13.526,12.102c0.004,0.006,0.013,0.022,0.017,0.028c0.004,0.006,0.013,0.022,0.017,0.028
	c6.611,11.016,1.16,26.266-5.448,36.133c-3.515,5.532-7.983,10.935-12.826,15.645c-4.484,4.383-9.126,8.4-13.638,12.416
	c-1.516,1.348-2.999,2.68-4.447,4.018c-0.657,0.606-1.314,1.205-1.971,1.801c-3.076,2.789-6.312,5.263-9.394,7.587
	c-2.282,1.719-4.513,3.385-6.501,5.035c-1.321,1.12-2.84,3.257-4.154,4.958c-1.09,1.382-2.185,2.842-3.309,4.35
	c-0.664,0.877-1.313,1.787-1.959,2.719c-0.011,0.013-0.041,0.062-0.052,0.075c-0.011,0.013-0.041,0.062-0.052,0.075
	c-3.886,5.636-7.13,11.449-10.231,16.994c-1.792,3.377-3.056,7.767-4.606,12.243c-2.952,6.489-6.475,12.35-10.71,18.489
	c-4.311,6.12-6.67,13.211-8.926,20.411c-0.004,0.021-0.02,0.058-0.024,0.079c-0.004,0.021-0.02,0.058-0.024,0.079
	c-3.082,9.899-5.947,19.378-12.823,26.329c-2.405,2.533-5.534,3.383-9.075,3.383c-5.806,0-12.084-1.988-17.708-3.484
	c-1.828-0.487-3.884-1.006-5.511-1.28c-1.437-0.062-2.827-0.074-4.159-0.005c-1.013,0.049-1.944,0.168-2.871,0.28
	c-2.437,0.445-4.781,0.763-7.044,0.943c-2.103,0.17-4.135,0.219-6.094,0.138c-9.592-0.403-17.654-4.018-24.532-13.183
	c-2.093-2.739-4.524-5.074-7.105-7.249c-1.575-0.998-3.859-2.05-5.859-2.925c-6.043-2.649-12.884-5.032-18.352-9.885
	c-6.674-5.846-11.399-14.257-10.275-24.013c0.961-7.952,4.272-13.013,9.049-16.872c4.633-3.835,10.55-6.24,16.859-8.788
	c3.794-1.598,7.914-3.462,11.664-5.605c5.878-3.362,10.45-7.288,10.823-12.386c-0.525-1.109-1.155-2.278-1.895-3.511
	c-0.878-1.48-1.862-2.871-2.888-4.232c-0.19-0.208-0.719-0.667-0.916-0.866c-0.403-0.407-1.357-1.469-1.781-1.852
	c-0.554-0.521-1.327-1.196-2.015-1.794c-3.822-3.319-8.156-7.041-10.123-13.342c-0.292-0.556-3.406-3.312-3.581-3.853
	c-1.531-2.51-3.223-4.739-4.767-6.955c-1.165-0.728-2.336-1.501-3.457-2.368c-1.208-0.939-2.326-1.974-3.293-3.15
	c-3.207-3.78-3.774-8.937-4.992-13.901c-0.677-2.677-1.455-5.203-2.913-7.267c-0.094-0.137-0.189-0.271-0.286-0.401
	c-4.713-3.66-12.827-2.978-18.488-6.154c-8.852-4.162-7.31-13.439-12.283-18.763c-1.107-1.426-2.358-2.373-3.674-3.068
	c-0.162-0.032-0.329-0.273-0.493-0.302c-0.037-0.007-0.076-0.062-0.114-0.068c-0.038-0.006-0.076-0.061-0.114-0.068
	c-2.72-1.749-5.411-3.042-7.134-6.158c-0.967-1.856-1.256-3.803-1.305-5.757c-0.006-0.307-0.003-0.625,0.006-0.946
	c-0.244-1.267-0.42-2.622-0.609-4.039c-0.364-3.431,0.266-7.042,1.004-10.812c0.814-3.651,1.6-7.527,1.176-11.513
	c-0.818-4.964-2.716-8.863,0.356-13.707c0.009-0.018,0.039-0.058,0.049-0.075c0.01-0.018,0.04-0.057,0.05-0.075
	c0.55-0.827,1.229-1.663,2.06-2.52c3.357-3.37,8.805-5.196,12.555-7.13c0.868-0.447,1.619-0.895,2.277-1.342
	c0.136-0.093,0.272-0.188,0.406-0.284c2.324-2.264,3.332-4.904,6.238-7.465c2.392-2.156,5.731-3.265,9.238-3.7
	c4.093-0.491,8.455-0.041,11.844,0.6c1.299,0.289,2.526,0.7,3.706,1.194c6.918,2.728,11.81,8.198,17.868,8.535c0,0,0,0,0,0
	c0.428,0.046,0.777,0.093,1.201,0.142c2.657,0.187,5.14,0.266,7.524,0.713c1.841,0.344,3.61,0.888,5.25,1.703
	c1.209,0.604,2.302,1.378,3.328,2.195c1.336,0.61,2.681,1.326,4.095,1.999c2.123,1.046,4.263,1.955,6.689,2.097
	c0.234,0.014,0.468,0.031,0.777,0.047c0.856-0.009,1.654-0.045,2.4-0.106c1.017-0.535,1.911-1.168,2.712-1.877
	c5.524-4.763,5.348-13.022,9.629-17.436c0.705-0.76,1.438-1.451,2.199-2.077c4.881-4.174,10.875-5.39,17.383-5.39
	c3.685,0,7.367,0.38,10.906,0.733c1.521-0.14,3.093-0.278,4.713-0.423c0.157-0.013,0.314-0.026,0.471-0.038
	c0.317-0.036,0.557-0.074,0.875-0.103c4.326-0.407,4.732-2.594,8.696-3.81c0.746-0.228,1.409-0.297,2.143-0.283
	c0.347,0.007,0.694,0.035,1.04,0.081c2.03-0.314,4.181,0.054,6.382-0.312c0.58-0.054,1.161-0.193,1.748-0.306
	c7.929-1.525,9.417-9.141,14.685-13.234C255.088,47.671,259.807,46.314,264.72,46.314"/>
<path class="st1" d="M265.623,43.017L265.623,43.017c10.867,0,22.119,5.87,28.415,14.383c4.894,6.496,7.381,13.182,10.312,19.404
	c0.71,1.483,1.499,2.892,2.317,4.24c0.561,0.872,1.369,2.006,2.076,3.011c0.92,1.309,1.868,2.684,2.732,4.149
	c0.553,0.947,1.097,1.933,1.625,2.953c0.004,0.008,0.016,0.031,0.02,0.039c0.004,0.008,0.016,0.031,0.02,0.039
	c3.366,6.55,6.052,14.017,7.696,21.328c0.703,3.169,1.098,6.637,1.424,10.153c0.001,0.018,0.007,0.065,0.008,0.083
	c0.001,0.018,0.007,0.065,0.008,0.083c0.424,4.528,0.628,9.143,1.302,13.219c0.316,1.882,0.746,3.891,1.358,5.609
	c3.281,4.566,10.034,6.293,13.697,12.319c0.004,0.006,0.014,0.022,0.017,0.028c0.004,0.006,0.013,0.022,0.017,0.028
	c6.706,11.168,1.61,26.533-4.967,36.814c-3.531,5.831-8.126,11.556-13.143,16.487c-4.662,4.605-9.498,8.795-14.195,12.97
	c-1.584,1.407-3.131,2.794-4.641,4.185c-0.685,0.631-1.37,1.256-2.054,1.878c-3.214,2.923-6.593,5.503-9.79,7.912
	c-2.39,1.8-4.719,3.54-6.769,5.258c-1.322,1.139-2.878,3.462-4.199,5.271c-1.093,1.464-2.196,3.014-3.338,4.616
	c-0.672,0.927-1.335,1.887-1.998,2.869c-0.01,0.012-0.043,0.066-0.053,0.079c-0.01,0.012-0.043,0.066-0.054,0.079
	c-4.016,5.953-7.485,11.951-10.799,17.644c-1.888,3.422-3.167,8.029-4.728,12.788c-2.861,6.504-6.27,12.458-10.411,18.687
	c-4.201,6.172-6.599,13.273-8.981,20.46c-0.004,0.019-0.022,0.059-0.026,0.079c-0.004,0.019-0.022,0.059-0.026,0.079
	c-3.251,9.868-6.446,19.17-13.533,25.88c-2.456,2.438-5.606,3.264-9.155,3.264c-5.991,0-12.4-2.011-18.098-3.531
	c-1.858-0.496-3.988-1.038-5.629-1.316c-1.466-0.038-2.886-0.031-4.247,0.049c-1.032,0.058-1.985,0.179-2.933,0.293
	c-2.491,0.442-4.887,0.753-7.201,0.924c-2.148,0.161-4.224,0.198-6.227,0.104c-9.824-0.47-18.096-4.205-25.138-13.414
	c-2.155-2.767-4.619-5.176-7.212-7.456c-1.572-1-3.953-2.087-5.994-2.977c-6.122-2.675-13.097-5.138-18.729-10.136
	c-6.853-6.003-11.682-14.55-10.771-24.415c0.79-8.021,3.929-13.331,8.589-17.497c4.525-4.15,10.373-6.872,16.687-9.64
	c3.81-1.741,7.968-3.697,11.811-5.877c6.015-3.415,10.8-7.233,11.569-12.134c-0.558-1.122-1.214-2.306-1.972-3.558
	c-0.898-1.499-1.895-2.924-2.925-4.328c-0.18-0.197-0.754-0.687-0.941-0.876c-0.382-0.386-1.403-1.539-1.805-1.901
	c-0.549-0.519-1.351-1.221-2.054-1.834c-3.847-3.344-8.293-7.173-10.402-13.61c-0.34-0.649-3.34-3.381-3.545-4.012
	c-1.522-2.598-3.157-4.921-4.634-7.213c-1.202-0.707-2.413-1.463-3.58-2.317c-1.255-0.923-2.421-1.944-3.44-3.106
	c-3.394-3.746-4.232-8.878-5.614-13.895c-0.769-2.712-1.595-5.278-3.042-7.385c-0.094-0.141-0.189-0.278-0.285-0.412
	c-4.818-3.541-12.994-3.056-18.768-6.501c-8.827-4.405-7.495-13.713-12.247-19.14c-1.064-1.493-2.252-2.513-3.501-3.268
	c-0.153-0.03-0.313-0.305-0.468-0.333c-0.036-0.006-0.073-0.069-0.108-0.075c-0.036-0.006-0.072-0.069-0.108-0.075
	c-2.581-1.941-5.088-3.42-6.665-6.591c-0.879-1.907-1.11-3.884-1.12-5.85c0.001-0.31,0.01-0.632,0.025-0.957
	c-0.264-1.271-0.468-2.638-0.682-4.074c-0.417-3.442,0.115-7.101,0.802-10.951c0.763-3.667,1.528-7.6,1.224-11.661
	c-0.685-4.968-2.327-8.947,0.844-13.818c0.009-0.017,0.041-0.059,0.051-0.076c0.009-0.017,0.042-0.059,0.051-0.076
	c0.571-0.837,1.266-1.679,2.105-2.536c3.45-3.431,8.906-5.312,12.697-7.252c0.878-0.449,1.641-0.895,2.313-1.34
	c0.139-0.093,0.277-0.187,0.415-0.282c2.291-2.273,3.376-4.948,6.329-7.551c2.441-2.199,5.801-3.383,9.344-3.883
	c4.123-0.582,8.531-0.214,12.035,0.367c1.321,0.266,2.576,0.651,3.789,1.119c7.162,2.585,12.326,7.939,18.265,8.332c0,0,0,0,0,0
	c0.432,0.053,0.79,0.109,1.218,0.165c2.7,0.252,5.213,0.413,7.611,0.931c1.864,0.403,3.645,1.003,5.291,1.854
	c1.223,0.639,2.328,1.435,3.361,2.266c1.367,0.568,2.753,1.24,4.216,1.877c2.186,0.991,4.379,1.865,6.836,2.03
	c0.24,0.016,0.479,0.036,0.79,0.055c0.867,0.003,1.679-0.018,2.44-0.06c0.999-0.575,1.886-1.244,2.691-1.984
	c5.516-4.933,5.711-13.08,10.201-17.478c0.732-0.752,1.492-1.436,2.28-2.057c5.005-4.11,11.103-5.338,17.748-5.338
	c3.763,0,7.509,0.383,11.093,0.741c1.529-0.187,3.119-0.372,4.768-0.557c0.159-0.017,0.318-0.033,0.477-0.049
	c0.32-0.042,0.567-0.086,0.887-0.121c4.314-0.472,4.92-2.577,8.912-3.729c0.753-0.216,1.427-0.279,2.166-0.264
	c0.351,0.008,0.702,0.037,1.052,0.082c2.002-0.419,4.136-0.197,6.341-0.668c0.577-0.08,1.154-0.241,1.74-0.374
	c7.814-1.768,9.603-9.181,14.999-13.189C255.886,44.35,260.658,43.017,265.623,43.017"/>
<path class="st1" d="M266.526,39.719L266.526,39.719c11.348,0,23.094,6.109,29.688,15.024c4.979,6.61,7.536,13.393,10.471,19.647
	c0.719,1.512,1.511,2.947,2.33,4.317c0.553,0.867,1.386,2.037,2.105,3.059c0.929,1.321,1.893,2.717,2.779,4.21
	c0.563,0.959,1.12,1.958,1.658,2.995c0.004,0.008,0.017,0.032,0.021,0.039c0.004,0.008,0.017,0.032,0.02,0.04
	c3.43,6.641,6.179,14.207,7.885,21.636c0.733,3.23,1.163,6.743,1.516,10.301c0.001,0.017,0.008,0.067,0.008,0.084
	c0.001,0.017,0.007,0.067,0.008,0.084c0.459,4.603,0.667,9.289,1.315,13.427c0.304,1.906,0.718,3.971,1.308,5.73
	c3.363,4.475,10.125,6.378,13.868,12.536c0.003,0.006,0.014,0.023,0.017,0.029c0.003,0.006,0.014,0.023,0.017,0.029
	c6.8,11.321,2.06,26.801-4.487,37.495c-3.547,6.13-8.268,12.177-13.46,17.329c-4.84,4.827-9.869,9.189-14.753,13.525
	c-1.652,1.466-3.264,2.907-4.835,4.353c-0.714,0.657-1.427,1.307-2.137,1.955c-3.352,3.058-6.874,5.743-10.186,8.237
	c-2.498,1.881-4.926,3.695-7.037,5.482c-1.323,1.157-2.915,3.667-4.245,5.584c-1.096,1.546-2.207,3.187-3.367,4.882
	c-0.68,0.978-1.356,1.987-2.038,3.018c-0.01,0.012-0.045,0.071-0.055,0.083s-0.045,0.071-0.055,0.082
	c-4.147,6.269-7.84,12.453-11.367,18.294c-1.984,3.466-3.277,8.291-4.85,13.333c-2.77,6.518-6.066,12.567-10.113,18.886
	c-4.091,6.224-6.527,13.335-9.036,20.509c-0.004,0.018-0.023,0.06-0.027,0.078s-0.023,0.06-0.027,0.078
	c-3.421,9.837-6.945,18.963-14.242,25.431c-2.506,2.344-5.678,3.144-9.234,3.144c-6.177,0-12.716-2.034-18.489-3.578
	c-1.888-0.506-4.091-1.071-5.746-1.352c-1.495-0.013-2.945,0.012-4.336,0.104c-1.05,0.066-2.026,0.191-2.995,0.306
	c-2.544,0.439-4.992,0.743-7.358,0.905c-2.192,0.152-4.312,0.178-6.36,0.07c-10.056-0.538-18.538-4.391-25.743-13.644
	c-2.217-2.796-4.713-5.277-7.319-7.663c-1.569-1.003-4.046-2.125-6.128-3.029c-6.201-2.701-13.309-5.244-19.107-10.387
	c-7.032-6.161-11.965-14.843-11.267-24.817c0.619-8.09,3.586-13.649,8.129-18.121c4.417-4.465,10.197-7.504,16.516-10.493
	c3.826-1.885,8.023-3.933,11.959-6.15c6.153-3.469,11.149-7.179,12.315-11.881c-0.59-1.135-1.274-2.335-2.05-3.605
	c-0.919-1.519-1.928-2.976-2.962-4.425c-0.17-0.186-0.79-0.708-0.967-0.887c-0.361-0.364-1.45-1.609-1.829-1.951
	c-0.544-0.518-1.376-1.247-2.094-1.873c-3.871-3.37-8.431-7.305-10.681-13.878c-0.389-0.741-3.275-3.45-3.508-4.171
	c-1.512-2.685-3.091-5.103-4.5-7.471c-1.238-0.686-2.49-1.425-3.703-2.265c-1.302-0.907-2.517-1.915-3.586-3.062
	c-3.58-3.712-4.691-8.819-6.237-13.888c-0.861-2.746-1.734-5.353-3.17-7.503c-0.094-0.145-0.188-0.286-0.283-0.424
	c-4.922-3.422-13.16-3.135-19.048-6.849c-8.803-4.649-7.68-13.986-12.21-19.517c-1.021-1.56-2.146-2.654-3.328-3.467
	c-0.145-0.029-0.297-0.337-0.443-0.363c-0.034-0.006-0.069-0.076-0.103-0.082c-0.034-0.006-0.068-0.076-0.102-0.082
	c-2.442-2.133-4.764-3.798-6.196-7.023c-0.791-1.958-0.964-3.965-0.934-5.944c0.007-0.313,0.023-0.639,0.044-0.968
	c-0.284-1.275-0.516-2.654-0.755-4.11c-0.47-3.453-0.037-7.161,0.6-11.09c0.711-3.682,1.456-7.673,1.273-11.81
	c-0.551-4.971-1.937-9.031,1.331-13.93c0.008-0.016,0.044-0.061,0.052-0.077c0.009-0.016,0.044-0.061,0.053-0.077
	c0.592-0.846,1.302-1.694,2.15-2.553c3.543-3.493,9.007-5.428,12.84-7.374c0.888-0.45,1.664-0.896,2.35-1.338
	c0.141-0.092,0.283-0.186,0.423-0.281c2.257-2.283,3.421-4.991,6.421-7.637c2.489-2.242,5.873-3.494,9.45-4.066
	c4.155-0.664,8.606-0.388,12.225,0.134c1.343,0.243,2.626,0.602,3.871,1.044c7.405,2.441,12.842,7.679,18.661,8.128c0,0,0,0,0,0
	c0.437,0.061,0.803,0.124,1.235,0.189c2.743,0.316,5.287,0.56,7.699,1.15c1.888,0.462,3.68,1.117,5.333,2.004
	c1.237,0.673,2.354,1.492,3.394,2.338c1.398,0.527,2.826,1.153,4.337,1.755c2.249,0.936,4.495,1.775,6.984,1.963
	c0.246,0.019,0.491,0.041,0.803,0.063c0.878,0.015,1.703,0.009,2.479-0.015c0.981-0.615,1.861-1.319,2.67-2.091
	c5.508-5.103,6.075-13.137,10.772-17.52c0.759-0.744,1.546-1.422,2.361-2.037c5.13-4.046,11.331-5.286,18.114-5.286
	c3.842,0,7.651,0.387,11.279,0.749c1.537-0.235,3.146-0.466,4.823-0.692c0.161-0.02,0.323-0.04,0.484-0.06
	c0.322-0.048,0.576-0.098,0.9-0.138c4.301-0.535,5.109-2.559,9.128-3.647c0.761-0.204,1.446-0.262,2.19-0.244
	c0.355,0.009,0.71,0.038,1.063,0.083c1.974-0.525,4.091-0.449,6.3-1.024c0.574-0.106,1.147-0.289,1.731-0.441
	c7.698-2.008,9.789-9.221,15.313-13.145C256.684,41.028,261.509,39.719,266.526,39.719"/>
<path class="st1" d="M267.429,36.422L267.429,36.422c11.829,0,24.068,6.348,30.962,15.664c5.064,6.724,7.69,13.605,10.629,19.891
	c0.729,1.54,1.523,3.001,2.343,4.394c0.546,0.863,1.403,2.067,2.134,3.106c0.938,1.333,1.918,2.75,2.826,4.271
	c0.574,0.971,1.142,1.984,1.692,3.037c0.004,0.007,0.017,0.033,0.021,0.04c0.004,0.007,0.017,0.033,0.021,0.04
	c3.495,6.732,6.305,14.396,8.074,21.944c0.763,3.29,1.229,6.85,1.607,10.449c0.001,0.016,0.008,0.069,0.009,0.085
	c0.001,0.016,0.008,0.069,0.009,0.085c0.494,4.678,0.705,9.434,1.329,13.634c0.292,1.93,0.689,4.052,1.259,5.851
	c3.446,4.385,10.215,6.462,14.039,12.753c0.003,0.005,0.014,0.024,0.018,0.029c0.003,0.005,0.014,0.024,0.018,0.029
	c6.895,11.474,2.511,27.068-4.006,38.175c-3.563,6.429-8.41,12.799-13.777,18.17c-5.018,5.049-10.241,9.584-15.311,14.079
	c-1.72,1.525-3.397,3.021-5.028,4.52c-0.743,0.682-1.483,1.359-2.221,2.032c-3.49,3.192-7.156,5.982-10.582,8.562
	c-2.606,1.962-5.132,3.85-7.305,5.705c-1.324,1.176-2.953,3.871-4.29,5.898c-1.099,1.627-2.217,3.36-3.397,5.148
	c-0.689,1.028-1.377,2.088-2.078,3.167c-0.009,0.011-0.047,0.075-0.056,0.086c-0.009,0.011-0.047,0.075-0.057,0.086
	c-4.278,6.586-8.196,12.956-11.936,18.943c-2.081,3.511-3.387,8.553-4.973,13.877c-2.679,6.533-5.862,12.675-9.815,19.084
	c-3.981,6.276-6.456,13.396-9.09,20.558c-0.004,0.017-0.025,0.061-0.028,0.078c-0.004,0.017-0.025,0.061-0.028,0.078
	c-3.591,9.806-7.444,18.755-14.951,24.982c-2.557,2.249-5.751,3.025-9.313,3.025c-6.362,0-13.032-2.057-18.879-3.625
	c-1.918-0.515-4.195-1.103-5.863-1.388c-1.525,0.011-3.003,0.055-4.425,0.158c-1.069,0.074-2.066,0.202-3.057,0.319
	c-2.598,0.436-5.098,0.733-7.515,0.886c-2.237,0.143-4.401,0.157-6.493,0.037c-10.288-0.605-18.98-4.578-26.348-13.875
	c-2.28-2.825-4.808-5.379-7.427-7.869c-1.566-1.005-4.139-2.162-6.263-3.081c-6.28-2.727-13.522-5.35-19.484-10.638
	c-7.21-6.319-12.248-15.136-11.763-25.219c0.448-8.16,3.242-13.967,7.668-18.746c4.31-4.78,10.021-8.136,16.344-11.345
	c3.843-2.028,8.077-4.169,12.106-6.422c6.29-3.522,11.498-7.124,13.061-11.628c-0.623-1.148-1.333-2.364-2.127-3.652
	c-0.94-1.538-1.961-3.029-2.999-4.521c-0.16-0.175-0.825-0.729-0.992-0.897c-0.339-0.343-1.496-1.679-1.853-2.001
	c-0.539-0.517-1.4-1.272-2.133-1.913c-3.896-3.395-8.568-7.437-10.959-14.146c-0.437-0.834-3.209-3.518-3.472-4.33
	c-1.503-2.773-3.026-5.284-4.367-7.728c-1.275-0.665-2.567-1.386-3.825-2.213c-1.35-0.892-2.612-1.885-3.733-3.018
	c-3.766-3.678-5.149-8.76-6.859-13.881c-0.953-2.781-1.874-5.428-3.299-7.621c-0.093-0.148-0.187-0.293-0.282-0.435
	c-5.026-3.303-13.327-3.213-19.329-7.197c-8.778-4.893-7.865-14.259-12.174-19.894c-0.977-1.627-2.04-2.794-3.155-3.667
	c-0.136-0.027-0.281-0.369-0.419-0.394c-0.032-0.006-0.065-0.084-0.097-0.089c-0.032-0.005-0.064-0.084-0.096-0.089
	c-2.303-2.326-4.44-4.176-5.727-7.456c-0.703-2.009-0.818-4.046-0.748-6.037c0.013-0.316,0.036-0.646,0.063-0.98
	c-0.304-1.279-0.563-2.669-0.828-4.146c-0.522-3.465-0.188-7.221,0.399-11.228c0.66-3.698,1.385-7.746,1.321-11.958
	c-0.418-4.975-1.547-9.115,1.818-14.041c0.008-0.015,0.046-0.063,0.054-0.078c0.008-0.015,0.047-0.063,0.055-0.078
	c0.613-0.856,1.338-1.709,2.195-2.57c3.635-3.555,9.108-5.544,12.982-7.495c0.897-0.451,1.687-0.896,2.386-1.336
	c0.143-0.091,0.288-0.184,0.432-0.279c2.223-2.292,3.466-5.035,6.512-7.723c2.538-2.284,5.944-3.606,9.556-4.249
	c4.187-0.746,8.682-0.561,12.416-0.099c1.366,0.219,2.677,0.553,3.954,0.969c7.649,2.297,13.358,7.419,19.058,7.925c0,0,0,0,0,0
	c0.442,0.069,0.816,0.14,1.251,0.212c2.786,0.381,5.36,0.707,7.786,1.369c1.912,0.522,3.715,1.232,5.375,2.155
	c1.251,0.707,2.379,1.549,3.427,2.409c1.428,0.485,2.899,1.067,4.459,1.633c2.312,0.881,4.612,1.685,7.131,1.895
	c0.251,0.021,0.502,0.046,0.816,0.071c0.889,0.027,1.727,0.036,2.519,0.03c0.963-0.655,1.836-1.395,2.649-2.197
	c5.5-5.273,6.438-13.194,11.344-17.562c0.785-0.736,1.6-1.407,2.442-2.017c5.254-3.983,11.559-5.234,18.48-5.234
	c3.921,0,7.793,0.39,11.466,0.757c1.546-0.283,3.172-0.56,4.879-0.827c0.164-0.024,0.327-0.048,0.491-0.071
	c0.325-0.054,0.586-0.11,0.912-0.155c4.288-0.598,5.297-2.542,9.344-3.566c0.768-0.192,1.464-0.245,2.214-0.225
	c0.36,0.01,0.718,0.04,1.074,0.084c1.946-0.63,4.046-0.701,6.259-1.381c0.571-0.132,1.14-0.337,1.722-0.509
	c7.582-2.244,9.975-9.261,15.627-13.1C257.482,37.707,262.36,36.422,267.429,36.422"/>
<path class="st1" d="M268.333,33.124L268.333,33.124c12.31,0,25.042,6.586,32.236,16.305c5.149,6.838,7.845,13.817,10.788,20.134
	c0.739,1.568,1.535,3.056,2.356,4.471c0.538,0.858,1.42,2.098,2.163,3.153c0.946,1.345,1.943,2.783,2.874,4.333
	c0.585,0.983,1.164,2.01,1.725,3.078c0.003,0.007,0.018,0.034,0.021,0.041c0.003,0.007,0.018,0.034,0.021,0.041
	c3.56,6.822,6.432,14.585,8.262,22.252c0.793,3.351,1.294,6.956,1.699,10.597c0.001,0.015,0.009,0.071,0.01,0.086
	s0.009,0.071,0.009,0.086c0.529,4.753,0.743,9.58,1.343,13.841c0.28,1.953,0.661,4.133,1.209,5.971
	c3.529,4.294,10.306,6.547,14.209,12.97c0.003,0.005,0.015,0.025,0.018,0.03c0.003,0.005,0.015,0.025,0.018,0.03
	c6.989,11.627,2.961,27.335-3.526,38.856c-3.578,6.728-8.553,13.42-14.094,19.012c-5.197,5.271-10.613,9.978-15.868,14.633
	c-1.789,1.584-3.529,3.134-5.222,4.687c-0.772,0.708-1.54,1.41-2.304,2.11c-3.628,3.326-7.437,6.222-10.978,8.888
	c-2.714,2.043-5.338,4.005-7.572,5.929c-1.325,1.195-2.99,4.076-4.336,6.211c-1.102,1.709-2.228,3.532-3.426,5.414
	c-0.697,1.078-1.399,2.188-2.117,3.316c-0.009,0.01-0.049,0.08-0.058,0.09c-0.009,0.01-0.049,0.079-0.058,0.09
	c-4.409,6.902-8.551,13.458-12.504,19.593c-2.177,3.556-3.498,8.814-5.095,14.422c-2.587,6.548-5.657,12.783-9.516,19.282
	c-3.87,6.328-6.384,13.458-9.145,20.607c-0.003,0.016-0.026,0.061-0.029,0.078s-0.026,0.061-0.03,0.078
	c-3.761,9.775-7.944,18.547-15.66,24.534c-2.608,2.155-5.823,2.905-9.392,2.905c-6.548,0-13.348-2.08-19.269-3.672
	c-1.949-0.524-4.299-1.136-5.981-1.423c-1.554,0.035-3.062,0.098-4.513,0.213c-1.088,0.082-2.107,0.213-3.118,0.333
	c-2.652,0.433-5.203,0.724-7.672,0.866c-2.281,0.134-4.49,0.137-6.625,0.003c-10.52-0.672-19.423-4.764-26.954-14.106
	c-2.342-2.853-4.903-5.481-7.534-8.076c-1.562-1.007-4.233-2.199-6.398-3.133c-6.359-2.753-13.734-5.456-19.861-10.889
	c-7.389-6.476-12.531-15.429-12.259-25.621c0.277-8.229,2.899-14.285,7.208-19.37c4.202-5.095,9.844-8.768,16.172-12.197
	c3.859-2.171,8.131-4.404,12.253-6.695c6.428-3.576,11.847-7.069,13.807-11.376c-0.656-1.161-1.392-2.392-2.205-3.699
	c-0.961-1.558-1.994-3.081-3.035-4.618c-0.15-0.164-0.861-0.75-1.017-0.908c-0.318-0.321-1.542-1.748-1.877-2.05
	c-0.533-0.516-1.424-1.297-2.173-1.952c-3.921-3.421-8.706-7.569-11.238-14.415c-0.486-0.927-3.143-3.587-3.435-4.489
	c-1.493-2.861-2.96-5.466-4.234-7.986c-1.311-0.644-2.644-1.348-3.948-2.161c-1.397-0.876-2.707-1.856-3.88-2.975
	c-3.952-3.644-5.607-8.701-7.482-13.875c-1.045-2.815-2.014-5.502-3.427-7.739c-0.093-0.152-0.187-0.301-0.281-0.447
	c-5.131-3.184-13.493-3.292-19.609-7.544c-8.753-5.136-8.05-14.532-12.138-20.271c-0.934-1.693-1.933-2.935-2.981-3.867
	c-0.128-0.025-0.265-0.401-0.394-0.424c-0.03-0.005-0.061-0.091-0.091-0.096c-0.03-0.005-0.061-0.091-0.09-0.096
	c-2.164-2.518-4.116-4.553-5.258-7.889c-0.615-2.06-0.672-4.127-0.563-6.131c0.02-0.319,0.049-0.653,0.083-0.991
	c-0.324-1.283-0.611-2.685-0.902-4.181c-0.575-3.476-0.339-7.281,0.197-11.367c0.609-3.713,1.313-7.818,1.369-12.107
	c-0.284-4.978-1.158-9.199,2.305-14.152c0.007-0.014,0.048-0.065,0.056-0.079c0.008-0.014,0.049-0.064,0.057-0.078
	c0.633-0.866,1.375-1.725,2.239-2.586c3.728-3.616,9.209-5.66,13.124-7.617c0.907-0.453,1.709-0.897,2.422-1.334
	c0.146-0.09,0.294-0.183,0.441-0.277c2.189-2.301,3.511-5.079,6.604-7.809c2.587-2.327,6.016-3.717,9.663-4.433
	c4.219-0.828,8.758-0.735,12.607-0.333c1.388,0.196,2.727,0.504,4.037,0.894c7.893,2.154,13.874,7.16,19.454,7.721c0,0,0,0,0,0
	c0.446,0.076,0.829,0.155,1.268,0.236c2.829,0.445,5.434,0.855,7.873,1.588c1.935,0.581,3.75,1.347,5.416,2.306
	c1.266,0.741,2.405,1.606,3.46,2.48c1.459,0.444,2.972,0.98,4.58,1.511c2.375,0.826,4.728,1.595,7.279,1.828
	c0.257,0.023,0.513,0.051,0.829,0.079c0.9,0.039,1.751,0.063,2.558,0.076c0.945-0.696,1.812-1.47,2.628-2.304
	c5.492-5.443,6.801-13.252,11.915-17.604c0.812-0.728,1.654-1.393,2.523-1.996c5.378-3.919,11.787-5.181,18.846-5.181
	c3.999,0,7.935,0.394,11.652,0.765c1.554-0.331,3.198-0.654,4.934-0.962c0.166-0.028,0.332-0.055,0.497-0.082
	c0.328-0.06,0.596-0.122,0.925-0.172c4.276-0.661,5.486-2.524,9.56-3.484c0.776-0.18,1.482-0.228,2.238-0.205
	c0.364,0.011,0.726,0.041,1.086,0.086c1.918-0.735,4.001-0.953,6.218-1.737c0.567-0.157,1.134-0.384,1.714-0.577
	c7.467-2.477,10.161-9.302,15.942-13.056C258.281,34.385,263.211,33.124,268.333,33.124"/>
<path class="st1" d="M269.236,29.826L269.236,29.826c12.791,0,26.016,6.825,33.509,16.945c5.234,6.952,7.999,14.028,10.947,20.377
	c0.748,1.597,1.547,3.111,2.37,4.548c0.531,0.853,1.437,2.129,2.192,3.201c0.955,1.357,1.968,2.816,2.921,4.394
	c0.595,0.995,1.186,2.036,1.759,3.12c0.003,0.006,0.019,0.035,0.022,0.041c0.003,0.006,0.019,0.035,0.022,0.041
	c3.625,6.913,6.559,14.774,8.451,22.56c0.824,3.411,1.36,7.063,1.791,10.745c0.001,0.014,0.01,0.073,0.01,0.087
	c0.001,0.014,0.009,0.073,0.01,0.087c0.564,4.828,0.781,9.725,1.356,14.049c0.268,1.977,0.633,4.214,1.16,6.092
	c3.612,4.203,10.396,6.632,14.38,13.187c0.003,0.005,0.015,0.026,0.018,0.03c0.003,0.005,0.015,0.025,0.018,0.03
	c7.084,11.78,3.411,27.603-3.045,39.537c-3.594,7.027-8.695,14.041-14.411,19.854c-5.375,5.493-10.984,10.373-16.426,15.187
	c-1.857,1.642-3.662,3.248-5.416,4.855c-0.801,0.733-1.597,1.461-2.387,2.187c-3.766,3.461-7.718,6.462-11.374,9.213
	c-2.822,2.123-5.544,4.16-7.84,6.153c-1.326,1.214-3.027,4.281-4.381,6.524c-1.105,1.791-2.239,3.705-3.455,5.68
	c-0.706,1.128-1.42,2.288-2.157,3.465c-0.008,0.01-0.051,0.084-0.059,0.094s-0.051,0.084-0.06,0.094
	c-4.54,7.219-8.906,13.96-13.073,20.242c-2.273,3.601-3.608,9.076-5.217,14.967c-2.496,6.563-5.453,12.892-9.218,19.48
	c-3.76,6.38-6.313,13.52-9.2,20.656c-0.003,0.015-0.028,0.062-0.031,0.077c-0.003,0.015-0.028,0.062-0.031,0.077
	c-3.93,9.744-8.443,18.339-16.369,24.085c-2.659,2.06-5.895,2.786-9.472,2.786c-6.734,0-13.664-2.103-19.66-3.719
	c-1.979-0.534-4.403-1.168-6.098-1.459c-1.583,0.06-3.12,0.141-4.602,0.267c-1.107,0.091-2.148,0.225-3.18,0.346
	c-2.706,0.43-5.309,0.714-7.829,0.847c-2.326,0.125-4.579,0.117-6.758-0.031c-10.752-0.739-19.865-4.951-27.559-14.336
	c-2.404-2.882-4.997-5.583-7.641-8.283c-1.559-1.009-4.326-2.236-6.533-3.185c-6.437-2.778-13.947-5.561-20.239-11.14
	c-7.568-6.634-12.814-15.722-12.755-26.023c0.106-8.298,2.555-14.602,6.748-19.995c4.095-5.41,9.668-9.4,16.001-13.049
	c3.875-2.314,8.185-4.64,12.4-6.967c6.565-3.629,12.197-7.014,14.553-11.123c-0.689-1.174-1.451-2.421-2.282-3.746
	c-0.982-1.578-2.026-3.134-3.072-4.714c-0.14-0.153-0.897-0.771-1.042-0.918c-0.297-0.3-1.588-1.818-1.901-2.1
	c-0.528-0.514-1.448-1.323-2.212-1.992c-3.945-3.446-8.843-7.701-11.517-14.683c-0.535-1.019-3.078-3.656-3.399-4.648
	c-1.484-2.948-2.894-5.648-4.1-8.244c-1.348-0.623-2.722-1.309-4.071-2.109c-1.444-0.86-2.802-1.826-4.027-2.931
	c-4.139-3.61-6.066-8.642-8.104-13.868c-1.137-2.85-2.154-5.577-3.556-7.857c-0.093-0.156-0.186-0.308-0.28-0.458
	c-5.235-3.065-13.66-3.371-19.889-7.892c-8.728-5.38-8.235-14.806-12.102-20.648c-0.891-1.76-1.827-3.076-2.808-4.067
	c-0.119-0.024-0.249-0.433-0.369-0.454c-0.028-0.005-0.058-0.099-0.085-0.103c-0.028-0.005-0.057-0.098-0.084-0.103
	c-2.025-2.71-3.793-4.931-4.788-8.322c-0.527-2.111-0.526-4.208-0.377-6.224c0.026-0.322,0.062-0.66,0.102-1.002
	c-0.344-1.287-0.658-2.701-0.975-4.217c-0.628-3.487-0.491-7.34-0.004-11.506c0.557-3.728,1.242-7.891,1.417-12.255
	c-0.15-4.982-0.768-9.282,2.793-14.264c0.007-0.013,0.051-0.066,0.058-0.08c0.007-0.013,0.051-0.066,0.059-0.079
	c0.654-0.876,1.411-1.74,2.284-2.603c3.821-3.678,9.31-5.776,13.267-7.739c0.917-0.454,1.732-0.897,2.459-1.332
	c0.148-0.09,0.299-0.182,0.45-0.275c2.156-2.311,3.555-5.123,6.695-7.895c2.635-2.37,6.088-3.828,9.769-4.616
	c4.251-0.91,8.834-0.908,12.797-0.566c1.41,0.173,2.778,0.455,4.119,0.819c8.137,2.01,14.389,6.9,19.85,7.517c0,0,0,0,0,0
	c0.451,0.084,0.842,0.171,1.285,0.26c2.872,0.51,5.507,1.003,7.961,1.806c1.959,0.642,3.785,1.462,5.458,2.456
	c1.28,0.775,2.431,1.663,3.493,2.551c1.49,0.402,3.044,0.893,4.701,1.389c2.438,0.771,4.844,1.506,7.426,1.761
	c0.263,0.026,0.525,0.056,0.842,0.087c0.911,0.051,1.776,0.09,2.598,0.121c0.927-0.736,1.787-1.546,2.607-2.41
	c5.484-5.613,7.164-13.309,12.487-17.646c0.839-0.72,1.708-1.378,2.604-1.976c5.503-3.855,12.014-5.129,19.212-5.129
	c4.078,0,8.078,0.397,11.839,0.773c1.563-0.378,3.225-0.749,4.989-1.097c0.168-0.032,0.336-0.063,0.504-0.093
	c0.331-0.066,0.605-0.133,0.937-0.19c4.263-0.722,5.675-2.506,9.776-3.402c0.783-0.168,1.5-0.21,2.261-0.186
	c0.368,0.012,0.734,0.043,1.097,0.087c1.89-0.84,3.956-1.204,6.177-2.093c0.564-0.183,1.127-0.432,1.705-0.645
	c7.353-2.707,10.347-9.342,16.256-13.011C259.079,31.064,264.062,29.826,269.236,29.826"/>
<path class="st1" d="M270.139,26.529L270.139,26.529c13.272,0,26.99,7.063,34.783,17.585c5.318,7.065,8.154,14.24,11.106,20.621
	c0.758,1.625,1.56,3.166,2.383,4.625c0.523,0.849,1.454,2.159,2.221,3.248c0.964,1.368,1.993,2.85,2.968,4.456
	c0.606,1.007,1.208,2.062,1.792,3.162c0.003,0.006,0.019,0.036,0.022,0.042c0.003,0.006,0.019,0.036,0.022,0.042
	c3.69,7.004,6.685,14.964,8.64,22.868c0.854,3.471,1.426,7.169,1.882,10.893c0.001,0.013,0.01,0.075,0.011,0.088
	s0.01,0.075,0.011,0.089c0.599,4.903,0.82,9.871,1.37,14.256c0.256,2.001,0.605,4.295,1.11,6.212
	c3.695,4.113,10.487,6.717,14.551,13.404c0.003,0.004,0.016,0.026,0.019,0.031c0.003,0.004,0.016,0.026,0.018,0.031
	c7.179,11.933,3.861,27.87-2.565,40.217c-3.61,7.326-8.837,14.663-14.729,20.696c-5.553,5.715-11.356,10.767-16.983,15.741
	c-1.925,1.701-3.794,3.361-5.609,5.022c-0.83,0.759-1.653,1.512-2.47,2.264c-3.904,3.595-8,6.701-11.769,9.538
	c-2.93,2.204-5.75,4.315-8.108,6.376c-1.327,1.232-3.065,4.486-4.427,6.837c-1.108,1.873-2.249,3.878-3.484,5.946
	c-0.714,1.178-1.442,2.388-2.197,3.615c-0.008,0.009-0.053,0.089-0.06,0.098s-0.054,0.089-0.061,0.098
	c-4.671,7.536-9.261,14.462-13.641,20.892c-2.37,3.646-3.719,9.338-5.339,15.512c-2.405,6.577-5.249,13-8.919,19.678
	c-3.65,6.432-6.241,13.582-9.255,20.705c-0.003,0.014-0.029,0.063-0.032,0.077s-0.029,0.063-0.032,0.077
	c-4.1,9.713-8.942,18.131-17.078,23.636c-2.71,1.965-5.968,2.666-9.551,2.666c-6.919,0-13.98-2.126-20.05-3.766
	c-2.009-0.543-4.507-1.201-6.215-1.495c-1.613,0.084-3.179,0.184-4.691,0.321c-1.125,0.099-2.188,0.236-3.242,0.359
	c-2.76,0.427-5.415,0.704-7.986,0.828c-2.37,0.116-4.668,0.096-6.891-0.065c-10.984-0.807-20.307-5.137-28.164-14.567
	c-2.466-2.91-5.092-5.685-7.749-8.489c-1.556-1.012-4.419-2.273-6.667-3.238c-6.516-2.804-14.159-5.667-20.616-11.391
	c-7.747-6.792-13.097-16.015-13.251-26.426c-0.065-8.367,2.212-14.92,6.287-20.619c3.987-5.725,9.492-10.032,15.829-13.901
	c3.892-2.457,8.24-4.876,12.547-7.24c6.703-3.683,12.546-6.959,15.299-10.87c-0.721-1.187-1.51-2.45-2.36-3.793
	c-1.003-1.597-2.059-3.186-3.109-4.81c-0.13-0.142-0.932-0.792-1.067-0.929c-0.276-0.278-1.635-1.888-1.925-2.15
	c-0.523-0.513-1.472-1.348-2.252-2.032c-3.97-3.472-8.98-7.832-11.795-14.951c-0.583-1.112-3.012-3.724-3.362-4.807
	c-1.474-3.036-2.828-5.829-3.967-8.502c-1.384-0.602-2.799-1.271-4.193-2.058c-1.491-0.844-2.897-1.797-4.173-2.887
	c-4.325-3.576-6.524-8.583-8.726-13.861c-1.229-2.884-2.293-5.652-3.684-7.976c-0.093-0.16-0.186-0.316-0.278-0.469
	c-5.339-2.946-13.826-3.449-20.169-8.24c-8.704-5.623-8.42-15.079-12.066-21.026c-0.848-1.827-1.721-3.216-2.635-4.267
	c-0.111-0.022-0.232-0.465-0.344-0.485c-0.026-0.005-0.054-0.106-0.08-0.11c-0.026-0.004-0.053-0.106-0.079-0.11
	c-1.885-2.902-3.469-5.309-4.319-8.754c-0.439-2.161-0.381-4.289-0.191-6.318c0.033-0.324,0.075-0.667,0.121-1.013
	c-0.364-1.291-0.706-2.716-1.048-4.252c-0.68-3.498-0.642-7.4-0.206-11.645c0.506-3.744,1.17-7.964,1.466-12.404
	c-0.017-4.985-0.378-9.366,3.28-14.375c0.006-0.012,0.053-0.068,0.06-0.08c0.007-0.012,0.054-0.068,0.061-0.08
	c0.675-0.886,1.447-1.756,2.329-2.62c3.914-3.739,9.411-5.892,13.409-7.86c0.927-0.456,1.755-0.898,2.495-1.33
	c0.151-0.089,0.305-0.18,0.459-0.273c2.122-2.32,3.6-5.166,6.787-7.981c2.684-2.412,6.159-3.938,9.875-4.799
	c4.283-0.992,8.91-1.081,12.988-0.799c1.433,0.149,2.828,0.406,4.202,0.744c8.381,1.867,14.905,6.64,20.247,7.314c0,0,0,0,0,0
	c0.456,0.092,0.855,0.186,1.302,0.283c2.915,0.574,5.58,1.151,8.048,2.025c1.982,0.702,3.82,1.576,5.499,2.607
	c1.294,0.809,2.456,1.72,3.526,2.623c1.521,0.361,3.117,0.807,4.823,1.267c2.501,0.715,4.96,1.417,7.574,1.693
	c0.268,0.028,0.536,0.061,0.855,0.094c0.922,0.063,1.8,0.117,2.638,0.167c0.909-0.776,1.762-1.621,2.586-2.517
	c5.476-5.783,7.528-13.366,13.059-17.688c0.866-0.712,1.762-1.363,2.685-1.956c5.627-3.791,12.242-5.077,19.578-5.077
	c4.156,0,8.22,0.401,12.025,0.781c1.571-0.426,3.251-0.843,5.044-1.232c0.17-0.036,0.34-0.07,0.511-0.105
	c0.334-0.072,0.615-0.145,0.95-0.207c4.251-0.783,5.863-2.489,9.992-3.321c0.791-0.156,1.518-0.193,2.285-0.166
	c0.372,0.014,0.742,0.044,1.109,0.088c1.862-0.946,3.911-1.456,6.136-2.45c0.561-0.209,1.12-0.479,1.696-0.712
	c7.239-2.934,10.534-9.382,16.57-12.967C259.877,27.743,264.914,26.529,270.139,26.529"/>
<path class="st1" d="M271.042,23.231L271.042,23.231c13.753,0,27.965,7.302,36.056,18.226c5.403,7.179,8.308,14.451,11.265,20.864
	c0.767,1.653,1.572,3.221,2.396,4.702c0.515,0.844,1.471,2.19,2.25,3.295c0.972,1.38,2.018,2.883,3.015,4.517
	c0.617,1.019,1.23,2.088,1.826,3.204c0.003,0.006,0.02,0.037,0.023,0.043c0.003,0.006,0.02,0.037,0.023,0.043
	c3.754,7.094,6.812,15.153,8.828,23.176c0.884,3.532,1.491,7.276,1.974,11.041c0.001,0.012,0.011,0.077,0.012,0.09
	s0.011,0.078,0.011,0.09c0.634,4.978,0.858,10.016,1.384,14.464c0.245,2.025,0.577,4.375,1.061,6.333
	c3.778,4.022,10.577,6.801,14.722,13.621c0.002,0.004,0.016,0.027,0.019,0.031s0.016,0.027,0.019,0.031
	c7.273,12.086,4.312,28.138-2.084,40.898c-3.626,7.624-8.98,15.284-15.046,21.537c-5.731,5.937-11.728,11.161-17.541,16.296
	c-1.993,1.76-3.927,3.475-5.803,5.189c-0.858,0.784-1.71,1.563-2.554,2.341c-4.042,3.73-8.281,6.941-12.165,9.863
	c-3.038,2.285-5.956,4.469-8.375,6.6c-1.328,1.251-3.102,4.691-4.472,7.15c-1.111,1.954-2.26,4.05-3.514,6.212
	c-0.723,1.228-1.463,2.489-2.236,3.764c-0.007,0.008-0.055,0.093-0.062,0.102c-0.007,0.008-0.056,0.093-0.062,0.101
	c-4.801,7.852-9.616,14.965-14.21,21.541c-2.466,3.691-3.829,9.599-5.461,16.056c-2.314,6.592-5.045,13.108-8.621,19.876
	c-3.539,6.484-6.17,13.643-9.309,20.754c-0.003,0.013-0.031,0.064-0.033,0.077c-0.003,0.013-0.031,0.063-0.033,0.076
	c-4.27,9.682-9.441,17.923-17.787,23.187c-2.76,1.871-6.04,2.547-9.63,2.547c-7.105,0-14.296-2.15-20.44-3.813
	c-2.039-0.553-4.61-1.233-6.332-1.531c-1.642,0.108-3.237,0.227-4.779,0.376c-1.144,0.107-2.229,0.247-3.304,0.372
	c-2.813,0.423-5.52,0.694-8.142,0.808c-2.415,0.107-4.756,0.076-7.024-0.098c-11.216-0.874-20.75-5.323-28.77-14.797
	c-2.528-2.939-5.187-5.787-7.856-8.696c-1.552-1.014-4.512-2.31-6.802-3.29c-6.595-2.83-14.372-5.773-20.993-11.642
	c-7.926-6.949-13.38-16.308-13.747-26.828c-0.236-8.436,1.869-15.238,5.827-21.244c3.879-6.04,9.315-10.664,15.657-14.753
	c3.908-2.6,8.294-5.111,12.694-7.512c6.84-3.736,12.895-6.904,16.044-10.618c-0.754-1.2-1.569-2.478-2.437-3.84
	c-1.024-1.617-2.092-3.238-3.145-4.907c-0.12-0.131-0.968-0.813-1.093-0.939c-0.255-0.257-1.681-1.958-1.949-2.199
	c-0.517-0.512-1.496-1.373-2.291-2.071c-3.994-3.497-9.118-7.964-12.074-15.219c-0.632-1.205-2.946-3.793-3.326-4.966
	c-1.465-3.124-2.762-6.011-3.834-8.759c-1.42-0.581-2.876-1.233-4.316-2.006c-1.538-0.828-2.993-1.768-4.32-2.843
	c-4.511-3.542-6.983-8.525-9.349-13.855c-1.321-2.919-2.433-5.727-3.813-8.094c-0.093-0.163-0.185-0.324-0.277-0.481
	c-5.444-2.827-13.992-3.528-20.45-8.587c-8.679-5.867-8.605-15.352-12.029-21.403c-0.804-1.894-1.615-3.357-2.462-4.466
	c-0.102-0.02-0.216-0.497-0.32-0.515c-0.024-0.004-0.05-0.113-0.074-0.117c-0.024-0.004-0.049-0.113-0.073-0.117
	c-1.746-3.095-3.145-5.687-3.85-9.187c-0.35-2.212-0.235-4.37-0.006-6.411c0.039-0.327,0.088-0.674,0.14-1.024
	c-0.384-1.295-0.754-2.732-1.121-4.288c-0.733-3.509-0.794-7.46-0.408-11.784c0.455-3.759,1.098-8.036,1.514-12.552
	c0.117-4.989,0.011-9.45,3.767-14.487c0.006-0.011,0.055-0.07,0.062-0.081c0.006-0.011,0.056-0.07,0.062-0.081
	c0.696-0.895,1.484-1.771,2.374-2.636c4.007-3.801,9.512-6.007,13.552-7.982c0.936-0.457,1.777-0.898,2.532-1.327
	c0.153-0.088,0.31-0.179,0.468-0.271c2.088-2.329,3.645-5.21,6.878-8.067c2.732-2.455,6.231-4.049,9.981-4.982
	c4.315-1.074,8.985-1.255,13.179-1.033c1.455,0.126,2.879,0.357,4.285,0.669c8.624,1.723,15.421,6.381,20.643,7.11c0,0,0,0,0,0
	c0.46,0.099,0.868,0.202,1.319,0.307c2.958,0.639,5.653,1.3,8.136,2.244c2.006,0.763,3.855,1.691,5.541,2.757
	c1.308,0.843,2.482,1.777,3.559,2.694c1.551,0.319,3.19,0.72,4.944,1.145c2.564,0.66,5.076,1.328,7.721,1.626
	c0.274,0.031,0.547,0.066,0.868,0.102c0.933,0.075,1.824,0.144,2.677,0.212c0.89-0.816,1.737-1.697,2.565-2.623
	c5.468-5.953,7.891-13.424,13.63-17.73c0.893-0.704,1.816-1.349,2.766-1.936c5.751-3.727,12.47-5.025,19.944-5.025
	c4.235,0,8.362,0.404,12.212,0.789c1.579-0.474,3.277-0.937,5.099-1.366c0.172-0.039,0.345-0.078,0.517-0.116
	c0.336-0.078,0.624-0.157,0.962-0.224c4.238-0.843,6.052-2.471,10.208-3.239c0.799-0.144,1.536-0.176,2.309-0.147
	c0.376,0.015,0.75,0.046,1.12,0.089c1.834-1.051,3.866-1.708,6.094-2.806c0.558-0.234,1.113-0.525,1.688-0.78
	c7.127-3.158,10.72-9.422,16.884-12.923C260.675,24.421,265.765,23.231,271.042,23.231"/>
<path class="st1" d="M271.946,19.934L271.946,19.934c14.234,0,28.939,7.541,37.33,18.866c5.488,7.293,8.463,14.663,11.423,21.108
	c0.777,1.681,1.584,3.276,2.409,4.778c0.508,0.84,1.488,2.221,2.278,3.343c0.981,1.392,2.043,2.916,3.062,4.579
	c0.627,1.031,1.253,2.114,1.859,3.246c0.003,0.005,0.021,0.038,0.023,0.043c0.003,0.005,0.021,0.038,0.023,0.043
	c3.819,7.185,6.938,15.342,9.017,23.484c0.914,3.592,1.557,7.382,2.066,11.189c0,0.011,0.012,0.08,0.012,0.091
	c0,0.011,0.011,0.08,0.012,0.091c0.669,5.053,0.896,10.162,1.397,14.671c0.233,2.048,0.548,4.456,1.011,6.454
	c3.861,3.932,10.668,6.886,14.893,13.837c0.002,0.004,0.017,0.028,0.019,0.032s0.017,0.028,0.019,0.031
	c7.368,12.239,4.762,28.405-1.604,41.579c-3.642,7.923-9.122,15.905-15.363,22.379c-5.909,6.16-12.099,11.556-18.099,16.85
	c-2.062,1.819-4.06,3.589-5.997,5.357c-0.887,0.81-1.766,1.614-2.637,2.419c-4.18,3.864-8.562,7.181-12.561,10.188
	c-3.146,2.366-6.162,4.624-8.643,6.823c-1.328,1.27-3.14,4.896-4.518,7.463c-1.113,2.036-2.271,4.223-3.543,6.478
	c-0.731,1.279-1.484,2.589-2.276,3.913c-0.006,0.008-0.057,0.098-0.063,0.106c-0.006,0.008-0.058,0.097-0.064,0.105
	c-4.932,8.169-9.972,15.467-14.778,22.191c-2.562,3.736-3.939,9.861-5.584,16.601c-2.222,6.607-4.841,13.217-8.323,20.075
	c-3.429,6.536-6.098,13.705-9.364,20.803c-0.002,0.012-0.032,0.064-0.035,0.076s-0.032,0.064-0.035,0.076
	c-4.44,9.651-9.94,17.715-18.496,22.738c-2.811,1.776-6.112,2.427-9.709,2.427c-7.29,0-14.612-2.173-20.831-3.86
	c-2.069-0.562-4.714-1.266-6.45-1.566c-1.672,0.133-3.296,0.27-4.868,0.43c-1.163,0.115-2.27,0.259-3.366,0.386
	c-2.867,0.42-5.626,0.684-8.299,0.789c-2.459,0.098-4.845,0.056-7.157-0.132c-11.448-0.941-21.192-5.51-29.375-15.028
	c-2.59-2.968-5.281-5.888-7.963-8.902c-1.549-1.016-4.606-2.347-6.937-3.342c-6.674-2.856-14.584-5.879-21.371-11.893
	c-8.105-7.107-13.664-16.601-14.243-27.23c-0.407-8.505,1.525-15.556,5.366-21.868c3.772-6.355,9.139-11.296,15.486-15.605
	c3.925-2.744,8.348-5.347,12.841-7.785c6.978-3.79,13.245-6.849,16.79-10.365c-0.787-1.213-1.629-2.507-2.515-3.887
	c-1.044-1.637-2.125-3.291-3.182-5.003c-0.11-0.12-1.003-0.834-1.118-0.95c-0.233-0.236-1.727-2.028-1.973-2.249
	c-0.512-0.511-1.521-1.399-2.331-2.111c-4.019-3.523-9.255-8.096-12.353-15.487c-0.681-1.297-2.881-3.862-3.289-5.124
	c-1.455-3.211-2.696-6.193-3.7-9.017c-1.457-0.56-2.953-1.194-4.439-1.954c-1.586-0.813-3.088-1.738-4.467-2.8
	c-4.697-3.508-7.441-8.466-9.971-13.848c-1.413-2.953-2.573-5.802-3.942-8.212c-0.092-0.167-0.184-0.331-0.276-0.492
	c-5.548-2.708-14.159-3.607-20.73-8.935c-8.654-6.111-8.79-15.625-11.993-21.78c-0.761-1.961-1.509-3.497-2.289-4.666
	c-0.094-0.018-0.2-0.529-0.295-0.546c-0.022-0.004-0.047-0.121-0.068-0.125c-0.022-0.004-0.045-0.121-0.067-0.124
	c-1.607-3.287-2.822-6.065-3.381-9.62c-0.262-2.263-0.089-4.451,0.18-6.505c0.046-0.33,0.101-0.681,0.16-1.036
	c-0.404-1.299-0.801-2.748-1.194-4.324c-0.786-3.52-0.945-7.519-0.609-11.923c0.403-3.774,1.027-8.109,1.562-12.701
	c0.25-4.992,0.401-9.534,4.255-14.598c0.005-0.01,0.058-0.072,0.063-0.082c0.006-0.01,0.059-0.071,0.064-0.082
	c0.717-0.905,1.52-1.786,2.419-2.653c4.1-3.863,9.612-6.123,13.694-8.104c0.946-0.459,1.8-0.899,2.568-1.325
	c0.155-0.087,0.316-0.177,0.477-0.269c2.054-2.339,3.689-5.254,6.969-8.153c2.781-2.498,6.303-4.16,10.088-5.166
	c4.347-1.155,9.061-1.428,13.369-1.266c1.478,0.103,2.929,0.308,4.368,0.594c8.868,1.579,15.937,6.121,21.039,6.907c0,0,0,0,0,0
	c0.465,0.107,0.881,0.217,1.336,0.33c3,0.703,5.726,1.449,8.223,2.463c2.029,0.824,3.89,1.806,5.583,2.908
	c1.322,0.877,2.508,1.834,3.592,2.765c1.582,0.278,3.263,0.633,5.065,1.022c2.627,0.605,5.192,1.239,7.868,1.558
	c0.28,0.033,0.559,0.071,0.881,0.11c0.944,0.086,1.848,0.171,2.717,0.257c0.872-0.856,1.712-1.772,2.544-2.73
	c5.46-6.123,8.254-13.481,14.202-17.772c0.92-0.696,1.869-1.334,2.847-1.916c5.876-3.663,12.698-4.973,20.31-4.973
	c4.314,0,8.504,0.408,12.398,0.797c1.588-0.522,3.304-1.031,5.154-1.501c0.175-0.043,0.349-0.085,0.524-0.127
	c0.339-0.084,0.634-0.169,0.975-0.241c4.226-0.902,6.24-2.454,10.424-3.158c0.806-0.132,1.555-0.159,2.333-0.127
	c0.38,0.016,0.758,0.047,1.132,0.091c1.806-1.156,3.821-1.96,6.053-3.163c0.554-0.26,1.107-0.572,1.679-0.848
	c7.015-3.38,10.906-9.462,17.198-12.878C261.473,21.1,266.616,19.934,271.946,19.934"/>
<path class="st1" d="M272.849,16.636L272.849,16.636c14.715,0,29.913,7.779,38.603,19.507c5.573,7.407,8.617,14.875,11.582,21.351
	c0.786,1.71,1.596,3.331,2.422,4.855c0.5,0.835,1.505,2.251,2.307,3.39c0.99,1.404,2.068,2.949,3.109,4.64
	c0.638,1.043,1.275,2.14,1.893,3.288c0.002,0.005,0.021,0.039,0.023,0.044c0.002,0.005,0.021,0.039,0.023,0.044
	c3.884,7.276,7.065,15.531,9.206,23.792c0.944,3.652,1.622,7.489,2.157,11.337c0,0.01,0.012,0.082,0.013,0.092
	s0.012,0.082,0.012,0.092c0.704,5.128,0.934,10.307,1.411,14.879c0.221,2.072,0.52,4.537,0.962,6.574
	c3.944,3.841,10.758,6.971,15.064,14.054c0.002,0.003,0.017,0.029,0.019,0.032c0.002,0.003,0.017,0.029,0.019,0.032
	c7.462,12.392,5.212,28.672-1.123,42.259c-3.658,8.222-9.264,16.527-15.68,23.221c-6.088,6.382-12.471,11.95-18.656,17.404
	c-2.13,1.878-4.192,3.702-6.19,5.524c-0.916,0.835-1.823,1.665-2.72,2.496c-4.318,3.998-8.844,7.42-12.957,10.513
	c-3.254,2.447-6.368,4.779-8.911,7.047c-1.329,1.288-3.177,5.1-4.563,7.776c-1.116,2.118-2.282,4.396-3.572,6.745
	c-0.739,1.329-1.506,2.689-2.315,4.062c-0.006,0.007-0.059,0.103-0.065,0.109c-0.006,0.007-0.06,0.102-0.065,0.109
	c-5.063,8.485-10.327,15.969-15.347,22.84c-2.659,3.781-4.05,10.123-5.706,17.146c-2.131,6.622-4.636,13.325-8.024,20.273
	c-3.319,6.588-6.027,13.767-9.419,20.852c-0.002,0.011-0.034,0.065-0.036,0.076c-0.002,0.011-0.034,0.065-0.036,0.076
	c-4.609,9.62-10.439,17.507-19.205,22.29c-2.862,1.682-6.185,2.308-9.789,2.308c-7.476,0-14.928-2.196-21.221-3.907
	c-2.1-0.572-4.818-1.298-6.567-1.602c-1.701,0.157-3.354,0.313-4.957,0.485c-1.182,0.124-2.311,0.27-3.428,0.399
	c-2.921,0.417-5.731,0.675-8.456,0.77c-2.504,0.089-4.934,0.035-7.289-0.166c-11.68-1.008-21.634-5.696-29.98-15.258
	c-2.652-2.996-5.376-5.99-8.071-9.109c-1.546-1.019-4.699-2.384-7.071-3.394c-6.753-2.881-14.797-5.985-21.748-12.144
	c-8.284-7.265-13.947-16.893-14.738-27.632c-0.577-8.574,1.182-15.874,4.906-22.493c3.664-6.67,8.963-11.928,15.314-16.457
	c3.941-2.887,8.403-5.583,12.988-8.057c7.115-3.843,13.594-6.795,17.536-10.113c-0.819-1.226-1.688-2.535-2.592-3.934
	c-1.065-1.656-2.158-3.343-3.219-5.1c-0.1-0.109-1.039-0.855-1.143-0.96c-0.212-0.214-1.774-2.097-1.997-2.299
	c-0.507-0.509-1.545-1.424-2.37-2.15c-4.044-3.549-9.393-8.228-12.631-15.756c-0.729-1.39-2.815-3.931-3.253-5.283
	c-1.446-3.299-2.631-6.374-3.567-9.275c-1.493-0.539-3.03-1.156-4.561-1.902c-1.633-0.797-3.183-1.709-4.614-2.756
	c-4.884-3.474-7.9-8.407-10.594-13.841c-1.505-2.988-2.713-5.876-4.07-8.33c-0.092-0.171-0.184-0.339-0.275-0.504
	c-5.652-2.589-14.325-3.685-21.01-9.283c-8.63-6.354-8.975-15.899-11.957-22.157c-0.718-2.027-1.403-3.638-2.116-4.866
	c-0.085-0.017-0.184-0.561-0.27-0.576c-0.02-0.003-0.043-0.128-0.063-0.132c-0.02-0.003-0.041-0.128-0.061-0.131
	c-1.468-3.479-2.498-6.443-2.911-10.053c-0.174-2.314,0.057-4.532,0.366-6.598c0.052-0.333,0.114-0.688,0.179-1.047
	c-0.424-1.303-0.849-2.763-1.267-4.359c-0.839-3.531-1.096-7.579-0.811-12.062c0.352-3.79,0.955-8.182,1.61-12.849
	c0.384-4.996,0.791-9.617,4.742-14.709c0.005-0.009,0.06-0.073,0.065-0.083c0.005-0.009,0.061-0.073,0.066-0.082
	c0.737-0.915,1.556-1.802,2.463-2.669c4.192-3.924,9.713-6.239,13.837-8.226c0.956-0.46,1.823-0.899,2.604-1.323
	c0.158-0.086,0.321-0.176,0.486-0.267c2.021-2.348,3.734-5.297,7.061-8.239c2.83-2.54,6.374-4.27,10.194-5.349
	c4.379-1.237,9.137-1.602,13.56-1.499c1.5,0.08,2.98,0.259,4.45,0.519c9.112,1.436,16.452,5.861,21.436,6.703c0,0,0,0,0,0
	c0.469,0.114,0.894,0.233,1.352,0.354c3.043,0.768,5.798,1.598,8.31,2.681c2.052,0.885,3.925,1.92,5.624,3.058
	c1.336,0.911,2.533,1.89,3.625,2.837c1.613,0.236,3.335,0.547,5.186,0.9c2.689,0.55,5.308,1.15,8.016,1.491
	c0.286,0.036,0.57,0.077,0.893,0.118c0.955,0.098,1.873,0.198,2.756,0.303c0.854-0.896,1.687-1.847,2.523-2.836
	c5.451-6.293,8.617-13.539,14.773-17.814c0.947-0.688,1.923-1.32,2.928-1.896c6-3.599,12.926-4.921,20.676-4.921
	c4.392,0,8.646,0.411,12.585,0.805c1.596-0.569,3.33-1.125,5.209-1.636c0.177-0.047,0.354-0.093,0.531-0.138
	c0.342-0.09,0.643-0.18,0.987-0.259c4.214-0.961,6.429-2.436,10.64-3.076c0.814-0.12,1.573-0.142,2.356-0.108
	c0.385,0.017,0.766,0.049,1.143,0.092c1.778-1.261,3.776-2.212,6.012-3.519c0.551-0.286,1.101-0.618,1.671-0.915
	c6.906-3.598,11.092-9.502,17.512-12.834C262.271,17.778,267.467,16.636,272.849,16.636"/>
</svg>
