<?xml version="1.0" encoding="utf-8"?>
<!-- Generator: Adobe Illustrator 25.0.0, SVG Export Plug-In . SVG Version: 6.00 Build 0)  -->
<!DOCTYPE svg PUBLIC "-//W3C//DTD SVG 1.1//EN" "http://www.w3.org/Graphics/SVG/1.1/DTD/svg11.dtd" [
	<!ENTITY ns_extend "http://ns.adobe.com/Extensibility/1.0/">
	<!ENTITY ns_ai "http://ns.adobe.com/AdobeIllustrator/10.0/">
	<!ENTITY ns_graphs "http://ns.adobe.com/Graphs/1.0/">
	<!ENTITY ns_vars "http://ns.adobe.com/Variables/1.0/">
	<!ENTITY ns_imrep "http://ns.adobe.com/ImageReplacement/1.0/">
	<!ENTITY ns_sfw "http://ns.adobe.com/SaveForWeb/1.0/">
	<!ENTITY ns_custom "http://ns.adobe.com/GenericCustomNamespace/1.0/">
	<!ENTITY ns_adobe_xpath "http://ns.adobe.com/XPath/1.0/">
]>
<svg version="1.1" id="Livello_1" xmlns:x="&ns_extend;" xmlns:i="&ns_ai;" xmlns:graph="&ns_graphs;"
	 xmlns="http://www.w3.org/2000/svg" xmlns:xlink="http://www.w3.org/1999/xlink" x="0px" y="0px" viewBox="0 0 400 400"
	 style="enable-background:new 0 0 400 400;" xml:space="preserve">
<style type="text/css">
	.st0{opacity:0.45;fill:#FFFFFF;}
	.st1{fill:none;stroke:#DC4B33;stroke-width:0.9;stroke-miterlimit:10;}
</style>
<metadata>
	<sfw  xmlns="&ns_sfw;">
		<slices></slices>
		<sliceSourceBounds  bottomLeftOrigin="true" height="256.944" width="295.602" x="55.451" y="71.032"></sliceSourceBounds>
	</sfw>
</metadata>
<path class="st0" d="M246.795,72.474L246.795,72.474c11.088,0,13.431,6.198,14.495,14.411c2.095,8.711,7.596,15.887,7.675,24.922
	c0.011,0.937-0.026,1.861-0.085,2.764c0.009,0.899,0.07,1.927,0.097,2.873c-0.017,4.508,0.152,9.163,3.51,13.424
	c1.352,1.673,2.815,3.176,4.306,4.569c0.593,0.547,1.191,1.061,1.793,1.542c1.208,0.413,2.447,0.78,3.643,1.105
	c2.584,0.43,5.441,0.705,8.383,1.114c1.064,0.183,2.308,0.359,3.628,0.598c0.518,0.097,1.03,0.196,1.535,0.299
	c3.252,0.139,6.012-0.981,9.385-0.675c0.374,0.034,0.746,0.075,1.156,0.152c4.126,0.822,9.062,2.322,12.035,5.186
	c0.009,0.008,0.028,0.027,0.037,0.036c0.009,0.009,0.028,0.027,0.036,0.036c4.169,4.103,4.72,9.342,6.459,13.854
	c0.463,1.228,0.958,2.37,1.491,3.41c0.178,0.357,0.37,0.744,0.557,1.076c1.069,1.543,2.782,3.328,4.346,4.861
	c5.031,4.955,11.517,9.845,15.574,16.684c0.682,1.112,1.289,2.267,1.807,3.473c3.798,7.702,1.954,17.764-4.796,21.61
	c-3.877,2.046-6.629,4.139-7.856,9.767c-0.544,2.434-1.553,4.506-2.892,6.279c-2.926,6.437-9.313,10.307-15.003,13.823
	c-2.114,1.277-4.068,2.484-5.597,3.771c-0.987,1.481-1.596,3.082-1.559,4.941c0.706,3.247,4.009,5.154,4.583,8.669
	c0.314,4.186-2.723,9.428-4.921,12.192c0,0,0,0,0,0c-0.091,0.115-0.182,0.226-0.273,0.335c-0.076,0.091-0.152,0.178-0.229,0.262
	c-1.895,2.625-4.601,1.941-5.729,5.051c-0.901,2.297,1.257,6.057-1,7.831c-12.711,10.007-18.605,13.618-24.313,14.326
	c-3.494,0.434-6.869-0.367-12.193-0.943c-0.809-0.077-1.459-0.161-2.026-0.171c-0.974-0.017-1.585,0.175-2.21,0.775
	c-0.411,0.522-0.833,1.176-1.342,2.005c-0.313,0.491-0.621,0.937-0.929,1.346c-1.639,2.98-3.357,4.331-6.952,6.47
	c-1.765,1.061-2.531,2.782-3.625,4.579c-1.04,1.6-2.261,3.236-4.486,4.558c-12.73,7.456-23.919,7.203-33.871,7.37
	c-3.719,0.061-7.225,0.169-10.308,0.785c-0.169,0.027-0.528,0.123-0.697,0.153c-0.169,0.03-0.531,0.116-0.7,0.149
	c-1.676,0.364-3.414,0.822-5.202,1.374c-2.496,0.655-4.903,1.123-7.198,1.123c-4.142,0-7.666-1.456-10.627-5.583
	c-3.429-4.809-5.376-5.83-10.566-9.493c-1.261-0.945-2.457-2.325-3.641-3.789c-2.522-1.333-5.103-3.026-8.018-2.595
	c-0.365,0.054-0.767,0.15-1.128,0.28c-0.277,0.092-0.546,0.196-0.808,0.313c-0.733,0.325-1.421,0.752-2.063,1.292
	c-1.183,0.995-2.271,2.385-3.24,4.19c-3.21,6.382-9.843,9.229-17.281,12.643c-1.512,0.654-3.345,1.405-5.365,2.121
	c-5.334,1.746-11.652,3.063-16.98,2.297c-3.003-0.432-5.721-1.522-7.724-3.693c-0.009-0.01-0.029-0.032-0.039-0.042
	c-0.009-0.01-0.029-0.032-0.038-0.042c-4.077-4.554-2.39-10.502-3.015-15.489c-0.563-4.593-1.522-3.386-3.779-5.631
	c-0.033-0.029-0.066-0.059-0.098-0.088c-1.988-1.319-1.985-2.76-3.583-4.215c-5.71-3.606-9.859-3.138-13.006-6.3
	c-2.349-2.427-3.973-6.483-5.307-14.451c-0.358-1.626-0.998-2.979-1.74-4.23c-1.829-2.281-4.274-4.307-5.37-7.741
	c-0.699-2.274-0.589-4.216,0.023-6.153c0.723-2.417,2.219-4.742,3.888-7.541c1.803-3.219-2.491-7.418-1.864-10.876
	c0.067-0.411,0.145-0.801,0.233-1.172c0.123-0.54,0.266-1.034,0.425-1.488c0.599-3.305,2.224-4.46,3.751-6.472
	c0.004-0.003,0.008-0.013,0.012-0.016c0.004-0.003,0.008-0.013,0.012-0.016c0.518-0.684,1.016-1.449,1.448-2.416
	c1.943-4.269,1.245-7.037-0.113-9.596c-0.323-0.383-0.661-0.769-1.006-1.16c-1.702-1.956-3.518-3.998-4.752-6.543
	c-2.229-4.79-2.256-11.55-2.496-16.396c-0.032-0.351-0.065-0.693-0.099-1.026c-0.185-1.457-0.383-2.403-0.695-3.469
	c-2.886-10.611-6.53-10.334-3.126-26.792c0.038-2.857-0.413-6.532-0.944-10.03c-0.67-4.4-1.537-9.001-2.083-13.255
	c-0.791-5.506-1.211-11.296,1.055-14.66c3.018-3.53,4.329-2.655,6.567-5.642c0.169-0.224,0.34-0.442,0.511-0.653c0,0,0,0,0,0
	c2.683-3.345,5.213-4.739,7.565-5.085c4.728-1.054,8.967,2.695,12.912,2.277c0.606-0.064,1.171-0.237,1.774-0.52
	c1.669-0.999,2.93-2.963,3.914-4.189c1.198-1.178,2.452-2.096,3.715-2.835c2.518-1.393,5.244-2.125,8.01-2.628
	c2.868-1.214,5.878-2.136,8.807-3.225c4.327-1.438,8.573-2.623,12.55-3.783c1.37-0.398,2.716-0.794,3.984-1.194
	c0.157-0.048,0.468-0.149,0.625-0.198c0.157-0.049,0.47-0.142,0.627-0.191c0.648-0.202,1.943-0.59,2.589-0.799
	c3.501-1.094,6.966-2.24,10.395-3.486c2.12-0.775,4.387-1.361,6.608-1.53c1.922-0.147,3.8,0.009,5.558,0.582
	c1.583,0.446,3.056,2.005,4.463,2.427c0.277,0.101,0.551,0.149,0.823,0.124c0.36-0.034,0.682-0.181,1.042-0.482
	c0.596-0.52,0.501-1.266,0.904-1.739c0.737-0.832,2.588-1.762,3.669-2.212c2.581-1.075,4.735-2.166,6.638-3.215
	c2.605-1.525,4.672-3.005,6.751-4.263c0.731-0.728,1.49-1.473,2.363-2.255c3.366-2.972,7.904-5.695,16.748-6.574
	c0.105-0.014,0.209-0.028,0.314-0.042l0,0c2.308-0.304,4.337,0.255,6.561,0.178c0.279-0.024,0.597-0.01,0.877-0.032
	c1.947-0.151,3.845-0.599,5.854-0.674c0.386-0.014,0.774-0.027,1.162,0c1.937,0.084,3.689,0.977,5.403,2.138
	c0.043,0.047,0.166,0.095,0.209,0.143c1.943,1.199,3.668,2.77,5.262,3.988c0.951,0.614,2.007,1.109,3.18,1.391
	c0.493,0.145,1.074,0.226,1.726,0.24c0.466,0.008,0.969-0.026,1.504-0.112c0.766-0.115,1.556-0.327,2.36-0.669
	c1.235-0.507,2.175-1.02,2.919-1.52c3.054-3.849,2.283-7.594,8.984-8.333c0.684-0.086,1.435-0.139,2.263-0.155
	C246.414,72.475,246.623,72.474,246.795,72.474"/>
<g>
	<path class="st1" d="M243.571,87.55c9.792,0,10.224,6.096,10.176,14.976c-0.048,8.208,6.432,13.824,6.48,22.656
		c0.048,6.288-2.928,12.576,2.352,17.136c6.192,5.376,15.36,6.48,22.8,8.16c2.88,0,5.232-1.632,8.448-1.632
		c0.336,0,0.672,0,1.056,0.048c3.6,0.432,8.448,1.488,11.088,4.032c3.552,3.456,3.408,8.16,5.136,12.384
		c4.08,9.984,16.704,15.072,21.36,25.296c3.648,6.672,1.392,15.936-5.808,17.856c-4.224,1.104-6.768,2.448-7.2,8.448
		c-0.48,16.56-24.24,16.08-23.808,25.2c0.96,2.736,5.424,3.888,6.576,7.2c1.2,3.456-1.776,8.832-4.032,11.568
		c-2.208,2.688-5.424,0.72-6.384,3.888c-0.624,2.016,2.736,5.952,0.72,7.536c-12.864,10.128-17.664,12.624-22.08,12.624
		c-3.072,0-5.952-1.2-11.184-1.92c-0.768-0.096-1.344-0.192-1.824-0.192c-1.44,0-1.776,0.672-2.88,3.024
		c-1.92,4.08-3.312,4.752-7.344,6.768c-3.216,1.632-1.872,6.144-6.48,9.024c-17.568,10.944-31.728,3.936-45.744,8.976
		c-2.352,0.672-4.512,1.152-6.48,1.152c-3.648,0-6.624-1.536-9.024-6.144c-2.784-5.376-3.888-5.664-9.264-8.928
		c-3.456-2.112-6.432-8.448-10.656-8.448c-0.336,0-0.72,0.048-1.056,0.144c-2.304,0.576-3.984,2.4-4.992,5.76
		c-2.112,7.008-7.824,9.504-14.4,13.392c-4.224,2.496-13.104,6.912-20.112,6.912c-2.928,0-5.568-0.768-7.392-2.784
		c-3.696-4.128-0.912-9.888-1.392-14.592c-0.528-4.848-1.68-2.496-4.512-4.56c-2.064-1.536-1.392-3.168-2.736-4.704
		c-9.984-6.672-14.016,2.16-17.088-18.24c-1.008-4.8-5.616-6.24-6.816-10.896c-1.296-4.992,2.208-7.584,5.952-12.192
		c2.208-2.736-3.456-6.72-3.216-9.84c0.576-7.296,4.8-5.904,7.056-10.032c4.128-7.488-3.696-9.264-7.104-15.408
		c-2.208-3.984-2.16-10.464-2.4-15.072c-1.68-15.168-7.44-9.504-3.6-27.696c0.432-11.04-6.192-29.664-2.016-33.936
		c3.408-3.504,4.512-1.488,6.528-4.368c2.592-3.696,4.992-4.944,7.248-4.944c4.704,0,8.736,5.52,12.48,5.52
		c0.576,0,1.104-0.144,1.68-0.432c1.44-1.008,2.4-3.312,3.072-4.752c4.464-6.672,11.952-7.2,18.96-9.6
		c9.84-2.784,19.488-5.424,28.944-9.072c1.968-0.768,4.128-1.296,6.24-1.296c1.824,0,3.6,0.384,5.232,1.296
		c1.728,0.912,3.264,3.888,4.704,3.888c0.336,0,0.624-0.144,0.96-0.48c0.528-0.576,0.192-1.44,0.48-1.968
		c0.48-0.912,2.352-1.968,3.264-2.448c13.632-6.672,10.8-16.224,30.432-16.224c0.096,0,0.192,0,0.288,0l0,0
		c2.112,0,3.84,1.008,5.76,1.152c0.24,0,0.528,0.048,0.768,0.048c1.728,0,3.36-0.432,5.088-0.432c0.336,0,0.672,0,1.008,0.048
		c4.992,0.528,7.584,9.696,12.528,9.696c0.96,0,2.064-0.336,3.264-1.2c6.624-4.704-0.144-11.088,10.464-11.28
		C243.235,87.55,243.427,87.55,243.571,87.55"/>
</g>
<path class="st1" d="M244.216,84.535L244.216,84.535c10.051,0,10.865,6.116,11.04,14.863c0.381,8.309,6.665,14.237,6.719,23.109
	c0.007,0.851-0.037,1.699-0.107,2.54c-0.061,0.889-0.136,1.801-0.217,2.689c-0.446,4.48-0.829,8.791,2.911,12.292
	c1.516,1.416,3.204,2.582,4.989,3.571c0.709,0.392,1.434,0.753,2.171,1.087c1.091,0.41,2.207,0.772,3.326,1.097
	c2.503,0.673,5.113,1.167,7.679,1.658c1.096,0.219,2.215,0.431,3.328,0.66c0.474,0.098,0.943,0.198,1.405,0.3
	c2.954,0.028,5.388-1.503,8.635-1.441c0.344,0.007,0.687,0.015,1.076,0.069c3.705,0.51,8.571,1.655,11.277,4.263
	c0.01,0.01,0.023,0.022,0.033,0.033c0.01,0.01,0.023,0.023,0.033,0.033c3.622,3.581,3.627,8.366,5.348,12.627
	c0.423,1.054,0.923,2.051,1.486,2.996c0.183,0.31,0.375,0.622,0.572,0.92c1.059,1.54,2.4,3.043,3.795,4.452
	c4.677,4.729,10.608,8.943,14.304,14.691c0.635,0.98,1.203,2.003,1.687,3.078c3.678,6.878,1.504,16.302-5.606,18.607
	c-4.155,1.292-6.74,2.786-7.331,8.712c-0.166,2.463-0.84,4.55-1.868,6.346c-3.014,5.889-9.664,8.891-15.006,11.754
	c-2.06,1.096-3.91,2.169-5.256,3.383c-1.254,1.269-1.999,2.692-1.927,4.44c0.909,2.838,5.141,4.141,6.177,7.494
	c0.988,3.503-1.799,8.644-4.013,11.449c0,0,0,0,0,0c-0.084,0.107-0.168,0.21-0.251,0.311c-0.069,0.084-0.14,0.165-0.211,0.241
	c-2.137,2.394-5.118,0.854-6.088,3.932c-0.679,2.072,2.44,5.973,0.376,7.595c-12.833,10.104-17.854,12.829-22.526,12.964
	c-3.157,0.092-6.135-1.033-11.386-1.725c-0.776-0.092-1.367-0.186-1.864-0.188c-0.921-0.003-1.418,0.249-1.943,0.997
	c-0.316,0.473-0.643,1.116-1.072,1.978c-0.251,0.498-0.494,0.946-0.736,1.353c-1.618,2.924-3.166,3.782-6.716,5.625
	c-1.74,0.916-2.22,2.634-3.023,4.47c-0.707,1.583-1.639,3.25-3.783,4.576c-11.568,7.112-21.705,6.763-31.161,6.929
	c-3.264,0.057-6.437,0.173-9.502,0.683c-0.203,0.032-0.444,0.08-0.647,0.115c-0.203,0.036-0.444,0.084-0.647,0.123
	c-1.59,0.316-3.187,0.737-4.793,1.296c-2.381,0.669-4.59,1.146-6.624,1.146c-3.747,0-6.832-1.52-9.345-6.032
	c-2.913-5.263-4.186-5.697-9.524-9.041c-1.208-0.773-2.357-2.037-3.516-3.373c-2.248-2.24-4.547-4.745-7.341-4.662
	c-0.342,0.011-0.729,0.068-1.07,0.171c-0.261,0.07-0.515,0.155-0.761,0.255c-0.688,0.28-1.317,0.68-1.887,1.21
	c-1.05,0.976-1.91,2.394-2.568,4.303c-2.332,6.883-8.228,9.449-14.976,13.242c-1.284,0.711-2.948,1.571-4.835,2.43
	c-4.687,2.095-10.682,4.143-15.724,3.983c-2.914-0.082-5.545-0.903-7.402-2.905c-0.011-0.012-0.025-0.027-0.036-0.039
	c-0.011-0.012-0.025-0.027-0.036-0.039c-3.772-4.213-1.208-10.011-1.717-14.771c-0.535-4.797-1.648-2.674-4.365-4.774
	c-0.03-0.023-0.06-0.047-0.089-0.07c-1.964-1.477-1.456-3.051-2.836-4.553c-5.88-3.887-9.772-2.596-12.622-5.136
	c-1.993-1.794-3.444-5.374-4.711-13.607c-0.33-1.558-1.014-2.784-1.829-3.886c-1.777-2.26-4.175-4.008-5.046-7.225
	c-0.609-2.261-0.27-4.062,0.616-5.797c1.07-2.116,2.953-4.116,4.928-6.696c2.127-2.833-3.263-6.86-2.946-10.047
	c0.039-0.399,0.088-0.774,0.147-1.126c0.087-0.526,0.196-1,0.323-1.431c0.872-3.331,2.903-4.002,4.674-5.628
	c0.005-0.004,0.009-0.009,0.014-0.013c0.005-0.004,0.009-0.009,0.014-0.013c0.6-0.555,1.168-1.218,1.648-2.131
	c2.171-4.087,1.029-6.542-0.973-8.893c-0.318-0.346-0.654-0.691-1.001-1.04c-1.681-1.696-3.598-3.471-4.884-5.854
	c-2.212-4.145-2.179-10.681-2.419-15.337c-0.034-0.319-0.069-0.629-0.106-0.93c-0.157-1.225-0.336-2.241-0.553-3.196
	c-2.28-10.304-6.444-7.925-3.004-24.288c0.091-2.702-0.244-5.92-0.723-9.21c-0.588-4.029-1.404-8.256-1.984-12.128
	c-0.907-5.898-1.308-11.136,0.701-13.4c3.33-3.509,4.475-1.721,6.536-4.623c0.151-0.212,0.302-0.416,0.452-0.613c0,0,0,0,0,0
	c2.477-3.253,4.788-4.42,6.961-4.49c4.709-0.211,8.782,4.955,12.566,4.871c0.582-0.013,1.117-0.163,1.699-0.45
	c1.486-1.006,2.506-3.242,3.24-4.639c0.977-1.338,2.069-2.414,3.241-3.302c2.235-1.672,4.79-2.668,7.467-3.452
	c2.781-0.954,5.713-1.67,8.566-2.664c4.056-1.19,8.07-2.311,12.005-3.469c1.275-0.375,2.543-0.754,3.793-1.14
	c0.189-0.058,0.408-0.127,0.596-0.185s0.408-0.126,0.596-0.184c0.778-0.243,1.684-0.525,2.46-0.776
	c3.311-1.062,6.598-2.191,9.859-3.434c1.998-0.769,4.18-1.309,6.314-1.343c1.844-0.029,3.64,0.309,5.297,1.153
	c1.454,0.69,2.782,2.72,4.036,3.394c0.265,0.147,0.526,0.231,0.784,0.226c0.341-0.007,0.636-0.151,0.977-0.48
	c0.542-0.565,0.254-1.405,0.565-1.922c0.531-0.896,2.399-1.927,3.345-2.401c2.474-1.173,4.438-2.424,6.107-3.682
	c2.395-1.83,4.166-3.687,5.977-5.358c0.722-0.732,1.457-1.443,2.259-2.125c3.304-2.796,7.639-4.9,16.502-5.075
	c0.098-0.003,0.195-0.006,0.293-0.008l0,0c2.151-0.061,3.939,0.857,5.92,0.957c0.248-0.005,0.542,0.037,0.79,0.032
	c1.772-0.029,3.457-0.465,5.241-0.48c0.346-0.003,0.692-0.005,1.039,0.038c1.729,0.159,3.203,1.259,4.599,2.652
	c0.051,0.057,0.119,0.114,0.17,0.172c1.452,1.439,2.791,3.177,4.187,4.504c0.835,0.771,1.72,1.397,2.691,1.735
	c0.476,0.174,0.987,0.271,1.532,0.274c0.417,0.002,0.863-0.053,1.333-0.178c0.649-0.17,1.336-0.471,2.051-0.938
	c1.089-0.699,1.848-1.433,2.397-2.173c2.554-3.881,0.289-7.946,6.781-8.72c0.6-0.073,1.272-0.119,2.027-0.133
	C243.871,84.535,244.066,84.535,244.216,84.535"/>
<path class="st1" d="M244.861,81.52L244.861,81.52c10.31,0,11.507,6.137,11.904,14.75c0.809,8.409,6.898,14.649,6.958,23.562
	c0.008,0.873-0.034,1.74-0.102,2.596c-0.043,0.892-0.085,1.833-0.139,2.735c-0.339,4.487-0.584,8.884,3.06,12.575
	c1.475,1.48,3.107,2.73,4.818,3.821c0.68,0.431,1.373,0.83,2.076,1.201c1.12,0.411,2.267,0.774,3.405,1.099
	c2.523,0.612,5.195,1.052,7.855,1.522c1.088,0.21,2.238,0.413,3.403,0.645c0.485,0.098,0.965,0.198,1.438,0.3
	c3.029,0.056,5.543-1.374,8.823-1.249c0.351,0.013,0.702,0.03,1.096,0.09c3.81,0.588,8.694,1.822,11.467,4.494
	c0.01,0.01,0.024,0.024,0.034,0.033c0.01,0.01,0.024,0.024,0.034,0.034c3.759,3.711,3.9,8.61,5.626,12.934
	c0.433,1.098,0.931,2.131,1.487,3.099c0.182,0.322,0.374,0.653,0.568,0.959c1.061,1.541,2.495,3.114,3.932,4.554
	c4.766,4.786,10.835,9.168,14.621,15.189c0.647,1.013,1.224,2.069,1.717,3.177c3.708,7.084,1.617,16.667-5.403,19.358
	c-4.085,1.481-6.712,3.124-7.463,8.976c-0.261,2.456-1.018,4.539-2.124,6.329c-2.992,6.026-9.576,9.245-15.006,12.271
	c-2.073,1.141-3.95,2.248-5.341,3.48c-1.188,1.322-1.899,2.79-1.835,4.565c0.858,2.94,4.858,4.395,5.779,7.788
	c0.82,3.674-2.03,8.84-4.24,11.635c0,0,0,0,0,0c-0.086,0.109-0.172,0.214-0.256,0.317c-0.071,0.086-0.143,0.168-0.216,0.246
	c-2.076,2.452-4.989,1.126-5.998,4.212c-0.735,2.128,2.145,5.994,0.032,7.654c-12.803,10.08-18.042,13.03-22.973,13.305
	c-3.242,0.181-6.319-0.867-11.587-1.529c-0.785-0.088-1.39-0.179-1.905-0.183c-0.934-0.006-1.46,0.23-2.009,0.942
	c-0.34,0.486-0.691,1.131-1.139,1.985c-0.266,0.496-0.526,0.944-0.784,1.351c-1.623,2.938-3.214,3.919-6.775,5.836
	c-1.746,0.952-2.298,2.671-3.173,4.497c-0.791,1.588-1.795,3.246-3.959,4.572c-11.859,7.198-22.258,6.873-31.839,7.039
	c-3.378,0.058-6.634,0.172-9.704,0.709c-0.195,0.031-0.465,0.09-0.66,0.125c-0.194,0.034-0.466,0.092-0.66,0.13
	c-1.612,0.328-3.244,0.758-4.895,1.315c-2.409,0.665-4.668,1.14-6.767,1.14c-3.845,0-7.041-1.504-9.665-5.92
	c-3.042-5.149-4.483-5.731-9.785-9.154c-1.222-0.816-2.382-2.109-3.547-3.477c-2.316-2.013-4.686-4.319-7.51-4.145
	c-0.348,0.021-0.739,0.089-1.085,0.198c-0.265,0.076-0.523,0.165-0.773,0.269c-0.699,0.291-1.343,0.698-1.931,1.23
	c-1.083,0.981-2,2.392-2.736,4.275c-2.551,6.757-8.632,9.394-15.552,13.092c-1.341,0.697-3.047,1.53-4.967,2.353
	c-4.849,2.008-10.925,3.865-16.038,3.562c-2.936-0.174-5.589-1.058-7.483-3.102c-0.011-0.012-0.026-0.028-0.037-0.04
	c-0.011-0.012-0.026-0.028-0.036-0.04c-3.848-4.298-1.503-10.134-2.041-14.951c-0.542-4.746-1.617-2.852-4.219-4.988
	c-0.031-0.025-0.061-0.05-0.091-0.075c-1.97-1.438-1.588-2.978-3.023-4.469c-5.837-3.817-9.794-2.731-12.718-5.427
	c-2.082-1.952-3.576-5.651-4.86-13.818c-0.337-1.575-1.01-2.833-1.807-3.972c-1.79-2.265-4.2-4.083-5.127-7.354
	c-0.631-2.264-0.35-4.1,0.468-5.886c0.983-2.191,2.769-4.273,4.668-6.907c2.046-2.929-3.07-6.999-2.675-10.254
	c0.046-0.402,0.102-0.781,0.168-1.137c0.096-0.529,0.213-1.009,0.349-1.445c0.804-3.325,2.733-4.116,4.443-5.839
	c0.004-0.004,0.009-0.01,0.014-0.014s0.009-0.01,0.014-0.014c0.58-0.587,1.13-1.276,1.598-2.202
	c2.114-4.132,1.083-6.666-0.758-9.069c-0.319-0.355-0.656-0.71-1.002-1.07c-1.686-1.761-3.578-3.602-4.851-6.026
	c-2.217-4.306-2.199-10.899-2.439-15.601c-0.033-0.327-0.068-0.645-0.105-0.954c-0.164-1.283-0.348-2.282-0.589-3.264
	c-2.431-10.381-6.466-8.527-3.035-24.914c0.078-2.741-0.287-6.073-0.779-9.415c-0.608-4.122-1.437-8.442-2.009-12.41
	c-0.878-5.8-1.284-11.176,0.789-13.715c3.252-3.514,4.439-1.955,6.544-4.878c0.156-0.215,0.311-0.423,0.467-0.623c0,0,0,0,0,0
	c2.528-3.276,4.895-4.5,7.112-4.638c4.714-0.421,8.828,4.39,12.653,4.223c0.588-0.026,1.131-0.181,1.717-0.467
	c1.532-1.004,2.612-3.172,3.409-4.527c1.032-1.298,2.164-2.335,3.359-3.185c2.306-1.602,4.904-2.532,7.603-3.246
	c2.803-1.019,5.755-1.786,8.626-2.804c4.123-1.252,8.196-2.389,12.141-3.547c1.299-0.381,2.586-0.764,3.841-1.153
	c0.181-0.055,0.423-0.132,0.603-0.188c0.181-0.056,0.424-0.13,0.604-0.186c0.746-0.233,1.749-0.542,2.492-0.782
	c3.359-1.07,6.69-2.203,9.993-3.447c2.029-0.771,4.232-1.322,6.387-1.39c1.863-0.059,3.68,0.234,5.362,1.01
	c1.486,0.629,2.851,2.541,4.143,3.152c0.268,0.135,0.532,0.211,0.794,0.201c0.346-0.013,0.647-0.159,0.993-0.481
	c0.555-0.554,0.315-1.37,0.65-1.876c0.583-0.88,2.446-1.885,3.426-2.353c2.501-1.149,4.512-2.359,6.24-3.566
	c2.448-1.754,4.293-3.517,6.171-5.084c0.725-0.731,1.465-1.45,2.285-2.157c3.319-2.84,7.705-5.098,16.563-5.45
	c0.099-0.006,0.199-0.011,0.298-0.017l0,0c2.19-0.122,4.039,0.707,6.08,0.762c0.256-0.01,0.555,0.025,0.812,0.016
	c1.816-0.058,3.554-0.499,5.394-0.529c0.356-0.006,0.713-0.011,1.07,0.029c1.781,0.14,3.325,1.188,4.8,2.524
	c0.049,0.054,0.131,0.109,0.18,0.165c1.575,1.379,3.01,3.076,4.455,4.375c0.864,0.732,1.792,1.325,2.813,1.649
	c0.481,0.167,1.009,0.259,1.581,0.265c0.429,0.003,0.89-0.046,1.375-0.161c0.679-0.156,1.391-0.435,2.129-0.871
	c1.125-0.651,1.93-1.33,2.527-2.01c2.679-3.873,0.787-7.858,7.332-8.623c0.621-0.076,1.313-0.124,2.086-0.138
	C244.506,81.52,244.705,81.52,244.861,81.52"/>
<path class="st1" d="M245.505,78.505L245.505,78.505c10.569,0,12.148,6.157,12.767,14.637c1.238,8.51,7.13,15.062,7.197,24.015
	c0.009,0.894-0.032,1.78-0.096,2.652c-0.026,0.894-0.033,1.864-0.06,2.781c-0.232,4.494-0.339,8.977,3.21,12.858
	c1.434,1.545,3.009,2.879,4.647,4.07c0.651,0.47,1.313,0.907,1.982,1.315c1.149,0.412,2.327,0.776,3.484,1.101
	c2.543,0.551,5.277,0.936,8.031,1.386c1.08,0.201,2.262,0.395,3.478,0.629c0.496,0.098,0.986,0.197,1.47,0.3
	c3.103,0.083,5.699-1.244,9.01-1.058c0.359,0.02,0.716,0.045,1.116,0.111c3.915,0.666,8.817,1.989,11.656,4.725
	c0.01,0.009,0.025,0.025,0.035,0.034c0.01,0.009,0.025,0.025,0.035,0.034c3.895,3.842,4.173,8.854,5.904,13.241
	c0.443,1.141,0.94,2.21,1.489,3.203c0.181,0.334,0.373,0.683,0.564,0.998c1.064,1.542,2.591,3.186,4.07,4.656
	c4.854,4.842,11.062,9.394,14.939,15.687c0.658,1.046,1.246,2.135,1.747,3.276c3.738,7.29,1.729,17.033-5.201,20.108
	c-4.016,1.669-6.685,3.463-7.594,9.239c-0.355,2.448-1.197,4.528-2.38,6.312c-2.97,6.163-9.488,9.599-15.005,12.789
	c-2.087,1.187-3.989,2.327-5.427,3.577c-1.121,1.375-1.798,2.887-1.743,4.691c0.808,3.042,4.575,4.648,5.38,8.081
	c0.651,3.845-2.261,9.036-4.467,11.821c0,0,0,0,0,0c-0.088,0.111-0.175,0.218-0.262,0.323c-0.073,0.088-0.146,0.171-0.22,0.251
	c-2.016,2.509-4.859,1.397-5.909,4.491c-0.79,2.184,1.849,6.015-0.312,7.713c-12.772,10.056-18.23,13.229-23.42,13.645
	c-3.326,0.267-6.502-0.7-11.789-1.334c-0.793-0.085-1.413-0.173-1.945-0.179c-0.947-0.009-1.502,0.212-2.076,0.886
	c-0.363,0.498-0.738,1.146-1.207,1.991c-0.282,0.495-0.558,0.942-0.832,1.349c-1.629,2.952-3.261,4.057-6.834,6.048
	c-1.752,0.989-2.375,2.708-3.324,4.525c-0.874,1.592-1.95,3.243-4.135,4.567c-12.149,7.284-22.812,6.983-32.516,7.15
	c-3.492,0.059-6.831,0.171-9.905,0.734c-0.186,0.03-0.486,0.101-0.672,0.134c-0.186,0.033-0.488,0.1-0.674,0.136
	c-1.633,0.34-3.301,0.779-4.997,1.335c-2.438,0.662-4.747,1.134-6.911,1.134c-3.944,0-7.249-1.488-9.986-5.807
	c-3.171-5.036-4.781-5.764-10.045-9.267c-1.235-0.859-2.407-2.181-3.578-3.581c-2.385-1.787-4.824-3.889-7.679-3.628
	c-0.354,0.032-0.748,0.109-1.099,0.226c-0.269,0.081-0.531,0.176-0.784,0.284c-0.71,0.302-1.369,0.716-1.975,1.251
	c-1.116,0.986-2.09,2.39-2.904,4.247c-2.771,6.632-9.035,9.339-16.128,12.942c-1.398,0.683-3.146,1.488-5.1,2.275
	c-5.011,1.921-11.167,3.597-16.352,3.14c-2.958-0.261-5.633-1.213-7.563-3.299c-0.01-0.011-0.027-0.029-0.037-0.04
	c-0.01-0.011-0.027-0.03-0.037-0.041c-3.925-4.383-1.799-10.257-2.366-15.13c-0.549-4.695-1.585-3.03-4.072-5.203
	c-0.032-0.026-0.063-0.053-0.094-0.079c-1.976-1.398-1.721-2.905-3.209-4.384c-5.795-3.747-9.815-2.867-12.814-5.718
	c-2.171-2.11-3.708-5.928-5.009-14.029c-0.344-1.592-1.006-2.882-1.784-4.058c-1.803-2.271-4.224-4.158-5.208-7.483
	c-0.654-2.267-0.429-4.139,0.32-5.975c0.896-2.267,2.586-4.429,4.408-7.118c1.965-3.026-2.877-7.139-2.405-10.461
	c0.053-0.405,0.117-0.787,0.19-1.149c0.105-0.533,0.231-1.017,0.374-1.459c0.736-3.318,2.564-4.231,4.213-6.05
	c0.004-0.004,0.009-0.011,0.013-0.014c0.004-0.004,0.009-0.011,0.013-0.014c0.559-0.619,1.092-1.334,1.548-2.273
	c2.057-4.178,1.137-6.79-0.543-9.245c-0.32-0.365-0.657-0.73-1.003-1.1c-1.692-1.826-3.558-3.734-4.818-6.198
	c-2.221-4.468-2.218-11.116-2.458-15.866c-0.033-0.335-0.067-0.661-0.103-0.978c-0.171-1.341-0.36-2.322-0.624-3.333
	c-2.583-10.458-6.487-9.13-3.065-25.54c0.065-2.779-0.329-6.226-0.834-9.62c-0.629-4.215-1.47-8.628-2.033-12.692
	c-0.849-5.702-1.259-11.216,0.878-14.03c3.174-3.52,4.402-2.188,6.552-5.132c0.16-0.218,0.321-0.429,0.482-0.633c0,0,0,0,0,0
	c2.58-3.299,5.001-4.579,7.263-4.787c4.718-0.632,8.875,3.825,12.739,3.574c0.594-0.038,1.144-0.2,1.736-0.485
	c1.578-1.003,2.718-3.103,3.577-4.414c1.088-1.258,2.26-2.255,3.478-3.068c2.377-1.532,5.017-2.396,7.739-3.04
	c2.825-1.084,5.796-1.903,8.686-2.944c4.191-1.314,8.321-2.467,12.277-3.626c1.322-0.386,2.629-0.774,3.889-1.167
	c0.173-0.053,0.438-0.138,0.611-0.191c0.173-0.053,0.439-0.134,0.612-0.187c0.713-0.222,1.814-0.558,2.525-0.787
	c3.406-1.078,6.782-2.216,10.127-3.46c2.059-0.772,4.283-1.335,6.461-1.436c1.883-0.088,3.72,0.159,5.428,0.868
	c1.518,0.568,2.919,2.362,4.25,2.91c0.271,0.124,0.539,0.19,0.804,0.175c0.351-0.02,0.659-0.166,1.009-0.481
	c0.569-0.542,0.377-1.336,0.735-1.831c0.634-0.864,2.493-1.844,3.507-2.306c2.527-1.124,4.586-2.295,6.372-3.449
	c2.5-1.678,4.419-3.346,6.364-4.81c0.727-0.73,1.473-1.458,2.311-2.19c3.335-2.884,7.771-5.297,16.625-5.825
	c0.101-0.008,0.202-0.017,0.304-0.025l0,0c2.23-0.183,4.138,0.556,6.24,0.567c0.263-0.015,0.569,0.013,0.833,0
	c1.859-0.091,3.651-0.532,5.548-0.577c0.366-0.008,0.733-0.016,1.101,0.019c1.833,0.121,3.446,1.118,5.001,2.395
	c0.047,0.052,0.143,0.105,0.189,0.157c1.697,1.319,3.229,2.974,4.724,4.246c0.893,0.693,1.864,1.253,2.936,1.563
	c0.485,0.159,1.031,0.248,1.629,0.257c0.441,0.005,0.916-0.04,1.418-0.145c0.708-0.142,1.446-0.399,2.206-0.804
	c1.162-0.603,2.011-1.227,2.658-1.846c2.804-3.865,1.286-7.77,7.883-8.526c0.642-0.079,1.354-0.129,2.145-0.144
	C245.142,78.505,245.345,78.505,245.505,78.505"/>
<path class="st1" d="M246.15,75.489L246.15,75.489c10.829,0,12.789,6.178,13.631,14.524c1.666,8.61,7.363,15.475,7.436,24.468
	c0.01,0.916-0.029,1.82-0.091,2.708c-0.008,0.897,0.018,1.896,0.018,2.827c-0.124,4.501-0.094,9.07,3.36,13.141
	c1.393,1.609,2.912,3.028,4.476,4.32c0.622,0.508,1.252,0.984,1.888,1.429c1.179,0.412,2.387,0.778,3.564,1.103
	c2.564,0.491,5.359,0.821,8.207,1.25c1.072,0.192,2.285,0.377,3.553,0.614c0.507,0.097,1.008,0.197,1.503,0.299
	c3.177,0.111,5.856-1.113,9.198-0.866c0.366,0.027,0.731,0.06,1.136,0.131c4.021,0.744,8.94,2.155,11.845,4.956
	c0.009,0.009,0.027,0.026,0.036,0.035c0.009,0.009,0.027,0.026,0.036,0.035c4.032,3.973,4.446,9.098,6.181,13.548
	c0.453,1.184,0.949,2.29,1.49,3.306c0.179,0.345,0.371,0.714,0.561,1.037c1.067,1.543,2.686,3.257,4.208,4.759
	c4.943,4.899,11.29,9.62,15.256,16.186c0.67,1.079,1.267,2.201,1.777,3.374c3.768,7.496,1.842,17.398-4.998,20.859
	c-3.947,1.857-6.657,3.801-7.725,9.503c-0.45,2.441-1.375,4.517-2.636,6.296c-2.948,6.3-9.4,9.953-15.004,13.306
	c-2.101,1.232-4.029,2.406-5.512,3.674c-1.054,1.428-1.697,2.985-1.651,4.816c0.757,3.145,4.292,4.901,4.982,8.375
	c0.483,4.015-2.492,9.232-4.694,12.006c0,0,0,0,0,0c-0.09,0.113-0.179,0.222-0.267,0.329c-0.074,0.089-0.149,0.175-0.225,0.257
	c-1.955,2.567-4.73,1.669-5.819,4.771c-0.845,2.241,1.553,6.036-0.656,7.772c-12.741,10.031-18.418,13.424-23.866,13.986
	c-3.41,0.351-6.685-0.533-11.991-1.138c-0.801-0.081-1.436-0.166-1.985-0.175c-0.96-0.012-1.543,0.193-2.143,0.83
	c-0.387,0.51-0.785,1.161-1.274,1.998c-0.297,0.493-0.589,0.939-0.881,1.348c-1.634,2.966-3.309,4.194-6.893,6.259
	c-1.758,1.025-2.453,2.745-3.475,4.552c-0.957,1.596-2.106,3.239-4.31,4.562c-12.44,7.37-23.365,7.093-33.193,7.26
	c-3.605,0.06-7.028,0.17-10.106,0.759c-0.178,0.028-0.507,0.112-0.685,0.143c-0.178,0.031-0.509,0.108-0.687,0.142
	c-1.655,0.352-3.358,0.8-5.099,1.354c-2.467,0.658-4.825,1.129-7.054,1.129c-4.043,0-7.458-1.472-10.306-5.695
	c-3.3-4.922-5.078-5.797-10.306-9.38c-1.248-0.902-2.432-2.253-3.609-3.685c-2.453-1.56-4.963-3.458-7.849-3.111
	c-0.359,0.043-0.757,0.129-1.114,0.253c-0.273,0.087-0.538,0.186-0.796,0.298c-0.721,0.314-1.395,0.734-2.019,1.272
	c-1.15,0.99-2.18,2.387-3.072,4.219c-2.99,6.507-9.439,9.284-16.705,12.793c-1.455,0.668-3.245,1.447-5.232,2.198
	c-5.173,1.833-11.409,3.33-16.666,2.719c-2.981-0.346-5.677-1.368-7.644-3.496c-0.01-0.011-0.028-0.031-0.038-0.041
	c-0.01-0.011-0.028-0.031-0.038-0.042c-4.001-4.468-2.095-10.38-2.69-15.31c-0.556-4.644-1.554-3.208-3.926-5.417
	c-0.032-0.028-0.064-0.056-0.096-0.084c-1.982-1.359-1.853-2.833-3.396-4.299c-5.752-3.676-9.837-3.002-12.91-6.009
	c-2.26-2.268-3.84-6.206-5.158-14.24c-0.351-1.609-1.002-2.931-1.762-4.144c-1.816-2.276-4.249-4.232-5.289-7.612
	c-0.676-2.271-0.509-4.177,0.171-6.064c0.81-2.342,2.402-4.586,4.148-7.33c1.884-3.122-2.684-7.278-2.135-10.669
	c0.06-0.408,0.131-0.794,0.211-1.16c0.114-0.536,0.248-1.025,0.4-1.474c0.667-3.312,2.394-4.345,3.982-6.261
	c0.004-0.003,0.009-0.012,0.013-0.015c0.004-0.003,0.009-0.012,0.013-0.015c0.538-0.651,1.054-1.392,1.498-2.344
	c2-4.223,1.191-6.913-0.328-9.421c-0.322-0.374-0.659-0.749-1.005-1.13c-1.697-1.891-3.538-3.866-4.785-6.371
	c-2.225-4.629-2.237-11.333-2.477-16.131c-0.032-0.343-0.066-0.677-0.101-1.002c-0.178-1.399-0.371-2.363-0.66-3.401
	c-2.735-10.535-6.508-9.732-3.095-26.166c0.051-2.818-0.371-6.379-0.889-9.825c-0.65-4.307-1.504-8.814-2.058-12.974
	c-0.82-5.604-1.235-11.256,0.967-14.345c3.096-3.525,4.366-2.421,6.559-5.387c0.165-0.221,0.33-0.435,0.496-0.643c0,0,0,0,0,0
	c2.631-3.322,5.107-4.659,7.414-4.936c4.723-0.843,8.921,3.26,12.825,2.925c0.6-0.051,1.158-0.218,1.755-0.502
	c1.624-1.001,2.824-3.033,3.746-4.301c1.143-1.218,2.356-2.175,3.596-2.952c2.447-1.463,5.131-2.261,7.875-2.834
	c2.847-1.149,5.837-2.02,8.746-3.084c4.259-1.376,8.447-2.545,12.413-3.704c1.346-0.392,2.673-0.784,3.936-1.18
	c0.165-0.051,0.453-0.144,0.618-0.195c0.165-0.051,0.455-0.138,0.62-0.189c0.681-0.212,1.878-0.574,2.557-0.793
	c3.453-1.086,6.874-2.228,10.261-3.473c2.09-0.774,4.335-1.348,6.535-1.483c1.902-0.118,3.76,0.084,5.493,0.725
	c1.551,0.507,2.988,2.183,4.357,2.669c0.274,0.112,0.545,0.17,0.813,0.15c0.355-0.027,0.671-0.174,1.026-0.481
	c0.582-0.531,0.439-1.301,0.819-1.785c0.686-0.848,2.541-1.803,3.588-2.259c2.554-1.099,4.661-2.23,6.505-3.332
	c2.553-1.602,4.546-3.175,6.558-4.537c0.729-0.729,1.482-1.465,2.337-2.223c3.35-2.928,7.838-5.496,16.686-6.2
	c0.103-0.011,0.206-0.022,0.309-0.033l0,0c2.269-0.243,4.238,0.406,6.401,0.372c0.271-0.019,0.583,0.001,0.855-0.016
	c1.903-0.121,3.748-0.566,5.701-0.626c0.376-0.011,0.753-0.022,1.132,0.009c1.885,0.103,3.567,1.047,5.202,2.267
	c0.045,0.05,0.154,0.1,0.199,0.15c1.82,1.259,3.449,2.872,4.993,4.117c0.922,0.654,1.935,1.181,3.058,1.477
	c0.489,0.152,1.052,0.237,1.678,0.248c0.454,0.007,0.943-0.033,1.461-0.128c0.737-0.129,1.501-0.363,2.283-0.737
	c1.198-0.555,2.093-1.123,2.788-1.683c2.929-3.857,1.784-7.682,8.433-8.43c0.663-0.083,1.395-0.134,2.204-0.15
	C245.778,75.49,245.984,75.489,246.15,75.489"/>
<path class="st1" d="M246.795,72.474L246.795,72.474c11.088,0,13.431,6.198,14.495,14.411c2.095,8.711,7.596,15.887,7.675,24.922
	c0.011,0.937-0.026,1.861-0.085,2.764c0.009,0.899,0.07,1.927,0.097,2.873c-0.017,4.508,0.152,9.163,3.51,13.424
	c1.352,1.673,2.815,3.176,4.306,4.569c0.593,0.547,1.191,1.061,1.793,1.542c1.208,0.413,2.447,0.78,3.643,1.105
	c2.584,0.43,5.441,0.705,8.383,1.114c1.064,0.183,2.308,0.359,3.628,0.598c0.518,0.097,1.03,0.196,1.535,0.299
	c3.252,0.139,6.012-0.981,9.385-0.675c0.374,0.034,0.746,0.075,1.156,0.152c4.126,0.822,9.062,2.322,12.035,5.186
	c0.009,0.008,0.028,0.027,0.037,0.036c0.009,0.009,0.028,0.027,0.036,0.036c4.169,4.103,4.72,9.342,6.459,13.854
	c0.463,1.228,0.958,2.37,1.491,3.41c0.178,0.357,0.37,0.744,0.557,1.076c1.069,1.543,2.782,3.328,4.346,4.861
	c5.031,4.955,11.517,9.845,15.574,16.684c0.682,1.112,1.289,2.267,1.807,3.473c3.798,7.702,1.954,17.764-4.796,21.61
	c-3.877,2.046-6.629,4.139-7.856,9.767c-0.544,2.434-1.553,4.506-2.892,6.279c-2.926,6.437-9.313,10.307-15.003,13.823
	c-2.114,1.277-4.068,2.484-5.597,3.771c-0.987,1.481-1.596,3.082-1.559,4.941c0.706,3.247,4.009,5.154,4.583,8.669
	c0.314,4.186-2.723,9.428-4.921,12.192c0,0,0,0,0,0c-0.091,0.115-0.182,0.226-0.273,0.335c-0.076,0.091-0.152,0.178-0.229,0.262
	c-1.895,2.625-4.601,1.941-5.729,5.051c-0.901,2.297,1.257,6.057-1,7.831c-12.711,10.007-18.605,13.618-24.313,14.326
	c-3.494,0.434-6.869-0.367-12.193-0.943c-0.809-0.077-1.459-0.161-2.026-0.171c-0.974-0.017-1.585,0.175-2.21,0.775
	c-0.411,0.522-0.833,1.176-1.342,2.005c-0.313,0.491-0.621,0.937-0.929,1.346c-1.639,2.98-3.357,4.331-6.952,6.47
	c-1.765,1.061-2.531,2.782-3.625,4.579c-1.04,1.6-2.261,3.236-4.486,4.558c-12.73,7.456-23.919,7.203-33.871,7.37
	c-3.719,0.061-7.225,0.169-10.308,0.785c-0.169,0.027-0.528,0.123-0.697,0.153c-0.169,0.03-0.531,0.116-0.7,0.149
	c-1.676,0.364-3.414,0.822-5.202,1.374c-2.496,0.655-4.903,1.123-7.198,1.123c-4.142,0-7.666-1.456-10.627-5.583
	c-3.429-4.809-5.376-5.83-10.566-9.493c-1.261-0.945-2.457-2.325-3.641-3.789c-2.522-1.333-5.103-3.026-8.018-2.595
	c-0.365,0.054-0.767,0.15-1.128,0.28c-0.277,0.092-0.546,0.196-0.808,0.313c-0.733,0.325-1.421,0.752-2.063,1.292
	c-1.183,0.995-2.271,2.385-3.24,4.19c-3.21,6.382-9.843,9.229-17.281,12.643c-1.512,0.654-3.345,1.405-5.365,2.121
	c-5.334,1.746-11.652,3.063-16.98,2.297c-3.003-0.432-5.721-1.522-7.724-3.693c-0.009-0.01-0.029-0.032-0.039-0.042
	c-0.009-0.01-0.029-0.032-0.038-0.042c-4.077-4.554-2.39-10.502-3.015-15.489c-0.563-4.593-1.522-3.386-3.779-5.631
	c-0.033-0.029-0.066-0.059-0.098-0.088c-1.988-1.319-1.985-2.76-3.583-4.215c-5.71-3.606-9.859-3.138-13.006-6.3
	c-2.349-2.427-3.973-6.483-5.307-14.451c-0.358-1.626-0.998-2.979-1.74-4.23c-1.829-2.281-4.274-4.307-5.37-7.741
	c-0.699-2.274-0.589-4.216,0.023-6.153c0.723-2.417,2.219-4.742,3.888-7.541c1.803-3.219-2.491-7.418-1.864-10.876
	c0.067-0.411,0.145-0.801,0.233-1.172c0.123-0.54,0.266-1.034,0.425-1.488c0.599-3.305,2.224-4.46,3.751-6.472
	c0.004-0.003,0.008-0.013,0.012-0.016c0.004-0.003,0.008-0.013,0.012-0.016c0.518-0.684,1.016-1.449,1.448-2.416
	c1.943-4.269,1.245-7.037-0.113-9.596c-0.323-0.383-0.661-0.769-1.006-1.16c-1.702-1.956-3.518-3.998-4.752-6.543
	c-2.229-4.79-2.256-11.55-2.496-16.396c-0.032-0.351-0.065-0.693-0.099-1.026c-0.185-1.457-0.383-2.403-0.695-3.469
	c-2.886-10.611-6.53-10.334-3.126-26.792c0.038-2.857-0.413-6.532-0.944-10.03c-0.67-4.4-1.537-9.001-2.083-13.255
	c-0.791-5.506-1.211-11.296,1.055-14.66c3.018-3.53,4.329-2.655,6.567-5.642c0.169-0.224,0.34-0.442,0.511-0.653c0,0,0,0,0,0
	c2.683-3.345,5.213-4.739,7.565-5.085c4.728-1.054,8.967,2.695,12.912,2.277c0.606-0.064,1.171-0.237,1.774-0.52
	c1.669-0.999,2.93-2.963,3.914-4.189c1.198-1.178,2.452-2.096,3.715-2.835c2.518-1.393,5.244-2.125,8.01-2.628
	c2.868-1.214,5.878-2.136,8.807-3.225c4.327-1.438,8.573-2.623,12.55-3.783c1.37-0.398,2.716-0.794,3.984-1.194
	c0.157-0.048,0.468-0.149,0.625-0.198c0.157-0.049,0.47-0.142,0.627-0.191c0.648-0.202,1.943-0.59,2.589-0.799
	c3.501-1.094,6.966-2.24,10.395-3.486c2.12-0.775,4.387-1.361,6.608-1.53c1.922-0.147,3.8,0.009,5.558,0.582
	c1.583,0.446,3.056,2.005,4.463,2.427c0.277,0.101,0.551,0.149,0.823,0.124c0.36-0.034,0.682-0.181,1.042-0.482
	c0.596-0.52,0.501-1.266,0.904-1.739c0.737-0.832,2.588-1.762,3.669-2.212c2.581-1.075,4.735-2.166,6.638-3.215
	c2.605-1.525,4.672-3.005,6.751-4.263c0.731-0.728,1.49-1.473,2.363-2.255c3.366-2.972,7.904-5.695,16.748-6.574
	c0.105-0.014,0.209-0.028,0.314-0.042l0,0c2.308-0.304,4.337,0.255,6.561,0.178c0.279-0.024,0.597-0.01,0.877-0.032
	c1.947-0.151,3.845-0.599,5.854-0.674c0.386-0.014,0.774-0.027,1.162,0c1.937,0.084,3.689,0.977,5.403,2.138
	c0.043,0.047,0.166,0.095,0.209,0.143c1.943,1.199,3.668,2.77,5.262,3.988c0.951,0.614,2.007,1.109,3.18,1.391
	c0.493,0.145,1.074,0.226,1.726,0.24c0.466,0.008,0.969-0.026,1.504-0.112c0.766-0.115,1.556-0.327,2.36-0.669
	c1.235-0.507,2.175-1.02,2.919-1.52c3.054-3.849,2.283-7.594,8.984-8.333c0.684-0.086,1.435-0.139,2.263-0.155
	C246.414,72.475,246.623,72.474,246.795,72.474"/>
</svg>
