<?xml version="1.0" encoding="utf-8"?>
<!-- Generator: Adobe Illustrator 25.0.0, SVG Export Plug-In . SVG Version: 6.00 Build 0)  -->
<!DOCTYPE svg PUBLIC "-//W3C//DTD SVG 1.1//EN" "http://www.w3.org/Graphics/SVG/1.1/DTD/svg11.dtd" [
	<!ENTITY ns_extend "http://ns.adobe.com/Extensibility/1.0/">
	<!ENTITY ns_ai "http://ns.adobe.com/AdobeIllustrator/10.0/">
	<!ENTITY ns_graphs "http://ns.adobe.com/Graphs/1.0/">
	<!ENTITY ns_vars "http://ns.adobe.com/Variables/1.0/">
	<!ENTITY ns_imrep "http://ns.adobe.com/ImageReplacement/1.0/">
	<!ENTITY ns_sfw "http://ns.adobe.com/SaveForWeb/1.0/">
	<!ENTITY ns_custom "http://ns.adobe.com/GenericCustomNamespace/1.0/">
	<!ENTITY ns_adobe_xpath "http://ns.adobe.com/XPath/1.0/">
]>
<svg version="1.1" id="Livello_1" xmlns:x="&ns_extend;" xmlns:i="&ns_ai;" xmlns:graph="&ns_graphs;"
	 xmlns="http://www.w3.org/2000/svg" xmlns:xlink="http://www.w3.org/1999/xlink" x="0px" y="0px" viewBox="0 0 400 400"
	 style="enable-background:new 0 0 400 400;" xml:space="preserve">
<style type="text/css">
	.st0{opacity:0.45;fill:#FFFFFF;}
	.st1{fill:none;stroke:#DC4B33;stroke-width:0.9;stroke-miterlimit:10;}
</style>
<metadata>
	<sfw  xmlns="&ns_sfw;">
		<slices></slices>
		<sliceSourceBounds  bottomLeftOrigin="true" height="276.465" width="268.368" x="64.329" y="60.67"></sliceSourceBounds>
	</sfw>
</metadata>
<path class="st0" d="M237.265,63.315L237.265,63.315c1.315,0,2.673,0.182,4.116,0.587c2.264,0.47,3.861,1.443,5.364,2.607
	c1.451,1.102,2.788,2.374,4.509,3.54c5.58,2.629,7.059,6.44,7.09,10.419c0.004,0.087,0.008,0.175,0.012,0.264
	c0.241,3.264-0.354,6.825-0.463,10.325c0.804,4.898,6.473,9.416,11.31,13.337c2.103,1.696,4.045,3.239,5.381,4.61
	c0.962,1.034,1.9,2.094,2.83,3.147c0.452,0.369,0.899,0.735,1.333,1.091c1.931,1.578,3.882,3.144,5.86,4.564
	c0.12,0.086,0.305,0.218,0.425,0.302c0.121,0.084,0.304,0.217,0.425,0.3c1.674,1.168,3.369,2.199,5.127,3.005
	c1.997,0.915,4.187,1.633,6.391,1.803c0.315,0,0.811-0.043,1.136-0.065c1.221-0.098,2.613-0.364,4.021-0.767
	c0.198-0.057,0.397-0.117,0.596-0.179c4.93-0.965,11.897-3.404,17.889-3.404c4.525,0,8.375,1.459,10.097,6.055
	c1.788,4.423,2.609,8.728-0.943,11.923c-4.128,2.73-8.849,4.206-13.538,6.798c-1.231,0.63-2.442,1.36-3.635,2.225
	c-2.538,1.885-6.694,3.189-10.656,4.921c-5.668,2.321-10.808,5.33-9.613,12.156c0.488,4.169-1.259,5.944-3.023,8.511
	c-0.279,0.472-0.813,1.15-1.07,1.72c-0.225,0.498-0.715,1.169-0.896,1.783c-0.996,3.349-2.677,6.117-4.58,8.645
	c-1.108,1.337-2.292,2.614-3.363,3.884c-1.749,1.955-3.629,3.742-5.447,5.533c-1.468,2.482-3.07,4.795-4.392,7.038
	c-2.012,7.24-1.383,13.534,0.332,19.391c0.07,0.308,0.142,0.615,0.217,0.922c0.643,1.307,1.379,2.692,2.072,3.991
	c4.249,7.964,9.056,16.727,6.486,26.953c-0.237,0.579-0.467,1.149-0.691,1.712c-0.148,0.337-0.373,0.981-0.507,1.307
	c-0.148,0.359-0.426,1.005-0.559,1.351c-0.633,1.53-0.979,2.706-1.24,3.644c-0.256,1.102-0.312,2.397-0.348,3.552
	c-0.418,4.963,0.68,9.214,2.142,13.888c0.022,0.059,0.056,0.184,0.077,0.244c0.022,0.059,0.054,0.185,0.076,0.244
	c1.867,6.018,3.865,12.113,4.15,20.262c0.38,8.41-5.315,12.678-12.414,14.252c-1.681,0.759-3.518,1.248-5.361,1.608
	c-2.003,0.391-4.039,0.617-5.938,0.578c-0.397-0.001-0.789-0.01-1.175-0.027c-2.017,0.022-4.808-0.597-7.393-0.296
	c-1.118,0.127-2.201,0.413-3.124,1.07c-5.555,3.701,1.061,8.805,1.87,11.52c0.205,0.495,0.382,0.973,0.533,1.432
	c3.895,8.588-1.28,11.796-8.564,11.226c-8.111-0.634-18.614-5.852-22.268-13.315c-0.091-0.22-0.23-0.539-0.317-0.747
	c-0.088-0.212-0.219-0.525-0.303-0.724c-0.124-0.295-0.245-0.578-0.361-0.848c-0.632-1.21-1.215-2.214-1.782-3.066
	c-2.947-4.015-4.849-2.758-11.912-6.36c-1.573-1.33-2.773-2.818-3.998-3.957c-1.086-1.066-2.191-1.815-3.638-1.843
	c-1.035-0.02-2.236,0.283-3.688,1.085c-6.292,4.367-11.581,5.989-15.935,5.488c-3.558-0.41-6.48-2.335-8.805-5.777
	c-1.784-2.644-3.232-6.105-4.376-10.307c-0.163-0.642-0.548-1.049-0.695-1.734c-0.183-0.852-0.695-1.496-0.853-2.411
	c-1.949-3.477-3.196-2.519-6.608-3.335c-5.73-3.535-9.566-5.167-12.561-5.428c-0.238-0.023-0.469-0.035-0.694-0.035
	c-5.365-0.021-7.673,5.377-15.103,12.099c-2.071,1.076-4.128,1.451-6.041,1.21c-5.464-0.519-9.594-6.156-9.379-12.646
	c0.137-6.255,2.297-13.771,5.678-19.931c1.215-2.193,2.579-4.213,4.051-5.939c-0.216-0.619-0.441-1.127-0.67-1.538
	c-0.585-0.8-1.196-1.162-1.806-1.227c-0.609-0.065-1.228,0.17-1.841,0.544c-0.618,0.359-1.23,0.856-1.819,1.34
	c-2.379,2.121-4.445,2.842-6.293,2.579c-3.441-0.49-5.998-4.527-7.726-9.717c-0.136-0.278-0.269-0.56-0.398-0.846
	c-0.164-0.536-0.553-1.053-0.697-1.609c-0.091-0.351-0.33-0.705-0.414-1.062c-0.214-0.628-0.444-1.263-0.678-1.903
	c-1.63-5.135-2.451-10.491-2.522-13.445c0.031-1.712,0.624-5.914-2.605-6.105c-0.144-0.009-0.287-0.02-0.473,0.012
	c-2.442,1.456-2.508,3.196-5.548,2.955c-0.427-0.034-0.936-0.125-1.487-0.252c-3.989-0.051-4.737-0.263-7.265,3.169
	c-1.297,1.792-1.393,2.249-2.639,2.44c-0.469,0.052-1.095,0.067-1.995,0.1c-0.355-0.04-0.666-0.043-1.021-0.079
	c-17.237-1.783-1.937-33.498,4.191-42.371c-0.866-3.346-1.583-6.976-1.828-10.608c-0.451-2.128-0.72-4.265-0.742-6.377
	c-0.044-3.754,0.691-7.442,2.566-10.855c2.113-3.246,4.773-5.979,7.759-8.411c0.193-0.133,0.483-0.415,0.678-0.546
	c0.195-0.131,0.502-0.4,0.699-0.528c6.607-5.028,14.25-8.559,20.391-13.193c2.604-1.933,5.037-4.078,6.801-6.5
	c0.072-0.107,0.142-0.213,0.21-0.318c4.446-7.33,7.845-10.76,14.116-15.95c0.27-0.246,0.551-0.505,0.829-0.757
	c3.573-3.086,8.527-14.434,19.291-17.991c1.872-0.781,3.775-1.536,5.708-2.26c8.998-3.478,18.203-6.722,27.353-9.992
	c11.766-4.205,23.419-8.444,34.614-13.337c0.549-0.272,1.103-0.551,1.657-0.833C222.887,70.365,228.731,63.315,237.265,63.315"/>
<g>
	<path class="st1" d="M235.548,73.078c1.248,0,2.544,0.192,3.936,0.624c4.32,0.96,5.76,3.984,9.168,6.432
		c9.792,4.656,5.232,13.248,3.984,21.168c0.288,6.816,12.48,12.384,17.568,16.128c6.96,5.616,13.44,12.864,22.224,12.864
		c1.728,0,3.6-0.288,5.52-0.912c4.704-0.864,11.52-3.36,17.136-3.36c4.368,0,8.016,1.536,9.312,6.528
		c1.248,4.752,1.488,9.216-3.12,12.288c-6.816,3.024-14.4,3.456-21.216,6.768c-7.296,3.696-25.2,2.64-21.792,14.496
		c1.248,6-2.256,6.864-3.84,12.24c-0.576,10.32-8.64,16.272-13.584,24.72c-4.944,15.744,15.312,28.512,10.8,45.408
		c-9.12,19.344,0.72,22.944,4.128,40.8c1.68,10.992-7.536,14.688-16.56,14.688c-2.592,0-5.184-0.288-7.488-0.816
		c-2.016-0.432-4.848-1.536-7.392-1.536c-1.104,0-2.16,0.192-3.024,0.816c-5.472,3.648,3.072,9.12,5.136,12.144
		c7.152,10.944,2.592,15.312-4.752,15.312c-7.632,0-18.144-4.704-21.504-11.568c-4.704-11.424-4.512-8.112-13.728-13.44
		c-2.832-3.024-4.08-6.624-7.008-6.624c-0.96,0-2.112,0.384-3.552,1.344c-6.192,5.184-11.328,7.584-15.504,7.584
		c-7.344,0-11.808-7.488-14.064-20.544c-1.824-4.224-2.832-3.36-6.288-4.464c-6.288-4.704-9.984-6.672-12.672-6.672
		c-4.896,0-6.384,6.528-13.872,14.88c-2.064,1.44-4.128,2.112-6.048,2.112c-5.664,0-9.936-5.712-9.408-12.336
		c0.672-8.448,5.232-19.392,11.328-25.536c-0.816-1.968-1.728-2.688-2.64-2.688c-1.248,0-2.544,1.344-3.744,2.64
		c-2.496,2.688-4.656,3.84-6.576,3.84c-8.688,0-11.808-23.136-10.512-30.528c0.384-1.824,1.392-6.48-1.968-6.48
		c-0.144,0-0.288,0-0.48,0.048c-2.496,1.824-2.304,3.936-5.52,3.936c-0.432,0-0.96-0.048-1.536-0.144
		c-4.224,0.24-4.8,0.336-7.44,4.608c-1.872,3.024-1.2,3.216-4.848,3.696c-0.384,0-0.72,0.048-1.104,0.048
		c-18.912,0-1.68-34.08,4.224-41.472c-3.312-7.728-6-17.376-0.96-25.248c8.976-11.376,25.68-14.016,33.84-25.776
		c4.32-7.2,7.392-10.176,13.776-15.408c3.408-2.592,7.92-13.92,18.24-16.992c21.456-8.592,44.448-15.456,65.664-24.912
		C223.452,79.606,228.396,73.078,235.548,73.078"/>
</g>
<path class="st1" d="M236.12,69.824L236.12,69.824c1.27,0,2.587,0.189,3.996,0.612c2.232,0.485,3.736,1.499,5.14,2.702
	c1.341,1.141,2.583,2.452,4.263,3.635c5.436,2.576,6.634,6.334,6.414,10.43c-0.004,0.088-0.007,0.176-0.012,0.264
	c-0.136,3.326-1.13,6.927-1.533,10.421c0.402,4.799,6.279,9.068,11.444,12.603c2.247,1.535,4.358,2.918,5.831,4.131
	c1.06,0.942,2.104,1.919,3.145,2.898c0.429,0.362,0.856,0.724,1.279,1.082c1.859,1.568,3.73,3.117,5.651,4.493
	c0.131,0.093,0.283,0.202,0.415,0.293c0.131,0.092,0.284,0.199,0.416,0.289c1.632,1.118,3.304,2.09,5.049,2.82
	c1.985,0.831,4.102,1.382,6.324,1.438c0.344,0,0.752-0.023,1.106-0.047c1.231-0.089,2.559-0.329,3.911-0.721
	c0.193-0.056,0.386-0.115,0.58-0.177c4.779-0.898,11.646-3.375,17.387-3.375c4.42,0,8.136,1.51,9.574,6.37
	c1.428,4.642,1.862,9.053-2.394,12.166c-4.982,2.51-10.484,3.513-15.785,5.624c-1.383,0.534-2.747,1.152-4.083,1.896
	c-2.841,1.639-7.411,2.551-11.638,3.886c-6.069,1.863-11.385,4.533-9.647,11.47c0.763,4.278-0.869,5.972-2.486,8.567
	c-0.304,0.515-0.693,1.125-0.973,1.748c-0.245,0.544-0.567,1.181-0.764,1.85c-0.458,3.375-1.682,6.242-3.268,8.877
	c-0.861,1.372-1.824,2.683-2.792,3.974c-1.475,1.918-3.083,3.741-4.654,5.596c-1.482,2.121-2.989,4.218-4.269,6.4
	c-1.949,6.484-0.491,12.354,1.913,18.056c0.114,0.288,0.229,0.575,0.347,0.862c0.607,1.216,1.265,2.457,1.913,3.672
	c4.064,7.618,8.46,15.588,6.062,24.767c-0.238,0.53-0.465,1.05-0.682,1.561c-0.161,0.367-0.343,0.833-0.49,1.189
	c-0.162,0.392-0.36,0.874-0.505,1.252c-0.498,1.261-0.852,2.366-1.133,3.358c-0.297,1.107-0.475,2.238-0.6,3.291
	c-0.684,4.866,0.201,8.754,1.601,12.832c0.023,0.065,0.051,0.151,0.075,0.216c0.024,0.065,0.051,0.152,0.075,0.217
	c1.84,5.278,4.346,10.713,5.443,18.685c0.997,8.497-4.416,12.677-11.215,14.148c-1.833,0.525-3.792,0.809-5.75,0.93
	c-2.097,0.13-4.209,0.074-6.165-0.184c-0.406-0.051-0.806-0.11-1.198-0.176c-2.016-0.281-4.835-1.223-7.392-1.123
	c-1.109,0.042-2.174,0.266-3.057,0.901c-5.5,3.666,2.402,9.015,4.048,11.936c0.311,0.536,0.592,1.054,0.844,1.556
	c5.086,9.369,0.386,13.054-6.69,12.872c-7.791-0.22-18.301-5.087-21.758-12.15c-0.099-0.24-0.213-0.509-0.307-0.736
	c-0.096-0.231-0.205-0.491-0.297-0.709c-0.122-0.289-0.241-0.567-0.356-0.835c-0.585-1.268-1.104-2.303-1.594-3.162
	c-2.708-4.634-4.282-3.428-11.489-7.434c-1.499-1.485-2.593-3.124-3.712-4.366c-1.028-1.163-2.078-1.975-3.505-1.983
	c-0.985-0.007-2.153,0.35-3.597,1.258c-6.225,4.912-11.415,7.05-15.648,6.885c-3.595-0.14-6.511-1.985-8.818-5.395
	c-1.731-2.559-3.124-5.971-4.212-10.148c-0.178-0.701-0.424-1.339-0.584-2.085c-0.2-0.929-0.499-1.813-0.672-2.811
	c-1.866-3.975-2.953-3.08-6.395-4.088c-5.763-4.061-9.435-5.946-12.187-6.231c-0.233-0.025-0.46-0.038-0.68-0.038
	c-5.052-0.007-6.814,6.144-14.282,13.953c-2.066,1.319-4.128,1.892-6.046,1.811c-5.597-0.173-9.822-5.86-9.398-12.439
	c0.375-6.226,2.826-13.772,6.462-19.832c1.308-2.173,2.767-4.155,4.333-5.815c-0.245-0.624-0.499-1.126-0.76-1.524
	c-0.589-0.825-1.208-1.168-1.826-1.19c-0.621-0.021-1.253,0.282-1.878,0.741c-0.625,0.451-1.243,1.055-1.838,1.647
	c-2.457,2.499-4.587,3.507-6.482,3.42c-3.581-0.165-6.21-4.23-7.966-9.481c-0.117-0.308-0.231-0.619-0.342-0.935
	c-0.179-0.585-0.426-1.172-0.584-1.778c-0.1-0.383-0.246-0.769-0.337-1.158c-0.184-0.688-0.363-1.383-0.535-2.082
	c-1.295-5.602-1.732-11.368-1.39-14.443c0.266-1.787,1.136-6.29-2.18-6.355c-0.144-0.003-0.288-0.007-0.478,0.036
	c-2.478,1.701-2.371,3.691-5.529,3.609c-0.43-0.011-0.952-0.074-1.52-0.18c-4.146,0.143-4.779,0.136-7.382,4.128
	c-1.344,2.07-1.383,2.687-2.682,3.019c-0.483,0.116-1.138,0.194-2.094,0.291c-0.374-0.013-0.702,0.018-1.076,0.006
	c-18.358-0.597-1.766-33.886,4.213-41.772c-1.151-3.127-2.188-6.544-2.723-10.009c-0.408-1.99-0.644-3.997-0.634-5.986
	c0.015-3.5,0.788-6.943,2.716-10.117c2.181-2.953,4.858-5.381,7.794-7.533c0.211-0.146,0.454-0.339,0.667-0.482
	c0.213-0.143,0.464-0.331,0.679-0.471c6.32-4.359,13.529-7.578,19.322-12.125c2.356-1.837,4.511-3.896,6.207-6.3
	c0.063-0.101,0.125-0.201,0.187-0.3c4.18-6.903,7.306-10.049,13.243-14.959c0.263-0.225,0.533-0.456,0.806-0.688
	c3.463-2.757,8.122-14.091,18.59-17.325c1.819-0.739,3.656-1.461,5.509-2.167c8.668-3.337,17.535-6.457,26.379-9.618
	c11.298-4.039,22.551-8.143,33.371-12.877c0.542-0.248,1.085-0.499,1.628-0.753C223.264,76.526,228.508,69.824,236.12,69.824"/>
<path class="st1" d="M236.693,66.569L236.693,66.569c1.293,0,2.63,0.185,4.056,0.599c2.248,0.477,3.799,1.471,5.252,2.655
	c1.396,1.121,2.686,2.413,4.386,3.587c5.508,2.602,6.847,6.387,6.752,10.424c0,0.087,0,0.176,0,0.264
	c0.053,3.295-0.742,6.876-0.998,10.373c0.603,4.848,6.376,9.242,11.377,12.97c2.175,1.615,4.201,3.078,5.606,4.371
	c1.011,0.988,2.002,2.007,2.988,3.022c0.441,0.366,0.878,0.729,1.306,1.086c1.895,1.573,3.806,3.13,5.755,4.528
	c0.125,0.09,0.294,0.21,0.42,0.298c0.126,0.088,0.294,0.208,0.421,0.294c1.653,1.143,3.337,2.144,5.088,2.913
	c1.991,0.873,4.144,1.508,6.358,1.62c0.329,0,0.781-0.033,1.121-0.056c1.226-0.094,2.586-0.346,3.966-0.744
	c0.195-0.056,0.391-0.116,0.588-0.178c4.855-0.932,11.772-3.389,17.638-3.389c4.473,0,8.255,1.485,9.835,6.213
	c1.608,4.533,2.235,8.89-1.669,12.045c-4.555,2.62-9.666,3.86-14.662,6.211c-1.307,0.582-2.595,1.256-3.859,2.061
	c-2.69,1.762-7.052,2.87-11.147,4.403c-5.869,2.092-11.096,4.931-9.63,11.813c0.625,4.223-1.064,5.958-2.754,8.539
	c-0.292,0.493-0.753,1.137-1.022,1.734c-0.235,0.521-0.641,1.175-0.83,1.816c-0.727,3.362-2.18,6.18-3.924,8.761
	c-0.984,1.354-2.058,2.649-3.077,3.929c-1.612,1.937-3.356,3.741-5.051,5.564c-1.475,2.301-3.03,4.507-4.331,6.719
	c-1.98,6.862-0.937,12.944,1.123,18.724c0.092,0.298,0.186,0.595,0.282,0.892c0.625,1.261,1.322,2.575,1.993,3.832
	c4.156,7.791,8.758,16.157,6.274,25.86c-0.238,0.554-0.466,1.099-0.686,1.636c-0.155,0.352-0.358,0.907-0.499,1.248
	c-0.155,0.375-0.393,0.939-0.532,1.301c-0.565,1.396-0.915,2.536-1.186,3.501c-0.277,1.104-0.393,2.318-0.474,3.422
	c-0.551,4.915,0.441,8.984,1.871,13.36c0.022,0.062,0.053,0.168,0.076,0.23c0.023,0.062,0.053,0.168,0.076,0.23
	c1.854,5.648,4.105,11.413,4.797,19.474c0.689,8.453-4.866,12.678-11.815,14.2c-1.757,0.642-3.654,1.028-5.556,1.269
	c-2.049,0.26-4.124,0.346-6.052,0.197c-0.402-0.026-0.798-0.06-1.187-0.101c-2.017-0.13-4.821-0.91-7.392-0.709
	c-1.113,0.085-2.188,0.34-3.091,0.985c-5.527,3.684,1.732,8.91,2.959,11.728c0.258,0.516,0.487,1.014,0.688,1.494
	c4.491,8.978-0.447,12.43-7.627,12.049c-7.951-0.422-18.457-5.469-22.013-12.733c-0.095-0.23-0.222-0.524-0.312-0.741
	c-0.092-0.221-0.212-0.508-0.3-0.717c-0.123-0.292-0.243-0.572-0.359-0.841c-0.608-1.239-1.16-2.258-1.688-3.114
	c-2.828-4.325-4.566-3.093-11.7-6.897c-1.536-1.407-2.683-2.971-3.855-4.161c-1.057-1.115-2.135-1.897-3.572-1.913
	c-1.01-0.015-2.195,0.317-3.643,1.171c-6.258,4.639-11.499,6.518-15.791,6.186c-3.577-0.276-6.495-2.16-8.811-5.586
	c-1.758-2.601-3.178-6.038-4.294-10.228c-0.171-0.672-0.486-1.194-0.64-1.909c-0.191-0.89-0.597-1.655-0.763-2.611
	c-1.907-3.726-3.075-2.799-6.501-3.711c-5.747-3.798-9.5-5.556-12.374-5.83c-0.235-0.024-0.464-0.036-0.687-0.037
	c-5.209-0.014-7.244,5.76-14.692,13.026c-2.069,1.198-4.128,1.671-6.043,1.511c-5.531-0.346-9.708-6.008-9.389-12.543
	c0.256-6.24,2.561-13.771,6.07-19.882c1.262-2.183,2.673-4.184,4.192-5.877c-0.231-0.621-0.47-1.126-0.715-1.531
	c-0.587-0.812-1.202-1.165-1.816-1.209c-0.615-0.044-1.241,0.226-1.86,0.643c-0.621,0.405-1.236,0.956-1.828,1.494
	c-2.418,2.31-4.516,3.174-6.388,2.999c-3.512-0.328-6.104-4.378-7.846-9.599c-0.127-0.293-0.25-0.59-0.37-0.89
	c-0.172-0.561-0.489-1.113-0.64-1.694c-0.096-0.367-0.288-0.737-0.375-1.11c-0.199-0.658-0.404-1.323-0.607-1.993
	c-1.463-5.369-2.092-10.93-1.956-13.944c0.148-1.749,0.88-6.102-2.393-6.23c-0.144-0.006-0.287-0.013-0.475,0.024
	c-2.46,1.579-2.439,3.444-5.539,3.282c-0.428-0.022-0.944-0.099-1.503-0.216c-4.067,0.046-4.758-0.063-7.324,3.648
	c-1.321,1.931-1.388,2.468-2.661,2.73c-0.476,0.084-1.117,0.13-2.045,0.195c-0.365-0.027-0.684-0.013-1.048-0.037
	c-17.8-1.192-1.851-33.692,4.202-42.072c-1.008-3.237-1.886-6.76-2.275-10.309c-0.429-2.059-0.682-4.131-0.688-6.182
	c-0.014-3.627,0.74-7.193,2.641-10.486c2.147-3.1,4.816-5.68,7.777-7.972c0.202-0.139,0.469-0.377,0.673-0.514
	c0.204-0.137,0.483-0.365,0.689-0.5c6.464-4.693,13.89-8.068,19.857-12.659c2.48-1.885,4.774-3.987,6.504-6.4
	c0.067-0.104,0.134-0.207,0.198-0.309c4.313-7.117,7.576-10.405,13.68-15.454c0.266-0.235,0.542-0.481,0.818-0.722
	c3.518-2.921,8.325-14.263,18.941-17.658c1.846-0.76,3.716-1.498,5.609-2.213c8.833-3.408,17.869-6.589,26.866-9.805
	c11.532-4.122,22.985-8.293,33.993-13.107c0.546-0.26,1.094-0.525,1.642-0.793C223.075,73.445,228.619,66.569,236.693,66.569"/>
<path class="st1" d="M237.265,63.315L237.265,63.315c1.315,0,2.673,0.182,4.116,0.587c2.264,0.47,3.861,1.443,5.364,2.607
	c1.451,1.102,2.788,2.374,4.509,3.54c5.58,2.629,7.059,6.44,7.09,10.419c0.004,0.087,0.008,0.175,0.012,0.264
	c0.241,3.264-0.354,6.825-0.463,10.325c0.804,4.898,6.473,9.416,11.31,13.337c2.103,1.696,4.045,3.239,5.381,4.61
	c0.962,1.034,1.9,2.094,2.83,3.147c0.452,0.369,0.899,0.735,1.333,1.091c1.931,1.578,3.882,3.144,5.86,4.564
	c0.12,0.086,0.305,0.218,0.425,0.302c0.121,0.084,0.304,0.217,0.425,0.3c1.674,1.168,3.369,2.199,5.127,3.005
	c1.997,0.915,4.187,1.633,6.391,1.803c0.315,0,0.811-0.043,1.136-0.065c1.221-0.098,2.613-0.364,4.021-0.767
	c0.198-0.057,0.397-0.117,0.596-0.179c4.93-0.965,11.897-3.404,17.889-3.404c4.525,0,8.375,1.459,10.097,6.055
	c1.788,4.423,2.609,8.728-0.943,11.923c-4.128,2.73-8.849,4.206-13.538,6.798c-1.231,0.63-2.442,1.36-3.635,2.225
	c-2.538,1.885-6.694,3.189-10.656,4.921c-5.668,2.321-10.808,5.33-9.613,12.156c0.488,4.169-1.259,5.944-3.023,8.511
	c-0.279,0.472-0.813,1.15-1.07,1.72c-0.225,0.498-0.715,1.169-0.896,1.783c-0.996,3.349-2.677,6.117-4.58,8.645
	c-1.108,1.337-2.292,2.614-3.363,3.884c-1.749,1.955-3.629,3.742-5.447,5.533c-1.468,2.482-3.07,4.795-4.392,7.038
	c-2.012,7.24-1.383,13.534,0.332,19.391c0.07,0.308,0.142,0.615,0.217,0.922c0.643,1.307,1.379,2.692,2.072,3.991
	c4.249,7.964,9.056,16.727,6.486,26.953c-0.237,0.579-0.467,1.149-0.691,1.712c-0.148,0.337-0.373,0.981-0.507,1.307
	c-0.148,0.359-0.426,1.005-0.559,1.351c-0.633,1.53-0.979,2.706-1.24,3.644c-0.256,1.102-0.312,2.397-0.348,3.552
	c-0.418,4.963,0.68,9.214,2.142,13.888c0.022,0.059,0.056,0.184,0.077,0.244c0.022,0.059,0.054,0.185,0.076,0.244
	c1.867,6.018,3.865,12.113,4.15,20.262c0.38,8.41-5.315,12.678-12.414,14.252c-1.681,0.759-3.518,1.248-5.361,1.608
	c-2.003,0.391-4.039,0.617-5.938,0.578c-0.397-0.001-0.789-0.01-1.175-0.027c-2.017,0.022-4.808-0.597-7.393-0.296
	c-1.118,0.127-2.201,0.413-3.124,1.07c-5.555,3.701,1.061,8.805,1.87,11.52c0.205,0.495,0.382,0.973,0.533,1.432
	c3.895,8.588-1.28,11.796-8.564,11.226c-8.111-0.634-18.614-5.852-22.268-13.315c-0.091-0.22-0.23-0.539-0.317-0.747
	c-0.088-0.212-0.219-0.525-0.303-0.724c-0.124-0.295-0.245-0.578-0.361-0.848c-0.632-1.21-1.215-2.214-1.782-3.066
	c-2.947-4.015-4.849-2.758-11.912-6.36c-1.573-1.33-2.773-2.818-3.998-3.957c-1.086-1.066-2.191-1.815-3.638-1.843
	c-1.035-0.02-2.236,0.283-3.688,1.085c-6.292,4.367-11.581,5.989-15.935,5.488c-3.558-0.41-6.48-2.335-8.805-5.777
	c-1.784-2.644-3.232-6.105-4.376-10.307c-0.163-0.642-0.548-1.049-0.695-1.734c-0.183-0.852-0.695-1.496-0.853-2.411
	c-1.949-3.477-3.196-2.519-6.608-3.335c-5.73-3.535-9.566-5.167-12.561-5.428c-0.238-0.023-0.469-0.035-0.694-0.035
	c-5.365-0.021-7.673,5.377-15.103,12.099c-2.071,1.076-4.128,1.451-6.041,1.21c-5.464-0.519-9.594-6.156-9.379-12.646
	c0.137-6.255,2.297-13.771,5.678-19.931c1.215-2.193,2.579-4.213,4.051-5.939c-0.216-0.619-0.441-1.127-0.67-1.538
	c-0.585-0.8-1.196-1.162-1.806-1.227c-0.609-0.065-1.228,0.17-1.841,0.544c-0.618,0.359-1.23,0.856-1.819,1.34
	c-2.379,2.121-4.445,2.842-6.293,2.579c-3.441-0.49-5.998-4.527-7.726-9.717c-0.136-0.278-0.269-0.56-0.398-0.846
	c-0.164-0.536-0.553-1.053-0.697-1.609c-0.091-0.351-0.33-0.705-0.414-1.062c-0.214-0.628-0.444-1.263-0.678-1.903
	c-1.63-5.135-2.451-10.491-2.522-13.445c0.031-1.712,0.624-5.914-2.605-6.105c-0.144-0.009-0.287-0.02-0.473,0.012
	c-2.442,1.456-2.508,3.196-5.548,2.955c-0.427-0.034-0.936-0.125-1.487-0.252c-3.989-0.051-4.737-0.263-7.265,3.169
	c-1.297,1.792-1.393,2.249-2.639,2.44c-0.469,0.052-1.095,0.067-1.995,0.1c-0.355-0.04-0.666-0.043-1.021-0.079
	c-17.237-1.783-1.937-33.498,4.191-42.371c-0.866-3.346-1.583-6.976-1.828-10.608c-0.451-2.128-0.72-4.265-0.742-6.377
	c-0.044-3.754,0.691-7.442,2.566-10.855c2.113-3.246,4.773-5.979,7.759-8.411c0.193-0.133,0.483-0.415,0.678-0.546
	c0.195-0.131,0.502-0.4,0.699-0.528c6.607-5.028,14.25-8.559,20.391-13.193c2.604-1.933,5.037-4.078,6.801-6.5
	c0.072-0.107,0.142-0.213,0.21-0.318c4.446-7.33,7.845-10.76,14.116-15.95c0.27-0.246,0.551-0.505,0.829-0.757
	c3.573-3.086,8.527-14.434,19.291-17.991c1.872-0.781,3.775-1.536,5.708-2.26c8.998-3.478,18.203-6.722,27.353-9.992
	c11.766-4.205,23.419-8.444,34.614-13.337c0.549-0.272,1.103-0.551,1.657-0.833C222.887,70.365,228.731,63.315,237.265,63.315"/>
</svg>
