<svg version="1.1" id="Livello_2_copia" xmlns:x="&ns_extend;" xmlns:i="&ns_ai;" xmlns:graph="&ns_graphs;"
	 xmlns="http://www.w3.org/2000/svg" xmlns:xlink="http://www.w3.org/1999/xlink" x="0px" y="0px" viewBox="0 0 907.1 907.1"
	 style="enable-background:new 0 0 907.1 907.1;" xml:space="preserve">
<style type="text/css">
	.st0{fill:none;stroke:#000000;stroke-miterlimit:10;}
</style>
<metadata>
	<sfw  xmlns="&ns_sfw;">
		<slices></slices>
		<sliceSourceBounds  bottomLeftOrigin="true" height="634.2" width="776.2" x="64.5" y="136.8"></sliceSourceBounds>
	</sfw>
</metadata>
<path id="line-1" class="st0" d="M492.9,391.8c3.3,0,6.6,1.3,10,4.9c2,2.5,1.3,2.8,4.5,3.1c4.3,1.1,6.5,2.8,9.4,2.8
	c1.7,0,3.6-0.6,6.4-2.1c1.5-0.9,3.1-1.3,4.6-1.3c5.1,0,9.1,4.8,8.1,10.5c-3.6,12.5-24.7,15-27.1,29.9c1.9,7.8-4.9,8.3,0.5,14.8
	c4.1,6.4-1.4,12.4,0.8,19.1c3.6,10.6,10.9,41.3-5.8,41.3c-1.1,0-2.3-0.1-3.6-0.4c-1.4-0.5-2.2-0.7-3-0.7c-1,0-1.8,0.5-3.3,1.4
	c-2.9,1.3-5.4,1.8-7.7,1.8c-10.9,0-15.9-12.6-23.7-19.8c-2.3-1-4.2-1.2-5.9-1.2c-1.1,0-2.2,0.1-3.2,0.1c-2.6,0-5-0.7-8.3-5.8
	c-1.7-1.9-3.6-2.4-5.6-2.4c-2,0-4.1,0.5-6.2,0.5c-1,0-2-0.1-3.1-0.5c-7.5-5.2-18.1-4.7-25.3-10.6c-5.7-4.7-10.7-10.3-16.4-15
	c-6.4-3.7-6.3-10.6-5.4-17.1c0.1-3.5,0.4-7.1-1.5-10.2c-2.1-3.3-5.5-5.4-8-8.4c-3.5-4.3-1.8-10.4-1.8-15.8c0-3.3,2-7,3.6-9.8
	c1.3-2.2,2.8-4.8,5.3-5.5l0.8-0.1c1.6-0.4,3.3-0.5,4.9-0.5c7.1,0,13.9,3,21.1,3h0.3c2.7-1.2,5.3-2,7.8-2c2.8,0,5.5,1,8.1,3.7
	c1.6,1.2,2.6,1.8,3.6,1.8c1.1,0,2.1-0.8,3.4-2.5c2.6-3.3,5.5-4.4,8.9-4.4c1.4,0,2.9,0.2,4.4,0.5h0.6c3.2,0,6.4-0.9,9.5-0.9
	c1.7,0,3.4,0.3,5,1.1c3.2,1.3,5.9,4.4,9.1,5.3h0.1c0,0,0.1,0,0.1,0C476.6,400.4,484.5,391.8,492.9,391.8"/>
<path id="line-2" class="st0" d="M496.5,383L496.5,383c3.8,0,7.8,1.4,11.9,5.4c1.6,1.8,1.8,2.6,3.1,3.1c0.6,0.1,1.3,0.2,2.4,0.2
	c1.6,0.3,3,0.7,4.3,1.1c2.6,0.8,4.6,1.6,6.9,1.7c2.1,0.1,4.4-0.2,7.4-1.5c1.7-0.7,3.5-0.9,5.2-0.6c5.3,0.4,9.5,5.5,8.6,11.5
	c-1.9,7.9-9.9,12.5-16.8,18.2c-0.5,0.4-1,0.9-1.4,1.2c-0.5,0.4-1,0.9-1.4,1.3c-3.5,3.3-6.4,7.1-7.4,12.2c1.6,8.1-5.4,8.9-0.4,15.6
	c1.5,3.4,0.8,6.7-0.2,10c-0.2,0.6-0.4,1.3-0.6,1.9c0,0.1,0,0.2-0.1,0.3c-0.3,2.9-0.6,6,0.3,9.1c0.6,2.1,1.2,4.6,1.7,7.3
	c1.2,4.5,2.4,10.1,3,15.7c0.5,4.6,0.5,9-0.1,12.9c-1.1,6.6-4.2,11.5-10.7,12.1c-1.2,0.2-2.5,0.2-4,0.1c-1.5-0.3-2.5-0.4-3.4-0.3
	c-1.2,0.1-2.1,0.7-3.9,1.8c-3.3,1.5-6.2,2.1-9,2.2c-1.1,0-2.1-0.1-3.1-0.2c-0.9-0.2-1.8-0.4-2.6-0.7c-3.1-0.8-5.8-2.5-8.4-4.7
	c-2.8-2.3-5.4-5-8-7.9c-2.2-2.3-4.3-4.7-6.6-6.8c-2.6-1.2-4.7-1.7-6.6-2c-1.3-0.2-2.4-0.2-3.5-0.4c-3.1-0.1-5.8-0.9-9.6-6.1
	c-0.2-0.2-0.4-0.4-0.7-0.6c-1.2-1.1-2.5-1.7-3.9-2c-0.6-0.1-1.1-0.1-1.7-0.1c-2.3,0-4.6,0.4-6.9,0.3c-1,0-2.4-0.3-3.4-0.6
	c-0.8-0.5-1.9-1.2-2.7-1.6c-1.1-0.6-2.4-1.1-3.7-1.5c-7.1-2.6-15.4-3.6-21.6-8.6c0,0-0.1-0.1-0.1-0.1c0,0-0.1-0.1-0.1-0.1
	c-2.3-2-4.6-4-6.7-6.1c-1.4-1.3-2.8-2.6-4.1-3.9c-2.5-2.2-4.9-4.5-7.3-6.8c-0.3-0.2-0.5-0.5-0.8-0.7c-3-2-4.7-4.6-5.6-7.6
	c-0.9-3-0.9-6.3-0.7-9.6c0-0.9,0-1.9,0-2.9c-0.1-3.8-0.1-7.7-2.2-11.2c-1.5-2.5-3.6-4.6-5.6-6.7c-0.9-1-1.8-2-2.5-3.1
	c-1.2-1.7-1.8-3.6-2-5.6c-0.1-0.6-0.1-1.2-0.1-1.7c-0.1-3.4,0.5-7,0.6-10.3c0.2-3.8,2.4-7.9,4.2-10.9c0,0,0,0,0,0c0,0,0,0,0,0
	c1.4-2.5,3.1-5.3,5.8-6.2c0,0,0.8-0.1,0.8-0.2c1.8-0.5,3.6-0.9,5.3-1c3.5-0.3,6.9,0.1,10.4,0.6c0.4,0.1,1,0.1,1.4,0.2
	c0.3,0.1,0.8,0.1,1.2,0.2c2.4,0.4,4.9,0.8,7.4,1c1.2,0.1,2.3,0.2,3.5,0.2c0,0,0.3,0,0.3,0c3.1-1.1,6-1.8,8.8-1.8c0.2,0,0.3,0,0.5,0
	c0.5,0,1.1,0.1,1.6,0.2c2.4,0.3,4.8,1.3,7.1,3.3c0.3,0.2,0.6,0.4,0.9,0.5c1.3,0.8,2.3,1.2,3.3,1.2c1.3,0,2.3-0.7,3.7-2
	c0.1-0.1,0.2-0.2,0.3-0.3c3-3.4,6.4-4.6,10.2-4.6c1.5,0,3.1,0.2,4.8,0.5c0,0,0.7,0,0.7,0c0.3,0,0.5,0,0.8,0c0.1,0,0.2,0,0.3,0
	c3-0.2,6.1-1,9.3-1c1.8,0,3.7,0.3,5.5,1.1c3.5,1.3,6.5,4.5,10,5.5c0,0,0.1,0,0.1,0c0,0,0.1,0,0.1,0c0.6,0,1.2,0,1.8-0.1
	c0,0,0.1,0,0.1,0C479.9,390.5,487.9,383,496.5,383"/>
<path id="line-3" class="st0" d="M500.1,374.2L500.1,374.2c4.3,0,9,1.5,13.9,5.8c1.7,1.9,2.2,2.8,3.6,3.5
	c0.7,0.1,1.5,0.1,2.8,0.1c1.8,0.3,3.5,0.6,5,1c2.9,0.8,5.3,1.6,7.9,1.9c2.5,0.3,5.1,0.1,8.5-0.8c2-0.5,3.9-0.5,5.7,0
	c5.5,0.7,9.8,6.1,9.1,12.4c-1.6,8.5-9.4,13.7-16.2,20c-0.5,0.3-1,1-1.4,1.4s-1,1-1.4,1.4c-3.6,3.7-6.5,7.8-7.7,13.1
	c1.4,8.3-5.8,9.5-1.4,16.3c1,3.8-0.2,7.3-1.4,10.7c-0.3,0.7-0.5,1.3-0.8,2c0,0.1,0,0.2-0.1,0.3c-0.2,3.3-0.4,6.7,0.5,10.2
	c0.6,2.5,1.1,5.3,1.6,8.3c1.3,4.9,2.7,11.3,3.4,17.7c0.5,5.2,0.6,10.2-0.1,14.5c-1.2,7.4-4.5,13-11.4,14.3c-1.3,0.4-2.8,0.6-4.3,0.6
	c-1.6-0.2-2.7-0.2-3.7,0.1c-1.3,0.3-2.5,1-4.4,2.1c-3.6,1.7-7,2.5-10.2,2.6c-1.2,0-2.4,0-3.5-0.2c-1-0.1-2-0.4-3-0.7
	c-3.5-0.6-6.8-2.2-9.8-4.3c-3.3-2.2-6.5-5.1-9.6-8.1c-2.6-2.5-5.1-5.1-7.8-7.5c-2.9-1.5-5.2-2.2-7.2-2.7c-1.4-0.3-2.6-0.5-3.8-0.8
	c-3.5-0.1-6.7-1.1-10.8-6.4c-0.2-0.2-0.5-0.5-0.7-0.7c-1.4-1.2-2.8-1.8-4.3-2.3c-0.6-0.1-1.3-0.1-1.9-0.1c-2.5-0.1-5.1,0.3-7.7,0.1
	c-1,0-2.8-0.4-3.8-0.7c-0.7-0.5-2.1-1.4-2.9-1.8c-1.2-0.6-2.7-1.2-4.1-1.7c-7.6-2.7-16.8-4-23.8-9.7c0,0-0.1-0.1-0.1-0.1
	s-0.1-0.1-0.1-0.1c-2.7-2.2-5.2-4.6-7.6-6.9c-1.6-1.5-3.2-3-4.7-4.4c-2.9-2.5-5.6-5.1-8.3-7.8c-0.3-0.3-0.6-0.6-0.9-0.9
	c-3.2-2.4-5.1-5.5-6-8.9c-1-3.5-1.1-7.3-0.8-10.9c-0.1-1-0.2-2.1-0.3-3.2c-0.4-4.1-0.6-8.4-2.8-12.1c-1.6-2.8-3.8-5.2-5.7-7.7
	c-0.9-1.2-1.8-2.3-2.5-3.5c-1.2-2-1.7-4.1-1.9-6.3c-0.1-0.6-0.1-1.3-0.1-1.9c-0.1-3.8,0.6-7.8,0.8-11.4c0.4-4.3,2.8-8.7,4.7-12.1
	c0,0,0,0,0,0s0,0,0,0c1.5-2.7,3.4-5.7,6.3-7c0.1-0.1,0.9-0.2,0.9-0.3c1.9-0.7,3.9-1.2,5.8-1.5c3.8-0.6,7.6-0.4,11.5-0.1
	c0.4,0.1,1.2,0.1,1.6,0.2c0.3,0.1,1,0.1,1.3,0.2c2.7,0.3,5.5,0.7,8.3,0.9c1.3,0.1,2.6,0.2,3.9,0.2c0,0,0.3,0,0.3,0
	c3.6-1.1,6.8-1.7,9.9-1.5c0.2,0,0.4,0,0.6,0c0.6,0,1.2,0.1,1.8,0.2c2.7,0.2,5.4,1.1,8.1,3c0.3,0.2,0.7,0.4,1,0.5
	c1.4,0.8,2.6,1.2,3.7,1.2c1.4,0,2.7-0.6,4.2-1.9c0.1-0.1,0.2-0.2,0.3-0.3c3.4-3.5,7.2-4.8,11.6-4.8c1.6,0,3.4,0.2,5.2,0.5
	c0,0,0.7,0,0.7,0c0.3,0,0.6,0,0.8,0c0.1,0,0.2,0,0.4,0c3.2-0.2,6.6-1,10.1-1c2,0,4,0.3,5.9,1.1c3.8,1.3,7.1,4.5,10.9,5.7
	c0,0,0.1,0,0.1,0c0,0,0.1,0,0.1,0c0.7,0,1.3,0.1,2,0c0,0,0.1,0,0.1,0C481.9,381.9,490.6,374.2,500.1,374.2"/>
<path id="line-4" class="st0" d="M503.7,365.4L503.7,365.4c4.8,0,10.2,1.6,15.8,6.3c1.9,2,2.6,3,4.2,3.8c0.8,0,1.8,0,3.1,0
	c2.1,0.2,3.9,0.5,5.7,0.9c3.3,0.8,6,1.7,9,2c2.9,0.4,5.9,0.5,9.5-0.2c2.2-0.3,4.3,0,6.3,0.7c5.7,1.1,10.1,6.8,9.7,13.4
	c-1.3,9-8.8,14.9-15.7,21.9c-0.5,0.3-1,1.2-1.4,1.5c-0.4,0.3-1,1.2-1.4,1.5c-3.6,4-6.7,8.4-8.1,14c1.1,8.5-6.3,10.1-2.3,17.1
	c0.6,4.1-1.1,7.9-2.7,11.5c-0.3,0.7-0.7,1.4-1.1,2.1c0,0.1,0,0.2-0.1,0.4c0,3.7-0.2,7.4,0.7,11.4c0.6,2.9,1,6.1,1.5,9.2
	c1.5,5.4,3.1,12.4,3.8,19.7c0.6,5.7,0.7,11.3,0,16.2c-1.2,8.2-4.8,14.6-12,16.6c-1.4,0.5-3,0.9-4.7,1.1c-1.7,0-2.9,0.1-4.1,0.4
	c-1.5,0.4-2.8,1.2-5,2.5c-4,1.9-7.8,2.8-11.5,2.9c-1.3,0.1-2.7,0-3.9-0.2c-1.2-0.1-2.3-0.4-3.4-0.7c-4-0.5-7.7-1.9-11.2-3.9
	c-3.9-2.2-7.6-5.1-11.3-8.3c-3-2.6-5.9-5.4-9-8.1c-3.1-1.7-5.7-2.7-7.9-3.5c-1.5-0.5-2.8-0.8-4.1-1.3c-4-0.2-7.6-1.3-12-6.8
	c-0.3-0.3-0.5-0.5-0.8-0.7c-1.5-1.2-3.1-2-4.7-2.5c-0.7-0.1-1.4-0.1-2.1-0.1c-2.8-0.1-5.6,0.2-8.4-0.1c-1,0-3.2-0.5-4.2-0.8
	c-0.7-0.5-2.4-1.6-3.2-2c-1.3-0.6-3-1.2-4.5-1.8c-8.1-2.8-18.2-4.4-26-10.7c0,0-0.1-0.1-0.1-0.1s-0.1-0.1-0.1-0.1
	c-3-2.5-5.9-5.2-8.6-7.8c-1.8-1.7-3.6-3.4-5.3-5c-3.3-2.8-6.3-5.7-9.3-8.7c-0.3-0.3-0.7-0.7-1-1c-3.4-2.8-5.4-6.3-6.5-10.2
	c-1.1-4-1.2-8.2-0.8-12.2c-0.2-1.1-0.5-2.3-0.7-3.5c-0.7-4.4-1.2-9-3.5-13.1c-1.7-3.1-3.9-5.8-5.8-8.6c-0.9-1.3-1.7-2.6-2.5-4
	c-1.2-2.3-1.6-4.6-1.8-6.9c0-0.7-0.1-1.5-0.1-2.1c-0.1-4.2,0.6-8.5,1-12.4c0.5-4.8,3.2-9.6,5.2-13.2c0,0,0,0,0,0s0,0,0,0
	c1.6-2.9,3.6-6.2,6.8-7.7c0.1-0.1,0.9-0.3,1-0.4c2.1-0.9,4.1-1.6,6.2-2c4.1-0.9,8.3-1,12.6-0.7c0.4,0.1,1.4,0,1.8,0.1
	c0.3,0.1,1.1,0.1,1.5,0.2c3,0.2,6.1,0.6,9.2,0.8c1.4,0.1,2.9,0.2,4.3,0.2c0,0,0.3,0,0.4,0c4-1,7.6-1.5,11-1.3c0.2,0,0.4,0,0.6,0.1
	c0.7,0.1,1.3,0.2,2,0.3c3,0.1,6,0.9,9.1,2.8c0.4,0.2,0.8,0.4,1.1,0.5c1.6,0.8,2.9,1.2,4.1,1.2c1.6,0.1,3-0.5,4.7-1.7
	c0.1-0.1,0.2-0.2,0.4-0.3c3.9-3.6,8.1-4.9,13-4.9c1.8,0,3.7,0.2,5.6,0.5c0.1,0,0.7,0,0.8,0c0.3,0,0.6,0,0.9,0c0.1,0,0.3,0,0.4,0
	c3.4-0.3,7.1-1.1,10.9-1.1c2.1,0,4.3,0.3,6.4,1.1c4.1,1.4,7.7,4.6,11.9,5.8c0,0,0.1,0,0.1,0c0,0,0.1,0,0.1,0
	c0.7,0.1,1.4,0.1,2.1,0.1c0,0,0.1,0,0.1,0C484,373.3,493.3,365.4,503.7,365.4"/>
<path id="line-5" class="st0" d="M507.2,356.6L507.2,356.6c5.3,0,11.5,1.7,17.8,6.8c2.1,2.1,3,3.2,4.8,4.2c0.9,0,2-0.1,3.5-0.1
	c2.3,0.1,4.4,0.4,6.3,0.8c3.6,0.8,6.7,1.7,10,2.2c3.3,0.5,6.6,0.8,10.6,0.5c2.4-0.1,4.8,0.4,6.9,1.4c5.8,1.4,10.5,7.5,10.2,14.4
	c-1,9.5-8.3,16.1-15.1,23.7c-0.4,0.3-1,1.3-1.4,1.6c-0.4,0.3-1,1.3-1.5,1.7c-3.6,4.3-6.8,9.1-8.4,14.9c0.8,8.8-6.7,10.7-3.2,17.9
	c0.1,4.4-2,8.5-4,12.3c-0.4,0.7-0.9,1.5-1.3,2.3c0,0.1,0,0.3-0.1,0.4c0.1,4,0.1,8.2,0.9,12.5c0.6,3.3,0.9,6.8,1.3,10.2
	c1.6,5.8,3.4,13.6,4.3,21.7c0.7,6.3,0.8,12.4,0,17.8c-1.3,9-5.1,16.1-12.7,18.8c-1.5,0.7-3.2,1.3-5,1.7c-1.8,0.1-3.2,0.4-4.5,0.8
	c-1.7,0.6-3.2,1.5-5.5,2.8c-4.4,2.1-8.6,3.1-12.7,3.3c-1.5,0.1-2.9,0-4.4-0.1c-1.3-0.1-2.5-0.4-3.8-0.7c-4.5-0.3-8.6-1.6-12.6-3.6
	c-4.5-2.1-8.7-5.1-12.9-8.5c-3.4-2.8-6.7-5.8-10.1-8.8c-3.4-1.9-6.1-3.2-8.6-4.3c-1.6-0.6-3-1.2-4.4-1.7c-4.4-0.2-8.5-1.5-13.3-7.1
	c-0.3-0.3-0.6-0.5-0.9-0.8c-1.6-1.3-3.3-2.2-5-2.8c-0.8-0.1-1.5-0.1-2.3-0.2c-3-0.1-6.1,0.1-9.1-0.3c-0.9,0-3.6-0.7-4.6-1
	c-0.7-0.5-2.7-1.8-3.5-2.2c-1.4-0.7-3.2-1.3-4.9-1.9c-8.7-3-19.6-4.8-28.2-11.8c0,0-0.1-0.1-0.1-0.1c0,0-0.1-0.1-0.1-0.1
	c-3.4-2.8-6.5-5.8-9.5-8.6c-2-1.9-4-3.8-5.9-5.5c-3.7-3-7.1-6.3-10.3-9.7c-0.4-0.4-0.7-0.8-1.1-1.1c-3.6-3.2-5.8-7.1-7-11.4
	c-1.2-4.5-1.3-9.2-0.9-13.6c-0.3-1.2-0.7-2.5-1-3.8c-1-4.6-1.7-9.6-4.1-14.1c-1.8-3.4-4-6.4-6-9.6c-0.9-1.5-1.7-2.9-2.4-4.4
	c-1.1-2.5-1.6-5.1-1.8-7.6c0-0.8,0-1.7-0.1-2.3c-0.1-4.6,0.7-9.3,1.2-13.5c0.7-5.3,3.6-10.5,5.7-14.4c0,0,0,0,0,0s0,0,0,0
	c1.7-3.1,3.9-6.6,7.3-8.5c0.1-0.1,0.9-0.3,1-0.4c2.2-1.1,4.4-1.9,6.7-2.5c4.4-1.2,9-1.5,13.7-1.3c0.4,0.1,1.5,0,1.9,0.1
	c0.3,0.1,1.3,0.1,1.6,0.1c3.3,0.2,6.7,0.4,10,0.7c1.6,0.1,3.2,0.2,4.7,0.2c0.1,0,0.4,0,0.4,0c4.4-0.9,8.4-1.4,12.1-1.1
	c0.2,0,0.5,0,0.7,0.1c0.7,0.1,1.5,0.2,2.2,0.3c3.2,0,6.6,0.7,10.1,2.6c0.4,0.2,0.8,0.3,1.3,0.5c1.7,0.8,3.2,1.1,4.5,1.2
	c1.8,0.1,3.4-0.4,5.3-1.6c0.1-0.1,0.3-0.2,0.4-0.3c4.3-3.7,9-5.1,14.3-5.1c1.9,0,3.9,0.2,6,0.5c0.1,0,0.8,0,0.8,0c0.3,0,0.6,0,1,0
	c0.1,0,0.3,0,0.4,0c3.6-0.3,7.5-1.2,11.7-1.2c2.3,0,4.6,0.3,6.9,1.2c4.4,1.4,8.4,4.6,12.8,6c0,0,0.1,0,0.1,0c0,0,0.1,0,0.1,0
	c0.7,0.1,1.5,0.2,2.2,0.2c0,0,0.1,0,0.1,0C486,364.7,496.1,356.6,507.2,356.6"/>
<path id="line-6" class="st0" d="M510.8,347.8L510.8,347.8c5.9,0,12.7,1.7,19.7,7.2c2.3,2.1,3.4,3.4,5.3,4.5
	c1-0.1,2.3-0.1,3.8-0.2c2.5,0.1,4.8,0.4,7,0.7c4,0.7,7.4,1.7,11.1,2.3c3.7,0.7,7.4,1.2,11.6,1.1c2.6,0.1,5.2,0.8,7.5,2.1
	c6,1.8,10.8,8.1,10.7,15.3c-0.7,10-7.7,17.3-14.6,25.5c-0.4,0.3-1,1.4-1.4,1.8c-0.4,0.3-1.1,1.4-1.5,1.8c-3.7,4.7-7,9.7-8.8,15.8
	c0.5,9-7.1,11.3-4.1,18.7c-0.4,4.8-2.9,9-5.3,13c-0.5,0.8-1,1.6-1.5,2.4c0,0.1,0,0.3-0.1,0.4c0.3,4.4,0.3,8.9,1.2,13.7
	c0.6,3.7,0.9,7.5,1.2,11.1c1.7,6.2,3.7,14.8,4.7,23.7c0.8,6.9,0.9,13.6,0,19.4c-1.4,9.9-5.4,17.6-13.3,21c-1.7,0.9-3.4,1.7-5.4,2.2
	c-1.9,0.2-3.4,0.7-4.8,1.2c-1.8,0.7-3.6,1.7-6,3.2c-4.8,2.3-9.4,3.4-13.9,3.7c-1.6,0.1-3.2,0.1-4.8-0.1c-1.4-0.1-2.8-0.4-4.1-0.7
	c-4.9-0.1-9.6-1.3-14.1-3.2c-5-2.1-9.8-5.1-14.5-8.7c-3.8-2.9-7.5-6.2-11.3-9.4c-3.6-2.2-6.6-3.7-9.3-5c-1.7-0.8-3.3-1.5-4.7-2.2
	c-4.9-0.3-9.3-1.7-14.5-7.5c-0.3-0.3-0.7-0.6-1-0.8c-1.8-1.4-3.6-2.3-5.4-3.1c-0.8-0.1-1.6-0.1-2.5-0.2c-3.3-0.1-6.6,0-9.9-0.5
	c-0.9,0-4-0.8-4.9-1.1c-0.7-0.5-3-2-3.7-2.4c-1.4-0.7-3.5-1.4-5.3-2c-9.2-3.1-20.9-5.2-30.4-12.9c0,0-0.1-0.1-0.1-0.1
	s-0.1-0.1-0.1-0.1c-3.7-3.1-7.2-6.4-10.5-9.5c-2.2-2.1-4.4-4.2-6.4-6.1c-4.1-3.3-7.8-6.9-11.2-10.7c-0.4-0.4-0.8-0.9-1.1-1.3
	c-3.8-3.6-6.2-7.9-7.4-12.7c-1.3-5-1.4-10.2-1-14.9c-0.4-1.3-0.9-2.6-1.3-4.1c-1.3-4.9-2.2-10.2-4.8-15.1c-1.9-3.7-4.2-7-6.1-10.5
	c-0.9-1.6-1.7-3.2-2.4-4.9c-1.1-2.8-1.5-5.6-1.7-8.2c0-0.8,0-1.8,0-2.5c-0.1-5,0.8-10,1.4-14.6c0.9-5.8,4-11.4,6.3-15.5c0,0,0,0,0,0
	c0,0,0,0,0,0c1.8-3.3,4.2-7.1,7.8-9.2c0.1-0.2,1-0.4,1.1-0.5c2.3-1.3,4.7-2.3,7.2-3c4.8-1.5,9.7-2,14.8-2c0.4,0.1,1.7-0.1,2.1,0
	c0.3,0.1,1.5,0,1.8,0.1c3.6,0.1,7.2,0.3,10.9,0.5c1.7,0.1,3.4,0.2,5.1,0.2c0.1,0,0.4,0,0.5,0c4.8-0.9,9.1-1.2,13.1-0.8
	c0.3,0,0.5,0.1,0.8,0.1c0.8,0.1,1.6,0.2,2.4,0.4c3.5-0.1,7.2,0.5,11,2.3c0.5,0.2,0.9,0.3,1.4,0.5c1.9,0.7,3.5,1.1,5,1.2
	c2,0.1,3.8-0.4,5.8-1.4c0.2-0.1,0.3-0.2,0.5-0.4c4.7-3.9,9.9-5.3,15.7-5.3c2,0,4.2,0.2,6.4,0.5c0.1,0,0.8,0,0.9,0c0.3,0,0.7,0,1,0
	c0.1,0,0.3,0,0.4,0c3.8-0.3,8-1.2,12.5-1.2c2.5,0,4.9,0.3,7.3,1.2c4.8,1.4,9,4.7,13.7,6.2c0,0,0.1,0,0.1,0c0,0,0.1,0,0.1,0
	c0.8,0.1,1.6,0.2,2.4,0.3c0,0,0.1,0,0.1,0C488.1,356.1,498.8,347.8,510.8,347.8"/>
<path id="line-7" class="st0" d="M514.4,339L514.4,339c6.4,0,13.9,1.8,21.7,7.7c2.4,2.2,3.8,3.6,5.9,4.9c1.2-0.1,2.5-0.2,4.2-0.3
	c2.7,0,5.2,0.3,7.7,0.6c4.3,0.7,8.2,1.7,12.1,2.4c4,0.8,8.1,1.5,12.7,1.7c2.8,0.3,5.6,1.3,8.1,2.7c6.2,2.1,11.2,8.8,11.2,16.3
	c-0.4,10.6-7.2,18.5-14.1,27.4c-0.4,0.3-1,1.6-1.4,1.9c-0.4,0.3-1.1,1.6-1.5,1.9c-3.7,5-7.1,10.3-9.2,16.7c0.2,9.2-7.6,11.9-5,19.5
	c-0.9,5.1-3.9,9.6-6.6,13.8c-0.5,0.8-1.2,1.7-1.8,2.5c0,0.2-0.1,0.3-0.1,0.5c0.4,4.8,0.6,9.7,1.4,14.8c0.5,4.1,0.8,8.3,1,12.1
	c1.9,6.7,4,16,5.1,25.7c0.8,7.5,0.9,14.7,0.1,21c-1.5,10.7-5.7,19.2-14,23.2c-1.8,1.1-3.7,2-5.7,2.7c-2,0.4-3.6,0.9-5.2,1.6
	c-2,0.9-3.9,2-6.6,3.5c-5.1,2.4-10.2,3.7-15.2,4.1c-1.8,0.1-3.5,0.1-5.2-0.1c-1.5-0.1-3-0.4-4.5-0.7c-5.4,0.1-10.5-1-15.5-2.9
	c-5.6-2-11-5.1-16.2-8.9c-4.2-3.1-8.3-6.5-12.4-10.1c-3.9-2.4-7.1-4.2-9.9-5.8c-1.8-0.9-3.5-1.8-5-2.6c-5.3-0.4-10.2-1.9-15.7-7.8
	c-0.4-0.3-0.7-0.6-1.1-0.9c-1.9-1.5-3.8-2.5-5.8-3.4c-0.9-0.1-1.8-0.1-2.6-0.2c-3.5-0.2-7.1-0.1-10.6-0.7c-0.9,0-4.4-1-5.3-1.2
	c-0.7-0.5-3.3-2.2-4-2.6c-1.5-0.7-3.8-1.5-5.7-2.1c-9.7-3.3-22.3-5.6-32.6-13.9c0,0-0.1-0.1-0.1-0.1c0,0-0.1-0.1-0.1-0.1
	c-4.1-3.4-7.9-7-11.4-10.3c-2.4-2.3-4.8-4.5-7-6.6c-4.5-3.5-8.5-7.5-12.2-11.7c-0.4-0.5-0.8-0.9-1.2-1.4c-4-4-6.5-8.7-7.9-14
	c-1.4-5.5-1.5-11.1-1.1-16.3c-0.5-1.4-1.1-2.8-1.6-4.4c-1.6-5.2-2.8-10.8-5.4-16.1c-2-4-4.3-7.6-6.2-11.5c-0.9-1.8-1.7-3.5-2.4-5.3
	c-1.1-3-1.5-6.1-1.6-8.9c0-0.9,0-2,0-2.7c-0.1-5.4,0.9-10.8,1.5-15.6c1.1-6.3,4.4-12.3,6.8-16.6c0,0,0,0,0,0c0,0,0,0,0,0
	c2-3.5,4.4-7.6,8.2-10c0.2-0.2,1-0.4,1.2-0.6c2.5-1.5,5-2.6,7.6-3.5c5.1-1.7,10.4-2.5,15.9-2.6c0.4,0.1,1.9-0.1,2.3-0.1
	c0.3,0.1,1.6,0,1.9,0.1c3.9,0,7.8,0.2,11.8,0.4c1.9,0.1,3.7,0.2,5.5,0.3c0.1,0,0.4,0,0.5,0c5.2-0.8,9.9-1,14.2-0.6
	c0.3,0,0.6,0.1,0.8,0.1c0.8,0.1,1.7,0.2,2.6,0.4c3.8-0.2,7.8,0.3,12,2.1c0.5,0.2,1,0.3,1.5,0.5c2,0.7,3.7,1.1,5.4,1.2
	c2.2,0.1,4.1-0.3,6.3-1.3c0.2-0.1,0.3-0.2,0.5-0.4c5.2-4,10.8-5.5,17-5.5c2.2,0,4.4,0.2,6.8,0.6c0.1,0,0.8,0,1,0c0.4,0,0.7,0,1.1,0
	c0.2,0,0.3,0,0.5,0c4-0.4,8.4-1.3,13.3-1.3c2.6,0,5.2,0.3,7.8,1.2c5.1,1.4,9.6,4.8,14.6,6.4c0,0,0.1,0,0.1,0c0,0,0.1,0,0.1,0
	c0.8,0.1,1.7,0.3,2.5,0.3c0,0,0.1,0,0.1,0C490.1,347.5,501.5,339,514.4,339"/>
<path id="line-8" class="st0" d="M518,330.2L518,330.2c6.9,0,15.1,1.9,23.7,8.2c2.6,2.3,4.1,3.8,6.5,5.3c1.3-0.1,2.7-0.3,4.5-0.4
	c2.9,0,5.7,0.2,8.3,0.5c4.7,0.7,8.9,1.8,13.2,2.6c4.4,0.9,8.9,1.9,13.7,2.4c3.1,0.5,6,1.7,8.7,3.4c6.4,2.5,11.5,9.4,11.8,17.3
	c-0.1,11.1-6.7,19.7-13.5,29.2c-0.4,0.3-1,1.7-1.4,2c-0.4,0.3-1.1,1.7-1.5,2.1c-3.8,5.3-7.3,11-9.5,17.6c0,9.5-8,12.4-6,20.3
	c-1.3,5.5-4.8,10.2-7.8,14.6c-0.6,0.8-1.3,1.8-2,2.7c0,0.2-0.1,0.3-0.1,0.5c0.6,5.1,0.8,10.4,1.6,16c0.5,4.5,0.7,9,0.9,13.1
	c2,7.1,4.4,17.1,5.5,27.6c0.9,8.1,1,15.9,0.1,22.7c-1.5,11.5-6,20.7-14.6,25.4c-1.9,1.3-3.9,2.4-6.1,3.2c-2.1,0.5-3.9,1.2-5.6,2
	c-2.2,1-4.3,2.3-7.1,3.8c-5.5,2.6-11,4.1-16.4,4.4c-1.9,0.1-3.8,0.1-5.7,0c-1.7-0.1-3.3-0.4-4.9-0.7c-5.9,0.3-11.5-0.7-16.9-2.5
	c-6.2-2-12.1-5.1-17.8-9.1c-4.6-3.2-9.1-6.9-13.6-10.8c-4.1-2.6-7.6-4.7-10.6-6.5c-1.9-1.1-3.7-2.1-5.3-3.1
	c-5.8-0.4-11.1-2.1-17-8.2c-0.4-0.3-0.8-0.6-1.2-0.9c-2-1.5-4.1-2.7-6.2-3.7c-0.9-0.1-1.9-0.2-2.8-0.2c-3.8-0.2-7.6-0.2-11.3-0.8
	c-0.9,0-4.8-1.1-5.7-1.4c-0.7-0.5-3.6-2.4-4.3-2.8c-1.6-0.7-4-1.6-6.1-2.2c-10.3-3.4-23.7-6-34.8-15c0,0-0.1-0.1-0.2-0.1
	c0,0-0.1-0.1-0.2-0.1c-4.4-3.7-8.5-7.6-12.3-11.2c-2.6-2.5-5.2-4.9-7.6-7.1c-4.8-3.8-9.2-8.1-13.2-12.7c-0.4-0.5-0.9-1-1.3-1.5
	c-4.2-4.4-6.9-9.5-8.4-15.2c-1.5-6-1.6-12.1-1.2-17.6c-0.6-1.5-1.3-3-2-4.7c-1.9-5.5-3.3-11.4-6.1-17c-2.1-4.3-4.4-8.3-6.4-12.4
	c-0.9-1.9-1.7-3.9-2.4-5.8c-1.1-3.3-1.4-6.5-1.5-9.5c0-1,0-2.2,0-2.9c-0.1-5.8,0.9-11.5,1.7-16.7c1.2-6.9,4.8-13.2,7.3-17.8
	c0,0,0,0,0,0s0,0,0,0c2.1-3.7,4.7-8,8.7-10.8c0.2-0.2,1-0.5,1.2-0.7c2.6-1.6,5.3-2.9,8.1-4c5.4-2,11.1-3,17-3.3
	c0.4,0.1,2.1-0.2,2.4-0.1c0.3,0.1,1.8,0,2.1,0.1c4.2,0,8.4,0.1,12.7,0.3c2,0.1,4,0.2,6,0.3c0.1,0,0.4,0,0.5,0
	c5.6-0.8,10.7-0.9,15.3-0.3c0.3,0,0.6,0.1,0.9,0.1c0.9,0.1,1.8,0.3,2.8,0.5c4.1-0.3,8.4,0.2,13,1.8c0.6,0.2,1.1,0.3,1.6,0.5
	c2.1,0.7,4,1.1,5.8,1.2c2.3,0.2,4.5-0.2,6.9-1.1c0.2-0.1,0.4-0.3,0.6-0.4c5.6-4.1,11.7-5.7,18.4-5.7c2.3,0,4.7,0.2,7.2,0.6
	c0.2,0,0.9,0,1,0c0.4,0,0.8,0,1.2,0c0.2,0,0.3,0,0.5,0c4.1-0.4,8.9-1.4,14.1-1.4c2.8,0,5.5,0.3,8.2,1.2c5.4,1.4,10.3,4.8,15.5,6.6
	c0,0,0.1,0,0.1,0c0,0,0.1,0,0.1,0c0.9,0.2,1.8,0.3,2.6,0.4c0,0,0.1,0,0.1,0C492.2,338.8,504.2,330.2,518,330.2"/>
<path id="line-9" class="st0" d="M521.6,321.4L521.6,321.4c7.4,0,16.3,2,25.6,8.6c2.8,2.4,4.5,4,7,5.6c1.4-0.2,3-0.4,4.9-0.5
	c3.1-0.1,6.1,0.1,9,0.4c5.1,0.7,9.6,1.8,14.3,2.7c4.8,1.1,9.6,2.2,14.8,3c3.3,0.7,6.4,2.1,9.3,4.1c6.6,2.8,11.9,10.1,12.3,18.2
	c0.2,11.6-6.1,20.9-13,31.1c-0.4,0.3-1,1.9-1.4,2.2c-0.4,0.3-1.1,1.9-1.5,2.2c-3.8,5.7-7.5,11.6-9.9,18.5c-0.3,9.7-8.5,13-6.9,21.1
	c-1.8,5.8-5.7,10.8-9.1,15.3c-0.7,0.9-1.5,1.8-2.3,2.8c0,0.2-0.1,0.4-0.1,0.5c0.7,5.5,1,11.2,1.9,17.1c0.5,4.9,0.6,9.7,0.8,14
	c2.1,7.6,4.7,18.3,6,29.6c1,8.7,1.1,17,0.2,24.3c-1.6,12.3-6.3,22.3-15.3,27.6c-2,1.5-4.1,2.7-6.4,3.7c-2.2,0.7-4.1,1.5-5.9,2.4
	c-2.3,1.1-4.6,2.5-7.7,4.2c-5.9,2.8-11.8,4.4-17.7,4.8c-2.1,0.1-4.1,0.1-6.1,0c-1.8-0.1-3.5-0.4-5.3-0.7c-6.3,0.5-12.4-0.3-18.3-2.2
	c-6.7-1.9-13.2-5.2-19.4-9.3c-5-3.3-9.9-7.2-14.7-11.4c-4.4-2.9-8.1-5.2-11.3-7.3c-2-1.2-3.9-2.4-5.6-3.5
	c-6.2-0.5-11.9-2.3-18.2-8.5c-0.4-0.3-0.8-0.6-1.3-1c-2.2-1.6-4.4-2.9-6.6-4c-1-0.1-2-0.2-3-0.2c-4.1-0.2-8.1-0.3-12.1-1
	c-0.9,0-5.2-1.2-6.1-1.5c-0.6-0.5-3.9-2.6-4.6-3c-1.7-0.8-4.3-1.6-6.5-2.3c-10.8-3.5-25.1-6.4-37.1-16.1c0,0-0.1-0.1-0.2-0.1
	c0,0-0.1-0.1-0.2-0.1c-4.8-4-9.2-8.2-13.3-12c-2.8-2.7-5.6-5.3-8.2-7.7c-5.2-4.1-10-8.7-14.2-13.7c-0.5-0.6-0.9-1.1-1.4-1.7
	c-4.4-4.7-7.3-10.4-8.8-16.5c-1.6-6.5-1.7-13-1.3-19c-0.8-1.5-1.5-3.2-2.3-5c-2.2-5.8-3.8-12-6.7-18c-2.2-4.6-4.6-8.9-6.5-13.4
	c-0.9-2.1-1.7-4.2-2.3-6.2c-1-3.6-1.4-7-1.4-10.2c0-1,0-2.3,0-3.1c-0.1-6.2,1-12.3,1.9-17.8c1.4-7.4,5.2-14.1,7.8-18.9c0,0,0,0,0,0
	c0,0,0,0,0,0c2.2-3.9,5-8.5,9.2-11.5c0.2-0.2,1.1-0.6,1.3-0.8c2.8-1.8,5.6-3.3,8.5-4.5c5.8-2.3,11.8-3.5,18.1-3.9
	c0.4,0.1,2.2-0.2,2.6-0.2c0.3,0.1,1.9,0,2.2,0c4.5-0.1,9,0,13.6,0.2c2.2,0.1,4.3,0.2,6.4,0.3c0.1,0,0.4,0,0.6,0
	c6-0.7,11.4-0.7,16.3-0.1c0.3,0,0.7,0.1,1,0.1c0.9,0.1,2,0.3,3,0.5c4.4-0.4,9,0,13.9,1.6c0.6,0.2,1.2,0.3,1.8,0.4
	c2.3,0.7,4.3,1.1,6.2,1.2c2.5,0.2,4.9-0.1,7.4-0.9c0.2-0.1,0.4-0.3,0.6-0.4c6-4.2,12.6-5.9,19.8-5.9c2.4,0,5,0.2,7.6,0.6
	c0.2,0,0.9,0,1.1,0.1c0.4,0,0.8,0,1.2,0.1c0.2,0,0.3,0,0.5,0c4.3-0.4,9.4-1.4,14.9-1.4c2.9,0,5.8,0.3,8.7,1.2
	c5.7,1.5,10.9,4.9,16.4,6.7c0,0,0.1,0,0.1,0c0,0,0.1,0,0.1,0c0.9,0.2,1.9,0.4,2.8,0.5c0.1,0,0.1,0,0.2,0
	C494.2,330.2,507,321.4,521.6,321.4"/>
<path id="line-10" class="st0" d="M525.1,312.6L525.1,312.6c7.9,0,17.6,2.1,27.6,9.1c3,2.5,4.9,4.2,7.6,6
	c1.5-0.2,3.2-0.5,5.2-0.6c3.4-0.1,6.6,0,9.7,0.3c5.4,0.7,10.3,1.8,15.3,2.9c5.2,1.2,10.4,2.6,15.8,3.7c3.5,0.9,6.8,2.5,9.9,4.8
	c6.8,3.2,12.2,10.7,12.8,19.2c0.5,12.2-5.6,22.1-12.4,32.9c-0.4,0.3-1,2-1.4,2.3c-0.4,0.3-1.2,2-1.5,2.3c-3.9,6-7.6,12.3-10.2,19.4
	c-0.6,9.9-8.9,13.6-7.8,21.9c-2.3,6.1-6.6,11.4-10.4,16.1c-0.8,0.9-1.7,1.9-2.5,2.9c0,0.2-0.1,0.4-0.1,0.6
	c0.9,5.8,1.3,11.9,2.1,18.3c0.5,5.3,0.5,10.5,0.6,15c2.2,8,5,19.5,6.4,31.6c1.1,9.3,1.2,18.1,0.2,25.9c-1.7,13.1-6.6,23.8-15.9,29.8
	c-2.1,1.7-4.4,3.1-6.8,4.2c-2.3,0.8-4.3,1.8-6.3,2.8c-2.5,1.3-5,2.8-8.2,4.5c-6.3,3-12.6,4.7-18.9,5.2c-2.2,0.2-4.4,0.2-6.6,0
	c-1.9-0.1-3.8-0.4-5.7-0.7c-6.8,0.7-13.3,0-19.7-1.8c-7.3-1.9-14.3-5.2-21.1-9.5c-5.4-3.5-10.7-7.6-15.9-12.1
	c-4.6-3.1-8.5-5.7-11.9-8.1c-2.1-1.4-4.1-2.7-5.9-4c-6.7-0.6-12.8-2.5-19.4-8.9c-0.4-0.3-0.9-0.7-1.3-1c-2.3-1.7-4.6-3-6.9-4.2
	c-1.1-0.1-2.1-0.2-3.2-0.2c-4.3-0.3-8.6-0.4-12.8-1.2c-0.8,0-5.6-1.4-6.5-1.6c-0.6-0.4-4.2-2.9-4.8-3.2c-1.8-0.8-4.6-1.7-6.9-2.5
	c-11.3-3.7-26.5-6.8-39.3-17.1c0,0-0.2-0.1-0.2-0.1c0,0-0.2-0.1-0.2-0.1c-5.1-4.3-9.9-8.7-14.2-12.9c-3-2.9-6-5.7-8.8-8.2
	c-5.6-4.3-10.7-9.3-15.2-14.7c-0.5-0.6-1-1.2-1.5-1.8c-4.7-5.1-7.6-11.2-9.3-17.8c-1.7-7-1.9-14-1.4-20.3c-0.9-1.6-1.7-3.4-2.6-5.3
	c-2.5-6.1-4.4-12.6-7.4-19c-2.3-4.9-4.7-9.5-6.6-14.3c-0.9-2.3-1.7-4.5-2.3-6.7c-1-3.8-1.3-7.5-1.4-10.8c0-1.1,0-2.5,0-3.2
	c-0.1-6.6,1.1-13,2.1-18.8c1.6-7.9,5.6-15,8.4-20c0,0,0,0,0,0s0,0,0,0c2.3-4.1,5.2-9,9.7-12.3c0.2-0.3,1.1-0.6,1.4-0.9
	c2.9-2,5.9-3.6,9-5c6.1-2.6,12.5-4,19.2-4.5c0.3,0.1,2.4-0.3,2.8-0.2c0.3,0.1,2.1,0,2.3,0c4.7-0.2,9.6-0.1,14.5,0.1
	c2.3,0.1,4.6,0.2,6.8,0.3c0.1,0,0.5,0,0.6,0c6.4-0.6,12.2-0.5,17.4,0.1c0.3,0,0.7,0.1,1,0.2c1,0.1,2.1,0.3,3.2,0.5
	c4.6-0.5,9.6-0.2,14.9,1.4c0.6,0.2,1.3,0.3,1.9,0.4c2.4,0.7,4.6,1.1,6.7,1.2c2.7,0.2,5.2-0.1,7.9-0.8c0.2-0.1,0.4-0.3,0.7-0.4
	c6.5-4.3,13.5-6.1,21.1-6.1c2.6,0,5.2,0.2,8,0.6c0.2,0,0.9,0,1.1,0.1c0.4,0,0.9,0,1.3,0.1c0.2,0,0.4,0,0.5-0.1
	c4.5-0.5,9.8-1.5,15.7-1.5c3.1,0,6.1,0.3,9.1,1.2c6,1.5,11.5,4.9,17.3,6.9c0,0,0.1,0,0.2,0c0,0,0.1,0,0.1,0c1,0.2,1.9,0.4,2.9,0.6
	c0.1,0,0.1,0,0.2,0C496.2,321.6,509.7,312.6,525.1,312.6"/>
<path id="line-11" class="st0" d="M528.7,303.8L528.7,303.8c8.5,0,18.8,2.2,29.5,9.6c3.2,2.5,5.3,4.4,8.2,6.4
	c1.7-0.3,3.5-0.5,5.6-0.7c3.6-0.2,7-0.1,10.4,0.2c5.8,0.7,11,1.9,16.4,3c5.6,1.3,11.1,2.9,16.9,4.3c3.7,1.1,7.3,3,10.5,5.4
	c7,3.6,12.5,11.4,13.3,20.2c0.8,12.7-5.1,23.3-11.9,34.7c-0.4,0.3-1.1,2.2-1.4,2.5c-0.4,0.3-1.2,2.1-1.6,2.5
	c-3.9,6.3-7.8,12.9-10.6,20.3c-0.9,10.1-9.4,14.2-8.7,22.7c-2.7,6.5-7.6,11.9-11.7,16.9c-0.8,1-1.8,2-2.8,3.1c0,0.2-0.1,0.4-0.1,0.6
	c1.1,6.2,1.5,12.7,2.3,19.4c0.5,5.7,0.5,11.2,0.5,15.9c2.4,8.4,5.3,20.6,6.8,33.6c1.1,9.9,1.3,19.3,0.2,27.6
	c-1.8,13.9-6.9,25.3-16.6,32c-2.2,1.8-4.6,3.4-7.2,4.8c-2.4,1-4.6,2-6.7,3.2c-2.7,1.4-5.3,3-8.7,4.9c-6.6,3.2-13.4,5-20.1,5.6
	c-2.3,0.2-4.7,0.2-7,0.1c-2-0.1-4-0.4-6-0.7c-7.3,0.9-14.3,0.3-21.1-1.4c-7.9-1.8-15.4-5.2-22.7-9.7c-5.9-3.6-11.5-8-17.1-12.7
	c-4.9-3.3-9-6.2-12.6-8.8c-2.3-1.6-4.3-3-6.2-4.4c-7.1-0.6-13.7-2.7-20.7-9.2c-0.5-0.4-1-0.7-1.4-1c-2.4-1.8-4.9-3.2-7.3-4.5
	c-1.1-0.1-2.2-0.2-3.4-0.2c-4.6-0.3-9.1-0.5-13.6-1.4c-0.8,0-6-1.5-6.8-1.8c-0.6-0.4-4.4-3.1-5.1-3.4c-1.8-0.8-4.8-1.8-7.3-2.6
	c-11.9-3.8-27.9-7.2-41.5-18.2c0,0-0.2-0.1-0.2-0.2c0,0-0.2-0.1-0.2-0.2c-5.5-4.6-10.5-9.3-15.1-13.7c-3.2-3.1-6.4-6.1-9.4-8.7
	c-6-4.6-11.4-9.8-16.1-15.6c-0.5-0.6-1-1.3-1.5-1.9c-4.9-5.5-8-12-9.8-19.1c-1.8-7.5-2-15-1.5-21.7c-1-1.7-2-3.6-2.9-5.6
	c-2.8-6.3-4.9-13.2-8-20c-2.4-5.1-4.8-10.1-6.8-15.2c-0.9-2.4-1.7-4.8-2.3-7.1c-1-4.1-1.3-8-1.3-11.5c0-1.2,0.1-2.6,0-3.4
	c-0.1-7,1.1-13.8,2.3-19.9c1.8-8.4,5.9-15.9,8.9-21.2c0,0,0,0,0,0s0,0,0,0c2.4-4.3,5.5-9.4,10.2-13c0.3-0.3,1.2-0.7,1.4-1
	c3-2.2,6.2-4,9.5-5.5c6.4-2.9,13.2-4.5,20.3-5.2c0.3,0.1,2.6-0.3,2.9-0.3c0.3,0.1,2.2-0.1,2.5,0c5-0.2,10.2-0.2,15.4,0
	c2.5,0.1,4.8,0.2,7.2,0.3c0.1,0,0.5,0,0.6,0c6.9-0.6,13-0.4,18.5,0.4c0.4,0.1,0.7,0.1,1.1,0.2c1,0.2,2.2,0.4,3.4,0.6
	c4.9-0.6,10.2-0.4,15.9,1.1c0.7,0.1,1.3,0.3,2,0.4c2.6,0.7,4.9,1.1,7.1,1.2c2.9,0.2,5.6,0,8.5-0.6c0.2-0.1,0.5-0.3,0.7-0.4
	c6.9-4.4,14.4-6.3,22.5-6.3c2.7,0,5.5,0.2,8.4,0.6c0.2,0,1,0,1.2,0.1c0.4,0,0.9,0.1,1.3,0.1c0.2,0,0.4,0,0.6-0.1
	c4.7-0.5,10.3-1.6,16.5-1.6c3.2,0,6.4,0.3,9.6,1.2c6.4,1.5,12.1,5,18.2,7.1c0,0,0.1,0,0.2,0c0,0,0.1,0,0.1,0c1,0.2,2,0.5,3,0.6
	c0.1,0,0.1,0,0.2,0C498.3,313,512.4,303.8,528.7,303.8"/>
<path id="line-12" class="st0" d="M532.3,295L532.3,295c9,0,20,2.3,31.5,10c3.3,2.6,5.7,4.7,8.7,6.7c1.8-0.3,3.7-0.6,5.9-0.8
	c3.8-0.2,7.5-0.2,11,0.1c6.1,0.6,11.8,1.9,17.4,3.2c6,1.5,11.9,3.2,18,5c3.9,1.3,7.7,3.4,11.1,6.1c7.2,3.9,12.9,12.1,13.8,21.1
	c1.1,13.2-4.5,24.5-11.3,36.6c-0.4,0.3-1.1,2.3-1.4,2.6c-0.4,0.3-1.2,2.3-1.6,2.6c-4,6.7-7.9,13.5-11,21.2
	c-1.2,10.4-9.8,14.8-9.6,23.5c-3.2,6.8-8.5,12.5-13,17.6c-0.9,1-2,2.1-3,3.2c0,0.2-0.1,0.4-0.1,0.7c1.2,6.6,1.8,13.4,2.5,20.5
	c0.5,6.1,0.4,12,0.3,16.9c2.5,8.9,5.7,21.8,7.2,35.6c1.2,10.5,1.4,20.4,0.3,29.2c-1.8,14.8-7.2,26.9-17.2,34.2
	c-2.3,2-4.8,3.8-7.5,5.3c-2.5,1.1-4.8,2.3-7,3.6c-2.9,1.6-5.7,3.3-9.3,5.2c-7,3.4-14.1,5.3-21.4,5.9c-2.5,0.2-5,0.2-7.4,0.1
	c-2.2-0.1-4.3-0.4-6.4-0.7c-7.7,1.1-15.2,0.6-22.5-1.1c-8.4-1.8-16.5-5.2-24.3-9.9c-6.3-3.8-12.3-8.3-18.2-13.4
	c-5.2-3.6-9.5-6.7-13.3-9.6c-2.4-1.7-4.5-3.3-6.5-4.9c-7.5-0.7-14.5-2.9-21.9-9.5c-0.5-0.4-1-0.7-1.5-1.1c-2.6-1.8-5.1-3.4-7.7-4.8
	c-1.2-0.1-2.4-0.2-3.6-0.3c-4.8-0.3-9.6-0.6-14.3-1.6c-0.8,0-6.4-1.7-7.2-1.9c-0.6-0.4-4.7-3.3-5.4-3.6c-1.9-0.8-5.1-1.9-7.8-2.7
	c-12.4-3.9-29.3-7.6-43.7-19.3c0,0-0.2-0.1-0.2-0.2s-0.2-0.1-0.2-0.2c-5.8-4.9-11.2-9.9-16.1-14.6c-3.4-3.3-6.8-6.4-9.9-9.3
	c-6.4-4.8-12.1-10.4-17.1-16.6c-0.6-0.7-1.1-1.4-1.6-2.1c-5.1-5.9-8.4-12.8-10.2-20.3c-1.9-8-2.1-15.9-1.6-23
	c-1.1-1.8-2.2-3.8-3.3-5.9c-3.1-6.6-5.4-13.8-8.7-21c-2.5-5.4-5-10.7-6.9-16.2c-0.9-2.6-1.7-5.1-2.3-7.6c-1-4.3-1.2-8.5-1.2-12.1
	c0-1.2,0.1-2.8,0.1-3.6c-0.1-7.4,1.2-14.5,2.5-21c1.9-8.9,6.3-16.8,9.4-22.3c0,0,0,0,0,0c0,0,0,0,0,0c2.5-4.6,5.8-9.9,10.7-13.8
	c0.3-0.3,1.2-0.7,1.5-1.1c3.2-2.4,6.5-4.3,9.9-6c6.7-3.2,13.9-5.1,21.4-5.8c0.3,0.1,2.8-0.4,3.1-0.3c0.3,0.1,2.4-0.1,2.6,0
	c5.3-0.3,10.7-0.3,16.2-0.1c2.6,0.1,5.1,0.2,7.6,0.3c0.2,0,0.5,0,0.7,0c7.3-0.5,13.8-0.2,19.5,0.6c0.4,0.1,0.8,0.1,1.2,0.2
	c1.1,0.2,2.3,0.4,3.5,0.6c5.2-0.7,10.8-0.6,16.8,0.9c0.7,0.1,1.4,0.3,2.1,0.4c2.7,0.6,5.1,1,7.5,1.2c3.1,0.3,6,0.1,9-0.5
	c0.2-0.1,0.5-0.3,0.7-0.4c7.3-4.6,15.3-6.5,23.9-6.5c2.8,0,5.7,0.2,8.8,0.6c0.2,0,1,0,1.2,0.1c0.5,0,0.9,0.1,1.4,0.1
	c0.2,0,0.4,0,0.6-0.1c4.9-0.5,10.7-1.6,17.3-1.6c3.4,0,6.7,0.3,10,1.2c6.7,1.5,12.8,5,19.1,7.3c0,0,0.1,0,0.2,0c0,0,0.1,0,0.1,0
	c1.1,0.3,2.1,0.5,3.2,0.7c0.1,0,0.1,0,0.2,0C500.3,304.4,515.1,295,532.3,295"/>
<path id="line-13" class="st0" d="M535.9,286.2L535.9,286.2c9.5,0,21.2,2.4,33.4,10.5c3.5,2.7,6.1,4.9,9.3,7.1
	c1.9-0.4,4-0.7,6.3-0.9c4-0.3,7.9-0.3,11.7,0c6.5,0.6,12.5,1.9,18.5,3.3c6.4,1.6,12.6,3.6,19,5.6c4.2,1.6,8.1,3.8,11.7,6.8
	c7.4,4.3,13.2,12.7,14.4,22.1c1.4,13.8-4,25.7-10.8,38.4c-0.4,0.3-1.1,2.4-1.4,2.7c-0.4,0.3-1.2,2.4-1.6,2.7
	c-4,7-8.1,14.2-11.3,22.1c-1.5,10.6-10.3,15.4-10.6,24.3c-3.7,7.1-9.4,13.1-14.3,18.4c-1,1-2.1,2.2-3.2,3.3c0,0.2-0.1,0.5-0.1,0.7
	c1.4,6.9,2,14.2,2.8,21.7c0.5,6.6,0.3,12.7,0.2,17.9c2.6,9.3,6,23,7.7,37.6c1.3,11.1,1.5,21.5,0.3,30.8
	c-1.9,15.6-7.5,28.4-17.9,36.4c-2.4,2.2-5,4.2-7.9,5.8c-2.7,1.3-5,2.6-7.4,3.9c-3,1.7-6.1,3.6-9.8,5.6c-7.4,3.6-14.9,5.7-22.6,6.3
	c-2.6,0.2-5.2,0.3-7.9,0.1c-2.3-0.1-4.6-0.4-6.8-0.7c-8.2,1.3-16.2,0.9-24-0.7c-9-1.7-17.6-5.2-26-10.1c-6.7-3.9-13.1-8.7-19.4-14
	c-5.4-3.8-10-7.2-14-10.4c-2.5-1.9-4.7-3.6-6.9-5.4c-8-0.8-15.4-3.1-23.1-9.9c-0.5-0.4-1.1-0.8-1.6-1.1c-2.7-1.9-5.4-3.5-8.1-5.1
	c-1.2-0.1-2.5-0.2-3.7-0.3c-5.1-0.3-10.1-0.7-15-1.8c-0.8,0-6.8-1.8-7.6-2c-0.6-0.4-5-3.5-5.6-3.8c-2-0.9-5.4-1.9-8.2-2.8
	c-12.9-4.1-30.7-8-45.9-20.3c0,0-0.2-0.2-0.2-0.2c0,0-0.2-0.2-0.2-0.2c-6.2-5.2-11.8-10.5-17-15.4c-3.6-3.5-7.2-6.8-10.5-9.8
	c-6.8-5.1-12.9-11-18.1-17.6c-0.6-0.7-1.1-1.5-1.7-2.2c-5.3-6.3-8.8-13.6-10.7-21.6c-2-8.5-2.2-16.9-1.7-24.3
	c-1.2-1.9-2.4-3.9-3.6-6.2c-3.4-6.9-6-14.4-9.3-22c-2.5-5.7-5.1-11.3-7-17.1c-0.9-2.7-1.6-5.4-2.2-8c-0.9-4.6-1.1-8.9-1.1-12.8
	c0-1.3,0.1-3,0.1-3.8c-0.1-7.8,1.3-15.3,2.7-22c2.1-9.4,6.7-17.7,9.9-23.4c0,0,0,0,0,0s0,0,0,0c2.7-4.8,6-10.3,11.2-14.6
	c0.3-0.4,1.2-0.8,1.6-1.2c3.3-2.5,6.8-4.7,10.4-6.5c7.1-3.5,14.6-5.6,22.5-6.5c0.3,0.1,3-0.4,3.3-0.4c0.3,0.1,2.5-0.1,2.8-0.1
	c5.6-0.4,11.3-0.4,17.1-0.3c2.7,0.1,5.4,0.2,8,0.3c0.2,0,0.5,0,0.7,0c7.7-0.4,14.5,0,20.6,0.9c0.4,0.1,0.8,0.1,1.2,0.2
	c1.2,0.2,2.5,0.4,3.7,0.7c5.5-0.8,11.4-0.8,17.8,0.6c0.8,0.1,1.5,0.3,2.3,0.4c2.8,0.6,5.4,1,7.9,1.2c3.2,0.3,6.3,0.2,9.6-0.3
	c0.3-0.2,0.5-0.3,0.8-0.5c7.8-4.7,16.2-6.6,25.2-6.6c2.9,0,6,0.2,9.2,0.6c0.3,0,1,0.1,1.3,0.1c0.5,0,1,0.1,1.5,0.1
	c0.2,0,0.4,0,0.6-0.1c5.1-0.5,11.2-1.7,18.1-1.7c3.5,0,7.1,0.3,10.5,1.2c7,1.5,13.4,5.1,20,7.4c0,0,0.1,0,0.2,0c0.1,0,0.1,0,0.2,0
	c1.1,0.3,2.2,0.5,3.3,0.8c0.1,0,0.1,0,0.2,0C502.4,295.8,517.8,286.2,535.9,286.2"/>
<path id="line-14" class="st0" d="M539.4,277.4L539.4,277.4c10,0,22.5,2.5,35.4,11c3.7,2.8,6.4,5.1,9.9,7.4c2-0.4,4.2-0.8,6.6-1
	c4.2-0.3,8.3-0.3,12.4-0.1c6.9,0.6,13.2,2,19.5,3.5c6.8,1.7,13.4,3.9,20.1,6.3c4.4,1.8,8.5,4.3,12.3,7.5
	c7.6,4.6,13.6,13.4,14.9,23.1c1.7,14.3-3.4,26.9-10.2,40.3c-0.4,0.3-1.1,2.6-1.4,2.9c-0.3,0.3-1.3,2.6-1.6,2.8
	c-4,7.3-8.2,14.8-11.7,23c-1.7,10.8-10.7,16-11.5,25.1c-4.2,7.5-10.3,13.7-15.5,19.1c-1,1.1-2.3,2.3-3.5,3.5c0,0.2-0.1,0.5-0.1,0.7
	c1.5,7.3,2.2,14.9,3,22.8c0.5,7,0.2,13.4,0,18.8c2.8,9.7,6.3,24.1,8.1,39.5c1.3,11.7,1.5,22.7,0.4,32.4c-2,16.4-7.8,30-18.5,38.6
	c-2.5,2.4-5.3,4.5-8.2,6.3c-2.8,1.4-5.3,2.8-7.8,4.3c-3.2,1.9-6.4,3.8-10.4,5.9c-7.8,3.8-15.7,6-23.8,6.7c-2.8,0.2-5.5,0.3-8.3,0.2
	c-2.4-0.1-4.8-0.4-7.2-0.7c-8.7,1.4-17.1,1.2-25.4-0.4c-9.5-1.7-18.8-5.2-27.6-10.2c-7.1-4.1-13.9-9-20.5-14.7
	c-5.7-4-10.4-7.7-14.6-11.1c-2.6-2-5-3.9-7.2-5.8c-8.4-0.8-16.3-3.3-24.4-10.2c-0.6-0.4-1.1-0.8-1.7-1.2c-2.8-2-5.6-3.7-8.4-5.4
	c-1.3-0.1-2.6-0.2-3.9-0.3c-5.3-0.4-10.6-0.8-15.8-2c-0.7,0-7.2-1.9-8-2.2c-0.6-0.4-5.3-3.7-5.9-4c-2.1-0.9-5.7-2-8.6-2.9
	c-13.5-4.2-32.1-8.4-48.1-21.4c0,0-0.2-0.2-0.2-0.2c0,0-0.2-0.2-0.2-0.2c-6.5-5.5-12.5-11.1-17.9-16.3c-3.8-3.7-7.6-7.2-11.1-10.4
	c-7.2-5.4-13.6-11.6-19.1-18.6c-0.6-0.8-1.2-1.6-1.8-2.3c-5.5-6.7-9.1-14.4-11.2-22.9c-2.1-9-2.3-17.8-1.8-25.7
	c-1.3-2-2.6-4.1-3.9-6.5c-3.7-7.2-6.5-15.1-10-22.9c-2.6-6-5.2-11.9-7.2-18.1c-0.9-2.9-1.6-5.7-2.2-8.5c-0.9-4.9-1.1-9.4-1.1-13.4
	c0-1.4,0.1-3.1,0.1-4c-0.1-8.2,1.4-16.1,2.8-23.1c2.3-9.9,7.1-18.6,10.5-24.6c0,0,0,0,0,0s0,0,0,0c2.8-5,6.3-10.8,11.6-15.3
	c0.3-0.4,1.3-0.9,1.6-1.2c3.5-2.7,7.1-5,10.8-7c7.4-3.8,15.3-6.1,23.6-7.1c0.3,0.1,3.1-0.5,3.4-0.4c0.3,0.1,2.7-0.1,2.9-0.1
	c5.9-0.5,11.9-0.5,18-0.4c2.9,0.1,5.7,0.2,8.4,0.4c0.2,0,0.6,0,0.7,0c8.1-0.4,15.3,0.1,21.7,1.1c0.4,0.1,0.9,0.1,1.3,0.2
	c1.2,0.2,2.6,0.5,3.9,0.7c5.8-0.9,12-1,18.8,0.4c0.8,0.1,1.6,0.3,2.4,0.4c3,0.6,5.7,1,8.4,1.2c3.4,0.3,6.7,0.2,10.1-0.2
	c0.3-0.2,0.6-0.3,0.8-0.5c8.2-4.8,17.1-6.8,26.6-6.8c3.1,0,6.3,0.2,9.6,0.7c0.3,0,1,0.1,1.3,0.1c0.5,0,1,0.1,1.5,0.1
	c0.2,0,0.4,0,0.6-0.1c5.2-0.6,11.7-1.8,18.9-1.8c3.7,0,7.4,0.3,10.9,1.3c7.3,1.6,14,5.1,21,7.6c0,0,0.1,0,0.2,0c0.1,0,0.1,0,0.2,0
	c1.2,0.3,2.3,0.6,3.4,0.9c0.1,0,0.1,0,0.2,0C504.4,287.2,520.6,277.4,539.4,277.4"/>
<path id="line-15" class="st0" d="M543,268.6L543,268.6c10.5,0,23.7,2.6,37.3,11.4c3.9,2.9,6.8,5.3,10.4,7.8
	c2.1-0.4,4.4-0.8,7-1.1c4.5-0.4,8.8-0.4,13-0.2c7.2,0.6,13.9,2,20.6,3.6c7.2,1.9,14.1,4.3,21.1,6.9c4.6,2,8.9,4.7,12.9,8.1
	c7.8,5,13.9,14,15.4,24c2,14.8-2.9,28.1-9.7,42.1c-0.3,0.3-1.1,2.7-1.4,3c-0.3,0.3-1.3,2.7-1.6,3c-4.1,7.7-8.4,15.5-12,23.9
	c-2,11.1-11.2,16.6-12.4,25.9c-4.6,7.8-11.3,14.3-16.8,19.9c-1.1,1.1-2.4,2.4-3.7,3.6c0,0.3-0.1,0.5-0.1,0.8
	c1.7,7.7,2.5,15.6,3.2,24c0.5,7.4,0.2,14.2-0.1,19.8c2.9,10.2,6.6,25.3,8.5,41.5c1.4,12.3,1.6,23.8,0.4,34.1
	c-2,17.2-8.1,31.5-19.2,40.8c-2.6,2.6-5.5,4.9-8.6,6.8c-2.9,1.5-5.5,3.1-8.1,4.7c-3.4,2-6.8,4.1-10.9,6.3c-8.2,4-16.5,6.3-25.1,7
	c-2.9,0.2-5.8,0.3-8.7,0.2c-2.5-0.1-5.1-0.4-7.6-0.7c-9.1,1.6-18,1.5-26.8,0c-10.1-1.6-19.9-5.3-29.2-10.4
	c-7.5-4.2-14.7-9.4-21.7-15.3c-5.9-4.3-10.9-8.2-15.3-11.9c-2.7-2.2-5.2-4.3-7.5-6.3c-8.9-0.9-17.1-3.5-25.6-10.6
	c-0.6-0.4-1.2-0.8-1.8-1.2c-3-2-5.9-3.9-8.8-5.6c-1.4-0.1-2.7-0.2-4.1-0.3c-5.6-0.4-11.1-0.9-16.5-2.2c-0.7,0-7.6-2.1-8.3-2.3
	c-0.5-0.4-5.6-3.9-6.2-4.2c-2.1-0.9-5.9-2.1-9-3c-14-4.3-33.5-8.8-50.3-22.5c0,0-0.2-0.2-0.2-0.2c0,0-0.2-0.2-0.2-0.2
	c-6.9-5.7-13.2-11.7-18.9-17.1c-4.1-3.9-8-7.6-11.7-10.9c-7.6-5.6-14.3-12.2-20-19.6c-0.6-0.8-1.3-1.6-1.9-2.5
	c-5.7-7.1-9.5-15.3-11.6-24.2c-2.2-9.5-2.4-18.8-1.8-27c-1.4-2.1-2.8-4.3-4.2-6.8c-4-7.5-7-15.7-10.7-23.9c-2.7-6.3-5.4-12.5-7.3-19
	c-0.9-3.1-1.6-6-2.2-8.9c-0.9-5.1-1-9.9-1-14.1c0-1.4,0.1-3.3,0.1-4.2c-0.1-8.6,1.4-16.8,3-24.2c2.5-10.4,7.5-19.5,11-25.7
	c0,0,0,0,0,0s0,0,0,0c2.9-5.2,6.6-11.3,12.1-16.1c0.4-0.4,1.3-0.9,1.7-1.3c3.6-2.9,7.4-5.4,11.3-7.5c7.7-4.1,16-6.6,24.7-7.8
	c0.3,0.1,3.3-0.5,3.6-0.5c0.2,0.1,2.8-0.2,3.1-0.1c6.2-0.5,12.5-0.6,18.9-0.5c3,0.1,6,0.2,8.8,0.4c0.2,0,0.6,0,0.8,0
	c8.5-0.3,16.1,0.3,22.8,1.3c0.5,0.1,0.9,0.2,1.4,0.2c1.3,0.2,2.7,0.5,4.1,0.8c6-1,12.7-1.1,19.8,0.2c0.8,0.1,1.7,0.2,2.5,0.4
	c3.1,0.6,6,1,8.8,1.2c3.6,0.3,7,0.3,10.6,0c0.3-0.2,0.6-0.3,0.9-0.5c8.6-4.9,17.9-7,28-7c3.2,0,6.5,0.2,9.9,0.7
	c0.3,0,1.1,0.1,1.4,0.1c0.5,0,1.1,0.1,1.6,0.1c0.2,0,0.5-0.1,0.7-0.1c5.4-0.6,12.1-1.8,19.7-1.8c3.8,0,7.7,0.4,11.4,1.3
	c7.6,1.6,14.7,5.2,21.9,7.8c0,0,0.1,0,0.2,0.1c0.1,0,0.1,0,0.2,0c1.2,0.3,2.4,0.6,3.6,1c0.1,0,0.1,0,0.2,0.1
	C506.5,278.6,523.3,268.6,543,268.6"/>
<path id="line-16" class="st0" d="M546.6,259.8L546.6,259.8c11,0,24.9,2.6,39.3,11.9c4,2.9,7.2,5.5,11,8.2c2.3-0.5,4.7-0.9,7.3-1.2
	c4.7-0.5,9.2-0.5,13.7-0.2c7.6,0.6,14.6,2,21.7,3.8c7.6,2,14.9,4.6,22.2,7.6c4.8,2.2,9.4,5.1,13.4,8.8c8,5.3,14.3,14.7,15.9,25
	c2.3,15.4-2.4,29.3-9.2,43.9c-0.3,0.2-1.1,2.9-1.4,3.1c-0.3,0.3-1.3,2.8-1.6,3.1c-4.1,8-8.6,16.1-12.4,24.8
	c-2.3,11.3-11.6,17.1-13.3,26.7c-5.1,8.2-12.2,14.9-18.1,20.7c-1.2,1.1-2.6,2.4-4,3.7c0,0.3-0.1,0.5-0.1,0.8
	c1.8,8,2.7,16.4,3.5,25.1c0.5,7.8,0.1,14.9-0.2,20.7c3,10.6,7,26.5,8.9,43.5c1.5,12.8,1.7,24.9,0.4,35.7c-2.1,18-8.4,33-19.8,43
	c-2.7,2.8-5.7,5.2-8.9,7.3c-3,1.7-5.7,3.4-8.5,5.1c-3.5,2.1-7.1,4.3-11.4,6.6c-8.5,4.2-17.3,6.6-26.3,7.4c-3,0.3-6.1,0.3-9.2,0.2
	c-2.7-0.1-5.3-0.4-7.9-0.7c-9.6,1.8-19,1.9-28.2,0.3c-10.7-1.6-21-5.3-30.9-10.6c-7.9-4.3-15.5-9.8-22.9-16
	c-6.2-4.5-11.4-8.7-16-12.6c-2.8-2.3-5.4-4.6-7.8-6.7c-9.3-0.9-18-3.7-26.8-10.9c-0.6-0.4-1.2-0.8-1.9-1.3c-3.1-2.1-6.2-4-9.2-5.9
	c-1.4-0.1-2.9-0.2-4.3-0.3c-5.8-0.4-11.6-1-17.2-2.3c-0.7,0-8-2.2-8.7-2.4c-0.5-0.4-5.9-4.1-6.5-4.4c-2.2-1-6.2-2.2-9.4-3.1
	c-14.6-4.5-34.9-9.2-52.5-23.5c0,0-0.2-0.2-0.2-0.2s-0.2-0.2-0.2-0.2c-7.2-6-13.8-12.3-19.8-18c-4.3-4.1-8.4-8-12.3-11.4
	c-8-5.9-15-12.8-21-20.6c-0.7-0.9-1.3-1.7-1.9-2.6c-5.9-7.5-9.9-16.1-12.1-25.4c-2.4-9.9-2.5-19.8-1.9-28.4c-1.5-2.1-3-4.5-4.6-7.1
	c-4.3-7.7-7.6-16.3-11.3-24.9c-2.8-6.6-5.5-13.1-7.4-20c-0.9-3.2-1.6-6.3-2.2-9.4c-0.9-5.4-1-10.4-0.9-14.7c0-1.5,0.1-3.4,0.1-4.4
	c-0.1-9,1.5-17.6,3.2-25.2c2.6-10.9,7.9-20.3,11.5-26.9c0,0,0,0,0,0s0,0,0,0c3-5.4,6.8-11.7,12.6-16.9c0.4-0.5,1.3-1,1.7-1.4
	c3.7-3.1,7.7-5.7,11.7-8c8-4.4,16.7-7.1,25.8-8.4c0.3,0.1,3.5-0.6,3.8-0.5c0.2,0.1,3-0.2,3.2-0.1c6.5-0.6,13.1-0.8,19.8-0.6
	c3.2,0.1,6.2,0.2,9.2,0.4c0.2,0,0.6,0,0.8,0c8.9-0.3,16.8,0.4,23.8,1.6c0.5,0.1,1,0.2,1.4,0.2c1.3,0.2,2.8,0.5,4.3,0.8
	c6.3-1.1,13.3-1.3,20.7-0.1c0.9,0.1,1.8,0.2,2.6,0.4c3.2,0.6,6.3,1,9.2,1.2c3.8,0.3,7.4,0.4,11.2,0.2c0.3-0.2,0.6-0.3,0.9-0.5
	c9.1-5,18.8-7.2,29.4-7.2c3.3,0,6.8,0.2,10.3,0.7c0.3,0,1.1,0.1,1.5,0.1c0.6,0,1.1,0.1,1.7,0.1c0.2,0,0.5-0.1,0.7-0.1
	c5.6-0.6,12.6-1.9,20.5-1.9c4,0,8,0.4,11.9,1.3c7.9,1.6,15.3,5.2,22.8,8c0,0,0.2,0,0.2,0.1c0.1,0,0.1,0,0.2,0c1.2,0.4,2.5,0.7,3.7,1
	c0.1,0,0.1,0,0.2,0.1C508.5,270,526,259.8,546.6,259.8"/>
<path id="line-17" class="st0" d="M550.2,251L550.2,251c11.6,0,26.1,2.7,41.2,12.4c4.2,3,7.6,5.7,11.6,8.5c2.4-0.5,4.9-1,7.7-1.3
	c4.9-0.5,9.7-0.6,14.4-0.3c7.9,0.6,15.4,2,22.7,3.9c7.9,2.1,15.6,5,23.2,8.2c5,2.4,9.8,5.6,14,9.5c8.2,5.7,14.6,15.3,16.5,26
	c2.6,15.9-1.8,30.5-8.6,45.8c-0.3,0.2-1.1,3-1.4,3.3s-1.3,3-1.7,3.2c-4.2,8.3-8.7,16.7-12.7,25.7c-2.6,11.5-12,17.7-14.2,27.4
	c-5.6,8.5-13.1,15.4-19.4,21.4c-1.3,1.2-2.8,2.5-4.2,3.9c0,0.3-0.1,0.6-0.1,0.8c2,8.4,3,17.1,3.7,26.3c0.5,8.2,0,15.6-0.4,21.7
	c3.2,11,7.3,27.6,9.4,45.5c1.6,13.4,1.8,26.1,0.5,37.3c-2.2,18.8-8.7,34.6-20.5,45.2c-2.8,2.9-5.9,5.6-9.3,7.9
	c-3.1,1.8-6,3.7-8.9,5.5c-3.7,2.3-7.5,4.6-12,7c-8.9,4.4-18.1,6.9-27.6,7.8c-3.2,0.3-6.4,0.4-9.6,0.3c-2.8-0.1-5.6-0.4-8.3-0.7
	c-10,2-19.9,2.2-29.6,0.7c-11.2-1.6-22.1-5.3-32.5-10.8c-8.3-4.5-16.4-10.1-24-16.7c-6.4-4.7-11.9-9.2-16.6-13.4
	c-2.9-2.5-5.6-4.9-8.1-7.2c-9.8-1-18.9-3.9-28.1-11.3c-0.7-0.4-1.3-0.9-2-1.3c-3.2-2.2-6.4-4.2-9.6-6.2c-1.5-0.1-3-0.2-4.5-0.3
	c-6.1-0.5-12.1-1.1-18-2.5c-0.7,0-8.4-2.4-9.1-2.6c-0.5-0.4-6.2-4.3-6.7-4.6c-2.3-1-6.5-2.3-9.8-3.3c-15.1-4.6-36.3-9.6-54.7-24.6
	c0,0-0.2-0.2-0.2-0.2s-0.2-0.2-0.2-0.2c-7.6-6.3-14.5-12.9-20.7-18.8c-4.5-4.3-8.8-8.4-12.8-12c-8.4-6.1-15.8-13.4-22-21.6
	c-0.7-0.9-1.4-1.8-2-2.7c-6.1-7.9-10.2-16.9-12.6-26.7c-2.5-10.4-2.7-20.7-2-29.7c-1.6-2.2-3.2-4.7-4.9-7.4c-4.6-8-8.1-16.9-12-25.9
	c-2.9-6.9-5.6-13.8-7.5-20.9c-0.9-3.4-1.6-6.6-2.1-9.8c-0.9-5.6-0.9-10.9-0.8-15.4c0.1-1.6,0.2-3.6,0.1-4.6
	c-0.1-9.4,1.6-18.3,3.4-26.3c2.8-11.4,8.3-21.2,12.1-28c0,0,0,0,0,0c0,0,0,0,0,0c3.1-5.6,7.1-12.2,13.1-17.6c0.4-0.5,1.4-1,1.8-1.5
	c3.9-3.3,7.9-6.1,12.2-8.5c8.4-4.7,17.4-7.6,27-9c0.3,0.1,3.7-0.7,3.9-0.6c0.2,0.1,3.1-0.2,3.3-0.2c6.8-0.7,13.7-0.9,20.7-0.7
	c3.3,0.1,6.5,0.2,9.7,0.4c0.2,0,0.6,0,0.8,0.1c9.3-0.2,17.6,0.6,24.9,1.8c0.5,0.1,1,0.2,1.5,0.3c1.4,0.2,2.9,0.5,4.5,0.9
	c6.6-1.2,13.9-1.5,21.7-0.3c0.9,0.1,1.8,0.2,2.8,0.3c3.4,0.6,6.5,1,9.6,1.2c4,0.4,7.8,0.5,11.7,0.3c0.3-0.2,0.7-0.3,1-0.5
	c9.5-5.2,19.7-7.4,30.7-7.4c3.5,0,7,0.2,10.7,0.7c0.4,0,1.1,0.1,1.5,0.1c0.6,0,1.1,0.1,1.7,0.1c0.2,0,0.5-0.1,0.7-0.1
	c5.8-0.7,13-2,21.3-2c4.2,0,8.3,0.4,12.3,1.3c8.3,1.6,15.9,5.3,23.7,8.1c0,0,0.2,0,0.2,0.1c0.1,0,0.1,0,0.2,0.1
	c1.3,0.4,2.6,0.7,3.8,1.1c0.1,0,0.1,0,0.2,0.1C510.6,261.4,528.7,251,550.2,251"/>
<path id="line-18" class="st0" d="M553.8,242.2L553.8,242.2c12.1,0,27.3,2.8,43.2,12.8c4.4,3.1,8,5.9,12.2,8.9
	c2.5-0.6,5.2-1.1,8.1-1.4c5.1-0.6,10.1-0.7,15.1-0.4c8.3,0.5,16.1,2.1,23.8,4.1c8.3,2.2,16.4,5.3,24.3,8.9c5.3,2.6,10.2,6,14.6,10.1
	c8.4,6.1,14.9,16,17,26.9c2.9,16.4-1.3,31.7-8.1,47.6c-0.3,0.2-1.1,3.2-1.4,3.4c-0.3,0.2-1.4,3.1-1.7,3.4
	c-4.2,8.7-8.9,17.4-13.1,26.6c-2.9,11.8-12.5,18.3-15.2,28.2c-6.1,8.8-14,16-20.7,22.2c-1.3,1.2-2.9,2.6-4.5,4
	c0,0.3-0.1,0.6-0.1,0.9c2.1,8.7,3.2,17.9,3.9,27.4c0.5,8.6-0.1,16.4-0.5,22.7c3.3,11.5,7.6,28.8,9.8,47.5c1.6,14,1.9,27.2,0.5,39
	c-2.3,19.6-9,36.1-21.1,47.4c-3,3.1-6.2,5.9-9.7,8.4c-3.2,2-6.2,3.9-9.2,5.9c-3.9,2.4-7.8,4.9-12.5,7.3c-9.3,4.6-18.9,7.2-28.8,8.2
	c-3.3,0.3-6.7,0.4-10,0.3c-2.9-0.1-5.8-0.4-8.7-0.8c-10.5,2.2-20.9,2.5-31,1.1c-11.8-1.5-23.2-5.3-34.1-11
	c-8.7-4.6-17.2-10.5-25.2-17.3c-6.7-5-12.4-9.7-17.3-14.2c-3-2.6-5.8-5.2-8.4-7.6c-10.2-1.1-19.7-4.1-29.3-11.6
	c-0.7-0.5-1.4-0.9-2-1.4c-3.4-2.3-6.7-4.4-10-6.5c-1.6-0.1-3.1-0.2-4.7-0.3c-6.4-0.5-12.6-1.2-18.7-2.7c-0.7,0-8.8-2.5-9.5-2.7
	c-0.5-0.4-6.5-4.5-7-4.8c-2.4-1-6.7-2.3-10.2-3.4c-15.6-4.8-37.7-10-56.9-25.7c0,0-0.2-0.2-0.3-0.2s-0.2-0.2-0.3-0.2
	c-7.9-6.6-15.1-13.5-21.7-19.7c-4.7-4.5-9.1-8.7-13.4-12.5c-8.8-6.4-16.5-14-23-22.5c-0.7-1-1.4-1.9-2.1-2.9
	c-6.3-8.3-10.6-17.7-13-28c-2.6-10.9-2.8-21.7-2.1-31.1c-1.7-2.3-3.5-4.9-5.2-7.7c-4.9-8.3-8.6-17.5-12.6-26.9
	c-3-7.2-5.8-14.4-7.7-21.9c-0.9-3.5-1.6-7-2.1-10.3c-0.8-5.9-0.9-11.4-0.8-16c0.1-1.6,0.2-3.8,0.2-4.7c-0.1-9.8,1.6-19.1,3.6-27.4
	c3-11.9,8.7-22.1,12.6-29.1c0,0,0,0,0,0s0,0,0,0c3.3-5.8,7.4-12.6,13.6-18.4c0.4-0.5,1.4-1.1,1.9-1.6c4-3.5,8.2-6.4,12.7-9
	c8.7-4.9,18.1-8.1,28.1-9.7c0.3,0.1,3.8-0.7,4.1-0.6c0.2,0,3.3-0.2,3.5-0.2c7-0.7,14.3-1,21.5-0.8c3.5,0.1,6.8,0.2,10.1,0.4
	c0.2,0,0.6,0,0.9,0.1c9.7-0.1,18.4,0.8,26,2.1c0.5,0.1,1,0.2,1.6,0.3c1.4,0.3,3.1,0.6,4.7,0.9c6.9-1.3,14.5-1.7,22.7-0.6
	c1,0.1,1.9,0.2,2.9,0.3c3.5,0.5,6.8,0.9,10.1,1.3c4.1,0.4,8.1,0.5,12.2,0.5c0.3-0.2,0.7-0.4,1-0.5c9.9-5.3,20.6-7.6,32.1-7.6
	c3.6,0,7.3,0.2,11.1,0.7c0.4,0,1.2,0.1,1.6,0.1c0.6,0,1.2,0.1,1.8,0.1c0.3,0,0.5-0.1,0.7-0.1c6-0.7,13.5-2,22.1-2
	c4.3,0,8.6,0.4,12.8,1.3c8.6,1.6,16.5,5.3,24.6,8.3c0,0,0.2,0,0.2,0.1c0.1,0,0.1,0,0.2,0.1c1.3,0.4,2.7,0.8,4,1.2
	c0.1,0,0.1,0,0.2,0.1C512.6,252.8,531.4,242.2,553.8,242.2"/>
<path id="line-19" class="st0" d="M557.3,233.4L557.3,233.4c12.6,0,28.6,2.9,45.1,13.3c4.6,3.2,8.4,6.1,12.7,9.2
	c2.6-0.6,5.4-1.1,8.4-1.5c5.3-0.6,10.6-0.8,15.7-0.5c8.6,0.5,16.8,2.1,24.8,4.2c8.7,2.4,17.1,5.7,25.3,9.5
	c5.5,2.8,10.6,6.4,15.2,10.8c8.6,6.4,15.3,16.7,17.5,27.9c3.2,17-0.8,32.9-7.5,49.4c-0.3,0.2-1.1,3.3-1.4,3.5s-1.4,3.3-1.7,3.5
	c-4.3,9-9,18-13.5,27.4c-3.1,12-12.9,18.9-16.1,29c-6.5,9.2-15,16.6-22,23c-1.4,1.3-3.1,2.7-4.7,4.1c0,0.3-0.1,0.6-0.1,0.9
	c2.3,9.1,3.4,18.6,4.1,28.6c0.5,9-0.1,17.1-0.7,23.6c3.4,11.9,7.9,30,10.2,49.5c1.7,14.6,2,28.4,0.6,40.6
	c-2.3,20.5-9.3,37.6-21.8,49.6c-3.1,3.3-6.4,6.3-10,8.9c-3.3,2.1-6.4,4.2-9.6,6.3c-4,2.6-8.2,5.1-13.1,7.7c-9.7,4.8-19.7,7.6-30,8.5
	c-3.5,0.3-7,0.4-10.5,0.3c-3-0.1-6.1-0.4-9.1-0.8c-11,2.4-21.8,2.8-32.4,1.4c-12.4-1.5-24.3-5.3-35.8-11.2c-9.1-4.8-18-10.9-26.3-18
	c-7-5.2-12.8-10.2-18-14.9c-3.1-2.8-6-5.5-8.7-8.1c-10.7-1.1-20.6-4.3-30.5-12c-0.7-0.5-1.4-0.9-2.1-1.4c-3.5-2.3-6.9-4.5-10.3-6.8
	c-1.6-0.1-3.2-0.2-4.8-0.3c-6.6-0.5-13.1-1.3-19.5-2.9c-0.6,0-9.2-2.6-9.9-2.8c-0.5-0.3-6.7-4.7-7.3-5c-2.5-1-7-2.4-10.6-3.5
	c-16.2-4.9-39.1-10.4-59.1-26.7c0,0-0.2-0.2-0.3-0.2c0,0-0.2-0.2-0.3-0.2c-8.3-6.9-15.8-14.1-22.6-20.5c-4.9-4.6-9.5-9.1-14-13.1
	c-9.2-6.7-17.2-14.6-23.9-23.5c-0.7-1-1.5-2-2.2-3c-6.6-8.7-11-18.5-13.5-29.3c-2.7-11.4-2.9-22.6-2.2-32.4c-1.8-2.4-3.7-5.1-5.6-8
	c-5.2-8.6-9.2-18.1-13.3-27.9c-3.1-7.5-5.9-15-7.8-22.8c-0.9-3.7-1.6-7.3-2.1-10.7c-0.8-6.2-0.8-11.8-0.7-16.7
	c0.1-1.7,0.2-3.9,0.2-4.9c-0.1-10.2,1.7-19.8,3.8-28.4c3.2-12.4,9.1-23,13.1-30.3c0,0,0,0,0,0s0,0,0,0c3.4-6,7.6-13.1,14.1-19.1
	c0.5-0.6,1.4-1.2,1.9-1.7c4.1-3.6,8.5-6.8,13.1-9.4c9-5.2,18.8-8.6,29.2-10.3c0.3,0.1,4-0.8,4.3-0.7c0.2,0,3.4-0.2,3.6-0.2
	c7.3-0.8,14.8-1.1,22.4-0.9c3.6,0.1,7.1,0.2,10.5,0.4c0.2,0,0.7,0,0.9,0.1c10.2-0.1,19.1,0.9,27,2.3c0.5,0.1,1.1,0.2,1.6,0.3
	c1.5,0.3,3.2,0.6,4.9,0.9c7.2-1.3,15.1-1.9,23.6-0.8c1,0.1,2,0.2,3,0.3c3.7,0.5,7.1,0.9,10.5,1.3c4.3,0.4,8.5,0.6,12.8,0.6
	c0.4-0.2,0.7-0.4,1.1-0.5c10.4-5.4,21.5-7.8,33.5-7.8c3.7,0,7.6,0.3,11.5,0.7c0.4,0,1.2,0.1,1.6,0.1c0.6,0,1.2,0.1,1.8,0.1
	c0.3,0,0.5-0.1,0.8-0.1c6.2-0.7,14-2.1,22.9-2.1c4.5,0,8.9,0.4,13.2,1.3c8.9,1.7,17.2,5.4,25.5,8.5c0.1,0,0.2,0,0.2,0.1
	c0.1,0,0.1,0,0.2,0.1c1.4,0.4,2.8,0.8,4.1,1.3c0.1,0,0.2,0,0.2,0.1C514.7,244.1,534.2,233.4,557.3,233.4"/>
<path id="line-20" class="st0" d="M560.9,224.6L560.9,224.6c13.1,0,29.8,3,47.1,13.8c4.8,3.3,8.7,6.3,13.3,9.6
	c2.7-0.6,5.6-1.2,8.8-1.6c5.5-0.7,11-0.9,16.4-0.6c9,0.5,17.5,2.1,25.9,4.4c9.1,2.5,17.9,6,26.4,10.1c5.7,3,11,6.8,15.8,11.5
	c8.8,6.8,15.6,17.3,18,28.9c3.5,17.5-0.2,34.1-7,51.3c-0.3,0.2-1.1,3.5-1.4,3.7c-0.3,0.2-1.4,3.4-1.7,3.6
	c-4.3,9.3-9.2,18.6-13.8,28.3c-3.4,12.2-13.4,19.5-17,29.8c-7,9.5-15.9,17.2-23.2,23.7c-1.5,1.3-3.2,2.8-4.9,4.3
	c0,0.3-0.1,0.6-0.1,1c2.4,9.5,3.7,19.4,4.4,29.7c0.5,9.4-0.2,17.8-0.8,24.6c3.6,12.3,8.3,31.1,10.7,51.5c1.8,15.2,2,29.5,0.6,42.2
	c-2.4,21.3-9.7,39.2-22.4,51.8c-3.2,3.5-6.6,6.6-10.4,9.4c-3.4,2.3-6.6,4.5-10,6.7c-4.2,2.7-8.6,5.4-13.6,8
	c-10,4.9-20.5,7.9-31.3,8.9c-3.6,0.3-7.2,0.4-10.9,0.3c-3.2-0.1-6.3-0.4-9.5-0.8c-11.4,2.6-22.7,3.1-33.9,1.8
	c-12.9-1.4-25.5-5.3-37.4-11.4c-9.5-4.9-18.8-11.2-27.5-18.6c-7.2-5.4-13.3-10.7-18.6-15.7c-3.3-3-6.2-5.8-9-8.5
	c-11.1-1.2-21.5-4.5-31.8-12.3c-0.7-0.5-1.5-1-2.2-1.4c-3.6-2.4-7.2-4.7-10.7-7.1c-1.7-0.1-3.4-0.2-5-0.4
	c-6.9-0.6-13.6-1.4-20.2-3.1c-0.6,0-9.6-2.8-10.2-3c-0.5-0.3-7-4.9-7.5-5.2c-2.5-1.1-7.3-2.5-11-3.6c-16.7-5-40.5-10.8-61.3-27.8
	c0,0-0.3-0.2-0.3-0.2c0,0-0.3-0.2-0.3-0.2c-8.6-7.2-16.5-14.7-23.5-21.4c-5.1-4.8-9.9-9.5-14.6-13.6c-9.6-6.9-17.9-15.2-24.9-24.5
	c-0.8-1-1.5-2.1-2.3-3.1c-6.8-9.1-11.3-19.4-13.9-30.5c-2.8-11.9-3-23.6-2.3-33.7c-1.9-2.5-3.9-5.2-5.9-8.3
	c-5.5-8.9-9.7-18.7-13.9-28.8c-3.2-7.7-6-15.6-7.9-23.8c-0.9-3.9-1.6-7.6-2.1-11.1c-0.8-6.4-0.8-12.3-0.6-17.3
	c0.1-1.8,0.2-4.1,0.2-5.1c-0.1-10.6,1.8-20.6,4-29.5c3.3-12.9,9.5-23.9,13.6-31.4c0,0,0,0,0,0s0,0,0,0c3.5-6.2,7.9-13.6,14.6-19.9
	c0.5-0.6,1.5-1.2,2-1.8c4.3-3.8,8.8-7.1,13.6-9.9c9.3-5.5,19.5-9.1,30.3-11c0.3,0.1,4.2-0.8,4.4-0.8c0.2,0,3.6-0.3,3.8-0.2
	c7.6-0.9,15.4-1.2,23.3-1.1c3.7,0.1,7.4,0.2,10.9,0.4c0.3,0,0.7,0,1,0.1c10.6,0,19.9,1.1,28.1,2.5c0.6,0.1,1.1,0.2,1.7,0.3
	c1.5,0.3,3.3,0.6,5.1,1c7.4-1.4,15.7-2.1,24.6-1.1c1,0.1,2.1,0.2,3.1,0.3c3.8,0.5,7.4,0.9,10.9,1.3c4.5,0.4,8.9,0.7,13.3,0.8
	c0.4-0.2,0.7-0.4,1.1-0.6c10.8-5.5,22.4-8,34.8-8c3.9,0,7.8,0.3,11.9,0.7c0.4,0,1.2,0.1,1.7,0.1c0.6,0.1,1.3,0.1,1.9,0.2
	c0.3,0,0.5-0.1,0.8-0.1c6.4-0.8,14.4-2.2,23.7-2.2c4.6,0,9.2,0.4,13.7,1.3c9.2,1.7,17.8,5.4,26.4,8.7c0.1,0,0.2,0,0.2,0.1
	c0.1,0,0.1,0,0.2,0.1c1.4,0.4,2.8,0.9,4.2,1.3c0.1,0,0.2,0.1,0.2,0.1C516.7,235.5,536.9,224.6,560.9,224.6"/>
<path id="line-21" class="st0" d="M564.5,215.8L564.5,215.8c13.6,0,31,3.1,49,14.2c4.9,3.3,9.1,6.5,13.9,10c2.9-0.7,5.9-1.3,9.1-1.8
	c5.8-0.7,11.5-1,17.1-0.7c9.4,0.5,18.2,2.2,26.9,4.5c9.5,2.6,18.6,6.4,27.4,10.8c5.9,3.2,11.4,7.3,16.4,12.2c9,7.1,16,18,18.5,29.8
	c3.8,18,0.3,35.3-6.4,53.1c-0.3,0.2-1.1,3.6-1.4,3.8c-0.3,0.2-1.5,3.5-1.7,3.8c-4.4,9.7-9.3,19.3-14.2,29.2
	c-3.7,12.5-13.8,20.1-17.9,30.6c-7.5,9.8-16.8,17.8-24.5,24.5c-1.5,1.3-3.4,2.9-5.2,4.4c0,0.3-0.1,0.7-0.1,1
	c2.6,9.8,3.9,20.1,4.6,30.9c0.5,9.8-0.3,18.6-1,25.5c3.7,12.8,8.6,32.3,11.1,53.4c1.9,15.8,2.1,30.6,0.6,43.8
	c-2.5,22.1-10,40.7-23.1,54c-3.3,3.7-6.9,7-10.7,9.9c-3.5,2.4-6.9,4.8-10.3,7c-4.4,2.9-8.9,5.6-14.2,8.4
	c-10.4,5.1-21.3,8.2-32.5,9.3c-3.8,0.4-7.5,0.5-11.3,0.4c-3.3-0.1-6.6-0.4-9.8-0.8c-11.9,2.8-23.7,3.4-35.3,2.1
	c-13.5-1.4-26.6-5.4-39-11.6c-10-5-19.6-11.6-28.6-19.3c-7.5-5.7-13.8-11.2-19.3-16.5c-3.4-3.1-6.5-6.1-9.3-9
	c-11.6-1.3-22.3-4.7-33-12.6c-0.8-0.5-1.5-1-2.3-1.5c-3.8-2.5-7.5-4.9-11.1-7.3c-1.7-0.1-3.5-0.2-5.2-0.4
	c-7.1-0.6-14.1-1.5-20.9-3.3c-0.6,0-10-2.9-10.6-3.1c-0.5-0.3-7.3-5.1-7.8-5.4c-2.6-1.1-7.6-2.6-11.4-3.7
	c-17.2-5.2-41.9-11.2-63.5-28.9c0,0-0.3-0.2-0.3-0.2c0,0-0.3-0.2-0.3-0.2c-9-7.5-17.1-15.3-24.5-22.2c-5.3-5-10.3-9.9-15.2-14.1
	c-10-7.2-18.7-15.8-25.9-25.5c-0.8-1.1-1.6-2.2-2.4-3.3c-7-9.4-11.7-20.2-14.4-31.8c-2.9-12.4-3.1-24.5-2.4-35.1
	c-2-2.6-4.1-5.4-6.2-8.6c-5.8-9.2-10.2-19.3-14.6-29.8c-3.3-8-6.2-16.2-8.1-24.7c-0.9-4-1.6-7.9-2-11.6c-0.8-6.7-0.7-12.8-0.5-18
	c0.1-1.8,0.2-4.2,0.2-5.3c-0.1-11,1.9-21.3,4.1-30.6c3.5-13.5,9.9-24.8,14.2-32.5c0,0,0,0,0-0.1s0,0,0-0.1c3.6-6.4,8.2-14,15-20.7
	c0.5-0.6,1.5-1.3,2.1-1.9c4.4-4,9.1-7.5,14-10.4c9.7-5.8,20.2-9.7,31.4-11.6c0.2,0.1,4.4-0.9,4.6-0.8c0.2,0,3.7-0.3,3.9-0.2
	c7.9-0.9,16-1.3,24.2-1.2c3.9,0.1,7.7,0.2,11.3,0.5c0.3,0,0.7,0,1,0.1c11,0.1,20.7,1.3,29.2,2.8c0.6,0.1,1.2,0.2,1.8,0.3
	c1.6,0.3,3.4,0.7,5.3,1c7.7-1.5,16.3-2.3,25.6-1.3c1.1,0.1,2.2,0.2,3.3,0.3c3.9,0.5,7.7,0.9,11.3,1.3c4.7,0.5,9.2,0.8,13.8,0.9
	c0.4-0.2,0.8-0.4,1.2-0.6c11.2-5.6,23.3-8.1,36.2-8.1c4,0,8.1,0.3,12.3,0.7c0.4,0,1.3,0.1,1.7,0.1c0.7,0.1,1.3,0.1,2,0.2
	c0.3,0,0.6-0.1,0.8-0.1c6.5-0.8,14.9-2.2,24.5-2.2c4.8,0,9.5,0.4,14.1,1.3c9.5,1.7,18.4,5.5,27.3,8.9c0.1,0,0.2,0,0.2,0.1
	c0.1,0,0.1,0,0.2,0.1c1.5,0.5,2.9,0.9,4.4,1.4c0.1,0,0.2,0.1,0.2,0.1C518.7,226.9,539.6,215.8,564.5,215.8"/>
<path id="line-22" class="st0" d="M568.1,207L568.1,207c14.1,0,32.2,3.2,51,14.7c5.1,3.4,9.5,6.7,14.4,10.3c3-0.7,6.1-1.4,9.5-1.9
	c6-0.8,11.9-1,17.8-0.8c9.7,0.5,19,2.2,28,4.6c9.9,2.8,19.4,6.7,28.5,11.4c6.1,3.4,11.9,7.7,17,12.8c9.2,7.5,16.3,18.6,19.1,30.8
	c4.1,18.5,0.9,36.5-5.9,55c-0.3,0.2-1.2,3.7-1.4,4c-0.3,0.2-1.5,3.7-1.7,3.9c-4.4,10-9.5,19.9-14.5,30.1
	c-4,12.7-14.3,20.7-18.8,31.4c-8,10.2-17.7,18.3-25.8,25.3c-1.6,1.4-3.6,3-5.4,4.5c0,0.3-0.1,0.7-0.2,1c2.8,10.2,4.2,20.9,4.8,32
	c0.5,10.2-0.4,19.3-1.1,26.5c3.8,13.2,8.9,33.5,11.5,55.4c1.9,16.4,2.2,31.8,0.7,45.5c-2.6,22.9-10.3,42.3-23.7,56.2
	c-3.4,3.9-7.1,7.4-11.1,10.5c-3.6,2.6-7.1,5-10.7,7.4c-4.6,3-9.3,5.9-14.7,8.7c-10.8,5.3-22.1,8.5-33.8,9.7
	c-3.9,0.4-7.8,0.5-11.8,0.4c-3.4-0.1-6.8-0.3-10.2-0.8c-12.4,3-24.6,3.7-36.7,2.5c-14.1-1.3-27.7-5.4-40.7-11.8
	c-10.4-5.2-20.4-11.9-29.8-19.9c-7.7-5.9-14.3-11.7-20-17.2c-3.5-3.3-6.7-6.4-9.6-9.4c-12-1.3-23.2-5-34.2-13
	c-0.8-0.5-1.6-1-2.4-1.5c-3.9-2.6-7.7-5-11.5-7.6c-1.8-0.1-3.6-0.2-5.4-0.4c-7.4-0.6-14.6-1.6-21.7-3.5c-0.6,0-10.4-3.1-11-3.2
	c-0.4-0.3-7.6-5.3-8.1-5.5c-2.7-1.1-7.8-2.6-11.8-3.8c-17.8-5.3-43.2-11.6-65.7-29.9c0,0-0.3-0.2-0.3-0.2s-0.3-0.2-0.3-0.2
	c-9.3-7.8-17.8-15.9-25.4-23.1c-5.5-5.2-10.7-10.3-15.8-14.7c-10.4-7.4-19.4-16.3-26.9-26.5c-0.8-1.1-1.6-2.3-2.4-3.4
	c-7.2-9.8-12.1-21-14.9-33.1c-3-12.9-3.2-25.5-2.5-36.4c-2.1-2.7-4.3-5.6-6.5-8.9c-6.1-9.4-10.8-19.9-15.2-30.8
	c-3.4-8.3-6.3-16.8-8.2-25.7c-0.9-4.2-1.6-8.2-2-12c-0.7-6.9-0.7-13.3-0.4-18.6c0.1-1.9,0.2-4.4,0.2-5.5
	c-0.1-11.4,1.9-22.1,4.3-31.6c3.7-14,10.2-25.7,14.7-33.7c0,0,0-0.1,0-0.1c0,0,0-0.1,0-0.1c3.7-6.7,8.5-14.5,15.5-21.4
	c0.6-0.6,1.6-1.3,2.1-2c4.6-4.2,9.4-7.8,14.5-10.9c10-6.1,20.9-10.2,32.5-12.2c0.2,0.1,4.5-0.9,4.8-0.9c0.2,0,3.9-0.3,4.1-0.3
	c8.2-1,16.6-1.4,25.1-1.3c4,0.1,7.9,0.2,11.7,0.5c0.3,0,0.7,0,1,0.1c11.4,0.1,21.5,1.4,30.2,3c0.6,0.1,1.2,0.2,1.8,0.3
	c1.7,0.3,3.6,0.7,5.5,1.1c8-1.6,16.9-2.4,26.5-1.5c1.1,0.1,2.3,0.2,3.4,0.3c4.1,0.5,8,0.9,11.8,1.3c4.9,0.5,9.6,0.8,14.4,1.1
	c0.4-0.2,0.8-0.4,1.2-0.6c11.6-5.7,24.2-8.3,37.5-8.3c4.1,0,8.4,0.3,12.7,0.8c0.5,0,1.3,0.1,1.8,0.1c0.7,0.1,1.4,0.1,2,0.2
	c0.3,0,0.6-0.1,0.9-0.1c6.7-0.8,15.3-2.3,25.3-2.3c4.9,0,9.8,0.4,14.6,1.3c9.8,1.7,19.1,5.5,28.2,9c0.1,0,0.2,0.1,0.2,0.1
	c0.1,0,0.1,0,0.2,0.1c1.5,0.5,3,1,4.5,1.5c0.1,0,0.2,0.1,0.3,0.1C520.8,218.3,542.3,207,568.1,207"/>
<path id="line-23" class="st0" d="M571.7,198.2L571.7,198.2c14.7,0,33.4,3.3,52.9,15.2c5.3,3.5,9.9,6.9,15,10.7
	c3.1-0.8,6.4-1.4,9.8-2c6.2-0.8,12.3-1.1,18.4-0.9c10.1,0.5,19.7,2.2,29,4.8c10.3,2.9,20.1,7.1,29.5,12.1
	c6.3,3.6,12.3,8.1,17.6,13.5c9.3,7.8,16.7,19.3,19.6,31.8c4.4,19.1,1.4,37.7-5.3,56.8c-0.3,0.2-1.2,3.9-1.4,4.1
	c-0.3,0.2-1.5,3.8-1.8,4c-4.4,10.3-9.6,20.6-14.9,31c-4.3,12.9-14.7,21.2-19.8,32.2c-8.4,10.5-18.7,18.9-27.1,26
	c-1.7,1.4-3.7,3-5.7,4.7c0,0.4-0.1,0.7-0.2,1.1c2.9,10.5,4.4,21.6,5.1,33.1c0.5,10.6-0.5,20-1.2,27.5c4,13.7,9.2,34.6,11.9,57.4
	c2,17,2.3,32.9,0.7,47.1c-2.6,23.7-10.6,43.8-24.4,58.4c-3.5,4-7.3,7.7-11.4,11c-3.7,2.7-7.3,5.3-11.1,7.8
	c-4.7,3.1-9.6,6.2-15.2,9.1c-11.2,5.5-22.9,8.8-35,10c-4,0.4-8.1,0.5-12.2,0.4c-3.5-0.1-7.1-0.3-10.6-0.8c-12.8,3.2-25.6,4-38.1,2.8
	c-14.6-1.3-28.8-5.4-42.3-12c-10.8-5.3-21.2-12.3-31-20.6c-8-6.1-14.7-12.2-20.7-18c-3.6-3.4-6.9-6.7-9.9-9.9
	c-12.5-1.4-24.1-5.2-35.5-13.3c-0.8-0.5-1.6-1.1-2.5-1.6c-4-2.6-8-5.2-11.8-7.9c-1.9-0.1-3.7-0.2-5.6-0.4
	c-7.6-0.6-15.1-1.7-22.4-3.7c-0.6,0-10.8-3.2-11.4-3.4c-0.4-0.3-7.9-5.5-8.4-5.7c-2.8-1.1-8.1-2.7-12.3-3.9
	c-18.3-5.4-44.6-12-67.9-31c0,0-0.3-0.2-0.3-0.2c0,0-0.3-0.2-0.3-0.3c-9.7-8.1-18.5-16.4-26.3-24c-5.7-5.4-11.1-10.6-16.3-15.2
	c-10.8-7.7-20.1-16.9-27.9-27.5c-0.9-1.2-1.7-2.4-2.5-3.5c-7.4-10.2-12.5-21.8-15.3-34.3c-3.1-13.4-3.3-26.5-2.6-37.8
	c-2.2-2.8-4.5-5.8-6.9-9.2c-6.4-9.7-11.3-20.5-15.9-31.8c-3.5-8.6-6.4-17.4-8.3-26.6c-0.9-4.3-1.5-8.5-2-12.5
	c-0.7-7.2-0.6-13.8-0.4-19.3c0.1-2,0.3-4.6,0.3-5.7c-0.1-11.8,2-22.8,4.5-32.7c3.9-14.5,10.6-26.6,15.2-34.8c0,0,0-0.1,0-0.1
	c0,0,0-0.1,0-0.1c3.8-6.9,8.7-15,16-22.2c0.6-0.7,1.6-1.4,2.2-2c4.7-4.4,9.7-8.2,15-11.4c10.3-6.4,21.6-10.7,33.6-12.9
	c0.2,0,4.7-1,4.9-0.9c0.2,0,4-0.3,4.2-0.3c8.5-1.1,17.2-1.5,26-1.4c4.2,0.1,8.2,0.2,12.1,0.5c0.3,0,0.8,0,1.1,0.1
	c11.8,0.2,22.2,1.6,31.3,3.2c0.6,0.1,1.3,0.2,1.9,0.4c1.7,0.3,3.7,0.7,5.6,1.1c8.3-1.7,17.5-2.6,27.5-1.8c1.2,0.1,2.3,0.2,3.5,0.3
	c4.2,0.5,8.2,0.9,12.2,1.3c5.1,0.5,9.9,0.9,14.9,1.3c0.4-0.2,0.8-0.4,1.3-0.6c12.1-5.9,25.1-8.5,38.9-8.5c4.3,0,8.6,0.3,13.1,0.8
	c0.5,0,1.3,0.1,1.8,0.1c0.7,0.1,1.4,0.1,2.1,0.2c0.3,0,0.6-0.1,0.9-0.1c6.9-0.9,15.8-2.4,26.1-2.4c5.1,0,10.1,0.4,15,1.3
	c10.2,1.7,19.7,5.6,29.2,9.2c0.1,0,0.2,0.1,0.2,0.1c0.1,0,0.1,0,0.2,0.1c1.6,0.5,3.1,1,4.6,1.6c0.1,0,0.2,0.1,0.3,0.1
	C522.8,209.7,545.1,198.2,571.7,198.2"/>
<path id="line-24" class="st0" d="M575.2,189.4L575.2,189.4c15.2,0,34.7,3.4,54.9,15.6c5.5,3.6,10.3,7.1,15.6,11
	c3.2-0.8,6.6-1.5,10.2-2.1c6.4-0.9,12.8-1.2,19.1-1c10.4,0.4,20.4,2.2,30.1,4.9c10.7,3,20.9,7.4,30.6,12.7
	c6.6,3.8,12.7,8.6,18.2,14.2c9.5,8.2,17,19.9,20.1,32.7c4.7,19.6,1.9,38.9-4.8,58.6c-0.3,0.2-1.2,4-1.4,4.2c-0.3,0.2-1.5,4-1.8,4.2
	c-4.5,10.7-9.8,21.2-15.3,31.9c-4.5,13.2-15.2,21.8-20.7,33c-8.9,10.9-19.6,19.5-28.4,26.8c-1.8,1.4-3.9,3.1-5.9,4.8
	c-0.1,0.4-0.1,0.7-0.2,1.1c3.1,10.9,4.6,22.4,5.3,34.3c0.5,11-0.5,20.8-1.4,28.4c4.1,14.1,9.6,35.8,12.4,59.4
	c2.1,17.6,2.4,34,0.8,48.7c-2.7,24.5-10.9,45.3-25,60.6c-3.6,4.2-7.5,8.1-11.8,11.5c-3.8,2.9-7.6,5.6-11.4,8.2
	c-4.9,3.3-10,6.4-15.8,9.4c-11.5,5.7-23.7,9.2-36.2,10.4c-4.2,0.4-8.4,0.6-12.7,0.5c-3.7-0.1-7.3-0.3-11-0.8
	c-13.3,3.3-26.5,4.4-39.5,3.2c-15.2-1.2-29.9-5.4-43.9-12.2c-11.2-5.5-22-12.7-32.1-21.2c-8.2-6.4-15.2-12.7-21.3-18.7
	c-3.7-3.6-7.1-7-10.2-10.3c-12.9-1.4-25-5.4-36.7-13.7c-0.9-0.5-1.7-1.1-2.6-1.6c-4.2-2.7-8.2-5.4-12.2-8.2
	c-1.9-0.1-3.9-0.3-5.8-0.4c-7.9-0.7-15.6-1.8-23.1-3.9c-0.5,0-11.2-3.3-11.7-3.5c-0.4-0.3-8.2-5.7-8.6-5.9c-2.9-1.2-8.4-2.8-12.7-4
	c-18.8-5.6-46-12.4-70.1-32.1c0,0-0.3-0.2-0.3-0.3c0,0-0.3-0.2-0.3-0.3c-10-8.4-19.1-17-27.3-24.8c-5.9-5.6-11.5-11-16.9-15.7
	c-11.2-8-20.8-17.5-28.8-28.5c-0.9-1.2-1.8-2.4-2.6-3.7c-7.6-10.6-12.8-22.6-15.8-35.6c-3.2-13.9-3.4-27.4-2.7-39.1
	c-2.3-2.8-4.7-6-7.2-9.5c-6.7-10-11.8-21.1-16.5-32.8c-3.6-8.9-6.6-18-8.5-27.6c-0.9-4.5-1.5-8.8-2-12.9c-0.7-7.5-0.5-14.2-0.3-19.9
	c0.1-2,0.3-4.7,0.3-5.9c-0.1-12.2,2.1-23.6,4.7-33.8c4-15,11-27.5,15.7-35.9c0,0,0-0.1,0-0.1c0,0,0-0.1,0-0.1
	c4-7.1,9-15.4,16.5-22.9c0.6-0.7,1.6-1.4,2.3-2.1c4.8-4.5,10-8.5,15.4-11.9c10.6-6.7,22.3-11.2,34.7-13.5c0.2,0,4.9-1,5.1-1
	c0.2,0,4.2-0.4,4.3-0.3c8.8-1.2,17.8-1.6,26.9-1.5c4.3,0.1,8.5,0.2,12.5,0.5c0.3,0,0.8,0.1,1.1,0.1c12.2,0.3,23,1.8,32.4,3.5
	c0.7,0.1,1.3,0.2,1.9,0.4c1.8,0.3,3.8,0.7,5.8,1.2c8.6-1.8,18.1-2.8,28.5-2c1.2,0.1,2.4,0.2,3.6,0.2c4.4,0.4,8.5,0.9,12.6,1.3
	c5.2,0.5,10.3,1,15.4,1.4c0.4-0.2,0.9-0.4,1.3-0.6c12.5-6,26-8.7,40.3-8.7c4.4,0,8.9,0.3,13.5,0.8c0.5,0,1.4,0.1,1.9,0.2
	c0.7,0.1,1.4,0.1,2.2,0.2c0.3,0,0.6-0.1,0.9-0.1c7.1-0.9,16.3-2.4,26.9-2.4c5.2,0,10.4,0.4,15.5,1.4c10.5,1.8,20.3,5.6,30.1,9.4
	c0.1,0,0.2,0.1,0.3,0.1c0.1,0,0.1,0.1,0.2,0.1c1.6,0.5,3.2,1.1,4.8,1.7c0.1,0,0.2,0.1,0.3,0.1C524.9,201.1,547.8,189.4,575.2,189.4"
	/>
<path id="line-25" class="st0" d="M578.8,180.6L578.8,180.6c15.7,0,35.9,3.5,56.8,16.1c5.6,3.7,10.7,7.3,16.1,11.4
	c3.4-0.9,6.8-1.6,10.5-2.2c6.6-0.9,13.2-1.3,19.8-1.1c10.8,0.4,21.1,2.3,31.2,5.1c11.1,3.2,21.6,7.8,31.7,13.4
	c6.8,4,13.1,9,18.8,14.9c9.7,8.5,17.3,20.6,20.6,33.7c5,20.1,2.5,40.1-4.2,60.5c-0.2,0.2-1.2,4.2-1.4,4.4c-0.2,0.2-1.6,4.1-1.8,4.3
	c-4.5,11-10,21.8-15.6,32.8c-4.8,13.4-15.6,22.4-21.6,33.8c-9.4,11.2-20.5,20.1-29.7,27.6c-1.8,1.5-4,3.2-6.2,4.9
	c-0.1,0.4-0.1,0.8-0.2,1.1c3.2,11.3,4.9,23.1,5.5,35.4c0.5,11.4-0.6,21.5-1.5,29.4c4.2,14.5,9.9,37,12.8,61.4
	c2.1,18.2,2.5,35.2,0.8,50.4c-2.8,25.3-11.2,46.9-25.7,62.8c-3.7,4.4-7.8,8.4-12.1,12c-3.9,3-7.8,5.9-11.8,8.6
	c-5.1,3.4-10.3,6.7-16.3,9.8c-11.9,5.9-24.5,9.5-37.5,10.8c-4.3,0.4-8.7,0.6-13.1,0.5c-3.8-0.1-7.6-0.3-11.4-0.8
	c-13.8,3.5-27.4,4.7-40.9,3.6c-15.8-1.2-31-5.4-45.6-12.4c-11.6-5.6-22.8-13-33.3-21.9c-8.5-6.6-15.7-13.2-22-19.5
	c-3.8-3.7-7.3-7.4-10.5-10.8c-13.4-1.5-25.8-5.6-37.9-14c-0.9-0.6-1.8-1.1-2.6-1.7c-4.3-2.8-8.5-5.6-12.6-8.5c-2-0.1-4-0.3-6-0.4
	c-8.1-0.7-16.1-1.9-23.9-4c-0.5,0-11.6-3.5-12.1-3.6c-0.4-0.3-8.5-5.9-8.9-6.1c-2.9-1.2-8.6-2.9-13.1-4.2
	c-19.4-5.7-47.4-12.8-72.3-33.1c0,0-0.3-0.3-0.3-0.3c0,0-0.3-0.3-0.3-0.3c-10.4-8.7-19.8-17.6-28.2-25.7
	c-6.1-5.8-11.9-11.4-17.5-16.3c-11.6-8.2-21.6-18.1-29.8-29.5c-0.9-1.3-1.8-2.5-2.7-3.8c-7.8-11-13.2-23.4-16.3-36.9
	c-3.3-14.4-3.6-28.4-2.8-40.5c-2.4-2.9-5-6.2-7.5-9.8c-7-10.3-12.4-21.8-17.2-33.8c-3.7-9.2-6.7-18.7-8.6-28.5
	c-0.9-4.7-1.5-9.1-1.9-13.4c-0.7-7.7-0.5-14.7-0.2-20.6c0.1-2.1,0.3-4.9,0.3-6.1c-0.1-12.6,2.1-24.3,4.9-34.8
	c4.2-15.5,11.4-28.4,16.3-37.1c0,0,0-0.1,0-0.1c0,0,0-0.1,0-0.1c4.1-7.3,9.3-15.9,17-23.7c0.6-0.7,1.7-1.5,2.3-2.2
	c5-4.7,10.3-8.9,15.9-12.4c11-7,23-11.7,35.8-14.2c0.2,0,5.1-1.1,5.3-1c0.2,0,4.3-0.4,4.5-0.3c9.1-1.2,18.4-1.7,27.7-1.6
	c4.5,0.1,8.8,0.2,13,0.5c0.3,0,0.8,0.1,1.1,0.1c12.6,0.3,23.8,1.9,33.5,3.7c0.7,0.1,1.4,0.3,2,0.4c1.8,0.4,3.9,0.8,6,1.2
	c8.8-1.9,18.7-3,29.5-2.3c1.3,0.1,2.5,0.1,3.8,0.2c4.5,0.4,8.8,0.8,13,1.3c5.4,0.6,10.7,1.1,16,1.6c0.5-0.2,0.9-0.4,1.4-0.6
	c12.9-6.1,26.9-8.9,41.7-8.9c4.5,0,9.1,0.3,13.9,0.8c0.5,0.1,1.4,0.1,1.9,0.2c0.7,0.1,1.5,0.1,2.2,0.2c0.3,0,0.6-0.1,0.9-0.1
	c7.3-0.9,16.7-2.5,27.7-2.5c5.4,0,10.7,0.4,15.9,1.4c10.8,1.8,20.9,5.7,31,9.6c0.1,0,0.2,0.1,0.3,0.1c0.1,0,0.2,0.1,0.2,0.1
	c1.7,0.6,3.3,1.1,4.9,1.7c0.1,0,0.2,0.1,0.3,0.1C526.9,192.5,550.5,180.6,578.8,180.6"/>
<path id="line-26" class="st0" d="M582.4,171.8L582.4,171.8c16.2,0,37.1,3.6,58.8,16.6c5.8,3.7,11,7.5,16.7,11.8
	c3.5-0.9,7.1-1.7,10.9-2.3c6.8-1,13.7-1.4,20.4-1.2c11.2,0.4,21.8,2.3,32.2,5.2c11.5,3.3,22.4,8.1,32.7,14c7,4.2,13.5,9.4,19.4,15.5
	c9.9,8.9,17.7,21.3,21.1,34.7c5.3,20.7,3,41.3-3.7,62.3c-0.2,0.2-1.2,4.3-1.4,4.5c-0.2,0.2-1.6,4.2-1.8,4.4
	c-4.6,11.3-10.1,22.5-16,33.7c-5.1,13.6-16.1,23-22.5,34.6c-9.9,11.5-21.5,20.7-30.9,28.3c-1.9,1.5-4.2,3.3-6.4,5.1
	c-0.1,0.4-0.1,0.8-0.2,1.2c3.4,11.6,5.1,23.9,5.7,36.6c0.5,11.8-0.7,22.2-1.7,30.3c4.4,15,10.2,38.2,13.2,63.4
	c2.2,18.8,2.5,36.3,0.8,52c-2.8,26.2-11.5,48.4-26.3,65c-3.8,4.6-8,8.8-12.5,12.5c-4,3.1-8,6.1-12.2,9c-5.2,3.6-10.7,6.9-16.9,10.1
	c-12.3,6.1-25.2,9.8-38.7,11.2c-4.5,0.4-9,0.6-13.5,0.5c-3.9-0.1-7.8-0.3-11.8-0.8c-14.2,3.7-28.4,5-42.3,3.9
	c-16.3-1.1-32.2-5.4-47.2-12.6c-12-5.8-23.6-13.4-34.4-22.5c-8.7-6.8-16.2-13.7-22.7-20.3c-3.9-3.9-7.5-7.7-10.8-11.3
	c-13.8-1.6-26.7-5.8-39.2-14.4c-0.9-0.6-1.8-1.1-2.7-1.7c-4.4-2.8-8.8-5.7-13-8.7c-2.1-0.1-4.1-0.3-6.1-0.4
	c-8.4-0.7-16.7-2-24.6-4.2c-0.5,0-12-3.6-12.5-3.8c-0.4-0.3-8.8-6.1-9.2-6.3c-3-1.2-8.9-2.9-13.5-4.3c-19.9-5.8-48.8-13.2-74.5-34.2
	c0,0-0.3-0.3-0.3-0.3s-0.3-0.3-0.3-0.3c-10.7-9-20.4-18.2-29.1-26.5c-6.3-6-12.3-11.8-18.1-16.8c-12-8.5-22.3-18.7-30.8-30.4
	c-0.9-1.3-1.9-2.6-2.8-3.9c-8-11.4-13.6-24.3-16.7-38.2c-3.4-14.9-3.7-29.3-2.9-41.8c-2.5-3-5.2-6.3-7.8-10.1
	c-7.3-10.6-12.9-22.4-17.8-34.7c-3.8-9.5-6.8-19.3-8.7-29.5c-0.9-4.8-1.5-9.4-1.9-13.8c-0.6-8-0.4-15.2-0.1-21.2
	c0.1-2.2,0.3-5,0.3-6.2c-0.1-13,2.2-25.1,5.1-35.9c4.4-16,11.8-29.3,16.8-38.2c0,0,0-0.1,0-0.1c0,0,0-0.1,0-0.1
	c4.2-7.5,9.5-16.3,17.5-24.5c0.7-0.8,1.7-1.6,2.4-2.3c5.1-4.9,10.6-9.2,16.3-12.9c11.3-7.3,23.7-12.2,36.9-14.8
	c0.2,0,5.2-1.1,5.5-1.1c0.2,0,4.5-0.4,4.6-0.4c9.3-1.3,18.9-1.9,28.6-1.7c4.6,0.1,9.1,0.2,13.4,0.5c0.3,0,0.8,0.1,1.2,0.1
	c13,0.4,24.5,2.1,34.5,4c0.7,0.1,1.4,0.3,2.1,0.4c1.9,0.4,4.1,0.8,6.2,1.2c9.1-2,19.3-3.2,30.4-2.5c1.3,0.1,2.6,0.1,3.9,0.2
	c4.6,0.4,9.1,0.8,13.4,1.3c5.6,0.6,11,1.1,16.5,1.7c0.5-0.2,0.9-0.4,1.4-0.6c13.4-6.2,27.8-9.1,43-9.1c4.6,0,9.4,0.3,14.3,0.8
	c0.6,0.1,1.4,0.1,2,0.2c0.8,0.1,1.5,0.1,2.3,0.2c0.3,0,0.7-0.1,1-0.1c7.5-1,17.2-2.6,28.5-2.6c5.5,0,11,0.4,16.4,1.4
	c11.1,1.8,21.6,5.7,31.9,9.7c0.1,0,0.2,0.1,0.3,0.1c0.1,0,0.2,0.1,0.2,0.1c1.7,0.6,3.4,1.2,5.1,1.8c0.1,0,0.2,0.1,0.3,0.1
	C529,183.9,553.2,171.8,582.4,171.8"/>
<path id="line-27" class="st0" d="M586,163L586,163c16.7,0,38.3,3.6,60.7,17c6,3.8,11.4,7.7,17.3,12.1c3.6-0.9,7.3-1.7,11.2-2.4
	c7.1-1.1,14.1-1.5,21.1-1.3c11.5,0.4,22.6,2.3,33.3,5.4c11.8,3.4,23.1,8.5,33.8,14.7c7.2,4.4,13.9,9.9,20,16.2
	c10.1,9.3,18,21.9,21.7,35.6c5.6,21.2,3.6,42.5-3.2,64.1c-0.2,0.2-1.2,4.5-1.4,4.6c-0.2,0.2-1.6,4.4-1.8,4.6
	c-4.6,11.7-10.3,23.1-16.3,34.6c-5.4,13.8-16.5,23.6-23.4,35.4c-10.3,11.9-22.4,21.3-32.2,29.1c-2,1.6-4.4,3.4-6.6,5.2
	c-0.1,0.4-0.1,0.8-0.2,1.2c3.5,12,5.3,24.6,6,37.7c0.5,12.2-0.8,23-1.8,31.3c4.5,15.4,10.5,39.3,13.6,65.4
	c2.3,19.3,2.6,37.4,0.9,53.6c-2.9,27-11.8,50-27,67.2c-3.9,4.8-8.2,9.1-12.9,13c-4.1,3.3-8.3,6.4-12.6,9.4
	c-5.4,3.7-11.1,7.2-17.4,10.5c-12.7,6.3-26,10.1-40,11.5c-4.6,0.5-9.3,0.6-14,0.6c-4.1-0.1-8.1-0.3-12.1-0.8
	c-14.7,3.9-29.3,5.3-43.8,4.3c-16.9-1.1-33.3-5.5-48.8-12.8c-12.4-5.9-24.4-13.7-35.6-23.2c-9-7.1-16.6-14.2-23.3-21
	c-4-4-7.7-8-11.1-11.7c-14.2-1.6-27.6-6-40.4-14.7c-0.9-0.6-1.9-1.2-2.8-1.8c-4.6-2.9-9-5.9-13.3-9c-2.1-0.1-4.2-0.3-6.3-0.5
	c-8.7-0.8-17.2-2.1-25.4-4.4c-0.5,0-12.4-3.8-12.9-3.9c-0.4-0.3-9.1-6.3-9.4-6.5c-3.1-1.3-9.2-3-13.9-4.4
	c-20.4-6-50.2-13.6-76.7-35.3c0,0-0.3-0.3-0.3-0.3s-0.3-0.3-0.3-0.3c-11.1-9.2-21.1-18.8-30.1-27.4c-6.5-6.2-12.7-12.2-18.7-17.4
	c-12.4-8.8-23-19.3-31.8-31.4c-1-1.3-1.9-2.7-2.8-4.1c-8.2-11.8-13.9-25.1-17.2-39.4c-3.5-15.4-3.8-30.3-2.9-43.1
	c-2.6-3.1-5.4-6.5-8.2-10.4c-7.6-10.9-13.4-23-18.5-35.7c-3.9-9.8-7-19.9-8.9-30.4c-0.9-5-1.5-9.8-1.9-14.3
	c-0.6-8.2-0.4-15.7-0.1-21.9c0.1-2.2,0.3-5.2,0.3-6.4c-0.1-13.4,2.3-25.8,5.3-36.9c4.6-16.5,12.2-30.2,17.3-39.3c0,0,0-0.1,0-0.1
	c0,0,0-0.1,0-0.1c4.3-7.7,9.8-16.8,18-25.2c0.7-0.8,1.7-1.6,2.5-2.4c5.3-5.1,10.9-9.6,16.8-13.4c11.6-7.6,24.4-12.7,38-15.5
	c0.2,0,5.4-1.2,5.6-1.1c0.2,0,4.6-0.4,4.8-0.4c9.6-1.4,19.5-2,29.5-1.9c4.7,0,9.3,0.3,13.8,0.6c0.4,0,0.8,0.1,1.2,0.1
	c13.4,0.4,25.3,2.2,35.6,4.2c0.7,0.1,1.4,0.3,2.1,0.4c1.9,0.4,4.2,0.8,6.4,1.3c9.4-2.1,19.9-3.4,31.4-2.7c1.3,0.1,2.7,0.1,4,0.2
	c4.8,0.4,9.4,0.8,13.9,1.3c5.8,0.6,11.4,1.2,17,1.9c0.5-0.2,1-0.4,1.5-0.7c13.8-6.3,28.7-9.3,44.4-9.3c4.8,0,9.7,0.3,14.7,0.8
	c0.6,0.1,1.5,0.1,2.1,0.2c0.8,0.1,1.6,0.1,2.3,0.2c0.3,0,0.7-0.1,1-0.1c7.6-1,17.6-2.6,29.3-2.6c5.7,0,11.3,0.4,16.8,1.4
	c11.4,1.8,22.2,5.8,32.8,9.9c0.1,0,0.2,0.1,0.3,0.1c0.1,0,0.2,0.1,0.2,0.1c1.7,0.6,3.5,1.2,5.2,1.9c0.1,0,0.2,0.1,0.3,0.1
	C531,175.3,555.9,163,586,163"/>
<path id="line-28" class="st0" d="M589.5,154.2L589.5,154.2c17.3,0,39.6,3.7,62.7,17.5c6.2,3.9,11.8,7.9,17.8,12.5
	c3.7-1,7.6-1.8,11.6-2.5c7.3-1.1,14.6-1.6,21.8-1.4c11.9,0.4,23.3,2.4,34.3,5.5c12.2,3.6,23.9,8.8,34.8,15.3
	c7.4,4.6,14.4,10.3,20.6,16.9c10.3,9.6,18.4,22.6,22.2,36.6c5.9,21.7,4.1,43.7-2.6,66c-0.2,0.2-1.2,4.6-1.4,4.8s-1.6,4.5-1.8,4.7
	c-4.7,12-10.4,23.8-16.7,35.5c-5.7,14.1-16.9,24.2-24.4,36.2c-10.8,12.2-23.3,21.8-33.5,29.9c-2.1,1.6-4.5,3.5-6.9,5.3
	c-0.1,0.4-0.1,0.8-0.2,1.3c3.7,12.4,5.6,25.3,6.2,38.9c0.5,12.6-0.8,23.7-1.9,32.3c4.6,15.8,10.9,40.5,14.1,67.3
	c2.4,19.9,2.7,38.6,0.9,55.2c-3,27.8-12.1,51.5-27.6,69.4c-4,5-8.4,9.5-13.2,13.6c-4.2,3.4-8.5,6.7-12.9,9.8
	c-5.6,3.9-11.4,7.5-17.9,10.8c-13,6.5-26.8,10.4-41.2,11.9c-4.7,0.5-9.5,0.7-14.4,0.6c-4.2-0.1-8.4-0.3-12.5-0.8
	c-15.2,4.1-30.2,5.6-45.2,4.6c-17.4-1-34.4-5.5-50.5-13c-12.8-6-25.2-14.1-36.8-23.9c-9.3-7.3-17.1-14.7-24-21.8
	c-4.1-4.2-7.9-8.3-11.5-12.2c-14.7-1.7-28.4-6.2-41.6-15c-1-0.6-1.9-1.2-2.9-1.8c-4.7-3-9.3-6.1-13.7-9.3c-2.2-0.1-4.3-0.3-6.5-0.5
	c-8.9-0.8-17.7-2.2-26.1-4.6c-0.5,0-12.8-3.9-13.2-4c-0.3-0.2-9.3-6.5-9.7-6.7c-3.2-1.3-9.4-3.1-14.3-4.5c-21-6.1-51.6-14-78.9-36.3
	c0,0-0.3-0.3-0.4-0.3s-0.3-0.3-0.4-0.3c-11.4-9.5-21.8-19.4-31-28.2c-6.7-6.4-13.1-12.6-19.2-17.9c-12.8-9-23.7-19.9-32.7-32.4
	c-1-1.4-2-2.8-2.9-4.2c-8.4-12.2-14.3-25.9-17.7-40.7c-3.6-15.9-3.9-31.3-3-44.5c-2.7-3.2-5.6-6.7-8.5-10.7
	c-7.9-11.1-14-23.6-19.2-36.7c-4-10-7.1-20.5-9-31.3c-0.9-5.1-1.5-10.1-1.9-14.7c-0.6-8.5-0.3-16.2,0-22.5c0.1-2.3,0.3-5.4,0.3-6.6
	c-0.1-13.8,2.4-26.6,5.4-38c4.7-17,12.6-31.1,17.8-40.5c0,0,0-0.1,0-0.1s0-0.1,0-0.1c4.4-7.9,10.1-17.3,18.4-26
	c0.7-0.8,1.8-1.7,2.5-2.5c5.4-5.3,11.2-9.9,17.3-13.9c12-7.9,25.1-13.2,39.1-16.1c0.2,0,5.6-1.2,5.8-1.2c0.2,0,4.8-0.4,4.9-0.4
	c9.9-1.4,20.1-2.1,30.4-2c4.9,0,9.6,0.3,14.2,0.6c0.4,0,0.9,0.1,1.2,0.1c13.9,0.5,26.1,2.4,36.7,4.4c0.7,0.1,1.5,0.3,2.2,0.4
	c2,0.4,4.3,0.9,6.6,1.3c9.7-2.2,20.5-3.6,32.4-3c1.4,0.1,2.8,0.1,4.2,0.2c4.9,0.4,9.6,0.8,14.3,1.3c6,0.6,11.8,1.3,17.6,2.1
	c0.5-0.2,1-0.4,1.5-0.7c14.2-6.4,29.5-9.5,45.8-9.5c4.9,0,9.9,0.3,15.1,0.8c0.6,0.1,1.5,0.1,2.1,0.2c0.8,0.1,1.6,0.1,2.4,0.2
	c0.3,0,0.7-0.1,1-0.1c7.8-1,18.1-2.7,30.1-2.7c5.9,0,11.6,0.4,17.3,1.4c11.7,1.8,22.8,5.8,33.7,10.1c0.1,0,0.2,0.1,0.3,0.1
	c0.1,0,0.2,0.1,0.2,0.1c1.8,0.6,3.6,1.3,5.3,2c0.1,0,0.2,0.1,0.3,0.1C533.1,166.7,558.7,154.2,589.5,154.2"/>
<path id="line-29" class="st0" d="M593.1,145.4L593.1,145.4c17.8,0,40.8,3.8,64.6,18c6.3,4,12.2,8.1,18.4,12.8
	c3.8-1,7.8-1.9,11.9-2.6c7.5-1.2,15-1.7,22.5-1.5c12.2,0.4,24,2.4,35.4,5.7c12.6,3.7,24.6,9.2,35.9,16c7.7,4.8,14.8,10.7,21.1,17.6
	c10.5,10,18.7,23.2,22.7,37.6c6.2,22.3,4.6,44.9-2.1,67.8c-0.2,0.2-1.2,4.7-1.4,4.9c-0.2,0.2-1.7,4.6-1.9,4.8
	c-4.7,12.3-10.6,24.4-17.1,36.4c-5.9,14.3-17.4,24.8-25.3,37c-11.3,12.5-24.2,22.4-34.8,30.6c-2.1,1.6-4.7,3.6-7.1,5.5
	c-0.1,0.4-0.1,0.9-0.2,1.3c3.8,12.7,5.8,26.1,6.4,40c0.5,13.1-0.9,24.5-2.1,33.2c4.8,16.3,11.2,41.7,14.5,69.3
	c2.4,20.5,2.8,39.7,1,56.9c-3.1,28.6-12.4,53-28.3,71.6c-4.1,5.1-8.7,9.8-13.6,14.1c-4.3,3.6-8.7,7-13.3,10.2
	c-5.7,4-11.8,7.7-18.5,11.2c-13.4,6.7-27.6,10.8-42.4,12.3c-4.9,0.5-9.8,0.7-14.8,0.6c-4.3-0.1-8.6-0.3-12.9-0.8
	c-15.6,4.3-31.2,5.9-46.6,5c-18-1-35.5-5.5-52.1-13.2c-13.2-6.2-26-14.5-37.9-24.5c-9.5-7.5-17.6-15.2-24.7-22.6
	c-4.3-4.4-8.2-8.6-11.8-12.6c-15.1-1.8-29.3-6.4-42.9-15.4c-1-0.6-2-1.2-3-1.9c-4.8-3.1-9.5-6.2-14.1-9.6c-2.2-0.1-4.5-0.3-6.7-0.5
	c-9.2-0.8-18.2-2.3-26.8-4.8c-0.4,0-13.2-4-13.6-4.2c-0.3-0.2-9.6-6.7-10-6.9c-3.2-1.3-9.7-3.2-14.7-4.6
	c-21.5-6.3-53-14.4-81.1-37.4c0,0-0.4-0.3-0.4-0.3c0,0-0.3-0.3-0.4-0.3c-11.8-9.8-22.4-20-31.9-29.1c-6.9-6.6-13.5-12.9-19.8-18.4
	c-13.2-9.3-24.4-20.5-33.7-33.4c-1-1.4-2-2.9-3-4.3c-8.7-12.6-14.7-26.7-18.1-42c-3.7-16.4-4-32.2-3.1-45.8c-2.8-3.3-5.8-6.9-8.8-11
	c-8.2-11.4-14.5-24.2-19.8-37.7c-4-10.3-7.2-21.1-9.1-32.3c-0.9-5.3-1.5-10.4-1.8-15.2c-0.6-8.8-0.3-16.6,0.1-23.2
	c0.1-2.4,0.4-5.5,0.4-6.8c0-14.1,2.4-27.4,5.6-39.1c4.9-17.5,13-31.9,18.4-41.6c0,0,0-0.1,0-0.1s0-0.1,0-0.1
	c4.6-8.1,10.3-17.7,18.9-26.8c0.7-0.9,1.8-1.7,2.6-2.6c5.5-5.4,11.5-10.3,17.7-14.4c12.3-8.1,25.8-13.8,40.2-16.7
	c0.2,0,5.8-1.3,6-1.2c0.1,0,4.9-0.5,5.1-0.4c10.2-1.5,20.7-2.2,31.3-2.1c5,0,9.9,0.3,14.6,0.6c0.4,0,0.9,0.1,1.3,0.1
	c14.3,0.6,26.8,2.6,37.7,4.7c0.8,0.2,1.5,0.3,2.3,0.5c2,0.4,4.4,0.9,6.8,1.4c10-2.3,21.1-3.7,33.3-3.2c1.4,0,2.8,0.1,4.3,0.2
	c5,0.4,9.9,0.8,14.7,1.3c6.1,0.6,12.1,1.4,18.1,2.2c0.5-0.2,1-0.5,1.5-0.7c14.7-6.6,30.4-9.7,47.1-9.7c5,0,10.2,0.3,15.5,0.9
	c0.6,0.1,1.5,0.1,2.2,0.2c0.8,0.1,1.6,0.2,2.5,0.2c0.4,0,0.7-0.1,1-0.1c8-1.1,18.6-2.7,30.9-2.7c6,0,11.9,0.4,17.8,1.4
	c12.1,1.9,23.5,5.9,34.6,10.3c0.1,0,0.2,0.1,0.3,0.1c0.1,0,0.2,0.1,0.3,0.1c1.8,0.7,3.6,1.3,5.5,2c0.1,0,0.2,0.1,0.3,0.1
	C535.1,158.1,561.4,145.4,593.1,145.4"/>
<path id="line-30" class="st0" d="M596.7,136.6L596.7,136.6c18.3,0,42,3.9,66.6,18.4c6.5,4.1,12.6,8.3,19,13.2c4-1.1,8-2,12.3-2.7
	c7.7-1.2,15.4-1.8,23.1-1.6c12.6,0.3,24.7,2.4,36.4,5.8c13,3.8,25.4,9.5,36.9,16.6c7.9,5,15.2,11.1,21.7,18.2
	c10.7,10.3,19,23.9,23.2,38.5c6.5,22.8,5.2,46.1-1.5,69.7c-0.2,0.1-1.2,4.9-1.4,5c-0.2,0.2-1.7,4.8-1.9,4.9
	c-4.7,12.7-10.7,25-17.4,37.3c-6.2,14.5-17.8,25.4-26.2,37.8c-11.7,12.9-25.2,23-36.1,31.4c-2.2,1.7-4.8,3.6-7.4,5.6
	c-0.1,0.4-0.1,0.9-0.2,1.3c4,13.1,6.1,26.8,6.7,41.2c0.5,13.5-1,25.2-2.2,34.2c4.9,16.7,11.5,42.8,14.9,71.3
	c2.5,21.1,2.9,40.9,1,58.5c-3.1,29.4-12.7,54.6-28.9,73.8c-4.3,5.3-8.9,10.2-13.9,14.6c-4.5,3.7-9,7.2-13.7,10.5
	c-5.9,4.1-12.1,8-19,11.5c-13.8,6.9-28.4,11.1-43.7,12.6c-5,0.5-10.1,0.7-15.3,0.7c-4.4-0.1-8.9-0.3-13.3-0.8
	c-16.1,4.5-32.1,6.2-48,5.3c-18.6-0.9-36.6-5.5-53.8-13.4c-13.7-6.3-26.8-14.8-39.1-25.2c-9.8-7.8-18.1-15.7-25.3-23.3
	c-4.4-4.5-8.4-8.9-12.1-13.1c-15.6-1.8-30.2-6.6-44.1-15.7c-1-0.6-2.1-1.3-3.1-1.9c-5-3.1-9.8-6.4-14.5-9.9
	c-2.3-0.1-4.6-0.3-6.9-0.5c-9.4-0.8-18.7-2.4-27.6-5c-0.4,0-13.6-4.2-14-4.3c-0.3-0.2-9.9-6.9-10.3-7.1c-3.3-1.3-10-3.3-15.1-4.7
	c-22.1-6.4-54.4-14.8-83.3-38.5c0,0-0.4-0.3-0.4-0.3c0,0-0.4-0.3-0.4-0.3c-12.1-10.1-23.1-20.6-32.9-29.9
	c-7.1-6.8-13.9-13.3-20.4-19c-13.5-9.5-25.2-21.1-34.7-34.4c-1.1-1.5-2.1-3-3.1-4.5c-8.9-13-15-27.5-18.6-43.3
	c-3.8-16.9-4.1-33.2-3.2-47.2c-2.9-3.4-6-7.1-9.1-11.2c-8.5-11.7-15-24.8-20.5-38.7c-4.1-10.6-7.4-21.7-9.3-33.2
	c-0.9-5.5-1.5-10.7-1.8-15.6c-0.6-9-0.2-17.1,0.2-23.8c0.1-2.4,0.4-5.7,0.4-7c0-14.5,2.5-28.1,5.8-40.1c5.1-18,13.4-32.8,18.9-42.8
	c0,0,0-0.1,0-0.1s0-0.1,0-0.1c4.7-8.3,10.6-18.2,19.4-27.5c0.8-0.9,1.9-1.8,2.6-2.7c5.7-5.6,11.8-10.6,18.2-14.9
	c12.6-8.4,26.5-14.3,41.3-17.4c0.2,0,6-1.3,6.1-1.3c0.1,0,5.1-0.5,5.2-0.5c10.5-1.6,21.3-2.3,32.2-2.2c5.2,0,10.2,0.3,15,0.6
	c0.4,0,0.9,0.1,1.3,0.1c14.7,0.6,27.6,2.7,38.8,4.9c0.8,0.2,1.6,0.3,2.3,0.5c2.1,0.4,4.6,0.9,7,1.4c10.2-2.4,21.8-3.9,34.3-3.5
	c1.5,0,2.9,0.1,4.4,0.2c5.2,0.3,10.2,0.8,15.1,1.3c6.3,0.7,12.5,1.5,18.7,2.4c0.5-0.2,1.1-0.5,1.6-0.7c15.1-6.7,31.3-9.8,48.5-9.8
	c5.2,0,10.4,0.3,15.8,0.9c0.7,0.1,1.6,0.1,2.2,0.2c0.8,0.1,1.7,0.2,2.5,0.2c0.4,0,0.7-0.1,1.1-0.1c8.2-1.1,19-2.8,31.7-2.8
	c6.2,0,12.2,0.4,18.2,1.4c12.4,1.9,24.1,5.9,35.5,10.5c0.1,0,0.2,0.1,0.3,0.1c0.1,0,0.2,0.1,0.3,0.1c1.9,0.7,3.7,1.4,5.6,2.1
	c0.1,0,0.2,0.1,0.3,0.1C537.2,149.4,564.1,136.6,596.7,136.6"/>
</svg>
