<svg version="1.1" id="Livello_2_copia" xmlns:x="&ns_extend;" xmlns:i="&ns_ai;" xmlns:graph="&ns_graphs;"
	 xmlns="http://www.w3.org/2000/svg" xmlns:xlink="http://www.w3.org/1999/xlink" x="0px" y="0px" viewBox="0 0 907.1 907.1"
	 style="enable-background:new 0 0 907.1 907.1;" xml:space="preserve">
<style type="text/css">
	.st0{fill:none;stroke:#000000;stroke-miterlimit:10;}
</style>
<metadata>
	<sfw  xmlns="&ns_sfw;">
		<slices></slices>
		<sliceSourceBounds  bottomLeftOrigin="true" height="769.9" width="628.2" x="137.1" y="60.1"></sliceSourceBounds>
	</sfw>
</metadata>
<path id="line-1" class="st0" d="M441.9,381.9c2.4,0,5.4,0.5,9.5,1.6c0.3,0,0.6,0,0.8,0c2.3,0,4.4-0.7,6.7-0.7c0.1,0,0.2,0,0.2,0
	c1.9,0,3.2,0.5,4.8,0.5c0.8,0,1.6-0.1,2.6-0.5c1.4-0.5,2.7-0.6,4-0.6c3.1,0,6.3,0.9,9.5,0.9c0.7,0,1.4-0.1,2.1-0.1
	c1-0.1,2.2-0.2,3.5-0.2c5.4,0,12.4,1.1,12.7,1.2c4.2,1.3,11.3-0.5,12.9,5c1.8,6.4,0.1,13.5-3.8,18.8c-6.4,13-16.1,25.6-16,40.6
	c-0.4,13.5,18.3,9.4,2.2,35.2c-9.9,13.8-22.1,26-32.7,39.3c-6.7,7.9-15.8,18.7-26.5,20.6c-0.8,0.2-1.4,0.2-2,0.2
	c-6.2,0-3.6-7.7-13.6-7.8c-15-2.8-5.3-13.6-20.5-13.8c-4.3-0.7-9.9-1.4-11.1-6.3c-0.8-3.2-0.1-5.5,3-6.8c1.6-0.7,3.3-0.4,4.8-1
	c2-0.9,2.9-1.7,5.1-2c2.2-0.2,1.5,0,2.8-1.2c1.8-1.7,3.6-1.2,5-3.4c2.8-4.3-5-9.8-0.2-14.2c0-3.8-1.2-3.3,1.4-6.8
	c1-9.5-13.2-4.8-5.2-22.5c2.2-5.1-4.5-9.9,1.5-14c1.2-0.9,0.2-3.1,0.6-4.5c6-12.4,0.3-9.4-3.8-18.4c-1-4.4,3.1-7,1.4-11.8
	c-0.6-1.7-4.9-8-0.5-10.9c3.8-2.5,0.9-8.5,5.2-10.9c3.5-2.2,6.1-2.8,8.3-2.8c1.9,0,3.5,0.4,5,0.5c0.6,0,1.1,0,1.7,0
	C432.9,385.2,435.3,381.9,441.9,381.9"/>
<path id="line-2" class="st0" d="M441.2,371.4L441.2,371.4c2.7,0,6.1,0.5,10.6,1.8c0.2,0,0.3,0,0.5,0c0.1,0,0.3,0,0.4,0
	c1.6,0,3.2-0.3,4.7-0.5c0.1,0,0.2,0,0.2,0c0.1,0,0.1,0,0.2,0c0.1,0,0.1,0,0.2,0c0.7-0.1,1.3-0.1,2-0.1c0.1,0,0.2,0,0.3,0
	c0.2,0,0.4,0,0.6,0c1.8,0,3.2,0.4,4.8,0.3c0.9,0,1.8-0.1,2.9-0.5c1.5-0.5,2.9-0.6,4.4-0.6c1.7,0,3.3,0.2,4.9,0.5
	c0.2,0,0.5,0.1,0.7,0.1c1.6,0.2,3.1,0.4,4.7,0.4c0.5,0,1,0,1.4-0.1c0.3,0,0.6-0.1,0.9-0.1c1.1-0.1,2.4-0.2,3.8-0.2
	c2.4,0,5.2,0.2,7.6,0.5c3.3,0.3,5.9,0.8,6.2,0.8c0.5,0.1,1,0.2,1.5,0.3c0.1,0,0.3,0,0.4,0.1c4.4,0.6,10.5-0.1,12.4,4.8
	c2.5,5.5,2.5,12,0.4,17.8c0,0,0,0.1,0,0.1s0,0.1,0,0.1c-0.5,1.2-1,2.4-1.7,3.6c-1.2,3.1-2.5,6.2-4.1,9.3c-1.7,3.5-3.6,7.1-5.5,10.5
	c-1,1.9-1.9,3.8-2.8,5.6c-1.4,3-2.7,6-3.6,8.9c-0.8,4.2-1,8.9-0.9,14c-0.1,6.2,2.9,9.3,5.1,12.9c2.1,3.1,3.6,6.6,1.8,12.9
	c-0.1,0.2-0.2,0.5-0.2,0.7c-0.1,0.2-0.2,0.5-0.2,0.7c-1.3,3.5-3.5,7.7-6.7,12.8c-2.5,3.4-5,6.6-7.7,9.8c-3.4,4.1-6.9,8.2-10.3,12.2
	c-0.1,0.1-0.1,0.1-0.2,0.2c-0.1,0.1-0.1,0.1-0.2,0.2c-3.7,4.3-7.6,8.7-11.5,13.1c-2.6,2.9-5.2,5.8-7.8,8.7c-3.7,4.1-8,8.7-12.8,12.5
	c-1.9,1.5-3.9,3-6,4.2c-3.5,2.1-7.3,3.6-11.1,4c-0.8,0.1-1.5,0.1-2.2,0.1c-3.4-0.1-4.5-2.3-6.2-4.5c-0.7-0.9-1.5-1.8-2.6-2.5
	c-1.5-0.9-3.4-1.5-6.2-1.6c-7.2-1.4-9.3-4.6-10.9-7.8c-0.9-1.8-1.7-3.6-3.3-5c-1.7-1.2-4.2-2.1-8.5-2.3c-4.3-0.8-9.4-1.7-11.6-5.6
	c-0.3-0.5-0.5-1-0.7-1.6c-1-3.4-0.6-5.9,2.3-7.6c1.4-0.8,3.1-0.8,4.5-1.6c0.2-0.1,0.4-0.3,0.6-0.4c1.5-1,2.3-1.8,4.3-2.3
	c2.1-0.4,1.5-0.2,2.7-1.6c1.7-2,3.5-1.7,5-4.1c0.9-1.5,0.8-3.2,0.4-4.9c-0.9-3.7-3.2-7.5,0.3-10.8c0-0.6,0.1-1.1,0.1-1.6
	c0-2.4-0.3-2.6,2-5.7c0.3-1.6,0.2-2.8-0.1-3.8c-1.3-2.6-4.1-3.9-5.8-6.3c-2-2.8-2.7-6.8,0.9-15c0.7-1.9,0.5-3.7,0.2-5.5
	c-0.8-3.2-2.2-6.2,0.5-9.1c0.3-0.3,0.6-0.6,0.9-0.9c1.2-1.1,0.2-3.4,0.7-5c0.7-1.5,1.3-2.9,1.8-4.1c0.3-1,0.5-1.8,0.6-2.6
	c0.3-1.1,0.2-2.3,0-3c-0.2-0.9-0.7-2-1.2-2.7c-1.3-1.9-3.4-3.9-5.1-8.1c-0.3-1.8,0-3.4,0.5-4.9c0,0,0,0,0-0.1
	c0.5-1.7,1.1-3.3,1.2-5.2c0-0.9-0.1-1.8-0.4-2.8c-0.6-2.2-4.7-8.8-0.3-12.1c2.6-1.9,2.3-5.5,3.2-8.4c0.4-1.4,1.1-2.7,2.5-3.6
	c3.7-2.9,6.7-3.9,9.4-4.3c0.5-0.1,1.1-0.1,1.6-0.1c1.5,0,2.9,0.1,4.3,0c0.7,0,1.4-0.1,2-0.1c0.2,0,0.4,0,0.6,0
	c2.7-0.2,4.9-0.4,7-0.8c1.4-0.2,2.7-0.5,3.8-0.7c0,0,0,0,0,0c0,0,0.1,0,0.1,0c0.5-0.1,1-0.3,1.6-0.5
	C434.6,372.3,437.3,371.4,441.2,371.4"/>
<path id="line-3" class="st0" d="M440.5,360.9L440.5,360.9c3.1,0,6.8,0.5,11.6,1.9c0.2,0,0.4,0,0.6,0c0.2,0,0.3,0,0.5,0
	c1.7,0,3.4-0.4,5.2-0.6c0.1,0,0.2,0,0.2,0c0.1,0,0.2,0,0.2,0s0.2,0,0.2,0c0.7-0.1,1.5-0.1,2.2-0.1c0.1,0,0.2,0,0.3,0
	c0.2,0,0.4,0,0.6,0c1.9,0,3.5,0.3,5.2,0.3c1,0,2-0.1,3.2-0.5c1.6-0.5,3.2-0.6,4.8-0.6c1.8,0,3.6,0.3,5.3,0.5c0.3,0,0.5,0.1,0.8,0.1
	c1.7,0.2,3.4,0.3,5.1,0.3c0.5,0,1,0,1.5-0.1c0.3,0,0.6-0.1,1-0.1c1.2-0.1,2.6-0.2,4.1-0.2c2.6,0,5.6,0.3,8.2,0.5
	c3.5,0.4,6.3,0.8,6.8,0.9c0.5,0.1,1,0.3,1.6,0.3c0.2,0,0.3,0,0.5,0.1c4.7,0.6,11.1,0,13.6,5c3.6,5.8,4.4,13,2.7,19.9
	c0,0,0,0.1,0,0.1s0,0.1,0,0.1c-0.4,1.5-0.9,2.9-1.5,4.3c-1,3.7-2.4,7.3-4,11c-1.8,4.2-4,8.3-6.2,12.3c-1.1,2.2-2.2,4.4-3.3,6.5
	c-1.7,3.4-3.3,7-4.3,10.3c-0.4,4.7-0.2,10,0,16.1c-0.1,6.7,2.7,10.4,4.7,14.6c1.8,3.6,3,7.6,0.8,14.4c-0.1,0.2-0.2,0.6-0.3,0.8
	c-0.1,0.2-0.2,0.5-0.3,0.7c-1.7,4-4.2,8.6-7.9,14.1c-2.8,3.7-5.7,7.4-8.6,11c-3.8,4.6-7.7,9.1-11.5,13.6c-0.1,0.1-0.1,0.2-0.2,0.2
	c-0.1,0.1-0.2,0.2-0.2,0.2c-4,4.7-8.4,9.6-12.9,14.6c-3,3.3-6,6.4-8.9,9.5c-4.2,4.3-9.1,9.1-14.4,13c-2.1,1.6-4.4,3-6.6,4.2
	c-3.9,2-8,3.4-12.2,3.7c-0.9,0.1-1.6,0.1-2.4,0c-3.6-0.2-4.9-2.5-6.8-4.8c-0.8-1-1.7-1.9-2.9-2.7c-1.7-0.9-3.8-1.6-6.8-1.8
	c-7.6-1.6-10-5-12-8.5c-1.1-2-2-3.9-3.6-5.4c-1.9-1.3-4.7-2.2-9.2-2.5c-4.7-1-10.1-2.2-12.6-6.4c-0.3-0.5-0.6-1.1-0.8-1.7
	c-1.2-3.6-1-6.4,1.7-8.3c1.3-1,2.8-1.2,4.2-2.2c0.2-0.2,0.4-0.3,0.6-0.5c1.4-1.1,2.2-2.2,4.1-2.8c2-0.5,1.4-0.5,2.7-1.9
	c1.7-2.2,3.5-2.2,5-4.8c1-1.7,0.9-3.5,0.5-5.4c-0.7-4-2.7-8.2,1.1-11.7c0.1-0.6,0.1-1.2,0.2-1.7c0.2-2.5,0.1-2.9,2.6-6
	c0.4-1.6,0.5-2.9,0.4-3.9c-1.4-2.8-4.3-4.4-6.1-7.1c-2.1-3.3-2.8-7.9,0.8-16.5c0.8-2,0.6-4.1,0.3-6c-0.9-3.4-2.3-6.8,0.4-10
	c0.3-0.3,0.6-0.7,0.9-1c1.2-1.3,0.3-3.7,0.8-5.4c0.8-1.7,1.4-3.1,1.9-4.5c0.2-1,0.4-1.9,0.4-2.8c0.2-1.1,0-2.5-0.1-3.2
	c-0.2-0.9-0.7-2.3-1.3-3c-1.4-2.3-3.4-4.6-5.1-9c-0.3-2,0.1-3.7,0.6-5.4c0,0,0,0,0-0.1c0.4-1.8,1-3.6,1-5.7c0-1-0.1-2-0.5-3
	c-0.7-2.6-4.6-9.6-0.1-13.3c2.6-2.2,2.5-6,3.6-9.2c0.4-1.5,1.1-3,2.6-4c3.9-3.4,7.2-5,10.4-5.8c0.6-0.1,1.2-0.2,1.8-0.3
	c1.7-0.2,3.4-0.2,5-0.4c0.8-0.1,1.6-0.2,2.3-0.2c0.2,0,0.5-0.1,0.7-0.1c3.1-0.3,5.7-0.6,8.2-0.9c1.7-0.2,3.2-0.4,4.4-0.6
	c0,0,0,0,0,0c0,0,0.1,0,0.1,0c0.6-0.1,1-0.3,1.8-0.5C432.6,362,435.9,360.9,440.5,360.9"/>
<path id="line-4" class="st0" d="M439.8,350.4L439.8,350.4c3.4,0,7.5,0.6,12.7,2c0.2,0,0.4,0,0.6,0.1c0.2,0,0.3,0,0.5,0
	c1.8-0.1,3.7-0.4,5.7-0.6c0.1,0,0.2,0,0.3,0c0.1,0,0.2,0,0.2,0s0.2,0,0.2,0c0.8-0.1,1.6-0.1,2.4-0.1c0.1,0,0.2,0,0.3,0
	c0.2,0,0.4,0,0.7,0c2.1,0,3.8,0.2,5.7,0.2c1.1,0,2.2-0.1,3.5-0.5c1.8-0.5,3.5-0.6,5.2-0.5c2,0.1,3.9,0.3,5.8,0.6
	c0.3,0,0.6,0.1,0.8,0.1c1.8,0.1,3.7,0.3,5.5,0.3c0.6,0,1.1,0,1.7-0.1c0.4,0,0.7-0.1,1.1-0.1c1.3-0.1,2.8-0.2,4.4-0.2
	c2.8,0,6,0.3,8.9,0.6c3.7,0.4,6.7,0.8,7.3,1c0.6,0.1,1.1,0.3,1.7,0.4c0.2,0,0.3,0,0.5,0.1c4.9,0.6,11.8,0,14.9,5.2
	c4.7,6.2,6.3,14.1,5,22c0,0,0,0.1,0,0.1c0,0,0,0.1,0,0.1c-0.3,1.7-0.8,3.3-1.3,4.9c-0.9,4.2-2.3,8.5-4,12.7
	c-1.9,4.8-4.3,9.5-6.9,14.1c-1.3,2.5-2.6,4.9-3.8,7.4c-2,3.9-3.8,7.9-5,11.7c0,5.1,0.7,11.1,0.9,18.2c0,7.2,2.6,11.6,4.3,16.4
	c1.6,4.1,2.5,8.6-0.1,15.9c0,0.2-0.3,0.7-0.3,0.9c-0.1,0.2-0.3,0.6-0.3,0.8c-2.1,4.5-5,9.5-9,15.4c-3.1,4.1-6.4,8.1-9.6,12.1
	c-4.3,5.1-8.6,10.1-12.8,15.1c0,0.1-0.2,0.2-0.2,0.3c0,0.1-0.2,0.2-0.2,0.3c-4.4,5.1-9.2,10.6-14.4,16.1c-3.4,3.6-6.8,7-10.1,10.3
	c-4.8,4.6-10.1,9.5-16,13.4c-2.4,1.6-4.8,3-7.3,4.1c-4.3,2-8.8,3.3-13.3,3.4c-0.9,0.1-1.8,0-2.6-0.1c-3.8-0.4-5.3-2.8-7.4-5.2
	c-0.9-1-1.9-2.1-3.1-2.9c-1.9-0.9-4.2-1.7-7.3-2c-7.9-1.8-10.7-5.4-13-9.1c-1.2-2.1-2.2-4.2-4-5.8c-2.2-1.3-5.3-2.3-10-2.8
	c-5.1-1.2-10.9-2.7-13.7-7.1c-0.4-0.6-0.7-1.2-0.9-1.8c-1.5-3.8-1.4-6.9,1-9.1c1.2-1.2,2.6-1.6,3.9-2.8c0.2-0.2,0.4-0.4,0.5-0.5
	c1.3-1.3,2-2.6,3.9-3.4c2-0.6,1.4-0.7,2.6-2.3c1.7-2.4,3.4-2.7,4.9-5.5c1-1.9,1-3.8,0.7-5.9c-0.5-4.4-2.2-8.8,1.9-12.7
	c0.1-0.7,0.2-1.3,0.3-1.8c0.3-2.6,0.5-3.2,3.1-6.3c0.6-1.7,0.8-3,0.8-4.1c-1.6-3-4.5-4.9-6.4-8c-2.2-3.8-2.9-8.9,0.7-18.1
	c0.8-2.2,0.7-4.4,0.4-6.5c-0.9-3.6-2.3-7.3,0.4-10.8c0.3-0.4,0.6-0.7,0.9-1.1c1.2-1.4,0.4-4,0.9-5.9c0.8-1.8,1.5-3.4,2-4.8
	c0.2-1.1,0.3-2.1,0.3-3c0.2-1-0.1-2.8-0.3-3.5c-0.2-0.9-0.8-2.6-1.3-3.3c-1.4-2.6-3.5-5.2-5.1-9.9c-0.3-2.1,0.1-4,0.7-5.8
	c0,0,0,0,0-0.1c0.4-2,0.9-3.9,0.9-6.2c0-1-0.2-2.1-0.5-3.3c-0.7-3.1-4.5-10.5,0.1-14.5c2.7-2.5,2.7-6.5,4-9.9
	c0.5-1.6,1.2-3.2,2.7-4.4c4.1-4,7.8-6.2,11.5-7.4c0.7-0.2,1.4-0.3,2.1-0.5c2-0.4,3.8-0.5,5.6-0.8c0.9-0.1,1.8-0.3,2.7-0.4
	c0.3,0,0.5-0.1,0.8-0.1c3.4-0.4,6.5-0.8,9.3-1.1c2-0.2,3.7-0.4,5.1-0.6c0,0,0,0,0,0c0,0,0.1,0,0.1,0c0.7-0.1,1.1-0.3,2.1-0.6
	C430.6,351.7,434.4,350.4,439.8,350.4"/>
<path id="line-5" class="st0" d="M439.1,339.9L439.1,339.9c3.8,0,8.2,0.6,13.7,2.1c0.2,0,0.4,0.1,0.6,0.1c0.2,0,0.4,0,0.5,0
	c2-0.1,4-0.4,6.2-0.6c0.1,0,0.2,0,0.3,0c0.1,0,0.2,0,0.3,0s0.2,0,0.3,0c0.9-0.1,1.7-0.1,2.6-0.1c0.1,0,0.3,0,0.3,0
	c0.2,0,0.5,0,0.7,0c2.2-0.1,4.1,0.1,6.2,0.1c1.2,0,2.4-0.2,3.8-0.5c1.9-0.4,3.7-0.5,5.5-0.5c2.2,0.1,4.2,0.4,6.2,0.7
	c0.3,0,0.6,0.1,0.9,0.1c1.9,0.1,3.9,0.3,5.9,0.2c0.6,0,1.2,0,1.8-0.1c0.4,0,0.8,0,1.1-0.1c1.4-0.1,3-0.2,4.7-0.1
	c3,0.1,6.4,0.3,9.5,0.6c4,0.4,7,0.9,7.8,1.1c0.6,0.2,1.2,0.3,1.8,0.4c0.2,0,0.4,0,0.5,0.1c5.1,0.6,12.4,0.1,16.1,5.4
	c5.7,6.5,8.2,15.2,7.2,24.1c0,0,0,0.1,0,0.2c0,0,0,0.1,0,0.2c-0.2,1.9-0.6,3.7-1.1,5.6c-0.8,4.8-2.2,9.6-4,14.4
	c-2.1,5.4-4.7,10.7-7.7,15.8c-1.4,2.8-2.9,5.5-4.3,8.3c-2.2,4.4-4.4,8.9-5.7,13.1c0.4,5.5,1.6,12.2,1.8,20.3
	c0,7.7,2.5,12.7,3.8,18.1c1.4,4.6,1.9,9.5-1,17.4c0,0.2-0.3,0.7-0.4,0.9c-0.1,0.2-0.3,0.7-0.4,0.9c-2.4,5-5.7,10.5-10.1,16.8
	c-3.5,4.5-7,8.9-10.6,13.2c-4.7,5.6-9.4,11.1-14,16.5c0,0.1-0.2,0.2-0.2,0.3s-0.2,0.2-0.2,0.3c-4.7,5.5-10,11.6-15.8,17.6
	c-3.8,3.9-7.5,7.6-11.3,11.1c-5.3,4.8-11.2,9.8-17.6,13.8c-2.6,1.6-5.3,3-8,4.1c-4.7,2-9.5,3.1-14.4,3.1c-1,0-1.9,0-2.7-0.2
	c-4-0.5-5.8-3-8.1-5.6c-1-1.1-2-2.2-3.3-3.2c-2.1-1-4.6-1.8-7.9-2.2c-8.2-2-11.5-5.8-14.1-9.8c-1.4-2.2-2.5-4.4-4.4-6.2
	c-2.4-1.3-5.8-2.4-10.7-3c-5.5-1.4-11.6-3.2-14.8-7.9c-0.4-0.6-0.7-1.2-1-1.9c-1.7-4-1.9-7.3,0.4-9.9c1.1-1.4,2.4-1.9,3.5-3.3
	c0.2-0.2,0.3-0.4,0.5-0.6c1.3-1.5,1.9-3,3.7-4c1.9-0.7,1.3-1,2.5-2.6c1.6-2.7,3.4-3.2,4.9-6.2c1-2,1.1-4.2,0.9-6.3
	c-0.3-4.7-1.7-9.5,2.6-13.6c0.2-0.7,0.3-1.3,0.5-1.9c0.5-2.8,0.9-3.4,3.7-6.7c0.7-1.7,1.1-3.1,1.2-4.2c-1.7-3.2-4.7-5.4-6.7-8.8
	c-2.3-4.4-3-10,0.6-19.6c0.8-2.4,0.8-4.7,0.6-7c-1-3.9-2.4-7.8,0.3-11.7c0.3-0.4,0.6-0.8,0.9-1.2c1.2-1.6,0.4-4.3,1-6.3
	c0.8-1.9,1.5-3.6,2.2-5.2c0.1-1.2,0.2-2.2,0.2-3.2c0.2-1-0.3-3-0.4-3.7c-0.1-0.9-0.8-2.9-1.4-3.6c-1.5-2.9-3.5-5.8-5-10.8
	c-0.3-2.3,0.1-4.3,0.7-6.3c0,0,0,0,0-0.1c0.3-2.1,0.8-4.2,0.7-6.6c0-1.1-0.2-2.3-0.5-3.6c-0.7-3.5-4.4-11.3,0.2-15.7
	c2.8-2.8,2.9-7,4.4-10.6c0.5-1.8,1.3-3.5,2.8-4.8c4.3-4.6,8.3-7.3,12.6-8.9c0.8-0.2,1.5-0.4,2.3-0.6c2.2-0.5,4.2-0.8,6.3-1.2
	c1-0.2,2-0.4,3-0.5c0.3-0.1,0.6-0.1,0.9-0.1c3.8-0.5,7.3-1,10.5-1.3c2.3-0.2,4.3-0.3,5.8-0.5c0,0,0,0,0,0c0,0,0.1,0,0.1,0
	c0.8-0.1,1.2-0.2,2.4-0.6C428.6,341.4,433,339.9,439.1,339.9"/>
<path id="line-6" class="st0" d="M438.4,329.4L438.4,329.4c4.1,0,8.9,0.6,14.8,2.2c0.2,0,0.5,0.1,0.7,0.1c0.2,0,0.4,0,0.6,0
	c2.1-0.1,4.3-0.4,6.6-0.6c0.1,0,0.3,0,0.3,0c0.1,0,0.2,0,0.3,0s0.2,0,0.3,0c1-0.1,1.9-0.1,2.8-0.1c0.1,0,0.3,0,0.4,0
	c0.3,0,0.5,0,0.8,0c2.4-0.1,4.4,0.1,6.6,0c1.3,0,2.6-0.2,4.1-0.5c2-0.4,4-0.5,5.9-0.5c2.3,0.1,4.5,0.4,6.6,0.7c0.3,0,0.6,0.1,1,0.1
	c2.1,0.1,4.2,0.2,6.3,0.2c0.6,0,1.3,0,1.9-0.1c0.4,0,0.8,0,1.2-0.1c1.5-0.1,3.2-0.2,5.1-0.1c3.2,0.1,6.8,0.3,10.2,0.7
	c4.2,0.4,7.4,0.9,8.4,1.1c0.7,0.2,1.3,0.3,2,0.4c0.2,0,0.4,0,0.6,0.1c5.4,0.6,13.1,0.2,17.3,5.6c6.8,6.8,10.2,16.2,9.5,26.2
	c0,0,0,0.1,0,0.2s0,0.1,0,0.2c-0.2,2.1-0.5,4.2-0.9,6.2c-0.7,5.3-2.1,10.7-4,16c-2.2,6-5,12-8.4,17.6c-1.6,3.1-3.2,6.1-4.7,9.1
	c-2.5,4.9-4.9,9.9-6.4,14.4c0.8,5.9,2.4,13.3,2.7,22.4c0,8.3,2.3,13.8,3.4,19.9c1.1,5,1.4,10.5-1.9,18.9c0,0.2-0.4,0.8-0.4,1
	c0,0.2-0.4,0.8-0.5,1c-2.8,5.5-6.5,11.4-11.2,18.1c-3.8,4.9-7.7,9.7-11.6,14.3c-5.2,6.1-10.3,12.1-15.3,18c0,0.1-0.2,0.3-0.3,0.3
	s-0.2,0.3-0.3,0.3c-5,5.9-10.9,12.6-17.2,19.1c-4.2,4.3-8.3,8.2-12.4,11.8c-5.8,5.1-12.3,10.2-19.2,14.2c-2.8,1.6-5.7,3-8.7,4.1
	c-5.1,1.9-10.2,3-15.4,2.8c-1,0-2-0.1-2.9-0.3c-4.2-0.6-6.2-3.2-8.7-5.9c-1.1-1.2-2.2-2.3-3.6-3.4c-2.3-1-5-1.9-8.4-2.4
	c-8.6-2.2-12.2-6.2-15.1-10.5c-1.5-2.4-2.8-4.7-4.8-6.6c-2.7-1.4-6.3-2.5-11.5-3.3c-5.9-1.6-12.4-3.7-15.8-8.7
	c-0.4-0.6-0.8-1.3-1.2-2c-1.9-4.2-2.3-7.8-0.2-10.6c1-1.5,2.2-2.3,3.2-3.9c0.2-0.2,0.3-0.5,0.5-0.7c1.2-1.7,1.8-3.4,3.5-4.6
	c1.9-0.8,1.3-1.2,2.4-2.9c1.6-2.9,3.3-3.7,4.9-7c1-2.2,1.1-4.5,1-6.8c-0.1-5.1-1.2-10.2,3.4-14.6c0.2-0.7,0.4-1.4,0.6-2
	c0.7-2.9,1.3-3.7,4.3-7c0.8-1.8,1.3-3.2,1.7-4.4c-1.8-3.5-4.9-5.9-7-9.6c-2.4-4.9-3.2-11.1,0.6-21.2c0.8-2.5,0.8-5,0.7-7.5
	c-1-4.1-2.4-8.4,0.3-12.6c0.3-0.5,0.6-0.9,0.9-1.4c1.2-1.8,0.5-4.6,1.1-6.8c0.9-2,1.6-3.9,2.3-5.6c0.1-1.2,0.1-2.4,0-3.4
	c0.2-1-0.4-3.3-0.5-4c-0.1-0.9-0.9-3.2-1.4-3.8c-1.5-3.2-3.5-6.5-5-11.7c-0.3-2.4,0.2-4.6,0.8-6.7c0,0,0-0.1,0-0.1
	c0.2-2.2,0.6-4.5,0.5-7.1c-0.1-1.2-0.2-2.5-0.5-3.8c-0.7-4-4.3-12.1,0.4-16.9c2.8-3.1,3.1-7.6,4.8-11.4c0.5-1.9,1.3-3.7,2.9-5.2
	c4.4-5.2,8.9-8.4,13.6-10.4c0.8-0.3,1.7-0.6,2.5-0.8c2.4-0.7,4.7-1.1,7-1.6c1.1-0.2,2.2-0.5,3.3-0.7c0.3-0.1,0.7-0.1,1-0.2
	c4.2-0.7,8.1-1.2,11.7-1.5c2.6-0.2,4.8-0.3,6.4-0.4c0,0,0,0,0.1,0c0.1,0,0.1,0,0.2,0c0.9-0.1,1.3-0.2,2.7-0.7
	C426.6,331,431.5,329.4,438.4,329.4"/>
<path id="line-7" class="st0" d="M437.7,318.9L437.7,318.9c4.5,0,9.6,0.7,15.8,2.3c0.2,0,0.5,0.1,0.7,0.1c0.2,0,0.4,0,0.6,0
	c2.2-0.1,4.6-0.5,7.1-0.7c0.1,0,0.3,0,0.3,0c0.1,0,0.3,0,0.3,0c0.1,0,0.3,0,0.3,0c1-0.1,2-0.1,3-0.1c0.1,0,0.3,0,0.4,0
	c0.3,0,0.6,0,0.8,0c2.5-0.1,4.7,0,7.1-0.1c1.4,0,2.8-0.2,4.4-0.5c2.2-0.4,4.3-0.5,6.3-0.4c2.5,0.1,4.9,0.4,7,0.8
	c0.3,0,0.7,0.1,1,0.2c2.2,0.1,4.4,0.2,6.7,0.2c0.7,0,1.4,0,2-0.1c0.4,0,0.9,0,1.3-0.1c1.6-0.1,3.4-0.1,5.4-0.1
	c3.4,0.1,7.2,0.4,10.8,0.8c4.4,0.5,7.8,1,8.9,1.2c0.7,0.2,1.4,0.3,2.1,0.4c0.2,0,0.4,0,0.6,0.1c5.6,0.6,13.8,0.2,18.5,5.7
	c7.9,7.1,12.1,17.3,11.8,28.3c0,0,0,0.2,0,0.2c0,0,0,0.2,0,0.2c-0.1,2.3-0.3,4.6-0.8,6.9c-0.6,5.9-2,11.8-4,17.7
	c-2.3,6.7-5.4,13.2-9.1,19.3c-1.8,3.4-3.5,6.7-5.2,10c-2.8,5.4-5.5,10.9-7.1,15.8c1.2,6.3,3.3,14.4,3.7,24.5
	c0.1,8.8,2.2,14.9,3,21.6c0.9,5.5,0.8,11.5-2.8,20.4c0,0.2-0.4,0.9-0.5,1.1c0,0.2-0.5,0.9-0.5,1c-3.2,5.9-7.2,12.3-12.3,19.4
	c-4.1,5.3-8.3,10.4-12.6,15.4c-5.6,6.6-11.1,13-16.5,19.5c0,0.1-0.2,0.3-0.3,0.3c0,0.1-0.2,0.3-0.3,0.3
	c-5.4,6.3-11.7,13.6-18.6,20.6c-4.6,4.6-9.1,8.8-13.6,12.6c-6.3,5.3-13.3,10.6-20.8,14.7c-3.1,1.6-6.2,3-9.4,4.1
	c-5.5,1.9-11,2.8-16.5,2.5c-1.1,0-2.1-0.2-3.1-0.4c-4.4-0.7-6.6-3.5-9.3-6.3c-1.2-1.2-2.4-2.5-3.8-3.6c-2.5-1.1-5.4-2-8.9-2.6
	c-8.9-2.3-12.9-6.6-16.2-11.2c-1.7-2.5-3.1-4.9-5.2-7c-2.9-1.4-6.8-2.6-12.2-3.5c-6.3-1.8-13.1-4.1-16.9-9.4
	c-0.5-0.7-0.9-1.4-1.3-2.2c-2.1-4.4-2.7-8.2-0.9-11.4c0.8-1.7,1.9-2.7,2.9-4.5c0.2-0.3,0.3-0.5,0.4-0.8c1.1-1.9,1.6-3.7,3.3-5.1
	c1.8-0.9,1.2-1.4,2.4-3.3c1.5-3.1,3.3-4.2,4.9-7.7c1-2.4,1.2-4.8,1.2-7.3c0.1-5.5-0.7-10.9,4.1-15.5c0.3-0.8,0.5-1.5,0.7-2.1
	c0.9-3,1.7-4,4.8-7.4c1-1.8,1.6-3.3,2.1-4.5c-2-3.7-5.2-6.4-7.2-10.4c-2.5-5.4-3.3-12.2,0.5-22.7c0.9-2.7,0.9-5.4,0.9-8
	c-1-4.3-2.4-8.9,0.2-13.5c0.3-0.5,0.6-1,0.9-1.5c1.2-1.9,0.6-4.9,1.2-7.2c0.9-2.2,1.7-4.1,2.5-5.9c0-1.3,0-2.5-0.1-3.6
	c0.2-1-0.6-3.6-0.7-4.2c-0.1-0.8-0.9-3.4-1.5-4.1c-1.6-3.5-3.5-7.1-5-12.6c-0.2-2.6,0.2-4.9,0.9-7.2c0,0,0-0.1,0-0.1
	c0.2-2.4,0.5-4.8,0.4-7.6c-0.1-1.3-0.2-2.7-0.6-4.1c-0.8-4.4-4.1-12.9,0.6-18.1c2.9-3.4,3.4-8.1,5.2-12.1c0.5-2,1.4-4,3-5.6
	c4.6-5.8,9.5-9.6,14.7-11.9c0.9-0.4,1.8-0.7,2.8-1c2.6-0.8,5.1-1.4,7.7-2c1.2-0.3,2.4-0.6,3.6-0.8c0.4-0.1,0.8-0.2,1.1-0.2
	c4.6-0.8,8.8-1.4,12.9-1.7c2.9-0.2,5.3-0.2,7.1-0.4c0,0,0,0,0.1,0c0.1,0,0.1,0,0.2,0c1-0.1,1.4-0.2,3-0.7
	C424.6,320.7,430.1,318.9,437.7,318.9"/>
<path id="line-8" class="st0" d="M437,308.4L437,308.4c4.8,0,10.3,0.7,16.9,2.4c0.3,0,0.5,0.1,0.8,0.1c0.2,0,0.5,0,0.7,0
	c2.4-0.1,4.9-0.5,7.6-0.7c0.1,0,0.3,0,0.4,0c0.1,0,0.3,0,0.3,0s0.3,0,0.3,0c1.1-0.1,2.2-0.1,3.2,0c0.2,0,0.3,0,0.4,0
	c0.3,0,0.6,0,0.9,0.1c2.7-0.2,5-0.1,7.6-0.2c1.5-0.1,3-0.2,4.7-0.5c2.3-0.4,4.5-0.5,6.7-0.4c2.7,0.1,5.2,0.5,7.4,0.8
	c0.4,0.1,0.7,0.1,1.1,0.2c2.3,0.1,4.7,0.2,7.1,0.1c0.7,0,1.4,0,2.2-0.1c0.5,0,0.9,0,1.4-0.1c1.7-0.1,3.6-0.1,5.7-0.1
	c3.6,0.1,7.6,0.4,11.5,0.8c4.6,0.5,8.1,1,9.4,1.3c0.7,0.2,1.5,0.3,2.2,0.5c0.2,0,0.4,0,0.6,0.1c5.8,0.7,14.4,0.3,19.7,5.9
	c9,7.4,14,18.4,14.1,30.4c0,0,0,0.2,0,0.2c0,0,0,0.2,0,0.2c0,2.5-0.2,5.1-0.6,7.6c-0.5,6.4-1.9,13-4,19.4
	c-2.4,7.3-5.8,14.4-9.8,21.1c-1.9,3.7-3.8,7.3-5.7,10.9c-3.1,5.9-6.1,11.9-7.8,17.2c1.6,6.7,4.1,15.5,4.6,26.6
	c0.1,9.3,2.1,16,2.5,23.4c0.6,6,0.2,12.5-3.8,21.9c0,0.2-0.5,1-0.5,1.2c0,0.2-0.5,0.9-0.6,1.1c-3.6,6.4-8,13.3-13.4,20.8
	c-4.4,5.7-9,11.2-13.6,16.6c-6,7.1-12,14-17.7,20.9c0,0.1-0.3,0.3-0.3,0.4c0,0.1-0.3,0.3-0.3,0.4c-5.7,6.7-12.5,14.6-20.1,22.1
	c-5,4.9-9.8,9.3-14.8,13.4c-6.9,5.6-14.4,11-22.3,15.1c-3.3,1.7-6.7,3.1-10.1,4.1c-5.8,1.8-11.7,2.7-17.6,2.1
	c-1.2-0.1-2.2-0.2-3.3-0.5c-4.6-0.8-7.1-3.7-9.9-6.7c-1.3-1.3-2.6-2.6-4.1-3.8c-2.7-1.1-5.8-2.1-9.5-2.8c-9.2-2.5-13.6-7-17.2-11.8
	c-1.9-2.6-3.4-5.2-5.5-7.4c-3.2-1.4-7.3-2.8-13-3.8c-6.7-2-13.8-4.6-17.9-10.2c-0.5-0.7-1-1.5-1.4-2.3c-2.3-4.6-3.2-8.7-1.5-12.1
	c0.7-1.9,1.7-3.1,2.6-5.1c0.1-0.3,0.3-0.6,0.4-0.9c1-2.1,1.5-4.1,3.1-5.7c1.8-1.1,1.2-1.7,2.3-3.6c1.5-3.4,3.2-4.8,4.9-8.4
	c1.1-2.5,1.3-5.1,1.4-7.8c0.3-5.8-0.2-11.6,4.9-16.5c0.3-0.8,0.6-1.5,0.9-2.2c1.1-3.1,2.1-4.3,5.4-7.7c1.1-1.9,1.9-3.4,2.5-4.7
	c-2.1-3.9-5.4-7-7.5-11.3c-2.7-6-3.4-13.2,0.4-24.3c0.9-2.9,1-5.7,1-8.5c-1.1-4.6-2.5-9.4,0.2-14.4c0.3-0.5,0.6-1.1,0.9-1.6
	c1.2-2.1,0.6-5.2,1.3-7.7c0.9-2.3,1.8-4.4,2.6-6.3c0-1.3-0.1-2.6-0.3-3.9c0.2-1-0.7-3.8-0.8-4.5c-0.1-0.8-1-3.7-1.5-4.4
	c-1.6-3.8-3.6-7.7-4.9-13.5c-0.2-2.7,0.2-5.2,0.9-7.6c0,0,0-0.1,0-0.1c0.1-2.5,0.4-5.2,0.2-8.1c-0.1-1.4-0.3-2.8-0.6-4.3
	c-0.8-4.9-4-13.7,0.8-19.3c2.9-3.7,3.6-8.6,5.6-12.9c0.6-2.1,1.5-4.2,3.1-6c4.8-6.4,10-10.7,15.7-13.5c1-0.4,2-0.8,3-1.1
	c2.8-1,5.6-1.7,8.3-2.4c1.4-0.3,2.7-0.6,4-0.9c0.4-0.1,0.8-0.2,1.2-0.3c4.9-0.9,9.6-1.6,14.1-1.9c3.2-0.2,5.9-0.2,7.7-0.3
	c0,0,0,0,0.1,0c0.1,0,0.1,0,0.2,0c1.1-0.1,1.5-0.2,3.2-0.8C422.6,310.4,428.6,308.4,437,308.4"/>
<path id="line-9" class="st0" d="M436.3,297.9L436.3,297.9c5.1,0,10.9,0.7,17.9,2.5c0.3,0,0.6,0.1,0.8,0.1c0.2,0,0.5,0,0.7,0
	c2.5-0.2,5.2-0.5,8-0.7c0.1,0,0.3,0,0.4,0c0.1,0,0.3,0,0.4,0c0.1,0,0.3,0,0.4,0c1.2-0.1,2.3-0.1,3.4,0c0.2,0,0.3,0,0.5,0
	c0.3,0,0.6,0,0.9,0.1c2.8-0.2,5.3-0.1,8-0.2c1.6-0.1,3.2-0.2,5-0.5c2.5-0.4,4.8-0.5,7.1-0.4c2.8,0.1,5.5,0.5,7.9,0.9
	c0.4,0.1,0.8,0.1,1.2,0.2c2.4,0,4.9,0.1,7.5,0.1c0.8,0,1.5,0,2.3-0.1c0.5,0,1,0,1.4-0.1c1.8-0.1,3.9-0.1,6-0.1
	c3.8,0.1,8,0.4,12.1,0.9c4.8,0.5,8.5,1.1,10,1.4c0.8,0.2,1.6,0.3,2.3,0.5c0.2,0,0.5,0,0.7,0.1c6.1,0.7,15.1,0.3,20.9,6.1
	c10,7.7,15.9,19.5,16.4,32.5c0,0,0,0.2,0,0.2s0,0.2,0,0.2c0.1,2.7-0.1,5.5-0.4,8.2c-0.4,7-1.8,14.1-4,21.1
	c-2.5,7.9-6.1,15.7-10.5,22.9c-2.1,4-4.2,7.9-6.2,11.8c-3.3,6.4-6.6,12.9-8.5,18.6c2,7.2,5,16.6,5.5,28.7c0.2,9.8,2,17.2,2.1,25.2
	c0.4,6.5-0.3,13.5-4.7,23.4c0,0.2-0.5,1.1-0.6,1.2c0,0.2-0.6,1-0.6,1.2c-4,6.9-8.7,14.2-14.5,22.1c-4.8,6.1-9.7,11.9-14.6,17.7
	c-6.5,7.6-12.8,15-19,22.4c0,0.1-0.3,0.3-0.3,0.4c0,0.1-0.3,0.3-0.3,0.4c-6,7.1-13.3,15.6-21.5,23.6c-5.3,5.2-10.6,9.9-16,14.2
	c-7.4,5.9-15.4,11.4-23.9,15.5c-3.5,1.7-7.1,3.1-10.7,4.1c-6.2,1.8-12.5,2.5-18.7,1.8c-1.2-0.1-2.4-0.3-3.5-0.6
	c-4.8-0.9-7.5-3.9-10.6-7c-1.4-1.4-2.8-2.8-4.3-4c-2.9-1.2-6.2-2.3-10-3c-9.6-2.7-14.3-7.4-18.3-12.5c-2-2.7-3.7-5.5-5.9-7.8
	c-3.4-1.5-7.8-2.9-13.8-4c-7.1-2.2-14.6-5.1-19-11c-0.6-0.7-1.1-1.5-1.5-2.4c-2.6-4.8-3.6-9.2-2.2-12.9c0.6-2.1,1.5-3.5,2.3-5.6
	c0.1-0.3,0.2-0.6,0.4-1c0.9-2.3,1.4-4.5,2.9-6.3c1.7-1.2,1.1-1.9,2.2-4c1.5-3.6,3.2-5.3,4.8-9.1c1.1-2.7,1.4-5.5,1.5-8.3
	c0.5-6.2,0.3-12.2,5.6-17.4c0.3-0.8,0.7-1.6,1-2.3c1.3-3.3,2.4-4.5,6-8c1.2-1.9,2.2-3.5,3-4.8c-2.2-4.1-5.6-7.5-7.8-12.1
	c-2.8-6.5-3.5-14.3,0.3-25.8c0.9-3,1.1-6,1.2-9c-1.1-4.8-2.5-10,0.1-15.3c0.3-0.6,0.6-1.2,0.9-1.7c1.2-2.3,0.7-5.6,1.5-8.2
	c1-2.4,1.9-4.6,2.7-6.7c-0.1-1.4-0.2-2.8-0.4-4.1c0.2-0.9-0.9-4.1-1-4.7c-0.1-0.8-1.1-4-1.6-4.7c-1.7-4.1-3.6-8.4-4.9-14.4
	c-0.2-2.8,0.3-5.5,1-8.1c0,0,0-0.1,0-0.1c0-2.7,0.3-5.5,0.1-8.6c-0.1-1.5-0.3-3-0.6-4.6c-0.8-5.4-3.9-14.5,1-20.5
	c3-4,3.8-9.1,6-13.6c0.6-2.2,1.5-4.5,3.2-6.4c5-7,10.6-11.8,16.8-15c1.1-0.5,2.1-0.9,3.2-1.3c3-1.1,6-2,9-2.8
	c1.5-0.4,2.9-0.7,4.3-1.1c0.4-0.1,0.9-0.2,1.3-0.3c5.3-1.1,10.4-1.8,15.3-2c3.5-0.2,6.4-0.2,8.4-0.2c0,0,0,0,0.1,0
	c0.1,0,0.1,0,0.2,0c1.2-0.1,1.6-0.2,3.5-0.9C420.6,300.1,427.2,297.9,436.3,297.9"/>
<path id="line-10" class="st0" d="M435.6,287.5L435.6,287.5c5.5,0,11.6,0.8,19,2.6c0.3,0,0.6,0.1,0.9,0.1c0.3,0,0.5,0,0.8-0.1
	c2.6-0.2,5.5-0.6,8.5-0.7c0.1,0,0.4,0,0.4,0c0.1,0,0.3,0,0.4,0s0.3,0,0.4,0c1.2,0,2.4-0.1,3.6,0c0.2,0,0.3,0,0.5,0
	c0.3,0,0.7,0,1,0.1c3-0.3,5.6-0.2,8.5-0.3c1.7-0.1,3.4-0.2,5.3-0.5c2.6-0.4,5.1-0.4,7.5-0.3c3,0.2,5.8,0.6,8.3,0.9
	c0.4,0.1,0.8,0.1,1.2,0.2c2.6,0,5.2,0.1,7.9,0.1c0.8,0,1.6,0,2.4-0.1c0.5,0,1,0,1.5-0.1c1.9-0.1,4.1-0.1,6.3-0.1
	c4,0.1,8.5,0.5,12.8,0.9c5,0.5,8.9,1.1,10.5,1.4c0.8,0.2,1.7,0.4,2.5,0.5c0.2,0,0.5,0.1,0.7,0.1c6.3,0.7,15.7,0.4,22.2,6.3
	c11.1,8,17.8,20.5,18.7,34.5c0,0,0,0.2,0,0.2s0,0.2,0,0.2c0.1,3,0.1,5.9-0.2,8.9c-0.3,7.5-1.7,15.2-4,22.7
	c-2.6,8.5-6.5,16.9-11.2,24.6c-2.2,4.3-4.5,8.5-6.6,12.7c-3.6,6.9-7.2,13.9-9.2,19.9c2.4,7.6,5.9,17.8,6.4,30.8
	c0.2,10.4,1.8,18.3,1.7,26.9c0.2,7-0.9,14.5-5.6,24.9c0,0.2-0.6,1.1-0.6,1.3c0,0.2-0.6,1.1-0.7,1.2c-4.3,7.4-9.5,15.1-15.6,23.5
	c-5.1,6.4-10.3,12.7-15.5,18.8c-6.9,8.1-13.7,15.9-20.2,23.8c0,0-0.3,0.4-0.3,0.4c0,0-0.3,0.4-0.3,0.4c-6.4,7.5-14.1,16.5-22.9,25.1
	c-5.7,5.6-11.4,10.5-17.1,15c-7.9,6.1-16.5,11.8-25.5,16c-3.8,1.7-7.6,3.1-11.4,4.1c-6.6,1.7-13.2,2.3-19.7,1.5
	c-1.3-0.1-2.5-0.4-3.6-0.6c-5-1.1-7.9-4.1-11.2-7.4c-1.5-1.5-3-2.9-4.6-4.2c-3.1-1.2-6.5-2.4-10.6-3.2c-9.9-2.9-15.1-7.8-19.3-13.2
	c-2.2-2.9-4-5.7-6.3-8.2c-3.7-1.5-8.3-3-14.5-4.3c-7.5-2.4-15.3-5.6-20-11.7c-0.6-0.8-1.2-1.6-1.7-2.5c-2.8-5-4-9.6-2.8-13.6
	c0.5-2.3,1.2-3.9,2-6.2c0.1-0.3,0.2-0.7,0.3-1c0.8-2.5,1.2-4.9,2.7-6.9c1.7-1.3,1.1-2.2,2.1-4.3c1.4-3.8,3.1-5.8,4.8-9.8
	c1.1-2.9,1.5-5.8,1.7-8.7c0.6-6.6,0.8-12.9,6.4-18.4c0.4-0.9,0.8-1.7,1.2-2.4c1.5-3.4,2.8-4.8,6.5-8.4c1.4-2,2.5-3.6,3.4-5
	c-2.4-4.3-5.8-8-8.1-12.9c-2.9-7-3.6-15.4,0.3-27.4c0.9-3.2,1.1-6.3,1.3-9.5c-1.1-5-2.6-10.5,0-16.2c0.3-0.6,0.6-1.2,0.9-1.9
	c1.2-2.4,0.8-5.9,1.6-8.6c1-2.5,1.9-4.9,2.9-7.1c-0.1-1.5-0.3-2.9-0.6-4.3c0.2-0.9-1-4.4-1.1-5c-0.1-0.8-1.1-4.3-1.6-4.9
	c-1.7-4.5-3.6-9-4.9-15.4c-0.2-3,0.3-5.8,1.1-8.5c0,0,0-0.1,0-0.1c0-2.8,0.1-5.8-0.1-9c-0.1-1.6-0.3-3.2-0.6-4.8
	c-0.8-5.8-3.8-15.3,1.1-21.8c3-4.2,4-9.6,6.3-14.3c0.6-2.4,1.6-4.7,3.3-6.8c5.2-7.6,11.1-13,17.9-16.5c1.1-0.5,2.3-1,3.5-1.5
	c3.3-1.3,6.5-2.3,9.7-3.2c1.6-0.4,3.1-0.8,4.6-1.2c0.5-0.1,1-0.2,1.4-0.3c5.7-1.2,11.2-2,16.5-2.2c3.8-0.2,6.9-0.1,9.1-0.2
	c0,0,0.1,0,0.1,0c0.1,0,0.2,0,0.2,0c1.3-0.1,1.6-0.2,3.8-0.9C418.6,289.8,425.8,287.5,435.6,287.5"/>
<path id="line-11" class="st0" d="M434.9,277L434.9,277c5.8,0,12.3,0.8,20,2.7c0.3,0.1,0.6,0.1,0.9,0.1c0.3,0,0.5,0,0.8-0.1
	c2.7-0.2,5.8-0.6,9-0.8c0.1,0,0.4,0,0.4,0c0,0,0.3,0,0.4,0s0.3,0,0.4,0c1.3,0,2.6-0.1,3.8,0c0.2,0,0.4,0,0.5,0c0.4,0,0.7,0,1,0.1
	c3.1-0.3,6-0.3,9-0.4c1.8-0.1,3.6-0.2,5.6-0.5c2.7-0.4,5.3-0.4,7.8-0.3c3.2,0.2,6.1,0.6,8.7,1c0.4,0.1,0.8,0.1,1.3,0.2
	c2.7,0,5.5,0.1,8.4,0c0.8,0,1.7,0,2.5-0.1c0.5,0,1.1,0,1.6-0.1c2-0.1,4.3-0.1,6.7,0c4.2,0.1,8.9,0.5,13.4,1c5.2,0.6,9.3,1.2,11,1.5
	c0.9,0.2,1.8,0.4,2.6,0.5c0.3,0,0.5,0.1,0.8,0.1c6.5,0.7,16.4,0.5,23.4,6.5c12.2,8.3,19.7,21.6,21,36.6c0,0,0,0.2,0,0.3
	c0,0,0,0.2,0,0.3c0.2,3.2,0.2,6.4,0,9.5c-0.2,8.1-1.6,16.3-4,24.4c-2.7,9.2-6.8,18.1-11.9,26.4c-2.4,4.7-4.8,9.1-7.1,13.5
	c-3.9,7.3-7.8,14.9-9.9,21.3c2.8,8,6.7,18.9,7.4,33c0.2,10.9,1.7,19.4,1.2,28.7c-0.1,7.4-1.4,15.4-6.5,26.3c0,0.2-0.6,1.2-0.7,1.4
	c0,0.2-0.7,1.2-0.8,1.3c-4.7,7.9-10.3,16.1-16.8,24.8c-5.4,6.8-11,13.4-16.5,19.9c-7.4,8.6-14.6,16.9-21.4,25.3c0,0-0.3,0.4-0.4,0.4
	c0,0-0.3,0.4-0.4,0.4c-6.7,7.9-15,17.5-24.4,26.6c-6.1,5.9-12.1,11.1-18.3,15.8c-8.4,6.4-17.5,12.2-27.1,16.4c-4,1.7-8,3.1-12.1,4.1
	c-7,1.7-14,2.2-20.8,1.2c-1.3-0.2-2.6-0.4-3.8-0.7c-5.2-1.2-8.3-4.4-11.8-7.8c-1.6-1.5-3.1-3.1-4.8-4.4c-3.3-1.3-6.9-2.5-11.1-3.4
	c-10.3-3-15.8-8.2-20.4-13.8c-2.3-3-4.3-6-6.7-8.6c-3.9-1.6-8.9-3.1-15.3-4.5c-7.9-2.6-16.1-6-21.1-12.5c-0.6-0.8-1.3-1.7-1.8-2.6
	c-3-5.2-4.4-10.1-3.5-14.4c0.4-2.4,1-4.2,1.6-6.8c0.1-0.4,0.2-0.7,0.3-1.1c0.8-2.7,1.1-5.3,2.5-7.5c1.6-1.4,1-2.4,2.1-4.6
	c1.4-4.1,3.1-6.3,4.8-10.6c1.1-3,1.6-6.1,1.9-9.2c0.8-6.9,1.3-13.6,7.1-19.3c0.4-0.9,0.9-1.7,1.3-2.5c1.6-3.5,3.2-5.1,7.1-8.7
	c1.5-2,2.7-3.7,3.9-5.1c-2.5-4.6-6-8.5-8.3-13.8c-3-7.5-3.8-16.4,0.2-28.9c0.9-3.3,1.2-6.7,1.5-10c-1.2-5.2-2.6-11,0-17
	c0.3-0.7,0.6-1.3,0.9-2c1.2-2.6,0.8-6.2,1.7-9.1c1-2.7,2-5.1,3-7.4c-0.2-1.5-0.4-3-0.7-4.5c0.2-0.9-1.2-4.6-1.3-5.2
	c-0.1-0.8-1.2-4.6-1.7-5.2c-1.8-4.8-3.7-9.6-4.9-16.3c-0.2-3.1,0.4-6.1,1.1-9c0,0,0-0.1,0-0.1c-0.1-3,0-6.1-0.3-9.5
	c-0.1-1.7-0.3-3.3-0.7-5.1c-0.9-6.3-3.7-16.1,1.3-23c3.1-4.5,4.2-10.2,6.7-15.1c0.7-2.5,1.7-5,3.4-7.2c5.4-8.2,11.7-14.1,18.9-18
	c1.2-0.6,2.5-1.2,3.7-1.7c3.5-1.4,6.9-2.5,10.3-3.6c1.7-0.5,3.3-0.9,4.9-1.3c0.5-0.1,1-0.3,1.5-0.4c6.1-1.3,11.9-2.2,17.6-2.4
	c4.1-0.2,7.5-0.1,9.7-0.1c0,0,0.1,0,0.1,0c0.1,0,0.2,0,0.2,0c1.4-0.1,1.7-0.2,4.1-1C416.6,279.5,424.3,277,434.9,277"/>
<path id="line-12" class="st0" d="M434.2,266.5L434.2,266.5c6.2,0,13,0.8,21.1,2.8c0.3,0.1,0.7,0.1,1,0.2c0.3,0,0.6,0,0.8-0.1
	c2.9-0.2,6-0.6,9.4-0.8c0.1,0,0.4,0,0.5,0c0,0,0.4,0,0.4,0c0,0,0.4,0,0.4,0c1.4,0,2.7,0,4,0c0.2,0,0.4,0,0.5,0c0.4,0,0.7,0,1.1,0.1
	c3.2-0.3,6.3-0.3,9.5-0.5c1.9-0.1,3.8-0.2,5.9-0.5c2.9-0.4,5.6-0.4,8.2-0.3c3.3,0.2,6.4,0.6,9.1,1c0.4,0.1,0.9,0.1,1.3,0.2
	c2.8,0,5.7,0,8.8,0c0.9,0,1.8,0,2.6-0.1c0.6,0,1.1,0,1.7-0.1c2.1-0.1,4.5-0.1,7,0c4.4,0.1,9.3,0.5,14.1,1.1
	c5.4,0.6,9.6,1.2,11.6,1.6c0.9,0.2,1.8,0.4,2.7,0.6c0.3,0,0.5,0.1,0.8,0.1c6.8,0.7,17,0.5,24.6,6.7c13.3,8.6,21.6,22.7,23.2,38.7
	c0,0,0,0.3,0,0.3c0,0,0,0.3,0,0.3c0.3,3.4,0.3,6.8,0.2,10.2c-0.1,8.6-1.5,17.4-4,26.1c-2.8,9.8-7.2,19.4-12.6,28.1
	c-2.5,5-5.1,9.7-7.6,14.4c-4.2,7.8-8.3,15.8-10.6,22.7c3.2,8.4,7.6,20,8.3,35.1c0.3,11.4,1.6,20.5,0.8,30.4
	c-0.3,7.9-2,16.4-7.4,27.8c0,0.2-0.7,1.3-0.7,1.5c0,0.2-0.8,1.2-0.8,1.4c-5.1,8.4-11,17-17.9,26.1c-5.8,7.2-11.6,14.2-17.5,21.1
	c-7.8,9.1-15.4,17.9-22.7,26.7c0,0-0.3,0.4-0.4,0.5c0,0-0.4,0.4-0.4,0.5c-7.1,8.3-15.8,18.5-25.8,28.1c-6.5,6.2-12.9,11.7-19.5,16.5
	c-9,6.6-18.6,12.6-28.7,16.8c-4.2,1.7-8.5,3.1-12.8,4.1c-7.4,1.7-14.7,2-21.9,0.9c-1.4-0.2-2.7-0.5-4-0.8c-5.4-1.3-8.8-4.6-12.4-8.1
	c-1.7-1.6-3.3-3.2-5.1-4.7c-3.5-1.3-7.3-2.6-11.7-3.6c-10.6-3.2-16.5-8.5-21.5-14.5c-2.5-3.1-4.5-6.2-7.1-9c-4.1-1.6-9.4-3.2-16-4.8
	c-8.4-2.8-16.8-6.5-22.1-13.3c-0.7-0.9-1.3-1.8-1.9-2.7c-3.2-5.4-4.9-10.5-4.1-15.1c0.2-2.6,0.8-4.6,1.3-7.4
	c0.1-0.4,0.2-0.8,0.2-1.2c0.7-2.8,0.9-5.6,2.3-8c1.5-1.5,1-2.7,2-5c1.4-4.3,3.1-6.8,4.8-11.3c1.2-3.2,1.6-6.5,2.1-9.7
	c1-7.3,1.8-14.3,7.9-20.3c0.5-0.9,0.9-1.8,1.4-2.6c1.8-3.6,3.6-5.3,7.7-9.1c1.6-2.1,3-3.8,4.3-5.3c-2.6-4.8-6.2-9-8.6-14.6
	c-3.1-8.1-3.9-17.5,0.1-30.5c1-3.5,1.3-7,1.6-10.5c-1.2-5.5-2.6-11.6-0.1-17.9c0.3-0.7,0.6-1.4,0.9-2.1c1.2-2.8,0.9-6.5,1.8-9.5
	c1.1-2.8,2.1-5.4,3.2-7.8c-0.2-1.6-0.5-3.2-0.9-4.7c0.2-0.9-1.3-4.9-1.4-5.5c-0.1-0.7-1.2-4.9-1.7-5.5c-1.8-5.1-3.7-10.3-4.8-17.2
	c-0.1-3.3,0.4-6.4,1.2-9.4c0,0,0-0.1,0-0.1c-0.2-3.1-0.1-6.4-0.4-10c-0.2-1.7-0.4-3.5-0.7-5.3c-0.9-6.7-3.6-16.9,1.5-24.2
	c3.1-4.8,4.4-10.7,7.1-15.8c0.7-2.6,1.7-5.2,3.5-7.6c5.6-8.8,12.2-15.2,20-19.6c1.3-0.7,2.6-1.3,3.9-1.8c3.7-1.6,7.3-2.8,11-4
	c1.8-0.5,3.5-1,5.3-1.5c0.6-0.1,1.1-0.3,1.7-0.4c6.5-1.4,12.7-2.3,18.8-2.6c4.4-0.2,8,0,10.4,0c0,0,0.1,0,0.1,0c0.1,0,0.2,0,0.3,0
	c1.5-0.1,1.8-0.2,4.3-1C414.6,269.1,422.9,266.5,434.2,266.5"/>
<path id="line-13" class="st0" d="M433.6,256L433.6,256c6.5,0,13.7,0.9,22.1,2.9c0.3,0.1,0.7,0.1,1,0.2c0.3,0,0.6,0,0.9-0.1
	c3-0.2,6.3-0.6,9.9-0.8c0.1,0,0.4,0,0.5,0c0,0,0.4,0,0.4,0s0.4,0,0.4,0c1.5,0,2.9,0,4.2,0c0.2,0,0.4,0,0.6,0c0.4,0,0.8,0,1.2,0.1
	c3.4-0.4,6.6-0.4,9.9-0.6c2-0.1,4-0.2,6.2-0.5c3-0.4,5.9-0.4,8.6-0.2c3.5,0.2,6.7,0.7,9.5,1.1c0.4,0.1,0.9,0.1,1.4,0.2
	c2.9,0,6,0,9.2-0.1c0.9,0,1.8,0,2.8-0.1c0.6,0,1.2,0,1.8-0.1c2.2-0.1,4.7-0.1,7.3,0c4.6,0.2,9.7,0.6,14.7,1.1
	c5.7,0.6,10,1.3,12.1,1.7c1,0.2,1.9,0.4,2.9,0.6c0.3,0,0.6,0.1,0.8,0.1c7,0.7,17.7,0.6,25.8,6.9c14.3,8.9,23.5,23.7,25.5,40.8
	c0,0,0,0.3,0,0.3s0,0.3,0,0.3c0.4,3.6,0.5,7.2,0.3,10.9c0,9.2-1.4,18.6-4,27.8c-3,10.4-7.5,20.6-13.3,29.9
	c-2.7,5.3-5.4,10.3-8.1,15.3c-4.4,8.3-8.9,16.8-11.3,24.1c3.6,8.8,8.5,21.1,9.2,37.2c0.3,12,1.4,21.7,0.4,32.2
	c-0.6,8.4-2.6,17.4-8.4,29.3c0,0.2-0.7,1.4-0.8,1.5c0,0.1-0.8,1.3-0.9,1.5c-5.5,8.9-11.8,17.9-19,27.5c-6.1,7.6-12.3,14.9-18.5,22.2
	c-8.3,9.7-16.3,18.9-23.9,28.2c0,0-0.4,0.4-0.4,0.5s-0.4,0.4-0.4,0.5c-7.4,8.7-16.6,19.5-27.2,29.6c-6.9,6.6-13.7,12.3-20.6,17.3
	c-9.5,6.9-19.7,13-30.3,17.2c-4.4,1.8-9,3.1-13.5,4.1c-7.7,1.6-15.5,1.9-23,0.6c-1.5-0.2-2.8-0.5-4.2-0.9c-5.6-1.4-9.2-4.8-13.1-8.5
	c-1.8-1.7-3.5-3.3-5.3-4.9c-3.7-1.4-7.7-2.7-12.2-3.8c-10.9-3.4-17.2-8.9-22.5-15.2c-2.6-3.2-4.8-6.5-7.4-9.4
	c-4.4-1.6-9.9-3.3-16.8-5c-8.8-3-17.5-7-23.2-14c-0.7-0.9-1.4-1.9-2-2.9c-3.4-5.6-5.3-11-4.8-15.9c0.1-2.8,0.5-5,1-7.9
	c0.1-0.4,0.1-0.9,0.2-1.3c0.6-3,0.8-6,2.1-8.6c1.5-1.7,0.9-2.9,1.9-5.3c1.3-4.5,3-7.3,4.8-12c1.2-3.4,1.7-6.8,2.2-10.2
	c1.2-7.7,2.3-14.9,8.6-21.2c0.5-1,1-1.9,1.6-2.7c2-3.7,4-5.6,8.2-9.4c1.8-2.1,3.3-3.9,4.7-5.4c-2.8-5-6.5-9.5-8.9-15.4
	c-3.2-8.6-4-18.6,0-32c1-3.7,1.4-7.3,1.8-11c-1.2-5.7-2.7-12.1-0.1-18.8c0.3-0.8,0.6-1.5,0.9-2.2c1.2-3,0.9-6.8,1.9-10
	c1.1-2.9,2.2-5.6,3.3-8.2c-0.3-1.7-0.6-3.3-1-4.9c0.2-0.8-1.4-5.1-1.5-5.7c-0.1-0.7-1.3-5.2-1.8-5.8c-1.9-5.4-3.7-10.9-4.8-18.1
	c-0.1-3.4,0.4-6.7,1.3-9.9c0,0,0-0.1,0-0.1c-0.2-3.3-0.2-6.7-0.6-10.5c-0.2-1.8-0.4-3.7-0.7-5.6c-0.9-7.2-3.4-17.7,1.7-25.4
	c3.2-5.1,4.6-11.2,7.5-16.6c0.7-2.7,1.8-5.5,3.7-8c5.8-9.4,12.8-16.3,21.1-21.1c1.4-0.7,2.8-1.4,4.2-2c3.9-1.7,7.8-3.1,11.7-4.4
	c1.9-0.6,3.7-1.1,5.6-1.6c0.6-0.2,1.2-0.3,1.8-0.4c6.8-1.6,13.5-2.5,20-2.8c4.7-0.2,8.5,0,11.1,0c0,0,0.1,0,0.1,0c0.1,0,0.2,0,0.3,0
	c1.6-0.1,1.9-0.2,4.6-1.1C412.6,258.8,421.4,256,433.6,256"/>
<path id="line-14" class="st0" d="M432.9,245.5L432.9,245.5c6.9,0,14.4,0.9,23.2,3c0.4,0.1,0.7,0.1,1.1,0.2
	c0.3,0,0.6-0.1,0.9-0.1c3.1-0.2,6.6-0.7,10.4-0.8c0,0,0.5,0,0.5,0c0,0,0.4,0,0.5,0c0,0,0.4,0,0.5,0c1.5,0,3,0,4.4,0
	c0.2,0,0.4,0,0.6,0c0.4,0,0.8,0.1,1.2,0.1c3.5-0.4,6.9-0.5,10.4-0.7c2.1-0.1,4.2-0.2,6.5-0.5c3.2-0.4,6.2-0.4,9-0.2
	c3.7,0.2,7,0.7,10,1.1c0.5,0.1,1,0.1,1.5,0.2c3.1-0.1,6.2-0.1,9.6-0.1c1,0,1.9,0,2.9-0.1c0.6,0,1.2,0,1.8-0.1c2.3-0.1,4.9-0.1,7.6,0
	c4.8,0.2,10.1,0.6,15.3,1.2c5.9,0.6,10.4,1.3,12.6,1.7c1,0.2,2,0.4,3,0.6c0.3,0,0.6,0.1,0.9,0.1c7.2,0.7,18.4,0.7,27,7
	c15.4,9.2,25.4,24.8,27.8,42.9c0,0,0,0.3,0,0.3c0,0,0,0.3,0,0.3c0.4,3.8,0.6,7.7,0.5,11.5c0.1,9.7-1.3,19.7-4,29.4
	c-3.1,11-7.9,21.8-14.1,31.6c-2.9,5.6-5.8,10.9-8.6,16.2c-4.7,8.8-9.4,17.8-12,25.5c4,9.2,9.3,22.2,10.1,39.3
	c0.3,12.5,1.3,22.8-0.1,33.9c-0.8,8.9-3.1,18.4-9.3,30.8c0,0.2-0.8,1.5-0.8,1.6c0,0.1-0.9,1.4-0.9,1.5c-5.8,9.4-12.5,18.9-20.1,28.8
	c-6.4,8-13,15.7-19.5,23.3c-8.7,10.2-17.1,19.8-25.1,29.6c0,0-0.4,0.5-0.4,0.5s-0.4,0.5-0.4,0.5c-7.7,9.1-17.4,20.5-28.7,31.1
	c-7.3,6.9-14.4,12.8-21.8,18.1c-10,7.1-20.7,13.4-31.9,17.7c-4.7,1.8-9.4,3.1-14.2,4.1c-8.1,1.6-16.2,1.7-24,0.3
	c-1.5-0.3-3-0.6-4.4-1c-5.8-1.5-9.6-5-13.7-8.9c-1.9-1.7-3.7-3.5-5.6-5.1c-3.9-1.4-8.1-2.8-12.8-4c-11.3-3.6-18-9.3-23.6-15.9
	c-2.8-3.4-5.1-6.8-7.8-9.8c-4.6-1.7-10.4-3.4-17.5-5.3c-9.2-3.2-18.3-7.5-24.3-14.8c-0.8-0.9-1.5-1.9-2.2-3
	c-3.7-5.8-5.7-11.4-5.4-16.6c0-3,0.3-5.4,0.7-8.5c0.1-0.5,0.1-0.9,0.2-1.4c0.5-3.2,0.7-6.4,1.9-9.2c1.4-1.8,0.9-3.2,1.8-5.7
	c1.3-4.8,3-7.8,4.7-12.7c1.2-3.5,1.8-7.1,2.4-10.7c1.4-8,2.8-15.6,9.4-22.2c0.6-1,1.1-1.9,1.7-2.8c2.2-3.9,4.4-5.9,8.8-9.8
	c1.9-2.2,3.6-4,5.2-5.6c-2.9-5.2-6.7-10-9.2-16.3c-3.3-9.1-4.1-19.7,0-33.6c1-3.8,1.4-7.6,1.9-11.5c-1.3-5.9-2.7-12.6-0.2-19.7
	c0.3-0.8,0.6-1.6,0.9-2.4c1.2-3.1,1-7.1,2-10.5c1.1-3,2.3-5.9,3.5-8.6c-0.3-1.7-0.7-3.5-1.1-5.2c0.2-0.8-1.6-5.4-1.7-6
	c-0.1-0.7-1.4-5.5-1.8-6c-1.9-5.7-3.8-11.5-4.8-19c-0.1-3.6,0.5-7,1.3-10.3c0,0,0-0.1,0-0.1c-0.3-3.4-0.4-7-0.7-11
	c-0.2-1.9-0.4-3.9-0.8-5.9c-0.9-7.6-3.3-18.5,1.9-26.6c3.2-5.4,4.9-11.7,7.9-17.3c0.8-2.8,1.9-5.7,3.8-8.4
	c5.9-10,13.3-17.5,22.1-22.6c1.4-0.8,2.9-1.5,4.4-2.2c4.1-1.9,8.2-3.4,12.3-4.8c2-0.6,3.9-1.2,5.9-1.8c0.6-0.2,1.2-0.3,1.9-0.5
	c7.2-1.7,14.3-2.7,21.2-3c5-0.2,9,0.1,11.7,0.1c0,0,0.1,0,0.1,0c0.1,0,0.2,0,0.3,0c1.7-0.1,2-0.2,4.9-1.1
	C410.6,248.5,420,245.5,432.9,245.5"/>
<path id="line-15" class="st0" d="M432.2,235L432.2,235c7.2,0,15.1,1,24.2,3.1c0.4,0.1,0.8,0.1,1.1,0.2c0.3,0,0.6-0.1,1-0.1
	c3.3-0.3,6.9-0.7,10.9-0.9c0,0,0.5,0,0.5,0c0,0,0.4,0,0.5,0s0.4,0,0.5,0c1.6,0,3.1,0,4.6,0c0.2,0,0.4,0,0.6,0c0.4,0,0.9,0.1,1.3,0.1
	c3.7-0.5,7.2-0.6,10.9-0.8c2.2-0.1,4.4-0.3,6.8-0.5c3.3-0.3,6.4-0.3,9.4-0.2c3.8,0.2,7.3,0.8,10.4,1.2c0.5,0.1,1,0.1,1.5,0.2
	c3.2-0.1,6.5-0.1,10-0.1c1,0,2,0,3-0.1c0.6,0,1.3,0,1.9-0.1c2.5-0.1,5.1-0.1,8,0c5,0.2,10.5,0.6,16,1.2c6.1,0.7,10.7,1.4,13.1,1.8
	c1.1,0.2,2.1,0.4,3.1,0.6c0.3,0,0.6,0.1,0.9,0.1c7.5,0.7,19,0.7,28.2,7.2c16.5,9.5,27.3,25.9,30.1,45c0,0,0.1,0.3,0,0.3
	s0.1,0.3,0,0.3c0.5,4,0.8,8.1,0.7,12.2c0.2,10.3-1.1,20.8-4,31.1c-3.2,11.7-8.3,23-14.8,33.4c-3,5.9-6.1,11.5-9,17
	c-5,9.3-10,18.8-12.7,26.8c4.5,9.7,10.2,23.3,11,41.4c0.4,13,1.2,23.9-0.5,35.7c-1,9.4-3.7,19.4-10.2,32.3c0,0.1-0.8,1.5-0.9,1.7
	c0,0.1-0.9,1.5-1,1.6c-6.2,9.9-13.3,19.8-21.2,30.1c-6.8,8.4-13.6,16.5-20.5,24.4c-9.2,10.7-18,20.8-26.4,31.1c0,0-0.4,0.5-0.4,0.5
	s-0.4,0.5-0.5,0.5c-8.1,9.5-18.3,21.5-30.1,32.6c-7.7,7.2-15.2,13.4-23,18.9c-10.5,7.4-21.8,13.8-33.5,18.1c-4.9,1.8-9.9,3.2-14.8,4
	c-8.5,1.5-17,1.6-25.1-0.1c-1.6-0.3-3.1-0.7-4.5-1.1c-6-1.7-10-5.3-14.3-9.2c-2-1.8-3.9-3.6-5.8-5.3c-4.1-1.5-8.5-2.9-13.3-4.2
	c-11.6-3.8-18.7-9.7-24.6-16.5c-2.9-3.5-5.4-7-8.2-10.1c-4.9-1.7-10.9-3.5-18.3-5.5c-9.6-3.4-19-8-25.3-15.6c-0.8-1-1.6-2-2.3-3.1
	c-3.9-6.1-6.2-11.9-6-17.4c-0.1-3.1,0.1-5.8,0.4-9.1c0.1-0.5,0.1-1,0.1-1.5c0.4-3.4,0.5-6.8,1.7-9.8c1.4-1.9,0.8-3.4,1.7-6
	c1.2-5,2.9-8.3,4.7-13.4c1.2-3.7,1.9-7.4,2.6-11.1c1.6-8.4,3.3-16.3,10.1-23.1c0.6-1,1.2-2,1.8-2.9c2.4-4,4.8-6.2,9.4-10.1
	c2-2.2,3.9-4.1,5.6-5.7c-3-5.4-6.9-10.5-9.5-17.1c-3.5-9.7-4.2-20.7-0.1-35.1c1-4,1.5-8,2.1-12c-1.3-6.2-2.8-13.2-0.2-20.6
	c0.3-0.8,0.6-1.7,0.9-2.5c1.2-3.3,1.1-7.4,2.1-10.9c1.2-3.2,2.3-6.1,3.6-8.9c-0.4-1.8-0.8-3.6-1.3-5.4c0.2-0.8-1.7-5.7-1.8-6.2
	c-0.1-0.7-1.4-5.8-1.8-6.3c-2-6-3.8-12.2-4.8-19.9c-0.1-3.7,0.5-7.3,1.4-10.8c0,0,0-0.1,0-0.1c-0.4-3.5-0.5-7.3-0.9-11.4
	c-0.2-2-0.4-4-0.8-6.1c-1-8.1-3.2-19.3,2.1-27.8c3.3-5.7,5.1-12.3,8.3-18c0.8-2.9,1.9-6,3.9-8.8c6.1-10.6,13.9-18.6,23.2-24.2
	c1.5-0.8,3.1-1.6,4.6-2.4c4.4-2,8.7-3.7,13-5.2c2.1-0.7,4.2-1.3,6.2-1.9c0.7-0.2,1.3-0.4,2-0.5c7.6-1.8,15.1-2.9,22.4-3.1
	c5.3-0.2,9.6,0.1,12.4,0.2c0,0,0.1,0,0.1,0c0.1,0,0.2,0,0.3,0c1.8-0.1,2.1-0.2,5.2-1.2C408.6,238.2,418.5,235,432.2,235"/>
<path id="line-16" class="st0" d="M431.5,224.5L431.5,224.5c7.5,0,15.8,1,25.3,3.2c0.4,0.1,0.8,0.1,1.2,0.2c0.3,0,0.7-0.1,1-0.1
	c3.4-0.3,7.2-0.7,11.3-0.9c0,0,0.5,0,0.5,0c0,0,0.5,0,0.5,0c0,0,0.5,0,0.5,0c1.7,0,3.3,0,4.8,0.1c0.2,0,0.4,0,0.6,0
	c0.5,0,0.9,0.1,1.3,0.1c3.8-0.5,7.5-0.6,11.3-0.8c2.3-0.1,4.6-0.3,7.1-0.5c3.4-0.3,6.7-0.3,9.8-0.1c4,0.3,7.6,0.8,10.8,1.3
	c0.5,0.1,1,0.2,1.6,0.2c3.3-0.1,6.8-0.1,10.4-0.2c1,0,2.1,0,3.1-0.1c0.7,0,1.3,0,2-0.1c2.6-0.1,5.3-0.1,8.3,0.1
	c5.2,0.2,10.9,0.7,16.6,1.3c6.3,0.7,11.1,1.4,13.7,1.9c1.1,0.2,2.2,0.5,3.2,0.7c0.3,0,0.6,0.1,0.9,0.1c7.7,0.7,19.7,0.8,29.5,7.4
	c17.5,9.8,29.3,26.9,32.4,47.1c0,0,0.1,0.3,0.1,0.3s0.1,0.3,0,0.3c0.6,4.2,0.9,8.5,0.9,12.8c0.3,10.8-1,21.9-4,32.8
	c-3.3,12.3-8.6,24.3-15.5,35.2c-3.2,6.2-6.4,12.1-9.5,17.9c-5.3,9.8-10.6,19.8-13.4,28.2c4.9,10.1,11.1,24.4,12,43.5
	c0.4,13.5,1,25-0.9,37.4c-1.3,9.8-4.2,20.3-11.1,33.8c0,0.1-0.9,1.6-0.9,1.8c0,0.1-1,1.5-1,1.7c-6.6,10.4-14,20.7-22.3,31.5
	c-7.1,8.8-14.3,17.2-21.4,25.5c-9.6,11.2-18.8,21.8-27.6,32.5c0,0-0.4,0.5-0.5,0.6s-0.4,0.5-0.5,0.6c-8.4,9.9-19.1,22.4-31.5,34.1
	c-8.1,7.5-16,14-24.1,19.7c-11,7.7-22.8,14.2-35.1,18.5c-5.1,1.8-10.3,3.2-15.5,4c-8.9,1.5-17.7,1.4-26.2-0.4
	c-1.6-0.3-3.2-0.7-4.7-1.2c-6.2-1.8-10.5-5.5-14.9-9.6c-2.1-1.9-4-3.8-6.1-5.5c-4.4-1.5-8.9-3-13.9-4.4
	c-11.9-3.9-19.4-10.1-25.7-17.2c-3.1-3.6-5.7-7.3-8.6-10.5c-5.1-1.7-11.4-3.6-19-5.8c-10-3.6-19.8-8.4-26.4-16.3
	c-0.9-1-1.7-2.1-2.4-3.2c-4.1-6.3-6.6-12.4-6.7-18.1c-0.3-3.3-0.1-6.1,0-9.7c0-0.5,0.1-1,0.1-1.5c0.3-3.6,0.4-7.2,1.5-10.3
	c1.3-2,0.8-3.7,1.7-6.3c1.2-5.2,2.9-8.8,4.7-14.2c1.3-3.9,2-7.8,2.7-11.6c1.8-8.7,3.8-17,10.9-24.1c0.7-1.1,1.3-2.1,2-3
	c2.6-4.1,5.2-6.4,9.9-10.4c2.2-2.3,4.1-4.2,6-5.9c-3.2-5.6-7.1-11-9.7-17.9c-3.6-10.2-4.4-21.8-0.2-36.7c1-4.1,1.6-8.3,2.2-12.5
	c-1.4-6.4-2.8-13.7-0.3-21.5c0.3-0.9,0.6-1.8,0.9-2.6c1.2-3.5,1.1-7.7,2.2-11.4c1.2-3.3,2.4-6.4,3.7-9.3c-0.4-1.9-0.9-3.7-1.4-5.6
	c0.2-0.8-1.9-5.9-2-6.4c-0.1-0.7-1.5-6.1-1.9-6.6c-2-6.3-3.8-12.8-4.7-20.8c-0.1-3.9,0.5-7.6,1.5-11.2c0,0,0-0.1,0-0.1
	c-0.4-3.7-0.6-7.6-1.1-11.9c-0.2-2.1-0.5-4.2-0.8-6.4c-1-8.5-3.1-20.1,2.2-29c3.4-6,5.3-12.8,8.7-18.8c0.8-3.1,2-6.2,4-9.2
	c6.3-11.2,14.5-19.7,24.2-25.7c1.6-0.9,3.2-1.7,4.9-2.5c4.6-2.2,9.1-4,13.7-5.6c2.2-0.7,4.4-1.4,6.6-2c0.7-0.2,1.4-0.4,2.1-0.6
	c8-2,15.8-3.1,23.6-3.3c5.6-0.2,10.1,0.2,13.1,0.3c0,0,0.1,0,0.1,0c0.1,0,0.2,0,0.3,0c1.9-0.1,2.2-0.2,5.5-1.2
	C406.6,227.9,417.1,224.5,431.5,224.5"/>
<path id="line-17" class="st0" d="M430.8,214L430.8,214c7.9,0,16.5,1,26.3,3.3c0.4,0.1,0.8,0.1,1.2,0.2c0.3,0,0.7-0.1,1-0.1
	c3.5-0.3,7.5-0.8,11.8-0.9c0,0,0.5,0,0.6,0c0,0,0.5,0,0.5,0c0,0,0.5,0,0.5,0c1.7,0,3.4,0,5,0.1c0.2,0,0.5,0,0.7,0
	c0.5,0,0.9,0.1,1.4,0.1c4-0.5,7.8-0.7,11.8-0.9c2.4-0.1,4.8-0.3,7.4-0.5c3.6-0.3,7-0.3,10.1-0.1c4.2,0.3,7.9,0.8,11.2,1.3
	c0.5,0.1,1.1,0.2,1.6,0.2c3.5-0.1,7-0.2,10.8-0.2c1.1,0,2.2,0,3.3-0.1c0.7,0,1.4,0,2.1-0.1c2.7-0.1,5.5,0,8.6,0.1
	c5.4,0.2,11.3,0.7,17.3,1.4c6.5,0.7,11.5,1.4,14.2,2c1.2,0.2,2.3,0.5,3.4,0.7c0.3,0,0.7,0.1,1,0.1c8,0.8,20.3,0.9,30.7,7.6
	c18.6,10.1,31.2,28,34.7,49.2c0,0,0.1,0.3,0.1,0.4s0.1,0.3,0.1,0.4c0.7,4.5,1,9,1.1,13.5c0.4,11.4-0.9,23-3.9,34.5
	c-3.4,12.9-9,25.5-16.2,36.9c-3.3,6.5-6.7,12.7-10,18.8c-5.5,10.3-11.1,20.8-14,29.6c5.3,10.5,11.9,25.5,12.9,45.6
	c0.5,14.1,0.9,26.1-1.4,39.2c-1.5,10.3-4.8,21.3-12,35.3c0,0.1-1,1.7-1,1.8c0,0.1-1.1,1.6-1.1,1.8c-7,10.8-14.8,21.7-23.4,32.8
	c-7.4,9.1-14.9,18-22.4,26.7c-10,11.7-19.7,22.7-28.8,34c0,0-0.5,0.6-0.5,0.6c0,0-0.5,0.5-0.5,0.6c-8.7,10.3-19.9,23.4-33,35.6
	c-8.4,7.9-16.8,14.6-25.3,20.4c-11.6,7.9-23.9,14.6-36.6,19c-5.4,1.8-10.8,3.2-16.2,4c-9.3,1.4-18.4,1.3-27.3-0.7
	c-1.7-0.3-3.3-0.8-4.9-1.3c-6.4-1.9-10.9-5.7-15.6-10c-2.2-1.9-4.2-3.9-6.3-5.7c-4.6-1.5-9.3-3.1-14.4-4.6
	c-12.3-4.1-20.1-10.5-26.7-17.9c-3.3-3.8-6-7.5-8.9-10.9c-5.4-1.8-11.9-3.7-19.8-6c-10.4-3.8-20.5-8.9-27.4-17.1
	c-0.9-1.1-1.8-2.2-2.5-3.3c-4.3-6.5-7-12.8-7.3-18.9c-0.4-3.5-0.4-6.5-0.3-10.2c0-0.5,0-1.1,0.1-1.6c0.3-3.8,0.3-7.5,1.3-10.9
	c1.3-2.1,0.7-3.9,1.6-6.7c1.2-5.5,2.8-9.3,4.7-14.9c1.3-4,2.1-8.1,2.9-12.1c2-9.1,4.3-17.7,11.6-25c0.7-1.1,1.4-2.1,2.1-3.1
	c2.8-4.2,5.6-6.7,10.5-10.8c2.3-2.3,4.4-4.3,6.5-6c-3.3-5.9-7.3-11.6-10-18.7c-3.7-10.7-4.5-22.9-0.3-38.2c1.1-4.3,1.7-8.6,2.4-13
	c-1.4-6.6-2.9-14.2-0.4-22.4c0.3-0.9,0.6-1.8,0.9-2.8c1.3-3.6,1.2-8,2.3-11.8c1.2-3.4,2.5-6.6,3.9-9.7c-0.5-1.9-1-3.9-1.6-5.8
	c0.2-0.8-2-6.2-2.1-6.7c-0.1-0.6-1.5-6.4-1.9-6.9c-2.1-6.7-3.9-13.4-4.7-21.7c-0.1-4,0.6-7.9,1.5-11.7c0,0,0-0.1,0-0.1
	c-0.5-3.8-0.8-7.9-1.2-12.4c-0.2-2.2-0.5-4.4-0.8-6.6c-1-9-3-20.9,2.4-30.2c3.4-6.2,5.5-13.3,9.1-19.5c0.8-3.2,2.1-6.5,4.1-9.6
	c6.5-11.8,15-20.9,25.3-27.2c1.7-1,3.4-1.9,5.1-2.7c4.8-2.4,9.5-4.3,14.3-6c2.3-0.8,4.6-1.5,6.9-2.2c0.7-0.2,1.5-0.4,2.2-0.6
	c8.3-2.1,16.6-3.3,24.8-3.5c5.9-0.2,10.6,0.2,13.7,0.3c0,0,0.1,0,0.1,0c0.1,0,0.2,0,0.3,0c2-0.1,2.2-0.2,5.7-1.3
	C404.6,217.6,415.6,214,430.8,214"/>
<path id="line-18" class="st0" d="M430.1,203.5L430.1,203.5c8.2,0,17.2,1.1,27.4,3.4c0.4,0.1,0.9,0.2,1.3,0.2c0.4,0,0.7-0.1,1.1-0.1
	c3.6-0.3,7.8-0.8,12.3-0.9c0,0,0.5,0,0.6,0c0,0,0.5,0,0.5,0c0,0,0.5,0,0.5,0c1.8,0,3.5,0,5.2,0.1c0.2,0,0.5,0,0.7,0
	c0.5,0,1,0.1,1.4,0.1c4.1-0.6,8.1-0.8,12.3-1c2.5-0.1,5-0.3,7.7-0.5c3.7-0.3,7.2-0.3,10.5-0.1c4.3,0.3,8.2,0.9,11.6,1.4
	c0.5,0.1,1.1,0.2,1.7,0.2c3.6-0.1,7.3-0.2,11.2-0.2c1.1,0,2.2,0,3.4-0.1c0.7,0,1.4,0,2.1,0c2.8-0.1,5.8,0,8.9,0.1
	c5.6,0.2,11.7,0.7,17.9,1.4c6.7,0.7,11.8,1.5,14.7,2c1.2,0.3,2.4,0.5,3.5,0.7c0.3,0,0.7,0.1,1,0.1c8.2,0.8,21,0.9,31.9,7.8
	c19.7,10.4,33.1,29.1,37,51.3c0,0,0.1,0.4,0.1,0.4s0.1,0.4,0.1,0.4c0.7,4.7,1.2,9.4,1.2,14.2c0.5,11.9-0.8,24.2-3.9,36.1
	c-3.5,13.5-9.3,26.7-16.9,38.7c-3.5,6.8-7,13.3-10.5,19.7c-5.8,10.8-11.7,21.8-14.7,31c5.7,10.9,12.8,26.6,13.8,47.7
	c0.5,14.6,0.8,27.3-1.8,40.9c-1.8,10.8-5.4,22.3-13,36.8c0,0.1-1,1.8-1,1.9c0,0.1-1.1,1.7-1.2,1.8c-7.3,11.3-15.5,22.6-24.5,34.2
	c-7.7,9.5-15.6,18.7-23.4,27.8c-10.5,12.2-20.6,23.7-30.1,35.4c0,0-0.5,0.6-0.5,0.6s-0.5,0.6-0.5,0.6c-9.1,10.7-20.7,24.4-34.4,37.1
	c-8.8,8.2-17.5,15.2-26.5,21.2c-12.1,8.2-24.9,15-38.2,19.4c-5.6,1.9-11.3,3.2-16.9,4c-9.7,1.4-19.2,1.1-28.3-1
	c-1.8-0.4-3.4-0.9-5.1-1.4c-6.6-2-11.3-5.9-16.2-10.3c-2.3-2-4.4-4-6.6-6c-4.8-1.6-9.7-3.3-14.9-4.8c-12.6-4.3-20.8-10.9-27.8-18.6
	c-3.4-3.9-6.3-7.8-9.3-11.3c-5.6-1.8-12.4-3.8-20.5-6.3c-10.8-4-21.2-9.4-28.5-17.9c-0.9-1.1-1.8-2.2-2.7-3.4
	c-4.5-6.7-7.4-13.3-8-19.7c-0.5-3.7-0.6-6.9-0.6-10.8c0-0.6,0-1.1,0-1.7c0.2-4,0.1-7.9,1.1-11.5c1.2-2.2,0.7-4.2,1.5-7
	c1.1-5.7,2.8-9.8,4.6-15.6c1.3-4.2,2.2-8.4,3.1-12.6c2.2-9.5,4.8-18.3,12.4-26c0.7-1.1,1.5-2.2,2.2-3.2c2.9-4.4,6-7,11.1-11.1
	c2.4-2.4,4.7-4.4,6.9-6.2c-3.4-6.1-7.5-12.1-10.3-19.6c-3.8-11.2-4.6-23.9-0.3-39.8c1.1-4.5,1.7-8.9,2.5-13.5
	c-1.4-6.9-2.9-14.8-0.4-23.3c0.3-1,0.6-1.9,0.9-2.9c1.3-3.8,1.3-8.3,2.5-12.3c1.3-3.5,2.6-6.9,4-10.1c-0.5-2-1.1-4-1.7-6
	c0.2-0.7-2.2-6.5-2.3-6.9c-0.1-0.6-1.6-6.6-2-7.1c-2.1-7-3.9-14.1-4.7-22.6c0-4.2,0.6-8.2,1.6-12.1c0,0,0-0.1,0-0.1
	c-0.5-4-0.9-8.2-1.4-12.9c-0.3-2.3-0.5-4.5-0.9-6.9c-1-9.5-2.8-21.7,2.6-31.4c3.5-6.5,5.7-13.8,9.5-20.3c0.9-3.3,2.1-6.7,4.2-10
	c6.7-12.4,15.6-22,26.4-28.7c1.7-1,3.5-2,5.3-2.9c5-2.5,10-4.6,15-6.4c2.4-0.8,4.8-1.6,7.2-2.3c0.8-0.2,1.5-0.4,2.3-0.6
	c8.7-2.2,17.4-3.5,25.9-3.7c6.2-0.1,11.2,0.2,14.4,0.4c0,0,0.1,0,0.1,0c0.1,0,0.2,0,0.4,0c2-0.1,2.3-0.2,6-1.4
	C402.6,207.2,414.2,203.5,430.1,203.5"/>
<path id="line-19" class="st0" d="M429.4,193L429.4,193c8.6,0,17.9,1.1,28.4,3.5c0.4,0.1,0.9,0.2,1.3,0.2c0.4,0,0.8-0.1,1.1-0.1
	c3.8-0.3,8.1-0.8,12.7-1c0,0,0.6,0,0.6,0c0,0,0.5,0,0.6,0c0,0,0.5,0,0.6,0c1.9,0,3.7,0,5.4,0.1c0.2,0,0.5,0,0.7,0
	c0.5,0,1,0.1,1.5,0.1c4.3-0.6,8.4-0.8,12.7-1.1c2.6-0.1,5.2-0.3,7.9-0.5c3.9-0.3,7.5-0.2,10.9,0c4.5,0.3,8.6,0.9,12.1,1.4
	c0.6,0.1,1.2,0.2,1.8,0.3c3.7-0.2,7.5-0.2,11.6-0.3c1.2,0,2.3,0,3.5-0.1c0.7,0,1.5,0,2.2,0c2.9-0.1,6,0,9.2,0.1
	c5.8,0.2,12.2,0.8,18.6,1.5c6.9,0.8,12.2,1.5,15.3,2.1c1.3,0.3,2.5,0.5,3.6,0.7c0.4,0,0.7,0.1,1,0.1c8.4,0.8,21.6,1,33.1,8
	c20.8,10.7,35,30.1,39.2,53.4c0,0,0.1,0.4,0.1,0.4c0,0,0.1,0.4,0.1,0.4c0.8,4.9,1.3,9.8,1.4,14.8c0.6,12.5-0.7,25.3-3.9,37.8
	c-3.6,14.2-9.7,28-17.6,40.4c-3.6,7.1-7.4,13.9-11,20.6c-6.1,11.2-12.3,22.8-15.4,32.4c6.1,11.3,13.6,27.8,14.7,49.8
	c0.5,15.1,0.7,28.4-2.2,42.7c-2,11.3-5.9,23.3-13.9,38.3c0,0.1-1.1,1.9-1.1,2c0,0.1-1.2,1.8-1.2,1.9c-7.7,11.8-16.3,23.5-25.7,35.5
	c-8.1,9.9-16.3,19.5-24.4,28.9c-10.9,12.7-21.4,24.7-31.3,36.9c0,0-0.5,0.6-0.5,0.6s-0.5,0.6-0.5,0.6c-9.4,11.1-21.5,25.4-35.8,38.6
	c-9.2,8.5-18.3,15.8-27.6,22c-12.6,8.4-26,15.3-39.8,19.8c-5.8,1.9-11.7,3.2-17.6,4c-10,1.3-19.9,1-29.4-1.3
	c-1.8-0.4-3.6-0.9-5.3-1.5c-6.7-2.1-11.7-6.2-16.8-10.7c-2.4-2.1-4.6-4.2-6.8-6.2c-5-1.6-10-3.4-15.5-5
	c-12.9-4.5-21.6-11.3-28.8-19.2c-3.6-4-6.6-8-9.7-11.7c-5.9-1.8-13-4-21.3-6.5c-11.2-4.2-22-9.9-29.5-18.6c-1-1.1-1.9-2.3-2.8-3.6
	c-4.8-6.9-7.9-13.7-8.6-20.4c-0.6-3.9-0.8-7.3-0.9-11.4c0-0.6,0-1.2,0-1.8c0.1-4.2,0-8.3,0.9-12.1c1.1-2.4,0.6-4.4,1.4-7.4
	c1.1-5.9,2.7-10.3,4.6-16.3c1.3-4.4,2.2-8.7,3.2-13c2.4-9.8,5.3-19,13.1-26.9c0.8-1.2,1.6-2.3,2.4-3.3c3.1-4.5,6.4-7.2,11.6-11.5
	c2.6-2.5,5-4.5,7.4-6.3c-3.6-6.3-7.8-12.6-10.6-20.4c-3.9-11.8-4.7-25-0.4-41.3c1.1-4.6,1.8-9.3,2.6-14c-1.5-7.1-2.9-15.3-0.5-24.1
	c0.3-1,0.6-2,0.9-3c1.3-4,1.3-8.6,2.6-12.7c1.3-3.7,2.7-7.1,4.2-10.4c-0.6-2.1-1.2-4.1-1.9-6.2c0.2-0.7-2.3-6.7-2.4-7.2
	c-0.1-0.6-1.6-6.9-2-7.4c-2.2-7.3-3.9-14.7-4.6-23.5c0-4.3,0.7-8.5,1.7-12.6c0-0.1,0-0.1,0-0.2c-0.6-4.1-1-8.5-1.5-13.4
	c-0.3-2.3-0.6-4.7-0.9-7.1c-1.1-9.9-2.7-22.5,2.8-32.6c3.5-6.8,5.9-14.3,9.9-21c0.9-3.4,2.2-7,4.3-10.5c6.9-13,16.1-23.1,27.4-30.3
	c1.8-1.1,3.7-2.1,5.6-3c5.2-2.7,10.4-4.9,15.7-6.7c2.5-0.9,5-1.7,7.5-2.4c0.8-0.2,1.6-0.5,2.4-0.7c9.1-2.3,18.2-3.7,27.1-3.9
	c6.5-0.1,11.7,0.3,15,0.5c0,0,0.1,0,0.1,0c0.1,0,0.3,0,0.4,0c2.1-0.1,2.4-0.2,6.3-1.4C400.6,196.9,412.7,193,429.4,193"/>
<path id="line-20" class="st0" d="M428.7,182.5L428.7,182.5c8.9,0,18.6,1.1,29.5,3.6c0.5,0.1,0.9,0.2,1.4,0.2c0.4,0,0.8-0.1,1.2-0.1
	c3.9-0.4,8.3-0.8,13.2-1c0,0,0.6,0,0.6,0c0,0,0.5,0,0.6,0s0.5,0,0.6,0c2,0,3.8,0,5.6,0.1c0.3,0,0.5,0,0.8,0c0.5,0,1,0.1,1.5,0.1
	c4.4-0.6,8.7-0.9,13.2-1.2c2.7-0.2,5.4-0.3,8.2-0.5c4-0.3,7.8-0.2,11.3,0c4.7,0.3,8.9,0.9,12.5,1.5c0.6,0.1,1.2,0.2,1.8,0.3
	c3.8-0.2,7.8-0.3,12-0.3c1.2,0,2.4,0,3.6-0.1c0.8,0,1.5,0,2.3,0c3-0.1,6.2,0,9.6,0.1c6,0.3,12.6,0.8,19.2,1.5
	c7.1,0.8,12.6,1.6,15.8,2.2c1.3,0.3,2.5,0.5,3.7,0.8c0.4,0,0.7,0.1,1.1,0.1c8.7,0.8,22.3,1,34.3,8.2c21.8,11,36.9,31.2,41.5,55.5
	c0,0,0.1,0.4,0.1,0.4s0.1,0.4,0.1,0.4c0.9,5.1,1.4,10.3,1.6,15.5c0.7,13-0.6,26.4-3.9,39.5c-3.8,14.8-10,29.2-18.3,42.2
	c-3.8,7.4-7.7,14.5-11.4,21.4c-6.4,11.7-12.8,23.7-16.1,33.7c6.5,11.7,14.5,28.9,15.7,51.9c0.6,15.6,0.5,29.5-2.7,44.4
	c-2.2,11.7-6.5,24.3-14.8,39.8c0,0.1-1.1,1.9-1.1,2.1c0,0.1-1.2,1.8-1.3,2c-8.1,12.3-17,24.5-26.8,36.8c-8.4,10.3-16.9,20.2-25.4,30
	c-11.4,13.2-22.3,25.7-32.6,38.3c0,0-0.5,0.6-0.5,0.7s-0.5,0.6-0.6,0.7c-9.7,11.5-22.4,26.4-37.2,40.1c-9.6,8.9-19.1,16.3-28.8,22.8
	c-13.1,8.7-27.1,15.7-41.4,20.2c-6,1.9-12.2,3.2-18.3,4c-10.4,1.3-20.7,0.8-30.5-1.6c-1.9-0.4-3.7-1-5.4-1.6
	c-6.9-2.2-12.2-6.4-17.4-11.1c-2.5-2.2-4.8-4.3-7.1-6.4c-5.2-1.7-10.4-3.5-16-5.2c-13.3-4.6-22.3-11.7-29.9-19.9
	c-3.7-4.1-6.8-8.3-10.1-12.1c-6.1-1.9-13.5-4.1-22.1-6.7c-11.6-4.4-22.7-10.3-30.6-19.4c-1-1.2-2-2.4-2.9-3.7
	c-5-7.1-8.3-14.2-9.3-21.2c-0.7-4-1.1-7.7-1.2-11.9c0-0.6,0-1.2,0-1.9c0-4.4-0.1-8.7,0.7-12.6c1.1-2.5,0.6-4.6,1.4-7.7
	c1.1-6.2,2.7-10.8,4.6-17c1.3-4.5,2.3-9.1,3.4-13.5c2.6-10.2,5.8-19.7,13.9-27.9c0.8-1.2,1.7-2.3,2.5-3.4c3.3-4.6,6.8-7.5,12.2-11.8
	c2.7-2.5,5.3-4.6,7.8-6.5c-3.7-6.5-8-13.1-10.9-21.2c-4-12.3-4.8-26.1-0.5-42.8c1.1-4.8,1.9-9.6,2.8-14.5c-1.5-7.3-3-15.9-0.5-25
	c0.3-1,0.6-2.1,0.9-3.1c1.3-4.1,1.4-8.9,2.7-13.2c1.3-3.8,2.8-7.4,4.3-10.8c-0.6-2.1-1.3-4.3-2-6.4c0.2-0.7-2.5-7-2.5-7.4
	c-0.1-0.6-1.7-7.2-2.1-7.7c-2.2-7.6-4-15.3-4.6-24.4c0-4.5,0.7-8.8,1.7-13c0-0.1,0-0.1,0-0.2c-0.7-4.3-1.1-8.8-1.7-13.9
	c-0.3-2.4-0.6-4.9-0.9-7.4c-1.1-10.4-2.6-23.3,3-33.8c3.6-7.1,6.2-14.9,10.3-21.7c0.9-3.5,2.3-7.2,4.4-10.9
	c7.1-13.6,16.7-24.2,28.5-31.8c1.9-1.1,3.8-2.2,5.8-3.2c5.4-2.8,10.9-5.1,16.3-7.1c2.6-0.9,5.2-1.8,7.9-2.6c0.8-0.2,1.7-0.5,2.5-0.7
	c9.5-2.5,18.9-3.9,28.3-4.1c6.7-0.1,12.2,0.3,15.7,0.5c0,0,0.1,0,0.1,0c0.1,0,0.3,0,0.4,0c2.2-0.1,2.5-0.2,6.6-1.5
	C398.6,186.6,411.3,182.5,428.7,182.5"/>
<path id="line-21" class="st0" d="M428,172L428,172c9.3,0,19.3,1.2,30.5,3.7c0.5,0.1,0.9,0.2,1.4,0.3c0.4,0,0.8-0.1,1.2-0.1
	c4-0.4,8.6-0.9,13.7-1c0,0,0.6,0,0.7,0c0,0,0.6,0,0.6,0c0,0,0.6,0,0.6,0c2,0,4,0,5.8,0.1c0.3,0,0.5,0,0.8,0c0.5,0,1.1,0.1,1.6,0.1
	c4.6-0.7,9-1,13.7-1.3c2.8-0.2,5.6-0.3,8.5-0.5c4.1-0.3,8-0.2,11.7,0c4.8,0.4,9.2,1,12.9,1.5c0.6,0.1,1.3,0.2,1.9,0.3
	c4-0.2,8.1-0.3,12.4-0.4c1.2,0,2.5,0,3.7-0.1c0.8,0,1.6,0,2.4,0c3.1-0.1,6.4,0,9.9,0.1c6.2,0.3,13,0.8,19.9,1.6
	c7.4,0.8,12.9,1.6,16.3,2.3c1.4,0.3,2.6,0.5,3.9,0.8c0.4,0,0.8,0.1,1.1,0.1c8.9,0.8,22.9,1.1,35.5,8.4
	c22.9,11.3,38.8,32.3,43.8,57.6c0,0,0.1,0.4,0.1,0.4c0,0,0.1,0.4,0.1,0.4c1,5.3,1.6,10.7,1.8,16.1c0.8,13.6-0.5,27.5-3.9,41.1
	c-3.9,15.4-10.4,30.4-19,43.9c-4,7.7-8,15.1-11.9,22.3c-6.7,12.2-13.4,24.7-16.8,35.1c6.9,12.2,15.4,30,16.6,54
	c0.6,16.2,0.4,30.6-3.1,46.2c-2.5,12.2-7,25.3-15.7,41.3c0,0.1-1.2,2-1.2,2.1c0,0.1-1.3,1.9-1.3,2c-8.5,12.8-17.8,25.4-27.9,38.2
	c-8.7,10.7-17.6,21-26.4,31.2c-11.8,13.7-23.1,26.6-33.8,39.8c0,0-0.5,0.7-0.6,0.7c0,0-0.5,0.7-0.6,0.7
	c-10.1,11.9-23.2,27.4-38.7,41.6c-10,9.2-19.8,16.9-30,23.6c-13.7,8.9-28.1,16.1-43,20.7c-6.3,1.9-12.6,3.3-18.9,4
	c-10.8,1.3-21.4,0.7-31.6-2c-1.9-0.5-3.8-1-5.6-1.7c-7.1-2.4-12.6-6.6-18.1-11.4c-2.6-2.2-4.9-4.5-7.3-6.6
	c-5.4-1.7-10.8-3.6-16.6-5.4c-13.6-4.8-23-12.1-30.9-20.6c-3.9-4.3-7.1-8.6-10.5-12.5c-6.3-1.9-14-4.2-22.8-7
	c-12-4.6-23.4-10.8-31.7-20.2c-1.1-1.2-2.1-2.5-3-3.8c-5.2-7.3-8.7-14.6-9.9-21.9c-0.9-4.2-1.3-8.1-1.5-12.5c0-0.6-0.1-1.3-0.1-1.9
	c-0.1-4.5-0.3-9.1,0.5-13.2c1-2.6,0.5-4.9,1.3-8.1c1-6.4,2.6-11.4,4.6-17.8c1.4-4.7,2.4-9.4,3.6-14c2.8-10.6,6.3-20.4,14.6-28.8
	c0.9-1.2,1.8-2.4,2.7-3.5c3.5-4.7,7.2-7.8,12.8-12.2c2.8-2.6,5.5-4.7,8.2-6.6c-3.8-6.7-8.2-13.6-11.1-22.1
	c-4.1-12.8-5-27.2-0.6-44.4c1.1-4.9,2-9.9,2.9-15c-1.5-7.6-3-16.4-0.6-25.9c0.3-1.1,0.6-2.2,0.9-3.3c1.3-4.3,1.5-9.3,2.8-13.7
	c1.4-3.9,2.8-7.6,4.4-11.2c-0.7-2.2-1.4-4.4-2.2-6.7c0.2-0.7-2.6-7.2-2.7-7.7c-0.1-0.6-1.8-7.5-2.1-8c-2.3-7.9-4-16-4.6-25.3
	c0-4.6,0.7-9.1,1.8-13.5c0-0.1,0-0.1,0-0.2c-0.7-4.4-1.3-9.2-1.9-14.3c-0.3-2.5-0.6-5.1-1-7.6c-1.1-10.8-2.5-24.1,3.1-35
	c3.6-7.4,6.4-15.4,10.7-22.5c1-3.7,2.3-7.5,4.5-11.3c7.3-14.2,17.2-25.4,29.6-33.3c2-1.2,4-2.3,6-3.4c5.7-3,11.3-5.4,17-7.5
	c2.7-1,5.5-1.9,8.2-2.7c0.9-0.3,1.7-0.5,2.6-0.7c9.8-2.6,19.7-4,29.5-4.2c7-0.1,12.8,0.4,16.4,0.6c0,0,0.1,0,0.1,0
	c0.1,0,0.3,0,0.4,0c2.3-0.1,2.6-0.2,6.8-1.5C396.6,176.3,409.8,172,428,172"/>
<path id="line-22" class="st0" d="M427.3,161.5L427.3,161.5c9.6,0,20,1.2,31.6,3.8c0.5,0.1,1,0.2,1.5,0.3c0.4,0,0.8-0.1,1.3-0.1
	c4.2-0.4,8.9-0.9,14.1-1c0,0,0.6,0,0.7,0c0,0,0.6,0,0.6,0s0.6,0,0.6,0c2.1,0,4.1,0,6,0.1c0.3,0,0.6,0,0.8,0c0.6,0,1.1,0.1,1.6,0.1
	c4.7-0.7,9.3-1.1,14.1-1.3c2.9-0.2,5.8-0.3,8.8-0.5c4.3-0.3,8.3-0.2,12,0.1c5,0.4,9.5,1,13.3,1.6c0.6,0.1,1.3,0.2,1.9,0.3
	c4.1-0.2,8.3-0.3,12.8-0.4c1.3,0,2.6,0,3.9-0.1c0.8,0,1.6,0,2.5,0c3.2-0.1,6.6,0,10.2,0.2c6.4,0.3,13.4,0.9,20.5,1.7
	c7.6,0.8,13.3,1.7,16.9,2.3c1.4,0.3,2.7,0.5,4,0.8c0.4,0,0.8,0.1,1.2,0.1c9.1,0.8,23.6,1.2,36.8,8.5c24,11.6,40.7,33.4,46.1,59.7
	c0,0,0.1,0.4,0.1,0.4s0.1,0.4,0.1,0.4c1.1,5.5,1.7,11.1,2,16.8c0.9,14.1-0.4,28.6-3.9,42.8c-4,16-10.8,31.7-19.8,45.7
	c-4.1,8.1-8.3,15.7-12.4,23.2c-6.9,12.7-13.9,25.7-17.5,36.5c7.3,12.6,16.2,31.1,17.5,56.1c0.7,16.7,0.3,31.7-3.5,47.9
	c-2.7,12.7-7.6,26.2-16.6,42.8c0,0.1-1.2,2.1-1.2,2.2c0,0.1-1.3,2-1.4,2.1c-8.8,13.3-18.5,26.3-29,39.5
	c-9.1,11.1-18.2,21.8-27.4,32.3c-12.3,14.2-24,27.6-35,41.2c0,0-0.6,0.7-0.6,0.7c0,0-0.6,0.7-0.6,0.7c-10.4,12.3-24,28.4-40.1,43.1
	c-10.4,9.5-20.6,17.5-31.2,24.3c-14.2,9.2-29.2,16.5-44.6,21.1c-6.5,1.9-13.1,3.3-19.6,4c-11.2,1.2-22.2,0.5-32.6-2.3
	c-2-0.5-3.9-1.1-5.8-1.8c-7.3-2.5-13-6.8-18.7-11.8c-2.7-2.3-5.1-4.6-7.6-6.8c-5.6-1.8-11.2-3.7-17.1-5.6c-13.9-5-23.7-12.5-32-21.2
	c-4-4.4-7.4-8.8-10.8-12.9c-6.6-2-14.5-4.3-23.6-7.2c-12.5-4.8-24.2-11.3-32.7-21c-1.1-1.3-2.2-2.6-3.2-3.9
	c-5.4-7.5-9.2-15.1-10.5-22.7c-1-4.4-1.5-8.4-1.9-13.1c0-0.7-0.1-1.4-0.1-2c-0.2-4.7-0.4-9.4,0.3-13.8c1-2.7,0.5-5.1,1.2-8.4
	c1-6.6,2.6-11.9,4.6-18.5c1.4-4.9,2.5-9.7,3.7-14.5c3-10.9,6.8-21.1,15.4-29.8c0.9-1.3,1.8-2.5,2.8-3.6c3.7-4.8,7.6-8.1,13.3-12.5
	c3-2.6,5.8-4.8,8.7-6.8c-4-7-8.4-14.1-11.4-22.9c-4.3-13.4-5.1-28.2-0.6-45.9c1.2-5.1,2-10.2,3.1-15.4c-1.6-7.8-3.1-16.9-0.6-26.8
	c0.3-1.1,0.6-2.3,0.9-3.4c1.3-4.5,1.5-9.6,2.9-14.1c1.4-4,2.9-7.9,4.6-11.6c-0.7-2.3-1.5-4.6-2.3-6.9c0.1-0.6-2.7-7.5-2.8-7.9
	c-0.1-0.5-1.8-7.8-2.2-8.2c-2.3-8.2-4-16.6-4.6-26.3c0-4.8,0.8-9.4,1.8-13.9c0-0.1,0-0.1,0-0.2c-0.8-4.6-1.4-9.5-2-14.8
	c-0.3-2.6-0.6-5.2-1-7.9c-1.1-11.3-2.4-24.9,3.3-36.2c3.7-7.7,6.6-15.9,11-23.2c1-3.8,2.4-7.7,4.6-11.7
	c7.4-14.8,17.8-26.5,30.6-34.8c2-1.3,4.1-2.5,6.3-3.6c5.9-3.1,11.8-5.7,17.7-7.9c2.9-1.1,5.7-2,8.5-2.8c0.9-0.3,1.8-0.5,2.7-0.8
	c10.2-2.7,20.5-4.2,30.7-4.4c7.3-0.1,13.3,0.4,17,0.7c0,0,0.1,0,0.1,0c0.1,0,0.3,0,0.4,0c2.4-0.1,2.7-0.2,7.1-1.6
	C394.6,166,408.4,161.5,427.3,161.5"/>
<path id="line-23" class="st0" d="M426.6,151L426.6,151c9.9,0,20.6,1.2,32.6,3.9c0.5,0.1,1,0.2,1.5,0.3c0.4,0,0.9-0.1,1.3-0.1
	c4.3-0.4,9.2-0.9,14.6-1.1c0,0,0.7,0,0.7,0c0,0,0.6,0,0.6,0c0,0,0.6,0,0.6,0c2.2,0,4.2,0,6.2,0.1c0.3,0,0.6,0,0.8,0
	c0.6,0,1.1,0.1,1.7,0.1c4.9-0.8,9.6-1.1,14.6-1.4c3-0.2,6-0.3,9.1-0.5c4.4-0.3,8.6-0.2,12.4,0.1c5.2,0.4,9.8,1.1,13.7,1.6
	c0.6,0.1,1.3,0.2,2,0.3c4.2-0.2,8.6-0.4,13.2-0.4c1.3,0,2.6,0,4-0.1c0.8,0,1.7,0,2.5,0c3.3-0.1,6.8,0,10.5,0.2
	c6.6,0.3,13.8,0.9,21.2,1.7c7.8,0.9,13.7,1.7,17.4,2.4c1.4,0.3,2.8,0.6,4.1,0.8c0.4,0,0.8,0.1,1.2,0.1c9.4,0.8,24.3,1.2,38,8.7
	c25.1,11.9,42.6,34.4,48.4,61.8c0,0,0.1,0.4,0.1,0.5s0.1,0.4,0.1,0.5c1.1,5.7,1.8,11.6,2.2,17.5c1,14.7-0.3,29.8-3.9,44.5
	c-4.1,16.7-11.1,32.9-20.5,47.5c-4.3,8.4-8.6,16.3-12.9,24.1c-7.2,13.2-14.5,26.7-18.2,37.9c7.7,13,17.1,32.2,18.4,58.2
	c0.7,17.2,0.1,32.9-3.9,49.7c-3,13.2-8.2,27.2-17.5,44.2c0,0.1-1.3,2.2-1.3,2.3c0,0.1-1.4,2.1-1.4,2.2
	c-9.2,13.8-19.3,27.2-30.1,40.8c-9.4,11.4-18.9,22.5-28.3,33.4c-12.7,14.7-24.8,28.6-36.3,42.7c0,0-0.6,0.7-0.6,0.8
	c0,0-0.6,0.7-0.6,0.7c-10.8,12.7-24.8,29.3-41.5,44.6c-10.8,9.8-21.4,18.1-32.3,25.1c-14.7,9.5-30.2,16.9-46.2,21.5
	c-6.7,2-13.6,3.3-20.3,4c-11.6,1.2-22.9,0.4-33.7-2.6c-2.1-0.5-4-1.2-6-1.9c-7.5-2.6-13.4-7.1-19.3-12.2c-2.7-2.4-5.3-4.8-7.8-7
	c-5.8-1.8-11.6-3.8-17.7-5.8c-14.3-5.2-24.4-12.8-33-21.9c-4.2-4.5-7.7-9.1-11.2-13.3c-6.8-2-15-4.4-24.3-7.5
	c-12.9-5-24.9-11.8-33.8-21.7c-1.2-1.3-2.3-2.6-3.3-4c-5.6-7.7-9.6-15.6-11.2-23.4c-1.1-4.6-1.8-8.8-2.2-13.7
	c-0.1-0.7-0.1-1.4-0.2-2.1c-0.3-4.9-0.6-9.8,0.1-14.4c0.9-2.8,0.4-5.4,1.1-8.7c0.9-6.9,2.5-12.4,4.5-19.2c1.4-5,2.6-10,3.9-15
	c3.2-11.3,7.3-21.7,16.1-30.7c1-1.3,1.9-2.5,2.9-3.7c3.9-5,8-8.3,13.9-12.8c3.1-2.7,6.1-5,9.1-6.9c-4.1-7.2-8.6-14.6-11.7-23.7
	c-4.4-13.9-5.2-29.3-0.7-47.5c1.2-5.3,2.1-10.6,3.2-15.9c-1.6-8-3.1-17.5-0.7-27.7c0.3-1.2,0.6-2.3,0.9-3.5c1.3-4.6,1.6-9.9,3-14.6
	c1.4-4.2,3-8.1,4.7-11.9c-0.8-2.3-1.6-4.7-2.4-7.1c0.1-0.6-2.9-7.8-3-8.2c-0.1-0.5-1.9-8.1-2.2-8.5c-2.4-8.6-4.1-17.2-4.5-27.2
	c0.1-4.9,0.8-9.6,1.9-14.4c0-0.1,0-0.1,0-0.2c-0.9-4.7-1.5-9.8-2.2-15.3c-0.3-2.7-0.7-5.4-1-8.1c-1.2-11.7-2.2-25.8,3.5-37.4
	c3.7-8,6.8-16.4,11.4-24c1-3.9,2.5-8,4.7-12.1c7.6-15.4,18.4-27.6,31.7-36.4c2.1-1.3,4.3-2.6,6.5-3.7c6.1-3.3,12.2-6,18.3-8.3
	c3-1.1,5.9-2.1,8.8-3c0.9-0.3,1.9-0.6,2.8-0.8c10.6-2.9,21.3-4.4,31.9-4.6c7.6-0.1,13.8,0.5,17.7,0.7c0,0,0.1,0,0.2,0
	c0.1,0,0.3,0,0.4,0c2.5-0.1,2.8-0.1,7.4-1.6C392.6,155.6,407,151,426.6,151"/>
<path id="line-24" class="st0" d="M425.9,140.5L425.9,140.5c10.3,0,21.3,1.3,33.7,4c0.5,0.1,1,0.2,1.6,0.3c0.4,0,0.9-0.1,1.3-0.1
	c4.4-0.4,9.5-1,15.1-1.1c0,0,0.7,0,0.7,0c0,0,0.6,0,0.7,0s0.6,0,0.7,0c2.2,0,4.4,0,6.4,0.2c0.3,0,0.6,0,0.9,0.1
	c0.6,0,1.2,0.1,1.8,0.1c5-0.8,10-1.2,15.1-1.5c3.1-0.2,6.2-0.3,9.4-0.5c4.6-0.3,8.8-0.1,12.8,0.1c5.4,0.4,10.1,1.1,14.2,1.7
	c0.6,0.1,1.4,0.2,2.1,0.3c4.3-0.3,8.8-0.4,13.6-0.5c1.4,0,2.7,0,4.1-0.1c0.9,0,1.7,0,2.6,0c3.4,0,7,0,10.9,0.2
	c6.8,0.3,14.2,0.9,21.8,1.8c8,0.9,14.1,1.8,17.9,2.5c1.5,0.3,2.9,0.6,4.2,0.9c0.4,0,0.8,0.1,1.2,0.1c9.6,0.8,24.9,1.3,39.2,8.9
	c26.1,12.3,44.5,35.5,50.7,63.9c0,0,0.1,0.5,0.1,0.5s0.1,0.5,0.1,0.5c1.2,6,2,12,2.3,18.1c1.1,15.2-0.2,30.9-3.9,46.2
	c-4.2,17.3-11.5,34.1-21.2,49.2c-4.4,8.7-9,16.9-13.4,25c-7.5,13.7-15.1,27.7-18.9,39.3c8.1,13.4,18,33.3,19.3,60.4
	c0.7,17.7,0,34-4.4,51.4c-3.2,13.7-8.7,28.2-18.5,45.7c0,0.1-1.3,2.3-1.4,2.4c0,0.1-1.5,2.2-1.5,2.3c-9.6,14.3-20.1,28.2-31.2,42.2
	c-9.7,11.8-19.6,23.3-29.3,34.5c-13.1,15.2-25.7,29.5-37.5,44.1c0,0-0.6,0.7-0.6,0.8s-0.6,0.7-0.6,0.8c-11.1,13.1-25.7,30.3-43,46.1
	c-11.2,10.2-22.1,18.7-33.5,25.9c-15.2,9.7-31.3,17.3-47.8,22c-7,2-14,3.3-21,4c-12,1.1-23.7,0.2-34.8-2.9c-2.1-0.6-4.2-1.2-6.2-2
	c-7.7-2.7-13.9-7.3-19.9-12.5c-2.8-2.4-5.5-4.9-8.1-7.2c-6-1.9-12-3.9-18.2-6c-14.6-5.4-25.2-13.2-34.1-22.6
	c-4.3-4.6-8-9.3-11.6-13.7c-7.1-2-15.5-4.5-25.1-7.7c-13.3-5.2-25.7-12.2-34.8-22.5c-1.2-1.3-2.3-2.7-3.4-4.1
	c-5.9-7.9-10-16-11.8-24.2c-1.2-4.7-2-9.2-2.5-14.2c-0.1-0.7-0.1-1.5-0.2-2.2c-0.3-5.1-0.7-10.2-0.1-14.9c0.9-3,0.4-5.6,1.1-9.1
	c0.9-7.1,2.5-12.9,4.5-19.9c1.4-5.2,2.7-10.4,4.1-15.4c3.4-11.7,7.7-22.4,16.9-31.7c1-1.3,2-2.6,3.1-3.8c4.1-5.1,8.4-8.6,14.5-13.2
	c3.2-2.7,6.4-5.1,9.6-7.1c-4.2-7.4-8.9-15.1-12-24.6c-4.5-14.4-5.3-30.4-0.8-49c1.2-5.4,2.2-10.9,3.4-16.4c-1.6-8.3-3.1-18-0.7-28.6
	c0.3-1.2,0.6-2.4,0.9-3.6c1.3-4.8,1.6-10.2,3.1-15c1.5-4.3,3.1-8.4,4.9-12.3c-0.8-2.4-1.7-4.8-2.6-7.3c0.1-0.6-3-8-3.1-8.4
	c-0.1-0.5-1.9-8.4-2.3-8.8c-2.4-8.9-4.1-17.9-4.5-28.1c0.1-5,0.8-9.9,2-14.8c0-0.1,0-0.1,0-0.2c-0.9-4.8-1.6-10.1-2.3-15.8
	c-0.4-2.8-0.7-5.6-1-8.4c-1.2-12.2-2.1-26.6,3.7-38.6c3.8-8.3,7-16.9,11.8-24.7c1.1-4,2.5-8.3,4.8-12.5c7.8-16,18.9-28.8,32.7-37.9
	c2.2-1.4,4.4-2.7,6.7-3.9c6.3-3.4,12.6-6.3,19-8.7c3.1-1.2,6.1-2.2,9.2-3.1c1-0.3,1.9-0.6,2.9-0.9c11-3,22.1-4.6,33.1-4.8
	c7.9-0.1,14.3,0.5,18.4,0.8c0.1,0,0.1,0,0.2,0c0.2,0,0.3,0,0.5,0c2.6-0.1,2.8-0.1,7.7-1.7C390.6,145.3,405.5,140.5,425.9,140.5"/>
<path id="line-25" class="st0" d="M425.2,130L425.2,130c10.6,0,22,1.3,34.7,4.1c0.5,0.1,1.1,0.2,1.6,0.3c0.5,0,0.9-0.1,1.4-0.1
	c4.5-0.5,9.8-1,15.6-1.1c0,0,0.7,0,0.8,0c0,0,0.7,0,0.7,0c0,0,0.7,0,0.7,0c2.3,0,4.5,0.1,6.6,0.2c0.3,0,0.6,0,0.9,0.1
	c0.6,0,1.2,0.1,1.8,0.1c5.2-0.8,10.3-1.3,15.5-1.6c3.2-0.2,6.4-0.4,9.7-0.5c4.7-0.2,9.1-0.1,13.2,0.2c5.5,0.4,10.4,1.1,14.6,1.7
	c0.7,0.1,1.4,0.2,2.1,0.3c4.5-0.3,9.1-0.4,14-0.5c1.4,0,2.8,0,4.2-0.1c0.9,0,1.8,0,2.7,0c3.5,0,7.2,0,11.2,0.2
	c7,0.3,14.6,1,22.4,1.8c8.2,0.9,14.4,1.8,18.5,2.6c1.5,0.3,3,0.6,4.4,0.9c0.4,0,0.9,0.1,1.3,0.1c9.8,0.8,25.6,1.4,40.4,9.1
	c27.2,12.6,46.4,36.6,53,65.9c0,0,0.1,0.5,0.1,0.5c0,0,0.1,0.5,0.1,0.5c1.3,6.2,2.1,12.5,2.5,18.8c1.2,15.8-0.1,32-3.9,47.8
	c-4.3,17.9-11.8,35.3-21.9,51c-4.6,9-9.3,17.5-13.8,25.8c-7.8,14.2-15.6,28.7-19.6,40.6c8.5,13.8,18.8,34.4,20.3,62.5
	c0.8,18.3-0.1,35.1-4.8,53.2c-3.4,14.1-9.3,29.2-19.4,47.2c0,0.1-1.4,2.3-1.4,2.4c0,0.1-1.5,2.2-1.5,2.3
	c-10,14.8-20.8,29.1-32.3,43.5c-10,12.2-20.2,24-30.3,35.6c-13.6,15.7-26.6,30.5-38.7,45.6c0,0-0.6,0.8-0.6,0.8c0,0-0.6,0.8-0.7,0.8
	c-11.4,13.5-26.5,31.3-44.4,47.6c-11.5,10.5-22.9,19.2-34.7,26.7c-15.8,10-32.4,17.7-49.4,22.4c-7.2,2-14.5,3.3-21.7,4
	c-12.3,1.1-24.4,0.1-35.9-3.2c-2.2-0.6-4.3-1.3-6.3-2.1c-7.9-2.8-14.3-7.5-20.6-12.9c-2.9-2.5-5.7-5-8.3-7.5
	c-6.2-1.9-12.4-4-18.8-6.2c-15-5.5-25.9-13.6-35.2-23.3c-4.5-4.8-8.3-9.6-12-14.1c-7.3-2.1-16-4.6-25.8-8
	c-13.7-5.4-26.4-12.7-35.9-23.3c-1.2-1.4-2.4-2.8-3.5-4.3c-6.1-8.1-10.4-16.5-12.5-24.9c-1.3-4.9-2.2-9.6-2.8-14.8
	c-0.1-0.8-0.2-1.5-0.2-2.3c-0.4-5.3-0.8-10.6-0.3-15.5c0.8-3.1,0.3-5.9,1-9.4c0.9-7.3,2.4-13.4,4.5-20.6c1.5-5.4,2.8-10.7,4.3-15.9
	c3.6-12,8.2-23.1,17.7-32.6c1-1.4,2.1-2.7,3.2-3.9c4.2-5.2,8.8-8.9,15-13.5c3.4-2.8,6.7-5.2,10-7.2c-4.4-7.6-9.1-15.6-12.2-25.4
	c-4.6-15-5.4-31.4-0.9-50.6c1.2-5.6,2.3-11.2,3.5-16.9c-1.7-8.5-3.2-18.5-0.8-29.5c0.3-1.3,0.5-2.5,0.9-3.8c1.3-5,1.7-10.5,3.2-15.5
	c1.5-4.4,3.2-8.6,5-12.7c-0.9-2.5-1.8-5-2.7-7.5c0.1-0.6-3.2-8.3-3.2-8.7c-0.1-0.5-2-8.7-2.3-9.1c-2.5-9.2-4.1-18.5-4.5-29
	c0.1-5.2,0.9-10.2,2-15.3c0-0.1,0-0.1,0-0.2c-1-5-1.8-10.4-2.5-16.3c-0.4-2.9-0.7-5.7-1.1-8.7c-1.2-12.6-2-27.4,3.9-39.8
	c3.8-8.5,7.2-17.5,12.2-25.4c1.1-4.1,2.6-8.5,4.9-12.9c8-16.6,19.5-29.9,33.8-39.4c2.3-1.5,4.6-2.8,7-4.1c6.5-3.6,13.1-6.6,19.7-9.1
	c3.2-1.2,6.3-2.3,9.5-3.3c1-0.3,2-0.6,3-0.9c11.4-3.1,22.8-4.8,34.2-5c8.2-0.1,14.9,0.5,19,0.9c0.1,0,0.1,0,0.2,0c0.2,0,0.3,0,0.5,0
	c2.7-0.1,2.9-0.1,8-1.7C388.6,135,404.1,130,425.2,130"/>
<path id="line-26" class="st0" d="M424.5,119.5L424.5,119.5c11,0,22.7,1.3,35.8,4.2c0.6,0.1,1.1,0.2,1.7,0.3
	c0.5-0.1,0.9-0.1,1.4-0.2c4.7-0.5,10.1-1,16-1.1c0,0,0.7,0,0.8,0c0,0,0.7,0,0.7,0s0.7,0,0.7,0c2.4,0,4.6,0.1,6.8,0.2
	c0.3,0,0.6,0,0.9,0.1c0.6,0,1.3,0.1,1.9,0.1c5.3-0.9,10.6-1.3,16-1.7c3.3-0.2,6.6-0.4,10-0.5c4.8-0.2,9.4-0.1,13.6,0.2
	c5.7,0.4,10.7,1.2,15,1.8c0.7,0.1,1.5,0.2,2.2,0.3c4.6-0.3,9.4-0.5,14.4-0.6c1.4,0,2.9,0,4.4-0.1c0.9,0,1.8,0,2.8,0
	c3.6,0,7.4,0,11.5,0.2c7.2,0.3,15,1,23.1,1.9c8.4,0.9,14.8,1.9,19,2.6c1.6,0.3,3.1,0.6,4.5,0.9c0.4,0,0.9,0.1,1.3,0.1
	c10.1,0.8,26.2,1.4,41.6,9.3c28.3,12.9,48.3,37.6,55.2,68c0,0,0.1,0.5,0.1,0.5c0,0,0.1,0.5,0.1,0.5c1.4,6.4,2.3,12.9,2.7,19.4
	c1.3,16.3,0,33.1-3.9,49.5c-4.4,18.5-12.2,36.6-22.6,52.7c-4.7,9.3-9.6,18.1-14.3,26.7c-8,14.7-16.2,29.7-20.3,42
	c8.9,14.2,19.7,35.5,21.2,64.6c0.8,18.8-0.3,36.2-5.2,54.9c-3.7,14.6-9.8,30.2-20.3,48.7c0,0.1-1.4,2.4-1.5,2.5
	c0,0.1-1.6,2.3-1.6,2.4c-10.4,15.3-21.6,30-33.4,44.8c-10.4,12.6-20.9,24.8-31.3,36.8c-14,16.2-27.4,31.5-40,47c0,0-0.6,0.8-0.7,0.8
	c0,0-0.7,0.8-0.7,0.8c-11.8,13.9-27.3,32.3-45.8,49.1c-11.9,10.8-23.7,19.8-35.8,27.5c-16.3,10.2-33.4,18.1-50.9,22.8
	c-7.4,2-14.9,3.3-22.4,3.9c-12.7,1-25.1-0.1-36.9-3.5c-2.2-0.6-4.4-1.4-6.5-2.2c-8.1-3-14.7-7.7-21.2-13.3c-3-2.6-5.9-5.2-8.6-7.7
	c-6.4-2-12.8-4.1-19.3-6.4c-15.3-5.7-26.6-14-36.2-23.9c-4.7-4.9-8.6-9.9-12.4-14.5c-7.6-2.1-16.6-4.7-26.6-8.2
	c-14.1-5.6-27.1-13.2-36.9-24c-1.3-1.4-2.5-2.9-3.7-4.4c-6.3-8.3-10.9-16.9-13.1-25.7c-1.5-5.1-2.4-10-3.1-15.4
	c-0.1-0.8-0.2-1.6-0.3-2.4c-0.5-5.5-1-10.9-0.5-16.1c0.8-3.2,0.3-6.1,0.9-9.8c0.8-7.6,2.4-13.9,4.5-21.4c1.5-5.5,2.8-11,4.4-16.4
	c3.8-12.4,8.7-23.8,18.4-33.6c1.1-1.4,2.2-2.7,3.3-4c4.4-5.3,9.2-9.1,15.6-13.9c3.5-2.8,6.9-5.3,10.4-7.4
	c-4.5-7.8-9.3-16.1-12.5-26.2c-4.7-15.5-5.5-32.5-0.9-52.1c1.3-5.7,2.3-11.5,3.7-17.4c-1.7-8.7-3.2-19.1-0.9-30.4
	c0.3-1.3,0.5-2.6,0.9-3.9c1.3-5.1,1.8-10.8,3.3-15.9c1.5-4.5,3.2-8.9,5.1-13.1c-0.9-2.5-1.9-5.1-2.9-7.7c0.1-0.5-3.3-8.6-3.4-8.9
	c-0.1-0.5-2.1-9-2.3-9.3c-2.5-9.5-4.2-19.1-4.5-29.9c0.1-5.3,0.9-10.5,2.1-15.7c0-0.1,0-0.1,0-0.2c-1.1-5.1-1.9-10.7-2.7-16.7
	c-0.4-3-0.7-5.9-1.1-8.9c-1.2-13.1-1.9-28.2,4-41c3.9-8.8,7.4-18,12.6-26.2c1.1-4.2,2.7-8.8,5-13.3c8.2-17.2,20-31,34.9-40.9
	c2.3-1.5,4.7-2.9,7.2-4.3c6.7-3.7,13.5-6.9,20.4-9.5c3.3-1.3,6.5-2.4,9.8-3.4c1-0.3,2.1-0.6,3.1-0.9c11.7-3.2,23.6-5,35.4-5.2
	c8.5-0.1,15.4,0.6,19.7,0.9c0.1,0,0.1,0,0.2,0c0.2,0,0.3,0,0.5,0c2.8-0.1,3-0.1,8.2-1.8C386.6,124.7,402.6,119.5,424.5,119.5"/>
<path id="line-27" class="st0" d="M423.8,109L423.8,109c11.3,0,23.4,1.4,36.8,4.3c0.6,0.1,1.1,0.2,1.7,0.3c0.5-0.1,1-0.1,1.5-0.2
	c4.8-0.5,10.4-1.1,16.5-1.2c0,0,0.8,0,0.8,0c0,0,0.7,0,0.7,0c0,0,0.7,0,0.7,0c2.5,0,4.8,0.1,7,0.2c0.3,0,0.6,0,0.9,0.1
	c0.7,0,1.3,0.1,1.9,0.1c5.5-0.9,10.9-1.4,16.5-1.8c3.4-0.2,6.8-0.4,10.3-0.5c5-0.2,9.6-0.1,14,0.3c5.9,0.5,11,1.2,15.4,1.9
	c0.7,0.1,1.5,0.2,2.3,0.3c4.7-0.3,9.6-0.5,14.8-0.6c1.5,0,3-0.1,4.5-0.1c0.9,0,1.9,0,2.8,0c3.7,0,7.7,0.1,11.8,0.2
	c7.4,0.3,15.4,1,23.7,2c8.6,1,15.2,1.9,19.5,2.7c1.6,0.3,3.2,0.6,4.6,0.9c0.5,0,0.9,0.1,1.3,0.1c10.3,0.9,26.9,1.5,42.9,9.5
	c29.4,13.2,50.3,38.7,57.5,70.1c0,0,0.1,0.5,0.1,0.5c0,0,0.1,0.5,0.1,0.5c1.4,6.6,2.4,13.3,2.9,20.1c1.4,16.9,0.1,34.2-3.9,51.2
	c-4.5,19.2-12.5,37.8-23.3,54.5c-4.9,9.6-9.9,18.7-14.8,27.6c-8.3,15.1-16.8,30.7-21,43.4c9.3,14.7,20.6,36.6,22.1,66.7
	c0.8,19.3-0.4,37.4-5.7,56.7c-3.9,15.1-10.4,31.2-21.2,50.2c0,0.1-1.5,2.5-1.5,2.6c0,0.1-1.6,2.4-1.7,2.5
	c-10.7,15.7-22.3,31-34.6,46.2c-10.7,13-21.6,25.5-32.3,37.9c-14.5,16.7-28.3,32.5-41.2,48.5c0,0-0.7,0.8-0.7,0.9s-0.7,0.8-0.7,0.8
	c-12.1,14.3-28.1,33.3-47.3,50.6c-12.3,11.2-24.4,20.4-37,28.2c-16.8,10.5-34.5,18.5-52.5,23.2c-7.7,2-15.4,3.4-23,3.9
	c-13.1,1-25.9-0.3-38-3.8c-2.3-0.7-4.5-1.4-6.7-2.3c-8.3-3.1-15.1-8-21.8-13.6c-3.1-2.6-6-5.3-8.8-7.9c-6.6-2-13.2-4.2-19.9-6.6
	c-15.6-5.9-27.3-14.4-37.3-24.6c-4.8-5-8.9-10.1-12.7-14.9c-7.8-2.1-17.1-4.8-27.3-8.5c-14.5-5.8-27.9-13.7-38-24.8
	c-1.3-1.4-2.6-2.9-3.8-4.5c-6.5-8.5-11.3-17.4-13.8-26.4c-1.6-5.3-2.7-10.3-3.4-16c-0.1-0.8-0.2-1.6-0.3-2.4
	c-0.6-5.7-1.1-11.3-0.7-16.7c0.7-3.3,0.2-6.4,0.8-10.1c0.8-7.8,2.3-14.4,4.4-22.1c1.5-5.7,2.9-11.3,4.6-16.9
	c3.9-12.8,9.2-24.4,19.2-34.5c1.1-1.4,2.3-2.8,3.5-4.1c4.6-5.5,9.6-9.4,16.2-14.2c3.6-2.9,7.2-5.4,10.9-7.5
	c-4.6-8.1-9.5-16.7-12.8-27c-4.8-16-5.7-33.6-1-53.7c1.3-5.9,2.4-11.9,3.8-17.9c-1.8-9-3.3-19.6-0.9-31.2c0.3-1.3,0.5-2.7,0.9-4
	c1.3-5.3,1.8-11.1,3.5-16.4c1.6-4.7,3.3-9.1,5.3-13.4c-1-2.6-2-5.2-3-8c0.1-0.5-3.5-8.8-3.5-9.2c-0.1-0.4-2.1-9.3-2.4-9.6
	c-2.6-9.8-4.2-19.8-4.4-30.8c0.1-5.5,1-10.8,2.2-16.2c0-0.1,0-0.1,0-0.2c-1.1-5.3-2-11-2.8-17.2c-0.4-3-0.8-6.1-1.1-9.2
	c-1.3-13.6-1.8-29,4.2-42.2c4-9.1,7.7-18.5,13-26.9c1.2-4.4,2.7-9,5.1-13.7c8.4-17.8,20.6-32.1,35.9-42.5c2.4-1.6,4.9-3,7.4-4.4
	c7-3.9,14-7.2,21-9.9c3.4-1.3,6.8-2.5,10.1-3.5c1.1-0.3,2.2-0.7,3.2-1c12.1-3.4,24.4-5.2,36.6-5.3c8.8-0.1,15.9,0.6,20.4,1
	c0.1,0,0.1,0,0.2,0c0.2,0,0.3,0,0.5,0c2.9-0.1,3.1-0.1,8.5-1.9C384.6,114.4,401.2,109,423.8,109"/>
<path id="line-28" class="st0" d="M423.1,98.6L423.1,98.6c11.7,0,24.1,1.4,37.9,4.4c0.6,0.1,1.2,0.2,1.8,0.3c0.5-0.1,1-0.1,1.5-0.2
	c4.9-0.5,10.7-1.1,17-1.2c0,0,0.8,0,0.8,0c0,0,0.7,0,0.8,0s0.7,0,0.8,0c2.5,0,4.9,0.1,7.2,0.2c0.3,0,0.7,0,1,0.1
	c0.7,0,1.3,0.1,2,0.1c5.6-1,11.2-1.5,17-1.9c3.5-0.2,7-0.4,10.6-0.5c5.1-0.2,9.9-0.1,14.3,0.3c6,0.5,11.3,1.2,15.8,1.9
	c0.7,0.1,1.5,0.2,2.3,0.3c4.8-0.4,9.9-0.5,15.2-0.6c1.5,0,3-0.1,4.6-0.1c1,0,1.9,0,2.9,0c3.8,0,7.9,0.1,12.1,0.3
	c7.6,0.4,15.9,1.1,24.4,2c8.8,1,15.5,1.9,20.1,2.8c1.7,0.3,3.3,0.6,4.7,0.9c0.5,0,1,0.1,1.4,0.1c10.5,0.9,27.5,1.6,44.1,9.7
	c30.4,13.5,52.2,39.8,59.8,72.2c0,0,0.1,0.5,0.1,0.5c0,0,0.1,0.5,0.1,0.6c1.5,6.8,2.5,13.8,3.1,20.8c1.5,17.4,0.2,35.4-3.9,52.9
	c-4.7,19.8-12.9,39-24,56.2c-5.1,9.9-10.2,19.3-15.3,28.5c-8.6,15.6-17.3,31.6-21.7,44.8c9.7,15.1,21.4,37.8,23,68.8
	c0.9,19.8-0.5,38.5-6.1,58.4c-4.2,15.6-11,32.1-22.1,51.7c0,0.1-1.5,2.6-1.6,2.7c0,0.1-1.7,2.5-1.7,2.6
	c-11.1,16.2-23.1,31.9-35.7,47.5c-11,13.4-22.2,26.3-33.3,39c-14.9,17.2-29.1,33.4-42.4,49.9c0,0-0.7,0.9-0.7,0.9s-0.7,0.8-0.7,0.9
	c-12.4,14.7-28.9,34.3-48.7,52.1c-12.7,11.5-25.2,21-38.2,29c-17.3,10.7-35.5,18.9-54.1,23.7c-7.9,2-15.9,3.4-23.7,3.9
	c-13.5,1-26.6-0.4-39.1-4.2c-2.4-0.7-4.6-1.5-6.9-2.4c-8.5-3.2-15.6-8.2-22.4-14c-3.2-2.7-6.2-5.5-9.1-8.1
	c-6.8-2.1-13.6-4.4-20.4-6.8c-16-6.1-28.1-14.8-38.3-25.3c-5-5.2-9.1-10.4-13.1-15.3c-8.1-2.2-17.6-4.9-28.1-8.7
	c-14.9-6-28.6-14.2-39.1-25.6c-1.4-1.5-2.7-3-3.9-4.6c-6.7-8.7-11.7-17.8-14.4-27.2c-1.7-5.5-2.9-10.7-3.8-16.5
	c-0.1-0.8-0.2-1.7-0.3-2.5c-0.7-5.9-1.2-11.7-0.9-17.3c0.6-3.4,0.2-6.6,0.7-10.4c0.8-8,2.3-14.9,4.4-22.8c1.5-5.9,3-11.7,4.8-17.4
	c4.1-13.1,9.7-25.1,19.9-35.5c1.2-1.5,2.4-2.9,3.6-4.2c4.8-5.6,10-9.7,16.7-14.5c3.8-2.9,7.5-5.5,11.3-7.7
	c-4.8-8.3-9.7-17.2-13.1-27.9c-5-16.5-5.8-34.7-1.1-55.2c1.3-6.1,2.5-12.2,4-18.4c-1.8-9.2-3.3-20.1-1-32.1c0.3-1.4,0.5-2.8,0.9-4.1
	c1.3-5.5,1.9-11.4,3.6-16.9c1.6-4.8,3.4-9.4,5.4-13.8c-1-2.7-2.1-5.4-3.2-8.2c0.1-0.5-3.6-9.1-3.7-9.4c-0.1-0.4-2.2-9.6-2.4-9.9
	c-2.6-10.1-4.2-20.4-4.4-31.7c0.2-5.6,1-11.1,2.2-16.6c0-0.1,0-0.1,0-0.2c-1.2-5.4-2.1-11.3-3-17.7c-0.4-3.1-0.8-6.3-1.1-9.4
	c-1.3-14-1.7-29.8,4.4-43.4c4-9.4,7.9-19,13.4-27.7c1.2-4.5,2.8-9.3,5.2-14.1c8.6-18.4,21.1-33.3,37-44c2.5-1.6,5-3.2,7.7-4.6
	c7.2-4.1,14.4-7.5,21.7-10.3c3.5-1.4,7-2.6,10.5-3.7c1.1-0.3,2.2-0.7,3.3-1c12.5-3.5,25.2-5.4,37.8-5.5c9.1-0.1,16.5,0.7,21,1.1
	c0.1,0,0.1,0,0.2,0c0.2,0,0.4,0,0.5,0c3-0.1,3.2-0.1,8.8-1.9C382.6,104.1,399.7,98.6,423.1,98.6"/>
<path id="line-29" class="st0" d="M422.4,88.1L422.4,88.1c12,0,24.8,1.5,38.9,4.5c0.6,0.1,1.2,0.2,1.8,0.4c0.5-0.1,1-0.1,1.5-0.2
	c5-0.5,10.9-1.1,17.4-1.2c0,0,0.8,0,0.8,0c0,0,0.7,0,0.8,0c0,0,0.7,0,0.8,0c2.6,0,5.1,0.1,7.4,0.2c0.3,0,0.7,0,1,0.1
	c0.7,0,1.4,0.1,2,0.2c5.8-1,11.5-1.6,17.4-1.9c3.5-0.2,7.2-0.4,10.9-0.5c5.3-0.2,10.2,0,14.7,0.3c6.2,0.5,11.6,1.3,16.2,2
	c0.7,0.1,1.6,0.2,2.4,0.3c5-0.4,10.1-0.6,15.6-0.7c1.6,0,3.1-0.1,4.7-0.1c1,0,2,0,3,0c3.9,0,8.1,0.1,12.5,0.3
	c7.8,0.4,16.3,1.1,25,2.1c9.1,1,15.9,2,20.6,2.8c1.7,0.3,3.3,0.7,4.9,1c0.5,0,1,0.1,1.4,0.1c10.8,0.9,28.2,1.6,45.3,9.8
	c31.5,13.8,54.1,40.8,62.1,74.3c0,0,0.1,0.6,0.1,0.6s0.1,0.6,0.1,0.6c1.6,7,2.7,14.2,3.3,21.4c1.6,18,0.4,36.5-3.9,54.5
	c-4.8,20.4-13.3,40.3-24.7,58c-5.2,10.2-10.6,19.9-15.8,29.3c-8.9,16.1-17.9,32.6-22.4,46.2c10.1,15.5,22.3,38.9,24,70.9
	c0.9,20.4-0.6,39.6-6.5,60.2c-4.4,16-11.5,33.1-23.1,53.2c0,0.1-1.6,2.7-1.6,2.8c0,0.1-1.8,2.5-1.8,2.6
	c-11.5,16.7-23.8,32.8-36.8,48.9c-11.4,13.8-22.9,27.1-34.2,40.1c-15.4,17.7-30,34.4-43.7,51.4c0,0-0.7,0.9-0.7,0.9
	s-0.7,0.9-0.8,0.9c-12.8,15.1-29.8,35.2-50.1,53.6c-13.1,11.8-26,21.6-39.3,29.8c-17.8,11-36.6,19.3-55.7,24.1
	c-8.1,2.1-16.3,3.4-24.4,3.9c-13.9,0.9-27.4-0.6-40.2-4.5c-2.4-0.7-4.8-1.5-7.1-2.5c-8.7-3.3-16-8.4-23.1-14.4
	c-3.3-2.8-6.4-5.6-9.3-8.3c-7-2.1-13.9-4.5-20.9-7c-16.3-6.3-28.8-15.2-39.4-26c-5.1-5.3-9.4-10.6-13.5-15.7
	c-8.3-2.2-18.1-5.1-28.8-9c-15.3-6.2-29.4-14.6-40.1-26.3c-1.4-1.5-2.8-3.1-4-4.7c-7-8.9-12.2-18.3-15-27.9
	c-1.8-5.6-3.1-11.1-4.1-17.1c-0.1-0.9-0.3-1.7-0.4-2.6c-0.8-6.1-1.4-12.1-1.1-17.8c0.6-3.5,0.1-6.9,0.7-10.8
	c0.7-8.3,2.3-15.4,4.4-23.5c1.6-6,3.1-12,4.9-17.8c4.3-13.5,10.2-25.8,20.7-36.4c1.2-1.5,2.5-2.9,3.7-4.3c5-5.7,10.4-10,17.3-14.9
	c3.9-3,7.8-5.6,11.7-7.9c-4.9-8.5-9.9-17.7-13.4-28.7c-5.1-17.1-5.9-35.7-1.2-56.8c1.3-6.2,2.6-12.5,4.1-18.9
	c-1.8-9.4-3.4-20.7-1-33c0.2-1.4,0.5-2.9,0.9-4.3c1.3-5.7,2-11.7,3.7-17.3c1.6-4.9,3.5-9.6,5.6-14.2c-1.1-2.7-2.2-5.5-3.3-8.4
	c0.1-0.5-3.8-9.3-3.8-9.7c-0.1-0.4-2.2-9.9-2.5-10.2c-2.7-10.4-4.3-21-4.4-32.6c0.2-5.8,1-11.4,2.3-17.1c0-0.1,0-0.1,0-0.2
	c-1.3-5.6-2.3-11.6-3.1-18.2c-0.4-3.2-0.8-6.4-1.2-9.7c-1.3-14.5-1.5-30.6,4.6-44.6c4.1-9.7,8.1-19.5,13.8-28.4
	c1.2-4.6,2.9-9.5,5.3-14.5c8.8-19,21.7-34.4,38.1-45.5c2.6-1.7,5.2-3.3,7.9-4.8c7.4-4.2,14.8-7.7,22.4-10.7
	c3.6-1.4,7.2-2.7,10.8-3.8c1.1-0.4,2.3-0.7,3.4-1c12.9-3.6,25.9-5.6,39-5.7c9.4-0.1,17,0.7,21.7,1.2c0.1,0,0.1,0,0.2,0
	c0.2,0,0.4,0,0.5,0c3.1-0.1,3.3-0.1,9.1-2C380.6,93.7,398.3,88.1,422.4,88.1"/>
<path id="line-30" class="st0" d="M421.7,77.6L421.7,77.6c12.3,0,25.5,1.5,40,4.6c0.6,0.1,1.2,0.2,1.9,0.4c0.5-0.1,1-0.1,1.6-0.2
	c5.2-0.6,11.2-1.1,17.9-1.2c0,0,0.8,0,0.9,0c0,0,0.8,0,0.8,0c0,0,0.8,0,0.8,0c2.7,0,5.2,0.1,7.6,0.2c0.3,0,0.7,0,1,0.1
	c0.7,0,1.4,0.1,2.1,0.2c5.9-1,11.8-1.6,17.9-2c3.6-0.2,7.4-0.4,11.2-0.5c5.4-0.2,10.4,0,15.1,0.4c6.4,0.5,12,1.3,16.7,2
	c0.8,0.1,1.6,0.2,2.4,0.4c5.1-0.4,10.4-0.6,16-0.7c1.6,0,3.2-0.1,4.8-0.1c1,0,2,0,3.1,0c4,0,8.3,0.1,12.8,0.3
	c8,0.4,16.7,1.1,25.7,2.1c9.3,1,16.3,2,21.1,2.9c1.8,0.3,3.4,0.7,5,1c0.5,0,1,0.1,1.5,0.1c11,0.9,28.8,1.7,46.5,10
	c32.6,14.1,56,41.9,64.4,76.4c0,0,0.1,0.6,0.1,0.6s0.1,0.6,0.1,0.6c1.7,7.2,2.8,14.6,3.4,22.1c1.7,18.5,0.5,37.6-3.8,56.2
	c-4.9,21.1-13.6,41.5-25.5,59.8c-5.4,10.5-10.9,20.5-16.2,30.2c-9.1,16.6-18.4,33.6-23.1,47.5c10.5,15.9,23.1,40,24.9,73
	c1,20.9-0.8,40.7-7,61.9c-4.6,16.5-12.1,34.1-24,54.7c0,0.1-1.6,2.7-1.7,2.8c0,0.1-1.8,2.6-1.8,2.7c-11.9,17.2-24.6,33.8-37.9,50.2
	c-11.7,14.1-23.5,27.8-35.2,41.3c-15.8,18.2-30.8,35.4-44.9,52.8c0,0-0.7,0.9-0.8,0.9c0,0-0.8,0.9-0.8,0.9
	c-13.1,15.5-30.6,36.2-51.5,55.1c-13.5,12.1-26.7,22.2-40.5,30.6c-18.4,11.3-37.6,19.7-57.3,24.5c-8.3,2.1-16.8,3.4-25.1,3.9
	c-14.3,0.9-28.1-0.7-41.2-4.8c-2.5-0.7-4.9-1.6-7.2-2.6c-8.9-3.4-16.4-8.6-23.7-14.7c-3.4-2.9-6.6-5.7-9.6-8.5
	c-7.2-2.1-14.3-4.6-21.5-7.2c-16.6-6.4-29.5-15.6-40.4-26.6c-5.3-5.4-9.7-10.9-13.9-16.1c-8.6-2.2-18.6-5.2-29.6-9.2
	c-15.7-6.4-30.1-15.1-41.2-27.1c-1.4-1.6-2.8-3.2-4.2-4.9c-7.2-9.1-12.6-18.8-15.7-28.7c-1.9-5.8-3.4-11.5-4.4-17.7
	c-0.1-0.9-0.3-1.8-0.4-2.7c-0.8-6.2-1.5-12.5-1.3-18.4c0.5-3.7,0.1-7.1,0.6-11.1c0.7-8.5,2.2-15.9,4.4-24.2
	c1.6-6.2,3.2-12.3,5.1-18.3c4.5-13.8,10.7-26.5,21.4-37.4c1.3-1.5,2.6-3,3.9-4.4c5.2-5.8,10.8-10.2,17.9-15.2c4-3,8.1-5.7,12.2-8
	c-5-8.7-10.2-18.2-13.6-29.5c-5.2-17.6-6-36.8-1.2-58.3c1.3-6.4,2.6-12.8,4.3-19.4c-1.9-9.7-3.4-21.2-1.1-33.9
	c0.2-1.5,0.5-2.9,0.9-4.4c1.3-5.8,2-12,3.8-17.8c1.7-5,3.6-9.9,5.7-14.6c-1.1-2.8-2.3-5.7-3.5-8.6c0.1-0.5-3.9-9.6-4-9.9
	c-0.1-0.4-2.3-10.1-2.5-10.5c-2.7-10.8-4.3-21.7-4.3-33.5c0.2-5.9,1.1-11.7,2.4-17.5c0-0.1,0-0.1,0.1-0.2
	c-1.3-5.7-2.4-11.9-3.3-18.7c-0.5-3.3-0.8-6.6-1.2-9.9c-1.3-14.9-1.4-31.4,4.8-45.8c4.1-10,8.3-20.1,14.2-29.1
	c1.2-4.7,2.9-9.8,5.4-14.9c8.9-19.6,22.2-35.5,39.1-47c2.6-1.8,5.3-3.4,8.1-4.9c7.6-4.4,15.3-8,23-11.1c3.7-1.5,7.4-2.8,11.1-3.9
	c1.2-0.4,2.4-0.7,3.5-1.1c13.2-3.8,26.7-5.8,40.2-5.9c9.7-0.1,17.5,0.8,22.3,1.2c0.1,0,0.1,0,0.2,0c0.2,0,0.4,0,0.6,0
	c3.2-0.1,3.4-0.1,9.3-2C378.6,83.4,396.8,77.6,421.7,77.6"/>
</svg>
