<svg version="1.1" id="Livello_2_copia_2" xmlns:x="&ns_extend;" xmlns:i="&ns_ai;" xmlns:graph="&ns_graphs;"
	 xmlns="http://www.w3.org/2000/svg" xmlns:xlink="http://www.w3.org/1999/xlink" x="0px" y="0px" viewBox="0 0 907.1 907.1"
	 style="enable-background:new 0 0 907.1 907.1;" xml:space="preserve">
<style type="text/css">
	.st0{fill:none;stroke:#000000;stroke-miterlimit:10;}
</style>
<metadata>
	<sfw  xmlns="&ns_sfw;">
		<slices></slices>
		<sliceSourceBounds  bottomLeftOrigin="true" height="751" width="770.6" x="65" y="75.4"></sliceSourceBounds>
	</sfw>
</metadata>
<path id="line-1" class="st0" d="M513.1,374.6c0.5,0,0.9,0,1.3,0.1c5.6,0.7,7.9,4.6,11.4,8.2c3.5,3.5,3.1,6,3.4,10.4
	c0.2,3.9,2.5,6.2,1.3,10.2c-1.5,5-1.4,8.5-1.7,13.8c-0.2,2.8-0.8,5.4-0.9,8.1c-0.1,2.4,0.5,5.3-0.3,7.5l-1.5,4.8
	c-2.5,12-6.1,24.5-10.9,35.7c-2.2,5.1-4.6,9.8-7.5,14.4c-2.6,4.1-5.8,8.2-8.6,12c-3.4,4.4-6.8,8.9-11.3,12.2
	c-9.1,6.7-21.8,7.4-32.7,8.1c-2.6,0.2-5,0.5-7.5,1c-1.9,0.4-4.9,0.1-6.6,0.9c-3.7,1.7-3.1,8.2-7.2,9.6c-0.7,0.2-1.4,0.3-2.2,0.3
	c-2.1,0-4.4-0.7-5.9-1.4c-2.5-1.1-3.6-1.8-5.8-1.8c-0.7,0-1.4,0.1-2.3,0.2c-7.6,1-14.8,2.7-22.4,3.4c0,0.1-2.7,0.4-6.4,0.4
	c-6.7,0-16.6-1.1-19.1-7.3c-1.6-4.3-1.2-9.4,0.5-13.5c0.7-1.8,2-3.6,2.5-5.4c0.7-2.4,0.1-5.4,0.2-8c0.1-4.3,1.9-7.3,5-10.2
	c3.1-2.9,2-7.1,6.5-9.2c2.2-1,3-0.9,3.6-3.3c0.7-2.6,0.7-5.2,1.5-7.9c1.5-4.8,2.5-9.2-0.5-13.4c-2.9-4-3.5-7.2-0.8-11.5
	c2.3-3.7,4.5-7.7,7.2-11.3c0.6-0.8,0.7-1.4,1.3-2.1c0.6-0.7,1.4-0.1,2-1c0.9-1.5-0.3-4,0.7-5.8c0.8-1.4,2.4-1.8,3.2-3.2
	c0.8-1.4,0.3-3.5,0.6-5c0.9-5,1.5-5.7,5.9-6.6c1.6-0.3,4.1-0.8,5.5-1.6c1.6-1,1.9-2.4,4-2.9c3.2-0.8,5,0.7,7.7-2.3s1.7-7.7,5.4-10.1
	c1.1-0.7,2-0.9,2.7-0.9c1,0,1.9,0.3,3,0.3c0.3,0,0.6,0,0.9-0.1c1.7-0.2,2.2-1.5,3.5-2.5c3.5-3.1,7.3-6.5,11.5-9
	c2.3-1.4,4.1-2.4,6.2-2.4c1.6,0,3.3,0.6,5.5,2.3c1,0.8,1.9,2.3,2.8,3.1c1.3,1.1,3.5,1.4,5.1,2.4c2.3,1.5,2.8,2.3,3.1,4.9
	c3.6,0.1,5.6,0,8.2,2.7c2,2,2.1,2.4,5.5,2.7c3.5,0.3,4.6,1.6,7.2,3.9c1.3,1.2,2.2,1.6,2.8,1.6c1.3,0,1.6-2.1,2.6-4.7
	c0.7-1.8,1.5-3.4,1.9-5.4c0.5-2.6-0.5-6.2,1-8.5c0.8-1.1,1.8-0.9,2.5-2c0.7-1.2,0.1-2.4,1.1-3.5
	C509.6,374.9,511.5,374.6,513.1,374.6z"/>
<path id="line-2" class="st0" d="M402.6,401.7c1.8-0.6,4.5-1.2,6.1-2.2c1.4-0.8,2-2,3.3-2.7c0.4-0.2,0.8-0.4,1.3-0.5
	c0.9-0.2,1.7-0.3,2.4-0.3c1.4-0.2,2.7-0.2,4-0.8c0.7-0.4,1.5-1,2.3-2c1.8-2,2.4-4.6,3.5-7c0,0,0-0.1,0-0.1s0-0.1,0-0.1
	c0.7-1.6,1.7-3,3.3-4c1.2-0.8,2.2-1,3.2-1.1c0.2,0,0.3,0,0.5,0c0.9,0,1.8,0.1,2.9,0c0.3,0,0.6-0.1,1-0.2c1.9-0.4,2.6-1.7,4-2.9
	c0.3-0.2,0.5-0.4,0.8-0.7c3.7-3.1,7.9-6.7,12.8-8.9c2.5-1.3,4.5-2.3,6.8-2.3c1.8,0,3.6,0.7,6,2.4c1.2,0.8,2.1,2.4,3.1,3.2
	c1.5,1.2,3.7,1.5,5.5,2.7c1.1,0.7,1.8,1.2,2.3,1.9c0.7,0.8,0.9,1.8,1.2,3.3c0.3,0,0.6,0.1,0.9,0.1c0.9,0.1,1.8,0.1,2.5,0.3
	c1.5,0,2.8,0.3,4.2,1.2c0.1,0.1,0.2,0.1,0.3,0.2c0.1,0.1,0.2,0.1,0.3,0.2c0.2,0.1,0.4,0.3,0.5,0.4c2.1,1.8,2.4,2.1,5.9,2.2
	c3.7,0.1,5.1,1.3,7.8,3.4c1.4,1.1,2.3,1.6,3,1.5c1.5,0,2-2.1,3.1-4.7c0.6-1.3,1.3-2.4,1.8-3.6l0,0c0.2-0.5,0.5-1.1,0.6-1.7
	c0.2-0.6,0.3-1.2,0.3-1.8c0-0.2,0.1-0.4,0.1-0.6c0-0.2,0.1-0.4,0.1-0.6c0.2-1.9,0.3-3.8,1.4-5.2c0.8-1.1,2-0.8,2.8-1.8
	c0.8-1.1,0.3-2.3,1.4-3.3c1.1-0.8,3.1-1.1,4.9-1c0.5,0,1,0.1,1.4,0.1c1,0.2,1.9,0.4,2.7,0.7c4.2,1.6,6.6,5.2,9.6,8.3
	c0.3,0.3,0.6,0.7,0.9,1c3,3.5,3,6.4,3.5,10.8c0.1,0.7,0.2,1.4,0.3,2c0.7,2.9,1.8,5.2,1.5,8c0,0.6-0.1,1.1-0.2,1.8
	c-1.2,5-1.2,9-1.6,14.4c0,0.5-0.1,0.9-0.1,1.5c0,0.7-0.1,1.4-0.2,2.1c-0.1,0.6-0.1,1.2-0.2,1.8c0,0,0,0.1,0,0.1s0,0.1,0,0.1
	c-0.2,1.7-0.5,3.3-0.6,4.9c0,0.1,0,0.2,0,0.3c0,0.2,0,0.3,0,0.5c0,2.5,0.5,5.6-0.3,8.1c0,0.2-0.9,3-1,3.2l-0.7,2.4
	c-2.8,12.9-6.5,26.1-11.5,38c-0.2,0.5-0.4,1.1-0.7,1.6c-2.4,5.6-5.1,10.8-8.3,16c0,0,0,0,0,0c0,0,0,0,0,0c-2.6,4.2-5.8,8.3-8.7,12.2
	c-0.3,0.4-0.6,0.8-0.9,1.1c-3.5,4.7-7.3,9.5-12.2,13.4c-0.3,0.2-0.6,0.5-0.9,0.7c-5.3,3.9-11.8,6.1-18.6,7.4
	c-5.1,1-10.3,1.4-15.2,1.7c0,0,0,0,0,0c-1.3,0.2-2.6,0.5-3.9,0.7c-2.9,0.4-5.6,1-8.5,1.6c-2.1,0.5-5.3,0.2-7.2,1
	c-1.6,0.7-2.5,2-3.4,3.5c-1.4,2.4-2.4,5-5.1,5.8c-0.7,0.2-1.6,0.3-2.4,0.3c-1.6,0-3.3-0.4-4.8-0.9c-0.6-0.2-1.1-0.4-1.6-0.6
	c-1-0.4-1.8-0.7-2.5-1c-1.3-0.5-2.3-0.7-3.9-0.7c-0.7,0-1.6,0.1-2.6,0.2c-3,0.4-6,0.9-9,1.4c-0.2,0-0.4,0.1-0.6,0.1
	c-0.9,0.2-1.8,0.3-2.7,0.5c-2.3,0.4-4.6,0.7-7.1,1c-1.7,0.2-3.4,0.4-5.2,0.5c-0.3,0-3.2,0.3-7,0.3c-2.5,0-5.3-0.2-8.1-0.7
	c-5.6-0.9-10.9-3-12.9-7.4c-2.2-4.6-2.3-10.2-0.9-14.9c0.1-0.3,0.2-0.6,0.3-0.9c0,0,0,0,0,0s0,0,0,0c0.6-1.7,1.5-3.5,1.9-5.3
	c0.6-2.8,0-6.1,0.1-9c0.2-4.8,2-8.3,5.2-11.7c0,0,0,0,0,0c0,0,0,0,0,0c0.4-0.4,0.7-0.8,1-1.3c0.3-0.5,0.6-1.1,0.8-1.6
	c1.1-2.9,1.4-6,4.9-7.9c2.2-1.3,3.1-1.4,3.9-4c0.6-2.2,0.9-4.3,1.5-6.5c0.2-0.7,0.4-1.5,0.6-2.3c0.3-1,0.7-2,1-2.9
	c0.4-1.3,0.7-2.5,1-3.7c0.1-2.9-0.4-5.7-2.1-8.5c-2.6-4-3.3-7.4-1.3-11.5c0.2-0.4,0.5-0.9,0.7-1.4c1.5-2.5,2.9-5.1,4.5-7.6
	c0,0,0,0,0,0c0,0,0,0,0,0c0.6-0.9,1.1-1.8,1.7-2.7c0.5-0.8,1.1-1.6,1.7-2.4c0.6-0.8,0.8-1.6,1.5-2.3c0.6-0.8,1.5-0.2,2.1-1.3
	c0.3-0.5,0.4-1.2,0.5-1.9c0,0,0,0,0-0.1c0-1.5-0.2-3.1,0.5-4.5c0.5-0.9,1.3-1.5,2-2.1c0,0,0,0,0.1,0s0,0,0.1,0
	c0.4-0.4,0.8-0.8,1.2-1.2c0.1-0.1,0.1-0.2,0.2-0.3c0.6-1.1,0.6-2.5,0.6-3.9c0-0.6,0.1-1.2,0.2-1.7C397.2,404,398,402.8,402.6,401.7z
	"/>
<path id="line-3" class="st0" d="M396.1,395.6c2-0.8,4.9-1.7,6.8-2.8c1.6-0.9,2.4-2.1,3.9-2.9c0.4-0.2,0.9-0.4,1.5-0.6
	c1-0.2,1.9-0.4,2.7-0.4c1.6-0.3,3-0.4,4.5-1.1c0.8-0.5,1.6-1.3,2.6-2.3c2-2.3,2.9-5.1,4.3-7.7c0,0,0-0.1,0-0.1s0-0.1,0-0.1
	c1-1.7,2.1-3.2,4-4.3c1.4-0.8,2.5-1.1,3.6-1.2c0.2,0,0.4,0,0.5,0c1-0.1,2-0.1,3.2-0.3c0.3-0.1,0.7-0.2,1.1-0.2c2.1-0.5,3-2,4.6-3.3
	c0.3-0.2,0.6-0.5,0.9-0.7c4-3.3,9-7.2,14.9-9.4c2.7-1.3,4.9-2.3,7.3-2.2c1.9,0.1,4,0.8,6.5,2.5c1.3,0.8,2.3,2.4,3.5,3.3
	c1.6,1.3,4,1.7,5.9,2.9c1.1,0.7,1.9,1.3,2.5,2c0.7,0.9,1.1,1.9,1.4,3.5c0.3,0,0.6,0.1,0.9,0.1c1,0.1,1.9,0.2,2.7,0.4
	c1.5-0.1,2.9,0,4.4,0.8c0.1,0.1,0.3,0.1,0.4,0.2c0.1,0.1,0.3,0.1,0.4,0.2c0.2,0.1,0.4,0.2,0.6,0.4c2.2,1.6,2.7,1.8,6.3,1.8
	c3.8-0.1,5.5,1,8.5,3c1.4,1.1,2.4,1.5,3.2,1.4c1.7-0.1,2.4-2.2,3.7-4.7c0.7-1.2,1.5-2.4,2.2-3.6l0,0c0.3-0.5,0.6-1.1,0.8-1.6
	c0.3-0.5,0.4-1.1,0.5-1.7c0-0.2,0.1-0.4,0.1-0.6c0-0.2,0.1-0.4,0.1-0.6c0.4-1.8,0.7-3.7,2-5c0.9-1,2.2-0.7,3-1.7
	c0.9-1,0.5-2.1,1.8-3c1.2-0.8,3.4-0.9,5.2-0.7c0.5,0,1,0.1,1.5,0.2c1,0.2,2,0.5,2.9,0.9c4.6,1.9,7.1,5.7,10.4,9
	c0.4,0.4,0.7,0.8,1,1.1c3.4,3.8,3.7,7.2,4.4,12c0.1,0.8,0.3,1.5,0.4,2.3c0.8,3.3,1.9,6,1.7,9c0,0.6,0,1.3-0.2,2
	c-1.1,5.4-0.9,10.1-1.6,16.3c0,0.5-0.1,1-0.1,1.7c0,0.7-0.1,1.5-0.2,2.4c-0.1,0.7-0.1,1.3-0.2,2c0,0,0,0.1,0,0.1s0,0.1,0,0.1
	c-0.2,1.9-0.5,3.8-0.7,5.5c0,0.1,0,0.2,0,0.4c0,0.2,0,0.4,0,0.6c0,2.7,0.6,6.2-0.4,9.2c-0.1,0.3-1,3.3-1.1,3.6l-0.8,2.7
	c-3.1,14.4-7.2,28.7-12.6,41.7c-0.2,0.6-0.5,1.2-0.7,1.7c-2.6,6.2-5.6,11.9-9.2,17.5c0,0,0,0,0,0c0,0,0,0,0,0
	c-2.9,4.6-6.4,9.2-9.6,13.4c-0.3,0.4-0.6,0.8-1,1.3c-3.9,5.1-8.2,10.7-13.9,15.1c-0.4,0.3-0.7,0.5-1.1,0.8c-6,4.4-13.3,6.9-21.1,8.4
	c-5.8,1.1-11.8,1.6-17.2,1.9c0,0,0,0,0,0c-1.4,0.4-2.8,0.8-4.2,1.1c-3.2,0.7-6.2,1.5-9.5,2.3c-2.3,0.5-5.7,0.4-7.8,1.2
	c-1.7,0.7-2.8,2-3.9,3.5c-1.7,2.3-3,4.9-5.9,5.6c-0.8,0.2-1.7,0.2-2.6,0.2c-1.8-0.1-3.6-0.5-5.2-1.1c-0.6-0.2-1.2-0.3-1.8-0.5
	c-1.1-0.4-1.9-0.7-2.8-0.9c-1.4-0.4-2.6-0.6-4.2-0.6c-0.8,0-1.7,0.1-2.8,0.3c-3.2,0.4-6.5,1-9.7,1.5c-0.2,0-0.4,0.1-0.7,0.1
	c-1,0.2-2,0.3-3,0.5c-2.4,0.4-5,0.8-7.7,1c-1.9,0.2-3.7,0.4-5.6,0.5c-0.5,0-3.6,0.3-7.6,0.2c-2.7-0.1-5.8-0.3-8.7-0.9
	c-6-1.1-11.7-3.4-14.1-7.9c-2.8-5-3.3-11-2.3-16.3c0.1-0.3,0.1-0.7,0.2-1c0,0,0,0,0,0s0,0,0,0c0.5-2,1.3-3.9,1.6-5.9
	c0.5-3.1-0.1-6.8,0-10.1c0.2-5.3,2.1-9.3,5.5-13.2c0,0,0,0,0,0s0,0,0,0c0.4-0.5,0.8-1,1.1-1.5c0.3-0.6,0.5-1.2,0.8-1.8
	c1.1-3.3,1.5-6.8,5-9.1c2.3-1.5,3.3-1.9,4.2-4.7c0.8-2.4,1.3-4.8,2.1-7.2c0.2-0.8,0.4-1.7,0.8-2.5c0.4-1.1,0.8-2.2,1.2-3.3
	c0.5-1.4,0.9-2.8,1.3-4.1c-0.1-3.2-0.7-6.4-2.4-9.5c-2.6-4.4-3.2-8.2-1.1-12.8c0.2-0.5,0.5-1,0.8-1.5c1.6-2.8,3.1-5.6,4.9-8.4
	c0,0,0,0,0,0s0,0,0,0c0.6-1,1.2-2,1.9-2.9c0.6-0.9,1.2-1.7,1.8-2.6c0.7-0.9,0.9-1.7,1.6-2.5c0.7-0.8,1.5-0.4,2.2-1.5
	c0.4-0.6,0.5-1.3,0.6-2c0,0,0,0,0-0.1c0.1-1.6-0.1-3.4,0.7-4.9c0.6-1,1.4-1.7,2.1-2.4c0,0,0,0,0.1,0c0,0,0,0,0.1,0
	c0.5-0.4,0.9-0.9,1.3-1.4c0.1-0.1,0.1-0.2,0.2-0.3c0.6-1.2,0.6-2.8,0.7-4.2c0-0.7,0.1-1.3,0.2-1.9
	C390.3,398.6,391.3,397.1,396.1,395.6z"/>
<path id="line-4" class="st0" d="M389.6,389.6c2.2-1.1,5.3-2.1,7.5-3.4c1.7-1,2.7-2.3,4.4-3.2c0.5-0.3,1.1-0.5,1.7-0.6
	c1.1-0.3,2.1-0.4,3-0.5c1.7-0.4,3.3-0.6,5-1.4c0.9-0.7,1.8-1.5,2.8-2.7c2.2-2.5,3.3-5.6,5.1-8.4c0,0,0-0.1,0.1-0.1s0-0.1,0.1-0.1
	c1.2-1.8,2.6-3.4,4.7-4.6c1.5-0.9,2.8-1.2,4-1.3c0.2,0,0.4,0,0.6,0c1.1-0.2,2.2-0.3,3.5-0.6c0.4-0.1,0.8-0.2,1.2-0.3
	c2.2-0.7,3.3-2.3,5.2-3.7c0.4-0.3,0.7-0.5,1.1-0.8c4.4-3.5,10-7.8,16.9-9.9c2.8-1.3,5.3-2.2,7.9-2.1c2.1,0.1,4.3,0.9,6.9,2.6
	c1.4,0.9,2.6,2.5,3.8,3.5c1.8,1.3,4.3,1.9,6.3,3.2c1.2,0.8,2,1.4,2.7,2.2c0.8,1,1.3,2,1.7,3.6c0.3,0.1,0.6,0.1,1,0.2
	c1,0.1,2,0.3,2.9,0.5c1.6-0.2,3-0.2,4.6,0.4c0.1,0.1,0.3,0.1,0.4,0.1c0.1,0.1,0.3,0.1,0.4,0.2c0.2,0.1,0.4,0.2,0.6,0.3
	c2.4,1.4,3,1.4,6.7,1.3c4-0.2,5.9,0.7,9.1,2.5c1.5,1,2.6,1.4,3.5,1.3c1.8-0.1,2.7-2.2,4.2-4.8c0.8-1.2,1.8-2.3,2.6-3.5l0,0
	c0.4-0.5,0.7-1,1-1.6c0.3-0.5,0.6-1.1,0.7-1.7c0-0.2,0.2-0.4,0.2-0.5c0-0.2,0.2-0.4,0.2-0.5c0.6-1.8,1.1-3.6,2.6-4.8
	c1-1,2.4-0.7,3.3-1.5c1-1,0.8-2,2.1-2.8c1.3-0.7,3.6-0.7,5.6-0.5c0.6,0.1,1.1,0.2,1.6,0.3c1.1,0.2,2.1,0.6,3,1
	c4.9,2.2,7.7,6.2,11.1,9.7c0.4,0.4,0.8,0.9,1.1,1.2c3.7,4.2,4.4,8,5.3,13.3c0.1,0.9,0.3,1.7,0.5,2.5c0.9,3.7,2,6.8,1.8,10.1
	c0,0.7,0,1.4-0.1,2.2c-0.9,5.7-0.6,11.1-1.6,18.2c-0.1,0.6-0.1,1.1-0.2,1.9c0,0.8-0.1,1.7-0.2,2.7c-0.1,0.7-0.1,1.5-0.2,2.3
	c0,0,0,0.1,0,0.1c0,0,0,0.1,0,0.1c-0.2,2.2-0.6,4.3-0.7,6.2c0,0.1,0,0.3,0,0.4c0,0.2,0,0.4,0,0.7c0,2.9,0.6,6.8-0.5,10.2
	c-0.1,0.5-1,3.5-1.2,4l-0.9,3c-3.4,15.8-7.9,31.4-13.8,45.5c-0.3,0.6-0.5,1.3-0.8,1.9c-2.9,6.7-6.1,12.9-10,19.1c0,0,0,0,0,0
	c0,0,0,0,0,0c-3.2,5.1-7,10-10.4,14.6c-0.3,0.5-0.7,0.9-1,1.4c-4.2,5.6-9,11.9-15.6,16.9c-0.4,0.3-0.8,0.6-1.2,0.9
	c-6.7,4.9-14.8,7.7-23.6,9.4c-6.6,1.2-13.2,1.8-19.2,2.1c0,0,0,0,0,0c-1.5,0.6-3,1.1-4.6,1.5c-3.5,1-6.8,2-10.5,2.9
	c-2.5,0.6-6.1,0.5-8.4,1.4c-1.9,0.7-3.2,2-4.3,3.5c-1.9,2.3-3.6,4.7-6.7,5.4c-0.9,0.2-1.8,0.2-2.8,0.1c-1.9-0.1-3.9-0.6-5.6-1.2
	c-0.7-0.1-1.3-0.3-1.9-0.5c-1.1-0.3-2.1-0.6-3-0.8c-1.5-0.4-2.8-0.6-4.6-0.5c-0.9,0-1.9,0.1-3,0.3c-3.5,0.5-7,1-10.5,1.6
	c-0.2,0-0.5,0.1-0.7,0.1c-1,0.2-2.1,0.3-3.2,0.5c-2.5,0.4-5.3,0.8-8.3,1c-2,0.2-4,0.4-6.1,0.4c-0.8,0-4.1,0.2-8.2,0.1
	c-3-0.1-6.2-0.4-9.4-1c-6.4-1.2-12.6-3.7-15.4-8.5c-3.4-5.3-4.4-11.9-3.7-17.7c0-0.4,0.1-0.7,0.2-1.1c0,0,0,0,0,0c0,0,0,0,0,0
	c0.4-2.2,1.1-4.4,1.4-6.6c0.4-3.5-0.2-7.5-0.1-11.2c0.2-5.8,2.2-10.4,5.8-14.7c0,0,0,0,0,0c0,0,0,0,0,0c0.4-0.5,0.8-1.1,1.1-1.6
	c0.3-0.7,0.5-1.4,0.7-2.1c1.1-3.7,1.6-7.6,5.1-10.3c2.3-1.7,3.4-2.4,4.4-5.4c0.9-2.6,1.6-5.2,2.6-7.9c0.2-0.9,0.5-1.8,0.9-2.8
	c0.5-1.2,0.9-2.4,1.4-3.6c0.6-1.5,1.1-3,1.6-4.4c-0.3-3.6-1-7.1-2.7-10.6c-2.6-4.8-3.1-9.1-0.9-14c0.2-0.5,0.5-1.1,0.8-1.7
	c1.6-3,3.3-6.2,5.2-9.2c0,0,0,0,0,0c0,0,0,0,0,0c0.7-1,1.3-2.1,2.1-3.2c0.6-1,1.3-1.9,2-2.9c0.7-1,1-1.9,1.8-2.8
	c0.7-0.9,1.6-0.6,2.3-1.7c0.4-0.6,0.6-1.4,0.7-2.2c0,0,0,0,0-0.1c0.1-1.7,0-3.7,0.9-5.3c0.6-1.1,1.4-1.8,2.3-2.7c0,0,0,0,0.1-0.1
	c0,0,0,0,0.1-0.1c0.5-0.5,1-1,1.4-1.6c0.1-0.1,0.1-0.2,0.2-0.3c0.6-1.4,0.7-3,0.8-4.6c0.1-0.7,0.1-1.4,0.3-2.1
	C383.4,393.2,384.6,391.3,389.6,389.6z"/>
<path id="line-5" class="st0" d="M383.1,383.5c2.4-1.3,5.7-2.6,8.1-4.1c1.9-1.1,3.1-2.5,4.9-3.4c0.6-0.3,1.2-0.5,1.9-0.7
	c1.2-0.3,2.3-0.5,3.3-0.6c1.8-0.5,3.6-0.8,5.5-1.7c0.9-0.8,1.9-1.8,3-3c2.4-2.8,3.8-6.1,6-9c0,0,0.1-0.1,0.1-0.1
	c0,0,0.1-0.1,0.1-0.1c1.4-1.9,3-3.6,5.3-4.9c1.7-0.9,3.1-1.3,4.5-1.4c0.2,0,0.5,0,0.7,0c1.2-0.3,2.4-0.5,3.8-0.9
	c0.4-0.1,0.8-0.3,1.3-0.4c2.4-0.8,3.7-2.5,5.7-4.1c0.4-0.3,0.8-0.6,1.2-0.9c4.7-3.7,11-8.4,18.9-10.5c3-1.2,5.7-2.1,8.5-1.9
	c2.3,0.2,4.7,1,7.4,2.8c1.5,0.9,2.8,2.6,4.2,3.6c1.9,1.4,4.5,2,6.7,3.4c1.3,0.8,2.2,1.5,2.9,2.3c0.9,1,1.5,2.1,1.9,3.8
	c0.3,0.1,0.7,0.2,1,0.3c1.1,0.2,2.1,0.3,3.1,0.6c1.7-0.3,3.2-0.5,4.8,0c0.1,0.1,0.3,0,0.4,0.1c0.1,0.1,0.3,0,0.4,0.1
	c0.2,0.1,0.4,0.1,0.7,0.2c2.5,1.2,3.3,1.1,7.1,0.8c4.2-0.4,6.3,0.4,9.8,2.1c1.6,1,2.7,1.3,3.7,1.2c2-0.2,3.1-2.3,4.8-4.8
	c1-1.2,2.1-2.3,3-3.5l0,0c0.4-0.5,0.8-1,1.2-1.6c0.4-0.5,0.7-1.1,0.9-1.6c0-0.2,0.2-0.3,0.2-0.5c0-0.2,0.2-0.3,0.2-0.5
	c0.8-1.7,1.5-3.4,3.1-4.6c1.1-0.9,2.6-0.6,3.6-1.4c1.2-0.9,1-1.8,2.5-2.6c1.5-0.6,3.9-0.6,5.9-0.2c0.6,0.1,1.2,0.2,1.7,0.3
	c1.2,0.3,2.2,0.7,3.2,1.1c5.2,2.5,8.3,6.8,11.8,10.4c0.5,0.5,0.9,1,1.2,1.3c4.1,4.6,5.1,8.8,6.2,14.5c0.2,1,0.4,1.9,0.6,2.8
	c1.1,4.2,2.2,7.6,2,11.1c0,0.7,0.1,1.6,0,2.4c-0.8,6.1-0.4,12.2-1.6,20c-0.1,0.6-0.1,1.2-0.2,2.1c0,0.9-0.1,1.8-0.2,3
	c-0.1,0.8-0.1,1.6-0.2,2.5c0,0,0,0.1,0,0.1c0,0,0,0.1,0,0.1c-0.3,2.5-0.6,4.8-0.8,6.8c0,0.1,0,0.3,0,0.4c0,0.2,0,0.5-0.1,0.7
	c0,3.1,0.6,7.3-0.5,11.3c-0.1,0.6-1.1,3.8-1.3,4.4l-1,3.3c-3.7,17.2-8.6,34.1-14.9,49.2c-0.3,0.7-0.6,1.4-0.9,2
	c-3.1,7.3-6.7,14-10.8,20.6c0,0,0,0,0,0c0,0,0,0,0,0c-3.5,5.5-7.5,10.9-11.3,15.8c-0.4,0.5-0.8,1-1.1,1.5
	c-4.6,6.1-9.9,13.1-17.3,18.6c-0.4,0.3-0.9,0.7-1.3,1c-7.4,5.3-16.3,8.5-26.1,10.4c-7.3,1.4-14.7,1.9-21.3,2.4c0,0,0,0,0,0
	c-1.6,0.7-3.2,1.4-4.9,2c-3.7,1.3-7.4,2.5-11.4,3.6c-2.7,0.7-6.5,0.6-9,1.5c-2,0.7-3.5,2-4.8,3.4c-2.2,2.2-4.1,4.6-7.5,5.2
	c-1,0.2-2,0.2-3,0.1c-2.1-0.2-4.2-0.7-6-1.4c-0.7-0.1-1.4-0.3-2.1-0.4c-1.2-0.3-2.2-0.6-3.2-0.8c-1.6-0.4-3-0.5-4.9-0.4
	c-1,0.1-2,0.2-3.2,0.3c-3.7,0.5-7.5,1.1-11.3,1.7c-0.3,0-0.5,0.1-0.8,0.1c-1.1,0.2-2.3,0.3-3.5,0.5c-2.6,0.4-5.7,0.8-8.9,1
	c-2.2,0.2-4.3,0.3-6.5,0.4c-1,0-4.5,0.2-8.8,0.1c-3.2-0.2-6.7-0.5-10.1-1.2c-6.9-1.4-13.4-4-16.6-9c-4-5.6-5.4-12.7-5.1-19.1
	c0-0.4,0.1-0.8,0.1-1.2c0,0,0,0,0,0c0,0,0,0,0,0c0.3-2.4,0.9-4.8,1.1-7.3c0.3-3.9-0.3-8.3-0.2-12.3c0.3-6.3,2.4-11.4,6.1-16.3
	c0,0,0,0,0,0s0,0,0,0c0.5-0.6,0.9-1.2,1.2-1.8c0.3-0.7,0.5-1.5,0.7-2.3c1.1-4.1,1.7-8.4,5.3-11.5c2.4-2,3.6-2.9,4.7-6.1
	c1.1-2.9,1.9-5.7,3.1-8.5c0.3-1,0.6-2,1-3c0.5-1.3,1-2.6,1.6-3.9c0.7-1.7,1.4-3.3,1.9-4.8c-0.4-3.9-1.2-7.8-3-11.6
	c-2.6-5.3-3.1-9.9-0.8-15.3c0.3-0.6,0.5-1.2,0.9-1.8c1.7-3.3,3.5-6.7,5.6-10c0,0,0,0,0,0s0,0,0,0c0.7-1.1,1.5-2.3,2.2-3.5
	c0.7-1,1.4-2.1,2.1-3.1c0.7-1,1.1-2,1.9-3c0.8-1,1.7-0.7,2.5-1.9c0.4-0.7,0.7-1.5,0.9-2.3c0,0,0-0.1,0-0.1c0.2-1.9,0.1-4,1-5.8
	c0.6-1.2,1.5-2,2.4-2.9c0,0,0,0,0.1-0.1c0,0,0,0,0.1-0.1c0.5-0.5,1-1.1,1.4-1.7c0.1-0.1,0.1-0.2,0.2-0.4c0.7-1.5,0.7-3.3,0.9-5
	c0.1-0.8,0.2-1.5,0.4-2.2C376.4,387.8,378,385.6,383.1,383.5z"/>
<path id="line-6" class="st0" d="M376.6,377.5c2.6-1.6,6.1-3,8.8-4.7c2-1.2,3.4-2.7,5.5-3.7c0.6-0.3,1.3-0.6,2.1-0.8
	c1.3-0.4,2.5-0.6,3.6-0.7c1.9-0.6,3.8-1,5.9-2c1-0.9,2-2,3.2-3.4c2.5-3,4.3-6.6,6.8-9.7c0,0,0.1-0.1,0.1-0.1c0,0,0.1-0.1,0.1-0.1
	c1.6-2,3.5-3.8,6-5.2c1.8-1,3.4-1.4,4.9-1.6c0.2,0,0.5,0,0.7-0.1c1.3-0.4,2.6-0.7,4.1-1.2c0.4-0.2,0.9-0.3,1.4-0.5
	c2.5-1,4.1-2.8,6.3-4.5c0.4-0.3,0.9-0.6,1.3-1c5.1-3.9,12.1-8.9,20.9-11c3.2-1.2,6-2,9-1.8c2.5,0.2,5,1,7.9,2.9c1.6,1,3,2.6,4.5,3.7
	c2.1,1.5,4.8,2.2,7.1,3.7c1.3,0.8,2.3,1.6,3.1,2.4c1,1.1,1.6,2.3,2.2,4c0.4,0.1,0.7,0.2,1,0.3c1.1,0.2,2.2,0.4,3.2,0.7
	c1.7-0.5,3.3-0.7,5-0.3c0.1,0.1,0.3,0,0.4,0.1c0.1,0.1,0.3,0,0.4,0.1c0.2,0,0.5,0.1,0.7,0.2c2.6,1,3.6,0.7,7.5,0.4
	c4.3-0.5,6.7,0,10.4,1.6c1.6,0.9,2.9,1.2,3.9,1.1c2.1-0.2,3.4-2.3,5.3-4.8c1.1-1.2,2.3-2.3,3.4-3.4l0,0c0.5-0.5,1-1,1.4-1.5
	c0.5-0.5,0.8-1,1.1-1.6c0-0.2,0.3-0.3,0.3-0.5c0-0.2,0.3-0.3,0.3-0.5c1-1.6,1.9-3.3,3.7-4.3c1.2-0.9,2.7-0.5,3.9-1.3
	c1.3-0.8,1.3-1.7,2.8-2.4c1.6-0.5,4.1-0.4,6.3,0c0.6,0.1,1.2,0.3,1.8,0.4c1.2,0.3,2.3,0.8,3.4,1.3c5.6,2.8,8.9,7.3,12.6,11.1
	c0.5,0.5,1,1.1,1.3,1.5c4.5,4.9,5.8,9.6,7.1,15.8c0.2,1,0.5,2,0.7,3c1.2,4.6,2.3,8.5,2.2,12.2c0.1,0.8,0.1,1.7,0.1,2.7
	c-0.6,6.5-0.1,13.3-1.6,21.9c-0.1,0.7-0.2,1.3-0.2,2.3c-0.1,0.9-0.1,2-0.2,3.2c-0.1,0.9-0.2,1.8-0.2,2.8c0,0,0,0.1,0,0.1
	s0,0.1,0,0.1c-0.3,2.7-0.6,5.3-0.9,7.5c0,0.2,0,0.3,0,0.5c0,0.3,0,0.5-0.1,0.8c0,3.3,0.6,7.9-0.6,12.4c-0.2,0.8-1.1,4-1.4,4.9
	l-1.1,3.6c-4,18.6-9.3,36.8-16.1,52.9c-0.3,0.7-0.6,1.5-0.9,2.2c-3.4,7.8-7.2,15-11.6,22.2c0,0,0,0,0,0c0,0,0,0,0,0
	c-3.8,6-8.1,11.7-12.1,17c-0.4,0.5-0.8,1.1-1.2,1.6c-5,6.6-10.8,14.2-19,20.4c-0.5,0.4-1,0.7-1.5,1.1c-8.1,5.8-17.8,9.4-28.6,11.4
	c-8.1,1.5-16.2,2.1-23.3,2.6c0,0,0,0,0,0c-1.7,0.9-3.5,1.7-5.3,2.4c-4,1.6-8.1,3-12.4,4.3c-2.9,0.8-6.9,0.8-9.7,1.7
	c-2.2,0.7-3.8,2-5.3,3.4c-2.5,2.2-4.7,4.5-8.3,5c-1,0.1-2.1,0.1-3.2,0c-2.2-0.2-4.5-0.8-6.4-1.5c-0.8-0.1-1.5-0.3-2.2-0.4
	c-1.3-0.3-2.4-0.5-3.5-0.7c-1.7-0.3-3.2-0.5-5.2-0.3c-1,0.1-2.1,0.2-3.4,0.4c-4,0.6-8,1.2-12.1,1.8c-0.3,0-0.5,0.1-0.8,0.1
	c-1.2,0.2-2.4,0.4-3.7,0.5c-2.8,0.4-6,0.8-9.6,1.1c-2.3,0.2-4.7,0.3-7,0.4c-1.3,0-4.9,0.1-9.4,0c-3.5-0.2-7.2-0.6-10.8-1.4
	c-7.3-1.5-14.2-4.4-17.8-9.6c-4.5-6-6.5-13.5-6.4-20.5c0-0.4,0-0.9,0-1.3c0,0,0,0,0-0.1s0,0,0-0.1c0.2-2.6,0.7-5.3,0.8-8
	c0.2-4.2-0.5-9-0.3-13.4c0.3-6.8,2.5-12.4,6.3-17.8c0,0,0,0,0,0s0,0,0,0c0.5-0.7,0.9-1.4,1.3-2c0.3-0.8,0.5-1.7,0.7-2.5
	c1.1-4.6,1.7-9.2,5.4-12.7c2.4-2.2,3.7-3.4,5-6.8c1.2-3.1,2.3-6.2,3.7-9.2c0.3-1,0.7-2.1,1.2-3.3c0.6-1.4,1.2-2.8,1.8-4.2
	c0.8-1.8,1.6-3.5,2.3-5.2c-0.6-4.3-1.5-8.5-3.2-12.7c-2.5-5.7-3-10.8-0.6-16.5c0.3-0.6,0.6-1.3,0.9-2c1.8-3.6,3.7-7.3,6-10.8
	c0,0,0,0,0,0s0,0,0,0c0.8-1.2,1.6-2.5,2.4-3.8c0.7-1.1,1.5-2.2,2.2-3.4c0.8-1.1,1.2-2.2,2-3.2c0.8-1,1.8-0.9,2.6-2.2
	c0.5-0.7,0.8-1.6,1-2.5c0,0,0-0.1,0-0.1c0.2-2,0.2-4.3,1.2-6.2c0.7-1.3,1.6-2.2,2.5-3.2c0,0,0-0.1,0.1-0.1c0,0,0-0.1,0.1-0.1
	c0.5-0.6,1.1-1.2,1.5-1.9c0.1-0.1,0.1-0.3,0.2-0.4c0.7-1.6,0.8-3.5,1-5.4c0.1-0.8,0.2-1.6,0.4-2.4
	C369.5,382.4,371.3,379.8,376.6,377.5z"/>
<path id="line-7" class="st0" d="M370.1,371.4c2.8-1.8,6.5-3.5,9.4-5.3c2.2-1.3,3.8-2.8,6-3.9c0.7-0.3,1.4-0.6,2.2-0.8
	c1.4-0.4,2.7-0.6,3.9-0.8c2.1-0.7,4.1-1.3,6.4-2.3c1-1,2.2-2.2,3.4-3.8c2.7-3.3,4.7-7,7.6-10.4c0,0,0.1-0.1,0.1-0.1
	c0,0,0.1-0.1,0.1-0.1c1.8-2.2,3.9-4.1,6.7-5.5c1.9-1,3.7-1.5,5.3-1.7c0.3,0,0.5-0.1,0.8-0.1c1.4-0.5,2.8-0.9,4.4-1.5
	c0.5-0.2,1-0.4,1.5-0.6c2.7-1.1,4.4-3.1,6.9-4.9c0.5-0.3,1-0.7,1.4-1c5.4-4,13.1-9.5,23-11.5c3.4-1.2,6.4-2,9.6-1.7
	c2.6,0.2,5.3,1.1,8.4,3c1.7,1,3.3,2.7,4.9,3.8c2.2,1.5,5.1,2.3,7.6,3.9c1.4,0.9,2.4,1.7,3.3,2.6c1.1,1.1,1.8,2.4,2.4,4.1
	c0.4,0.1,0.7,0.2,1.1,0.4c1.2,0.2,2.3,0.5,3.4,0.8c1.8-0.6,3.4-1,5.2-0.7c0.1,0.1,0.4,0,0.4,0c0.1,0.1,0.4,0,0.5,0
	c0.3,0,0.5,0.1,0.8,0.1c2.7,0.9,3.9,0.4,7.9-0.1c4.5-0.7,7.2-0.3,11.1,1.2c1.7,0.8,3,1.1,4.2,1c2.3-0.3,3.8-2.3,5.8-4.8
	c1.2-1.2,2.6-2.2,3.8-3.3l0,0c0.6-0.5,1.1-1,1.5-1.5c0.6-0.5,1-1,1.3-1.5c0-0.2,0.4-0.3,0.4-0.5c0-0.2,0.4-0.3,0.4-0.5
	c1.2-1.6,2.3-3.1,4.3-4.1c1.3-0.8,2.9-0.4,4.1-1.1c1.4-0.8,1.5-1.6,3.1-2.2c1.7-0.4,4.3-0.2,6.6,0.3c0.7,0.1,1.3,0.3,1.9,0.5
	c1.3,0.4,2.4,0.9,3.6,1.4c5.9,3.1,9.5,7.9,13.3,11.8c0.5,0.6,1.1,1.2,1.4,1.6c4.9,5.3,6.5,10.4,8,17c0.3,1.1,0.5,2.2,0.8,3.3
	c1.4,5.1,2.5,9.3,2.3,13.2c0.1,0.9,0.2,1.8,0.2,2.9c-0.5,6.9,0.1,14.4-1.6,23.8c-0.1,0.7-0.2,1.3-0.3,2.5c-0.1,1-0.1,2.1-0.2,3.5
	c-0.1,0.9-0.2,2-0.2,3c0,0,0,0.1,0,0.1c0,0,0,0.1,0,0.1c-0.3,3-0.7,5.8-0.9,8.1c0,0.2,0,0.4-0.1,0.5c0,0.3-0.1,0.6-0.1,0.9
	c0.1,3.5,0.7,8.5-0.6,13.4c-0.2,0.9-1.2,4.3-1.5,5.3l-1.2,3.9c-4.3,20.1-10,39.4-17.3,56.7c-0.3,0.8-0.7,1.6-1,2.4
	c-3.6,8.3-7.7,16.1-12.5,23.8c0,0,0,0,0,0s0,0,0,0c-4,6.4-8.7,12.6-13,18.2c-0.4,0.6-0.9,1.2-1.3,1.7c-5.3,7.1-11.7,15.4-20.6,22.2
	c-0.5,0.4-1,0.8-1.6,1.2c-8.8,6.3-19.3,10.2-31.1,12.4c-8.8,1.7-17.6,2.3-25.4,2.8c0,0,0,0,0,0c-1.8,1-3.7,2-5.6,2.8
	c-4.3,1.9-8.7,3.5-13.4,4.9c-3.1,0.9-7.2,0.9-10.3,1.9c-2.3,0.7-4.1,2-5.8,3.4c-2.8,2.1-5.3,4.3-9.1,4.8c-1.1,0.1-2.3,0.1-3.4-0.1
	c-2.4-0.3-4.8-0.9-6.8-1.6c-0.8-0.1-1.6-0.2-2.4-0.3c-1.3-0.3-2.5-0.5-3.7-0.6c-1.8-0.3-3.5-0.4-5.6-0.3c-1.1,0.1-2.3,0.2-3.6,0.4
	c-4.2,0.6-8.5,1.3-12.8,1.9c-0.3,0-0.6,0.1-0.9,0.1c-1.3,0.2-2.6,0.4-3.9,0.6c-2.9,0.4-6.4,0.8-10.2,1.1c-2.5,0.2-5,0.3-7.4,0.4
	c-1.5,0-5.4,0.1-10-0.1c-3.7-0.3-7.6-0.7-11.5-1.6c-7.8-1.7-15.1-4.7-19-10.2c-5.1-6.3-7.5-14.3-7.8-21.9c0-0.5,0-0.9,0-1.4
	c0,0,0,0,0-0.1c0,0,0,0,0-0.1c0.1-2.8,0.5-5.7,0.6-8.7c0.1-4.6-0.6-9.7-0.4-14.5c0.3-7.3,2.6-13.4,6.6-19.3c0,0,0,0,0,0s0,0,0,0
	c0.5-0.8,1-1.5,1.4-2.2c0.3-0.9,0.5-1.8,0.7-2.8c1.1-5,1.8-10,5.6-13.9c2.5-2.5,3.9-3.9,5.2-7.5c1.4-3.3,2.6-6.6,4.2-9.8
	c0.3-1.1,0.8-2.3,1.3-3.5c0.6-1.5,1.3-3,2-4.5c0.9-1.9,1.8-3.8,2.6-5.5c-0.8-4.6-1.8-9.2-3.5-13.7c-2.5-6.1-2.9-11.6-0.4-17.8
	c0.3-0.7,0.6-1.4,0.9-2.1c1.9-3.9,4-7.8,6.4-11.6c0,0,0,0,0,0c0,0,0,0,0,0c0.8-1.3,1.7-2.7,2.6-4c0.8-1.2,1.6-2.4,2.4-3.6
	c0.8-1.2,1.3-2.3,2.2-3.5c0.8-1.1,1.9-1.1,2.7-2.4c0.5-0.8,0.8-1.7,1.1-2.7c0,0,0-0.1,0-0.1c0.2-2.2,0.3-4.5,1.4-6.6
	c0.7-1.3,1.7-2.4,2.6-3.5c0,0,0.1-0.1,0.1-0.1s0.1-0.1,0.1-0.1c0.6-0.6,1.1-1.3,1.6-2c0.1-0.1,0.1-0.3,0.2-0.4
	c0.7-1.7,0.9-3.7,1.2-5.8c0.1-0.9,0.3-1.7,0.5-2.5C362.6,377,364.6,374.1,370.1,371.4z"/>
<path id="line-8" class="st0" d="M363.6,365.4c3-2,6.9-3.9,10.1-5.9c2.4-1.4,4.1-3,6.5-4.1c0.8-0.4,1.6-0.7,2.4-0.9
	c1.5-0.4,2.9-0.7,4.2-0.9c2.2-0.8,4.4-1.5,6.9-2.6c1.1-1.1,2.3-2.5,3.7-4.1c2.9-3.5,5.2-7.5,8.5-11.1c0,0,0.1-0.1,0.1-0.1
	c0,0,0.1-0.1,0.1-0.1c2.1-2.3,4.4-4.3,7.3-5.8c2.1-1,3.9-1.6,5.8-1.8c0.3,0,0.6-0.1,0.9-0.1c1.5-0.6,3-1.1,4.7-1.8
	c0.5-0.2,1-0.5,1.6-0.7c2.9-1.2,4.8-3.3,7.4-5.2c0.5-0.4,1-0.7,1.6-1.1c5.8-4.2,14.1-10.1,25-12c3.6-1.2,6.8-1.9,10.2-1.6
	c2.8,0.3,5.7,1.2,8.9,3.1c1.9,1,3.5,2.7,5.2,3.9c2.4,1.6,5.4,2.5,8,4.2c1.4,0.9,2.5,1.8,3.5,2.7c1.2,1.2,2,2.5,2.7,4.3
	c0.4,0.1,0.8,0.3,1.1,0.4c1.2,0.3,2.4,0.6,3.6,0.9c1.8-0.7,3.6-1.2,5.4-1.1c0.1,0.1,0.4-0.1,0.5,0c0.1,0.1,0.4-0.1,0.5,0
	c0.3,0,0.5,0,0.8,0.1c2.8,0.7,4.1,0.1,8.3-0.5c4.7-0.9,7.6-0.6,11.7,0.7c1.8,0.8,3.2,1,4.4,0.8c2.5-0.3,4.1-2.4,6.4-4.8
	c1.4-1.2,2.8-2.2,4.2-3.3l0,0c0.6-0.5,1.2-0.9,1.7-1.5c0.6-0.5,1.1-1,1.5-1.5c0-0.2,0.4-0.3,0.4-0.5c0-0.2,0.4-0.3,0.4-0.5
	c1.4-1.5,2.7-3,4.8-3.9c1.4-0.8,3.1-0.3,4.4-1c1.5-0.7,1.8-1.4,3.5-2c1.9-0.3,4.6,0,7,0.6c0.7,0.2,1.4,0.4,2,0.6
	c1.3,0.4,2.6,1,3.7,1.6c6.3,3.3,10.1,8.4,14,12.5c0.6,0.6,1.1,1.2,1.6,1.7c5.2,5.7,7.2,11.2,8.9,18.3c0.3,1.2,0.6,2.4,0.9,3.5
	c1.5,5.5,2.6,10.1,2.5,14.3c0.1,0.9,0.2,2,0.2,3.1c-0.3,7.3,0.4,15.4-1.7,25.7c-0.1,0.8-0.2,1.4-0.3,2.7c-0.1,1-0.1,2.3-0.2,3.8
	c-0.1,1-0.2,2.1-0.3,3.2c0,0,0,0.1,0,0.2c0,0,0,0.1,0,0.2c-0.3,3.3-0.7,6.2-1,8.8c0,0.2,0,0.4-0.1,0.6c0,0.3-0.1,0.6-0.1,0.9
	c0.1,3.7,0.7,9.1-0.7,14.5c-0.2,1.1-1.2,4.6-1.6,5.7l-1.3,4.2c-4.6,21.5-10.7,42.1-18.4,60.4c-0.4,0.8-0.7,1.7-1.1,2.5
	c-3.9,8.9-8.2,17.2-13.3,25.3c0,0,0,0,0,0c0,0,0,0,0,0c-4.3,6.9-9.3,13.5-13.8,19.4c-0.5,0.6-0.9,1.2-1.4,1.8
	c-5.7,7.5-12.6,16.6-22.3,23.9c-0.6,0.4-1.1,0.8-1.7,1.3c-9.5,6.8-20.8,11-33.6,13.4c-9.6,1.8-19.1,2.5-27.4,3c0,0,0,0,0,0
	c-1.9,1.2-3.9,2.3-6,3.3c-4.6,2.2-9.3,4.1-14.4,5.6c-3.3,0.9-7.6,1.1-10.9,2c-2.5,0.7-4.4,2-6.3,3.3c-3.1,2.1-5.8,4.2-9.9,4.6
	c-1.2,0.1-2.4,0-3.6-0.1c-2.5-0.3-5-1-7.2-1.8c-0.9-0.1-1.7-0.2-2.5-0.3c-1.4-0.2-2.7-0.4-3.9-0.6c-1.9-0.3-3.7-0.3-5.9-0.2
	c-1.2,0.1-2.4,0.3-3.9,0.5c-4.5,0.6-9,1.3-13.6,2c-0.3,0-0.6,0.1-0.9,0.1c-1.3,0.2-2.7,0.4-4.2,0.6c-3,0.4-6.7,0.8-10.8,1.1
	c-2.6,0.2-5.3,0.3-7.9,0.3c-1.8-0.1-5.8,0.1-10.6-0.2c-4-0.3-8.1-0.8-12.1-1.7c-8.2-1.8-15.9-5.1-20.3-10.7
	c-5.7-6.7-8.6-15.1-9.2-23.3c0-0.5-0.1-1-0.1-1.5c0,0,0-0.1,0-0.1c0,0,0-0.1,0-0.1c0-3,0.3-6.2,0.3-9.3c0-4.9-0.7-10.4-0.5-15.6
	c0.3-7.8,2.7-14.4,6.9-20.8c0,0,0,0,0,0c0,0,0,0,0,0c0.5-0.8,1-1.6,1.4-2.4c0.3-0.9,0.5-1.9,0.7-3c1.1-5.4,1.9-10.8,5.7-15.1
	c2.5-2.7,4-4.4,5.5-8.2c1.5-3.6,2.9-7.1,4.7-10.5c0.4-1.2,0.8-2.5,1.4-3.8c0.7-1.6,1.4-3.2,2.2-4.9c1-2,2-4,2.9-5.9
	c-1-4.9-2-9.8-3.8-14.8c-2.5-6.5-2.9-12.4-0.3-19c0.3-0.8,0.6-1.5,1-2.3c2-4.2,4.2-8.4,6.7-12.4c0,0,0,0,0,0c0,0,0,0,0,0
	c0.9-1.4,1.8-2.8,2.7-4.3c0.8-1.3,1.7-2.6,2.5-3.9c0.9-1.3,1.4-2.5,2.3-3.7c0.9-1.2,1.9-1.2,2.8-2.6c0.5-0.9,0.9-1.8,1.2-2.8
	c0,0,0-0.1,0-0.1c0.3-2.3,0.4-4.8,1.6-7.1c0.7-1.4,1.7-2.6,2.7-3.8c0,0,0.1-0.1,0.1-0.1c0,0,0.1-0.1,0.1-0.1
	c0.6-0.7,1.2-1.4,1.7-2.2c0.1-0.1,0.1-0.3,0.2-0.5c0.7-1.8,0.9-4,1.3-6.1c0.1-0.9,0.3-1.8,0.6-2.7
	C355.7,371.6,357.9,368.3,363.6,365.4z"/>
<path id="line-9" class="st0" d="M357.1,359.3c3.2-2.3,7.3-4.4,10.7-6.5c2.5-1.5,4.4-3.2,7.1-4.4c0.8-0.4,1.7-0.7,2.6-1
	c1.6-0.5,3.1-0.8,4.5-1c2.3-0.9,4.7-1.7,7.4-2.9c1.2-1.3,2.4-2.7,3.9-4.5c3.1-3.8,5.7-8,9.3-11.8c0,0,0.1-0.1,0.1-0.1
	s0.1-0.1,0.1-0.1c2.3-2.4,4.8-4.5,8-6c2.2-1.1,4.2-1.7,6.2-2c0.3,0,0.6-0.1,0.9-0.1c1.6-0.7,3.2-1.3,5-2.1c0.5-0.2,1.1-0.5,1.7-0.8
	c3-1.4,5.1-3.6,8-5.6c0.6-0.4,1.1-0.8,1.7-1.2c6.1-4.4,15.2-10.6,27-12.5c3.8-1.1,7.2-1.8,10.8-1.5c3,0.3,6,1.3,9.4,3.3
	c2,1.1,3.7,2.8,5.6,4c2.5,1.6,5.7,2.6,8.4,4.4c1.5,1,2.7,1.8,3.7,2.8c1.3,1.2,2.1,2.6,2.9,4.4c0.4,0.2,0.8,0.3,1.2,0.5
	c1.3,0.3,2.5,0.6,3.7,1.1c1.9-0.8,3.7-1.5,5.6-1.5c0.1,0.1,0.4-0.1,0.5,0c0.1,0.1,0.4-0.1,0.5,0c0.3,0,0.6,0,0.8,0
	c3,0.5,4.4-0.3,8.8-1c4.9-1,8-0.9,12.4,0.3c1.8,0.7,3.3,0.9,4.6,0.7c2.6-0.4,4.5-2.4,6.9-4.8c1.5-1.2,3.1-2.2,4.6-3.2l0,0
	c0.7-0.5,1.3-0.9,1.9-1.4c0.7-0.4,1.3-0.9,1.7-1.4c0-0.2,0.5-0.3,0.5-0.5c0-0.2,0.5-0.3,0.5-0.4c1.6-1.4,3.1-2.9,5.4-3.7
	c1.5-0.7,3.3-0.3,4.7-0.9c1.6-0.6,2-1.3,3.8-1.8c2-0.2,4.8,0.1,7.3,0.8c0.7,0.2,1.4,0.4,2.1,0.6c1.4,0.5,2.7,1.1,3.9,1.7
	c6.6,3.6,10.7,9,14.8,13.3c0.6,0.7,1.2,1.3,1.7,1.8c5.6,6,7.9,12,9.8,19.5c0.3,1.3,0.7,2.5,1,3.8c1.6,5.9,2.8,10.9,2.7,15.4
	c0.1,1,0.3,2.1,0.3,3.4c-0.2,7.7,0.7,16.5-1.7,27.6c-0.2,0.8-0.2,1.5-0.3,2.9c-0.1,1.1-0.1,2.4-0.3,4.1c-0.1,1.1-0.2,2.3-0.3,3.5
	c0,0,0,0.2,0,0.2s0,0.2,0,0.2c-0.3,3.5-0.8,6.7-1.1,9.4c0,0.2,0,0.4-0.1,0.6c0,0.3-0.1,0.7-0.1,1c0.1,3.9,0.7,9.7-0.8,15.5
	c-0.2,1.2-1.3,4.8-1.7,6.1L606,432c-4.9,22.9-11.4,44.8-19.6,64.1c-0.4,0.9-0.8,1.8-1.1,2.7c-4.1,9.4-8.7,18.2-14.1,26.9
	c0,0,0,0,0,0s0,0,0,0c-4.6,7.3-9.9,14.3-14.7,20.6c-0.5,0.7-1,1.3-1.5,2c-6.1,8-13.5,17.7-24,25.7c-0.6,0.5-1.2,0.9-1.8,1.3
	c-10.2,7.3-22.3,11.8-36.1,14.4c-10.3,2-20.6,2.7-29.4,3.2c0,0,0,0,0,0c-2,1.4-4.2,2.6-6.3,3.7c-4.9,2.5-9.9,4.6-15.4,6.2
	c-3.5,1-8,1.2-11.5,2.2c-2.6,0.8-4.7,2-6.7,3.3c-3.4,2-6.4,4-10.6,4.3c-1.2,0.1-2.5,0-3.8-0.2c-2.7-0.4-5.3-1.1-7.6-1.9
	c-0.9-0.1-1.8-0.2-2.7-0.3c-1.5-0.2-2.8-0.4-4.2-0.5c-2-0.2-3.9-0.3-6.3-0.1c-1.2,0.1-2.6,0.3-4.1,0.5c-4.7,0.7-9.5,1.4-14.4,2.1
	c-0.3,0.1-0.6,0.1-1,0.1c-1.4,0.2-2.9,0.4-4.4,0.6c-3.1,0.4-7.1,0.8-11.4,1.1c-2.8,0.2-5.6,0.3-8.3,0.3c-2-0.1-6.3,0-11.2-0.3
	c-4.2-0.4-8.6-0.9-12.8-1.9c-8.7-1.9-16.7-5.4-21.5-11.3c-6.3-7-9.7-16-10.6-24.7c-0.1-0.5-0.1-1.1-0.1-1.6c0,0,0-0.1,0-0.1
	s0-0.1,0-0.1c-0.2-3.3,0.1-6.6,0-10c-0.1-5.3-0.8-11.1-0.6-16.7c0.4-8.3,2.8-15.5,7.2-22.3c0,0,0,0,0,0s0,0,0,0
	c0.5-0.9,1-1.8,1.5-2.6c0.3-1,0.5-2.1,0.7-3.2c1.1-5.8,1.9-11.6,5.9-16.3c2.6-3,4.1-4.9,5.8-8.9c1.7-3.8,3.2-7.5,5.3-11.2
	c0.4-1.3,0.9-2.6,1.6-4c0.7-1.7,1.5-3.4,2.4-5.2c1.1-2.2,2.2-4.3,3.2-6.2c-1.1-5.3-2.3-10.5-4-15.8c-2.5-6.9-2.8-13.3-0.1-20.2
	c0.3-0.8,0.6-1.6,1-2.4c2-4.4,4.4-8.9,7.1-13.2c0,0,0,0,0,0c0,0,0,0,0,0c0.9-1.5,1.9-3,2.9-4.6c0.9-1.4,1.8-2.7,2.7-4.1
	c0.9-1.3,1.5-2.6,2.5-3.9c0.9-1.2,2-1.4,3-2.9c0.6-0.9,1-1.9,1.4-3c0,0,0-0.1,0-0.1c0.3-2.4,0.5-5.1,1.7-7.5c0.8-1.5,1.8-2.8,2.9-4
	c0,0,0.1-0.1,0.1-0.1c0,0,0.1-0.1,0.1-0.1c0.6-0.8,1.2-1.5,1.8-2.3c0.1-0.2,0.1-0.3,0.2-0.5c0.7-2,1-4.2,1.4-6.5
	c0.2-1,0.4-2,0.6-2.9C348.8,366.2,351.2,362.6,357.1,359.3z"/>
<path id="line-10" class="st0" d="M350.6,353.3c3.4-2.5,7.7-4.8,11.4-7.1c2.7-1.6,4.8-3.4,7.6-4.6c0.9-0.4,1.8-0.7,2.8-1
	c1.7-0.5,3.3-0.8,4.8-1.1c2.5-1,5-1.9,7.8-3.2c1.2-1.4,2.6-3,4.1-4.8c3.3-4,6.1-8.5,10.1-12.5c0,0,0.1-0.1,0.1-0.1
	c0,0,0.1-0.1,0.1-0.1c2.5-2.5,5.3-4.7,8.7-6.3c2.3-1.1,4.5-1.7,6.6-2.1c0.3,0,0.7-0.1,1-0.1c1.7-0.8,3.4-1.5,5.3-2.4
	c0.6-0.3,1.2-0.6,1.8-0.9c3.2-1.5,5.5-3.9,8.5-6c0.6-0.4,1.2-0.8,1.8-1.2c6.4-4.6,16.2-11.2,29-13.1c4-1.1,7.6-1.8,11.3-1.4
	c3.1,0.4,6.4,1.4,9.9,3.4c2.1,1.1,4,2.9,5.9,4.1c2.6,1.7,5.9,2.8,8.8,4.7c1.5,1,2.8,1.9,3.8,3c1.4,1.3,2.3,2.7,3.2,4.6
	c0.4,0.2,0.8,0.4,1.2,0.5c1.3,0.3,2.6,0.7,3.9,1.2c2-1,3.8-1.7,5.8-1.9c0.1,0.1,0.4-0.2,0.5-0.1c0.1,0.1,0.4-0.1,0.5-0.1
	c0.3,0,0.6-0.1,0.9-0.1c3.1,0.3,4.7-0.6,9.2-1.5c5-1.2,8.4-1.2,13-0.2c1.9,0.7,3.5,0.8,4.8,0.6c2.8-0.4,4.9-2.4,7.5-4.8
	c1.6-1.2,3.3-2.2,5-3.2l0,0c0.8-0.4,1.5-0.9,2.1-1.4c0.8-0.4,1.4-0.9,1.9-1.4c0-0.2,0.6-0.3,0.6-0.4s0.5-0.3,0.5-0.4
	c1.8-1.4,3.5-2.7,6-3.5c1.6-0.7,3.5-0.2,5-0.7c1.7-0.6,2.3-1.1,4.2-1.5c2.1-0.1,5.1,0.3,7.7,1.1c0.7,0.2,1.5,0.5,2.1,0.7
	c1.4,0.5,2.8,1.2,4.1,1.9c6.9,3.9,11.3,9.5,15.5,14c0.7,0.7,1.3,1.4,1.8,1.9c6,6.4,8.6,12.8,10.7,20.7c0.4,1.4,0.7,2.7,1.1,4
	c1.8,6.4,2.9,11.7,2.8,16.4c0.2,1.1,0.3,2.3,0.4,3.6c0,8,0.9,17.6-1.7,29.5c-0.2,0.9-0.3,1.6-0.3,3.1c-0.1,1.2-0.2,2.5-0.3,4.4
	c-0.1,1.2-0.2,2.4-0.3,3.7c0,0,0,0.2,0,0.2s0,0.2,0,0.2c-0.3,3.8-0.8,7.2-1.1,10.1c0,0.2,0,0.4-0.1,0.7c0,0.4-0.1,0.7-0.1,1.1
	c0.1,4.1,0.8,10.3-0.8,16.6c-0.3,1.4-1.3,5.1-1.9,6.6l-1.5,4.8c-5.2,24.3-12.1,47.4-20.7,67.9c-0.4,0.9-0.8,1.9-1.2,2.8
	c-4.3,10-9.2,19.3-15,28.4c0,0,0,0,0,0s0,0,0,0c-4.9,7.8-10.5,15.2-15.6,21.8c-0.5,0.7-1,1.4-1.6,2.1c-6.4,8.5-14.4,18.9-25.7,27.4
	c-0.6,0.5-1.3,1-2,1.4c-10.9,7.7-23.8,12.6-38.6,15.5c-11,2.1-22.1,2.9-31.5,3.5c0,0,0,0,0,0c-2.1,1.5-4.4,2.9-6.7,4.2
	c-5.1,2.8-10.5,5.1-16.4,6.9c-3.7,1.1-8.4,1.4-12.1,2.3c-2.8,0.8-5,2-7.2,3.2c-3.7,2-7,3.9-11.4,4.1c-1.3,0-2.7-0.1-4-0.3
	c-2.8-0.4-5.6-1.2-8-2.1c-1-0.1-1.9-0.1-2.8-0.2c-1.6-0.2-3-0.3-4.4-0.4c-2.1-0.2-4.2-0.2-6.6,0c-1.3,0.1-2.7,0.3-4.3,0.5
	c-4.9,0.7-10,1.5-15.2,2.1c-0.3,0.1-0.7,0.1-1,0.2c-1.5,0.2-3,0.4-4.7,0.6c-3.3,0.4-7.4,0.8-12.1,1.1c-2.9,0.2-5.9,0.3-8.8,0.3
	c-2.3-0.1-6.7,0-11.8-0.4c-4.5-0.4-9.1-1.1-13.5-2.1c-9.1-2.1-17.6-5.7-22.7-11.8c-6.8-7.4-10.7-16.8-12-26.1
	c-0.1-0.6-0.1-1.2-0.2-1.7c0,0,0-0.1,0-0.1s0-0.1,0-0.1c-0.3-3.5-0.1-7-0.2-10.7c-0.2-5.7-0.9-11.9-0.6-17.8
	c0.4-8.8,2.9-16.5,7.4-23.9c0,0,0,0,0,0c0,0,0,0,0,0c0.6-1,1.1-1.9,1.6-2.8c0.2-1.1,0.5-2.2,0.7-3.5c1.1-6.2,2-12.4,6-17.5
	c2.6-3.2,4.3-5.4,6.1-9.6c1.8-4,3.6-8,5.8-11.8c0.5-1.3,1-2.8,1.7-4.3c0.8-1.8,1.7-3.6,2.7-5.5c1.2-2.3,2.4-4.5,3.6-6.6
	c-1.3-5.6-2.6-11.2-4.3-16.9c-2.5-7.3-2.7-14.1,0.1-21.5c0.3-0.9,0.7-1.7,1.1-2.6c2.1-4.7,4.6-9.4,7.5-14.1c0,0,0,0,0,0s0,0,0,0
	c1-1.5,2-3.2,3.1-4.9c0.9-1.4,1.9-2.9,2.8-4.4c1-1.4,1.6-2.8,2.6-4.2c1-1.3,2.1-1.5,3.1-3.1c0.6-1,1.1-2,1.5-3.1c0,0,0-0.1,0-0.1
	c0.4-2.6,0.7-5.4,1.9-7.9c0.8-1.6,1.9-2.9,3-4.3c0,0,0.1-0.1,0.1-0.1c0,0,0.1-0.1,0.1-0.1c0.7-0.8,1.3-1.6,1.9-2.5
	c0.1-0.2,0.1-0.3,0.2-0.5c0.7-2.1,1-4.5,1.5-6.9c0.2-1,0.4-2.1,0.7-3C341.9,360.8,344.5,356.8,350.6,353.3z"/>
<path id="line-11" class="st0" d="M344.1,347.2c3.6-2.8,8.1-5.3,12-7.7c2.8-1.7,5.1-3.5,8.1-4.9c1-0.4,1.9-0.8,3-1.1
	c1.8-0.5,3.6-0.9,5.1-1.2c2.6-1.1,5.3-2.1,8.3-3.5c1.3-1.5,2.7-3.2,4.3-5.2c3.5-4.3,6.6-9,10.9-13.2c0,0,0.1-0.1,0.1-0.1
	c0,0,0.1-0.1,0.1-0.1c2.7-2.7,5.7-4.9,9.3-6.6c2.5-1.2,4.8-1.8,7.1-2.2c0.4-0.1,0.7-0.1,1.1-0.1c1.8-0.9,3.6-1.7,5.6-2.7
	c0.6-0.3,1.2-0.6,1.9-1c3.3-1.7,5.9-4.1,9.1-6.4c0.6-0.4,1.3-0.9,1.9-1.3c6.8-4.8,17.2-11.8,31.1-13.6c4.2-1.1,8-1.7,11.9-1.3
	c3.3,0.4,6.7,1.5,10.4,3.5c2.2,1.1,4.2,2.9,6.3,4.2c2.8,1.8,6.2,3,9.2,4.9c1.6,1,2.9,2,4,3.1c1.4,1.4,2.5,2.8,3.4,4.8
	c0.4,0.2,0.9,0.4,1.3,0.6c1.4,0.4,2.7,0.8,4.1,1.3c2-1.1,3.9-2,6-2.3c0.1,0.1,0.5-0.2,0.5-0.1c0.1,0.1,0.5-0.2,0.5-0.1
	c0.3-0.1,0.6-0.1,0.9-0.1c3.2,0.1,5-1,9.6-1.9c5.2-1.3,8.8-1.5,13.7-0.6c2,0.6,3.6,0.7,5.1,0.5c3-0.5,5.2-2.5,8-4.8
	c1.8-1.1,3.6-2.1,5.4-3.1l0,0c0.8-0.4,1.6-0.9,2.3-1.3c0.9-0.4,1.5-0.9,2.1-1.3c0-0.2,0.6-0.3,0.6-0.4s0.6-0.2,0.6-0.4
	c2-1.3,3.8-2.6,6.5-3.2c1.7-0.6,3.6-0.1,5.2-0.6c1.8-0.5,2.5-1,4.5-1.3c2.3-0.1,5.3,0.5,8.1,1.3c0.8,0.2,1.5,0.5,2.2,0.8
	c1.5,0.6,2.9,1.2,4.3,2c7.3,4.2,11.9,10.1,16.2,14.7c0.7,0.8,1.4,1.5,1.9,2.1c6.3,6.8,9.3,13.6,11.6,22c0.4,1.4,0.8,2.9,1.2,4.3
	c1.9,6.8,3,12.5,3,17.5c0.2,1.1,0.4,2.4,0.5,3.8c0.1,8.4,1.2,18.7-1.7,31.4c-0.2,0.9-0.3,1.7-0.4,3.3c-0.1,1.2-0.2,2.7-0.3,4.6
	c-0.1,1.2-0.2,2.6-0.3,3.9c0,0,0,0.2,0,0.2s0,0.2,0,0.2c-0.3,4.1-0.9,7.7-1.2,10.7c0,0.2-0.1,0.5-0.1,0.7c0,0.4-0.1,0.8-0.1,1.2
	c0.1,4.3,0.8,10.9-0.9,17.7c-0.3,1.5-1.4,5.3-2,7l-1.6,5.1c-5.5,25.7-12.8,50.1-21.9,71.6c-0.4,1-0.8,2-1.3,3
	c-4.6,10.5-9.7,20.3-15.8,30c0,0,0,0,0,0c0,0,0,0,0,0c-5.2,8.2-11.1,16-16.4,23.1c-0.6,0.7-1.1,1.5-1.7,2.2
	c-6.8,9-15.2,20.1-27.4,29.2c-0.7,0.5-1.4,1-2.1,1.5c-11.6,8.2-25.3,13.4-41.1,16.5c-11.8,2.3-23.5,3.1-33.5,3.7c0,0,0,0,0,0
	c-2.2,1.7-4.6,3.2-7,4.6c-5.4,3-11.1,5.6-17.4,7.5c-3.9,1.2-8.8,1.5-12.7,2.5c-2.9,0.8-5.3,2-7.7,3.2c-4,1.9-7.6,3.7-12.2,3.9
	c-1.4,0-2.8-0.1-4.2-0.3c-3-0.5-5.9-1.3-8.4-2.2c-1-0.1-2-0.1-3-0.2c-1.6-0.2-3.1-0.3-4.6-0.4c-2.2-0.2-4.4-0.1-6.9,0.1
	c-1.4,0.1-2.9,0.3-4.5,0.6c-5.2,0.8-10.5,1.6-15.9,2.2c-0.4,0.1-0.7,0.1-1.1,0.2c-1.5,0.2-3.2,0.4-4.9,0.6
	c-3.4,0.4-7.7,0.9-12.7,1.1c-3.1,0.2-6.2,0.3-9.2,0.3c-2.5-0.1-7.2-0.1-12.4-0.5c-4.7-0.4-9.5-1.2-14.2-2.2
	c-9.5-2.2-18.4-6.1-23.9-12.4c-7.4-7.7-11.8-17.6-13.3-27.5c-0.1-0.6-0.2-1.2-0.2-1.8c0,0,0-0.1,0-0.1s0-0.1,0-0.1
	c-0.4-3.7-0.3-7.5-0.5-11.4c-0.3-6-1-12.6-0.7-18.9c0.4-9.3,3.1-17.5,7.7-25.4c0,0,0,0,0,0s0,0,0,0c0.6-1,1.1-2,1.6-3
	c0.2-1.2,0.4-2.4,0.7-3.7c1.1-6.6,2.1-13.2,6.1-18.7c2.6-3.4,4.4-5.9,6.3-10.3c1.9-4.3,3.9-8.4,6.3-12.5c0.5-1.4,1.1-3,1.8-4.6
	c0.8-1.9,1.8-3.8,2.9-5.8c1.3-2.4,2.6-4.8,3.9-7c-1.5-6-2.8-11.9-4.6-17.9c-2.5-7.7-2.6-15,0.2-22.7c0.3-0.9,0.7-1.8,1.1-2.7
	c2.2-5,4.8-10,7.8-14.9c0,0,0,0,0,0s0,0,0,0c1-1.6,2.1-3.4,3.2-5.1c1-1.5,1.9-3,3-4.6c1-1.5,1.7-2.9,2.8-4.4c1-1.4,2.2-1.7,3.2-3.3
	c0.7-1,1.2-2.1,1.6-3.3c0,0,0-0.1,0-0.1c0.4-2.7,0.8-5.6,2.1-8.3c0.8-1.7,2-3.1,3.1-4.6c0,0,0.1-0.1,0.1-0.1s0.1-0.1,0.1-0.1
	c0.7-0.9,1.4-1.7,2-2.6c0.1-0.2,0.1-0.4,0.2-0.6c0.8-2.2,1.1-4.7,1.6-7.3c0.2-1.1,0.5-2.2,0.8-3.2
	C335,355.4,337.8,351.1,344.1,347.2z"/>
<path id="line-12" class="st0" d="M337.7,341.2c3.7-3,8.5-5.7,12.7-8.3c3-1.8,5.5-3.7,8.6-5.1c1-0.4,2.1-0.8,3.1-1.2
	c1.9-0.6,3.8-1,5.4-1.3c2.7-1.2,5.6-2.3,8.8-3.8c1.4-1.6,2.9-3.4,4.6-5.5c3.7-4.5,7.1-9.5,11.8-13.8c0,0,0.1-0.1,0.1-0.1
	c0,0,0.1-0.1,0.1-0.1c3-2.8,6.2-5.1,10-6.9c2.6-1.2,5.1-1.9,7.5-2.3c0.4-0.1,0.8-0.1,1.1-0.2c1.9-1,3.8-1.9,6-3
	c0.6-0.3,1.3-0.7,2-1.1c3.5-1.8,6.2-4.4,9.7-6.8c0.7-0.5,1.4-0.9,2.1-1.4c7.1-5,18.3-12.3,33.1-14.1c4.4-1,8.4-1.6,12.5-1.1
	c3.5,0.4,7,1.5,10.9,3.6c2.3,1.2,4.4,3,6.6,4.3c2.9,1.8,6.5,3.1,9.6,5.2c1.7,1.1,3,2.1,4.2,3.2c1.5,1.4,2.7,3,3.7,4.9
	c0.5,0.2,0.9,0.4,1.3,0.7c1.4,0.4,2.9,0.9,4.2,1.4c2.1-1.2,4.1-2.2,6.2-2.6c0.1,0.1,0.5-0.2,0.6-0.2c0.1,0.1,0.5-0.2,0.6-0.1
	c0.3-0.1,0.6-0.1,1-0.2c3.3-0.1,5.3-1.3,10-2.4c5.4-1.5,9.2-1.8,14.3-1.1c2,0.6,3.7,0.6,5.3,0.4c3.1-0.5,5.6-2.5,8.5-4.8
	c1.9-1.1,3.9-2.1,5.8-3.1l0,0c0.9-0.4,1.7-0.9,2.4-1.3c0.9-0.4,1.7-0.8,2.2-1.3c0-0.2,0.7-0.3,0.7-0.4c0-0.2,0.7-0.2,0.7-0.4
	c2.2-1.3,4.2-2.4,7.1-3c1.8-0.5,3.8,0,5.5-0.4c1.9-0.4,2.8-0.9,4.9-1.1c2.4,0,5.6,0.7,8.4,1.6c0.8,0.3,1.6,0.6,2.3,0.9
	c1.6,0.6,3,1.3,4.4,2.1c7.6,4.5,12.5,10.6,17,15.4c0.8,0.8,1.5,1.6,2,2.2c6.7,7.2,10,14.4,12.4,23.2c0.4,1.5,0.9,3,1.3,4.6
	c2,7.3,3.2,13.4,3.1,18.5c0.2,1.2,0.4,2.5,0.6,4c0.3,8.8,1.4,19.7-1.7,33.3c-0.2,1-0.3,1.8-0.4,3.5c-0.1,1.3-0.2,2.8-0.3,4.9
	c-0.1,1.3-0.2,2.7-0.3,4.2c0,0,0,0.2,0,0.2s0,0.2,0,0.2c-0.3,4.3-0.9,8.2-1.3,11.4c0,0.2-0.1,0.5-0.1,0.7c0,0.4-0.1,0.8-0.1,1.2
	c0.1,4.5,0.8,11.5-0.9,18.7c-0.3,1.7-1.5,5.6-2.1,7.4l-1.7,5.4c-5.8,27.2-13.5,52.8-23.1,75.3c-0.4,1-0.9,2.1-1.3,3.1
	c-4.8,11.1-10.3,21.4-16.6,31.6c0,0,0,0,0,0c0,0,0,0,0,0c-5.4,8.7-11.7,16.9-17.3,24.3c-0.6,0.8-1.2,1.5-1.8,2.3
	c-7.2,9.5-16.1,21.3-29.1,30.9c-0.7,0.6-1.5,1.1-2.2,1.6c-12.3,8.7-26.8,14.2-43.5,17.5c-12.5,2.4-25,3.3-35.6,3.9c0,0,0,0,0,0
	c-2.4,1.8-4.8,3.5-7.4,5c-5.7,3.3-11.8,6.1-18.3,8.2c-4.1,1.2-9.2,1.7-13.3,2.7c-3,0.8-5.6,2-8.2,3.2c-4.3,1.9-8.1,3.6-13,3.7
	c-1.5,0-3-0.2-4.4-0.4c-3.1-0.5-6.2-1.4-8.8-2.3c-1.1,0-2.1-0.1-3.1-0.1c-1.7-0.1-3.3-0.2-4.9-0.3c-2.4-0.1-4.6-0.1-7.3,0.2
	c-1.5,0.2-3,0.4-4.7,0.6c-5.4,0.8-11,1.6-16.7,2.3c-0.4,0.1-0.8,0.1-1.1,0.2c-1.6,0.2-3.3,0.5-5.1,0.7c-3.5,0.4-8.1,0.9-13.3,1.1
	c-3.3,0.2-6.5,0.2-9.7,0.2c-2.8-0.1-7.6-0.1-13-0.5c-4.9-0.5-10-1.3-14.9-2.4c-10-2.4-19.2-6.4-25.2-12.9c-8-8.1-12.8-18.4-14.7-29
	c-0.1-0.6-0.2-1.3-0.3-2c0,0,0-0.1,0-0.1c0,0,0-0.1,0-0.1c-0.5-3.9-0.5-7.9-0.8-12.1c-0.4-6.4-1.1-13.3-0.8-20
	c0.4-9.8,3.2-18.5,8-26.9c0,0,0,0,0,0c0,0,0,0,0,0c0.6-1.1,1.2-2.1,1.7-3.1c0.2-1.2,0.4-2.5,0.6-3.9c1.1-7,2.1-14,6.3-19.8
	c2.7-3.7,4.6-6.4,6.6-11c2.1-4.5,4.2-8.9,6.9-13.1c0.5-1.5,1.2-3.1,2-4.8c0.9-2,1.9-4,3.1-6.1c1.4-2.6,2.8-5,4.2-7.3
	c-1.7-6.3-3.1-12.6-4.9-19c-2.5-8.2-2.6-15.8,0.4-24c0.3-1,0.7-1.9,1.1-2.9c2.3-5.3,5-10.5,8.2-15.7c0,0,0,0,0,0s0,0,0,0
	c1.1-1.7,2.2-3.5,3.4-5.4c1-1.6,2-3.2,3.1-4.8c1-1.6,1.8-3.1,2.9-4.6c1.1-1.4,2.3-1.9,3.4-3.6c0.7-1.1,1.2-2.2,1.8-3.4
	c0,0,0-0.1,0-0.1c0.5-2.8,0.9-5.9,2.3-8.8c0.9-1.8,2-3.3,3.2-4.9c0,0,0.1-0.1,0.1-0.1s0.1-0.1,0.1-0.1c0.7-0.9,1.4-1.8,2.1-2.8
	c0.1-0.2,0.1-0.4,0.2-0.6c0.8-2.3,1.1-5,1.7-7.7c0.2-1.1,0.5-2.3,0.8-3.4C328.1,350,331.1,345.3,337.7,341.2z"/>
<path id="line-13" class="st0" d="M331.2,335.1c3.9-3.3,8.9-6.2,13.4-8.9c3.1-1.9,5.8-3.9,9.2-5.3c1.1-0.5,2.2-0.9,3.3-1.2
	c2.1-0.6,4-1,5.8-1.4c2.8-1.3,5.9-2.6,9.3-4.1c1.4-1.7,3-3.7,4.8-5.9c3.9-4.8,7.6-9.9,12.6-14.5c0,0,0.1-0.1,0.2-0.1
	c0,0,0.1-0.1,0.2-0.1c3.2-2.9,6.6-5.4,10.7-7.2c2.8-1.3,5.4-2,7.9-2.5c0.4-0.1,0.8-0.1,1.2-0.2c2-1.1,4-2.1,6.3-3.3
	c0.7-0.4,1.4-0.8,2.1-1.2c3.7-2,6.6-4.7,10.2-7.2c0.7-0.5,1.5-1,2.2-1.5c7.5-5.1,19.3-12.9,35.1-14.6c4.6-1,8.7-1.6,13.1-1
	c3.7,0.5,7.4,1.6,11.4,3.7c2.4,1.2,4.7,3,7,4.4c3.1,1.9,6.8,3.3,10,5.4c1.7,1.1,3.2,2.2,4.4,3.4c1.6,1.5,2.8,3.1,3.9,5.1
	c0.5,0.2,0.9,0.5,1.4,0.7c1.5,0.4,3,0.9,4.4,1.5c2.1-1.4,4.2-2.5,6.4-3c0.1,0.1,0.5-0.3,0.6-0.2c0.1,0.1,0.5-0.2,0.6-0.2
	c0.3-0.1,0.7-0.2,1-0.3c3.4-0.3,5.6-1.6,10.4-2.9c5.6-1.7,9.7-2.2,15-1.6c2.1,0.5,3.9,0.5,5.5,0.3c3.3-0.6,5.9-2.6,9.1-4.8
	c2-1.1,4.1-2.1,6.1-3l0,0c1-0.4,1.8-0.8,2.6-1.3c1-0.4,1.8-0.8,2.4-1.2c0-0.1,0.7-0.2,0.7-0.4c0-0.2,0.7-0.2,0.7-0.4
	c2.4-1.2,4.6-2.3,7.7-2.8c1.9-0.5,4,0,5.8-0.3c2-0.4,3-0.7,5.2-0.9c2.5,0.1,5.8,0.8,8.8,1.9c0.8,0.3,1.7,0.6,2.4,0.9
	c1.6,0.7,3.1,1.4,4.6,2.3c8,4.7,13.1,11.2,17.7,16.1c0.8,0.9,1.6,1.7,2.1,2.3c7.1,7.5,10.7,15.2,13.3,24.5c0.5,1.6,0.9,3.2,1.4,4.8
	c2.2,7.7,3.3,14.2,3.3,19.6c0.2,1.3,0.5,2.7,0.6,4.3c0.4,9.2,1.7,20.8-1.7,35.1c-0.2,1-0.3,1.8-0.4,3.7c-0.1,1.3-0.2,3-0.3,5.2
	c-0.1,1.4-0.2,2.9-0.3,4.4c0,0,0,0.2,0,0.2s0,0.2,0,0.2c-0.3,4.6-1,8.7-1.4,12c0,0.2-0.1,0.5-0.1,0.8c-0.1,0.4-0.1,0.9-0.1,1.3
	c0.1,4.7,0.8,12-1,19.8c-0.4,1.8-1.5,5.9-2.2,7.8l-1.8,5.8c-6.2,28.6-14.2,55.4-24.2,79.1c-0.5,1.1-0.9,2.2-1.4,3.3
	c-5.1,11.6-10.8,22.4-17.4,33.1c0,0,0,0,0,0s0,0,0,0c-5.7,9.1-12.3,17.7-18.1,25.5c-0.6,0.8-1.2,1.6-1.8,2.4
	c-7.5,9.9-17,22.4-30.8,32.7c-0.8,0.6-1.6,1.2-2.4,1.7c-13,9.2-28.3,15.1-46,18.5c-13.3,2.6-26.5,3.4-37.6,4.1c0,0,0,0,0,0
	c-2.5,2-5.1,3.8-7.8,5.5c-6,3.6-12.4,6.6-19.3,8.8c-4.3,1.3-9.6,1.8-13.9,2.8c-3.2,0.8-5.9,2-8.7,3.1c-4.6,1.8-8.7,3.5-13.8,3.5
	c-1.5,0-3.1-0.2-4.6-0.4c-3.3-0.6-6.5-1.5-9.2-2.5c-1.1,0-2.2-0.1-3.3-0.1c-1.8-0.1-3.5-0.2-5.1-0.2c-2.5-0.1-4.8,0-7.6,0.3
	c-1.5,0.2-3.2,0.4-5,0.7c-5.7,0.8-11.5,1.7-17.5,2.4c-0.4,0.1-0.8,0.1-1.2,0.2c-1.7,0.2-3.5,0.5-5.4,0.7c-3.6,0.4-8.4,0.9-13.9,1.1
	c-3.4,0.2-6.8,0.2-10.1,0.2c-3-0.1-8-0.2-13.6-0.6c-5.2-0.5-10.5-1.4-15.5-2.6c-10.4-2.5-20.1-6.8-26.4-13.5
	c-8.6-8.4-13.9-19.2-16.1-30.4c-0.1-0.7-0.3-1.4-0.4-2.1c0,0,0-0.1,0-0.1c0,0,0-0.1,0-0.1c-0.6-4.1-0.7-8.4-1-12.7
	c-0.5-6.7-1.3-14-0.9-21.1c0.5-10.3,3.3-19.5,8.3-28.4c0,0,0,0,0,0c0,0,0,0,0,0c0.6-1.2,1.2-2.3,1.8-3.3c0.2-1.3,0.4-2.7,0.6-4.1
	c1.1-7.5,2.2-14.8,6.4-21c2.7-3.9,4.7-6.9,6.9-11.7c2.2-4.7,4.5-9.3,7.4-13.8c0.6-1.6,1.2-3.3,2.1-5.1c1-2.1,2.1-4.3,3.3-6.5
	c1.5-2.7,3-5.3,4.6-7.7c-1.8-6.6-3.4-13.3-5.1-20.1c-2.5-8.6-2.5-16.6,0.6-25.2c0.4-1,0.7-2,1.2-3c2.4-5.5,5.2-11.1,8.6-16.5
	c0,0,0,0,0,0s0,0,0,0c1.1-1.8,2.3-3.7,3.6-5.7c1-1.7,2.1-3.4,3.3-5.1c1.1-1.6,1.9-3.2,3.1-4.9c1.1-1.5,2.4-2,3.5-3.8
	c0.7-1.1,1.3-2.3,1.9-3.6c0,0,0-0.1,0-0.1c0.5-3,1-6.2,2.4-9.2c0.9-1.9,2.1-3.5,3.3-5.1c0,0,0.1-0.1,0.1-0.1s0.1-0.1,0.1-0.1
	c0.7-1,1.5-1.9,2.1-2.9c0.1-0.2,0.1-0.4,0.2-0.6c0.8-2.4,1.2-5.2,1.8-8c0.3-1.2,0.5-2.4,0.9-3.5
	C321.2,344.6,324.4,339.6,331.2,335.1z"/>
<path id="line-14" class="st0" d="M324.7,329.1c4.1-3.5,9.3-6.6,14-9.5c3.3-2,6.2-4,9.7-5.6c1.1-0.5,2.3-0.9,3.5-1.3
	c2.2-0.7,4.2-1.1,6.1-1.5c3-1.4,6.1-2.8,9.7-4.4c1.5-1.9,3.1-3.9,5-6.2c4.1-5,8-10.4,13.4-15.2c0,0,0.2-0.1,0.2-0.1s0.2-0.1,0.2-0.1
	c3.4-3,7.1-5.6,11.3-7.5c2.9-1.3,5.6-2.1,8.4-2.6c0.4-0.1,0.9-0.1,1.3-0.2c2.1-1.2,4.2-2.3,6.6-3.6c0.7-0.4,1.5-0.8,2.2-1.2
	c3.8-2.1,6.9-4.9,10.8-7.6c0.8-0.5,1.5-1,2.3-1.5c7.8-5.3,20.4-13.5,37.2-15.2c4.7-1,9.1-1.5,13.6-0.9c3.8,0.5,7.7,1.7,11.9,3.9
	c2.5,1.2,4.9,3.1,7.3,4.6c3.2,2,7,3.4,10.4,5.7c1.8,1.2,3.3,2.3,4.6,3.5c1.7,1.5,3,3.2,4.2,5.2c0.5,0.3,1,0.5,1.4,0.8
	c1.5,0.5,3.1,1,4.6,1.6c2.2-1.5,4.3-2.7,6.6-3.4c0.1,0.1,0.5-0.3,0.6-0.2c0.1,0.1,0.5-0.3,0.6-0.2c0.3-0.1,0.7-0.2,1.1-0.3
	c3.5-0.5,5.9-2,10.8-3.3c5.7-1.8,10.1-2.5,15.6-2c2.2,0.5,4,0.5,5.8,0.1c3.5-0.6,6.3-2.6,9.6-4.8c2.1-1.1,4.4-2,6.5-3l0,0
	c1-0.4,2-0.8,2.8-1.2c1.1-0.4,2-0.8,2.6-1.2c0-0.1,0.8-0.2,0.8-0.4s0.8-0.2,0.8-0.4c2.6-1.1,5-2.2,8.2-2.6c2-0.4,4.2,0.1,6.1-0.2
	c2.1-0.3,3.2-0.6,5.5-0.7c2.7,0.2,6,1,9.1,2.1c0.9,0.3,1.7,0.7,2.5,1c1.7,0.7,3.3,1.5,4.8,2.4c8.3,5,13.7,11.7,18.4,16.8
	c0.9,0.9,1.7,1.8,2.2,2.4c7.5,7.9,11.4,16,14.2,25.7c0.5,1.7,1,3.4,1.5,5.1c2.3,8.1,3.5,15,3.5,20.7c0.3,1.3,0.5,2.8,0.7,4.5
	c0.6,9.6,2,21.9-1.7,37c-0.2,1.1-0.4,1.9-0.5,3.9c-0.1,1.4-0.2,3.1-0.3,5.5c-0.1,1.4-0.2,3-0.3,4.7c0,0,0,0.2,0,0.2s0,0.2,0,0.2
	c-0.4,4.9-1,9.2-1.4,12.7c0,0.3-0.1,0.5-0.1,0.8c-0.1,0.5-0.1,0.9-0.2,1.4c0.2,4.9,0.9,12.6-1,20.9c-0.4,2-1.6,6.1-2.3,8.2l-1.9,6.1
	c-6.5,30-14.9,58.1-25.4,82.8c-0.5,1.2-1,2.3-1.5,3.4c-5.3,12.2-11.3,23.5-18.3,34.7c0,0,0,0,0,0s0,0,0,0c-6,9.6-12.8,18.6-19,26.7
	c-0.6,0.8-1.3,1.7-1.9,2.5c-7.9,10.4-17.9,23.6-32.4,34.4c-0.8,0.6-1.6,1.2-2.5,1.8c-13.7,9.7-29.9,15.9-48.5,19.5
	c-14,2.7-27.9,3.6-39.6,4.4c0,0,0,0,0,0c-2.6,2.1-5.3,4.1-8.1,5.9c-6.3,3.9-13,7.1-20.3,9.5c-4.5,1.4-10,2-14.5,3
	c-3.3,0.8-6.3,2-9.1,3.1c-4.9,1.8-9.3,3.3-14.6,3.3c-1.6-0.1-3.2-0.2-4.9-0.5c-3.4-0.6-6.7-1.6-9.6-2.6c-1.2,0-2.3,0-3.4,0
	c-1.9-0.1-3.6-0.2-5.3-0.1c-2.6-0.1-5.1,0-8,0.4c-1.6,0.2-3.3,0.4-5.2,0.7c-5.9,0.9-12,1.8-18.3,2.5c-0.4,0.1-0.8,0.1-1.2,0.2
	c-1.7,0.2-3.6,0.5-5.6,0.7c-3.7,0.4-8.8,0.9-14.5,1.1c-3.6,0.2-7.1,0.2-10.6,0.2c-3.3-0.2-8.5-0.2-14.2-0.7
	c-5.4-0.6-10.9-1.5-16.2-2.8c-10.9-2.7-20.9-7.1-27.6-14c-9.1-8.8-14.9-20.1-17.5-31.8c-0.2-0.7-0.3-1.4-0.4-2.2c0,0,0-0.1,0-0.1
	s0-0.1,0-0.1c-0.7-4.4-0.9-8.8-1.3-13.4c-0.6-7.1-1.4-14.8-1-22.2c0.5-10.8,3.4-20.6,8.5-29.9c0,0,0,0,0,0s0,0,0,0
	c0.7-1.2,1.3-2.4,1.9-3.5c0.2-1.4,0.4-2.8,0.6-4.4c1.1-7.9,2.3-15.6,6.6-22.2c2.8-4.2,4.9-7.4,7.1-12.4c2.4-5,4.9-9.8,8-14.4
	c0.6-1.7,1.3-3.4,2.2-5.3c1-2.2,2.2-4.5,3.5-6.8c1.6-2.8,3.2-5.5,4.9-8c-2-7-3.6-14-5.4-21.1c-2.5-9-2.4-17.5,0.7-26.4
	c0.4-1.1,0.8-2.1,1.2-3.2c2.4-5.8,5.4-11.6,8.9-17.3c0,0,0,0,0,0c0,0,0,0,0,0c1.2-1.9,2.4-3.9,3.7-6c1.1-1.7,2.2-3.5,3.4-5.3
	c1.1-1.7,2-3.4,3.2-5.1c1.1-1.6,2.4-2.2,3.6-4c0.8-1.2,1.4-2.4,2-3.8c0,0,0-0.1,0-0.1c0.5-3.1,1.1-6.5,2.6-9.6
	c1-1.9,2.2-3.7,3.5-5.4c0,0,0.1-0.1,0.1-0.1s0.1-0.1,0.1-0.1c0.8-1,1.5-2,2.2-3.1c0.1-0.2,0.1-0.4,0.2-0.6c0.8-2.6,1.3-5.5,1.9-8.4
	c0.3-1.3,0.6-2.5,1-3.7C314.3,339.3,317.7,333.8,324.7,329.1z"/>
<path id="line-15" class="st0" d="M318.2,323c4.3-3.7,9.7-7.1,14.7-10.1c3.5-2.1,6.5-4.2,10.2-5.8c1.2-0.5,2.4-1,3.7-1.3
	c2.3-0.7,4.4-1.2,6.4-1.6c3.1-1.5,6.4-3,10.2-4.7c1.5-2,3.3-4.2,5.2-6.6c4.2-5.2,8.5-10.9,14.2-15.9c0,0,0.2-0.1,0.2-0.2
	s0.2-0.1,0.2-0.2c3.6-3.1,7.5-5.8,12-7.8c3-1.4,5.9-2.2,8.8-2.7c0.4-0.1,0.9-0.1,1.3-0.2c2.2-1.3,4.4-2.5,6.9-3.9
	c0.7-0.4,1.5-0.9,2.3-1.3c4-2.3,7.3-5.2,11.4-7.9c0.8-0.5,1.6-1.1,2.5-1.6c8.2-5.5,21.4-14.1,39.2-15.7c4.9-1,9.5-1.4,14.2-0.8
	c4,0.5,8.1,1.8,12.4,4c2.7,1.3,5.1,3.2,7.6,4.7c3.4,2,7.3,3.6,10.8,5.9c1.8,1.2,3.4,2.4,4.8,3.6c1.8,1.6,3.2,3.3,4.4,5.4
	c0.5,0.3,1,0.6,1.4,0.8c1.6,0.5,3.2,1.1,4.8,1.8c2.3-1.6,4.5-3,6.9-3.8c0.1,0.1,0.6-0.3,0.6-0.3c0.1,0.1,0.6-0.3,0.6-0.2
	c0.4-0.1,0.7-0.3,1.1-0.4c3.7-0.7,6.2-2.3,11.2-3.8c5.9-2,10.5-2.8,16.3-2.5c2.2,0.4,4.2,0.4,6,0c3.6-0.7,6.6-2.6,10.2-4.8
	c2.3-1.1,4.6-2,6.9-2.9l0,0c1.1-0.4,2.1-0.8,3-1.2c1.2-0.4,2.1-0.7,2.8-1.1c0-0.1,0.9-0.2,0.9-0.4c0-0.1,0.9-0.2,0.9-0.3
	c2.8-1.1,5.4-2,8.8-2.4c2.1-0.4,4.4,0.2,6.3,0c2.3-0.2,3.5-0.4,5.9-0.5c2.8,0.3,6.3,1.2,9.5,2.4c0.9,0.3,1.8,0.7,2.6,1.1
	c1.7,0.8,3.4,1.6,4.9,2.6c8.7,5.3,14.3,12.3,19.2,17.5c0.9,1,1.8,1.9,2.4,2.6c7.8,8.3,12.1,16.8,15.1,27c0.5,1.8,1.1,3.5,1.6,5.3
	c2.5,8.6,3.6,15.8,3.6,21.7c0.3,1.4,0.6,3,0.8,4.7c0.7,10,2.2,22.9-1.7,38.9c-0.3,1.1-0.4,2-0.5,4c-0.1,1.4-0.2,3.3-0.3,5.7
	c-0.1,1.5-0.2,3.2-0.3,4.9c0,0,0,0.2,0,0.2c0,0,0,0.2,0,0.2c-0.4,5.1-1,9.7-1.5,13.3c0,0.3-0.1,0.6-0.1,0.9c-0.1,0.5-0.1,1-0.2,1.4
	c0.2,5.1,0.9,13.2-1.1,21.9c-0.4,2.2-1.6,6.4-2.4,8.7l-2,6.4c-6.8,31.4-15.6,60.8-26.5,86.5c-0.5,1.2-1,2.4-1.5,3.6
	c-5.6,12.7-11.8,24.6-19.1,36.2c0,0,0,0,0,0s0,0,0,0c-6.3,10-13.4,19.4-19.8,27.9c-0.7,0.9-1.3,1.8-2,2.7
	c-8.3,10.9-18.8,24.8-34.1,36.2c-0.9,0.6-1.7,1.3-2.6,1.9c-14.4,10.1-31.4,16.7-51,20.5c-14.8,2.9-29.4,3.8-41.7,4.6c0,0,0,0,0,0
	c-2.7,2.3-5.5,4.4-8.5,6.4c-6.5,4.2-13.6,7.6-21.3,10.1c-4.7,1.5-10.3,2.1-15.1,3.2c-3.5,0.8-6.6,2-9.6,3.1
	c-5.2,1.7-9.9,3.2-15.4,3.1c-1.7-0.1-3.4-0.3-5.1-0.6c-3.6-0.7-7-1.7-10-2.8c-1.2,0-2.4,0-3.6,0c-1.9-0.1-3.8-0.1-5.6-0.1
	c-2.7,0-5.3,0.1-8.3,0.4c-1.7,0.2-3.5,0.5-5.4,0.7c-6.2,0.9-12.5,1.8-19,2.6c-0.4,0.1-0.9,0.1-1.3,0.2c-1.8,0.3-3.8,0.5-5.9,0.7
	c-3.9,0.4-9.1,0.9-15.2,1.1c-3.7,0.2-7.4,0.2-11,0.2c-3.5-0.2-8.9-0.3-14.8-0.8c-5.7-0.6-11.4-1.6-16.9-2.9
	c-11.3-2.8-21.7-7.4-28.8-14.6c-9.7-9.1-16-20.9-18.8-33.2c-0.2-0.8-0.3-1.5-0.5-2.3c0,0,0-0.1,0-0.1s0-0.1,0-0.1
	c-0.8-4.6-1.1-9.3-1.6-14.1c-0.7-7.5-1.5-15.5-1.1-23.3c0.5-11.3,3.5-21.6,8.8-31.5c0,0,0,0,0,0c0,0,0,0,0,0
	c0.7-1.3,1.3-2.5,1.9-3.7c0.2-1.4,0.4-3,0.6-4.6c1.1-8.3,2.3-16.4,6.7-23.4c2.8-4.4,5-7.9,7.4-13.1c2.5-5.2,5.2-10.2,8.5-15.1
	c0.6-1.7,1.4-3.6,2.4-5.6c1.1-2.3,2.3-4.7,3.7-7.1c1.7-2.9,3.4-5.7,5.2-8.4c-2.2-7.3-3.9-14.7-5.7-22.2c-2.5-9.4-2.4-18.3,0.9-27.7
	c0.4-1.1,0.8-2.2,1.3-3.3c2.5-6.1,5.6-12.2,9.3-18.1c0,0,0,0,0,0c0,0,0,0,0,0c1.2-1.9,2.5-4,3.9-6.2c1.1-1.8,2.3-3.7,3.6-5.6
	c1.2-1.8,2.1-3.5,3.4-5.3c1.2-1.6,2.5-2.4,3.7-4.3c0.8-1.2,1.5-2.5,2.1-3.9c0,0,0-0.1,0.1-0.1c0.6-3.2,1.2-6.8,2.8-10.1
	c1-2,2.2-3.8,3.6-5.7c0,0,0.1-0.1,0.1-0.1c0,0,0.1-0.1,0.1-0.1c0.8-1.1,1.6-2.1,2.3-3.2c0.1-0.2,0.1-0.5,0.2-0.7
	c0.8-2.7,1.3-5.7,2-8.8c0.3-1.3,0.6-2.6,1-3.9C307.4,333.9,311,328.1,318.2,323z"/>
<path id="line-16" class="st0" d="M311.7,317c4.5-4,10.1-7.5,15.3-10.7c3.6-2.2,6.9-4.4,10.8-6.1c1.3-0.5,2.6-1,3.9-1.4
	c2.4-0.7,4.6-1.2,6.7-1.6c3.2-1.7,6.7-3.2,10.7-5c1.6-2.1,3.4-4.4,5.4-6.9c4.4-5.5,9-11.4,15.1-16.6c0,0,0.2-0.1,0.2-0.2
	s0.2-0.1,0.2-0.2c3.9-3.3,8-6,12.7-8.1c3.2-1.4,6.2-2.3,9.2-2.8c0.5-0.1,0.9-0.2,1.4-0.2c2.3-1.4,4.6-2.7,7.2-4.2
	c0.8-0.5,1.6-0.9,2.4-1.4c4.1-2.4,7.7-5.5,11.9-8.3c0.9-0.6,1.7-1.1,2.6-1.7c8.5-5.7,22.4-14.6,41.2-16.2c5.1-0.9,9.9-1.3,14.8-0.7
	c4.2,0.6,8.4,1.9,12.9,4.1c2.8,1.3,5.4,3.2,8,4.8c3.5,2.1,7.6,3.8,11.3,6.2c1.9,1.2,3.5,2.4,5,3.8c1.9,1.7,3.4,3.4,4.7,5.6
	c0.5,0.3,1,0.6,1.5,0.9c1.7,0.5,3.3,1.1,4.9,1.9c2.3-1.7,4.6-3.2,7.1-4.2c0.1,0.1,0.6-0.4,0.7-0.3c0.1,0.1,0.6-0.3,0.7-0.3
	c0.4-0.2,0.8-0.3,1.1-0.4c3.8-0.9,6.5-2.6,11.6-4.3c6.1-2.1,10.9-3.1,16.9-2.9c2.3,0.3,4.3,0.3,6.2-0.1c3.8-0.7,7-2.7,10.7-4.8
	c2.4-1.1,4.9-2,7.3-2.9l0,0c1.1-0.4,2.2-0.8,3.2-1.1c1.2-0.3,2.2-0.7,3-1.1c0-0.1,0.9-0.2,0.9-0.3s0.9-0.2,0.9-0.3
	c3-1,5.8-1.9,9.3-2.1c2.2-0.3,4.5,0.3,6.6,0.1c2.4-0.2,3.7-0.3,6.2-0.2c2.9,0.4,6.5,1.3,9.8,2.6c0.9,0.4,1.8,0.7,2.7,1.1
	c1.8,0.8,3.5,1.7,5.1,2.7c9,5.6,14.9,12.8,19.9,18.2c1,1,1.8,2,2.5,2.7c8.2,8.6,12.8,17.6,16,28.2c0.6,1.9,1.2,3.7,1.7,5.6
	c2.6,9,3.8,16.6,3.8,22.8c0.3,1.4,0.6,3.1,0.9,5c0.8,10.3,2.5,24-1.7,40.8c-0.3,1.2-0.4,2.1-0.5,4.2c-0.1,1.5-0.2,3.4-0.3,6
	c-0.1,1.6-0.2,3.3-0.3,5.1c0,0,0,0.2,0,0.3c0,0,0,0.2,0,0.3c-0.4,5.4-1.1,10.2-1.6,13.9c0,0.3-0.1,0.6-0.1,0.9
	c-0.1,0.5-0.1,1-0.2,1.5c0.2,5.3,0.9,13.8-1.2,23c-0.5,2.3-1.7,6.6-2.5,9.1l-2.1,6.7c-7.1,32.8-16.3,63.4-27.7,90.3
	c-0.5,1.3-1.1,2.5-1.6,3.7c-5.8,13.3-12.3,25.6-19.9,37.8c0,0,0,0,0,0s0,0,0,0c-6.6,10.5-14,20.3-20.7,29.1
	c-0.7,0.9-1.4,1.8-2.1,2.8c-8.6,11.4-19.7,25.9-35.8,38c-0.9,0.7-1.8,1.3-2.7,2c-15.1,10.6-32.9,17.5-53.5,21.5
	c-15.5,3-30.9,4-43.7,4.8c0,0,0,0,0,0c-2.8,2.5-5.7,4.7-8.8,6.8c-6.8,4.5-14.2,8.1-22.3,10.8c-4.9,1.6-10.7,2.2-15.8,3.3
	c-3.6,0.8-6.9,2-10.1,3c-5.5,1.7-10.4,3-16.2,2.8c-1.8-0.1-3.5-0.3-5.3-0.6c-3.7-0.7-7.3-1.8-10.4-2.9c-1.3,0-2.5,0-3.7,0
	c-2-0.1-3.9-0.1-5.8,0c-2.8,0-5.5,0.2-8.7,0.5c-1.8,0.2-3.6,0.5-5.6,0.8c-6.4,1-13,1.9-19.8,2.7c-0.4,0.1-0.9,0.1-1.4,0.2
	c-1.9,0.3-3.9,0.5-6.1,0.7c-4,0.5-9.5,0.9-15.8,1.1c-3.9,0.1-7.7,0.2-11.5,0.1c-3.8-0.2-9.4-0.3-15.4-0.9
	c-5.9-0.7-11.9-1.7-17.6-3.1c-11.8-3-22.6-7.8-30-15.2c-10.3-9.5-17.1-21.7-20.2-34.6c-0.2-0.8-0.4-1.6-0.5-2.4c0,0,0-0.1,0-0.1
	c0,0,0-0.1,0-0.1c-0.9-4.8-1.4-9.7-1.9-14.8c-0.8-7.8-1.6-16.2-1.2-24.4c0.5-11.7,3.6-22.6,9.1-33c0,0,0,0,0,0s0,0,0,0
	c0.7-1.4,1.4-2.7,2-3.9c0.2-1.5,0.4-3.1,0.6-4.8c1-8.7,2.4-17.2,6.9-24.6c2.9-4.7,5.1-8.4,7.7-13.8c2.7-5.4,5.5-10.7,9-15.8
	c0.7-1.8,1.5-3.8,2.5-5.8c1.1-2.4,2.4-4.9,3.9-7.4c1.8-3.1,3.6-6,5.5-8.8c-2.4-7.7-4.2-15.4-5.9-23.2c-2.5-9.8-2.3-19.2,1.1-28.9
	c0.4-1.2,0.8-2.3,1.3-3.5c2.6-6.4,5.8-12.7,9.7-18.9c0,0,0,0,0,0s0,0,0,0c1.3-2,2.6-4.2,4-6.5c1.2-1.9,2.4-3.9,3.7-5.8
	c1.2-1.9,2.2-3.7,3.5-5.6c1.2-1.7,2.6-2.5,3.9-4.5c0.8-1.3,1.6-2.7,2.3-4.1c0,0,0-0.1,0.1-0.1c0.6-3.4,1.3-7,3-10.5
	c1-2.1,2.3-4,3.7-6c0,0,0.1-0.1,0.1-0.1c0,0,0.1-0.1,0.1-0.1c0.8-1.1,1.6-2.2,2.4-3.4c0.1-0.2,0.1-0.5,0.2-0.7
	c0.9-2.8,1.4-6,2.2-9.2c0.3-1.4,0.7-2.7,1.1-4C300.5,328.5,304.3,322.3,311.7,317z"/>
<path id="line-17" class="st0" d="M305.2,310.9c4.7-4.2,10.5-8,16-11.4c3.8-2.3,7.2-4.6,11.3-6.3c1.3-0.6,2.7-1.1,4.1-1.5
	c2.5-0.8,4.8-1.3,7-1.7c3.4-1.8,7-3.4,11.2-5.3c1.7-2.2,3.5-4.6,5.7-7.3c4.6-5.7,9.4-11.9,15.9-17.3c0,0,0.2-0.1,0.2-0.2
	c0,0,0.2-0.1,0.2-0.2c4.1-3.4,8.4-6.2,13.3-8.4c3.3-1.5,6.5-2.4,9.7-3c0.5-0.1,1-0.2,1.5-0.2c2.4-1.5,4.8-2.9,7.5-4.5
	c0.8-0.5,1.7-1,2.5-1.5c4.3-2.5,8-5.7,12.5-8.7c0.9-0.6,1.8-1.2,2.7-1.8c8.9-5.9,23.5-15.2,43.2-16.7c5.3-0.9,10.3-1.3,15.4-0.6
	c4.4,0.6,8.7,1.9,13.4,4.2c2.9,1.3,5.6,3.3,8.3,4.9c3.7,2.1,7.9,3.9,11.7,6.4c2,1.3,3.7,2.5,5.2,3.9c2,1.7,3.5,3.5,4.9,5.7
	c0.5,0.3,1,0.6,1.5,1c1.7,0.6,3.4,1.2,5.1,2c2.4-1.9,4.7-3.5,7.3-4.6c0.1,0.1,0.6-0.4,0.7-0.3c0.1,0.1,0.6-0.4,0.7-0.3
	c0.4-0.2,0.8-0.3,1.2-0.5c3.9-1.1,6.8-3,12-4.7c6.3-2.3,11.3-3.4,17.6-3.4c2.4,0.3,4.5,0.2,6.4-0.2c4-0.8,7.4-2.7,11.2-4.8
	c2.5-1.1,5.2-2,7.7-2.8l0,0c1.2-0.4,2.3-0.7,3.3-1.1c1.3-0.3,2.4-0.7,3.2-1c0-0.1,1-0.2,1-0.3c0-0.1,1-0.2,1-0.3
	c3.2-0.9,6.2-1.7,9.9-1.9c2.3-0.3,4.7,0.4,6.9,0.2c2.5-0.1,4-0.2,6.6,0c3.1,0.5,6.8,1.5,10.2,2.9c1,0.4,1.9,0.8,2.8,1.2
	c1.8,0.9,3.6,1.8,5.3,2.9c9.3,5.9,15.5,13.4,20.6,18.9c1,1.1,1.9,2.1,2.6,2.8c8.6,9,13.5,18.4,16.9,29.5c0.6,1.9,1.2,3.9,1.8,5.8
	c2.7,9.5,3.9,17.5,4,23.8c0.3,1.5,0.7,3.2,0.9,5.2c1,10.7,2.7,25.1-1.7,42.7c-0.3,1.2-0.4,2.2-0.6,4.4c-0.1,1.6-0.2,3.6-0.3,6.3
	c-0.1,1.6-0.2,3.5-0.3,5.4c0,0,0,0.3,0,0.3c0,0,0,0.3,0,0.3c-0.4,5.7-1.1,10.7-1.6,14.6c0,0.3-0.1,0.6-0.1,0.9
	c-0.1,0.5-0.1,1.1-0.2,1.6c0.2,5.5,1,14.4-1.2,24.1c-0.5,2.5-1.7,6.9-2.6,9.5l-2.2,7c-7.4,34.3-17,66.1-28.9,94
	c-0.6,1.3-1.1,2.6-1.7,3.9c-6,13.8-12.8,26.7-20.8,39.3c0,0,0,0,0,0c0,0,0,0,0,0c-6.9,10.9-14.6,21.1-21.6,30.3
	c-0.7,1-1.5,1.9-2.2,2.9c-9,11.9-20.6,27.1-37.5,39.7c-0.9,0.7-1.9,1.4-2.9,2.1c-15.8,11.1-34.4,18.3-56,22.5
	c-16.2,3.2-32.3,4.2-45.7,5c0,0,0,0,0,0c-2.9,2.6-6,5-9.2,7.2c-7.1,4.8-14.8,8.7-23.3,11.4c-5.1,1.6-11.1,2.4-16.4,3.5
	c-3.8,0.8-7.2,2-10.6,3c-5.8,1.6-11,2.9-16.9,2.6c-1.8-0.1-3.7-0.4-5.5-0.7c-3.9-0.8-7.6-1.9-10.8-3c-1.3,0-2.6,0.1-3.9,0.1
	c-2.1,0-4.1,0-6,0.1c-2.9,0-5.8,0.2-9,0.6c-1.8,0.2-3.8,0.5-5.8,0.8c-6.6,1-13.5,2-20.6,2.8c-0.5,0.1-0.9,0.1-1.4,0.2
	c-2,0.3-4.1,0.5-6.3,0.8c-4.1,0.5-9.8,0.9-16.4,1.1c-4,0.1-8,0.2-11.9,0.1c-4.1-0.2-9.8-0.4-16-1c-6.2-0.7-12.4-1.8-18.3-3.3
	c-12.2-3.1-23.4-8.1-31.3-15.7c-10.9-9.8-18.1-22.5-21.6-36c-0.2-0.8-0.4-1.7-0.6-2.5c0,0,0-0.1,0-0.1s0-0.1,0-0.1
	c-1-5-1.6-10.2-2.1-15.5c-0.8-8.2-1.7-16.9-1.3-25.5c0.6-12.2,3.8-23.6,9.4-34.5c0,0,0,0,0,0c0,0,0,0,0,0c0.7-1.4,1.4-2.8,2.1-4.1
	c0.2-1.6,0.4-3.3,0.6-5.1c1-9.1,2.5-18,7-25.8c2.9-4.9,5.3-8.9,7.9-14.4c2.8-5.6,5.9-11.1,9.6-16.4c0.7-1.9,1.6-3.9,2.6-6.1
	c1.2-2.5,2.6-5.1,4.1-7.7c1.9-3.2,3.8-6.2,5.9-9.1c-2.5-8-4.4-16-6.2-24.3c-2.5-10.2-2.2-20,1.2-30.2c0.4-1.2,0.9-2.4,1.3-3.6
	c2.7-6.7,6-13.3,10.1-19.7c0,0,0,0,0,0c0,0,0,0,0,0c1.3-2.1,2.7-4.4,4.2-6.8c1.2-2,2.5-4,3.9-6.1c1.3-1.9,2.3-3.8,3.7-5.8
	c1.3-1.8,2.7-2.7,4-4.7c0.9-1.3,1.6-2.8,2.4-4.2c0,0,0-0.1,0.1-0.1c0.7-3.5,1.4-7.3,3.1-10.9c1.1-2.2,2.4-4.2,3.8-6.2
	c0,0,0.1-0.1,0.1-0.1s0.1-0.1,0.1-0.1c0.8-1.2,1.7-2.4,2.5-3.5c0.1-0.2,0.2-0.5,0.2-0.7c0.9-2.9,1.4-6.2,2.3-9.6
	c0.3-1.4,0.7-2.8,1.2-4.2C293.6,323.1,297.7,316.6,305.2,310.9z"/>
<path id="line-18" class="st0" d="M298.7,304.9c4.9-4.5,10.9-8.4,16.6-12c3.9-2.4,7.6-4.7,11.8-6.5c1.4-0.6,2.8-1.1,4.2-1.5
	c2.6-0.8,5-1.4,7.3-1.8c3.5-1.9,7.3-3.7,11.6-5.6c1.7-2.4,3.7-4.9,5.9-7.6c4.8-6,9.9-12.4,16.7-18c0,0,0.2-0.2,0.2-0.2
	s0.2-0.2,0.2-0.2c4.3-3.5,8.9-6.5,14-8.7c3.5-1.5,6.8-2.5,10.1-3.1c0.5-0.1,1-0.2,1.5-0.3c2.5-1.6,5-3.1,7.8-4.8
	c0.8-0.5,1.7-1.1,2.6-1.6c4.5-2.7,8.4-6,13.1-9.1c0.9-0.6,1.9-1.2,2.8-1.8c9.2-6.1,24.5-15.8,45.3-17.2c5.5-0.9,10.7-1.2,15.9-0.5
	c4.5,0.7,9.1,2,13.9,4.4c3,1.4,5.8,3.3,8.7,5c3.8,2.2,8.1,4.1,12.1,6.7c2,1.3,3.8,2.6,5.4,4c2,1.8,3.7,3.7,5.2,5.9
	c0.5,0.3,1.1,0.7,1.6,1c1.8,0.6,3.5,1.3,5.3,2.1c2.4-2,4.9-3.7,7.5-4.9c0.1,0.1,0.6-0.4,0.7-0.4c0.1,0.1,0.7-0.4,0.7-0.4
	c0.4-0.2,0.8-0.4,1.2-0.6c4-1.3,7.1-3.3,12.5-5.2c6.4-2.5,11.7-3.7,18.2-3.8c2.4,0.2,4.6,0.1,6.7-0.3c4.1-0.8,7.7-2.7,11.8-4.8
	c2.7-1.1,5.4-1.9,8.1-2.7l0,0c1.3-0.4,2.5-0.7,3.5-1.1c1.4-0.3,2.5-0.6,3.4-1c0-0.1,1-0.2,1-0.3c0-0.1,1-0.1,1-0.3
	c3.3-0.9,6.6-1.6,10.5-1.7c2.4-0.2,4.9,0.4,7.2,0.4c2.6,0,4.2,0,6.9,0.2c3.2,0.6,7,1.7,10.6,3.2c1,0.4,2,0.8,2.9,1.3
	c1.9,0.9,3.7,1.9,5.5,3c9.7,6.1,16.1,13.9,21.4,19.6c1,1.1,2,2.2,2.7,2.9c8.9,9.4,14.2,19.2,17.8,30.7c0.7,2,1.3,4,1.9,6.1
	c2.9,9.9,4.1,18.3,4.1,24.9c0.3,1.6,0.7,3.4,1,5.4c1.1,11.1,3,26.2-1.7,44.6c-0.3,1.3-0.5,2.2-0.6,4.6c-0.1,1.6-0.2,3.7-0.4,6.6
	c-0.1,1.7-0.2,3.6-0.3,5.6c0,0,0,0.3,0,0.3s0,0.3,0,0.3c-0.4,5.9-1.2,11.1-1.7,15.2c0,0.3-0.1,0.6-0.1,1c-0.1,0.6-0.1,1.1-0.2,1.7
	c0.2,5.7,1,15-1.3,25.1c-0.5,2.6-1.8,7.1-2.7,9.9l-2.3,7.3c-7.7,35.7-17.7,68.8-30,97.7c-0.6,1.4-1.2,2.7-1.7,4.1
	c-6.3,14.3-13.3,27.7-21.6,40.9c0,0,0,0,0,0s0,0,0,0c-7.1,11.4-15.2,22-22.4,31.5c-0.8,1-1.5,2-2.3,3c-9.4,12.4-21.4,28.3-39.2,41.5
	c-1,0.7-2,1.5-3,2.2c-16.5,11.6-35.9,19.1-58.5,23.5c-17,3.3-33.8,4.4-47.8,5.2c0,0,0,0,0,0c-3,2.8-6.2,5.3-9.5,7.7
	c-7.4,5.1-15.5,9.2-24.3,12.1c-5.3,1.7-11.5,2.5-17,3.7c-3.9,0.8-7.5,2-11,2.9c-6.1,1.6-11.6,2.8-17.7,2.4c-1.9-0.1-3.8-0.4-5.7-0.8
	c-4.1-0.8-7.9-2-11.2-3.2c-1.4,0-2.7,0.1-4,0.1c-2.2,0-4.2,0-6.3,0.1c-3,0.1-6,0.3-9.3,0.7c-1.9,0.2-3.9,0.5-6,0.9
	c-6.9,1-14,2.1-21.4,2.9c-0.5,0.1-1,0.1-1.5,0.2c-2,0.3-4.2,0.5-6.6,0.8c-4.2,0.5-10.2,1-17,1.2c-4.2,0.1-8.3,0.2-12.4,0.1
	c-4.3-0.2-10.3-0.4-16.7-1c-6.4-0.8-12.8-1.9-18.9-3.4c-12.6-3.2-24.2-8.4-32.5-16.3c-11.5-10.2-19.2-23.3-23-37.4
	c-0.2-0.9-0.4-1.7-0.6-2.6c0,0,0-0.1,0-0.1c0,0,0-0.1,0-0.1c-1.2-5.2-1.8-10.6-2.4-16.1c-0.9-8.5-1.8-17.7-1.4-26.6
	c0.6-12.7,3.9-24.7,9.6-36c0,0,0,0,0,0s0,0,0,0c0.7-1.5,1.5-2.9,2.1-4.3c0.2-1.7,0.4-3.4,0.6-5.3c1-9.5,2.5-18.8,7.1-27
	c3-5.1,5.4-9.4,8.2-15.1c3-5.9,6.2-11.6,10.1-17.1c0.7-2,1.6-4.1,2.7-6.3c1.2-2.6,2.7-5.3,4.3-8.1c2-3.3,4-6.5,6.2-9.5
	c-2.7-8.3-4.7-16.7-6.5-25.3c-2.5-10.6-2.2-20.9,1.4-31.4c0.4-1.3,0.9-2.5,1.4-3.8c2.8-6.9,6.2-13.8,10.4-20.5c0,0,0,0,0,0s0,0,0,0
	c1.4-2.2,2.8-4.6,4.4-7.1c1.3-2.1,2.6-4.2,4-6.3c1.3-2,2.4-4,3.8-6c1.3-1.9,2.8-2.9,4.1-4.9c0.9-1.4,1.7-2.9,2.5-4.4
	c0,0,0-0.1,0.1-0.1c0.7-3.7,1.5-7.6,3.3-11.4c1.1-2.3,2.5-4.4,3.9-6.5c0,0,0.1-0.1,0.1-0.1c0,0,0.1-0.1,0.1-0.1
	c0.9-1.2,1.7-2.5,2.6-3.7c0.1-0.3,0.2-0.5,0.2-0.8c0.9-3,1.5-6.5,2.4-10c0.4-1.5,0.8-2.9,1.2-4.4C286.7,317.7,291,310.8,298.7,304.9
	z"/>
<path id="line-19" class="st0" d="M292.2,298.8c5.1-4.7,11.3-8.9,17.3-12.6c4.1-2.5,7.9-4.9,12.4-6.8c1.5-0.6,2.9-1.1,4.4-1.6
	c2.7-0.8,5.2-1.4,7.6-1.9c3.6-2,7.6-3.9,12.1-5.9c1.8-2.5,3.8-5.1,6.1-8c5-6.2,10.4-12.8,17.6-18.6c0,0,0.2-0.2,0.2-0.2
	s0.2-0.2,0.2-0.2c4.5-3.6,9.3-6.7,14.7-9c3.6-1.6,7.1-2.6,10.5-3.2c0.5-0.1,1.1-0.2,1.6-0.3c2.6-1.7,5.2-3.3,8.1-5.1
	c0.9-0.6,1.8-1.1,2.7-1.7c4.6-2.8,8.8-6.3,13.6-9.5c1-0.6,2-1.3,3-1.9c9.5-6.2,25.5-16.3,47.3-17.8c5.7-0.9,11-1.1,16.5-0.3
	c4.7,0.7,9.4,2.1,14.4,4.5c3.1,1.4,6,3.4,9,5.1c4,2.3,8.4,4.2,12.5,6.9c2.1,1.4,3.9,2.7,5.6,4.1c2.1,1.8,3.9,3.8,5.4,6
	c0.6,0.4,1.1,0.7,1.6,1.1c1.8,0.6,3.6,1.4,5.4,2.2c2.5-2.1,5-4,7.7-5.3c0.1,0.1,0.7-0.5,0.7-0.4c0.1,0.1,0.7-0.4,0.7-0.4
	c0.4-0.2,0.8-0.4,1.3-0.6c4.1-1.5,7.4-3.7,12.9-5.6c6.6-2.6,12.2-4,18.9-4.3c2.5,0.2,4.8,0,6.9-0.4c4.3-0.9,8.1-2.8,12.3-4.8
	c2.8-1,5.7-1.9,8.5-2.7l0,0c1.3-0.3,2.6-0.7,3.7-1c1.5-0.3,2.7-0.6,3.6-0.9c0-0.1,1.1-0.2,1.1-0.3s1.1-0.1,1.1-0.3
	c3.5-0.8,7-1.4,11-1.5c2.5-0.2,5.1,0.5,7.4,0.5c2.7,0,4.5,0.1,7.3,0.4c3.3,0.7,7.3,1.9,10.9,3.4c1,0.4,2,0.9,3,1.4
	c2,1,3.8,2,5.6,3.1c10,6.4,16.7,14.4,22.1,20.3c1.1,1.2,2.1,2.3,2.8,3.1c9.3,9.7,14.9,20,18.7,32c0.7,2.1,1.4,4.2,2,6.3
	c3,10.3,4.2,19.1,4.3,25.9c0.4,1.6,0.8,3.5,1.1,5.6c1.3,11.5,3.3,27.2-1.8,46.5c-0.3,1.3-0.5,2.3-0.6,4.8c-0.1,1.7-0.2,3.9-0.4,6.9
	c-0.1,1.8-0.2,3.8-0.3,5.9c0,0,0,0.3,0,0.3c0,0,0,0.3,0,0.3c-0.4,6.2-1.2,11.6-1.8,15.9c0,0.3-0.1,0.7-0.1,1
	c-0.1,0.6-0.2,1.2-0.2,1.7c0.2,5.9,1,15.6-1.3,26.2c-0.5,2.8-1.8,7.4-2.8,10.4l-2.4,7.6c-8,37.1-18.4,71.5-31.2,101.5
	c-0.6,1.4-1.2,2.8-1.8,4.2c-6.5,14.9-13.9,28.8-22.4,42.5c0,0,0,0,0,0s0,0,0,0c-7.4,11.8-15.8,22.9-23.3,32.7
	c-0.8,1-1.6,2.1-2.4,3.1c-9.7,12.8-22.3,29.5-40.9,43.2c-1,0.8-2.1,1.5-3.1,2.3c-17.2,12-37.4,19.9-61,24.5
	c-17.7,3.4-35.3,4.6-49.8,5.5c0,0,0,0,0,0c-3.1,2.9-6.4,5.7-9.9,8.1c-7.7,5.4-16.1,9.7-25.3,12.7c-5.5,1.8-11.9,2.7-17.6,3.8
	c-4.1,0.9-7.8,2-11.5,2.9c-6.4,1.5-12.2,2.6-18.5,2.2c-2-0.2-3.9-0.5-5.9-0.8c-4.2-0.9-8.2-2-11.6-3.3c-1.4,0.1-2.8,0.1-4.2,0.2
	c-2.2,0-4.4,0.1-6.5,0.2c-3.1,0.1-6.2,0.4-9.7,0.8c-2,0.3-4.1,0.6-6.3,0.9c-7.1,1.1-14.5,2.1-22.1,3c-0.5,0.1-1,0.1-1.5,0.2
	c-2.1,0.3-4.4,0.6-6.8,0.8c-4.4,0.5-10.5,1-17.6,1.2c-4.3,0.1-8.6,0.2-12.8,0c-4.6-0.2-10.7-0.5-17.3-1.1c-6.7-0.8-13.3-2-19.6-3.6
	c-13.1-3.4-25.1-8.8-33.7-16.8c-12-10.5-20.2-24.2-24.4-38.8c-0.3-0.9-0.5-1.8-0.7-2.7c0,0,0-0.1,0-0.1c0,0,0-0.1,0-0.1
	c-1.3-5.4-2-11.1-2.7-16.8c-1-8.9-1.9-18.4-1.5-27.7c0.6-13.2,4-25.7,9.9-37.5c0,0,0,0,0,0s0,0,0,0c0.8-1.6,1.5-3.1,2.2-4.5
	c0.2-1.7,0.3-3.6,0.5-5.5c1-10,2.6-19.6,7.3-28.2c3-5.4,5.6-9.9,8.5-15.8c3.1-6.1,6.5-12,10.6-17.7c0.8-2,1.7-4.3,2.9-6.6
	c1.3-2.7,2.8-5.5,4.5-8.4c2.1-3.5,4.2-6.7,6.5-9.8c-2.9-8.7-5-17.4-6.8-26.4c-2.5-11-2.1-21.7,1.6-32.6c0.4-1.3,0.9-2.6,1.4-3.9
	c2.8-7.2,6.4-14.4,10.8-21.3c0,0,0,0,0,0s0,0,0,0c1.4-2.3,2.9-4.7,4.5-7.3c1.3-2.1,2.7-4.4,4.2-6.6c1.4-2.1,2.5-4.2,3.9-6.3
	c1.3-1.9,2.8-3,4.2-5.2c1-1.4,1.8-3,2.6-4.5c0,0,0-0.1,0.1-0.2c0.8-3.8,1.6-7.9,3.5-11.8c1.1-2.4,2.5-4.6,4.1-6.8
	c0,0,0.1-0.1,0.1-0.1s0.1-0.1,0.1-0.1c0.9-1.3,1.8-2.6,2.7-3.9c0.1-0.3,0.2-0.5,0.2-0.8c0.9-3.2,1.6-6.7,2.5-10.3
	c0.4-1.5,0.8-3,1.3-4.5C279.8,312.3,284.3,305.1,292.2,298.8z"/>
<path id="line-20" class="st0" d="M285.7,292.8c5.3-5,11.7-9.3,17.9-13.2c4.3-2.6,8.3-5.1,12.9-7c1.5-0.6,3-1.2,4.6-1.7
	c2.8-0.9,5.5-1.5,7.9-2c3.7-2.1,7.9-4.1,12.6-6.2c1.9-2.6,3.9-5.4,6.3-8.4c5.2-6.5,10.8-13.3,18.4-19.3c0,0,0.2-0.2,0.2-0.2
	s0.2-0.2,0.2-0.2c4.7-3.8,9.8-6.9,15.3-9.3c3.7-1.6,7.3-2.7,11-3.4c0.6-0.1,1.1-0.2,1.7-0.3c2.6-1.8,5.4-3.5,8.4-5.3
	c0.9-0.6,1.9-1.2,2.8-1.8c4.8-3,9.1-6.5,14.2-9.9c1-0.7,2-1.3,3.1-2c9.9-6.4,26.6-16.9,49.3-18.3c5.9-0.8,11.4-1.1,17.1-0.2
	c4.9,0.7,9.8,2.2,14.9,4.6c3.2,1.4,6.3,3.5,9.4,5.2c4.1,2.3,8.7,4.4,12.9,7.2c2.1,1.4,4,2.8,5.8,4.3c2.2,1.9,4,3.9,5.7,6.2
	c0.6,0.4,1.1,0.8,1.7,1.1c1.9,0.7,3.7,1.4,5.6,2.3c2.5-2.2,5.1-4.2,7.9-5.7c0.1,0,0.7-0.5,0.8-0.5c0.1,0.1,0.7-0.5,0.8-0.4
	c0.4-0.2,0.9-0.5,1.3-0.7c4.3-1.7,7.6-4,13.3-6.1c6.8-2.8,12.6-4.4,19.5-4.7c2.6,0.1,4.9-0.1,7.1-0.6c4.5-0.9,8.4-2.8,12.9-4.8
	c2.9-1,5.9-1.9,8.9-2.6l0,0c1.4-0.3,2.7-0.7,3.9-1c1.5-0.3,2.8-0.6,3.8-0.9c0-0.1,1.2-0.2,1.2-0.3s1.2-0.1,1.2-0.2
	c3.7-0.8,7.4-1.3,11.6-1.3c2.6-0.1,5.3,0.6,7.7,0.7c2.8,0.1,4.7,0.3,7.6,0.6c3.5,0.7,7.5,2,11.3,3.7c1,0.5,2.1,0.9,3.1,1.4
	c2,1,3.9,2.1,5.8,3.3c10.4,6.7,17.3,15,22.8,21c1.1,1.2,2.2,2.4,2.9,3.2c9.7,10.1,15.5,20.8,19.6,33.2c0.7,2.2,1.4,4.4,2.1,6.6
	c3.2,10.8,4.3,19.9,4.5,27c0.4,1.7,0.8,3.7,1.2,5.9c1.4,11.9,3.5,28.3-1.8,48.4c-0.3,1.4-0.5,2.4-0.7,5c-0.1,1.7-0.2,4-0.4,7.1
	c-0.1,1.9-0.2,3.9-0.3,6.1c0,0,0,0.3,0,0.3c0,0,0,0.3,0,0.3c-0.4,6.4-1.3,12.1-1.8,16.5c0,0.3-0.1,0.7-0.1,1.1
	c-0.1,0.6-0.2,1.2-0.2,1.8c0.2,6.1,1,16.2-1.4,27.3c-0.6,2.9-1.9,7.7-3,10.8l-2.5,7.9c-8.3,38.5-19.1,74.1-32.4,105.2
	c-0.6,1.5-1.2,2.9-1.9,4.4c-6.8,15.4-14.4,29.9-23.2,44c0,0,0,0,0,0c0,0,0,0,0,0c-7.7,12.3-16.4,23.7-24.1,33.9
	c-0.8,1.1-1.6,2.2-2.5,3.2c-10.1,13.3-23.2,30.6-42.5,45c-1.1,0.8-2.2,1.6-3.3,2.4c-17.9,12.5-38.9,20.8-63.5,25.5
	c-18.5,3.6-36.7,4.8-51.9,5.7c0,0,0,0-0.1,0c-3.2,3.1-6.6,6-10.2,8.6c-7.9,5.7-16.7,10.2-26.2,13.4c-5.7,1.9-12.3,2.8-18.2,4
	c-4.2,0.9-8.1,1.9-12,2.9c-6.6,1.5-12.7,2.5-19.3,2c-2-0.2-4.1-0.5-6.1-0.9c-4.4-0.9-8.4-2.1-12-3.4c-1.5,0.1-2.9,0.1-4.3,0.2
	c-2.3,0-4.5,0.1-6.7,0.3c-3.2,0.1-6.4,0.4-10,0.9c-2.1,0.3-4.2,0.6-6.5,0.9c-7.4,1.1-15,2.2-22.9,3.1c-0.5,0.1-1,0.2-1.6,0.2
	c-2.2,0.3-4.5,0.6-7.1,0.8c-4.5,0.5-10.9,1-18.3,1.2c-4.5,0.1-8.9,0.1-13.3,0c-4.8-0.2-11.1-0.5-17.9-1.2
	c-6.9-0.8-13.8-2.1-20.3-3.8c-13.5-3.5-25.9-9.1-34.9-17.4c-12.6-10.9-21.3-25-25.7-40.2c-0.3-0.9-0.5-1.9-0.8-2.8c0,0,0-0.1,0-0.1
	s0-0.1,0-0.1c-1.4-5.7-2.2-11.5-2.9-17.5c-1.1-9.3-2.1-19.1-1.6-28.8c0.6-13.7,4.1-26.7,10.2-39.1c0,0,0,0,0,0s0,0,0,0
	c0.8-1.6,1.6-3.2,2.3-4.6c0.2-1.8,0.3-3.7,0.5-5.8c1-10.4,2.7-20.4,7.4-29.4c3-5.6,5.7-10.4,8.8-16.5c3.2-6.3,6.8-12.5,11.2-18.4
	c0.8-2.1,1.8-4.4,3-6.9c1.4-2.8,2.9-5.7,4.7-8.7c2.2-3.6,4.4-7,6.8-10.2c-3-9-5.2-18.1-7-27.4c-2.4-11.5-2-22.5,1.7-33.9
	c0.4-1.4,0.9-2.7,1.5-4.1c2.9-7.5,6.6-14.9,11.2-22.2c0,0,0,0,0,0s0,0,0,0c1.5-2.4,3.1-4.9,4.7-7.6c1.4-2.2,2.8-4.5,4.3-6.8
	c1.4-2.2,2.6-4.3,4.1-6.5c1.4-2,2.9-3.2,4.4-5.4c1-1.5,1.9-3.1,2.8-4.7c0-0.1,0-0.1,0.1-0.2c0.8-3.9,1.7-8.1,3.7-12.2
	c1.2-2.5,2.6-4.7,4.2-7.1c0,0,0.1-0.1,0.1-0.2s0.1-0.1,0.1-0.2c0.9-1.4,1.9-2.7,2.8-4c0.1-0.3,0.2-0.6,0.2-0.8
	c0.9-3.3,1.6-7,2.6-10.7c0.4-1.6,0.9-3.2,1.4-4.7C272.9,306.9,277.6,299.3,285.7,292.8z"/>
<path id="line-21" class="st0" d="M279.2,286.7c5.5-5.2,12.1-9.8,18.6-13.8c4.4-2.7,8.6-5.3,13.4-7.3c1.6-0.7,3.2-1.2,4.8-1.7
	c2.9-0.9,5.7-1.6,8.2-2.1c3.9-2.2,8.2-4.3,13.1-6.5c1.9-2.7,4.1-5.6,6.6-8.7c5.4-6.7,11.3-13.8,19.2-20c0,0,0.2-0.2,0.2-0.2
	s0.2-0.2,0.2-0.2c5-3.9,10.2-7.1,16-9.6c3.9-1.6,7.6-2.7,11.4-3.5c0.6-0.1,1.2-0.2,1.7-0.3c2.7-1.9,5.6-3.7,8.7-5.6
	c0.9-0.6,1.9-1.3,2.9-1.9c5-3.1,9.5-6.8,14.7-10.3c1.1-0.7,2.1-1.4,3.2-2c10.2-6.6,27.6-17.5,51.3-18.8c6.1-0.8,11.8-1,17.6-0.1
	c5,0.8,10.1,2.3,15.4,4.7c3.3,1.5,6.5,3.5,9.7,5.3c4.3,2.4,9,4.5,13.3,7.4c2.2,1.4,4.1,2.9,6,4.4c2.3,1.9,4.2,4,5.9,6.4
	c0.6,0.4,1.2,0.8,1.7,1.2c1.9,0.7,3.8,1.5,5.8,2.4c2.6-2.4,5.2-4.5,8.1-6.1c0.1,0,0.7-0.5,0.8-0.5c0.1,0.1,0.7-0.5,0.8-0.5
	c0.4-0.3,0.9-0.5,1.4-0.7c4.4-1.9,7.9-4.3,13.7-6.6c7-2.9,13-4.7,20.2-5.2c2.6,0.1,5-0.2,7.3-0.7c4.6-0.9,8.8-2.9,13.4-4.8
	c3-1,6.2-1.8,9.3-2.6l0,0c1.5-0.3,2.8-0.6,4-0.9c1.6-0.3,3-0.5,4-0.8c0-0.1,1.2-0.1,1.2-0.3c0-0.1,1.2-0.1,1.2-0.2
	c3.9-0.7,7.8-1.2,12.2-1.1c2.6-0.1,5.5,0.7,8,0.8c2.9,0.2,5,0.4,7.9,0.8c3.6,0.8,7.7,2.2,11.6,3.9c1.1,0.5,2.1,1,3.1,1.5
	c2.1,1,4.1,2.2,6,3.4c10.7,7,17.9,15.5,23.6,21.7c1.2,1.3,2.3,2.5,3,3.3c10,10.5,16.2,21.6,20.5,34.5c0.8,2.3,1.5,4.5,2.2,6.8
	c3.3,11.2,4.5,20.7,4.6,28.1c0.4,1.8,0.9,3.8,1.3,6.1c1.6,12.3,3.8,29.4-1.8,50.2c-0.4,1.4-0.5,2.5-0.7,5.2
	c-0.1,1.8-0.2,4.1-0.4,7.4c-0.1,1.9-0.2,4.1-0.3,6.3c0,0,0,0.3,0,0.3c0,0,0,0.3,0,0.3c-0.4,6.7-1.3,12.6-1.9,17.2
	c0,0.4-0.1,0.7-0.1,1.1c-0.1,0.6-0.2,1.3-0.2,1.9c0.3,6.3,1.1,16.8-1.4,28.3c-0.6,3.1-1.9,7.9-3.1,11.2l-2.6,8.2
	c-8.6,40-19.8,76.8-33.5,108.9c-0.6,1.5-1.3,3-2,4.5c-7,16-14.9,30.9-24.1,45.6c0,0,0,0,0,0s0,0,0,0c-8,12.7-17,24.6-25,35.1
	c-0.8,1.1-1.7,2.2-2.5,3.4c-10.4,13.8-24.1,31.8-44.2,46.7c-1.1,0.8-2.2,1.6-3.4,2.4c-18.6,13-40.4,21.6-66,26.5
	c-19.2,3.7-38.2,4.9-53.9,5.9c0,0,0,0-0.1,0c-3.3,3.3-6.9,6.3-10.6,9c-8.2,6-17.3,10.7-27.2,14c-5.9,2-12.7,3-18.8,4.2
	c-4.4,0.9-8.4,1.9-12.5,2.8c-6.9,1.4-13.3,2.3-20.1,1.8c-2.1-0.2-4.2-0.5-6.3-1c-4.5-0.9-8.7-2.2-12.4-3.6c-1.5,0.1-3,0.2-4.5,0.2
	c-2.4,0.1-4.7,0.2-7,0.3c-3.3,0.2-6.7,0.5-10.4,1c-2.1,0.3-4.3,0.6-6.7,1c-7.6,1.2-15.5,2.3-23.7,3.2c-0.5,0.1-1.1,0.2-1.6,0.2
	c-2.2,0.3-4.7,0.6-7.3,0.8c-4.6,0.5-11.2,1-18.9,1.2c-4.6,0.1-9.2,0.1-13.7,0c-5.1-0.3-11.6-0.6-18.5-1.3c-7.2-0.9-14.2-2.2-21-4
	c-14-3.7-26.7-9.5-36.2-17.9c-13.2-11.2-22.3-25.8-27.1-41.6c-0.3-1-0.6-1.9-0.8-2.9c0,0,0-0.1,0-0.1c0,0,0-0.1,0-0.1
	c-1.5-5.9-2.4-12-3.2-18.2c-1.2-9.6-2.2-19.8-1.7-29.8c0.7-14.2,4.2-27.7,10.5-40.6c0,0,0,0,0,0s0,0,0,0c0.8-1.7,1.6-3.3,2.4-4.8
	c0.2-1.9,0.3-3.9,0.5-6c1-10.8,2.7-21.2,7.6-30.6c3.1-5.9,5.9-10.9,9-17.2c3.4-6.6,7.2-12.9,11.7-19c0.9-2.2,1.9-4.6,3.1-7.1
	c1.4-2.9,3.1-5.9,5-9c2.3-3.7,4.7-7.2,7.2-10.6c-3.2-9.4-5.5-18.8-7.3-28.5c-2.4-11.9-2-23.4,1.9-35.1c0.5-1.4,1-2.8,1.5-4.2
	c3-7.8,6.8-15.5,11.5-23c0,0,0,0,0,0c0,0,0,0,0,0c1.5-2.4,3.2-5.1,4.9-7.9c1.4-2.3,2.9-4.7,4.4-7.1c1.4-2.2,2.7-4.5,4.2-6.7
	c1.4-2.1,3-3.4,4.5-5.6c1-1.5,2-3.2,2.9-4.9c0-0.1,0.1-0.1,0.1-0.2c0.9-4.1,1.9-8.4,3.8-12.6c1.2-2.5,2.7-4.9,4.3-7.3
	c0,0,0.1-0.2,0.1-0.2c0,0,0.1-0.2,0.1-0.2c1-1.4,1.9-2.8,2.8-4.2c0.1-0.3,0.2-0.6,0.2-0.9c1-3.4,1.7-7.2,2.7-11.1
	c0.4-1.6,0.9-3.3,1.4-4.8C266,301.5,270.9,293.6,279.2,286.7z"/>
<path id="line-22" class="st0" d="M272.7,280.7c5.7-5.5,12.5-10.2,19.3-14.4c4.6-2.8,8.9-5.4,14-7.5c1.6-0.7,3.3-1.3,5-1.8
	c3-0.9,5.9-1.6,8.5-2.2c4-2.3,8.5-4.5,13.5-6.8c2-2.8,4.2-5.9,6.8-9.1c5.6-7,11.8-14.3,20-20.7c0,0,0.2-0.2,0.2-0.2s0.2-0.2,0.2-0.2
	c5.2-4,10.7-7.3,16.7-9.8c4-1.7,7.9-2.8,11.8-3.6c0.6-0.1,1.2-0.2,1.8-0.3c2.8-2,5.8-3.9,9-5.9c1-0.6,2-1.3,3-2
	c5.1-3.3,9.8-7.1,15.3-10.6c1.1-0.7,2.2-1.4,3.3-2.1c10.6-6.8,28.6-18,53.4-19.3c6.3-0.8,12.2-0.9,18.2,0c5.2,0.8,10.5,2.4,15.9,4.8
	c3.5,1.5,6.7,3.6,10.1,5.4c4.4,2.5,9.2,4.7,13.7,7.7c2.2,1.5,4.3,3,6.2,4.5c2.4,2,4.4,4.1,6.2,6.5c0.6,0.4,1.2,0.8,1.8,1.2
	c2,0.7,3.9,1.6,6,2.6c2.7-2.5,5.4-4.7,8.3-6.5c0.1,0,0.7-0.6,0.8-0.5c0.1,0,0.8-0.6,0.8-0.5c0.5-0.3,0.9-0.5,1.4-0.8
	c4.5-2.1,8.2-4.7,14.1-7c7.1-3.1,13.4-5,20.8-5.7c2.7,0,5.2-0.3,7.6-0.8c4.8-1,9.1-2.9,13.9-4.8c3.2-1,6.5-1.8,9.7-2.5l0,0
	c1.5-0.3,3-0.6,4.2-0.9c1.7-0.3,3.1-0.5,4.2-0.8c0-0.1,1.3-0.1,1.3-0.2c0-0.1,1.3-0.1,1.3-0.2c4.1-0.6,8.2-1,12.7-0.8
	c2.7,0,5.6,0.8,8.3,0.9c3,0.2,5.2,0.5,8.3,1c3.7,0.9,8,2.4,12,4.2c1.1,0.5,2.2,1,3.2,1.6c2.1,1.1,4.2,2.3,6.2,3.6
	c11,7.3,18.5,16.1,24.3,22.4c1.2,1.4,2.4,2.6,3.1,3.4c10.4,10.8,16.9,22.4,21.4,35.7c0.8,2.4,1.6,4.7,2.3,7.1
	c3.4,11.6,4.6,21.5,4.8,29.1c0.4,1.8,0.9,3.9,1.3,6.3c1.7,12.7,4,30.5-1.8,52.1c-0.4,1.4-0.6,2.6-0.7,5.4c-0.1,1.9-0.2,4.3-0.4,7.7
	c-0.1,2-0.2,4.2-0.3,6.6c0,0,0,0.3,0,0.3s0,0.3,0,0.3c-0.5,7-1.4,13.1-2,17.8c0,0.4-0.1,0.8-0.2,1.2c-0.1,0.7-0.2,1.3-0.2,1.9
	c0.3,6.5,1.1,17.3-1.5,29.4c-0.6,3.2-2,8.2-3.2,11.6l-2.7,8.5c-8.9,41.4-20.5,79.5-34.7,112.6c-0.7,1.6-1.3,3.1-2,4.7
	c-7.3,16.5-15.4,32-24.9,47.1c0,0,0,0,0,0c0,0,0,0,0,0c-8.3,13.2-17.6,25.4-25.8,36.3c-0.9,1.2-1.8,2.3-2.6,3.5
	c-10.8,14.3-25,33-45.9,48.5c-1.2,0.9-2.3,1.7-3.5,2.5c-19.3,13.5-41.9,22.4-68.5,27.6c-20,3.9-39.7,5.1-55.9,6.1c0,0-0.1,0-0.1,0
	c-3.4,3.4-7.1,6.6-11,9.4c-8.5,6.2-17.9,11.2-28.2,14.7c-6.1,2-13.1,3.1-19.4,4.3c-4.5,0.9-8.7,1.9-13,2.8
	c-7.2,1.4-13.9,2.2-20.9,1.6c-2.2-0.2-4.4-0.6-6.5-1c-4.7-1-9-2.3-12.8-3.7c-1.6,0.1-3.1,0.2-4.6,0.3c-2.4,0.1-4.8,0.2-7.2,0.4
	c-3.5,0.2-6.9,0.5-10.7,1c-2.2,0.3-4.5,0.6-6.9,1c-7.8,1.2-16,2.4-24.5,3.3c-0.5,0.1-1.1,0.2-1.7,0.2c-2.3,0.3-4.8,0.6-7.5,0.9
	c-4.7,0.5-11.5,1-19.5,1.2c-4.8,0.1-9.5,0.1-14.2,0c-5.3-0.3-12-0.6-19.1-1.4c-7.4-0.9-14.7-2.3-21.7-4.1
	c-14.4-3.8-27.6-9.8-37.4-18.5c-13.8-11.6-23.4-26.6-28.5-43c-0.3-1-0.6-2-0.9-3c0,0,0-0.1,0-0.1s0-0.1,0-0.1
	c-1.6-6.1-2.6-12.4-3.5-18.8c-1.3-10-2.3-20.5-1.8-30.9c0.7-14.7,4.3-28.7,10.7-42.1c0,0,0,0,0,0c0,0,0,0,0,0c0.8-1.8,1.7-3.4,2.4-5
	c0.2-1.9,0.3-4,0.5-6.2c1-11.2,2.8-22.1,7.7-31.8c3.1-6.1,6-11.4,9.3-17.9c3.5-6.8,7.5-13.4,12.2-19.7c0.9-2.3,2-4.7,3.3-7.4
	c1.5-3,3.2-6.1,5.2-9.3c2.4-3.9,4.9-7.5,7.5-10.9c-3.4-9.7-5.8-19.5-7.6-29.6c-2.4-12.3-1.9-24.2,2.1-36.4c0.5-1.5,1-2.9,1.6-4.4
	c3.1-8,7-16,11.9-23.8c0,0,0,0,0,0c0,0,0,0,0,0c1.6-2.5,3.3-5.3,5-8.1c1.5-2.4,3-4.8,4.6-7.3c1.5-2.3,2.8-4.6,4.4-6.9
	c1.5-2.1,3.1-3.5,4.6-5.9c1.1-1.6,2.1-3.3,3-5c0-0.1,0.1-0.1,0.1-0.2c0.9-4.2,2-8.7,4-13.1c1.2-2.6,2.8-5.1,4.4-7.6
	c0,0,0.1-0.2,0.1-0.2s0.1-0.2,0.1-0.2c1-1.5,2-2.9,2.9-4.3c0.1-0.3,0.2-0.6,0.2-0.9c1-3.5,1.7-7.4,2.8-11.5c0.4-1.7,0.9-3.4,1.5-5
	C259.1,296.1,264.2,287.9,272.7,280.7z"/>
<path id="line-23" class="st0" d="M266.2,274.6c5.8-5.7,12.9-10.7,19.9-15c4.7-2.9,9.3-5.6,14.5-7.8c1.7-0.7,3.4-1.3,5.1-1.9
	c3.1-1,6.1-1.7,8.8-2.3c4.1-2.4,8.7-4.7,14-7.1c2-3,4.4-6.1,7-9.4c5.8-7.2,12.3-14.8,20.9-21.4c0,0,0.3-0.2,0.3-0.2
	c0,0,0.3-0.2,0.3-0.2c5.4-4.1,11.1-7.5,17.3-10.1c4.1-1.7,8.2-2.9,12.3-3.7c0.6-0.1,1.2-0.2,1.9-0.3c2.9-2.1,6-4.1,9.3-6.2
	c1-0.7,2.1-1.4,3.1-2.1c5.3-3.4,10.2-7.3,15.9-11c1.1-0.7,2.3-1.5,3.5-2.2c10.9-7,29.7-18.6,55.4-19.9c6.5-0.7,12.6-0.8,18.8,0.1
	c5.4,0.9,10.8,2.4,16.4,5c3.6,1.5,7,3.7,10.4,5.5c4.6,2.5,9.5,4.9,14.1,7.9c2.3,1.5,4.4,3,6.3,4.7c2.5,2.1,4.6,4.2,6.4,6.7
	c0.6,0.4,1.2,0.9,1.8,1.3c2,0.8,4.1,1.7,6.1,2.7c2.7-2.6,5.5-5,8.5-6.9c0.1,0,0.8-0.6,0.8-0.6c0.1,0,0.8-0.6,0.8-0.5
	c0.5-0.3,1-0.6,1.4-0.9c4.6-2.2,8.5-5,14.5-7.5c7.3-3.3,13.8-5.3,21.5-6.1c2.8,0,5.3-0.4,7.8-0.9c5-1,9.5-2.9,14.5-4.8
	c3.3-1,6.7-1.8,10.1-2.5l0,0c1.6-0.3,3.1-0.6,4.4-0.9c1.8-0.2,3.2-0.5,4.3-0.7c0-0.1,1.4-0.1,1.4-0.2s1.3-0.1,1.3-0.2
	c4.3-0.6,8.6-0.9,13.3-0.6c2.8,0,5.8,0.8,8.5,1.1c3.1,0.3,5.4,0.7,8.6,1.3c3.9,1,8.2,2.6,12.3,4.5c1.1,0.5,2.3,1.1,3.3,1.7
	c2.2,1.1,4.3,2.4,6.3,3.7c11.4,7.5,19.1,16.6,25,23.1c1.3,1.4,2.5,2.7,3.3,3.6c10.8,11.2,17.6,23.2,22.3,37c0.8,2.4,1.6,4.9,2.4,7.3
	c3.6,12.1,4.8,22.4,4.9,30.2c0.5,1.9,1,4.1,1.4,6.5c1.9,13,4.3,31.5-1.8,54c-0.4,1.5-0.6,2.6-0.8,5.6c-0.1,1.9-0.2,4.4-0.4,8
	c-0.1,2.1-0.2,4.4-0.4,6.8c0,0,0,0.3,0,0.3c0,0,0,0.3,0,0.3c-0.5,7.2-1.4,13.6-2,18.5c-0.1,0.4-0.1,0.8-0.2,1.2
	c-0.1,0.7-0.2,1.4-0.3,2c0.3,6.7,1.1,17.9-1.6,30.5c-0.7,3.4-2.1,8.4-3.3,12.1l-2.8,8.8c-9.2,42.8-21.2,82.1-35.8,116.4
	c-0.7,1.6-1.4,3.2-2.1,4.8c-7.5,17.1-15.9,33-25.7,48.7c0,0,0,0,0,0c0,0,0,0,0,0c-8.6,13.6-18.1,26.3-26.7,37.6
	c-0.9,1.2-1.8,2.4-2.7,3.6c-11.2,14.8-25.9,34.1-47.6,50.2c-1.2,0.9-2.4,1.8-3.6,2.6c-20,14-43.4,23.2-71,28.6
	c-20.7,4-41.2,5.3-58,6.3c0,0-0.1,0-0.1,0c-3.5,3.6-7.3,6.9-11.3,9.9c-8.8,6.5-18.5,11.7-29.2,15.3c-6.3,2.1-13.4,3.3-20,4.5
	c-4.7,0.9-9.1,1.9-13.4,2.8c-7.5,1.3-14.4,2-21.7,1.3c-2.3-0.3-4.5-0.6-6.7-1.1c-4.8-1-9.3-2.4-13.2-3.9c-1.6,0.1-3.2,0.2-4.8,0.3
	c-2.5,0.1-5,0.3-7.4,0.5c-3.6,0.2-7.1,0.6-11,1.1c-2.3,0.3-4.6,0.7-7.1,1.1c-8.1,1.2-16.5,2.4-25.2,3.4c-0.6,0.1-1.1,0.2-1.7,0.2
	c-2.4,0.3-5,0.6-7.8,0.9c-4.9,0.5-11.9,1-20.1,1.2c-5,0.1-9.8,0.1-14.6-0.1c-5.6-0.3-12.5-0.7-19.7-1.5c-7.6-1-15.2-2.4-22.3-4.3
	c-14.9-4-28.4-10.1-38.6-19c-14.3-11.9-24.5-27.4-29.9-44.4c-0.3-1-0.6-2.1-0.9-3.1c0,0,0-0.1,0-0.1s0-0.1,0-0.1
	c-1.7-6.3-2.8-12.8-3.7-19.5c-1.4-10.3-2.4-21.3-1.9-32c0.7-15.2,4.4-29.8,11-43.6c0,0,0,0,0,0s0,0,0,0c0.9-1.8,1.7-3.6,2.5-5.2
	c0.1-2,0.3-4.2,0.5-6.4c1-11.6,2.9-22.9,7.9-33c3.2-6.4,6.2-11.9,9.6-18.6c3.7-7,7.8-13.8,12.8-20.4c0.9-2.3,2.1-4.9,3.4-7.6
	c1.5-3.1,3.3-6.3,5.4-9.7c2.4-4,5.1-7.7,7.8-11.3c-3.6-10-6-20.2-7.8-30.6c-2.4-12.7-1.8-25.1,2.2-37.6c0.5-1.5,1-3,1.6-4.5
	c3.2-8.3,7.3-16.6,12.3-24.6c0,0,0,0,0,0s0,0,0,0c1.6-2.6,3.4-5.4,5.2-8.4c1.5-2.5,3.1-5,4.7-7.6c1.5-2.4,2.9-4.8,4.5-7.2
	c1.5-2.2,3.2-3.7,4.8-6.1c1.1-1.7,2.1-3.4,3.2-5.2c0-0.1,0.1-0.1,0.1-0.2c0.9-4.3,2.1-9,4.2-13.5c1.3-2.7,2.8-5.3,4.6-7.9
	c0,0,0.1-0.2,0.1-0.2s0.1-0.2,0.1-0.2c1-1.5,2-3,3-4.5c0.1-0.3,0.2-0.6,0.3-0.9c1-3.7,1.8-7.7,2.9-11.9c0.5-1.8,1-3.5,1.6-5.2
	C252.2,290.7,257.5,282.1,266.2,274.6z"/>
<path id="line-24" class="st0" d="M259.7,268.6c6-5.9,13.2-11.1,20.6-15.6c4.9-3,9.6-5.8,15-8c1.8-0.7,3.5-1.4,5.3-1.9
	c3.2-1,6.3-1.8,9.1-2.4c4.3-2.5,9-5,14.5-7.5c2.1-3.1,4.5-6.3,7.2-9.8c6-7.5,12.7-15.3,21.7-22.1c0,0,0.3-0.2,0.3-0.2
	c0,0,0.3-0.2,0.3-0.2c5.6-4.2,11.6-7.8,18-10.4c4.3-1.8,8.5-3,12.7-3.9c0.6-0.1,1.3-0.2,1.9-0.4c3-2.2,6.2-4.3,9.6-6.5
	c1-0.7,2.1-1.4,3.2-2.2c5.4-3.6,10.6-7.6,16.4-11.4c1.2-0.8,2.4-1.5,3.6-2.3c11.3-7.2,30.7-19.2,57.4-20.4c6.6-0.7,13-0.8,19.4,0.2
	c5.6,0.9,11.1,2.5,16.9,5.1c3.7,1.6,7.2,3.7,10.8,5.7c4.7,2.6,9.8,5,14.5,8.2c2.4,1.6,4.5,3.1,6.5,4.8c2.6,2.1,4.7,4.3,6.7,6.8
	c0.6,0.5,1.3,0.9,1.9,1.4c2.1,0.8,4.2,1.7,6.3,2.8c2.8-2.7,5.6-5.2,8.7-7.2c0.1,0,0.8-0.6,0.9-0.6c0.1,0,0.8-0.6,0.9-0.6
	c0.5-0.3,1-0.6,1.5-0.9c4.7-2.4,8.8-5.4,14.9-8c7.5-3.4,14.2-5.6,22.1-6.6c2.8-0.1,5.5-0.5,8-1c5.1-1.1,9.9-3,15-4.8
	c3.4-1,7-1.7,10.5-2.4l0,0c1.7-0.3,3.2-0.6,4.6-0.8c1.8-0.2,3.4-0.4,4.5-0.7c0-0.1,1.4-0.1,1.4-0.2c0-0.1,1.4,0,1.4-0.2
	c4.5-0.5,9-0.7,13.9-0.4c2.9,0.1,6,0.9,8.8,1.2c3.2,0.4,5.7,0.8,9,1.5c4,1.1,8.5,2.7,12.7,4.7c1.2,0.6,2.3,1.1,3.4,1.7
	c2.2,1.2,4.4,2.5,6.5,3.9c11.7,7.8,19.7,17.2,25.8,23.8c1.3,1.5,2.6,2.8,3.4,3.7c11.2,11.6,18.3,24,23.2,38.2
	c0.9,2.5,1.7,5.1,2.4,7.6c3.7,12.5,4.9,23.2,5.1,31.2c0.5,2,1,4.2,1.5,6.8c2,13.4,4.6,32.6-1.8,55.9c-0.4,1.5-0.6,2.7-0.8,5.8
	c-0.1,2-0.3,4.6-0.4,8.2c-0.1,2.1-0.2,4.5-0.4,7c0,0,0,0.3,0,0.4s0,0.3,0,0.4c-0.5,7.5-1.4,14.1-2.1,19.1c-0.1,0.4-0.1,0.8-0.2,1.2
	c-0.1,0.7-0.2,1.4-0.3,2.1c0.3,6.9,1.2,18.5-1.6,31.5c-0.7,3.5-2.1,8.7-3.4,12.5l-2.9,9.2c-9.6,44.2-21.9,84.8-37,120.1
	c-0.7,1.7-1.4,3.3-2.2,5c-7.7,17.6-16.4,34.1-26.6,50.3c0,0,0,0,0,0c0,0,0,0,0,0c-8.8,14.1-18.7,27.1-27.6,38.8
	c-0.9,1.2-1.9,2.5-2.8,3.7c-11.5,15.2-26.8,35.3-49.3,52c-1.2,0.9-2.5,1.8-3.8,2.7c-20.7,14.4-44.9,24-73.5,29.6
	c-21.5,4.2-42.6,5.5-60,6.6c0,0-0.1,0-0.1,0c-3.6,3.7-7.5,7.2-11.7,10.3c-9.1,6.8-19.2,12.2-30.2,16c-6.5,2.2-13.8,3.4-20.6,4.7
	c-4.8,0.9-9.4,1.9-13.9,2.7c-7.8,1.3-15,1.9-22.5,1.1c-2.3-0.3-4.7-0.7-6.9-1.2c-5-1.1-9.6-2.5-13.6-4c-1.6,0.1-3.3,0.2-4.9,0.4
	c-2.6,0.1-5.1,0.3-7.7,0.6c-3.7,0.3-7.4,0.7-11.4,1.2c-2.4,0.3-4.8,0.7-7.4,1.1c-8.3,1.3-17,2.5-26,3.5c-0.6,0.1-1.2,0.2-1.8,0.2
	c-2.5,0.3-5.1,0.6-8,0.9c-5,0.5-12.2,1-20.8,1.2c-5.1,0.1-10.1,0.1-15.1-0.1c-5.8-0.3-12.9-0.7-20.3-1.6c-7.9-1-15.7-2.5-23-4.5
	c-15.3-4.1-29.2-10.5-39.8-19.6c-14.9-12.2-25.5-28.3-31.2-45.8c-0.4-1.1-0.7-2.2-1-3.3c0,0,0-0.1,0-0.1c0,0,0-0.1,0-0.1
	c-1.8-6.5-3-13.3-4-20.2c-1.5-10.7-2.5-22-2-33.1c0.7-15.7,4.6-30.8,11.3-45.1c0,0,0,0,0,0c0,0,0,0,0,0c0.9-1.9,1.7-3.7,2.6-5.4
	c0.1-2.1,0.3-4.3,0.5-6.7c1-12,2.9-23.7,8-34.2c3.2-6.6,6.3-12.4,9.8-19.3c3.8-7.3,8.1-14.3,13.3-21c1-2.4,2.1-5.1,3.5-7.9
	c1.6-3.2,3.4-6.5,5.6-10c2.5-4.1,5.3-8,8.1-11.6c-3.7-10.4-6.3-20.9-8.1-31.7c-2.4-13.1-1.8-25.9,2.4-38.8c0.5-1.6,1-3.1,1.6-4.7
	c3.3-8.6,7.5-17.1,12.6-25.4c0,0,0,0,0,0c0,0,0,0,0,0c1.7-2.7,3.5-5.6,5.4-8.7c1.6-2.5,3.2-5.2,4.9-7.8c1.6-2.5,3-4.9,4.7-7.4
	c1.5-2.3,3.2-3.9,4.9-6.3c1.1-1.7,2.2-3.5,3.3-5.3c0-0.1,0.1-0.1,0.1-0.2c1-4.5,2.2-9.3,4.4-13.9c1.3-2.8,2.9-5.5,4.7-8.2
	c0,0,0.1-0.2,0.1-0.2c0,0,0.1-0.2,0.1-0.2c1-1.6,2.1-3.1,3.1-4.6c0.1-0.3,0.2-0.6,0.3-1c1-3.8,1.9-7.9,3-12.2c0.5-1.8,1-3.6,1.6-5.3
	C245.3,285.3,250.8,276.4,259.7,268.6z"/>
<path id="line-25" class="st0" d="M253.2,262.5c6.2-6.2,13.6-11.6,21.2-16.2c5.1-3.1,10-6,15.5-8.2c1.8-0.7,3.7-1.4,5.5-2
	c3.4-1.1,6.5-1.9,9.4-2.5c4.4-2.6,9.3-5.2,15-7.8c2.2-3.2,4.6-6.6,7.4-10.1c6.1-7.7,13.2-15.7,22.5-22.8c0,0,0.3-0.2,0.3-0.2
	s0.3-0.2,0.3-0.2c5.9-4.4,12-8,18.7-10.7c4.4-1.8,8.8-3.1,13.1-4c0.7-0.1,1.3-0.3,2-0.4c3.1-2.3,6.4-4.5,9.9-6.8
	c1.1-0.7,2.2-1.5,3.3-2.3c5.6-3.7,10.9-7.9,17-11.8c1.2-0.8,2.5-1.6,3.7-2.3c11.6-7.4,31.7-19.7,59.4-20.9
	c6.8-0.7,13.4-0.7,19.9,0.3c5.7,0.9,11.5,2.6,17.4,5.2c3.8,1.6,7.4,3.8,11.1,5.8c4.9,2.7,10.1,5.2,14.9,8.4c2.4,1.6,4.6,3.2,6.7,4.9
	c2.7,2.2,4.9,4.5,6.9,7c0.7,0.5,1.3,0.9,1.9,1.4c2.1,0.8,4.3,1.8,6.5,2.9c2.8-2.9,5.8-5.5,8.9-7.6c0.1,0,0.8-0.7,0.9-0.6
	c0.1,0,0.8-0.7,0.9-0.6c0.5-0.3,1-0.7,1.5-1c4.8-2.6,9.1-5.7,15.3-8.4c7.7-3.6,14.7-5.9,22.8-7c2.9-0.1,5.6-0.6,8.3-1.1
	c5.3-1.1,10.2-3,15.6-4.8c3.6-1,7.2-1.7,10.9-2.4l0,0c1.7-0.3,3.3-0.5,4.8-0.8c1.9-0.2,3.5-0.4,4.7-0.7c0-0.1,1.5-0.1,1.5-0.2
	c0-0.1,1.5,0,1.5-0.1c4.7-0.4,9.4-0.6,14.4-0.2c3,0.1,6.2,1,9.1,1.3c3.3,0.4,5.9,1,9.3,1.7c4.2,1.2,8.7,2.9,13,5
	c1.2,0.6,2.4,1.2,3.5,1.8c2.3,1.2,4.5,2.6,6.7,4c12.1,8.1,20.3,17.7,26.5,24.5c1.4,1.5,2.6,2.9,3.5,3.8c11.5,11.9,19,24.8,24.1,39.5
	c0.9,2.6,1.8,5.2,2.5,7.9c3.8,13,5.1,24,5.3,32.3c0.5,2,1.1,4.4,1.6,7c2.2,13.8,4.8,33.7-1.8,57.8c-0.4,1.6-0.6,2.8-0.8,6
	c-0.1,2-0.3,4.7-0.4,8.5c-0.1,2.2-0.2,4.7-0.4,7.3c0,0,0,0.4,0,0.4c0,0,0,0.4,0,0.4c-0.5,7.8-1.5,14.6-2.2,19.8
	c-0.1,0.4-0.1,0.8-0.2,1.3c-0.1,0.7-0.2,1.5-0.3,2.1c0.3,7.1,1.2,19.1-1.7,32.6c-0.7,3.7-2.2,9-3.5,12.9l-3,9.5
	c-9.9,45.6-22.6,87.5-38.2,123.8c-0.7,1.7-1.5,3.4-2.2,5.1c-8,18.2-17,35.1-27.4,51.8c0,0,0,0,0,0s0,0,0,0
	c-9.1,14.5-19.3,28-28.4,40c-1,1.3-1.9,2.5-2.9,3.8c-11.9,15.7-27.6,36.5-51,53.8c-1.3,1-2.6,1.9-3.9,2.8
	c-21.4,14.9-46.4,24.8-76,30.6c-22.2,4.3-44.1,5.7-62.1,6.8c0,0-0.1,0-0.1,0c-3.7,3.9-7.8,7.5-12,10.7c-9.3,7.1-19.8,12.7-31.2,16.6
	c-6.7,2.3-14.2,3.6-21.2,4.8c-5,0.9-9.7,1.9-14.4,2.7c-8.1,1.2-15.6,1.8-23.3,0.9c-2.4-0.3-4.8-0.7-7.1-1.2c-5.1-1.1-9.9-2.6-14-4.1
	c-1.7,0.1-3.4,0.3-5.1,0.4c-2.7,0.2-5.3,0.4-7.9,0.6c-3.8,0.3-7.6,0.7-11.7,1.3c-2.4,0.3-4.9,0.7-7.6,1.1
	c-8.6,1.3-17.5,2.6-26.8,3.6c-0.6,0.1-1.2,0.2-1.8,0.3c-2.5,0.3-5.3,0.6-8.3,0.9c-5.1,0.5-12.6,1.1-21.4,1.2
	c-5.3,0.1-10.4,0.1-15.5-0.1c-6.1-0.3-13.4-0.8-20.9-1.6c-8.1-1.1-16.1-2.6-23.7-4.6c-15.7-4.2-30.1-10.8-41-20.2
	c-15.5-12.6-26.6-29.1-32.6-47.2c-0.4-1.1-0.7-2.2-1.1-3.4c0,0,0-0.1,0-0.1c0,0,0-0.1,0-0.1c-1.9-6.8-3.2-13.7-4.3-20.9
	c-1.6-11-2.6-22.7-2.1-34.2c0.8-16.2,4.7-31.8,11.6-46.7c0,0,0,0,0,0c0,0,0,0,0,0c0.9-2,1.8-3.8,2.6-5.6c0.1-2.1,0.3-4.5,0.5-6.9
	c1-12.4,3-24.5,8.1-35.4c3.3-6.8,6.4-12.9,10.1-20c4-7.5,8.5-14.7,13.8-21.7c1-2.5,2.2-5.2,3.7-8.1c1.6-3.3,3.6-6.7,5.8-10.3
	c2.6-4.2,5.5-8.2,8.5-12c-3.9-10.7-6.6-21.6-8.4-32.7c-2.4-13.5-1.7-26.7,2.6-40.1c0.5-1.6,1.1-3.2,1.7-4.8
	c3.3-8.9,7.7-17.7,13-26.2c0,0,0,0,0,0c0,0,0,0,0,0c1.7-2.8,3.6-5.8,5.5-9c1.6-2.6,3.3-5.3,5-8.1c1.6-2.5,3.1-5.1,4.8-7.6
	c1.6-2.3,3.3-4,5-6.6c1.2-1.8,2.3-3.6,3.4-5.5c0-0.1,0.1-0.1,0.1-0.2c1-4.6,2.3-9.5,4.5-14.4c1.3-2.9,3-5.6,4.8-8.4
	c0,0,0.1-0.2,0.1-0.2c0,0,0.1-0.2,0.1-0.2c1.1-1.6,2.1-3.2,3.2-4.8c0.1-0.3,0.2-0.7,0.3-1c1-3.9,1.9-8.2,3.1-12.6
	c0.5-1.9,1.1-3.7,1.7-5.5C238.4,279.9,244.1,270.6,253.2,262.5z"/>
<path id="line-26" class="st0" d="M246.7,256.4c6.4-6.4,14-12,21.9-16.8c5.2-3.2,10.3-6.1,16.1-8.5c1.9-0.8,3.8-1.5,5.7-2.1
	c3.5-1.1,6.7-1.9,9.7-2.6c4.5-2.7,9.6-5.4,15.5-8.1c2.2-3.3,4.8-6.8,7.7-10.5c6.3-8,13.7-16.2,23.4-23.4c0,0,0.3-0.2,0.3-0.2
	c0,0,0.3-0.2,0.3-0.2c6.1-4.5,12.5-8.2,19.3-11c4.6-1.9,9-3.2,13.6-4.1c0.7-0.1,1.4-0.3,2.1-0.4c3.2-2.4,6.6-4.7,10.2-7.1
	c1.1-0.8,2.3-1.6,3.4-2.3c5.8-3.8,11.3-8.1,17.6-12.2c1.3-0.8,2.5-1.6,3.8-2.4c12-7.5,32.8-20.3,61.5-21.4c7-0.7,13.7-0.6,20.5,0.5
	c5.9,1,11.8,2.7,17.9,5.3c3.9,1.6,7.7,3.8,11.5,5.9c5,2.7,10.3,5.3,15.4,8.7c2.5,1.6,4.8,3.3,6.9,5.1c2.7,2.2,5.1,4.6,7.2,7.2
	c0.7,0.5,1.3,1,1.9,1.5c2.2,0.9,4.4,1.9,6.6,3c2.9-3,5.9-5.7,9.1-8c0,0,0.8-0.7,0.9-0.7c0,0,0.9-0.7,0.9-0.6c0.5-0.4,1-0.7,1.6-1
	c5-2.8,9.4-6,15.7-8.9c7.8-3.7,15.1-6.2,23.4-7.5c3-0.2,5.8-0.7,8.5-1.2c5.5-1.2,10.6-3.1,16.1-4.8c3.7-1,7.5-1.7,11.2-2.3l0,0
	c1.8-0.3,3.5-0.5,4.9-0.7c2-0.2,3.7-0.4,4.9-0.6c0-0.1,1.5-0.1,1.5-0.2s1.5,0,1.5-0.1c4.9-0.4,9.8-0.5,15,0c3.1,0.2,6.4,1.1,9.4,1.5
	c3.5,0.5,6.2,1.1,9.7,1.9c4.3,1.3,9,3.1,13.4,5.2c1.2,0.6,2.4,1.2,3.6,1.9c2.4,1.3,4.6,2.7,6.8,4.1c12.4,8.4,20.9,18.3,27.2,25.2
	c1.4,1.6,2.7,3,3.6,3.9c11.9,12.3,19.7,25.6,25,40.7c1,2.7,1.8,5.4,2.6,8.1c4,13.4,5.2,24.8,5.4,33.4c0.5,2.1,1.1,4.5,1.7,7.2
	c2.3,14.2,5.1,34.8-1.8,59.7c-0.4,1.6-0.7,2.9-0.9,6.2c-0.1,2.1-0.3,4.9-0.4,8.8c-0.1,2.3-0.2,4.8-0.4,7.5c0,0,0,0.4,0,0.4
	s0,0.4,0,0.4c-0.5,8-1.5,15.1-2.3,20.4c-0.1,0.4-0.1,0.9-0.2,1.3c-0.1,0.8-0.2,1.5-0.3,2.2c0.3,7.3,1.2,19.7-1.7,33.7
	c-0.8,3.8-2.2,9.2-3.6,13.3l-3.1,9.8c-10.2,47.1-23.3,90.1-39.3,127.6c-0.8,1.8-1.5,3.5-2.3,5.3c-8.2,18.7-17.5,36.2-28.2,53.4
	c0,0,0,0,0,0.1c0,0,0,0,0,0.1c-9.4,15-19.9,28.8-29.3,41.2c-1,1.3-2,2.6-3,3.9c-12.3,16.2-28.5,37.7-52.7,55.5c-1.3,1-2.7,2-4,2.9
	c-22,15.4-47.9,25.6-78.5,31.6c-22.9,4.5-45.6,5.9-64.1,7c0,0-0.1,0-0.1,0c-3.8,4.1-8,7.8-12.4,11.2c-9.6,7.4-20.4,13.3-32.2,17.3
	c-6.9,2.3-14.6,3.7-21.9,5c-5.1,0.9-10,1.9-14.9,2.7c-8.4,1.2-16.2,1.6-24,0.7c-2.5-0.3-4.9-0.8-7.3-1.3c-5.3-1.2-10.1-2.7-14.4-4.3
	c-1.7,0.2-3.5,0.3-5.2,0.5c-2.7,0.2-5.4,0.4-8.1,0.7c-3.9,0.3-7.8,0.8-12.1,1.4c-2.5,0.4-5.1,0.8-7.8,1.2c-8.8,1.3-18,2.7-27.5,3.7
	c-0.6,0.1-1.2,0.2-1.9,0.3c-2.6,0.3-5.5,0.7-8.5,0.9c-5.2,0.5-12.9,1.1-22,1.2c-5.4,0.1-10.7,0.1-16-0.1c-6.3-0.3-13.8-0.8-21.5-1.7
	c-8.4-1.1-16.6-2.7-24.4-4.8c-16.2-4.4-30.9-11.2-42.3-20.7c-16.1-12.9-27.6-29.9-34-48.6c-0.4-1.1-0.8-2.3-1.1-3.5c0,0,0-0.1,0-0.1
	s0-0.1,0-0.1c-2.1-7-3.4-14.2-4.5-21.6c-1.7-11.4-2.7-23.4-2.2-35.3c0.8-16.7,4.8-32.8,11.8-48.2c0,0,0,0,0,0c0,0,0,0,0,0
	c0.9-2,1.8-4,2.7-5.8c0.1-2.2,0.3-4.6,0.4-7.1c1-12.9,3.1-25.3,8.3-36.6c3.3-7.1,6.6-13.4,10.4-20.7c4.1-7.7,8.8-15.2,14.4-22.3
	c1-2.6,2.3-5.4,3.8-8.4c1.7-3.4,3.7-6.9,6-10.6c2.7-4.4,5.7-8.5,8.8-12.4c-4.1-11.1-6.8-22.2-8.7-33.8c-2.4-13.9-1.6-27.6,2.7-41.3
	c0.5-1.7,1.1-3.3,1.7-5c3.4-9.2,7.9-18.2,13.4-27c0,0,0,0,0,0s0,0,0,0c1.8-2.8,3.7-6,5.7-9.2c1.7-2.7,3.4-5.5,5.2-8.3
	c1.7-2.6,3.2-5.2,5-7.9c1.6-2.4,3.4-4.2,5.1-6.8c1.2-1.8,2.4-3.7,3.5-5.6c0-0.1,0.1-0.1,0.1-0.2c1.1-4.8,2.4-9.8,4.7-14.8
	c1.4-3,3.1-5.8,4.9-8.7c0,0,0.1-0.2,0.1-0.2c0,0,0.1-0.2,0.1-0.2c1.1-1.7,2.2-3.3,3.3-4.9c0.1-0.3,0.2-0.7,0.3-1c1-4,2-8.4,3.3-13
	c0.5-1.9,1.1-3.8,1.8-5.7C231.5,274.5,237.4,264.9,246.7,256.4z"/>
<path id="line-27" class="st0" d="M240.2,250.4c6.6-6.7,14.4-12.5,22.5-17.4c5.4-3.3,10.7-6.3,16.6-8.7c2-0.8,3.9-1.5,5.9-2.1
	c3.6-1.1,6.9-2,10.1-2.7c4.6-2.8,9.9-5.6,15.9-8.4c2.3-3.4,4.9-7.1,7.9-10.8c6.5-8.2,14.1-16.7,24.2-24.1c0,0,0.3-0.2,0.3-0.2
	s0.3-0.2,0.3-0.2c6.3-4.6,12.9-8.4,20-11.3c4.7-1.9,9.3-3.3,14-4.2c0.7-0.1,1.4-0.3,2.1-0.4c3.3-2.4,6.8-4.9,10.5-7.4
	c1.2-0.8,2.3-1.6,3.5-2.4c5.9-4,11.6-8.4,18.1-12.6c1.3-0.8,2.6-1.7,4-2.5c12.3-7.7,33.8-20.9,63.5-21.9c7.2-0.6,14.1-0.6,21.1,0.6
	c6.1,1,12.2,2.8,18.4,5.4c4,1.7,7.9,3.9,11.8,6c5.1,2.8,10.6,5.5,15.8,8.9c2.5,1.7,4.9,3.4,7.1,5.2c2.8,2.3,5.2,4.7,7.4,7.3
	c0.7,0.5,1.3,1,2,1.5c2.2,0.9,4.5,1.9,6.8,3.1c3-3.1,6-6,9.3-8.4c0,0,0.9-0.8,0.9-0.7c0,0,0.9-0.7,0.9-0.7c0.5-0.4,1.1-0.8,1.6-1.1
	c5.1-3,9.7-6.4,16.2-9.4c8-3.9,15.5-6.6,24-7.9c3-0.3,5.9-0.7,8.7-1.4c5.6-1.2,10.9-3.1,16.6-4.8c3.8-0.9,7.7-1.7,11.6-2.2l0,0
	c1.9-0.3,3.6-0.5,5.1-0.7c2.1-0.2,3.8-0.4,5.1-0.6c0-0.1,1.6-0.1,1.6-0.2c0-0.1,1.6,0,1.6-0.1c5.1-0.3,10.2-0.3,15.6,0.3
	c3.2,0.2,6.5,1.2,9.6,1.6c3.6,0.6,6.4,1.2,10,2.1c4.4,1.4,9.2,3.2,13.8,5.5c1.3,0.6,2.5,1.3,3.7,1.9c2.4,1.3,4.7,2.8,7,4.3
	c12.8,8.7,21.5,18.8,28,25.9c1.5,1.6,2.8,3.1,3.7,4.1c12.3,12.7,20.4,26.4,25.9,42c1,2.8,1.9,5.6,2.7,8.4
	c4.1,13.8,5.4,25.6,5.6,34.4c0.6,2.1,1.2,4.6,1.7,7.5c2.5,14.6,5.3,35.8-1.8,61.6c-0.5,1.7-0.7,3-0.9,6.4c-0.1,2.1-0.3,5-0.5,9.1
	c-0.1,2.4-0.2,5-0.4,7.8c0,0,0,0.4,0,0.4s0,0.4,0,0.4c-0.5,8.3-1.6,15.6-2.3,21.1c-0.1,0.4-0.1,0.9-0.2,1.4
	c-0.1,0.8-0.2,1.6-0.3,2.3c0.4,7.5,1.2,20.3-1.8,34.7c-0.8,4-2.3,9.5-3.7,13.7l-3.2,10.1c-10.5,48.5-24,92.8-40.5,131.3
	c-0.8,1.8-1.6,3.6-2.4,5.4c-8.5,19.3-18,37.3-29,54.9c0,0,0,0.1,0,0.1s0,0.1,0,0.1c-9.7,15.4-20.5,29.7-30.1,42.4
	c-1,1.4-2,2.7-3.1,4.1c-12.6,16.7-29.4,38.8-54.3,57.3c-1.4,1-2.8,2-4.2,3c-22.7,15.9-49.5,26.5-81,32.6c-23.7,4.6-47,6.1-66.1,7.2
	c0,0-0.1,0-0.1,0c-4,4.2-8.2,8.1-12.7,11.6c-9.9,7.7-21,13.8-33.1,17.9c-7.1,2.4-15,3.8-22.5,5.1c-5.2,0.9-10.3,1.9-15.4,2.6
	c-8.7,1.1-16.7,1.5-24.8,0.5c-2.6-0.3-5.1-0.8-7.5-1.4c-5.4-1.2-10.4-2.8-14.8-4.4c-1.8,0.2-3.6,0.3-5.4,0.5
	c-2.8,0.2-5.6,0.5-8.4,0.8c-4,0.4-8,0.9-12.4,1.5c-2.6,0.4-5.2,0.8-8,1.2c-9.1,1.4-18.5,2.7-28.3,3.8c-0.6,0.1-1.3,0.2-1.9,0.3
	c-2.7,0.4-5.6,0.7-8.7,1c-5.3,0.5-13.3,1.1-22.6,1.2c-5.6,0.1-11,0-16.4-0.2c-6.6-0.4-14.2-0.9-22.1-1.8c-8.6-1.2-17.1-2.8-25.1-5
	c-16.6-4.5-31.7-11.5-43.5-21.3c-16.6-13.3-28.7-30.7-35.4-50c-0.4-1.2-0.8-2.4-1.2-3.6c0,0,0-0.1,0-0.1c0,0,0-0.1,0-0.1
	c-2.2-7.2-3.6-14.6-4.8-22.2c-1.8-11.8-2.9-24.2-2.3-36.4c0.8-17.2,4.9-33.9,12.1-49.7c0,0,0,0,0,0s0,0,0,0c0.9-2.1,1.9-4.1,2.8-6
	c0.1-2.3,0.2-4.8,0.4-7.4c1-13.3,3.2-26.1,8.4-37.7c3.4-7.3,6.7-13.9,10.6-21.4c4.3-8,9.1-15.6,14.9-23c1.1-2.6,2.4-5.6,3.9-8.6
	c1.8-3.5,3.8-7.2,6.2-10.9c2.8-4.5,5.9-8.7,9.1-12.7c-4.3-11.4-7.1-22.9-8.9-34.8c-2.4-14.3-1.5-28.4,2.9-42.6
	c0.5-1.7,1.1-3.4,1.8-5.1c3.5-9.4,8.1-18.8,13.8-27.8c0,0,0,0,0,0c0,0,0,0,0,0c1.8-2.9,3.8-6.1,5.9-9.5c1.7-2.8,3.5-5.7,5.3-8.6
	c1.7-2.7,3.3-5.4,5.1-8.1c1.7-2.5,3.5-4.4,5.3-7c1.3-1.9,2.5-3.8,3.7-5.8c0-0.1,0.1-0.1,0.1-0.2c1.1-4.9,2.5-10.1,4.9-15.2
	c1.4-3.1,3.1-6,5-9c0,0,0.1-0.2,0.1-0.2s0.1-0.2,0.1-0.2c1.1-1.7,2.3-3.4,3.4-5.1c0.1-0.3,0.2-0.7,0.3-1.1c1.1-4.1,2-8.7,3.4-13.4
	c0.6-2,1.2-3.9,1.8-5.8C224.6,269.2,230.7,259.1,240.2,250.4z"/>
<path id="line-28" class="st0" d="M233.7,244.3c6.8-6.9,14.8-12.9,23.2-18c5.5-3.4,11-6.5,17.1-9c2-0.8,4-1.5,6-2.2
	c3.7-1.2,7.2-2.1,10.4-2.8c4.8-2.9,10.2-5.8,16.4-8.7c2.4-3.6,5-7.3,8.1-11.2c6.7-8.5,14.6-17.2,25-24.8c0,0,0.3-0.2,0.3-0.2
	c0,0,0.3-0.2,0.3-0.2c6.5-4.7,13.4-8.6,20.7-11.6c4.8-2,9.6-3.4,14.4-4.4c0.7-0.1,1.5-0.3,2.2-0.4c3.4-2.5,7-5.1,10.8-7.7
	c1.2-0.8,2.4-1.7,3.6-2.5c6.1-4.1,12-8.7,18.7-13c1.3-0.9,2.7-1.7,4.1-2.6c12.6-7.9,34.8-21.4,65.5-22.5c7.4-0.6,14.5-0.5,21.7,0.7
	c6.3,1.1,12.5,2.8,18.8,5.6c4.1,1.7,8.1,4,12.2,6.1c5.3,2.8,10.9,5.6,16.2,9.2c2.6,1.7,5,3.5,7.3,5.3c2.9,2.4,5.4,4.8,7.7,7.5
	c0.7,0.5,1.4,1.1,2,1.6c2.3,1,4.6,2,7,3.2c3-3.3,6.2-6.3,9.6-8.8c0,0,0.9-0.8,0.9-0.7c0,0,0.9-0.8,1-0.7c0.5-0.4,1.1-0.8,1.7-1.2
	c5.2-3.2,10-6.7,16.6-9.8c8.2-4.1,15.9-6.9,24.7-8.4c3.1-0.3,6.1-0.8,8.9-1.5c5.8-1.3,11.3-3.1,17.2-4.8c4-0.9,8-1.6,12-2.2l0,0
	c1.9-0.2,3.7-0.5,5.3-0.7c2.1-0.2,3.9-0.3,5.3-0.5c0-0.1,1.7,0,1.7-0.1c0-0.1,1.7,0,1.7-0.1c5.3-0.2,10.6-0.2,16.1,0.5
	c3.3,0.3,6.7,1.2,9.9,1.8c3.7,0.6,6.7,1.4,10.4,2.3c4.6,1.4,9.5,3.4,14.1,5.8c1.3,0.6,2.6,1.3,3.8,2c2.5,1.4,4.9,2.9,7.2,4.4
	c13.1,9,22.1,19.4,28.7,26.6c1.5,1.7,2.9,3.2,3.8,4.2c12.6,13,21.1,27.2,26.8,43.2c1,2.8,2,5.7,2.8,8.6c4.3,14.3,5.5,26.4,5.8,35.5
	c0.6,2.2,1.2,4.8,1.8,7.7c2.6,15,5.6,36.9-1.8,63.5c-0.5,1.7-0.7,3-0.9,6.6c-0.1,2.2-0.3,5.2-0.5,9.4c-0.1,2.4-0.2,5.1-0.4,8
	c0,0,0,0.4,0,0.4c0,0,0,0.4,0,0.4c-0.5,8.6-1.6,16.1-2.4,21.7c-0.1,0.4-0.1,0.9-0.2,1.4c-0.1,0.8-0.2,1.6-0.3,2.4
	c0.4,7.7,1.3,20.9-1.9,35.8c-0.8,4.2-2.3,9.7-3.8,14.2l-3.2,10.4c-10.8,49.9-24.7,95.5-41.6,135c-0.8,1.9-1.6,3.7-2.4,5.6
	c-8.7,19.8-18.5,38.3-29.9,56.5c0,0,0,0.1,0,0.1s0,0.1,0,0.1c-10,15.9-21.1,30.5-31,43.6c-1.1,1.4-2.1,2.8-3.2,4.2
	c-13,17.2-30.3,40-56,59c-1.4,1-2.8,2.1-4.3,3.1c-23.4,16.4-51,27.3-83.5,33.6c-24.4,4.8-48.5,6.3-68.2,7.5c0,0-0.1,0-0.1,0
	c-4.1,4.4-8.4,8.4-13.1,12.1c-10.2,8-21.6,14.3-34.1,18.6c-7.3,2.5-15.4,4-23.1,5.3c-5.4,1-10.6,1.9-15.8,2.6
	c-9,1.1-17.3,1.3-25.6,0.3c-2.6-0.4-5.2-0.9-7.7-1.4c-5.6-1.3-10.7-2.9-15.1-4.6c-1.8,0.2-3.7,0.4-5.5,0.5c-2.9,0.2-5.7,0.5-8.6,0.8
	c-4.1,0.4-8.3,0.9-12.7,1.6c-2.6,0.4-5.4,0.8-8.2,1.2c-9.3,1.4-19,2.8-29.1,3.9c-0.6,0.1-1.3,0.2-2,0.3c-2.7,0.4-5.8,0.7-9,1
	c-5.5,0.5-13.6,1.1-23.2,1.2c-5.7,0.1-11.3,0-16.9-0.2c-6.8-0.4-14.7-0.9-22.7-1.9c-8.9-1.2-17.5-2.9-25.8-5.1
	c-17.1-4.7-32.6-11.8-44.7-21.8c-17.2-13.6-29.7-31.6-36.8-51.4c-0.4-1.2-0.8-2.4-1.2-3.7c0,0,0-0.1,0-0.1c0,0,0-0.1,0-0.1
	c-2.3-7.4-3.8-15.1-5.1-22.9c-1.9-12.1-3-24.9-2.4-37.5c0.8-17.7,5-34.9,12.4-51.2c0,0,0-0.1,0-0.1s0-0.1,0-0.1
	c1-2.2,1.9-4.2,2.9-6.1c0.1-2.4,0.2-4.9,0.4-7.6c1-13.7,3.2-26.9,8.6-38.9c3.4-7.6,6.9-14.4,10.9-22.1c4.4-8.2,9.4-16.1,15.4-23.7
	c1.1-2.7,2.5-5.7,4.1-8.9c1.8-3.6,3.9-7.4,6.4-11.2c2.9-4.6,6.1-9,9.5-13.1c-4.4-11.7-7.4-23.6-9.2-35.9
	c-2.4-14.8-1.5-29.3,3.1-43.8c0.5-1.8,1.1-3.5,1.8-5.3c3.6-9.7,8.3-19.3,14.1-28.6c0,0,0,0,0,0c0,0,0,0,0,0c1.9-3,3.9-6.3,6-9.8
	c1.8-2.9,3.6-5.8,5.5-8.8c1.7-2.8,3.4-5.5,5.3-8.3c1.7-2.5,3.6-4.5,5.4-7.3c1.3-1.9,2.5-3.9,3.8-6c0-0.1,0.1-0.1,0.1-0.2
	c1.2-5,2.6-10.4,5-15.7c1.5-3.1,3.2-6.2,5.2-9.3c0,0,0.1-0.2,0.1-0.2s0.1-0.2,0.1-0.2c1.1-1.8,2.3-3.5,3.5-5.2
	c0.1-0.4,0.2-0.7,0.3-1.1c1.1-4.3,2.1-8.9,3.5-13.8c0.6-2,1.2-4,1.9-6C217.7,263.8,224,253.4,233.7,244.3z"/>
<path id="line-29" class="st0" d="M227.2,238.3c7-7.2,15.2-13.4,23.8-18.7c5.7-3.5,11.4-6.7,17.7-9.2c2.1-0.8,4.2-1.6,6.2-2.2
	c3.8-1.2,7.4-2.1,10.7-2.9c4.9-3,10.5-6.1,16.9-9c2.4-3.7,5.2-7.5,8.3-11.5c6.9-8.7,15.1-17.7,25.8-25.5c0,0,0.3-0.2,0.3-0.2
	c0,0,0.3-0.2,0.3-0.2c6.7-4.8,13.8-8.9,21.3-11.9c5-2,9.9-3.5,14.9-4.5c0.8-0.2,1.5-0.3,2.3-0.4c3.5-2.6,7.2-5.3,11.1-8
	c1.2-0.9,2.5-1.7,3.7-2.6c6.2-4.3,12.4-9,19.3-13.3c1.4-0.9,2.8-1.8,4.2-2.6c13-8.1,35.9-22,67.6-23c7.6-0.6,14.9-0.4,22.2,0.8
	c6.4,1.1,12.8,2.9,19.3,5.7c4.3,1.7,8.4,4,12.5,6.2c5.4,2.9,11.2,5.8,16.6,9.4c2.7,1.8,5.1,3.6,7.5,5.5c3,2.4,5.6,4.9,7.9,7.6
	c0.7,0.6,1.4,1.1,2.1,1.6c2.3,1,4.7,2.1,7.1,3.4c3.1-3.4,6.3-6.5,9.8-9.2c0,0,0.9-0.8,1-0.8c0,0,1-0.8,1-0.8
	c0.6-0.4,1.1-0.8,1.7-1.2c5.3-3.4,10.3-7.1,17-10.3c8.3-4.2,16.3-7.2,25.3-8.8c3.2-0.4,6.2-0.9,9.2-1.6c6-1.3,11.6-3.2,17.7-4.8
	c4.1-0.9,8.3-1.6,12.4-2.1l0,0c2-0.2,3.8-0.4,5.5-0.6c2.2-0.2,4.1-0.3,5.5-0.5c0-0.1,1.7,0,1.7-0.1s1.7,0,1.7-0.1
	c5.5-0.2,11,0,16.7,0.7c3.4,0.3,6.9,1.3,10.2,1.9c3.8,0.7,6.9,1.5,10.7,2.6c4.7,1.5,9.7,3.6,14.5,6c1.3,0.7,2.6,1.4,3.9,2.1
	c2.5,1.4,5,2.9,7.4,4.6c13.4,9.2,22.7,19.9,29.4,27.3c1.5,1.7,3,3.3,3.9,4.3c13,13.4,21.8,28,27.7,44.4c1.1,2.9,2,5.9,2.9,8.9
	c4.4,14.7,5.6,27.3,5.9,36.5c0.6,2.3,1.3,4.9,1.9,7.9c2.8,15.3,5.9,38-1.8,65.3c-0.5,1.8-0.7,3.1-1,6.8c-0.1,2.3-0.3,5.3-0.5,9.6
	c-0.1,2.5-0.2,5.3-0.4,8.2c0,0,0,0.4,0,0.4c0,0,0,0.4,0,0.4c-0.5,8.8-1.7,16.5-2.5,22.3c-0.1,0.5-0.1,0.9-0.2,1.4
	c-0.1,0.8-0.2,1.7-0.3,2.4c0.4,7.9,1.3,21.5-1.9,36.9c-0.8,4.3-2.4,10-3.9,14.6l-3.3,10.7c-11.1,51.3-25.4,98.1-42.8,138.8
	c-0.8,1.9-1.7,3.8-2.5,5.8c-9,20.3-19,39.4-30.7,58.1c0,0,0,0.1,0,0.1s0,0.1,0,0.1c-10.2,16.3-21.7,31.4-31.8,44.8
	c-1.1,1.4-2.2,2.9-3.3,4.3c-13.4,17.7-31.2,41.2-57.7,60.8c-1.5,1.1-2.9,2.1-4.4,3.2c-24.1,16.8-52.5,28.1-86,34.6
	c-25.2,4.9-50,6.4-70.2,7.7c0,0-0.1,0-0.1,0c-4.2,4.5-8.7,8.7-13.4,12.5c-10.5,8.3-22.2,14.8-35.1,19.2c-7.5,2.6-15.8,4.1-23.7,5.5
	c-5.5,1-10.9,1.9-16.3,2.5c-9.3,1-17.9,1.2-26.4,0.1c-2.7-0.4-5.4-0.9-7.9-1.5c-5.7-1.3-11-3-15.5-4.7c-1.9,0.2-3.8,0.4-5.7,0.6
	c-3,0.3-5.9,0.6-8.8,0.9c-4.2,0.4-8.5,1-13.1,1.7c-2.7,0.4-5.5,0.8-8.4,1.3c-9.5,1.5-19.5,2.9-29.9,4c-0.7,0.1-1.3,0.2-2,0.3
	c-2.8,0.4-5.9,0.7-9.2,1c-5.6,0.5-14,1.1-23.9,1.2c-5.9,0.1-11.7,0-17.3-0.2c-7.1-0.4-15.1-1-23.3-2c-9.1-1.2-18-3-26.4-5.3
	c-17.5-4.8-33.4-12.2-45.9-22.4c-17.8-14-30.8-32.4-38.1-52.8c-0.5-1.3-0.9-2.5-1.3-3.8c0,0-0.1-0.1,0-0.2c0,0,0-0.1,0-0.2
	c-2.4-7.6-4-15.5-5.3-23.6c-2-12.5-3.1-25.6-2.5-38.6c0.9-18.2,5.1-35.9,12.7-52.7c0,0,0-0.1,0-0.1c0,0,0-0.1,0-0.1
	c1-2.2,2-4.4,2.9-6.3c0.1-2.4,0.2-5,0.4-7.8c0.9-14.1,3.3-27.7,8.7-40.1c3.5-7.8,7-14.9,11.2-22.8c4.5-8.4,9.8-16.5,16-24.3
	c1.1-2.8,2.5-5.9,4.2-9.2c1.9-3.7,4.1-7.6,6.6-11.6c3-4.8,6.3-9.2,9.8-13.4c-4.6-12.1-7.6-24.3-9.5-36.9c-2.4-15.2-1.4-30.1,3.2-45
	c0.6-1.8,1.2-3.6,1.8-5.4c3.7-10,8.5-19.9,14.5-29.4c0,0,0,0,0,0c0,0,0,0,0,0c1.9-3.1,4-6.5,6.2-10.1c1.8-2.9,3.7-6,5.6-9.1
	c1.8-2.8,3.5-5.7,5.4-8.6c1.8-2.6,3.6-4.7,5.5-7.5c1.3-2,2.6-4,3.9-6.1c0-0.1,0.1-0.1,0.1-0.2c1.2-5.2,2.7-10.6,5.2-16.1
	c1.5-3.2,3.3-6.4,5.3-9.5c0,0,0.1-0.2,0.1-0.2c0,0,0.1-0.2,0.1-0.2c1.2-1.8,2.4-3.6,3.5-5.4c0.1-0.4,0.2-0.7,0.3-1.1
	c1.1-4.4,2.1-9.2,3.6-14.1c0.6-2.1,1.2-4.1,2-6.2C210.8,258.4,217.4,247.6,227.2,238.3z"/>
<path id="line-30" class="st0" d="M220.7,232.2c7.2-7.4,15.6-13.8,24.5-19.3c5.8-3.6,11.7-6.8,18.2-9.4c2.2-0.9,4.3-1.6,6.4-2.3
	c3.9-1.2,7.6-2.2,11-2.9c5-3.2,10.8-6.3,17.4-9.3c2.5-3.8,5.3-7.8,8.5-11.9c7.1-9,15.5-18.2,26.7-26.2c0,0,0.3-0.2,0.3-0.2
	c0,0,0.3-0.2,0.3-0.2c7-5,14.2-9.1,22-12.2c5.1-2.1,10.2-3.6,15.3-4.6c0.8-0.2,1.6-0.3,2.3-0.4c3.6-2.7,7.4-5.5,11.4-8.3
	c1.3-0.9,2.5-1.8,3.8-2.7c6.4-4.4,12.7-9.2,19.8-13.7c1.4-0.9,2.9-1.8,4.4-2.7c13.3-8.3,36.9-22.6,69.6-23.5
	c7.8-0.6,15.3-0.3,22.8,0.9c6.6,1.1,13.2,3,19.8,5.8c4.4,1.8,8.6,4.1,12.8,6.3c5.6,3,11.4,6,17,9.7c2.7,1.8,5.3,3.6,7.7,5.6
	c3.1,2.5,5.8,5,8.2,7.8c0.7,0.6,1.4,1.1,2.1,1.7c2.4,1,4.8,2.2,7.3,3.5c3.1-3.5,6.4-6.8,10-9.5c0,0,1-0.9,1-0.8c0,0,1-0.8,1-0.8
	c0.6-0.4,1.2-0.9,1.7-1.3c5.4-3.6,10.6-7.4,17.4-10.7c8.5-4.4,16.7-7.5,26-9.3c3.2-0.4,6.3-1,9.4-1.7c6.1-1.4,12-3.2,18.3-4.8
	c4.2-0.9,8.5-1.6,12.8-2.1l0,0c2-0.2,4-0.4,5.7-0.6c2.3-0.1,4.2-0.3,5.7-0.4c0-0.1,1.8,0,1.8-0.1c0-0.1,1.8,0,1.8,0
	c5.7-0.1,11.3,0.1,17.2,0.9c3.5,0.4,7.1,1.4,10.5,2c3.9,0.8,7.2,1.7,11,2.8c4.8,1.6,9.9,3.8,14.8,6.3c1.3,0.7,2.7,1.4,4,2.2
	c2.6,1.5,5.1,3,7.5,4.7c13.8,9.5,23.3,20.5,30.2,28c1.6,1.8,3.1,3.4,4.1,4.4c13.4,13.8,22.5,28.8,28.6,45.7c1.1,3,2.1,6.1,3,9.1
	c4.5,15.2,5.8,28.1,6.1,37.6c0.6,2.3,1.3,5.1,2,8.1c2.9,15.7,6.1,39.1-1.9,67.2c-0.5,1.8-0.8,3.2-1,7c-0.1,2.3-0.3,5.4-0.5,9.9
	c-0.1,2.6-0.2,5.4-0.4,8.5c0,0,0,0.4,0,0.4s0,0.4,0,0.4c-0.5,9.1-1.7,17-2.5,23c-0.1,0.5-0.1,1-0.2,1.5c-0.1,0.9-0.2,1.7-0.3,2.5
	c0.4,8.1,1.3,22-2,37.9c-0.9,4.5-2.4,10.2-4.1,15l-3.4,11c-11.4,52.8-26.1,100.8-44,142.5c-0.8,2-1.7,4-2.6,5.9
	c-9.2,20.9-19.5,40.4-31.5,59.6c0,0,0,0.1,0,0.1s0,0.1,0,0.1c-10.5,16.8-22.3,32.3-32.7,46c-1.1,1.5-2.2,2.9-3.3,4.4
	c-13.7,18.1-32.1,42.3-59.4,62.5c-1.5,1.1-3,2.2-4.5,3.3c-24.8,17.3-54,28.9-88.5,35.6c-25.9,5.1-51.4,6.6-72.2,7.9c0,0-0.1,0-0.1,0
	c-4.3,4.7-8.9,9-13.8,12.9c-10.8,8.6-22.9,15.3-36.1,19.9c-7.7,2.7-16.2,4.3-24.3,5.6c-5.7,1-11.2,1.9-16.8,2.5
	c-9.6,1-18.5,1.1-27.2-0.1c-2.8-0.4-5.5-0.9-8.1-1.5c-5.9-1.4-11.3-3.1-15.9-4.8c-1.9,0.2-3.9,0.4-5.8,0.6c-3,0.3-6,0.6-9.1,1
	c-4.3,0.5-8.7,1.1-13.4,1.7c-2.8,0.4-5.7,0.9-8.7,1.3c-9.8,1.5-20,3-30.6,4c-0.7,0.1-1.4,0.2-2.1,0.3c-2.9,0.4-6.1,0.7-9.5,1
	c-5.7,0.5-14.3,1.1-24.5,1.3c-6,0.1-12,0-17.8-0.2c-7.4-0.4-15.6-1-23.9-2.1c-9.4-1.3-18.5-3.1-27.1-5.5
	c-17.9-5-34.2-12.5-47.2-22.9c-18.4-14.3-31.9-33.2-39.5-54.2c-0.5-1.3-0.9-2.6-1.3-3.9c0,0-0.1-0.2-0.1-0.2s-0.1-0.2,0-0.2
	c-2.5-7.8-4.3-16-5.6-24.3c-2.1-12.8-3.2-26.3-2.6-39.7c0.9-18.7,5.3-36.9,13-54.3c0,0,0-0.1,0-0.1s0-0.1,0-0.1c1-2.3,2-4.5,3-6.5
	c0.1-2.5,0.2-5.2,0.4-8.1c0.9-14.5,3.4-28.5,8.9-41.3c3.5-8.1,7.2-15.4,11.5-23.5c4.7-8.7,10.1-17,16.5-25c1.2-2.9,2.6-6,4.3-9.4
	c1.9-3.8,4.2-7.8,6.8-11.9c3.1-4.9,6.5-9.5,10.1-13.8c-4.8-12.4-7.9-25-9.7-38c-2.4-15.6-1.3-30.9,3.4-46.3c0.6-1.9,1.2-3.7,1.9-5.6
	c3.7-10.3,8.7-20.4,14.9-30.3c0,0,0,0,0,0s0,0,0,0c2-3.2,4.1-6.7,6.4-10.3c1.8-3,3.8-6.1,5.8-9.3c1.8-2.9,3.6-5.8,5.6-8.8
	c1.8-2.7,3.7-4.9,5.7-7.7c1.4-2,2.7-4.1,4.1-6.3c0-0.1,0.1-0.1,0.1-0.2c1.3-5.3,2.8-10.9,5.4-16.5c1.5-3.3,3.4-6.5,5.4-9.8
	c0,0,0.1-0.2,0.1-0.2c0,0,0.1-0.2,0.1-0.2c1.2-1.9,2.4-3.7,3.6-5.5c0.1-0.4,0.2-0.8,0.3-1.2c1.1-4.5,2.2-9.4,3.7-14.5
	c0.6-2.1,1.3-4.3,2-6.3C203.9,253,210.7,241.9,220.7,232.2z"/>
</svg>
