<?xml version="1.0" encoding="utf-8"?>
<!-- Generator: Adobe Illustrator 25.0.0, SVG Export Plug-In . SVG Version: 6.00 Build 0)  -->
<!DOCTYPE svg PUBLIC "-//W3C//DTD SVG 1.1//EN" "http://www.w3.org/Graphics/SVG/1.1/DTD/svg11.dtd" [
	<!ENTITY ns_extend "http://ns.adobe.com/Extensibility/1.0/">
	<!ENTITY ns_ai "http://ns.adobe.com/AdobeIllustrator/10.0/">
	<!ENTITY ns_graphs "http://ns.adobe.com/Graphs/1.0/">
	<!ENTITY ns_vars "http://ns.adobe.com/Variables/1.0/">
	<!ENTITY ns_imrep "http://ns.adobe.com/ImageReplacement/1.0/">
	<!ENTITY ns_sfw "http://ns.adobe.com/SaveForWeb/1.0/">
	<!ENTITY ns_custom "http://ns.adobe.com/GenericCustomNamespace/1.0/">
	<!ENTITY ns_adobe_xpath "http://ns.adobe.com/XPath/1.0/">
]>
<svg version="1.1" id="Livello_1" xmlns:x="&ns_extend;" xmlns:i="&ns_ai;" xmlns:graph="&ns_graphs;"
	 xmlns="http://www.w3.org/2000/svg" xmlns:xlink="http://www.w3.org/1999/xlink" x="0px" y="0px" viewBox="0 0 400 400"
	 style="enable-background:new 0 0 400 400;" xml:space="preserve">
<style type="text/css">
	.st0{opacity:0.45;fill:#FFFFFF;}
	.st1{fill:none;stroke:#DC4B33;stroke-width:0.9;stroke-miterlimit:10;}
</style>
<metadata>
	<sfw  xmlns="&ns_sfw;">
		<slices></slices>
		<sliceSourceBounds  bottomLeftOrigin="true" height="300.641" width="391.891" x="5.997" y="53.333"></sliceSourceBounds>
	</sfw>
</metadata>
<path class="st0" d="M182.21,46.476L182.21,46.476c3.214,0,5.982,0.757,8.56,1.287c0.283,0.058,0.58,0.122,0.854,0.185
	c0.642,0.127,1.254,0.257,1.835,0.39c1.492-0.23,3.115-0.41,4.856-0.41c1.913,0,3.795,0.236,5.659,0.883
	c5.974,2.096,9.976,6.111,15.409,9.799c1.527-0.559,3.214-1.097,5.049-1.596c0.15,0.024,2.127-0.443,2.234-0.405
	c0.163,0.06,2.202-0.086,2.335-0.086c0.973-0.091,1.906-0.221,2.864-0.435c2.471-0.448,4.447-0.838,6.261-1.192
	c0.007-0.037,0.607-0.073,0.615-0.11c0.006-0.028,0.466-0.055,0.472-0.083c2.289-1.91,4.726-3.518,7.805-4.622
	c4.937-1.603,9.611-2.209,14.488-2.444c2.511-0.099,4.957-0.062,7.382,0.019c2.251,0.111,4.414,0.508,6.447,1.117
	c6.612,1.994,12.183,6.057,16.563,9.956c1.869,1.437,3.43,2.968,4.767,4.431c3.196-1.612,6.731-2.839,11.584-3.944
	c0.458-0.129,0.921-0.234,1.391-0.349c3.549-0.868,7.178-1.804,11.093-2.349c5.77-0.867,11.513-0.867,17.872,1.515
	c3.525,1.32,7.171,3.296,10.978,5.953c0.007,0.005,0.111,0.077,0.117,0.082c0.007,0.005,0.11,0.078,0.116,0.083
	c18.099,12.938,32.861,24.485,40.975,41.663c5.515,11.499,7.104,23.687,6.541,36.169c-0.14,8.549-0.957,17.184-2.123,25.379
	c0.105,3.141,0.618,7.608,1.038,11.657c1.112,11.088,1.874,23.179-2.394,34.429c-2.363,8.316-5.866,15.51-11.163,21.697
	c-4.133,4.797-9.247,8.656-15.226,11.481c-11.808,18.183-29.774,23.066-41.196,26.146c-0.002,0.001-0.046,0.012-0.048,0.013
	c-0.002,0.001-0.046,0.012-0.048,0.013c-2.171,0.579-6.462,3.3-9.711,5.385c-4.122,2.639-8.684,5.661-13.807,8.243
	c-0.007,0.004-0.141,0.071-0.148,0.075c-0.007,0.004-0.142,0.069-0.149,0.073c-2.561,1.26-5.098,2.415-7.61,3.463
	c-8.636,3.583-16.882,6.115-24.444,8.405c-13.358,4.044-24.229,7.258-34.61,14.788c-6.569,4.834-13.292,8.211-19.934,10.791
	c-10.451,3.973-20.865,4.778-30.157,5.36c-3.035,0.188-5.931,0.356-8.675,0.607c-3.444,0.335-7.335,1.252-11.75,2.334
	c-7.49,1.821-16.487,4.258-26.643,4.513c-1.433,0.05-3.243,0.099-5.265,0.014c-4.749,2.561-9.978,4.582-15.653,5.982
	c-1.696,0.418-3.45,0.79-5.22,1.095c-2.953,0.501-6.046,0.793-9.194,1.073c-1.338,0.117-2.672,0.232-4.042,0.363
	c-2.004,0.281-4.062,0.492-6.168,0.633c-4.828,0.308-9.554,0.293-14.057-0.024c-7.886-0.159-16.058-3.05-24.426-8.331
	c-4.197-2.649-8.455-5.84-12.654-9.68c-0.038-0.04-0.077-0.08-0.135-0.12c-7.362-6.349-20.682-21.781-23.424-37.992
	c-1.133-6.275-0.571-12.229,2.107-17.158c1.47-2.125,2.601-4.056,3.53-6.191c0.095-0.213,0.188-0.427,0.279-0.641
	c-0.224-1.365-0.425-2.772-0.598-4.234c-0.76-6.104,0.64-11.738,3.479-16.848c3.717-6.73,9.302-11.465,13.55-15.349
	c-2.24-1.082-4.307-2.464-6.314-4.046c-4.133-2.895-6.566-6.229-7.912-8.878c-2.763-4.777-4.085-9.951-5.385-15.399
	c-0.802-2.644-1.453-5.12-1.942-7.521c-0.822-4.007-1.219-7.823-1.164-11.842c-5.06-5.239-9.213-13.442-9.858-25.011
	c-0.561-4.773-1.399-9.011-1.615-13.597c-0.029-1.881,0.052-3.853,0.283-5.856c0.918-7.219,3.712-14.19,9.018-18.833
	c4.291-2.872,7.315-5.281,11.445-7.691c0.053-0.092,1.714-0.882,1.787-0.99c0.243-0.344,0.496-0.694,0.762-1.052
	c0.131-0.117,1.738-2.164,1.89-2.22c0.158-0.058,2.151-1.726,2.312-1.758c1.636-1.22,3.276-2.252,4.8-3.323
	c0.895-0.624,1.756-1.224,2.585-1.798c1.105-5.145,2.33-11.581,5.906-17.184c3.167-5.012,7.499-9.221,12.34-12.124
	c2.067-1.239,4.241-2.242,6.429-2.962c3.168-0.598,6.291-1.428,9.422-2.068c2.439-0.498,4.787-1.16,7.351-1.264
	c0.646-0.027,1.304-0.026,1.974,0.01c0.828,0.035,1.665,0.114,2.51,0.24c2.024,0.489,3.638,0.875,5.542,1.235
	c0.917,0.173,1.845,0.364,2.844,0.58c3.204,0.635,6.303,1.668,9.21,3.055c0.045-0.001,0.09-0.002,0.135-0.004
	c4.604-0.112,9.226,0.708,13.667,2.348c1.101-0.18,2.198-0.337,3.291-0.476c3.966-0.508,7.867-0.775,11.712-0.907
	c0.561-0.02,1.14-0.036,1.678-0.05c2.043-0.051,4.03-0.118,5.967-0.206c0.37-0.127,7.416-0.334,7.698-0.587
	c0.395-0.488,0.788-0.986,1.145-1.439c3.97-5.005,8.865-11.885,16.718-16.873C171.422,48.002,176.73,46.476,182.21,46.476"/>
<g>
	<path class="st1" d="M186.9,101.1c2.6,0,4.3,2,6.8,2c0.2,0,0.5,0,0.7,0c1.8-0.3,3.3-0.9,4.7-0.9c1.3,0,2.6,0.5,4,2.4
		c3.3,6-1.1,14.2,5.4,14.2c1,0,2.3-0.2,3.8-0.6c1.9,0.3,2.9,1.1,4,1.1c0.6,0,1.2-0.3,2.1-1.1c4.1-3.8,0.7-9.7,7.3-11.5
		c7.5-0.8,10.4,1.2,17.7-3.7c1.8-1.2,3.6-1.7,5.2-1.7c5,0,9.6,4.4,13.3,8.4c5.8,2.5,4.8,10.4,11.1,12.3c0.4,0,0.8,0.1,1.2,0.1
		c9,0,10-14.9,19.4-14.9c2.5,0,5.7,1.1,9.7,3.9c24.9,17.8,33,26.5,26.6,58.6c-0.9,15.4,9.9,41.2-10.9,47.3c-3.6,1.6-4.2,3.2-6.2,6.6
		c-5,8.4-12.6,10.8-21.5,13.2c-7.9,2.1-14.7,8.5-21.9,12c-19.3,9.1-37.4,9.3-55.2,23.1c-10,7.8-22.2,6.6-34.4,7.8
		c-9.7,1-18.3,5.3-27.9,5.3c-1,0-2.1,0-3.1-0.1c-1.7-0.2-3.6-0.8-5.3-0.8c-0.8,0-1.5,0.1-2.3,0.4c-6,6.1-16,8-25.3,8
		c-3.3,0-6.5-0.2-9.4-0.6c0,0,0,0-0.1,0c-9.6,0-36.9-30.5-21.1-34.8c5.6-0.9,5.5-0.6,1.8-5.4c-10.8-15.5,16.4-16.3,12.1-29.2
		c-4.2-7.6,5.8-14.1,2.4-21.7c-1.7-1.6-3.8-2.1-6-2.1c-3.7,0-7.8,1.3-11,1.3c-5,0-7.8-3.3-3.6-20c0.6-5-2.4-6.6-5.3-10
		c-3.9-4.6-7.8-17.6-0.4-20.8c9.1-0.9,6.1-2.1,10.7-8.3c2.8-2.5,6.9-1.4,9.1-3.7c3.6-3.8,2-12.8,4.9-17.3c2.2-3.5,6.3-6.2,10.5-6.2
		c1.7,0,3.5,0.5,5,1.6c2.6,3.6,4.3,4.6,5.6,4.6c1.8,0,2.9-1.9,5-1.9c0.8,0,1.8,0.3,3,1.1c1.8,1.9,1.6,2.7,3,2.7
		c0.5,0,1.1-0.1,2.1-0.2c6.4-2.4,12.9-2.7,19.6-2.7c2.8,0,5.6,0,8.5,0c0.4,0,0.9,0,1.2,0c11.2,0,13.8-12.4,21.6-17.3
		C185.7,101.2,186.4,101.1,186.9,101.1"/>
</g>
<path class="st1" d="M186.665,98.369L186.665,98.369c2.631,0,4.384,1.933,6.888,1.964c0.204,0.003,0.504,0.006,0.708,0.009
	c0.546-0.079,1.064-0.184,1.561-0.291c1.163-0.277,2.221-0.565,3.239-0.565c1.331,0,2.66,0.487,4.083,2.324
	c3.434,5.805-0.546,13.796,5.9,13.98c1.026-0.028,2.346-0.245,3.862-0.65c0.719,0.113,1.396,0.276,1.905,0.462
	c0.783,0.286,1.483,0.558,2.123,0.558c0.619-0.005,1.235-0.296,2.138-1.067c1.658-1.444,2.185-3.195,2.615-4.894
	c0.036-0.177,0.1-0.354,0.135-0.53c0.027-0.134,0.076-0.268,0.104-0.402c0.576-2.331,1.339-4.433,4.838-5.4
	c5.269-0.616,8.354,0.14,12.272-0.992c1.664-0.474,3.469-1.275,5.637-2.645c1.823-1.134,3.641-1.59,5.262-1.559
	c5.081,0.1,9.729,4.483,13.463,8.478c1.841,0.825,3.017,2.171,3.959,3.684c2.044,3.019,3.074,6.848,7.404,8.026
	c0.403-0.006,0.806,0.083,1.21,0.078c3.478-0.043,5.827-2.199,7.954-4.815c3.361-4.163,6.123-9.517,11.924-9.381
	c2.511,0.059,5.673,1.175,9.575,3.871c0.032,0.022,0.068,0.047,0.1,0.07c0.032,0.022,0.069,0.048,0.1,0.07
	c16.094,11.505,25.441,19.376,28.453,32.138c1.729,7.21,1.397,15.886-0.808,27.424c-0.304,5.515,0.702,12.229,1.304,18.914
	c0.294,2.897,0.535,5.859,0.553,8.699c0.047,9.243-2.286,17.434-12.387,20.896c-3.538,1.936-4.283,3.815-6.448,7.355
	c-1.48,2.378-3.186,4.301-5.089,5.871c-4.972,4.814-11.397,6.727-18.157,8.55c-0.011,0.003-0.023,0.006-0.034,0.009
	c-0.01,0.003-0.023,0.006-0.034,0.009c-2.449,0.659-4.903,1.821-7.247,3.139c-3.279,1.842-6.466,4.078-9.686,6.082
	c-0.032,0.02-0.07,0.043-0.102,0.063c-0.032,0.02-0.07,0.043-0.102,0.063c-1.718,1.065-3.438,2.06-5.178,2.897
	c-5.855,2.736-11.592,4.68-17.216,6.426c-8.69,2.696-17.074,4.914-25.331,8.89c-4.638,2.246-9.251,4.897-13.843,8.329
	c-6.256,4.671-13.272,6.069-20.534,6.722c-2.044,0.183-4.104,0.309-6.17,0.433c-2.795,0.168-5.637,0.356-8.505,0.67
	c-5.419,0.611-10.6,2.192-15.853,3.42c-1.008,0.242-2.036,0.475-3.078,0.682c-3.236,0.803-6.527,1.389-9.953,1.459
	c-1.035,0.021-2.167,0.039-3.206-0.04c-1.763-0.165-3.722-0.72-5.495-0.706c-0.827,0.006-1.559,0.107-2.387,0.398
	c-0.911,0.838-1.901,1.592-2.958,2.268c-2.32,1.477-4.939,2.582-7.72,3.383c-4.895,1.431-10.338,1.799-15.59,1.563
	c-3.345-0.151-6.598-0.482-9.563-1.054c-0.002-0.002-0.004-0.004-0.102-0.006c-6.398-0.317-20.446-13.757-24.619-24.332
	c-2.124-5.317-1.711-9.855,3.508-11.485c3.761-0.699,4.903-0.84,4.099-2.437c-0.074-0.149-0.166-0.311-0.273-0.487
	c-0.433-0.689-1.094-1.581-1.955-2.759c-3.772-5.664-2.654-9.455,0.134-12.598c3.445-3.892,9.41-6.741,11.786-10.896
	c0.794-1.713,0.979-3.678,0.111-6.059c-1.914-3.234-1.273-6.3-0.162-9.303c1.437-4.076,3.689-8.123,1.777-12.526
	c-1.655-1.652-3.683-2.251-5.797-2.371c-3.556-0.2-7.471,0.844-10.508,0.643c-5.003-0.262-7.871-3.807-3.913-20.251
	c0.542-4.989-2.35-6.721-5.116-10.18c-0.874-1.123-1.742-2.692-2.462-4.48c-2.332-5.842-3.093-13.958,2.547-16.514
	c7.621-0.876,6.741-1.938,9.248-6.017c0.256-0.44,0.632-0.951,0.985-1.468c0.194-0.284,0.404-0.579,0.632-0.886
	c0.631-0.564,1.404-1.035,2.133-1.304c0.757-0.28,1.636-0.529,2.41-0.683c1.722-0.387,3.385-0.699,4.552-1.892
	c0.612-0.63,1.086-1.395,1.465-2.252c1.753-4.424,1.137-11.286,3.614-15.132c2.248-3.576,6.36-6.352,10.592-6.496
	c1.718-0.062,3.537,0.363,5.071,1.372c2.628,3.39,4.4,4.292,5.791,4.267c1.832-0.034,2.994-1.863,5.118-1.868
	c0.418-0.001,0.885,0.072,1.402,0.245c0.511,0.168,1.068,0.431,1.672,0.812c1.811,1.829,1.702,2.606,3.127,2.627
	c0.521,0.008,1.137-0.077,2.137-0.161c2.369-0.797,4.746-1.31,7.13-1.624c0.033-0.005,0.065-0.011,0.098-0.016
	c3.383-0.539,6.8-0.674,10.255-0.64c0.815-0.02,1.632-0.032,2.452-0.039c2.858-0.025,5.713-0.039,8.661-0.045
	c0.408-0.001,0.912-0.002,1.224-0.003c1.605-0.003,3.045-0.241,4.356-0.662c1.774-0.609,3.618-1.603,4.972-2.817
	c0.328-0.301,0.647-0.613,0.959-0.934c3.993-4.099,6.916-9.9,11.81-12.977C184.986,98.54,185.917,98.369,186.665,98.369"/>
<path class="st1" d="M186.431,95.638L186.431,95.638c2.661,0,4.468,1.867,6.976,1.929c0.208,0.005,0.508,0.012,0.715,0.019
	c0.551-0.068,1.074-0.161,1.575-0.255c1.181-0.274,2.268-0.557,3.324-0.557c1.361,0,2.72,0.474,4.166,2.248
	c3.567,5.61,0.008,13.391,6.401,13.76c1.053-0.056,2.391-0.29,3.925-0.7c0.689,0.109,1.434,0.238,1.922,0.417
	c0.75,0.274,1.521,0.524,2.135,0.524c0.637-0.009,1.271-0.292,2.176-1.034c1.7-1.392,2.304-3.071,2.807-4.699
	c0.034-0.17,0.127-0.339,0.16-0.508c0.026-0.129,0.097-0.257,0.123-0.385c0.666-2.309,1.517-4.385,4.994-5.359
	c5.252-0.668,8.42,0.016,12.388-1.068c1.709-0.454,3.547-1.211,5.729-2.504c1.845-1.069,3.681-1.479,5.325-1.418
	c5.161,0.199,9.858,4.566,13.626,8.556c1.842,0.857,3.038,2.213,4.001,3.723c2.105,2.775,3.267,6.338,7.624,7.396
	c0.406-0.013,0.812,0.066,1.219,0.055c3.481-0.093,5.898-2.178,8.119-4.686c3.488-3.99,6.406-9.078,12.238-8.808
	c2.565,0.119,5.751,1.287,9.649,3.981c0.03,0.021,0.071,0.049,0.101,0.07c0.03,0.021,0.071,0.049,0.101,0.071
	c16.199,11.58,25.831,19.645,29.112,32.639c1.928,7.435,1.697,16.296-0.421,27.884c-0.296,5.675,0.614,12.49,1.124,19.254
	c0.284,2.91,0.539,5.951,0.579,8.854c0.103,9.34-2.067,17.736-11.861,21.608c-3.476,2.272-4.367,4.431-6.696,8.11
	c-1.619,2.506-3.505,4.53-5.622,6.167c-5.331,5.518-12.364,7.587-19.37,9.476c-0.01,0.003-0.024,0.006-0.034,0.009
	c-0.01,0.003-0.024,0.007-0.034,0.009c-2.435,0.654-4.985,1.898-7.376,3.257c-3.324,1.884-6.582,4.161-9.902,6.196
	c-0.031,0.019-0.074,0.045-0.104,0.064s-0.074,0.045-0.104,0.064c-1.763,1.075-3.526,2.079-5.306,2.927
	c-6.002,2.781-11.87,4.756-17.596,6.53c-8.935,2.767-17.45,5.037-25.819,9.2c-4.739,2.382-9.464,5.072-14.163,8.458
	c-6.477,4.634-13.672,6.001-21.04,6.651c-2.096,0.183-4.2,0.311-6.302,0.442c-2.829,0.177-5.726,0.403-8.676,0.758
	c-5.528,0.675-10.909,2.301-16.42,3.477c-1.031,0.232-2.1,0.455-3.193,0.647c-3.315,0.895-6.708,1.557-10.253,1.697
	c-1.07,0.042-2.235,0.079-3.312,0.019c-1.825-0.13-3.845-0.641-5.689-0.613c-0.854,0.012-1.617,0.113-2.474,0.396
	c-0.968,0.809-2.015,1.534-3.127,2.182c-2.452,1.415-5.182,2.462-8.053,3.204c-5.053,1.347-10.638,1.518-16.055,1.042
	c-3.389-0.298-6.696-0.764-9.725-1.508c-0.004-0.004-0.008-0.008-0.104-0.012c-6.449-0.635-20.459-14.179-24.556-25.051
	c-2.072-5.367-1.651-9.98,3.435-11.784c3.64-0.774,4.782-1.01,4.069-2.635c-0.066-0.153-0.147-0.317-0.244-0.495
	c-0.422-0.725-1.059-1.643-1.883-2.837c-3.614-5.687-2.481-9.575,0.31-12.821c3.46-4.042,9.404-6.989,11.878-11.13
	c0.634-1.68,0.701-3.614-0.227-5.953c-2.031-3.217-1.551-6.296-0.569-9.28c1.216-4.113,3.28-8.22,1.4-12.677
	c-1.61-1.704-3.565-2.402-5.594-2.642c-3.412-0.401-7.142,0.388-10.016-0.014c-5.006-0.524-7.941-4.314-4.226-20.501
	c0.484-4.977-2.3-6.841-4.932-10.36c-0.829-1.163-1.647-2.753-2.318-4.553c-2.161-5.915-2.735-13.97,2.888-16.636
	c7.446-0.981,6.772-2.114,9.364-6.105c0.245-0.421,0.689-0.947,1.027-1.443c0.197-0.287,0.409-0.585,0.639-0.895
	c0.605-0.54,1.422-1.094,2.12-1.353c0.725-0.268,1.663-0.592,2.405-0.74c1.718-0.431,3.38-0.781,4.565-1.968
	c0.627-0.63,1.122-1.386,1.524-2.228c1.719-4.462,1.2-11.302,3.735-15.24c2.297-3.651,6.419-6.503,10.684-6.792
	c1.736-0.124,3.574,0.226,5.143,1.144c2.657,3.18,4.499,3.985,5.982,3.933c1.864-0.066,3.089-1.826,5.235-1.836
	c0.43-0.003,0.907,0.067,1.432,0.233c0.528,0.161,1.1,0.415,1.717,0.782c1.822,1.759,1.804,2.512,3.254,2.554
	c0.542,0.015,1.174-0.054,2.174-0.122c2.413-0.721,4.828-1.153,7.239-1.378c0.033-0.005,0.067-0.01,0.1-0.015
	c3.447-0.516,6.928-0.601,10.435-0.482c0.83-0.029,1.662-0.048,2.496-0.062c2.917-0.051,5.827-0.077,8.821-0.091
	c0.416-0.002,0.924-0.004,1.248-0.005c1.628-0.005,3.097-0.235,4.44-0.638c1.7-0.584,3.818-1.536,5.116-2.7
	c0.331-0.311,0.655-0.633,0.968-0.96c3.992-4.146,7.019-10.004,12.068-13.182C184.272,95.88,185.433,95.638,186.431,95.638"/>
<path class="st1" d="M186.197,92.906L186.197,92.906c2.692,0,4.552,1.801,7.064,1.893c0.212,0.008,0.512,0.018,0.723,0.028
	c0.556-0.058,1.084-0.138,1.589-0.219c1.198-0.272,2.316-0.548,3.409-0.548c1.392,0,2.779,0.46,4.249,2.172
	c3.701,5.414,0.561,12.987,6.901,13.54c1.079-0.084,2.437-0.335,3.987-0.749c0.659,0.104,1.473,0.2,1.94,0.371
	c0.718,0.262,1.559,0.49,2.146,0.49c0.656-0.014,1.306-0.288,2.215-1c1.743-1.339,2.423-2.947,2.999-4.504
	c0.033-0.163,0.154-0.324,0.186-0.486c0.025-0.123,0.117-0.246,0.143-0.368c0.756-2.287,1.695-4.336,5.151-5.318
	c5.234-0.72,8.486-0.107,12.505-1.145c1.753-0.434,3.626-1.147,5.821-2.364c1.868-1.003,3.722-1.369,5.387-1.277
	c5.242,0.299,9.987,4.649,13.789,8.633c1.844,0.889,3.06,2.255,4.044,3.763c2.165,2.532,3.459,5.829,7.844,6.766
	c0.409-0.019,0.818,0.049,1.229,0.033c3.485-0.138,5.969-2.157,8.284-4.556c3.615-3.816,6.691-8.635,12.551-8.234
	c2.618,0.179,5.83,1.399,9.723,4.09c0.029,0.02,0.073,0.051,0.102,0.071c0.029,0.02,0.073,0.051,0.102,0.072
	c16.305,11.656,26.222,19.914,29.771,33.141c2.127,7.661,1.997,16.707-0.034,28.344c-0.287,5.834,0.527,12.751,0.944,19.594
	c0.274,2.923,0.543,6.043,0.604,9.01c0.159,9.438-1.848,18.038-11.335,22.32c-3.414,2.607-4.45,5.046-6.944,8.864
	c-1.759,2.633-3.824,4.759-6.156,6.462c-5.691,6.221-13.332,8.447-20.583,10.402c-0.01,0.003-0.026,0.007-0.035,0.009
	c-0.01,0.003-0.026,0.007-0.035,0.009c-2.42,0.65-5.067,1.976-7.506,3.375c-3.368,1.926-6.699,4.244-10.119,6.31
	c-0.029,0.018-0.078,0.046-0.107,0.065c-0.029,0.018-0.078,0.046-0.107,0.064c-1.807,1.085-3.613,2.098-5.434,2.957
	c-6.148,2.826-12.148,4.831-17.977,6.634c-9.181,2.838-17.827,5.161-26.307,9.511c-4.841,2.519-9.677,5.246-14.484,8.588
	c-6.698,4.597-14.071,5.933-21.547,6.579c-2.148,0.184-4.296,0.313-6.434,0.451c-2.863,0.186-5.816,0.45-8.847,0.845
	c-5.637,0.738-11.219,2.41-16.988,3.535c-1.053,0.222-2.163,0.435-3.308,0.612c-3.395,0.988-6.89,1.725-10.553,1.935
	c-1.104,0.063-2.302,0.118-3.418,0.079c-1.888-0.095-3.967-0.561-5.884-0.519c-0.881,0.018-1.676,0.12-2.561,0.394
	c-1.026,0.78-2.129,1.476-3.296,2.096c-2.584,1.354-5.425,2.341-8.387,3.024c-5.21,1.264-10.935,1.242-16.52,0.521
	c-3.432-0.443-6.793-1.046-9.888-1.962c-0.006-0.006-0.012-0.012-0.105-0.018c-6.5-0.952-20.471-14.602-24.493-25.77
	c-2.02-5.418-1.591-10.105,3.361-12.083c3.519-0.849,4.661-1.179,4.039-2.832c-0.057-0.156-0.129-0.323-0.215-0.503
	c-0.411-0.761-1.024-1.706-1.812-2.914c-3.455-5.71-2.308-9.696,0.486-13.045c3.474-4.191,9.399-7.238,11.971-11.365
	c0.475-1.647,0.422-3.55-0.565-5.847c-2.148-3.199-1.83-6.292-0.977-9.258c0.995-4.15,2.871-8.316,1.023-12.828
	c-1.565-1.757-3.448-2.553-5.391-2.913c-3.268-0.601-6.813-0.068-9.525-0.671c-5.009-0.786-8.012-4.821-4.539-20.752
	c0.426-4.966-2.25-6.962-4.747-10.54c-0.785-1.203-1.553-2.814-2.173-4.625c-1.99-5.987-2.377-13.982,3.229-16.758
	c7.27-1.086,6.802-2.29,9.48-6.193c0.234-0.403,0.746-0.944,1.069-1.418c0.199-0.29,0.414-0.591,0.645-0.904
	c0.579-0.517,1.439-1.154,2.108-1.401c0.693-0.256,1.69-0.655,2.4-0.796c1.713-0.475,3.374-0.863,4.578-2.043
	c0.642-0.629,1.157-1.377,1.583-2.204c1.684-4.5,1.263-11.317,3.855-15.348c2.345-3.727,6.48-6.643,10.776-7.089
	c1.755-0.182,3.611,0.089,5.214,0.916c2.685,2.97,4.598,3.679,6.173,3.6c1.895-0.096,3.183-1.789,5.353-1.805
	c0.442-0.004,0.929,0.062,1.462,0.221c0.544,0.154,1.131,0.398,1.761,0.752c1.834,1.688,1.906,2.419,3.381,2.48
	c0.563,0.023,1.212-0.03,2.212-0.083c2.457-0.646,4.91-0.997,7.349-1.132c0.034-0.005,0.068-0.01,0.102-0.014
	c3.511-0.494,7.056-0.529,10.614-0.325c0.845-0.037,1.692-0.064,2.54-0.085c2.975-0.076,5.94-0.116,8.982-0.136
	c0.424-0.003,0.936-0.005,1.272-0.008c1.651-0.008,3.149-0.228,4.525-0.614c1.626-0.558,4.018-1.469,5.259-2.583
	c0.335-0.32,0.662-0.653,0.978-0.987c3.99-4.194,7.121-10.109,12.327-13.387C183.558,93.22,184.95,92.906,186.197,92.906"/>
<path class="st1" d="M185.962,90.175L185.962,90.175c2.723,0,4.637,1.736,7.152,1.857c0.217,0.01,0.516,0.024,0.731,0.037
	c0.561-0.047,1.094-0.114,1.604-0.184c1.215-0.269,2.363-0.54,3.494-0.54c1.423,0,2.839,0.447,4.332,2.097
	c3.835,5.219,1.115,12.582,7.402,13.32c1.105-0.112,2.483-0.379,4.05-0.799c0.629,0.099,1.511,0.163,1.957,0.325
	c0.685,0.251,1.597,0.457,2.157,0.457c0.675-0.018,1.341-0.284,2.253-0.967c1.786-1.287,2.542-2.823,3.191-4.309
	c0.031-0.155,0.18-0.31,0.211-0.464c0.023-0.118,0.138-0.235,0.162-0.351c0.847-2.265,1.874-4.288,5.307-5.277
	c5.217-0.772,8.552-0.231,12.622-1.221c1.798-0.415,3.704-1.083,5.912-2.224c1.89-0.938,3.763-1.258,5.449-1.137
	c5.322,0.399,10.117,4.731,13.953,8.711c1.845,0.922,3.082,2.297,4.087,3.802c2.226,2.288,3.651,5.319,8.064,6.136
	c0.412-0.026,0.824,0.032,1.238,0.01c3.489-0.184,6.04-2.136,8.449-4.426c3.742-3.643,6.976-8.191,12.864-7.661
	c2.672,0.241,5.909,1.51,9.796,4.2c0.028,0.019,0.075,0.052,0.103,0.071c0.028,0.019,0.075,0.053,0.103,0.072
	c16.41,11.731,26.612,20.183,30.43,33.642c2.327,7.887,2.298,17.117,0.353,28.804c-0.278,5.994,0.44,13.012,0.763,19.935
	c0.264,2.936,0.548,6.135,0.63,9.166c0.215,9.535-1.629,18.341-10.809,23.033c-3.353,2.943-4.533,5.662-7.193,9.619
	c-1.899,2.76-4.143,4.988-6.689,6.757c-6.051,6.925-14.299,9.307-21.795,11.328c-0.009,0.002-0.027,0.007-0.036,0.01
	s-0.027,0.007-0.036,0.01c-2.405,0.646-5.149,2.054-7.636,3.493c-3.413,1.968-6.816,4.328-10.336,6.424
	c-0.028,0.018-0.081,0.048-0.109,0.065c-0.028,0.018-0.082,0.047-0.109,0.065c-1.851,1.095-3.7,2.116-5.562,2.986
	c-6.294,2.87-12.427,4.907-18.357,6.738c-9.427,2.909-18.203,5.284-26.796,9.821c-4.943,2.655-9.889,5.421-14.805,8.717
	c-6.919,4.561-14.471,5.865-22.053,6.507c-2.2,0.184-4.392,0.316-6.566,0.46c-2.897,0.195-5.905,0.497-9.018,0.933
	c-5.746,0.802-11.529,2.518-17.556,3.592c-1.075,0.212-2.227,0.416-3.423,0.577c-3.475,1.08-7.072,1.893-10.853,2.173
	c-1.139,0.084-2.37,0.158-3.524,0.139c-1.951-0.06-4.089-0.481-6.079-0.425c-0.908,0.023-1.734,0.126-2.648,0.393
	c-1.083,0.75-2.242,1.418-3.465,2.01c-2.716,1.292-5.668,2.221-8.72,2.845c-5.368,1.18-11.232,0.969-16.985,0
	c-3.474-0.585-6.891-1.328-10.051-2.416c-0.008-0.008-0.015-0.016-0.107-0.024c-6.551-1.27-20.484-15.024-24.43-26.489
	c-1.968-5.468-1.531-10.23,3.287-12.381c3.399-0.924,4.54-1.348,4.009-3.03c-0.048-0.159-0.11-0.329-0.186-0.512
	c-0.4-0.796-0.988-1.769-1.741-2.992c-3.296-5.734-2.134-9.816,0.662-13.269c3.488-4.34,9.393-7.487,12.064-11.599
	c0.315-1.614,0.144-3.487-0.903-5.741c-2.264-3.181-2.109-6.288-1.385-9.236c0.774-4.187,2.462-8.412,0.646-12.98
	c-1.52-1.809-3.331-2.704-5.188-3.184c-3.124-0.801-6.484-0.525-9.033-1.328c-5.012-1.048-8.083-5.328-4.852-21.002
	c0.368-4.955-2.2-7.082-4.563-10.719c-0.74-1.242-1.459-2.876-2.029-4.697c-1.819-6.06-2.019-13.995,3.569-16.88
	c7.095-1.191,6.832-2.466,9.595-6.281c0.224-0.385,0.803-0.94,1.111-1.393c0.202-0.293,0.419-0.597,0.652-0.912
	c0.552-0.493,1.457-1.213,2.095-1.449c0.662-0.245,1.717-0.718,2.395-0.853c1.709-0.518,3.368-0.945,4.591-2.118
	c0.657-0.629,1.192-1.368,1.642-2.18c1.65-4.538,1.326-11.333,3.976-15.456c2.393-3.802,6.54-6.792,10.868-7.385
	c1.774-0.243,3.648-0.048,5.286,0.688c2.714,2.76,4.697,3.374,6.364,3.266c1.927-0.125,3.277-1.752,5.47-1.773
	c0.454-0.005,0.951,0.057,1.492,0.208c0.561,0.147,1.163,0.381,1.805,0.722c1.845,1.618,2.008,2.326,3.508,2.407
	c0.583,0.031,1.249-0.007,2.249-0.044c2.501-0.571,4.992-0.84,7.458-0.885c0.035-0.005,0.069-0.009,0.104-0.014
	c3.576-0.472,7.183-0.456,10.794-0.168c0.86-0.045,1.722-0.08,2.584-0.108c3.033-0.102,6.053-0.155,9.142-0.181
	c0.432-0.004,0.948-0.007,1.296-0.01c1.675-0.01,3.2-0.222,4.61-0.59c1.552-0.533,4.218-1.402,5.403-2.465
	c0.338-0.33,0.67-0.672,0.988-1.013c3.989-4.242,7.224-10.213,12.585-13.592C182.844,90.56,184.466,90.175,185.962,90.175"/>
<path class="st1" d="M185.728,87.444L185.728,87.444c2.754,0,4.721,1.672,7.24,1.822c0.221,0.013,0.52,0.03,0.738,0.046
	c0.566-0.036,1.104-0.091,1.618-0.148c1.232-0.267,2.41-0.532,3.579-0.532c1.453,0,2.899,0.434,4.415,2.021
	c3.969,5.024,1.669,12.178,7.902,13.1c1.132-0.14,2.529-0.424,4.112-0.849c0.599,0.095,1.55,0.125,1.974,0.28
	c0.653,0.239,1.635,0.423,2.168,0.423c0.693-0.023,1.376-0.28,2.291-0.934c1.829-1.235,2.661-2.699,3.383-4.114
	c0.03-0.148,0.207-0.295,0.236-0.441c0.022-0.112,0.158-0.224,0.181-0.335c0.937-2.242,2.052-4.24,5.463-5.237
	c5.199-0.824,8.618-0.355,12.738-1.297c1.842-0.395,3.782-1.019,6.004-2.084c1.913-0.872,3.803-1.148,5.512-0.996
	c5.403,0.498,10.246,4.814,14.116,8.789c1.847,0.954,3.104,2.339,4.129,3.841c2.287,2.044,3.844,4.809,8.284,5.506
	c0.415-0.032,0.83,0.015,1.248-0.012c3.492-0.229,6.111-2.116,8.615-4.296c3.869-3.469,7.261-7.744,13.177-7.087
	c2.726,0.303,5.988,1.622,9.87,4.31c0.026,0.018,0.077,0.054,0.104,0.072c0.027,0.018,0.077,0.054,0.104,0.073
	c16.516,11.807,27.003,20.451,31.09,34.143c2.526,8.113,2.598,17.528,0.739,29.265c-0.27,6.154,0.352,13.273,0.583,20.275
	c0.254,2.948,0.552,6.227,0.655,9.321c0.271,9.632-1.41,18.643-10.283,23.745c-3.291,3.279-4.616,6.277-7.441,10.374
	c-2.038,2.888-4.462,5.218-7.223,7.052c-6.411,7.628-15.266,10.167-23.008,12.254c-0.009,0.002-0.028,0.007-0.037,0.01
	c-0.009,0.002-0.028,0.007-0.037,0.01c-2.391,0.642-5.231,2.132-7.765,3.612c-3.457,2.01-6.933,4.411-10.553,6.537
	c-0.027,0.017-0.085,0.049-0.112,0.066s-0.085,0.049-0.112,0.065c-1.896,1.106-3.788,2.135-5.69,3.016
	c-6.441,2.915-12.705,4.982-18.738,6.843c-9.673,2.98-18.58,5.408-27.284,10.132c-5.044,2.791-10.102,5.595-15.125,8.847
	c-7.139,4.524-14.871,5.797-22.56,6.436c-2.253,0.184-4.489,0.318-6.698,0.469c-2.931,0.203-5.995,0.544-9.188,1.02
	c-5.855,0.866-11.839,2.627-18.124,3.65c-1.098,0.202-2.29,0.396-3.538,0.541c-3.554,1.173-7.253,2.061-11.153,2.411
	c-1.174,0.104-2.437,0.197-3.63,0.199c-2.013-0.025-4.212-0.402-6.273-0.332c-0.934,0.029-1.793,0.133-2.735,0.391
	c-1.141,0.721-2.356,1.36-3.634,1.924c-2.848,1.231-5.911,2.1-9.054,2.666c-5.525,1.096-11.528,0.699-17.45-0.52
	c-3.516-0.724-6.989-1.61-10.214-2.87c-0.01-0.01-0.019-0.02-0.109-0.03c-6.601-1.587-20.496-15.446-24.368-27.208
	c-1.916-5.518-1.471-10.355,3.213-12.68c3.278-0.999,4.419-1.517,3.979-3.227c-0.039-0.163-0.091-0.335-0.157-0.52
	c-0.389-0.832-0.953-1.831-1.669-3.07c-3.138-5.757-1.961-9.936,0.838-13.492c3.503-4.49,9.387-7.735,12.157-11.833
	c0.155-1.58-0.134-3.423-1.241-5.635c-2.381-3.163-2.387-6.285-1.793-9.213c0.553-4.224,2.053-8.508,0.269-13.131
	c-1.476-1.861-3.213-2.855-4.986-3.455c-2.981-1.002-6.155-0.981-8.541-1.985c-5.015-1.31-8.153-5.835-5.164-21.253
	c0.31-4.943-2.15-7.203-4.379-10.899c-0.696-1.282-1.364-2.937-1.884-4.77c-1.648-6.132-1.66-14.007,3.91-17.002
	c6.92-1.296,6.862-2.642,9.711-6.37c0.213-0.366,0.86-0.936,1.153-1.368c0.204-0.297,0.423-0.603,0.659-0.921
	c0.526-0.47,1.475-1.273,2.082-1.497c0.63-0.233,1.744-0.781,2.39-0.91c1.704-0.562,3.362-1.026,4.604-2.194
	c0.672-0.629,1.227-1.359,1.701-2.156c1.616-4.576,1.388-11.348,4.097-15.564c2.442-3.878,6.601-6.941,10.96-7.681
	c1.792-0.304,3.685-0.186,5.357,0.459c2.742,2.55,4.796,3.07,6.556,2.933c1.958-0.152,3.372-1.715,5.588-1.741
	c0.466-0.007,0.973,0.051,1.522,0.196c0.578,0.14,1.194,0.365,1.849,0.692c1.856,1.547,2.11,2.234,3.635,2.334
	c0.604,0.04,1.286,0.016,2.286-0.005c2.545-0.495,5.074-0.683,7.568-0.639c0.035-0.004,0.071-0.009,0.106-0.013
	c3.64-0.449,7.311-0.383,10.974-0.011c0.875-0.054,1.751-0.096,2.629-0.131c3.091-0.127,6.167-0.194,9.303-0.227
	c0.44-0.005,0.96-0.009,1.319-0.013c1.698-0.013,3.252-0.215,4.695-0.566c1.478-0.508,4.418-1.336,5.546-2.348
	c0.342-0.34,0.677-0.692,0.998-1.04c3.988-4.289,7.326-10.318,12.843-13.797C182.13,87.901,183.983,87.444,185.728,87.444"/>
<path class="st1" d="M185.493,84.713L185.493,84.713c2.784,0,4.805,1.608,7.328,1.786c0.225,0.016,0.524,0.037,0.746,0.056
	c0.571-0.025,1.114-0.068,1.633-0.112c1.25-0.265,2.457-0.524,3.665-0.524c1.484,0,2.959,0.421,4.498,1.945
	c4.102,4.829,2.223,11.773,8.403,12.88c1.158-0.168,2.574-0.469,4.175-0.899c0.569,0.09,1.588,0.087,1.991,0.234
	c0.62,0.227,1.673,0.389,2.179,0.389c0.712-0.027,1.412-0.276,2.329-0.9c1.872-1.182,2.78-2.575,3.575-3.919
	c0.028-0.14,0.234-0.28,0.261-0.419c0.021-0.106,0.179-0.212,0.201-0.318c1.027-2.22,2.23-4.192,5.619-5.196
	c5.182-0.876,8.685-0.478,12.855-1.374c1.887-0.375,3.861-0.956,6.096-1.944c1.935-0.807,3.844-1.037,5.574-0.855
	c5.483,0.598,10.375,4.897,14.279,8.867c1.848,0.986,3.125,2.381,4.172,3.881c2.347,1.8,4.036,4.299,8.504,4.876
	c0.417-0.039,0.836-0.002,1.257-0.035c3.496-0.273,6.182-2.095,8.78-4.166c3.995-3.296,7.546-7.296,13.49-6.514
	c2.781,0.366,6.067,1.733,9.944,4.419c0.025,0.017,0.08,0.055,0.105,0.073c0.025,0.018,0.079,0.056,0.105,0.074
	c16.622,11.882,27.394,20.72,31.749,34.645c2.725,8.338,2.899,17.939,1.126,29.725c-0.261,6.313,0.265,13.533,0.402,20.615
	c0.244,2.961,0.557,6.319,0.681,9.477c0.327,9.729-1.191,18.945-9.757,24.457c-3.229,3.615-4.7,6.893-7.689,11.129
	c-2.178,3.015-4.781,5.447-7.756,7.348c-6.771,8.332-16.233,11.027-24.22,13.18c-0.008,0.002-0.029,0.008-0.037,0.01
	c-0.008,0.002-0.029,0.008-0.037,0.01c-2.376,0.638-5.313,2.21-7.895,3.73c-3.501,2.052-7.049,4.494-10.77,6.651
	c-0.025,0.016-0.089,0.051-0.114,0.066c-0.025,0.016-0.089,0.05-0.114,0.066c-1.94,1.116-3.875,2.154-5.818,3.046
	c-6.587,2.959-12.984,5.058-19.118,6.947c-9.918,3.051-18.957,5.531-27.772,10.442c-5.146,2.927-10.315,5.77-15.446,8.977
	c-7.36,4.487-15.27,5.729-23.066,6.364c-2.305,0.184-4.585,0.321-6.829,0.478c-2.966,0.212-6.084,0.592-9.359,1.108
	c-5.964,0.929-12.149,2.736-18.692,3.707c-1.12,0.192-2.354,0.376-3.653,0.506c-3.634,1.265-7.435,2.229-11.453,2.649
	c-1.209,0.125-2.505,0.237-3.736,0.258c-2.076,0.01-4.334-0.322-6.468-0.238c-0.961,0.035-1.851,0.14-2.823,0.389
	c-1.199,0.692-2.47,1.303-3.803,1.838c-2.98,1.169-6.154,1.98-9.387,2.486c-5.682,1.013-11.824,0.433-17.915-1.041
	c-3.558-0.861-7.087-1.892-10.376-3.324c-0.012-0.012-0.023-0.024-0.111-0.036c-6.652-1.905-20.508-15.869-24.305-27.927
	c-1.864-5.569-1.411-10.48,3.14-12.978c3.158-1.074,4.297-1.686,3.949-3.425c-0.03-0.166-0.073-0.342-0.128-0.528
	c-0.378-0.867-0.918-1.894-1.598-3.147c-2.979-5.78-1.787-10.056,1.014-13.716c3.517-4.639,9.382-7.984,12.25-12.068
	c-0.004-1.547-0.412-3.359-1.58-5.529c-2.498-3.145-2.666-6.281-2.201-9.191c0.332-4.261,1.644-8.604-0.108-13.282
	c-1.431-1.913-3.096-3.006-4.783-3.726c-2.837-1.202-5.826-1.437-8.049-2.643c-5.018-1.572-8.224-6.343-5.477-21.503
	c0.252-4.932-2.1-7.323-4.195-11.079c-0.651-1.322-1.27-2.998-1.74-4.842c-1.477-6.204-1.302-14.019,4.25-17.124
	c6.745-1.401,6.892-2.818,9.827-6.458c0.202-0.348,0.916-0.933,1.196-1.342c0.207-0.3,0.428-0.609,0.666-0.93
	c0.5-0.446,1.492-1.332,2.069-1.546c0.599-0.221,1.771-0.844,2.384-0.966c1.7-0.606,3.357-1.108,4.617-2.269
	c0.686-0.628,1.263-1.35,1.76-2.132c1.582-4.614,1.451-11.364,4.217-15.672c2.49-3.954,6.661-7.091,11.052-7.977
	c1.811-0.366,3.722-0.323,5.429,0.231c2.77,2.34,4.895,2.766,6.747,2.6c1.99-0.179,3.466-1.678,5.705-1.709
	c0.478-0.008,0.995,0.046,1.552,0.183c0.594,0.133,1.225,0.348,1.893,0.662c1.867,1.477,2.212,2.142,3.762,2.261
	c0.625,0.048,1.323,0.039,2.323,0.034c2.589-0.42,5.155-0.526,7.677-0.393c0.036-0.004,0.072-0.008,0.108-0.013
	c3.704-0.427,7.439-0.31,11.153,0.146c0.89-0.062,1.781-0.113,2.673-0.154c3.15-0.152,6.28-0.232,9.464-0.272
	c0.448-0.006,0.972-0.011,1.343-0.015c1.721-0.015,3.304-0.209,4.78-0.542c1.404-0.482,4.618-1.269,5.69-2.23
	c0.345-0.35,0.684-0.711,1.008-1.067c3.987-4.337,7.429-10.422,13.102-14.002C181.417,85.241,183.499,84.713,185.493,84.713"/>
<path class="st1" d="M185.259,81.982L185.259,81.982c2.815,0,4.889,1.545,7.416,1.75c0.229,0.019,0.528,0.043,0.754,0.065
	c0.576-0.014,1.124-0.045,1.647-0.076c1.267-0.262,2.504-0.516,3.75-0.516c1.514,0,3.018,0.408,4.581,1.869
	c4.236,4.634,2.777,11.369,8.903,12.659c1.184-0.196,2.62-0.514,4.237-0.949c0.539,0.085,1.627,0.049,2.009,0.189
	c0.587,0.215,1.71,0.355,2.19,0.355c0.731-0.032,1.447-0.272,2.367-0.867c1.914-1.13,2.899-2.451,3.767-3.725
	c0.027-0.133,0.26-0.265,0.287-0.397c0.02-0.101,0.199-0.201,0.22-0.301c1.117-2.198,2.408-4.144,5.775-5.155
	c5.164-0.928,8.751-0.602,12.972-1.45c1.932-0.355,3.939-0.892,6.188-1.804c1.958-0.741,3.885-0.927,5.636-0.714
	c5.564,0.698,10.504,4.98,14.442,8.945c1.85,1.018,3.147,2.423,4.214,3.92c2.408,1.557,4.229,3.789,8.724,4.246
	c0.42-0.045,0.842-0.019,1.267-0.057c3.5-0.318,6.253-2.074,8.945-4.037c4.122-3.122,7.831-6.845,13.803-5.941
	c2.835,0.43,6.146,1.845,10.018,4.529c0.024,0.016,0.082,0.057,0.106,0.073c0.024,0.017,0.082,0.057,0.105,0.074
	c16.727,11.958,27.784,20.989,32.408,35.146c2.924,8.564,3.199,18.349,1.513,30.185c-0.252,6.473,0.178,13.794,0.222,20.955
	c0.234,2.974,0.561,6.411,0.706,9.633c0.383,9.826-0.972,19.248-9.231,25.17c-3.167,3.951-4.783,7.508-7.937,11.884
	c-2.318,3.142-5.1,5.676-8.29,7.643c-7.13,9.036-17.2,11.887-25.433,14.107c-0.008,0.002-0.03,0.008-0.038,0.01
	c-0.008,0.002-0.03,0.008-0.038,0.01c-2.361,0.633-5.395,2.288-8.025,3.848c-3.546,2.094-7.166,4.578-10.987,6.765
	c-0.024,0.015-0.093,0.052-0.117,0.067s-0.093,0.051-0.117,0.066c-1.984,1.126-3.962,2.172-5.946,3.076
	c-6.733,3.004-13.262,5.133-19.498,7.051c-10.164,3.122-19.333,5.654-28.261,10.752c-5.247,3.063-10.527,5.944-15.766,9.106
	c-7.581,4.45-15.67,5.661-23.573,6.292c-2.357,0.185-4.681,0.323-6.961,0.488c-3,0.221-6.173,0.639-9.53,1.196
	c-6.073,0.993-12.459,2.844-19.26,3.765c-1.143,0.182-2.417,0.356-3.769,0.471c-3.714,1.358-7.617,2.397-11.753,2.887
	c-1.244,0.146-2.572,0.276-3.842,0.318c-2.139,0.045-4.456-0.243-6.663-0.145c-0.988,0.041-1.91,0.146-2.91,0.387
	c-1.256,0.662-2.583,1.245-3.972,1.752c-3.112,1.107-6.397,1.859-9.721,2.307c-5.84,0.929-12.12,0.171-18.38-1.562
	c-3.601-0.996-7.184-2.174-10.539-3.778c-0.013-0.014-0.027-0.028-0.112-0.042c-6.703-2.222-20.521-16.291-24.242-28.646
	c-1.811-5.619-1.351-10.605,3.066-13.277c3.037-1.149,4.176-1.856,3.919-3.622c-0.021-0.17-0.054-0.348-0.099-0.536
	c-0.367-0.903-0.883-1.957-1.526-3.225c-2.821-5.803-1.614-10.176,1.19-13.94c3.531-4.788,9.376-8.233,12.343-12.302
	c-0.164-1.514-0.69-3.295-1.918-5.423c-2.615-3.127-2.944-6.277-2.609-9.169c0.111-4.298,1.234-8.701-0.485-13.433
	c-1.386-1.965-2.979-3.157-4.58-3.997c-2.693-1.403-5.497-1.893-7.558-3.3c-5.021-1.834-8.294-6.85-5.79-21.754
	c0.194-4.921-2.05-7.444-4.01-11.259c-0.607-1.362-1.175-3.059-1.595-4.915c-1.306-6.277-0.944-14.031,4.591-17.246
	c6.569-1.506,6.923-2.994,9.942-6.546c0.192-0.33,0.973-0.929,1.238-1.317c0.209-0.303,0.433-0.616,0.673-0.939
	c0.473-0.423,1.51-1.392,2.057-1.594c0.567-0.21,1.798-0.907,2.379-1.023c1.695-0.65,3.351-1.19,4.63-2.344
	c0.701-0.628,1.298-1.341,1.819-2.109c1.548-4.651,1.514-11.379,4.338-15.78c2.539-4.029,6.722-7.241,11.144-8.274
	c1.829-0.427,3.759-0.46,5.5,0.003c2.799,2.131,4.994,2.463,6.938,2.266c2.022-0.205,3.56-1.641,5.823-1.677
	c0.49-0.01,1.017,0.041,1.582,0.171c0.611,0.126,1.257,0.331,1.937,0.632c1.878,1.406,2.314,2.05,3.89,2.187
	c0.646,0.056,1.361,0.062,2.36,0.073c2.633-0.345,5.237-0.37,7.787-0.147c0.037-0.004,0.073-0.008,0.11-0.012
	c3.768-0.404,7.566-0.238,11.333,0.304c0.905-0.071,1.811-0.129,2.717-0.177c3.208-0.178,6.393-0.271,9.624-0.318
	c0.456-0.007,0.984-0.013,1.367-0.018c1.744-0.018,3.356-0.202,4.864-0.518c1.331-0.457,4.817-1.202,5.833-2.113
	c0.349-0.36,0.692-0.731,1.018-1.093c3.986-4.385,7.532-10.526,13.36-14.207C180.703,82.581,183.016,81.982,185.259,81.982"/>
<path class="st1" d="M185.024,79.25L185.024,79.25c2.846,0,4.974,1.482,7.504,1.715c0.233,0.021,0.532,0.049,0.761,0.074
	c0.581-0.003,1.134-0.021,1.662-0.04c1.284-0.26,2.551-0.508,3.835-0.508c1.545,0,3.078,0.394,4.664,1.793
	c4.37,4.438,3.331,10.964,9.404,12.439c1.211-0.224,2.666-0.559,4.299-0.998c0.509,0.08,1.665,0.011,2.026,0.143
	c0.555,0.203,1.748,0.321,2.202,0.321c0.749-0.036,1.482-0.268,2.406-0.834c1.957-1.077,3.018-2.327,3.958-3.53
	c0.025-0.126,0.287-0.251,0.312-0.375c0.019-0.095,0.22-0.19,0.239-0.284c1.207-2.176,2.587-4.096,5.931-5.114
	c5.147-0.98,8.817-0.725,13.088-1.527c1.976-0.336,4.017-0.828,6.28-1.663c1.98-0.676,3.926-0.817,5.699-0.573
	c5.645,0.797,10.633,5.063,14.605,9.022c1.851,1.05,3.169,2.465,4.257,3.959c2.469,1.313,4.421,3.279,8.944,3.616
	c0.423-0.052,0.848-0.035,1.277-0.079c3.503-0.362,6.325-2.053,9.11-3.907c4.249-2.949,8.117-6.393,14.116-5.367
	c2.889,0.494,6.225,1.957,10.092,4.638c0.022,0.016,0.084,0.058,0.107,0.074c0.023,0.016,0.084,0.059,0.106,0.075
	c16.833,12.033,28.175,21.258,33.067,35.647c3.124,8.79,3.499,18.76,1.9,30.646c-0.244,6.633,0.09,14.055,0.042,21.296
	c0.224,2.987,0.565,6.503,0.732,9.789c0.439,9.923-0.753,19.55-8.705,25.882c-3.105,4.286-4.866,8.124-8.185,12.639
	c-2.457,3.269-5.419,5.905-8.824,7.938c-7.49,9.739-18.168,12.747-26.645,15.033c-0.007,0.002-0.031,0.008-0.039,0.01
	c-0.007,0.002-0.032,0.008-0.039,0.01c-2.347,0.629-5.478,2.366-8.154,3.966c-3.59,2.136-7.283,4.661-11.204,6.879
	c-0.023,0.014-0.096,0.053-0.119,0.068c-0.023,0.014-0.097,0.053-0.119,0.067c-2.029,1.137-4.05,2.191-6.074,3.106
	c-6.88,3.048-13.541,5.209-19.879,7.155c-10.41,3.193-19.71,5.778-28.749,11.063c-5.349,3.2-10.74,6.118-16.087,9.236
	c-7.802,4.414-16.069,5.593-24.079,6.221c-2.409,0.185-4.777,0.326-7.093,0.497c-3.034,0.23-6.263,0.686-9.701,1.283
	c-6.182,1.057-12.769,2.953-19.828,3.822c-1.165,0.172-2.481,0.336-3.884,0.436c-3.793,1.45-7.798,2.565-12.053,3.125
	c-1.278,0.167-2.64,0.316-3.948,0.378c-2.201,0.08-4.579-0.163-6.857-0.051c-1.015,0.047-1.969,0.153-2.997,0.385
	c-1.314,0.633-2.697,1.187-4.141,1.666c-3.244,1.046-6.64,1.739-10.054,2.128c-5.997,0.845-12.416-0.089-18.845-2.082
	c-3.643-1.13-7.282-2.456-10.702-4.232c-0.015-0.016-0.031-0.032-0.114-0.048c-6.753-2.54-20.533-16.713-24.179-29.365
	c-1.759-5.67-1.291-10.73,2.992-13.575c2.917-1.224,4.055-2.025,3.889-3.82c-0.012-0.173-0.035-0.354-0.07-0.544
	c-0.356-0.938-0.848-2.02-1.455-3.302c-2.662-5.826-1.441-10.296,1.366-14.164c3.546-4.938,9.37-8.481,12.435-12.537
	c-0.324-1.481-0.969-3.231-2.256-5.317c-2.732-3.109-3.223-6.274-3.017-9.146c-0.11-4.334,0.825-8.797-0.862-13.584
	c-1.341-2.018-2.861-3.308-4.377-4.268c-2.549-1.603-5.168-2.349-7.066-3.957c-5.024-2.096-8.365-7.357-6.103-22.005
	c0.136-4.909-1.999-7.564-3.826-11.439c-0.562-1.402-1.081-3.12-1.451-4.987c-1.135-6.349-0.586-14.043,4.931-17.368
	c6.394-1.611,6.953-3.17,10.058-6.634c0.181-0.312,1.03-0.926,1.28-1.292c0.212-0.306,0.438-0.622,0.68-0.947
	c0.447-0.399,1.527-1.451,2.044-1.642c0.536-0.198,1.825-0.97,2.374-1.079c1.69-0.694,3.345-1.272,4.643-2.42
	c0.716-0.628,1.333-1.332,1.878-2.085c1.514-4.689,1.577-11.395,4.459-15.888c2.587-4.105,6.782-7.392,11.236-8.57
	c1.848-0.489,3.796-0.597,5.571-0.225c2.827,1.921,5.094,2.161,7.129,1.933c2.053-0.23,3.655-1.604,5.94-1.646
	c0.502-0.011,1.04,0.036,1.612,0.159c0.628,0.119,1.288,0.314,1.981,0.602c1.89,1.336,2.416,1.959,4.017,2.114
	c0.667,0.065,1.398,0.086,2.398,0.112c2.677-0.269,5.319-0.213,7.896,0.1c0.037-0.004,0.075-0.008,0.112-0.011
	c3.833-0.382,7.694-0.165,11.512,0.461c0.92-0.079,1.841-0.145,2.761-0.2c3.266-0.203,6.507-0.31,9.785-0.363
	c0.464-0.008,0.996-0.014,1.391-0.02c1.767-0.02,3.408-0.196,4.949-0.494c1.257-0.432,5.017-1.135,5.976-1.996
	c0.352-0.37,0.699-0.751,1.027-1.12c3.984-4.433,7.634-10.631,13.618-14.412C179.989,79.921,182.532,79.25,185.024,79.25"/>
<path class="st1" d="M184.79,76.519L184.79,76.519c2.877,0,5.058,1.419,7.592,1.679c0.237,0.024,0.536,0.055,0.769,0.083
	c0.586,0.008,1.144,0.002,1.676-0.004c1.302-0.257,2.598-0.5,3.92-0.5c1.576,0,3.138,0.381,4.747,1.717
	c4.503,4.243,3.884,10.56,9.904,12.219c1.237-0.252,2.711-0.604,4.362-1.048c0.479,0.076,1.704-0.027,2.043,0.097
	c0.522,0.191,1.786,0.287,2.213,0.287c0.768-0.041,1.518-0.264,2.444-0.801c2-1.025,3.137-2.203,4.15-3.335
	c0.024-0.118,0.314-0.236,0.337-0.353c0.018-0.09,0.24-0.179,0.259-0.268c1.297-2.154,2.765-4.048,6.087-5.073
	c5.129-1.032,8.883-0.849,13.205-1.603c2.021-0.316,4.096-0.764,6.371-1.523c2.003-0.61,3.967-0.71,5.761-0.432
	c5.727,0.886,10.762,5.146,14.768,9.1c1.853,1.083,3.191,2.507,4.299,3.999c2.529,1.069,4.614,2.769,9.164,2.986
	c0.426-0.058,0.854-0.052,1.286-0.102c3.507-0.405,6.396-2.032,9.276-3.777c4.376-2.775,8.402-5.939,14.429-4.794
	c2.943,0.559,6.303,2.068,10.166,4.748c0.021,0.015,0.086,0.06,0.107,0.075c0.021,0.015,0.086,0.061,0.107,0.076
	c16.938,12.108,28.565,21.527,33.726,36.149c3.323,9.016,3.8,19.17,2.286,31.106c-0.235,6.792,0.003,14.316-0.139,21.636
	c0.214,3,0.57,6.596,0.757,9.944c0.495,10.02-0.534,19.853-8.179,26.594c-3.043,4.622-4.95,8.739-8.433,13.393
	c-2.597,3.397-5.738,6.135-9.357,8.233c-7.85,10.443-19.135,13.606-27.858,15.959c-0.007,0.002-0.033,0.009-0.04,0.011
	c-0.007,0.002-0.033,0.009-0.04,0.011c-2.332,0.625-5.56,2.443-8.284,4.084c-3.634,2.178-7.4,4.745-11.421,6.992
	c-0.021,0.013-0.1,0.055-0.121,0.068c-0.021,0.013-0.101,0.054-0.122,0.068c-2.073,1.147-4.137,2.21-6.202,3.135
	c-7.026,3.093-13.819,5.284-20.259,7.259c-10.655,3.264-20.086,5.901-29.238,11.373c-5.451,3.336-10.952,6.293-16.408,9.365
	c-8.022,4.377-16.469,5.525-24.586,6.149c-2.461,0.185-4.873,0.328-7.225,0.506c-3.068,0.238-6.352,0.733-9.872,1.371
	c-6.291,1.12-13.078,3.062-20.396,3.88c-1.187,0.162-2.544,0.317-3.999,0.401c-3.873,1.543-7.98,2.733-12.353,3.363
	c-1.313,0.188-2.707,0.355-4.054,0.438c-2.264,0.115-4.701-0.083-7.052,0.043c-1.042,0.053-2.027,0.159-3.084,0.383
	c-1.371,0.604-2.811,1.129-4.309,1.579c-3.376,0.984-6.883,1.618-10.388,1.948c-6.155,0.762-12.713-0.346-19.31-2.603
	c-3.686-1.261-7.38-2.738-10.864-4.686c-0.017-0.018-0.035-0.036-0.116-0.054c-6.804-2.857-20.546-17.136-24.116-30.084
	c-1.707-5.72-1.231-10.855,2.918-13.874c2.796-1.299,3.934-2.194,3.859-4.017c-0.003-0.176-0.017-0.36-0.041-0.552
	c-0.345-0.974-0.812-2.082-1.383-3.38c-2.504-5.849-1.267-10.416,1.542-14.387c3.56-5.087,9.365-8.73,12.528-12.771
	c-0.484-1.447-1.247-3.167-2.594-5.211c-2.848-3.092-3.502-6.27-3.425-9.124c-0.331-4.371,0.416-8.893-1.239-13.736
	c-1.296-2.07-2.744-3.459-4.174-4.539c-2.405-1.803-4.839-2.805-6.574-4.614c-5.027-2.358-8.436-7.864-6.416-22.255
	c0.078-4.898-1.949-7.685-3.642-11.619c-0.518-1.442-0.987-3.181-1.306-5.059c-0.964-6.422-0.228-14.056,5.272-17.49
	c6.219-1.716,6.983-3.346,10.173-6.722c0.17-0.293,1.087-0.922,1.322-1.267c0.215-0.309,0.443-0.628,0.687-0.956
	c0.421-0.376,1.545-1.511,2.031-1.69c0.504-0.186,1.853-1.033,2.369-1.136c1.686-0.738,3.339-1.353,4.656-2.495
	c0.731-0.627,1.368-1.323,1.937-2.061c1.48-4.727,1.64-11.41,4.579-15.996c2.635-4.18,6.843-7.543,11.328-8.866
	c1.866-0.551,3.833-0.734,5.643-0.453c2.855,1.711,5.193,1.859,7.32,1.599c2.085-0.254,3.749-1.567,6.058-1.614
	c0.514-0.012,1.062,0.031,1.642,0.146c0.644,0.112,1.32,0.298,2.025,0.571c1.901,1.265,2.518,1.868,4.144,2.041
	c0.688,0.073,1.435,0.109,2.435,0.151c2.721-0.194,5.401-0.056,8.006,0.346c0.038-0.004,0.076-0.007,0.114-0.011
	c3.897-0.359,7.822-0.092,11.692,0.618c0.935-0.087,1.87-0.161,2.805-0.223c3.325-0.229,6.62-0.349,9.945-0.408
	c0.472-0.009,1.008-0.016,1.415-0.023c1.79-0.023,3.46-0.189,5.034-0.47c1.183-0.406,5.217-1.068,6.12-1.878
	c0.356-0.38,0.707-0.77,1.037-1.146c3.983-4.48,7.737-10.735,13.877-14.617C179.275,77.261,182.049,76.519,184.79,76.519"/>
<path class="st1" d="M184.555,73.788L184.555,73.788c2.907,0,5.142,1.357,7.68,1.643c0.242,0.027,0.54,0.061,0.777,0.093
	c0.591,0.019,1.154,0.025,1.69,0.032c1.319-0.255,2.645-0.491,4.005-0.491c1.606,0,3.198,0.368,4.83,1.641
	c4.637,4.048,4.438,10.155,10.405,11.999c1.263-0.28,2.757-0.649,4.424-1.098c0.449,0.071,1.742-0.065,2.061,0.052
	c0.489,0.179,1.824,0.253,2.224,0.253c0.786-0.045,1.553-0.261,2.482-0.768c2.043-0.972,3.256-2.079,4.342-3.14
	c0.022-0.111,0.34-0.221,0.362-0.331c0.017-0.084,0.261-0.168,0.278-0.251c1.387-2.132,2.943-3.999,6.244-5.032
	c5.112-1.084,8.949-0.973,13.321-1.68c2.065-0.296,4.174-0.7,6.463-1.383c2.025-0.545,4.008-0.599,5.824-0.291
	c5.808,0.985,10.891,5.229,14.931,9.178c1.854,1.115,3.212,2.548,4.342,4.038c2.59,0.825,4.806,2.26,9.384,2.356
	c0.429-0.065,0.861-0.069,1.296-0.124c3.51-0.449,6.467-2.012,9.441-3.647c4.503-2.602,8.687-5.484,14.742-4.22
	c2.997,0.625,6.382,2.18,10.239,4.857c0.02,0.014,0.088,0.062,0.108,0.075c0.02,0.014,0.088,0.062,0.108,0.076
	c17.044,12.184,28.956,21.796,34.385,36.65c3.522,9.241,4.1,19.581,2.673,31.566c-0.227,6.952-0.084,14.576-0.319,21.976
	c0.204,3.013,0.574,6.688,0.783,10.1c0.551,10.117-0.315,20.155-7.653,27.306c-2.981,4.958-5.033,9.355-8.681,14.148
	c-2.737,3.524-6.057,6.364-9.891,8.528c-8.21,11.147-20.102,14.466-29.07,16.885c-0.007,0.002-0.034,0.009-0.04,0.011
	c-0.007,0.002-0.034,0.009-0.041,0.011c-2.317,0.621-5.642,2.521-8.414,4.203c-3.679,2.22-7.516,4.828-11.638,7.106
	c-0.02,0.013-0.104,0.056-0.124,0.069s-0.104,0.056-0.124,0.068c-2.117,1.157-4.225,2.228-6.33,3.165
	c-7.173,3.138-14.098,5.36-20.64,7.364c-10.901,3.335-20.463,6.024-29.726,11.684c-5.552,3.472-11.165,6.467-16.728,9.495
	c-8.243,4.34-16.869,5.457-25.092,6.077c-2.514,0.185-4.969,0.331-7.357,0.515c-3.102,0.247-6.441,0.78-10.042,1.458
	c-6.4,1.184-13.388,3.171-20.964,3.938c-1.21,0.151-2.608,0.297-4.114,0.366c-3.953,1.636-8.162,2.901-12.653,3.601
	c-1.348,0.209-2.775,0.395-4.16,0.497c-2.326,0.15-4.823-0.004-7.247,0.136c-1.069,0.059-2.086,0.166-3.171,0.381
	c-1.429,0.574-2.925,1.071-4.478,1.493c-3.508,0.923-7.125,1.498-10.722,1.769c-6.312,0.678-13.012-0.6-19.775-3.124
	c-3.729-1.392-7.478-3.02-11.027-5.14c-0.019-0.02-0.038-0.04-0.118-0.06c-6.855-3.175-20.558-17.558-24.053-30.803
	c-1.655-5.771-1.171-10.98,2.845-14.173c2.675-1.374,3.813-2.363,3.829-4.215c0.006-0.18,0.002-0.366-0.012-0.56
	c-0.334-1.009-0.777-2.145-1.312-3.458c-2.345-5.872-1.094-10.536,1.718-14.611c3.574-5.237,9.359-8.978,12.621-13.005
	c-0.643-1.414-1.525-3.103-2.932-5.105c-2.965-3.074-3.78-6.266-3.833-9.102c-0.552-4.408,0.007-8.989-1.615-13.887
	c-1.251-2.122-2.627-3.61-3.971-4.81c-2.261-2.004-4.509-3.262-6.082-5.271c-5.03-2.62-8.506-8.371-6.729-22.506
	c0.02-4.887-1.899-7.805-3.458-11.799c-0.473-1.482-0.892-3.242-1.162-5.132c-0.793-6.494,0.13-14.068,5.612-17.612
	c6.043-1.821,7.013-3.522,10.289-6.81c0.16-0.275,1.144-0.918,1.365-1.242c0.217-0.312,0.448-0.634,0.693-0.965
	c0.394-0.352,1.562-1.57,2.018-1.738c0.473-0.175,1.88-1.096,2.364-1.192c1.681-0.782,3.334-1.435,4.669-2.57
	c0.746-0.627,1.404-1.314,1.996-2.037c1.446-4.765,1.702-11.426,4.7-16.104c2.684-4.256,6.903-7.694,11.42-9.162
	c1.885-0.613,3.87-0.871,5.714-0.681c2.884,1.501,5.292,1.558,7.511,1.266c2.117-0.278,3.844-1.53,6.175-1.582
	c0.526-0.014,1.084,0.026,1.673,0.134c0.661,0.105,1.351,0.281,2.069,0.541c1.912,1.195,2.62,1.777,4.271,1.968
	c0.709,0.082,1.472,0.132,2.472,0.19c2.765-0.119,5.483,0.101,8.115,0.592c0.038-0.003,0.077-0.007,0.116-0.01
	c3.961-0.337,7.949-0.02,11.872,0.775c0.95-0.096,1.9-0.177,2.849-0.246c3.383-0.254,6.734-0.387,10.106-0.454
	c0.48-0.01,1.02-0.018,1.439-0.025c1.813-0.025,3.512-0.183,5.119-0.446c1.109-0.381,5.417-1.002,6.263-1.761
	c0.359-0.389,0.714-0.79,1.047-1.173c3.982-4.528,7.839-10.84,14.135-14.822C178.561,74.601,181.565,73.788,184.555,73.788"/>
<path class="st1" d="M184.321,71.057L184.321,71.057c2.938,0,5.227,1.296,7.768,1.608c0.246,0.03,0.544,0.067,0.784,0.102
	c0.596,0.029,1.164,0.048,1.705,0.067c1.336-0.252,2.692-0.483,4.09-0.483c1.637,0,3.257,0.355,4.913,1.566
	c4.771,3.853,4.992,9.751,10.905,11.779c1.29-0.308,2.803-0.694,4.487-1.148c0.419,0.066,1.781-0.103,2.078,0.006
	c0.457,0.167,1.862,0.219,2.235,0.219c0.805-0.05,1.588-0.257,2.52-0.734c2.086-0.92,3.375-1.954,4.534-2.945
	c0.021-0.103,0.367-0.206,0.388-0.309c0.016-0.078,0.281-0.156,0.297-0.234c1.478-2.11,3.122-3.951,6.4-4.991
	c5.094-1.136,9.016-1.096,13.438-1.756c2.11-0.276,4.252-0.636,6.555-1.243c2.048-0.479,4.048-0.489,5.886-0.151
	c5.889,1.085,11.021,5.311,15.094,9.256c1.856,1.147,3.234,2.59,4.384,4.077c2.65,0.582,4.999,1.75,9.604,1.726
	c0.432-0.071,0.867-0.085,1.305-0.147c3.514-0.492,6.538-1.991,9.606-3.517c4.629-2.429,8.971-5.027,15.055-3.647
	c3.051,0.692,6.461,2.291,10.313,4.967c0.019,0.013,0.091,0.063,0.109,0.076c0.019,0.013,0.09,0.064,0.109,0.077
	c17.149,12.259,29.346,22.065,35.044,37.151c3.721,9.467,4.401,19.992,3.06,32.026c-0.218,7.112-0.172,14.837-0.5,22.316
	c0.194,3.025,0.579,6.78,0.808,10.256c0.607,10.214-0.096,20.457-7.127,28.019c-2.92,5.294-5.116,9.97-8.93,14.903
	c-2.876,3.651-6.376,6.593-10.424,8.824c-8.569,11.85-21.069,15.326-30.283,17.811c-0.006,0.002-0.035,0.009-0.041,0.011
	c-0.006,0.002-0.035,0.009-0.041,0.011c-2.303,0.617-5.724,2.599-8.544,4.321c-3.723,2.262-7.633,4.911-11.855,7.22
	c-0.019,0.012-0.108,0.058-0.126,0.07c-0.019,0.012-0.108,0.057-0.127,0.069c-2.162,1.168-4.312,2.247-6.458,3.195
	c-7.319,3.182-14.376,5.435-21.02,7.468c-11.147,3.405-20.84,6.148-30.214,11.994c-5.654,3.608-11.378,6.642-17.049,9.624
	c-8.464,4.303-17.268,5.389-25.599,6.006c-2.566,0.186-5.066,0.333-7.489,0.524c-3.136,0.256-6.531,0.828-10.213,1.546
	c-6.509,1.248-13.698,3.279-21.532,3.995c-1.232,0.141-2.671,0.277-4.229,0.33c-4.032,1.728-8.343,3.069-12.953,3.839
	c-1.383,0.23-2.842,0.434-4.266,0.557c-2.389,0.186-4.945,0.076-7.441,0.23c-1.096,0.065-2.144,0.173-3.258,0.38
	c-1.486,0.545-3.038,1.013-4.647,1.407c-3.64,0.861-7.368,1.377-11.055,1.59c-6.469,0.594-13.311-0.852-20.24-3.645
	c-3.774-1.521-7.575-3.302-11.19-5.594c-0.021-0.022-0.042-0.044-0.119-0.066c-6.905-3.492-20.57-17.98-23.99-31.521
	c-1.603-5.821-1.111-11.105,2.771-14.471c2.555-1.449,3.692-2.533,3.8-4.413c0.015-0.183,0.02-0.372,0.017-0.568
	c-0.323-1.045-0.742-2.208-1.241-3.535c-2.187-5.895-0.92-10.657,1.894-14.835c3.588-5.386,9.353-9.227,12.714-13.24
	c-0.803-1.381-1.803-3.039-3.271-5c-3.082-3.056-4.059-6.263-4.241-9.079c-0.773-4.445-0.402-9.085-1.992-14.038
	c-1.206-2.174-2.509-3.761-3.768-5.081c-2.117-2.204-4.18-3.718-5.59-5.928c-5.033-2.882-8.577-8.878-7.042-22.756
	c-0.038-4.875-1.849-7.926-3.273-11.979c-0.429-1.522-0.798-3.303-1.018-5.204c-0.622-6.567,0.489-14.08,5.953-17.734
	c5.868-1.926,7.043-3.698,10.405-6.898c0.149-0.257,1.201-0.915,1.407-1.216c0.22-0.315,0.453-0.64,0.7-0.973
	c0.368-0.329,1.58-1.629,2.005-1.787c0.441-0.163,1.907-1.159,2.359-1.249c1.677-0.826,3.328-1.517,4.682-2.645
	c0.761-0.627,1.439-1.305,2.055-2.013c1.412-4.803,1.765-11.441,4.82-16.212c2.732-4.332,6.964-7.846,11.512-9.458
	c1.903-0.675,3.907-1.008,5.786-0.909c2.912,1.291,5.391,1.257,7.702,0.933c2.149-0.302,3.938-1.493,6.293-1.55
	c0.538-0.015,1.106,0.021,1.703,0.122c0.678,0.098,1.383,0.264,2.113,0.511c1.923,1.124,2.722,1.686,4.398,1.894
	c0.73,0.091,1.51,0.155,2.509,0.229c2.809-0.043,5.565,0.257,8.225,0.838c0.039-0.003,0.078-0.006,0.118-0.009
	c4.026-0.314,8.077,0.053,12.051,0.933c0.966-0.104,1.93-0.193,2.894-0.269c3.441-0.279,6.847-0.426,10.267-0.499
	c0.488-0.011,1.032-0.02,1.463-0.028c1.836-0.028,3.564-0.176,5.204-0.422c1.035-0.355,5.617-0.935,6.407-1.643
	c0.363-0.399,0.722-0.81,1.057-1.2c3.981-4.576,7.942-10.944,14.393-15.027C177.847,71.941,181.082,71.057,184.321,71.057"/>
<path class="st1" d="M184.086,68.326L184.086,68.326c2.969,0,5.311,1.235,7.856,1.572c0.25,0.033,0.548,0.073,0.792,0.111
	c0.602,0.04,1.174,0.071,1.719,0.103c1.354-0.25,2.739-0.475,4.175-0.475c1.668,0,3.317,0.341,4.996,1.49
	c4.905,3.658,5.546,9.347,11.405,11.559c1.316-0.336,2.849-0.738,4.549-1.197c0.389,0.061,1.819-0.14,2.095-0.04
	c0.424,0.155,1.9,0.185,2.246,0.185c0.824-0.055,1.623-0.253,2.559-0.701c2.128-0.868,3.494-1.83,4.726-2.75
	c0.019-0.096,0.394-0.191,0.413-0.287c0.015-0.073,0.302-0.145,0.317-0.217c1.568-2.087,3.3-3.903,6.556-4.95
	c5.077-1.187,9.082-1.22,13.555-1.833c2.155-0.257,4.33-0.572,6.647-1.103c2.071-0.414,4.088-0.375,5.948-0.01
	c5.967,1.196,11.15,5.394,15.258,9.334c1.857,1.179,3.256,2.632,4.427,4.117c2.711,0.338,5.191,1.24,9.824,1.096
	c0.435-0.077,0.873-0.102,1.315-0.169c3.518-0.535,6.609-1.97,9.771-3.388c4.756-2.255,9.255-4.569,15.368-3.073
	c3.104,0.76,6.54,2.403,10.387,5.077c0.017,0.012,0.093,0.065,0.11,0.077c0.017,0.012,0.092,0.065,0.11,0.078
	c17.255,12.335,29.737,22.334,35.703,37.653c3.921,9.693,4.701,20.402,3.447,32.487c-0.209,7.271-0.259,15.098-0.68,22.657
	c0.184,3.038,0.583,6.872,0.834,10.412c0.663,10.311,0.123,20.76-6.601,28.731c-2.858,5.63-5.199,10.586-9.178,15.658
	c-3.016,3.779-6.695,6.822-10.958,9.119c-8.929,12.554-22.036,16.186-31.496,18.737c-0.006,0.002-0.036,0.01-0.042,0.011
	c-0.006,0.002-0.036,0.01-0.042,0.011c-2.288,0.612-5.806,2.677-8.673,4.439c-3.767,2.304-7.75,4.995-12.072,7.334
	c-0.017,0.011-0.111,0.059-0.129,0.07s-0.112,0.058-0.129,0.069c-2.206,1.178-4.399,2.266-6.586,3.225
	c-7.465,3.227-14.655,5.511-21.401,7.572c-11.392,3.476-21.216,6.271-30.703,12.305c-5.756,3.744-11.59,6.816-17.369,9.754
	c-8.685,4.267-17.668,5.321-26.105,5.934c-2.618,0.186-5.162,0.336-7.62,0.534c-3.171,0.265-6.62,0.875-10.384,1.633
	c-6.618,1.311-14.008,3.388-22.099,4.053c-1.254,0.131-2.735,0.257-4.344,0.295c-4.112,1.821-8.525,3.237-13.253,4.077
	c-1.418,0.251-2.91,0.474-4.372,0.617c-2.452,0.221-5.068,0.156-7.636,0.324c-1.123,0.07-2.203,0.179-3.345,0.378
	c-1.544,0.516-3.152,0.955-4.816,1.321c-3.772,0.8-7.611,1.257-11.389,1.41c-6.627,0.511-13.611-1.102-20.706-4.165
	c-3.818-1.649-7.673-3.584-11.353-6.048c-0.023-0.024-0.046-0.048-0.121-0.072c-6.956-3.809-20.583-18.402-23.927-32.24
	c-1.551-5.871-1.051-11.23,2.697-14.77c2.434-1.524,3.57-2.702,3.77-4.61c0.024-0.186,0.039-0.378,0.046-0.576
	c-0.312-1.081-0.707-2.27-1.169-3.613c-2.028-5.919-0.747-10.777,2.07-15.058c3.603-5.535,9.348-9.476,12.807-13.474
	c-0.963-1.348-2.082-2.975-3.609-4.894c-3.199-3.038-4.337-6.259-4.649-9.057c-0.994-4.482-0.811-9.182-2.369-14.189
	c-1.161-2.226-2.392-3.912-3.565-5.352c-1.973-2.404-3.851-4.174-5.099-6.585c-5.036-3.144-8.648-9.385-7.355-23.007
	c-0.097-4.864-1.799-8.047-3.089-12.158c-0.384-1.562-0.703-3.364-0.873-5.277c-0.451-6.639,0.847-14.092,6.293-17.856
	c5.693-2.032,7.074-3.874,10.52-6.986c0.138-0.238,1.258-0.911,1.449-1.191c0.222-0.319,0.458-0.646,0.707-0.982
	c0.342-0.305,1.598-1.689,1.993-1.835c0.41-0.151,1.934-1.222,2.353-1.306c1.672-0.869,3.322-1.598,4.695-2.721
	c0.776-0.627,1.474-1.296,2.114-1.989c1.378-4.841,1.828-11.457,4.941-16.32c2.78-4.407,7.024-7.997,11.604-9.755
	c1.922-0.737,3.944-1.145,5.857-1.137c2.941,1.081,5.491,0.957,7.893,0.599c2.18-0.325,4.032-1.456,6.41-1.518
	c0.55-0.016,1.128,0.015,1.733,0.109c0.695,0.091,1.414,0.247,2.157,0.481c1.935,1.054,2.824,1.595,4.525,1.821
	c0.75,0.1,1.547,0.178,2.547,0.268c2.853,0.032,5.647,0.414,8.334,1.085c0.04-0.003,0.08-0.006,0.12-0.009
	c4.09-0.292,8.205,0.126,12.231,1.09c0.981-0.112,1.96-0.209,2.938-0.292c3.499-0.305,6.96-0.465,10.427-0.544
	c0.497-0.012,1.044-0.022,1.487-0.03c1.859-0.031,3.615-0.17,5.288-0.398c0.961-0.33,5.817-0.868,6.55-1.526
	c0.367-0.409,0.729-0.829,1.067-1.226c3.979-4.623,8.045-11.049,14.652-15.232C177.133,69.281,180.598,68.326,184.086,68.326"/>
<path class="st1" d="M183.852,65.594L183.852,65.594c2.999,0,5.395,1.174,7.944,1.536c0.254,0.036,0.552,0.079,0.8,0.12
	c0.607,0.051,1.184,0.095,1.734,0.139c1.371-0.247,2.786-0.467,4.26-0.467c1.698,0,3.377,0.328,5.079,1.414
	c5.038,3.463,6.1,8.942,11.906,11.339c1.343-0.364,2.894-0.783,4.612-1.247c0.359,0.057,1.858-0.178,2.113-0.085
	c0.392,0.143,1.937,0.152,2.257,0.152c0.842-0.059,1.659-0.249,2.597-0.668c2.171-0.815,3.613-1.706,4.918-2.556
	c0.018-0.089,0.421-0.177,0.438-0.265c0.013-0.067,0.322-0.134,0.336-0.201c1.658-2.065,3.478-3.855,6.712-4.909
	c5.059-1.239,9.148-1.343,13.671-1.909c2.199-0.237,4.409-0.509,6.739-0.962c2.093-0.348,4.129-0.264,6.011,0.131
	c6.048,1.296,11.279,5.477,15.421,9.412c1.859,1.211,3.277,2.674,4.469,4.156c2.772,0.094,5.383,0.73,10.044,0.466
	c0.438-0.084,0.879-0.119,1.324-0.192c3.521-0.577,6.68-1.949,9.937-3.258c4.883-2.082,9.539-4.109,15.681-2.5
	c3.158,0.828,6.619,2.515,10.461,5.186c0.016,0.011,0.095,0.066,0.111,0.077c0.016,0.011,0.095,0.067,0.111,0.078
	c17.36,12.41,30.128,22.603,36.362,38.154c4.12,9.919,5.001,20.813,3.833,32.947c-0.201,7.431-0.346,15.359-0.86,22.997
	c0.175,3.051,0.587,6.964,0.859,10.567c0.719,10.408,0.342,21.062-6.075,29.443c-2.796,5.965-5.283,11.201-9.426,16.413
	c-3.156,3.906-7.014,7.052-11.491,9.414c-9.289,13.258-23.003,17.046-32.708,19.663c-0.005,0.001-0.038,0.01-0.043,0.011
	s-0.038,0.01-0.043,0.011c-2.273,0.608-5.888,2.755-8.803,4.557c-3.812,2.346-7.867,5.078-12.289,7.447
	c-0.016,0.01-0.115,0.061-0.131,0.071s-0.116,0.06-0.132,0.07c-2.25,1.188-4.487,2.285-6.714,3.254
	c-7.612,3.271-14.933,5.586-21.781,7.676c-11.638,3.547-21.593,6.394-31.191,12.615c-5.857,3.881-11.803,6.991-17.69,9.884
	c-8.906,4.23-18.067,5.253-26.612,5.862c-2.67,0.186-5.258,0.338-7.752,0.543c-3.205,0.274-6.709,0.922-10.555,1.721
	c-6.727,1.375-14.318,3.497-22.667,4.11c-1.277,0.121-2.798,0.237-4.459,0.26c-4.191,1.913-8.706,3.405-13.553,4.316
	c-1.452,0.272-2.977,0.513-4.478,0.676c-2.514,0.256-5.19,0.235-7.831,0.417c-1.149,0.076-2.262,0.186-3.432,0.376
	c-1.601,0.486-3.266,0.897-4.985,1.235c-3.904,0.738-7.854,1.136-11.722,1.231c-6.784,0.427-13.913-1.35-21.171-4.686
	c-3.864-1.776-7.771-3.866-11.515-6.502c-0.025-0.026-0.05-0.052-0.123-0.078c-7.007-4.127-20.595-18.825-23.864-32.959
	c-1.498-5.922-0.991-11.355,2.623-15.068c2.314-1.599,3.449-2.871,3.74-4.808c0.033-0.19,0.058-0.384,0.075-0.584
	c-0.301-1.116-0.671-2.333-1.098-3.691c-1.87-5.942-0.574-10.897,2.246-15.282c3.617-5.685,9.342-9.724,12.9-13.708
	c-1.122-1.315-2.36-2.911-3.947-4.788c-3.315-3.02-4.616-6.255-5.056-9.034c-1.215-4.519-1.221-9.278-2.746-14.34
	c-1.117-2.279-2.275-4.063-3.363-5.623c-1.829-2.605-3.522-4.63-4.607-7.242c-5.039-3.406-8.718-9.892-7.667-23.257
	c-0.155-4.853-1.749-8.167-2.905-12.338c-0.34-1.602-0.609-3.425-0.729-5.349c-0.28-6.712,1.205-14.105,6.634-17.979
	c5.518-2.137,7.104-4.049,10.636-7.074c0.128-0.22,1.315-0.908,1.491-1.166c0.225-0.322,0.462-0.652,0.714-0.991
	c0.316-0.282,1.615-1.748,1.98-1.883c0.378-0.14,1.961-1.285,2.348-1.362c1.668-0.913,3.317-1.68,4.708-2.796
	c0.791-0.626,1.509-1.287,2.173-1.965c1.344-4.879,1.891-11.472,5.062-16.428c2.829-4.483,7.084-8.15,11.696-10.051
	c1.94-0.8,3.981-1.282,5.929-1.365c2.969,0.871,5.59,0.657,8.085,0.266c2.212-0.347,4.127-1.419,6.528-1.486
	c0.562-0.018,1.15,0.01,1.763,0.097c0.711,0.084,1.445,0.231,2.201,0.451c1.946,0.983,2.926,1.505,4.652,1.748
	c0.771,0.109,1.584,0.201,2.584,0.307c2.897,0.107,5.729,0.571,8.444,1.331c0.04-0.003,0.081-0.005,0.122-0.008
	c4.154-0.269,8.332,0.199,12.41,1.247c0.996-0.121,1.99-0.225,2.982-0.315c3.558-0.33,7.074-0.503,10.588-0.59
	c0.505-0.013,1.056-0.024,1.51-0.033c1.882-0.033,3.667-0.163,5.373-0.374c0.887-0.305,6.017-0.801,6.694-1.409
	c0.37-0.419,0.736-0.849,1.077-1.253c3.978-4.671,8.147-11.153,14.91-15.438C176.419,66.621,180.115,65.594,183.852,65.594"/>
<path class="st1" d="M183.617,62.863L183.617,62.863c3.03,0,5.479,1.113,8.032,1.501c0.258,0.039,0.556,0.085,0.807,0.13
	c0.612,0.062,1.194,0.118,1.748,0.175c1.388-0.245,2.833-0.459,4.345-0.459c1.729,0,3.437,0.315,5.162,1.338
	c5.172,3.267,6.653,8.538,12.406,11.119c1.369-0.392,2.94-0.828,4.674-1.297c0.329,0.052,1.896-0.216,2.13-0.131
	c0.359,0.131,1.975,0.118,2.268,0.118c0.861-0.064,1.694-0.245,2.635-0.634c2.214-0.763,3.732-1.582,5.11-2.361
	c0.016-0.081,0.447-0.162,0.463-0.242c0.012-0.062,0.343-0.123,0.356-0.184c1.748-2.043,3.656-3.807,6.868-4.868
	c5.042-1.291,9.214-1.467,13.788-1.986c2.244-0.217,4.487-0.445,6.831-0.822c2.116-0.283,4.17-0.154,6.073,0.272
	c6.128,1.396,11.408,5.56,15.584,9.489c1.86,1.244,3.299,2.716,4.512,4.195c2.832-0.15,5.576,0.22,10.264-0.164
	c0.441-0.09,0.885-0.135,1.334-0.214c3.525-0.619,6.751-1.929,10.102-3.128c5.01-1.908,9.823-3.649,15.994-1.926
	c3.211,0.896,6.698,2.626,10.535,5.296c0.015,0.01,0.097,0.068,0.112,0.078c0.015,0.01,0.097,0.069,0.111,0.079
	c17.466,12.486,30.518,22.872,37.021,38.655c4.319,10.144,5.302,21.223,4.22,33.407c-0.192,7.591-0.434,15.62-1.041,23.337
	c0.165,3.064,0.592,7.056,0.885,10.723c0.775,10.505,0.561,21.364-5.549,30.156c-2.734,6.301-5.366,11.817-9.674,17.168
	c-3.295,4.033-7.333,7.281-12.025,9.709c-9.649,13.961-23.971,17.906-33.921,20.589c-0.005,0.001-0.039,0.01-0.043,0.012
	s-0.039,0.01-0.044,0.012c-2.259,0.604-5.97,2.833-8.933,4.676c-3.856,2.388-7.984,5.161-12.506,7.561
	c-0.015,0.009-0.119,0.062-0.134,0.071c-0.015,0.009-0.12,0.061-0.134,0.07c-2.295,1.199-4.574,2.303-6.842,3.284
	c-7.758,3.316-15.211,5.662-22.161,7.78c-11.884,3.618-21.969,6.518-31.679,12.926c-5.959,4.017-12.016,7.165-18.011,10.013
	c-9.126,4.193-18.467,5.185-27.118,5.79c-2.722,0.186-5.354,0.341-7.884,0.552c-3.239,0.282-6.799,0.969-10.725,1.809
	c-6.836,1.439-14.628,3.605-23.235,4.168c-1.299,0.111-2.862,0.218-4.575,0.225c-4.271,2.006-8.888,3.573-13.853,4.554
	c-1.487,0.293-3.045,0.553-4.584,0.736c-2.577,0.291-5.312,0.315-8.025,0.511c-1.176,0.082-2.32,0.192-3.519,0.374
	c-1.659,0.457-3.379,0.839-5.154,1.149c-4.036,0.677-8.097,1.016-12.056,1.052c-6.942,0.343-14.216-1.597-21.636-5.207
	c-3.909-1.902-7.869-4.148-11.678-6.956c-0.027-0.028-0.054-0.056-0.125-0.084c-7.058-4.444-20.608-19.247-23.801-33.678
	c-1.446-5.972-0.931-11.479,2.55-15.367c2.193-1.675,3.328-3.04,3.71-5.005c0.042-0.193,0.076-0.39,0.104-0.592
	c-0.29-1.152-0.636-2.396-1.026-3.768c-1.711-5.965-0.4-11.017,2.423-15.506c3.631-5.834,9.336-9.973,12.993-13.943
	c-1.282-1.281-2.638-2.848-4.285-4.682c-3.432-3.002-4.895-6.251-5.464-9.012c-1.436-4.556-1.63-9.374-3.123-14.491
	c-1.072-2.331-2.157-4.214-3.16-5.894c-1.686-2.805-3.193-5.086-4.115-7.899c-5.042-3.668-8.789-10.399-7.98-23.508
	c-0.213-4.841-1.699-8.288-2.721-12.518c-0.296-1.641-0.515-3.486-0.584-5.421c-0.109-6.784,1.563-14.117,6.975-18.101
	c5.342-2.242,7.134-4.225,10.751-7.162c0.117-0.202,1.372-0.904,1.534-1.141c0.227-0.325,0.467-0.658,0.721-1
	c0.289-0.258,1.633-1.808,1.967-1.931c0.347-0.128,1.988-1.348,2.343-1.419c1.663-0.957,3.311-1.762,4.721-2.871
	c0.805-0.626,1.544-1.278,2.232-1.941c1.31-4.917,1.953-11.488,5.182-16.536c2.877-4.558,7.143-8.302,11.788-10.347
	c1.958-0.862,4.018-1.419,6-1.594c2.997,0.661,5.69,0.358,8.276-0.068c2.245-0.37,4.221-1.382,6.645-1.455
	c0.574-0.019,1.172,0.005,1.793,0.085c0.728,0.077,1.477,0.214,2.245,0.421c1.957,0.913,3.028,1.414,4.779,1.675
	c0.792,0.118,1.621,0.225,2.621,0.346c2.941,0.183,5.811,0.728,8.553,1.577c0.041-0.003,0.082-0.005,0.123-0.007
	c4.218-0.247,8.46,0.271,12.59,1.404c1.011-0.129,2.019-0.241,3.026-0.338c3.616-0.355,7.187-0.542,10.749-0.635
	c0.513-0.014,1.068-0.025,1.534-0.035c1.905-0.036,3.719-0.157,5.458-0.35c0.813-0.279,6.217-0.735,6.837-1.291
	c0.374-0.429,0.744-0.868,1.086-1.28c3.977-4.719,8.25-11.258,15.168-15.643C175.705,63.962,179.631,62.863,183.617,62.863"/>
<path class="st1" d="M183.383,60.132L183.383,60.132c3.061,0,5.563,1.053,8.12,1.465c0.262,0.042,0.56,0.091,0.815,0.139
	c0.617,0.073,1.204,0.141,1.763,0.211c1.406-0.243,2.88-0.451,4.43-0.451c1.759,0,3.496,0.302,5.245,1.262
	c5.306,3.072,7.207,8.133,12.907,10.899c1.395-0.42,2.986-0.873,4.737-1.347c0.299,0.047,1.935-0.254,2.147-0.176
	c0.326,0.119,2.013,0.084,2.28,0.084c0.88-0.068,1.729-0.241,2.673-0.601c2.257-0.71,3.852-1.458,5.302-2.166
	c0.015-0.074,0.474-0.147,0.489-0.22c0.011-0.056,0.363-0.112,0.375-0.167c1.838-2.021,3.835-3.759,7.024-4.827
	c5.025-1.343,9.28-1.591,13.905-2.062c2.288-0.197,4.565-0.381,6.922-0.682c2.138-0.217,4.21-0.044,6.135,0.413
	c6.209,1.495,11.537,5.643,15.747,9.567c1.862,1.276,3.321,2.758,4.554,4.235c2.893-0.393,5.768-0.29,10.484-0.794
	c0.444-0.097,0.891-0.152,1.343-0.237c3.529-0.661,6.823-1.908,10.267-2.998c5.136-1.735,10.105-3.187,16.307-1.353
	c3.264,0.966,6.777,2.738,10.608,5.405c0.013,0.009,0.1,0.069,0.113,0.079c0.013,0.009,0.099,0.07,0.112,0.08
	c17.571,12.561,30.909,23.14,37.68,39.156c4.518,10.37,5.602,21.634,4.607,33.868c-0.183,7.75-0.521,15.88-1.221,23.677
	c0.155,3.077,0.596,7.148,0.91,10.879c0.831,10.602,0.78,21.667-5.023,30.868c-2.672,6.637-5.449,12.432-9.922,17.922
	c-3.435,4.161-7.652,7.51-12.558,10.004c-10.009,14.665-24.938,18.766-35.133,21.515c-0.004,0.001-0.04,0.011-0.044,0.012
	c-0.004,0.001-0.04,0.011-0.044,0.012c-2.244,0.6-6.052,2.911-9.062,4.794c-3.901,2.43-8.1,5.245-12.723,7.675
	c-0.013,0.008-0.123,0.064-0.136,0.072c-0.013,0.008-0.123,0.062-0.137,0.071c-2.339,1.209-4.662,2.322-6.97,3.314
	c-7.904,3.36-15.49,5.737-22.542,7.885c-12.129,3.689-22.346,6.641-32.168,13.236c-6.061,4.153-12.228,7.339-18.331,10.143
	c-9.347,4.156-18.867,5.117-27.625,5.719c-2.775,0.187-5.45,0.343-8.016,0.561c-3.273,0.291-6.888,1.016-10.896,1.896
	c-6.945,1.502-14.937,3.714-23.803,4.225c-1.321,0.101-2.925,0.198-4.69,0.19c-4.351,2.098-9.07,3.742-14.153,4.792
	c-1.522,0.313-3.112,0.592-4.69,0.796c-2.64,0.326-5.435,0.395-8.22,0.605c-1.203,0.088-2.379,0.199-3.606,0.372
	c-1.717,0.428-3.493,0.781-5.323,1.063c-4.168,0.615-8.34,0.895-12.389,0.872c-7.099,0.26-14.52-1.842-22.101-5.727
	c-3.956-2.028-7.966-4.43-11.841-7.41c-0.029-0.03-0.058-0.06-0.126-0.09c-7.108-4.762-20.62-19.669-23.738-34.397
	c-1.394-6.023-0.871-11.604,2.476-15.665c2.072-1.75,3.207-3.209,3.68-5.203c0.051-0.196,0.095-0.396,0.134-0.6
	c-0.279-1.187-0.601-2.458-0.955-3.846c-1.553-5.988-0.227-11.137,2.599-15.729c3.646-5.983,9.331-10.221,13.085-14.177
	c-1.442-1.248-2.916-2.784-4.623-4.576c-3.549-2.984-5.173-6.248-5.872-8.99c-1.657-4.592-2.039-9.47-3.5-14.643
	c-1.027-2.383-2.04-4.365-2.957-6.166c-1.542-3.005-2.864-5.542-3.623-8.556c-5.045-3.93-8.86-10.906-8.293-23.759
	c-0.271-4.83-1.649-8.408-2.536-12.698c-0.251-1.681-0.42-3.547-0.44-5.494c0.062-6.856,1.921-14.129,7.315-18.223
	c5.167-2.347,7.164-4.401,10.867-7.25c0.106-0.183,1.429-0.9,1.576-1.116c0.23-0.328,0.472-0.664,0.728-1.008
	c0.263-0.235,1.65-1.867,1.954-1.979c0.315-0.117,2.015-1.411,2.338-1.475c1.658-1.001,3.305-1.844,4.734-2.947
	c0.82-0.626,1.58-1.269,2.291-1.918c1.276-4.955,2.016-11.503,5.303-16.644c2.925-4.634,7.203-8.455,11.88-10.643
	c1.977-0.925,4.055-1.557,6.071-1.822c3.026,0.451,5.79,0.059,8.467-0.401c2.277-0.392,4.315-1.345,6.763-1.423
	c0.586-0.021,1.194,0,1.823,0.072c0.745,0.07,1.508,0.197,2.289,0.391c1.968,0.842,3.13,1.324,4.906,1.601
	c0.813,0.127,1.659,0.248,2.658,0.385c2.985,0.258,5.893,0.884,8.663,1.824c0.042-0.002,0.084-0.005,0.125-0.007
	c4.283-0.225,8.588,0.344,12.769,1.561c1.026-0.138,2.049-0.257,3.07-0.361c3.674-0.381,7.3-0.581,10.909-0.68
	c0.521-0.015,1.08-0.027,1.558-0.038c1.928-0.038,3.771-0.15,5.543-0.326c0.739-0.254,6.417-0.668,6.981-1.174
	c0.377-0.439,0.751-0.888,1.096-1.306c3.976-4.766,8.352-11.362,15.427-15.848C174.991,61.302,179.148,60.132,183.383,60.132"/>
<path class="st1" d="M183.148,57.401L183.148,57.401c3.092,0,5.647,0.993,8.208,1.429c0.266,0.045,0.564,0.097,0.823,0.148
	c0.622,0.084,1.214,0.164,1.777,0.247c1.423-0.24,2.927-0.443,4.516-0.443c1.79,0,3.556,0.289,5.328,1.186
	c5.44,2.877,7.761,7.729,13.407,10.679c1.422-0.448,3.031-0.918,4.799-1.397c0.269,0.043,1.973-0.292,2.164-0.222
	c0.294,0.107,2.051,0.05,2.291,0.05c0.898-0.073,1.765-0.237,2.711-0.568c2.3-0.658,3.971-1.334,5.493-1.971
	c0.013-0.066,0.501-0.132,0.514-0.198c0.01-0.05,0.384-0.1,0.394-0.15c1.928-1.999,4.013-3.71,7.181-4.786
	c5.007-1.395,9.347-1.714,14.021-2.138c2.333-0.178,4.644-0.317,7.014-0.542c2.161-0.151,4.251,0.067,6.198,0.554
	c6.289,1.595,11.666,5.726,15.91,9.645c1.863,1.308,3.343,2.8,4.597,4.274c2.954-0.637,5.961-0.8,10.704-1.424
	c0.446-0.103,0.897-0.168,1.353-0.259c3.533-0.703,6.894-1.887,10.432-2.868c5.263-1.561,10.388-2.725,16.62-0.779
	c3.317,1.035,6.856,2.85,10.682,5.515c0.012,0.008,0.102,0.071,0.114,0.079c0.012,0.008,0.101,0.072,0.113,0.08
	c17.677,12.636,31.299,23.409,38.339,39.658c4.718,10.596,5.902,22.045,4.994,34.328c-0.175,7.91-0.608,16.141-1.402,24.018
	c0.145,3.089,0.6,7.24,0.936,11.035c0.887,10.7,0.998,21.969-4.497,31.58c-2.61,6.973-5.533,13.048-10.17,18.677
	c-3.575,4.288-7.971,7.739-13.092,10.3c-10.368,15.369-25.905,19.626-36.346,22.441c-0.004,0.001-0.041,0.011-0.045,0.012
	c-0.004,0.001-0.041,0.011-0.045,0.012c-2.229,0.596-6.134,2.988-9.192,4.912c-3.945,2.472-8.217,5.328-12.94,7.789
	c-0.012,0.008-0.126,0.065-0.138,0.073c-0.012,0.008-0.127,0.064-0.139,0.071c-2.383,1.219-4.749,2.341-7.098,3.344
	c-8.051,3.405-15.768,5.813-22.922,7.989c-12.375,3.76-22.723,6.765-32.656,13.547c-6.162,4.289-12.441,7.514-18.652,10.272
	c-9.568,4.12-19.266,5.05-28.131,5.647c-2.827,0.187-5.546,0.346-8.148,0.57c-3.307,0.3-6.978,1.064-11.067,1.984
	c-7.054,1.566-15.247,3.823-24.371,4.283c-1.344,0.091-2.989,0.178-4.805,0.154c-4.43,2.191-9.251,3.91-14.453,5.03
	c-1.557,0.334-3.18,0.632-4.796,0.856c-2.702,0.361-5.557,0.474-8.415,0.698c-1.23,0.094-2.437,0.205-3.693,0.37
	c-1.774,0.398-3.607,0.723-5.492,0.977c-4.3,0.554-8.583,0.775-12.723,0.693c-7.256,0.176-14.825-2.085-22.566-6.248
	c-4.003-2.153-8.064-4.712-12.003-7.864c-0.031-0.032-0.061-0.064-0.128-0.096c-7.159-5.079-20.633-20.092-23.675-35.116
	c-1.342-6.073-0.811-11.729,2.402-15.964c1.952-1.825,3.086-3.379,3.65-5.4c0.06-0.2,0.114-0.402,0.163-0.608
	c-0.268-1.223-0.566-2.521-0.884-3.923c-1.394-6.011-0.053-11.257,2.775-15.953c3.66-6.133,9.325-10.47,13.178-14.412
	c-1.601-1.215-3.194-2.72-4.962-4.47c-3.666-2.966-5.452-6.244-6.28-8.967c-1.878-4.629-2.448-9.566-3.877-14.794
	c-0.982-2.435-1.922-4.516-2.754-6.437c-1.398-3.206-2.535-5.999-3.132-9.214c-5.048-4.192-8.93-11.414-8.606-24.009
	c-0.329-4.819-1.599-8.529-2.352-12.878c-0.207-1.721-0.326-3.608-0.295-5.566c0.233-6.929,2.279-14.141,7.656-18.345
	c4.992-2.452,7.194-4.577,10.983-7.339c0.096-0.165,1.486-0.897,1.618-1.091c0.233-0.331,0.477-0.67,0.734-1.017
	c0.237-0.211,1.668-1.927,1.941-2.028c0.284-0.105,2.042-1.474,2.333-1.532c1.654-1.045,3.299-1.925,4.747-3.022
	c0.835-0.625,1.615-1.26,2.35-1.894c1.241-4.993,2.079-11.519,5.423-16.752c2.974-4.71,7.263-8.608,11.972-10.939
	c1.995-0.988,4.092-1.694,6.143-2.05c3.054,0.241,5.89-0.239,8.658-0.734c2.309-0.413,4.41-1.308,6.88-1.391
	c0.598-0.022,1.216-0.005,1.853,0.06c0.761,0.063,1.54,0.181,2.334,0.361c1.979,0.772,3.232,1.234,5.033,1.528
	c0.834,0.136,1.696,0.271,2.695,0.424c3.029,0.333,5.975,1.041,8.772,2.07c0.042-0.002,0.085-0.004,0.127-0.006
	c4.347-0.202,8.716,0.417,12.949,1.719c1.041-0.146,2.079-0.273,3.114-0.384c3.732-0.406,7.414-0.62,11.07-0.726
	c0.529-0.016,1.092-0.029,1.582-0.04c1.951-0.041,3.823-0.144,5.628-0.302c0.665-0.228,6.616-0.601,7.124-1.057
	c0.381-0.449,0.759-0.908,1.106-1.333c3.975-4.814,8.455-11.467,15.685-16.053C174.277,58.642,178.664,57.401,183.148,57.401"/>
<path class="st1" d="M182.914,54.67L182.914,54.67c3.122,0,5.731,0.934,8.296,1.394c0.271,0.049,0.568,0.103,0.831,0.157
	c0.627,0.095,1.224,0.187,1.792,0.283c1.44-0.238,2.974-0.434,4.601-0.434c1.821,0,3.616,0.275,5.411,1.11
	c5.573,2.682,8.315,7.324,13.908,10.459c1.448-0.475,3.077-0.963,4.861-1.446c0.24,0.038,2.012-0.33,2.182-0.268
	c0.261,0.095,2.089,0.016,2.302,0.016c0.917-0.077,1.8-0.233,2.75-0.535c2.342-0.605,4.09-1.21,5.685-1.776
	c0.012-0.059,0.527-0.118,0.539-0.176c0.009-0.045,0.404-0.089,0.414-0.133c2.018-1.977,4.191-3.662,7.337-4.745
	c4.99-1.447,9.413-1.838,14.138-2.215c2.378-0.158,4.722-0.253,7.106-0.402c2.183-0.086,4.292,0.177,6.26,0.695
	c6.37,1.695,11.795,5.809,16.073,9.723c1.865,1.34,3.364,2.842,4.64,4.313c3.014-0.881,6.153-1.309,10.924-2.054
	c0.449-0.11,0.903-0.185,1.363-0.281c3.537-0.745,6.965-1.866,10.598-2.738c5.39-1.388,10.67-2.261,16.933-0.206
	c3.369,1.106,6.934,2.961,10.756,5.625c0.011,0.007,0.104,0.073,0.115,0.08c0.011,0.007,0.103,0.074,0.114,0.081
	c17.782,12.712,31.69,23.678,38.998,40.159c4.917,10.822,6.203,22.455,5.38,34.788c-0.166,8.07-0.695,16.402-1.582,24.358
	c0.135,3.102,0.605,7.332,0.961,11.19c0.944,10.797,1.217,22.272-3.971,32.293c-2.548,7.309-5.616,13.663-10.418,19.432
	c-3.714,4.415-8.29,7.969-13.625,10.595c-10.728,16.072-26.872,20.486-37.558,23.368c-0.004,0.001-0.042,0.011-0.046,0.012
	c-0.003,0.001-0.042,0.011-0.046,0.012c-2.215,0.591-6.216,3.066-9.322,5.03c-3.989,2.514-8.334,5.411-13.157,7.902
	c-0.011,0.007-0.13,0.066-0.141,0.073c-0.011,0.007-0.131,0.065-0.142,0.072c-2.428,1.229-4.836,2.359-7.226,3.373
	c-8.197,3.45-16.047,5.888-23.303,8.093c-12.621,3.831-23.099,6.888-33.144,13.857c-6.264,4.426-12.654,7.688-18.972,10.402
	c-9.789,4.083-19.666,4.982-28.638,5.575c-2.879,0.187-5.642,0.348-8.28,0.579c-3.341,0.309-7.067,1.111-11.238,2.071
	c-7.163,1.63-15.557,3.931-24.939,4.341c-1.366,0.081-3.052,0.158-4.92,0.119c-4.51,2.283-9.433,4.078-14.753,5.268
	c-1.592,0.355-3.247,0.671-4.902,0.915c-2.765,0.396-5.679,0.554-8.61,0.792c-1.257,0.1-2.496,0.212-3.78,0.368
	c-1.832,0.369-3.721,0.665-5.661,0.891c-4.432,0.492-8.826,0.654-13.056,0.514c-7.414,0.092-15.132-2.328-23.031-6.769
	c-4.051-2.277-8.162-4.994-12.166-8.318c-0.033-0.034-0.065-0.068-0.13-0.102c-7.21-5.397-20.645-20.514-23.612-35.835
	c-1.29-6.124-0.751-11.854,2.328-16.263c1.831-1.9,2.965-3.548,3.62-5.598c0.068-0.203,0.132-0.408,0.192-0.617
	c-0.257-1.258-0.531-2.584-0.812-4.001c-1.235-6.034,0.12-11.377,2.951-16.177c3.674-6.282,9.319-10.719,13.271-14.646
	c-1.761-1.182-3.473-2.656-5.3-4.364c-3.783-2.949-5.73-6.24-6.688-8.945c-2.099-4.666-2.857-9.663-4.254-14.945
	c-0.937-2.488-1.805-4.667-2.551-6.708c-1.254-3.406-2.206-6.455-2.64-9.871c-5.051-4.454-9.001-11.921-8.919-24.26
	c-0.387-4.807-1.549-8.649-2.168-13.058c-0.162-1.761-0.232-3.669-0.151-5.639c0.404-7.001,2.637-14.154,7.996-18.467
	c4.817-2.557,7.224-4.753,11.098-7.427c0.085-0.147,1.543-0.893,1.66-1.065c0.235-0.334,0.482-0.676,0.741-1.026
	c0.21-0.188,1.686-1.986,1.929-2.076c0.252-0.093,2.069-1.537,2.328-1.589c1.649-1.089,3.294-2.007,4.761-3.097
	c0.85-0.625,1.65-1.251,2.409-1.87c1.207-5.031,2.142-11.534,5.544-16.86c3.022-4.785,7.322-8.761,12.064-11.236
	c2.013-1.05,4.13-1.831,6.214-2.278c3.082,0.031,5.99-0.537,8.849-1.068c2.341-0.435,4.504-1.271,6.998-1.359
	c0.61-0.023,1.238-0.01,1.883,0.047c0.778,0.056,1.571,0.164,2.378,0.331c1.991,0.701,3.333,1.144,5.16,1.455
	c0.854,0.145,1.733,0.294,2.733,0.463c3.073,0.409,6.057,1.198,8.882,2.316c0.043-0.002,0.086-0.004,0.129-0.005
	c4.411-0.18,8.843,0.489,13.129,1.876c1.056-0.154,2.109-0.289,3.159-0.407c3.791-0.432,7.527-0.658,11.23-0.771
	c0.537-0.017,1.104-0.031,1.606-0.043c1.974-0.043,3.875-0.137,5.712-0.278c0.591-0.203,6.816-0.534,7.268-0.939
	c0.384-0.458,0.766-0.927,1.116-1.359c3.973-4.862,8.558-11.571,15.943-16.258C173.563,55.982,178.181,54.67,182.914,54.67"/>
<path class="st1" d="M182.679,51.938L182.679,51.938c3.153,0,5.814,0.874,8.384,1.358c0.275,0.052,0.572,0.11,0.838,0.167
	c0.632,0.105,1.234,0.211,1.806,0.319c1.458-0.235,3.021-0.426,4.686-0.426c1.851,0,3.676,0.262,5.493,1.035
	c5.707,2.487,8.869,6.92,14.408,10.239c1.474-0.503,3.123-1.008,4.924-1.496c0.21,0.033,2.05-0.368,2.199-0.313
	c0.228,0.084,2.126-0.018,2.313-0.018c0.936-0.082,1.835-0.229,2.788-0.502c2.385-0.553,4.209-1.086,5.877-1.582
	c0.01-0.052,0.554-0.103,0.564-0.154c0.008-0.039,0.425-0.078,0.433-0.117c2.109-1.955,4.369-3.614,7.493-4.704
	c4.972-1.499,9.479-1.961,14.255-2.291c2.422-0.138,4.8-0.189,7.198-0.262c2.206-0.02,4.332,0.288,6.322,0.835
	c6.45,1.794,11.925,5.891,16.236,9.801c1.866,1.372,3.386,2.884,4.682,4.353c3.075-1.125,6.346-1.819,11.144-2.684
	c0.452-0.116,0.909-0.201,1.372-0.304c3.541-0.786,7.036-1.845,10.763-2.609c5.517-1.214,10.952-1.797,17.246,0.368
	c3.422,1.177,7.013,3.073,10.83,5.734c0.009,0.006,0.106,0.074,0.115,0.081s0.105,0.075,0.115,0.082
	c17.888,12.787,32.08,23.947,39.657,40.66c5.116,11.047,6.503,22.866,5.767,35.248c-0.157,8.229-0.783,16.663-1.763,24.698
	c0.125,3.115,0.609,7.424,0.987,11.346c1,10.894,1.436,22.574-3.445,33.005c-2.487,7.644-5.699,14.279-10.667,20.187
	c-3.854,4.542-8.609,8.198-14.159,10.89c-11.088,16.776-27.839,21.346-38.771,24.294c-0.003,0.001-0.043,0.012-0.047,0.013
	s-0.044,0.012-0.047,0.012c-2.2,0.587-6.298,3.144-9.451,5.148c-4.034,2.555-8.451,5.495-13.374,8.016
	c-0.009,0.006-0.134,0.068-0.143,0.074c-0.009,0.006-0.135,0.066-0.144,0.072c-2.472,1.24-4.924,2.378-7.354,3.403
	c-8.343,3.494-16.325,5.964-23.683,8.197c-12.867,3.902-23.476,7.011-33.633,14.167c-6.365,4.562-12.866,7.863-19.293,10.532
	c-10.009,4.046-20.065,4.914-29.144,5.504c-2.931,0.187-5.739,0.351-8.412,0.589c-3.375,0.317-7.156,1.158-11.409,2.159
	c-7.272,1.693-15.867,4.04-25.507,4.398c-1.388,0.071-3.116,0.139-5.035,0.084c-4.59,2.376-9.615,4.246-15.053,5.506
	c-1.626,0.376-3.315,0.711-5.008,0.975c-2.828,0.431-5.802,0.633-8.804,0.885c-1.284,0.106-2.554,0.219-3.868,0.367
	c-1.889,0.34-3.834,0.608-5.83,0.805c-4.564,0.431-9.069,0.534-13.39,0.334c-7.571,0.009-15.44-2.569-23.496-7.29
	c-4.099-2.402-8.26-5.276-12.329-8.772c-0.035-0.036-0.069-0.072-0.132-0.108c-7.26-5.714-20.657-20.936-23.549-36.554
	c-1.238-6.174-0.691-11.979,2.255-16.561c1.711-1.975,2.843-3.717,3.59-5.795c0.077-0.206,0.151-0.414,0.221-0.625
	c-0.246-1.294-0.495-2.647-0.741-4.079c-1.077-6.057,0.294-11.498,3.127-16.4c3.688-6.431,9.314-10.967,13.364-14.88
	c-1.921-1.148-3.751-2.592-5.638-4.258c-3.899-2.931-6.009-6.237-7.096-8.923c-2.321-4.703-3.266-9.759-4.631-15.096
	c-0.892-2.54-1.688-4.818-2.348-6.979c-1.11-3.606-1.877-6.911-2.148-10.528c-5.054-4.716-9.071-12.428-9.232-24.51
	c-0.445-4.796-1.499-8.77-1.984-13.238c-0.118-1.801-0.137-3.73-0.006-5.711c0.575-7.074,2.996-14.166,8.337-18.589
	c4.641-2.662,7.255-4.929,11.214-7.515c0.075-0.128,1.6-0.889,1.703-1.04c0.238-0.337,0.487-0.682,0.748-1.034
	c0.184-0.164,1.703-2.045,1.916-2.124c0.221-0.082,2.097-1.6,2.322-1.645c1.645-1.133,3.288-2.089,4.774-3.173
	c0.865-0.625,1.685-1.242,2.467-1.846c1.173-5.069,2.204-11.55,5.665-16.968c3.071-4.861,7.381-8.914,12.156-11.532
	c2.031-1.113,4.167-1.968,6.286-2.506c3.111-0.179,6.09-0.834,9.04-1.401c2.374-0.456,4.598-1.234,7.116-1.327
	c0.622-0.025,1.26-0.015,1.913,0.035c0.795,0.049,1.602,0.147,2.422,0.301c2.002,0.63,3.435,1.055,5.287,1.382
	c0.875,0.155,1.77,0.317,2.77,0.502c3.117,0.484,6.139,1.355,8.991,2.562c0.044-0.002,0.088-0.003,0.131-0.005
	c4.476-0.157,8.971,0.562,13.308,2.033c1.071-0.163,2.139-0.305,3.203-0.43c3.849-0.457,7.64-0.697,11.391-0.817
	c0.545-0.018,1.116-0.033,1.63-0.045c1.997-0.046,3.927-0.131,5.797-0.254c0.517-0.178,7.016-0.467,7.411-0.822
	c0.388-0.468,0.774-0.947,1.126-1.386c3.972-4.91,8.66-11.676,16.202-16.463C172.85,53.322,177.697,51.938,182.679,51.938"/>
<path class="st1" d="M182.445,49.207L182.445,49.207c3.184,0,5.898,0.815,8.472,1.322c0.279,0.055,0.576,0.116,0.846,0.176
	c0.637,0.116,1.244,0.234,1.82,0.354c1.475-0.233,3.068-0.418,4.771-0.418c1.882,0,3.735,0.249,5.576,0.959
	c5.841,2.291,9.422,6.515,14.909,10.019c1.501-0.531,3.169-1.052,4.986-1.546c0.18,0.028,2.089-0.406,2.216-0.359
	c0.196,0.072,2.164-0.052,2.324-0.052c0.954-0.086,1.87-0.225,2.826-0.468c2.428-0.501,4.328-0.962,6.069-1.387
	c0.009-0.044,0.581-0.088,0.589-0.132c0.007-0.034,0.445-0.067,0.452-0.1c2.199-1.933,4.548-3.566,7.649-4.663
	c4.955-1.551,9.545-2.085,14.371-2.368c2.467-0.118,4.879-0.125,7.29-0.121c2.228,0.045,4.373,0.398,6.385,0.976
	c6.531,1.894,12.054,5.974,16.4,9.878c1.868,1.405,3.408,2.926,4.725,4.392c3.135-1.368,6.538-2.329,11.364-3.314
	c0.455-0.123,0.915-0.217,1.382-0.326c3.545-0.827,7.107-1.825,10.928-2.479c5.644-1.041,11.233-1.332,17.559,0.941
	c3.473,1.248,7.092,3.184,10.904,5.844c0.008,0.005,0.108,0.076,0.116,0.081c0.008,0.006,0.108,0.077,0.116,0.082
	c17.993,12.863,32.471,24.216,40.316,41.162c5.315,11.273,6.804,23.276,6.154,35.709c-0.149,8.389-0.87,16.924-1.943,25.038
	c0.115,3.128,0.614,7.516,1.012,11.502c1.056,10.991,1.655,22.876-2.919,33.717c-2.425,7.98-5.782,14.894-10.915,20.942
	c-3.994,4.67-8.928,8.427-14.693,11.185c-11.448,17.48-28.807,22.206-39.983,25.22c-0.003,0.001-0.045,0.012-0.047,0.013
	c-0.003,0.001-0.045,0.012-0.047,0.013c-2.186,0.583-6.38,3.222-9.581,5.267c-4.078,2.597-8.567,5.578-13.59,8.13
	c-0.008,0.005-0.138,0.069-0.146,0.074s-0.138,0.068-0.146,0.073c-2.516,1.25-5.011,2.397-7.482,3.433
	c-8.49,3.539-16.604,6.039-24.063,8.301c-13.112,3.973-23.852,7.135-34.121,14.478c-6.467,4.698-13.079,8.037-19.614,10.661
	c-10.23,4.009-20.465,4.846-29.65,5.432c-2.983,0.188-5.835,0.353-8.543,0.598c-3.41,0.326-7.246,1.205-11.579,2.246
	c-7.381,1.757-16.177,4.149-26.075,4.456c-1.411,0.061-3.179,0.119-5.15,0.049c-4.669,2.468-9.796,4.414-15.353,5.744
	c-1.661,0.397-3.382,0.75-5.114,1.035c-2.89,0.466-5.924,0.713-8.999,0.979c-1.311,0.112-2.613,0.225-3.955,0.365
	c-1.947,0.31-3.948,0.55-5.999,0.719c-4.696,0.369-9.311,0.413-13.723,0.155c-7.729-0.075-15.748-2.81-23.961-7.81
	c-4.148-2.526-8.357-5.558-12.492-9.226c-0.036-0.038-0.073-0.076-0.133-0.114c-7.311-6.032-20.67-21.359-23.487-37.273
	c-1.185-6.225-0.631-12.104,2.181-16.86c1.59-2.05,2.722-3.886,3.56-5.993c0.086-0.21,0.169-0.42,0.25-0.633
	c-0.235-1.329-0.46-2.709-0.669-4.156c-0.918-6.08,0.467-11.618,3.303-16.624c3.703-6.581,9.308-11.216,13.457-15.115
	c-2.08-1.115-4.029-2.528-5.976-4.152c-4.016-2.913-6.288-6.233-7.504-8.9c-2.542-4.74-3.676-9.855-5.008-15.247
	c-0.847-2.592-1.57-4.969-2.145-7.25c-0.966-3.807-1.548-7.367-1.656-11.185c-5.057-4.977-9.142-12.935-9.545-24.761
	c-0.503-4.785-1.449-8.89-1.799-13.417c-0.073-1.841-0.043-3.792,0.138-5.783c0.747-7.146,3.354-14.178,8.677-18.711
	c4.466-2.767,7.285-5.105,11.329-7.603c0.064-0.11,1.657-0.886,1.745-1.015c0.24-0.341,0.492-0.688,0.755-1.043
	c0.158-0.141,1.721-2.105,1.903-2.172c0.189-0.07,2.124-1.663,2.317-1.702c1.64-1.177,3.282-2.171,4.787-3.248
	c0.88-0.624,1.721-1.233,2.526-1.822c1.139-5.107,2.267-11.565,5.785-17.076c3.119-4.937,7.44-9.068,12.248-11.828
	c2.049-1.176,4.204-2.105,6.357-2.734c3.139-0.388,6.19-1.131,9.231-1.735c2.406-0.477,4.693-1.197,7.233-1.296
	c0.634-0.026,1.282-0.021,1.943,0.023c0.811,0.042,1.634,0.13,2.466,0.27c2.013,0.56,3.537,0.965,5.414,1.309
	c0.896,0.164,1.807,0.341,2.807,0.541c3.161,0.559,6.221,1.511,9.101,2.809c0.044-0.001,0.089-0.003,0.133-0.004
	c4.54-0.135,9.099,0.635,13.488,2.19c1.086-0.171,2.168-0.321,3.247-0.453c3.907-0.482,7.754-0.736,11.552-0.862
	c0.553-0.019,1.128-0.034,1.654-0.048c2.02-0.048,3.979-0.124,5.882-0.23c0.443-0.152,7.216-0.401,7.555-0.704
	c0.391-0.478,0.781-0.966,1.136-1.413c3.971-4.957,8.763-11.78,16.46-16.668C172.136,50.662,177.214,49.207,182.445,49.207"/>
<path class="st1" d="M182.21,46.476L182.21,46.476c3.214,0,5.982,0.757,8.56,1.287c0.283,0.058,0.58,0.122,0.854,0.185
	c0.642,0.127,1.254,0.257,1.835,0.39c1.492-0.23,3.115-0.41,4.856-0.41c1.913,0,3.795,0.236,5.659,0.883
	c5.974,2.096,9.976,6.111,15.409,9.799c1.527-0.559,3.214-1.097,5.049-1.596c0.15,0.024,2.127-0.443,2.234-0.405
	c0.163,0.06,2.202-0.086,2.335-0.086c0.973-0.091,1.906-0.221,2.864-0.435c2.471-0.448,4.447-0.838,6.261-1.192
	c0.007-0.037,0.607-0.073,0.615-0.11c0.006-0.028,0.466-0.055,0.472-0.083c2.289-1.91,4.726-3.518,7.805-4.622
	c4.937-1.603,9.611-2.209,14.488-2.444c2.511-0.099,4.957-0.062,7.382,0.019c2.251,0.111,4.414,0.508,6.447,1.117
	c6.612,1.994,12.183,6.057,16.563,9.956c1.869,1.437,3.43,2.968,4.767,4.431c3.196-1.612,6.731-2.839,11.584-3.944
	c0.458-0.129,0.921-0.234,1.391-0.349c3.549-0.868,7.178-1.804,11.093-2.349c5.77-0.867,11.513-0.867,17.872,1.515
	c3.525,1.32,7.171,3.296,10.978,5.953c0.007,0.005,0.111,0.077,0.117,0.082c0.007,0.005,0.11,0.078,0.116,0.083
	c18.099,12.938,32.861,24.485,40.975,41.663c5.515,11.499,7.104,23.687,6.541,36.169c-0.14,8.549-0.957,17.184-2.123,25.379
	c0.105,3.141,0.618,7.608,1.038,11.657c1.112,11.088,1.874,23.179-2.394,34.429c-2.363,8.316-5.866,15.51-11.163,21.697
	c-4.133,4.797-9.247,8.656-15.226,11.481c-11.808,18.183-29.774,23.066-41.196,26.146c-0.002,0.001-0.046,0.012-0.048,0.013
	c-0.002,0.001-0.046,0.012-0.048,0.013c-2.171,0.579-6.462,3.3-9.711,5.385c-4.122,2.639-8.684,5.661-13.807,8.243
	c-0.007,0.004-0.141,0.071-0.148,0.075c-0.007,0.004-0.142,0.069-0.149,0.073c-2.561,1.26-5.098,2.415-7.61,3.463
	c-8.636,3.583-16.882,6.115-24.444,8.405c-13.358,4.044-24.229,7.258-34.61,14.788c-6.569,4.834-13.292,8.211-19.934,10.791
	c-10.451,3.973-20.865,4.778-30.157,5.36c-3.035,0.188-5.931,0.356-8.675,0.607c-3.444,0.335-7.335,1.252-11.75,2.334
	c-7.49,1.821-16.487,4.258-26.643,4.513c-1.433,0.05-3.243,0.099-5.265,0.014c-4.749,2.561-9.978,4.582-15.653,5.982
	c-1.696,0.418-3.45,0.79-5.22,1.095c-2.953,0.501-6.046,0.793-9.194,1.073c-1.338,0.117-2.672,0.232-4.042,0.363
	c-2.004,0.281-4.062,0.492-6.168,0.633c-4.828,0.308-9.554,0.293-14.057-0.024c-7.886-0.159-16.058-3.05-24.426-8.331
	c-4.197-2.649-8.455-5.84-12.654-9.68c-0.038-0.04-0.077-0.08-0.135-0.12c-7.362-6.349-20.682-21.781-23.424-37.992
	c-1.133-6.275-0.571-12.229,2.107-17.158c1.47-2.125,2.601-4.056,3.53-6.191c0.095-0.213,0.188-0.427,0.279-0.641
	c-0.224-1.365-0.425-2.772-0.598-4.234c-0.76-6.104,0.64-11.738,3.479-16.848c3.717-6.73,9.302-11.465,13.55-15.349
	c-2.24-1.082-4.307-2.464-6.314-4.046c-4.133-2.895-6.566-6.229-7.912-8.878c-2.763-4.777-4.085-9.951-5.385-15.399
	c-0.802-2.644-1.453-5.12-1.942-7.521c-0.822-4.007-1.219-7.823-1.164-11.842c-5.06-5.239-9.213-13.442-9.858-25.011
	c-0.561-4.773-1.399-9.011-1.615-13.597c-0.029-1.881,0.052-3.853,0.283-5.856c0.918-7.219,3.712-14.19,9.018-18.833
	c4.291-2.872,7.315-5.281,11.445-7.691c0.053-0.092,1.714-0.882,1.787-0.99c0.243-0.344,0.496-0.694,0.762-1.052
	c0.131-0.117,1.738-2.164,1.89-2.22c0.158-0.058,2.151-1.726,2.312-1.758c1.636-1.22,3.276-2.252,4.8-3.323
	c0.895-0.624,1.756-1.224,2.585-1.798c1.105-5.145,2.33-11.581,5.906-17.184c3.167-5.012,7.499-9.221,12.34-12.124
	c2.067-1.239,4.241-2.242,6.429-2.962c3.168-0.598,6.291-1.428,9.422-2.068c2.439-0.498,4.787-1.16,7.351-1.264
	c0.646-0.027,1.304-0.026,1.974,0.01c0.828,0.035,1.665,0.114,2.51,0.24c2.024,0.489,3.638,0.875,5.542,1.235
	c0.917,0.173,1.845,0.364,2.844,0.58c3.204,0.635,6.303,1.668,9.21,3.055c0.045-0.001,0.09-0.002,0.135-0.004
	c4.604-0.112,9.226,0.708,13.667,2.348c1.101-0.18,2.198-0.337,3.291-0.476c3.966-0.508,7.867-0.775,11.712-0.907
	c0.561-0.02,1.14-0.036,1.678-0.05c2.043-0.051,4.03-0.118,5.967-0.206c0.37-0.127,7.416-0.334,7.698-0.587
	c0.395-0.488,0.788-0.986,1.145-1.439c3.97-5.005,8.865-11.885,16.718-16.873C171.422,48.002,176.73,46.476,182.21,46.476"/>
</svg>
