<?xml version="1.0" encoding="utf-8"?>
<!-- Generator: Adobe Illustrator 25.0.0, SVG Export Plug-In . SVG Version: 6.00 Build 0)  -->
<!DOCTYPE svg PUBLIC "-//W3C//DTD SVG 1.1//EN" "http://www.w3.org/Graphics/SVG/1.1/DTD/svg11.dtd" [
	<!ENTITY ns_extend "http://ns.adobe.com/Extensibility/1.0/">
	<!ENTITY ns_ai "http://ns.adobe.com/AdobeIllustrator/10.0/">
	<!ENTITY ns_graphs "http://ns.adobe.com/Graphs/1.0/">
	<!ENTITY ns_vars "http://ns.adobe.com/Variables/1.0/">
	<!ENTITY ns_imrep "http://ns.adobe.com/ImageReplacement/1.0/">
	<!ENTITY ns_sfw "http://ns.adobe.com/SaveForWeb/1.0/">
	<!ENTITY ns_custom "http://ns.adobe.com/GenericCustomNamespace/1.0/">
	<!ENTITY ns_adobe_xpath "http://ns.adobe.com/XPath/1.0/">
]>
<svg version="1.1" id="Livello_1" xmlns:x="&ns_extend;" xmlns:i="&ns_ai;" xmlns:graph="&ns_graphs;"
	 xmlns="http://www.w3.org/2000/svg" xmlns:xlink="http://www.w3.org/1999/xlink" x="0px" y="0px" viewBox="0 0 400 400"
	 style="enable-background:new 0 0 400 400;" xml:space="preserve">
<style type="text/css">
	.st0{opacity:0.45;fill:#FFFFFF;}
	.st1{fill:none;stroke:#DC4B33;stroke-width:0.9;stroke-miterlimit:10;}
</style>
<metadata>
	<sfw  xmlns="&ns_sfw;">
		<slices></slices>
		<sliceSourceBounds  bottomLeftOrigin="true" height="283.344" width="227.643" x="81.371" y="52.015"></sliceSourceBounds>
	</sfw>
</metadata>
<path class="st0" d="M149.472,65.091c0.539,0,1.456-0.012,1.975,0.088c0.427,0.082,1.177,0.197,1.591,0.341
	c0.598,0.172,1.234,0.385,1.89,0.645l0,0c9.211,4.06,16.952,18.428,23.833,27.919c4.81,6.735,6.475,11.381,4.658,17.623
	c-0.298,1.344-0.725,2.765-1.311,4.224c-0.193,0.668-0.452,1.341-0.764,1.992c-1.736,4.002-4.652,9.098-5.177,13.723
	c-0.274,1.766-0.128,3.47,0.326,5c0.834,2.777,2.721,4.839,5.059,5.474c0.262-0.019,0.524-0.039,0.788-0.098
	c2.285-0.32,4.304-1.514,6.984-1.608c1.938-0.067,3.84,0.148,5.755,0.468c1.123,0.189,2.23,0.412,3.337,0.632
	c0.679,0.13,1.337,0.237,1.99,0.322c0.723,0.093,1.437,0.154,2.159,0.19c9.012,0.442,16.58-3.049,24.615-1.293
	c0.859,0.188,1.702,0.446,2.576,0.781c0.37,0.146,0.753,0.301,1.146,0.468c0.59,0.073,1.201,0.167,1.825,0.283
	c4.169,0.779,8.736,2.569,10.911,6.008c0.018,0.049,0.084,0.119,0.101,0.169c0.017,0.05,0.081,0.122,0.097,0.172
	c1.825,4.117-2.474,5.045-1.305,8.92c0.322,0.881,1.557,1.192,1.971,2.097c0.254,0.564,0.388,1.161,0.499,1.741
	c0.151,0.609,0.304,1.225,0.639,1.831c1.142,2.108,2.901,2.961,4.957,3.121c0.916,0.072,1.904,0.036,2.887-0.125
	c5.99-0.776,9.16-4.284,14.232-3.697c0.474,0.055,0.958,0.153,1.462,0.284c0.31,0.051,0.769,0.255,1.1,0.344
	c0.672,0.205,1.479,0.541,2.305,0.931c3.892,1.916,6.798,5.293,11.077,7.193c3.741,1.54,5.823,3.364,8.348,6.023
	c0.651,0.687,1.327,1.421,2.065,2.21c3.195,3.431,6.108,4.77,8.235,8.984c1.14,2.292,1.777,4.492,2.283,6.723
	c0.09,0.397,0.176,0.798,0.261,1.202c0.056,0.231,0.113,0.468,0.168,0.7c0.213,0.916,0.431,1.873,0.67,2.88
	c0.566,2.421,1.869,4.636,2.411,7.198c1.127,5.329-0.115,11.331-0.487,16.376c-0.037,0.488-0.067,0.977-0.086,1.454
	c-0.029,0.678-0.06,1.341-0.081,1.936c-0.287,8.469-1.769,16.726-5.361,24.092c-1.021,2.124-2.47,4.152-3.88,6.14
	c-0.141,0.199-0.282,0.397-0.422,0.594c-1.895,4.218-3.208,8.646,1.364,14.024c0.701,0.867,1.433,1.705,2.144,2.55
	c2.591,3.165,4.917,6.055,4.517,10.406c-0.551,5.991-4.433,8.02-8.058,11.169c-0.248,0.213-0.475,0.426-0.685,0.638
	c-1.688,1.947-2.298,4.237-4.961,5.955c-0.593,0.372-1.121,0.643-1.617,0.9c-0.809,0.538-1.487,1.046-2.262,2.133
	c-1.132,1.682-1.571,4.034-2.458,5.952c-3.601,7.897-8.256,14.512-16.637,18.945c-0.006,0.003-0.017,0.009-0.023,0.012
	c-0.006,0.003-0.017,0.009-0.023,0.012c-3.209,1.674-6.728,1.959-9.873,2.676c-1.071,0.42-2.152,0.927-3.22,1.58
	c-0.02,0.01-0.053,0.033-0.072,0.043s-0.053,0.034-0.072,0.044c-3.074,1.894-4.49,4.703-7.171,6.923
	c-3.798,3.152-7.641,4.054-11.763,4.115c-0.684,0.009-1.376-0.003-2.078-0.031c-1.891-0.073-3.784-0.256-5.712-0.387
	c-0.766-0.053-1.537-0.098-2.307-0.125c-0.144-0.002-0.287-0.003-0.43-0.005c-0.052,0-0.154,0-0.206,0
	c-1.371,0-2.874,0.184-4.335,0.422c-3.466,0.551-6.869,1.505-10.715,1.763c-0.282,0-0.725,0.051-0.967,0.051
	c-0.044,0-0.119,0-0.163-0.001c-0.585,0-1.186-0.029-1.795-0.088c-3.147-0.312-5.908-1.385-8.853-2.44
	c-3.731-1.32-6.937-1.494-10.169-2.694c-0.43-0.16-0.864-0.338-1.306-0.542c-0.472-0.206-1.028-0.4-1.553-0.566
	c-1.837-0.593-3.82-0.926-5.889-1.039c-1.651-0.091-3.304-0.003-4.935,0.207c-0.531,0.15-1.064,0.32-1.597,0.508
	c-2.287,0.816-4.564,1.634-6.985,1.72c-1.728,0.058-3.485-0.268-5.269-1.316c-6.421-3.75-3.306-11.164-2.031-15.711
	c0.148-0.432,0.265-0.877,0.353-1.332c0.75-4.036-0.693-8.876-2.644-12.969c-1.326-2.773-2.901-5.345-3.228-8.395
	c-0.376-3.762,1.707-5.863,2.258-9.232c0.179-1.071,0.19-2.117,0.102-3.151c-0.221-3.018-1.225-5.825-1.546-8.638
	c-0.451-1.297-0.778-2.695-0.779-4.216c0.088-2.529,0.684-4.889,1.556-7.245c0.015-0.026,0.028-0.084,0.043-0.109
	s0.028-0.083,0.043-0.109c1.137-3.013,2.746-5.703,3.962-8.407c0.723-2.663,1.025-5.709,0.485-9.439
	c-0.171-1.192-0.446-2.437-0.786-3.712c-0.008-0.019-0.013-0.06-0.021-0.079c-0.008-0.019-0.013-0.06-0.021-0.079
	c-1.146-4.879-3.005-9.481-4.852-12.933c-0.506-0.578-1.025-1.143-1.542-1.678c-0.453-0.401-0.891-0.788-1.312-1.157
	c-0.171-0.122-1.779-1.137-1.924-1.267c-0.821-0.397-1.424-1.003-1.923-1.692c-0.503-0.46-0.956-0.99-1.433-1.511
	c-0.504-0.572-1.018-1.131-1.648-1.563c-1.852-1.267-4.891-2.099-7.097-2.818c-1.69-0.511-3.247-0.826-4.754-1.034
	c-0.303-0.042-0.605-0.076-0.903-0.109c-0.02,0.001-0.057-0.009-0.077-0.008s-0.057-0.009-0.077-0.008
	c-1.077-0.097-2.178-0.145-3.311-0.238c-0.7-0.04-1.408-0.099-2.126-0.192c-2.262-0.293-4.644-0.963-7.264-2.701
	c-4.485-2.992-8.838-5.175-12.149-8.904c-2.503-1.804-4.558-4.096-6.046-7.338c-2.991-6.316-5.018-8.24-10.236-11.565
	c-4.68-3.107-7.146-7.845-8.471-13.986c-0.895-3.532-0.351-7.309,1.147-11.132c2.1-5.303,5.795-10.321,9.196-14.501
	c0.145-0.181,0.453-0.551,0.598-0.728c1.663-2.024,3.323-3.994,4.829-5.866c1.64-2.024,3.262-4.186,4.869-6.463
	c0.007-0.01,0.022-0.032,0.029-0.042s0.022-0.031,0.029-0.041c1.132-1.602,2.23-3.156,3.275-4.673
	c1.361-1.974,2.461-3.628,3.463-5.364c0.004-0.006,0.01-0.018,0.014-0.024c0.004-0.006,0.01-0.018,0.014-0.024
	c0.186-0.315,0.387-0.688,0.587-1.057c0.567-1.011,1.146-2.077,1.746-3.172c3.553-6.169,7.489-11.174,11.647-17.506
	c0.005-0.013,0.026-0.033,0.031-0.046c0.005-0.013,0.026-0.033,0.031-0.046c0.003-0.004,0.006-0.008,0.008-0.012
	c1.063-4.504,2.437-11.008,6.407-13.686c1.697-0.846,3.441-1.283,5.192-1.432c3.2-0.272,6.421,0.362,9.417,0.814
	c1.069,0.175,1.978,0.22,2.688,0.167c6.643-0.496-2.009-11.253-2.521-13.648c-1.462-4.4-1.596-13.328,3.095-14.116
	C148.452,65.148,148.982,65.099,149.472,65.091"/>
<g>
	<g>
		<path class="st1" d="M153.266,78.025c11.856,0,19.488,21.168,25.968,30.576c5.376,7.776,5.808,11.712,0.288,20.016
			c-2.544,3.84-8.256,9.456-9.408,13.872c-1.2,4.656,1.92,8.544,6.528,8.544c0.24,0,0.48,0,0.72-0.048
			c2.112-0.192,3.84-1.44,6.288-1.44c2.832,0,5.472,0.768,8.16,1.392c1.296,0.288,2.496,0.432,3.744,0.432
			c7.872,0,14.64-5.424,22.944-5.424c0.864,0,1.728,0.048,2.64,0.192c4.224,0.624,10.8,2.496,12.288,7.248
			c1.44,4.56-4.272,5.28-3.36,9.552c0.192,0.912,1.488,1.152,1.824,2.112c0.432,1.248,0.144,2.592,0.672,3.888
			c0.96,2.352,2.688,3.216,4.8,3.216c0.912,0,1.92-0.144,2.928-0.432c6.096-1.536,9.12-6.336,14.496-6.336
			c1.488,0,3.12,0.384,5.088,1.248c4.128,1.92,6.864,5.424,11.232,6.864c5.088,1.728,7.056,3.84,10.944,7.584
			c3.408,3.264,6.624,4.08,8.976,8.4c2.064,3.744,2.544,7.296,3.408,11.424c0.528,2.496,1.92,4.656,2.448,7.152
			c1.056,4.992-0.576,11.088-0.672,16.176c-0.144,8.064-1.44,16.272-5.232,23.52c-3.312,6.384-12.096,11.712-4.368,18.576
			c3.696,3.312,8.592,5.568,8.592,10.992c0,5.568-3.456,7.008-7.056,10.176c-2.304,2.016-2.352,4.416-5.088,6
			c-1.68,0.96-2.64,0.912-3.84,2.448c-1.104,1.488-1.344,3.744-2.064,5.472c-3.216,7.632-7.152,13.632-14.592,17.568
			c-3.744,1.968-8.304,1.44-12.048,3.36c-3.024,1.536-3.888,4.368-6.24,6.624c-3.408,3.216-6.768,3.984-10.368,3.984
			c-2.784,0-5.712-0.432-9.024-0.528c-0.192,0-0.384,0-0.576,0c-5.184,0-9.456,1.728-14.448,2.064c-0.336,0-0.672,0.048-0.96,0.048
			c-3.792,0-6.816-1.44-10.272-2.784c-3.936-1.536-7.296-1.2-11.04-2.976c-2.256-1.056-4.656-1.536-7.104-1.536
			c-2.16,0-4.272,0.384-6.288,1.104c-2.256,0.816-4.416,1.632-6.672,1.632c-1.632,0-3.264-0.432-4.896-1.68
			c-6.048-4.464-0.816-12.816,2.016-17.328c2.736-4.368,1.728-9.984-0.288-14.352c-1.248-2.688-2.88-5.088-3.12-8.016
			c-0.24-3.504,2.256-4.992,2.736-7.968c0.816-4.896-4.176-8.976-3.456-14.16c1.248-8.4,9.792-12.576,8.016-21.84
			c-1.104-5.808-6.96-13.008-11.088-16.896l-1.728-1.056c-2.208-0.816-2.448-3.648-3.888-5.088c-1.392-1.44-4.224-2.256-6.096-2.832
			c-1.536-0.432-2.928-0.576-4.272-0.576c-2.064,0-3.984,0.336-5.904,0.336c-2.064,0-4.176-0.384-6.576-1.872
			c-6.912-4.368-13.44-5.328-16.32-13.776c-2.112-6.144-3.744-6.864-9.456-9.6c-5.04-2.4-7.584-6.192-9.648-11.232
			c-3.984-9.744,6.576-21.408,12.576-28.416c4.656-5.472,8.928-11.808,12.72-17.952c3.6-5.76,7.104-9.552,9.504-15.984
			c1.392-3.696,2.784-9.792,6.768-11.52c1.92-0.816,3.888-1.152,5.856-1.152c3.6,0,7.2,1.056,10.512,1.872
			c1.2,0.288,2.208,0.432,2.976,0.432c7.44,0-3.408-12.528-4.608-15.072c-2.304-4.944-3.072-15.36,1.872-16.176
			C152.162,78.073,152.738,78.025,153.266,78.025"/>
	</g>
</g>
<path class="st1" d="M152.318,74.792c0.616,0,1.318,0.044,1.911,0.158c0.488,0.094,1.051,0.225,1.524,0.39
	c0.599,0.2,1.199,0.45,1.796,0.747l0,0c9.059,4.64,15.731,20.536,21.568,28.886c4.569,6.553,5.767,10.577,3.069,16.575
	c-0.518,1.213-1.186,2.507-2.016,3.899c-0.324,0.584-0.715,1.197-1.152,1.826c-2.55,3.753-6.519,8.518-7.39,12.507
	c-0.386,1.671-0.264,3.256,0.244,4.623c0.933,2.506,3.175,4.245,5.999,4.404c0.245-0.005,0.491-0.01,0.737-0.061
	c2.155-0.224,3.956-1.458,6.462-1.482c1.82-0.017,3.575,0.265,5.32,0.63c1.028,0.216,2.048,0.46,3.073,0.689
	c0.631,0.135,1.241,0.24,1.844,0.315c0.668,0.083,1.329,0.129,2.001,0.137c8.157,0.117,15.121-4.835,23.362-4.391
	c0.862,0.046,1.722,0.148,2.624,0.339c0.378,0.079,0.775,0.167,1.183,0.267c0.542,0.093,1.107,0.204,1.682,0.337
	c3.857,0.89,8.181,2.736,9.729,6.255c0.021,0.056,0.053,0.118,0.073,0.174s0.05,0.12,0.068,0.177
	c1.536,4.449-3.823,5.221-2.846,9.394c0.225,0.904,1.505,1.162,1.861,2.108c0.219,0.591,0.284,1.207,0.346,1.824
	c0.075,0.661,0.154,1.329,0.443,1.985c1.006,2.291,2.741,3.156,4.839,3.192c0.913,0.019,1.916-0.099,2.918-0.355
	c6.07-1.346,9.129-5.825,14.43-5.676c0.485,0.014,0.986,0.07,1.507,0.167c0.355,0.058,0.755,0.171,1.133,0.273
	c0.733,0.203,1.536,0.503,2.392,0.886c4.069,1.919,6.848,5.391,11.193,6.946c3.973,1.417,6.048,3.087,8.658,5.62
	c0.67,0.651,1.374,1.356,2.154,2.127c3.355,3.306,6.495,4.252,8.791,8.546c1.205,2.243,1.865,4.412,2.382,6.659
	c0.091,0.394,0.177,0.792,0.262,1.193c0.051,0.232,0.101,0.467,0.151,0.701c0.197,0.933,0.391,1.894,0.607,2.892
	c0.538,2.477,1.907,4.651,2.439,7.164c1.006,4.758-0.267,10.377-0.584,15.236c-0.03,0.457-0.052,0.909-0.063,1.353
	c-0.015,0.608-0.035,1.213-0.058,1.801c-0.293,7.737-1.691,15.462-5.227,22.346c-0.985,1.938-2.432,3.784-3.805,5.601
	c-0.138,0.183-0.276,0.365-0.412,0.547c-2.783,4.084-4.857,8.147,0.207,12.973c0.772,0.751,1.593,1.458,2.404,2.162
	c2.961,2.589,5.807,5.04,5.705,9.321c-0.135,5.673-3.7,7.261-7.306,10.424c-0.229,0.199-0.437,0.401-0.628,0.604
	c-1.719,1.896-2.08,4.041-4.6,5.544c-0.582,0.341-1.084,0.567-1.544,0.78c-0.84,0.416-1.522,0.788-2.306,1.815
	c-1.111,1.536-1.401,3.817-2.163,5.592c-3.312,7.698-7.428,13.852-15.103,17.912c-0.007,0.003-0.015,0.008-0.021,0.011
	c-0.007,0.003-0.015,0.008-0.021,0.011c-2.86,1.488-6.124,1.635-9.139,2.347c-1.074,0.298-2.13,0.677-3.139,1.221
	c-0.022,0.011-0.048,0.026-0.07,0.038c-0.022,0.011-0.048,0.026-0.069,0.038c-2.953,1.637-3.962,4.424-6.369,6.645
	c-3.506,3.2-6.986,4.001-10.717,4.017c-0.629,0.002-1.266-0.016-1.912-0.049c-1.691-0.083-3.431-0.258-5.26-0.378
	c-0.694-0.046-1.401-0.084-2.12-0.105c-0.133,0-0.266-0.001-0.399-0.001c-0.06,0-0.132,0-0.192,0c-1.427,0-2.833,0.147-4.203,0.357
	c-3.464,0.528-6.734,1.491-10.396,1.737c-0.323,0-0.685,0.049-0.962,0.049c-0.051,0-0.109,0-0.159-0.001
	c-0.59-0.005-1.171-0.043-1.742-0.11c-3.003-0.356-5.62-1.51-8.505-2.609c-3.545-1.35-6.62-1.313-9.863-2.504
	c-0.424-0.156-0.852-0.333-1.286-0.537c-0.481-0.221-0.987-0.42-1.49-0.592c-1.822-0.628-3.739-0.93-5.698-0.961
	c-1.627-0.02-3.235,0.161-4.801,0.522c-0.52,0.141-1.036,0.302-1.548,0.484c-2.264,0.816-4.453,1.632-6.75,1.654
	c-1.656,0.015-3.319-0.391-4.989-1.589c-6.141-4.285-1.439-12.403,1.004-16.924c0.246-0.441,0.455-0.895,0.629-1.36
	c1.537-4.105,0.428-9.014-1.418-12.98c-1.267-2.709-2.885-5.152-3.147-8.111c-0.274-3.569,2.119-5.21,2.617-8.284
	c0.164-0.982,0.121-1.935-0.048-2.872c-0.471-2.675-1.949-5.197-2.626-7.86c-0.389-1.232-0.611-2.518-0.474-3.89
	c0.285-2.402,1.129-4.512,2.18-6.526c0.017-0.029,0.034-0.067,0.051-0.096c0.017-0.029,0.034-0.067,0.052-0.096
	c1.36-2.565,3.049-4.902,4.241-7.418c1.05-2.467,1.613-5.199,1.01-8.572c-0.191-1.076-0.521-2.198-0.953-3.341
	c-0.009-0.022-0.017-0.049-0.027-0.071c-0.009-0.022-0.018-0.049-0.027-0.071c-1.527-4.109-4.273-8.301-6.867-11.495
	c-0.477-0.528-0.954-1.033-1.42-1.508c-0.396-0.386-0.783-0.753-1.155-1.097c-0.043-0.031-1.741-1.076-1.777-1.109
	c-0.781-0.312-1.328-0.858-1.772-1.501c-0.411-0.536-0.746-1.15-1.096-1.744c-0.38-0.654-0.772-1.285-1.299-1.762
	c-1.507-1.397-4.391-2.217-6.346-2.828c-1.574-0.452-3.008-0.639-4.393-0.691c-0.285-0.011-0.568-0.014-0.849-0.015
	c-0.023,0.001-0.05-0.001-0.073,0c-0.023,0.001-0.05-0.001-0.072,0c-1.04,0.01-2.062,0.077-3.083,0.11
	c-0.659,0.027-1.316,0.041-1.975,0.017c-2.114-0.071-4.293-0.529-6.748-2.079c-4.33-2.776-8.517-4.37-11.752-7.309
	c-2.108-1.686-3.842-3.859-5.037-7.083c-2.332-6.187-4.062-7.208-9.651-10.091c-4.95-2.577-7.475-6.605-9.354-11.92
	c-1.191-3.25-0.879-6.712,0.329-10.169c1.653-4.709,4.907-9.317,8.086-13.27c0.165-0.207,0.372-0.459,0.537-0.662
	c1.55-1.901,3.084-3.676,4.422-5.268c1.537-1.83,3.039-3.763,4.506-5.765c0.008-0.011,0.019-0.026,0.027-0.037
	s0.019-0.026,0.027-0.037c1.024-1.399,2.024-2.807,2.994-4.215c1.135-1.648,2.185-3.23,3.187-4.832
	c0.004-0.007,0.009-0.015,0.013-0.021c0.004-0.007,0.009-0.015,0.013-0.021c0.19-0.303,0.384-0.62,0.576-0.936
	c0.571-0.928,1.138-1.869,1.703-2.814c3.588-5.862,7.2-9.957,10.04-16.364c0.006-0.015,0.015-0.031,0.021-0.046
	c0.006-0.015,0.015-0.032,0.021-0.046c0.002-0.004,0.004-0.008,0.006-0.012c1.3-3.905,2.696-10.029,6.648-11.983
	c1.864-0.823,3.776-1.185,5.69-1.222c3.5-0.068,7.005,0.882,10.238,1.607c1.167,0.26,2.151,0.379,2.904,0.366
	c7.242-0.126-3.058-12.209-4.086-14.716c-2.093-4.808-2.703-14.852,2.178-15.661C151.235,74.842,151.799,74.794,152.318,74.792"/>
<path class="st1" d="M151.369,71.558c0.591,0,1.364,0.025,1.932,0.134c0.468,0.09,1.093,0.215,1.546,0.374
	c0.599,0.19,1.211,0.428,1.827,0.713l0,0c9.11,4.446,16.138,19.833,22.323,28.563c4.65,6.614,6.003,10.845,3.599,16.924
	c-0.445,1.257-1.032,2.593-1.781,4.008c-0.281,0.612-0.627,1.245-1.022,1.881c-2.279,3.836-5.897,8.711-6.652,12.912
	c-0.348,1.703-0.219,3.327,0.271,4.748c0.9,2.596,3.024,4.443,5.686,4.76c0.251-0.01,0.502-0.019,0.754-0.073
	c2.198-0.256,4.072-1.477,6.636-1.524c1.86-0.033,3.663,0.226,5.465,0.576c1.06,0.207,2.109,0.444,3.161,0.67
	c0.647,0.133,1.273,0.239,1.893,0.318c0.686,0.086,1.365,0.138,2.054,0.155c8.441,0.234,15.605-4.244,23.78-3.358
	c0.861,0.093,1.715,0.247,2.608,0.486c0.376,0.101,0.767,0.212,1.171,0.334c0.558,0.086,1.138,0.192,1.73,0.319
	c3.961,0.853,8.366,2.68,10.123,6.173c0.02,0.054,0.064,0.118,0.082,0.173s0.06,0.12,0.078,0.176
	c1.633,4.338-3.373,5.162-2.332,9.236c0.257,0.896,1.523,1.172,1.898,2.104c0.231,0.582,0.318,1.192,0.397,1.796
	c0.1,0.644,0.204,1.295,0.508,1.934c1.051,2.23,2.794,3.088,4.878,3.169c0.914,0.035,1.912-0.054,2.908-0.279
	c6.043-1.156,9.139-5.312,14.364-5.016c0.481,0.027,0.977,0.097,1.492,0.206c0.34,0.056,0.76,0.199,1.122,0.297
	c0.713,0.204,1.517,0.516,2.363,0.901c4.01,1.918,6.831,5.359,11.154,7.029c3.896,1.458,5.973,3.179,8.554,5.754
	c0.664,0.663,1.358,1.378,2.124,2.155c3.302,3.348,6.366,4.425,8.606,8.692c1.184,2.259,1.836,4.438,2.349,6.68
	c0.09,0.395,0.177,0.794,0.261,1.196c0.052,0.232,0.105,0.467,0.156,0.701c0.202,0.928,0.404,1.887,0.628,2.888
	c0.547,2.459,1.894,4.646,2.429,7.175c1.047,4.948-0.217,10.695-0.552,15.616c-0.032,0.467-0.057,0.932-0.071,1.386
	c-0.02,0.632-0.043,1.256-0.066,1.846c-0.291,7.981-1.717,15.884-5.271,22.928c-0.997,2-2.445,3.907-3.83,5.781
	c-0.139,0.188-0.278,0.376-0.415,0.563c-2.487,4.129-4.308,8.313,0.592,13.323c0.748,0.79,1.54,1.541,2.317,2.291
	c2.838,2.781,5.512,5.378,5.309,9.683c-0.272,5.779-3.944,7.514-7.557,10.672c-0.235,0.204-0.45,0.409-0.647,0.615
	c-1.709,1.913-2.153,4.106-4.72,5.681c-0.586,0.351-1.096,0.592-1.568,0.82c-0.83,0.457-1.51,0.874-2.291,1.921
	c-1.118,1.585-1.458,3.889-2.261,5.712c-3.409,7.764-7.704,14.072-15.615,18.257c-0.006,0.003-0.016,0.008-0.022,0.011
	c-0.006,0.003-0.016,0.008-0.022,0.011c-2.977,1.55-6.325,1.743-9.383,2.457c-1.073,0.338-2.137,0.76-3.166,1.34
	c-0.021,0.011-0.05,0.029-0.071,0.04c-0.021,0.011-0.049,0.029-0.07,0.04c-2.993,1.723-4.138,4.517-6.636,6.737
	c-3.603,3.184-7.204,4.019-11.066,4.049c-0.648,0.005-1.303-0.012-1.967-0.043c-1.758-0.08-3.549-0.257-5.411-0.381
	c-0.718-0.048-1.446-0.089-2.182-0.112c-0.137-0.001-0.273-0.002-0.409-0.002c-0.057,0-0.139,0-0.196,0
	c-1.408,0-2.847,0.159-4.247,0.379c-3.465,0.535-6.779,1.495-10.502,1.746c-0.309,0-0.699,0.05-0.964,0.05
	c-0.049,0-0.112,0-0.16-0.001c-0.589-0.003-1.176-0.038-1.76-0.103c-3.051-0.341-5.716-1.468-8.621-2.553
	c-3.607-1.34-6.726-1.373-9.965-2.567c-0.426-0.157-0.856-0.335-1.293-0.539c-0.478-0.216-1.001-0.413-1.511-0.583
	c-1.827-0.616-3.766-0.931-5.762-0.987c-1.635-0.046-3.258,0.106-4.846,0.417c-0.524,0.144-1.045,0.308-1.564,0.492
	c-2.271,0.816-4.49,1.633-6.829,1.676c-1.68,0.029-3.374-0.35-5.082-1.498c-6.234-4.107-2.061-11.99-0.008-16.519
	c0.213-0.438,0.391-0.889,0.537-1.351c1.275-4.082,0.054-8.968-1.827-12.976c-1.287-2.73-2.891-5.217-3.174-8.205
	c-0.308-3.633,1.982-5.428,2.497-8.6c0.169-1.012,0.144-1.996,0.002-2.965c-0.388-2.79-1.708-5.406-2.266-8.119
	c-0.41-1.253-0.667-2.577-0.576-3.999c0.219-2.444,0.981-4.637,1.972-6.765c0.017-0.028,0.032-0.072,0.048-0.101
	c0.017-0.028,0.032-0.072,0.049-0.1c1.286-2.714,2.948-5.169,4.148-7.748c0.941-2.533,1.417-5.369,0.835-8.861
	c-0.184-1.114-0.496-2.278-0.897-3.465c-0.009-0.021-0.016-0.053-0.025-0.073s-0.016-0.053-0.025-0.073
	c-1.4-4.366-3.85-8.694-6.195-11.974c-0.487-0.544-0.977-1.07-1.461-1.565c-0.415-0.391-0.819-0.765-1.207-1.117
	c-0.085-0.061-1.754-1.096-1.826-1.162c-0.794-0.34-1.36-0.907-1.822-1.564c-0.441-0.511-0.816-1.096-1.209-1.667
	c-0.421-0.627-0.854-1.234-1.415-1.696c-1.622-1.353-4.558-2.177-6.597-2.825c-1.613-0.472-3.088-0.702-4.513-0.805
	c-0.291-0.021-0.58-0.035-0.867-0.046c-0.022,0.001-0.052-0.004-0.074-0.003c-0.022,0.001-0.052-0.004-0.074-0.003
	c-1.052-0.026-2.101,0.003-3.159-0.006c-0.673,0.005-1.346-0.006-2.025-0.052c-2.163-0.147-4.41-0.673-6.92-2.287
	c-4.382-2.848-8.624-4.638-11.884-7.841c-2.239-1.726-4.08-3.938-5.373-7.168c-2.551-6.23-4.381-7.552-9.846-10.582
	c-4.86-2.754-7.365-7.019-9.06-12.609c-1.093-3.344-0.703-6.911,0.602-10.49c1.802-4.907,5.203-9.652,8.456-13.68
	c0.159-0.198,0.399-0.49,0.557-0.684c1.588-1.942,3.163-3.782,4.558-5.467c1.571-1.895,3.113-3.904,4.627-5.997
	c0.008-0.011,0.02-0.028,0.028-0.039c0.008-0.011,0.02-0.028,0.028-0.039c1.06-1.467,2.093-2.923,3.088-4.368
	c1.21-1.757,2.277-3.362,3.279-5.01c0.004-0.006,0.009-0.016,0.013-0.022s0.009-0.016,0.013-0.022
	c0.189-0.307,0.385-0.642,0.58-0.976c0.57-0.955,1.141-1.938,1.717-2.933c3.576-5.964,7.297-10.363,10.575-16.745
	c0.005-0.014,0.019-0.032,0.024-0.046c0.005-0.014,0.019-0.032,0.024-0.046c0.002-0.004,0.004-0.008,0.006-0.012
	c1.221-4.105,2.61-10.355,6.568-12.551c1.809-0.831,3.665-1.217,5.524-1.292c3.4-0.136,6.81,0.709,9.964,1.343
	c1.135,0.232,2.093,0.326,2.832,0.3c7.043-0.251-2.708-11.89-3.565-14.36c-1.883-4.672-2.334-14.344,2.483-15.146
	C150.307,71.61,150.86,71.562,151.369,71.558"/>
<path class="st1" d="M150.421,68.325c0.565,0,1.41,0.007,1.954,0.111c0.447,0.086,1.135,0.206,1.569,0.357
	c0.598,0.181,1.222,0.407,1.858,0.679l0,0c9.161,4.253,16.545,19.131,23.078,28.241c4.73,6.674,6.239,11.113,4.129,17.273
	c-0.371,1.301-0.878,2.679-1.546,4.116c-0.237,0.64-0.539,1.293-0.893,1.936c-2.007,3.919-5.274,8.904-5.915,13.318
	c-0.311,1.734-0.173,3.399,0.299,4.874c0.867,2.687,2.872,4.641,5.372,5.117c0.256-0.015,0.513-0.029,0.771-0.086
	c2.242-0.288,4.188-1.495,6.81-1.566c1.899-0.05,3.752,0.187,5.61,0.522c1.091,0.198,2.169,0.428,3.249,0.651
	c0.663,0.132,1.305,0.238,1.942,0.32c0.705,0.09,1.401,0.146,2.106,0.172c8.727,0.33,16.091-3.648,24.198-2.326
	c0.86,0.14,1.709,0.347,2.592,0.634c0.373,0.123,0.76,0.257,1.158,0.401c0.574,0.08,1.17,0.179,1.778,0.301
	c4.065,0.816,8.551,2.624,10.517,6.091c0.019,0.051,0.074,0.119,0.092,0.171c0.018,0.052,0.071,0.121,0.087,0.174
	c1.729,4.228-2.924,5.104-1.819,9.078c0.29,0.889,1.54,1.182,1.934,2.1c0.242,0.573,0.353,1.176,0.448,1.769
	c0.126,0.626,0.254,1.26,0.574,1.883c1.097,2.169,2.848,3.024,4.918,3.145c0.915,0.053,1.908-0.009,2.898-0.202
	c6.017-0.966,9.149-4.799,14.298-4.357c0.477,0.041,0.967,0.125,1.477,0.245c0.325,0.053,0.765,0.227,1.111,0.32
	c0.692,0.204,1.498,0.529,2.334,0.916c3.951,1.917,6.815,5.326,11.115,7.111c3.818,1.499,5.898,3.272,8.451,5.888
	c0.657,0.675,1.343,1.399,2.094,2.182c3.248,3.389,6.237,4.597,8.42,8.838c1.162,2.275,1.807,4.465,2.316,6.702
	c0.09,0.396,0.176,0.796,0.261,1.199c0.054,0.231,0.109,0.468,0.162,0.7c0.208,0.922,0.418,1.88,0.649,2.884
	c0.557,2.44,1.881,4.641,2.42,7.187c1.087,5.138-0.166,11.013-0.519,15.996c-0.035,0.478-0.062,0.954-0.079,1.42
	c-0.025,0.655-0.052,1.299-0.073,1.891c-0.289,8.225-1.743,16.305-5.316,23.51c-1.009,2.062-2.458,4.03-3.855,5.961
	c-0.14,0.193-0.28,0.386-0.418,0.578c-2.191,4.173-3.758,8.48,0.978,13.674c0.724,0.829,1.486,1.623,2.23,2.421
	c2.714,2.973,5.215,5.717,4.913,10.044c-0.411,5.885-4.188,7.767-7.807,10.921c-0.242,0.209-0.462,0.418-0.666,0.626
	c-1.698,1.93-2.226,4.171-4.84,5.818c-0.589,0.362-1.109,0.617-1.593,0.86c-0.82,0.498-1.499,0.96-2.276,2.027
	c-1.125,1.633-1.514,3.962-2.36,5.832c-3.505,7.831-7.98,14.292-16.126,18.601c-0.006,0.003-0.016,0.009-0.022,0.012
	c-0.006,0.003-0.016,0.009-0.022,0.012c-3.093,1.612-6.527,1.851-9.628,2.566c-1.072,0.379-2.145,0.843-3.193,1.46
	c-0.02,0.01-0.051,0.031-0.072,0.042c-0.02,0.01-0.051,0.031-0.071,0.042c-3.034,1.809-4.314,4.61-6.903,6.83
	c-3.701,3.168-7.423,4.036-11.414,4.082c-0.666,0.007-1.339-0.008-2.023-0.037c-1.825-0.076-3.667-0.256-5.561-0.384
	c-0.742-0.05-1.491-0.093-2.244-0.118c-0.14-0.001-0.28-0.003-0.42-0.004c-0.055,0-0.146,0-0.201,0c-1.39,0-2.86,0.172-4.291,0.4
	c-3.466,0.543-6.824,1.5-10.609,1.755c-0.296,0-0.712,0.05-0.966,0.05c-0.046,0-0.116,0-0.162-0.001
	c-0.587-0.001-1.181-0.034-1.777-0.095c-3.099-0.326-5.812-1.426-8.737-2.497c-3.669-1.33-6.832-1.434-10.067-2.631
	c-0.428-0.159-0.86-0.337-1.299-0.54c-0.475-0.211-1.015-0.406-1.532-0.575c-1.832-0.605-3.793-0.929-5.825-1.013
	c-1.643-0.068-3.281,0.052-4.891,0.312c-0.527,0.147-1.054,0.314-1.58,0.5c-2.279,0.816-4.527,1.633-6.907,1.698
	c-1.704,0.044-3.43-0.309-5.176-1.407c-6.328-3.928-2.684-11.577-1.02-16.115c0.181-0.435,0.328-0.883,0.445-1.341
	c1.012-4.059-0.319-8.922-2.235-12.973c-1.306-2.752-2.896-5.281-3.201-8.3c-0.342-3.698,1.845-5.645,2.378-8.916
	c0.174-1.041,0.167-2.056,0.052-3.058c-0.305-2.904-1.467-5.616-1.906-8.379c-0.431-1.275-0.723-2.636-0.678-4.107
	c0.154-2.486,0.833-4.763,1.764-7.005c0.016-0.027,0.03-0.078,0.046-0.105s0.03-0.078,0.046-0.105
	c1.212-2.864,2.847-5.436,4.055-8.077c0.832-2.598,1.221-5.539,0.66-9.15c-0.177-1.153-0.471-2.357-0.841-3.589
	c-0.008-0.02-0.014-0.057-0.023-0.076s-0.014-0.057-0.023-0.076c-1.273-4.622-3.428-9.088-5.524-12.453
	c-0.497-0.561-1.001-1.106-1.501-1.621c-0.434-0.396-0.855-0.777-1.26-1.137c-0.128-0.092-1.766-1.117-1.875-1.214
	c-0.808-0.369-1.392-0.955-1.872-1.628c-0.472-0.485-0.886-1.043-1.321-1.589c-0.463-0.6-0.936-1.183-1.531-1.629
	c-1.737-1.31-4.724-2.138-6.847-2.821c-1.651-0.491-3.167-0.764-4.634-0.92c-0.297-0.032-0.593-0.055-0.885-0.078
	c-0.021,0.001-0.055-0.007-0.076-0.006c-0.021,0.001-0.055-0.007-0.076-0.006c-1.065-0.061-2.14-0.071-3.235-0.122
	c-0.687-0.017-1.377-0.053-2.075-0.122c-2.213-0.22-4.527-0.818-7.092-2.494c-4.433-2.92-8.731-4.906-12.017-8.373
	c-2.371-1.765-4.319-4.017-5.71-7.253c-2.771-6.273-4.699-7.896-10.041-11.074c-4.77-2.931-7.256-7.432-8.766-13.297
	c-0.994-3.438-0.527-7.109,0.875-10.811c1.951-5.105,5.499-9.986,8.826-14.091c0.152-0.189,0.426-0.52,0.577-0.706
	c1.626-1.983,3.243-3.888,4.693-5.667c1.605-1.959,3.188-4.045,4.748-6.23c0.008-0.01,0.021-0.03,0.029-0.04
	c0.008-0.01,0.021-0.03,0.029-0.04c1.096-1.534,2.161-3.039,3.182-4.52c1.286-1.865,2.369-3.495,3.371-5.187
	c0.004-0.006,0.01-0.017,0.014-0.023s0.01-0.017,0.014-0.023c0.187-0.311,0.386-0.665,0.583-1.016
	c0.569-0.983,1.143-2.007,1.732-3.053c3.565-6.066,7.393-10.768,11.111-17.125c0.005-0.014,0.022-0.032,0.027-0.046
	c0.005-0.014,0.022-0.033,0.028-0.046c0.002-0.004,0.005-0.008,0.007-0.012c1.142-4.304,2.523-10.681,6.487-13.118
	c1.753-0.838,3.553-1.25,5.358-1.362c3.3-0.204,6.615,0.535,9.69,1.078c1.102,0.203,2.035,0.273,2.76,0.233
	c6.843-0.374-2.359-11.572-3.043-14.004c-1.672-4.536-1.965-13.836,2.789-14.631C149.38,68.379,149.921,68.331,150.421,68.325"/>
<path class="st1" d="M149.472,65.091c0.539,0,1.456-0.012,1.975,0.088c0.427,0.082,1.177,0.197,1.591,0.341
	c0.598,0.172,1.234,0.385,1.89,0.645l0,0c9.211,4.06,16.952,18.428,23.833,27.919c4.81,6.735,6.475,11.381,4.658,17.623
	c-0.298,1.344-0.725,2.765-1.311,4.224c-0.193,0.668-0.452,1.341-0.764,1.992c-1.736,4.002-4.652,9.098-5.177,13.723
	c-0.274,1.766-0.128,3.47,0.326,5c0.834,2.777,2.721,4.839,5.059,5.474c0.262-0.019,0.524-0.039,0.788-0.098
	c2.285-0.32,4.304-1.514,6.984-1.608c1.938-0.067,3.84,0.148,5.755,0.468c1.123,0.189,2.23,0.412,3.337,0.632
	c0.679,0.13,1.337,0.237,1.99,0.322c0.723,0.093,1.437,0.154,2.159,0.19c9.012,0.442,16.58-3.049,24.615-1.293
	c0.859,0.188,1.702,0.446,2.576,0.781c0.37,0.146,0.753,0.301,1.146,0.468c0.59,0.073,1.201,0.167,1.825,0.283
	c4.169,0.779,8.736,2.569,10.911,6.008c0.018,0.049,0.084,0.119,0.101,0.169c0.017,0.05,0.081,0.122,0.097,0.172
	c1.825,4.117-2.474,5.045-1.305,8.92c0.322,0.881,1.557,1.192,1.971,2.097c0.254,0.564,0.388,1.161,0.499,1.741
	c0.151,0.609,0.304,1.225,0.639,1.831c1.142,2.108,2.901,2.961,4.957,3.121c0.916,0.072,1.904,0.036,2.887-0.125
	c5.99-0.776,9.16-4.284,14.232-3.697c0.474,0.055,0.958,0.153,1.462,0.284c0.31,0.051,0.769,0.255,1.1,0.344
	c0.672,0.205,1.479,0.541,2.305,0.931c3.892,1.916,6.798,5.293,11.077,7.193c3.741,1.54,5.823,3.364,8.348,6.023
	c0.651,0.687,1.327,1.421,2.065,2.21c3.195,3.431,6.108,4.77,8.235,8.984c1.14,2.292,1.777,4.492,2.283,6.723
	c0.09,0.397,0.176,0.798,0.261,1.202c0.056,0.231,0.113,0.468,0.168,0.7c0.213,0.916,0.431,1.873,0.67,2.88
	c0.566,2.421,1.869,4.636,2.411,7.198c1.127,5.329-0.115,11.331-0.487,16.376c-0.037,0.488-0.067,0.977-0.086,1.454
	c-0.029,0.678-0.06,1.341-0.081,1.936c-0.287,8.469-1.769,16.726-5.361,24.092c-1.021,2.124-2.47,4.152-3.88,6.14
	c-0.141,0.199-0.282,0.397-0.422,0.594c-1.895,4.218-3.208,8.646,1.364,14.024c0.701,0.867,1.433,1.705,2.144,2.55
	c2.591,3.165,4.917,6.055,4.517,10.406c-0.551,5.991-4.433,8.02-8.058,11.169c-0.248,0.213-0.475,0.426-0.685,0.638
	c-1.688,1.947-2.298,4.237-4.961,5.955c-0.593,0.372-1.121,0.643-1.617,0.9c-0.809,0.538-1.487,1.046-2.262,2.133
	c-1.132,1.682-1.571,4.034-2.458,5.952c-3.601,7.897-8.256,14.512-16.637,18.945c-0.006,0.003-0.017,0.009-0.023,0.012
	c-0.006,0.003-0.017,0.009-0.023,0.012c-3.209,1.674-6.728,1.959-9.873,2.676c-1.071,0.42-2.152,0.927-3.22,1.58
	c-0.02,0.01-0.053,0.033-0.072,0.043s-0.053,0.034-0.072,0.044c-3.074,1.894-4.49,4.703-7.171,6.923
	c-3.798,3.152-7.641,4.054-11.763,4.115c-0.684,0.009-1.376-0.003-2.078-0.031c-1.891-0.073-3.784-0.256-5.712-0.387
	c-0.766-0.053-1.537-0.098-2.307-0.125c-0.144-0.002-0.287-0.003-0.43-0.005c-0.052,0-0.154,0-0.206,0
	c-1.371,0-2.874,0.184-4.335,0.422c-3.466,0.551-6.869,1.505-10.715,1.763c-0.282,0-0.725,0.051-0.967,0.051
	c-0.044,0-0.119,0-0.163-0.001c-0.585,0-1.186-0.029-1.795-0.088c-3.147-0.312-5.908-1.385-8.853-2.44
	c-3.731-1.32-6.937-1.494-10.169-2.694c-0.43-0.16-0.864-0.338-1.306-0.542c-0.472-0.206-1.028-0.4-1.553-0.566
	c-1.837-0.593-3.82-0.926-5.889-1.039c-1.651-0.091-3.304-0.003-4.935,0.207c-0.531,0.15-1.064,0.32-1.597,0.508
	c-2.287,0.816-4.564,1.634-6.985,1.72c-1.728,0.058-3.485-0.268-5.269-1.316c-6.421-3.75-3.306-11.164-2.031-15.711
	c0.148-0.432,0.265-0.877,0.353-1.332c0.75-4.036-0.693-8.876-2.644-12.969c-1.326-2.773-2.901-5.345-3.228-8.395
	c-0.376-3.762,1.707-5.863,2.258-9.232c0.179-1.071,0.19-2.117,0.102-3.151c-0.221-3.018-1.225-5.825-1.546-8.638
	c-0.451-1.297-0.778-2.695-0.779-4.216c0.088-2.529,0.684-4.889,1.556-7.245c0.015-0.026,0.028-0.084,0.043-0.109
	s0.028-0.083,0.043-0.109c1.137-3.013,2.746-5.703,3.962-8.407c0.723-2.663,1.025-5.709,0.485-9.439
	c-0.171-1.192-0.446-2.437-0.786-3.712c-0.008-0.019-0.013-0.06-0.021-0.079c-0.008-0.019-0.013-0.06-0.021-0.079
	c-1.146-4.879-3.005-9.481-4.852-12.933c-0.506-0.578-1.025-1.143-1.542-1.678c-0.453-0.401-0.891-0.788-1.312-1.157
	c-0.171-0.122-1.779-1.137-1.924-1.267c-0.821-0.397-1.424-1.003-1.923-1.692c-0.503-0.46-0.956-0.99-1.433-1.511
	c-0.504-0.572-1.018-1.131-1.648-1.563c-1.852-1.267-4.891-2.099-7.097-2.818c-1.69-0.511-3.247-0.826-4.754-1.034
	c-0.303-0.042-0.605-0.076-0.903-0.109c-0.02,0.001-0.057-0.009-0.077-0.008s-0.057-0.009-0.077-0.008
	c-1.077-0.097-2.178-0.145-3.311-0.238c-0.7-0.04-1.408-0.099-2.126-0.192c-2.262-0.293-4.644-0.963-7.264-2.701
	c-4.485-2.992-8.838-5.175-12.149-8.904c-2.503-1.804-4.558-4.096-6.046-7.338c-2.991-6.316-5.018-8.24-10.236-11.565
	c-4.68-3.107-7.146-7.845-8.471-13.986c-0.895-3.532-0.351-7.309,1.147-11.132c2.1-5.303,5.795-10.321,9.196-14.501
	c0.145-0.181,0.453-0.551,0.598-0.728c1.663-2.024,3.323-3.994,4.829-5.866c1.64-2.024,3.262-4.186,4.869-6.463
	c0.007-0.01,0.022-0.032,0.029-0.042s0.022-0.031,0.029-0.041c1.132-1.602,2.23-3.156,3.275-4.673
	c1.361-1.974,2.461-3.628,3.463-5.364c0.004-0.006,0.01-0.018,0.014-0.024c0.004-0.006,0.01-0.018,0.014-0.024
	c0.186-0.315,0.387-0.688,0.587-1.057c0.567-1.011,1.146-2.077,1.746-3.172c3.553-6.169,7.489-11.174,11.647-17.506
	c0.005-0.013,0.026-0.033,0.031-0.046c0.005-0.013,0.026-0.033,0.031-0.046c0.003-0.004,0.006-0.008,0.008-0.012
	c1.063-4.504,2.437-11.008,6.407-13.686c1.697-0.846,3.441-1.283,5.192-1.432c3.2-0.272,6.421,0.362,9.417,0.814
	c1.069,0.175,1.978,0.22,2.688,0.167c6.643-0.496-2.009-11.253-2.521-13.648c-1.462-4.4-1.596-13.328,3.095-14.116
	C148.452,65.148,148.982,65.099,149.472,65.091"/>
</svg>
