<?xml version="1.0" encoding="utf-8"?>
<!-- Generator: Adobe Illustrator 25.0.0, SVG Export Plug-In . SVG Version: 6.00 Build 0)  -->
<!DOCTYPE svg PUBLIC "-//W3C//DTD SVG 1.1//EN" "http://www.w3.org/Graphics/SVG/1.1/DTD/svg11.dtd" [
	<!ENTITY ns_extend "http://ns.adobe.com/Extensibility/1.0/">
	<!ENTITY ns_ai "http://ns.adobe.com/AdobeIllustrator/10.0/">
	<!ENTITY ns_graphs "http://ns.adobe.com/Graphs/1.0/">
	<!ENTITY ns_vars "http://ns.adobe.com/Variables/1.0/">
	<!ENTITY ns_imrep "http://ns.adobe.com/ImageReplacement/1.0/">
	<!ENTITY ns_sfw "http://ns.adobe.com/SaveForWeb/1.0/">
	<!ENTITY ns_custom "http://ns.adobe.com/GenericCustomNamespace/1.0/">
	<!ENTITY ns_adobe_xpath "http://ns.adobe.com/XPath/1.0/">
]>
<svg version="1.1" id="Livello_1" xmlns:x="&ns_extend;" xmlns:i="&ns_ai;" xmlns:graph="&ns_graphs;"
	 xmlns="http://www.w3.org/2000/svg" xmlns:xlink="http://www.w3.org/1999/xlink" x="0px" y="0px" viewBox="0 0 400 400"
	 style="enable-background:new 0 0 400 400;" xml:space="preserve">
<style type="text/css">
	.st0{opacity:0.45;fill:#FFFFFF;enable-background:new    ;}
	.st1{fill:none;stroke:#DC4B33;stroke-width:0.9;stroke-miterlimit:10;}
</style>
<metadata>
	<sfw  xmlns="&ns_sfw;">
		<slices></slices>
		<sliceSourceBounds  bottomLeftOrigin="true" height="254.626" width="390.305" x="3.714" y="64.584"></sliceSourceBounds>
	</sfw>
</metadata>
<path class="st0" d="M251.974,81.24L251.974,81.24c4.442,0,8.624,0.448,12.598,1.533c4.985,1.254,9.365,3.211,13.339,5.815
	c10.81,6.402,17.713,16.102,23.491,27.345c4.372,7.973,6.022,15.957,7.233,22.677c0.357,1.992,0.812,4.644,1.239,6.504
	c1.409,1.615,2.676,3.273,3.818,4.962c8.816,12.116,10.003,25.87,10.973,34.467c0.66,3.347,1.085,6.575,1.456,9.63
	c0.272,0.076,0.545,0.155,0.818,0.235c5.972,0.684,11.698,2.582,17.284,5.681c2.069,1.148,4.123,2.455,6.152,3.956
	c1.133,0.78,4.56,2.127,7.15,3.196c1.814,0.748,3.744,1.564,5.765,2.505c1.854,0.868,3.788,1.797,5.779,2.838
	c8.098,4.222,14.791,10.256,19.241,18.003c3.21,5.586,4.909,12.155,5.212,19.395c0.386,9.663-1.685,19.035-3.283,26.062
	c-0.275,1.204-0.537,2.347-0.739,3.291c-0.173,0.807-0.403,2.255-0.626,3.655c-0.359,2.217-0.769,4.762-1.318,7.456
	c-0.593,2.911-1.345,6.081-2.397,9.267c-4.603,13.691-12.794,20.99-19.643,24.201c-0.09,0.026-1.857,0.837-1.949,0.862
	c-0.09,0.024-1.959,0.567-2.052,0.59c-8.819,2.52-18.874,4.113-28.866,4.596c-2.511,0.121-5.015,0.171-7.492,0.147
	c-3.089-0.03-6.114-0.177-9.055-0.441c-3.379-0.431-6.643-1.029-9.801-1.737c-0.154-0.088-3.747-0.779-3.905-0.856
	c-0.161-0.079-3.448-1.712-3.617-1.773c-2.617-1.264-4.905-2.491-6.997-3.519c-1.021-0.558-2.321-1.32-3.221-1.805
	c-0.055-0.035-1.399-0.113-1.454-0.15c-1.99,0.522-4.06,0.884-6.093,1.268c-0.651,0.123-1.31,0.266-1.933,0.474
	c-1.619,0.517-3.32,0.846-5.077,0.996c-2.115,0.23-4.264,0.157-6.367-0.158c-1.607-0.24-3.187-0.609-4.689-1.125
	c-1.033-0.341-2.046-0.714-3.035-1.12c-1.454,0.441-3.362,1.204-4.923,1.825c-0.954,0.373-1.939,0.781-2.968,1.199
	c-10.575,4.291-24.748,11.147-46.874,11.742c-5.971,0.143-11.924-0.126-18.075-0.857c-0.804-0.097-1.611-0.202-2.422-0.315
	c-6.745-0.308-12.689-1.778-17.952-3.548c-3.006-0.961-5.702-2.057-8.119-3.072c-1.079-0.457-2.109-0.898-3.083-1.301
	c-4.149-1.571-8.548-3.089-13.208-4.648c-11.068-3.694-23.287-7.444-35.088-14.08c-2.26-0.323-4.082-0.476-5.952-0.642
	c-0.063-0.037-1.246-0.074-1.309-0.112c-1.126-0.095-2.219-0.216-3.283-0.364c-5.671-0.418-10.235-1.205-14.366-2.543
	c-0.372-0.12-0.762-0.241-1.131-0.369c-7.087-2.475-12.751-6.722-21.608-14.927c-7.975-3.824-14.414-9.772-18.971-17.382
	c-1.747-2.92-3.208-6.074-4.381-9.437c-2.097-0.929-4.324-2.098-6.556-3.63c-1.329-0.919-2.58-1.922-3.748-2.999
	c-3.669-3.337-6.872-7.096-9.278-11.261c-4.346-4.588-7.627-9.675-9.817-16.116c-1.297-3.508-2.008-7.299-2.206-11.262
	c-0.959-7.576-0.16-15.083,0.846-21.295c1.317-9.611,5.721-24.572,13.595-33.549c0.133-0.102,1.819-1.997,1.938-2.12
	c0.091-0.094,1.638-1.312,1.722-1.414c0.618-0.727,1.615-2.09,2.398-3.161c2.747-3.76,5.975-8.233,10.882-11.628
	c1.468-1.07,2.946-1.972,4.483-2.701c2.457-1.046,4.77-1.923,6.914-2.728c2.985-1.115,5.674-2.124,8.13-3.282
	c2.122-0.631,4.158-0.844,6.021-0.844c0.168,0,0.337,0.002,0.506,0.005c1.89-1.126,3.918-1.988,6.007-2.772
	c0.93-0.349,1.839-0.676,2.782-1.031c1.694-0.863,3.545-1.448,5.48-1.814c1.388-3.697,3.583-6.83,5.717-10.263
	c1.272-2.043,2.576-4.06,3.794-6.145c3.456-5.312,9.206-9.24,15.832-10.65c1.894-0.409,3.853-0.635,5.865-0.617
	c1.078,0.01,2.139,0.032,3.193,0.066c0.656,0.026,1.301,0.051,1.94,0.078c2.704,0.114,5.262,0.234,7.962,0.668
	c0.888-0.274,1.841-0.531,2.861-0.756c0.572-0.129,1.159-0.254,1.759-0.374c1.197-0.441,3.511-1.765,5.29-2.791
	c6.34-3.633,14.254-8.646,24.651-10.123c13.71-4.17,27.432-5.065,39.732-5.174c1.169-0.011,2.324-0.014,3.464-0.012
	c5.22,0.008,10.342,0.15,15.317,0.284c4.125,0.111,8.076,0.215,11.946,0.236c0.553,0.003,1.103,0.005,1.651,0.005
	c2.631-0.001,4.94-0.004,7.064-0.105c0.047,0.001,0.95-0.039,0.998-0.039s0.951,0.02,0.999,0.02
	c0.145,0.003,0.291,0.004,0.437,0.003c1.562-0.006,3.546-0.157,5.629-0.319C245.305,81.498,248.538,81.24,251.974,81.24"/>
<g>
	<g>
		<path class="st1" d="M239,130.2c3.5,0,6.8,0.5,10,2.4c16.5,7.3,10.1,26.1,18,36.7c6.8,5.2,8.1,11.8,8.8,20.2
			c2.1,8.9-1.4,21.4,4.4,28.5c4-2,7.5-3.2,11-3.2c3.9,0,7.7,1.5,12,5c5.4,4.4,12.3,5.7,18.5,8.9c10.5,5.4,5.4,21.6,3.5,30.5
			c-1.3,6.1-1.5,17.2-7.9,20.2c-6.5,1.9-14.5,3-22.1,3c-3.9,0-7.6-0.3-11-0.9c-5.2-2.6-9.5-6.4-15.7-6.6c-2-0.5-5.2-3.6-6.8-3.6
			c-0.4,0-0.8,0.2-1,0.8c-1,3.6-3.3,4.8-5.6,4.8c-1.1,0-2.2-0.2-3.1-0.7c-2.8-1.2-5.3-1.8-7.7-1.8c-11.2,0-19.1,11.8-42.6,11.8
			c-4.1,0-8.6-0.3-13.8-1.2c-6.2,0-11-2.8-16.5-5.1c-12.4-4.8-25.7-7.3-36.9-14.9c-5.7-1-9.3-1-12-1c-0.3,0-0.7,0-1,0
			c-5.5,0-7.2-0.3-18.2-10.7c-8.2-2.7-11.3-10-12.1-17.9c-1.8-7.3-15.7-2.5-16.3-11.4c-3.1-2.5-4.4-4.7-5.4-8.4
			c-2.4-7.3,1.7-25.3,6.7-31c6-4.6,8.5-14.2,16.2-14.2c1.2,0,2.4,0.2,3.9,0.7c2.4,1.4,4.1,2.2,5.2,2.2c1.6,0,2.2-1.7,2.7-5.6
			c0.9-1.6,2.1-2.1,3.5-2.1c1.7,0,3.6,0.7,5.3,0.7c0.8,0,1.4-0.1,2.1-0.5c2.6-7.4,15.7,0.1,10.4-10.8c-2.8-5.8,0.5-10.8,5.5-10.8
			c1.3,0,2.7,0.3,4.2,1.1s2.6,1.1,3.6,1.1c2.4,0,3.9-1.9,7.6-2.5c8.3-1.6,14.6-9.2,23.1-9.8c9-3,18.7-3.6,28.5-3.6
			c7.4,0,14.8,0.4,22.1,0.4c2.2,0,4.3,0,6.4-0.1C230.7,130.9,235,130.2,239,130.2"/>
	</g>
	<path class="st1" d="M239.649,127.752L239.649,127.752c3.547,0,6.891,0.497,10.13,2.357c4.38,1.89,7.219,4.575,9.174,7.707
		c5.447,8.711,3.952,20.837,9.768,28.816c4.489,3.665,6.559,7.911,7.668,12.785c0.3,1.32,0.537,2.724,0.73,4.139
		c0.227,1.279,0.412,2.603,0.576,3.972c1.958,7.036,0.458,16.132,2.096,23.187c0.492,2.082,1.236,4.009,2.39,5.688
		c0.115,0.141,0.234,0.279,0.356,0.416c4.099-1.866,7.71-2.901,11.314-2.756c1.527,0.062,3.039,0.333,4.568,0.856
		c1.409,0.463,2.949,1.167,4.491,2.093c1.069,0.642,2.164,1.399,3.294,2.284c1.082,0.85,2.222,1.593,3.402,2.266
		c4.926,2.81,10.448,4.39,15.424,7.231c3.596,2.046,5.359,5.359,6.023,9.219c0.786,4.616,0.014,9.936-0.966,14.699
		c-0.13,0.632-0.264,1.254-0.396,1.856c-0.148,0.673-0.3,1.365-0.45,2.038c-0.33,1.471-0.652,2.873-0.924,4.156
		c-0.327,1.542-0.602,3.374-0.928,5.308c-1.091,6.272-2.722,13.232-7.679,15.556c-0.43,0.126-0.95,0.287-1.393,0.405
		c-0.434,0.116-0.963,0.254-1.408,0.363c-6.081,1.501-13.102,2.36-19.837,2.385c-1.748,0.006-3.459-0.046-5.124-0.157
		c-2.134-0.142-4.191-0.379-6.153-0.713c-2.091-0.982-4.046-2.146-6.024-3.219c-0.737-0.42-1.651-0.856-2.407-1.227
		c-0.771-0.379-1.713-0.802-2.525-1.093c-1.627-0.6-3.327-1.018-5.175-1.125c-0.656-0.179-1.441-0.619-2.236-1.12
		c-0.263-0.167-0.594-0.346-0.861-0.524c-1.464-0.887-2.932-1.827-3.902-1.81c-0.413,0.007-0.825,0.203-1.047,0.784
		c-0.455,1.373-1.106,2.383-1.876,3.1c-1.155,1.103-2.587,1.518-4.016,1.502c-1.125-0.012-2.249-0.22-3.179-0.721
		c-0.708-0.298-1.398-0.564-2.073-0.796c-1.223-0.368-2.42-0.603-3.567-0.726c-0.75-0.083-1.489-0.112-2.221-0.093
		c-9.106,0.238-16.354,7.842-31.369,10.696c-3.644,0.687-7.713,1.095-12.349,1.058c-0.545-0.005-1.097-0.015-1.656-0.031
		c-3.817-0.084-7.91-0.47-12.473-1.302c-2.093-0.048-4.026-0.392-5.872-0.909c-0.731-0.206-1.449-0.438-2.157-0.689
		c-2.959-1.042-5.809-2.438-8.867-3.697c-9.737-3.74-20.052-6.154-29.515-10.716c-1.531-0.692-3.018-1.427-4.481-2.227
		c-0.304-0.176-0.662-0.354-0.963-0.536c-0.803-0.456-1.596-0.934-2.378-1.436c-5.699-0.971-9.347-1.016-12.118-1.077
		c-0.304-0.007-0.703-0.012-1.007-0.018c-5.579-0.124-7.478-0.621-18.37-10.911c-4.534-1.553-7.626-4.444-9.657-8.081
		c-0.822-1.473-1.469-3.068-1.968-4.745c-0.42-1.128-0.779-2.306-1.078-3.524c-0.185-0.764-0.342-1.541-0.475-2.328
		c-0.762-2.515-2.819-3.733-5.218-4.605c-2.974-1.033-6.454-1.554-8.776-3.293c-1.424-1.045-2.403-2.538-2.556-4.864
		c-2.993-2.754-4.188-5.219-5.088-9.045c-2.214-7.416,1.901-25.264,7.045-31.127c0.64-0.491,1.317-1.13,1.886-1.72
		c0.435-0.452,0.926-0.983,1.331-1.473c0.735-0.888,1.451-1.853,2.145-2.802c3.009-4.112,5.842-8.241,10.874-8.411
		c1.213-0.053,2.427,0.091,3.929,0.53c2.403,1.278,4.134,1.994,5.286,1.954c1.669-0.056,2.374-1.721,2.971-5.484
		c0.961-1.552,2.203-2.037,3.626-2.037c0.12,0,0.242,0.003,0.364,0.009c1.62,0.024,3.389,0.557,4.997,0.517
		c0.807-0.017,1.422-0.129,2.134-0.527c0.621-1.569,1.72-2.458,3.012-2.992c2.992-1.445,7.155-0.81,8.342-2.866
		c0.577-0.998,0.484-2.598-0.725-5.314c-2.487-5.776,0.935-10.722,6.017-10.792c1.33-0.02,2.758,0.253,4.283,1.014
		c0.856,0.428,1.591,0.707,2.256,0.869c0.508,0.126,0.974,0.182,1.421,0.183c1.93,0.006,3.322-1.106,5.628-1.839
		c0.632-0.218,1.333-0.408,2.133-0.541c0.438-0.085,0.872-0.186,1.301-0.3c1.393-0.382,2.791-0.96,4.132-1.61
		c5.921-2.863,11.319-7.549,18.096-8.064c9.235-3.059,19.137-3.673,29.062-3.679c0.85-0.001,1.698,0.004,2.546,0.013
		c3.761,0.038,7.514,0.156,11.245,0.253c2.931,0.076,5.845,0.139,8.74,0.14c0.413,0,0.823,0,1.23,0
		c1.81-0.003,3.552-0.017,5.285-0.1c0.228,0.005,0.498,0.006,0.726,0.007s0.499,0,0.728-0.003c0.106-0.001,0.212-0.003,0.319-0.005
		c1.34-0.028,2.706-0.119,4.069-0.221C235.068,127.964,237.396,127.752,239.649,127.752"/>
	<path class="st1" d="M240.297,125.304L240.297,125.304c3.594,0,6.982,0.495,10.26,2.313c4.412,1.857,7.332,4.503,9.393,7.608
		c5.73,8.589,4.676,20.588,10.49,28.738c4.483,3.891,6.531,8.335,7.645,13.306c0.303,1.356,0.551,2.825,0.757,4.264
		c0.289,1.297,0.531,2.638,0.747,4.024c2.319,7.303,0.96,16.644,2.563,23.781c0.501,2.149,1.228,4.144,2.341,5.896
		c0.124,0.137,0.25,0.273,0.381,0.407c4.197-1.732,7.92-2.604,11.628-2.312c1.555,0.122,3.096,0.445,4.652,1.019
		c1.394,0.48,3.033,1.218,4.631,2.151c1.108,0.647,2.247,1.408,3.424,2.296c1.123,0.851,2.304,1.604,3.527,2.296
		c5.093,2.885,10.676,4.699,15.625,7.798c3.576,2.232,5.335,5.716,5.98,9.755c0.765,4.882-0.075,10.415-1.088,15.297
		c-0.138,0.662-0.279,1.311-0.414,1.931c-0.149,0.68-0.305,1.412-0.459,2.123c-0.332,1.51-0.658,2.973-0.945,4.329
		c-0.341,1.614-0.641,3.516-1.005,5.516c-1.276,6.662-3.252,13.641-8.309,16.011c-0.412,0.12-0.998,0.316-1.422,0.429
		c-0.416,0.111-1.015,0.271-1.442,0.375c-6.225,1.555-13.406,2.453-20.312,2.501c-1.788,0.012-3.541-0.035-5.249-0.141
		c-2.184-0.136-4.292-0.369-6.306-0.699c-2.158-0.953-4.183-2.087-6.222-3.141c-0.707-0.403-1.761-0.852-2.486-1.208
		c-0.739-0.363-1.805-0.849-2.583-1.129c-1.679-0.635-3.41-1.095-5.27-1.251c-0.675-0.199-1.487-0.655-2.288-1.156
		c-0.252-0.16-0.636-0.334-0.892-0.505c-1.492-0.812-2.991-1.682-4.017-1.648c-0.425,0.014-0.851,0.207-1.093,0.767
		c-0.517,1.328-1.223,2.302-2.045,2.989c-1.206,1.057-2.675,1.446-4.14,1.415c-1.151-0.024-2.299-0.241-3.259-0.743
		c-0.725-0.301-1.432-0.572-2.123-0.813c-1.235-0.326-2.469-0.507-3.639-0.592c-0.761-0.059-1.513-0.063-2.261-0.025
		c-9.183,0.472-16.796,8.016-32.185,10.751c-3.766,0.658-7.934,1.03-12.65,0.957c-0.559-0.01-1.124-0.025-1.696-0.046
		c-3.971-0.096-8.162-0.539-12.761-1.421c-2.141-0.096-4.114-0.48-5.99-1.023c-0.75-0.219-1.484-0.463-2.205-0.722
		c-3.021-1.07-5.953-2.472-9.095-3.747c-9.807-3.737-20.222-6.222-29.808-10.893c-1.569-0.673-3.074-1.376-4.558-2.143
		c-0.291-0.168-0.693-0.34-0.982-0.514c-0.82-0.437-1.628-0.896-2.425-1.379c-5.697-0.942-9.394-1.032-12.237-1.154
		c-0.307-0.013-0.706-0.024-1.013-0.037c-5.659-0.248-7.755-0.942-18.541-11.123c-4.715-1.672-7.984-4.724-10.147-8.57
		c-0.871-1.549-1.56-3.226-2.095-4.992c-0.509-1.118-0.965-2.295-1.367-3.529c-0.245-0.772-0.46-1.561-0.647-2.363
		c-0.915-2.558-3.033-3.91-5.431-4.956c-3.046-1.22-6.515-1.981-8.831-3.968c-1.417-1.175-2.382-2.789-2.538-5.201
		c-2.886-3.008-3.976-5.738-4.775-9.69c-2.028-7.531,2.102-25.227,7.39-31.255c0.614-0.47,1.344-1.176,1.889-1.741
		c0.417-0.433,0.963-1,1.352-1.47c0.729-0.879,1.459-1.865,2.159-2.821c2.996-4.094,5.849-8.241,10.875-8.58
		c1.227-0.107,2.455-0.017,3.958,0.36c2.406,1.155,4.167,1.788,5.371,1.707c1.738-0.111,2.547-1.742,3.243-5.368
		c1.022-1.503,2.306-1.974,3.752-1.974c0.123,0,0.247,0.003,0.371,0.009c1.634-0.037,3.417,0.418,5.05,0.344
		c0.813-0.037,1.444-0.158,2.168-0.553c0.677-1.532,1.816-2.405,3.142-2.93c2.908-1.564,6.967-1.127,8.204-3.255
		c0.613-1.053,0.594-2.675-0.487-5.357c-2.174-5.751,1.371-10.644,6.533-10.785c1.359-0.041,2.815,0.207,4.366,0.928
		c0.868,0.407,1.62,0.671,2.305,0.827c0.516,0.121,0.991,0.175,1.448,0.178c1.97,0.011,3.424-1.036,5.751-1.707
		c0.645-0.221,1.36-0.414,2.171-0.552c0.445-0.088,0.887-0.19,1.326-0.304c1.383-0.385,2.829-1.002,4.193-1.673
		c5.943-2.904,11.473-7.606,18.441-8.172c9.471-3.117,19.573-3.746,29.623-3.757c0.866-0.001,1.731,0.003,2.595,0.011
		c3.837,0.037,7.662,0.156,11.459,0.254c2.994,0.078,5.962,0.143,8.909,0.145c0.421,0,0.838,0,1.252,0
		c1.853-0.003,3.625-0.016,5.379-0.1c0.218,0.005,0.522,0.004,0.741,0.005s0.523,0.001,0.742-0.002
		c0.108-0.001,0.217-0.003,0.325-0.005c1.352-0.027,2.75-0.121,4.151-0.227C235.607,125.519,237.983,125.304,240.297,125.304"/>
	<path class="st1" d="M240.946,122.856L240.946,122.856c3.641,0,7.074,0.492,10.39,2.27c4.444,1.823,7.445,4.431,9.612,7.508
		c6.012,8.468,5.4,20.339,11.212,28.661c4.477,4.118,6.503,8.758,7.622,13.827c0.306,1.391,0.566,2.926,0.784,4.388
		c0.351,1.314,0.65,2.673,0.917,4.077c2.68,7.571,1.462,17.157,3.03,24.375c0.51,2.215,1.22,4.279,2.292,6.103
		c0.132,0.134,0.267,0.266,0.405,0.397c4.296-1.597,8.128-2.308,11.943-1.868c1.583,0.183,3.153,0.556,4.735,1.182
		c1.38,0.496,3.118,1.268,4.771,2.209c1.147,0.653,2.331,1.417,3.555,2.307c1.163,0.852,2.387,1.614,3.652,2.326
		c5.26,2.959,10.905,5.007,15.826,8.365c3.556,2.419,5.311,6.074,5.938,10.291c0.744,5.148-0.164,10.894-1.21,15.895
		c-0.146,0.692-0.293,1.369-0.432,2.007c-0.15,0.687-0.311,1.459-0.468,2.209c-0.333,1.549-0.664,3.072-0.966,4.503
		c-0.355,1.687-0.68,3.659-1.082,5.724c-1.461,7.053-3.782,14.049-8.939,16.466c-0.394,0.115-1.045,0.345-1.451,0.453
		c-0.398,0.106-1.068,0.287-1.476,0.387c-6.369,1.609-13.71,2.545-20.788,2.617c-1.828,0.018-3.622-0.023-5.373-0.125
		c-2.234-0.13-4.393-0.358-6.459-0.684c-2.226-0.924-4.319-2.028-6.421-3.063c-0.676-0.385-1.872-0.848-2.565-1.188
		c-0.707-0.347-1.896-0.897-2.64-1.165c-1.731-0.67-3.493-1.173-5.366-1.377c-0.694-0.219-1.534-0.692-2.34-1.192
		c-0.241-0.153-0.679-0.321-0.923-0.485c-1.519-0.738-3.05-1.538-4.132-1.486c-0.438,0.021-0.876,0.21-1.14,0.751
		c-0.578,1.283-1.339,2.221-2.213,2.878c-1.256,1.011-2.763,1.375-4.264,1.327c-1.176-0.036-2.348-0.261-3.338-0.764
		c-0.743-0.303-1.467-0.58-2.174-0.83c-1.247-0.283-2.519-0.412-3.71-0.458c-0.772-0.035-1.536-0.015-2.3,0.043
		c-9.259,0.703-17.238,8.19-33.001,10.806c-3.889,0.629-8.156,0.966-12.952,0.856c-0.573-0.015-1.151-0.035-1.737-0.061
		c-4.125-0.107-8.413-0.608-13.049-1.539c-2.189-0.144-4.203-0.567-6.109-1.137c-0.768-0.232-1.518-0.487-2.254-0.754
		c-3.084-1.098-6.097-2.507-9.324-3.797c-9.877-3.735-20.392-6.29-30.101-11.07c-1.607-0.653-3.13-1.326-4.636-2.06
		c-0.278-0.161-0.724-0.325-1-0.492c-0.837-0.418-1.661-0.858-2.473-1.323c-5.696-0.913-9.44-1.046-12.355-1.231
		c-0.311-0.02-0.709-0.036-1.02-0.055c-5.738-0.371-8.033-1.263-18.711-11.334c-4.897-1.792-8.341-5.005-10.637-9.06
		c-0.919-1.625-1.652-3.385-2.222-5.239c-0.597-1.107-1.152-2.284-1.655-3.535c-0.305-0.78-0.578-1.581-0.819-2.398
		c-1.068-2.601-3.246-4.087-5.645-5.306c-3.119-1.407-6.577-2.409-8.886-4.642c-1.41-1.305-2.361-3.039-2.519-5.537
		c-2.779-3.261-3.764-6.257-4.463-10.334c-1.843-7.647,2.303-25.191,7.734-31.382c0.587-0.45,1.37-1.221,1.891-1.762
		c0.399-0.414,1.001-1.018,1.372-1.467c0.723-0.871,1.468-1.878,2.172-2.84c2.982-4.075,5.856-8.24,10.875-8.749
		c1.24-0.16,2.482-0.126,3.987,0.19c2.409,1.033,4.201,1.582,5.457,1.461c1.808-0.167,2.721-1.764,3.514-5.252
		c1.083-1.455,2.409-1.912,3.878-1.912c0.125,0,0.252,0.003,0.379,0.009c1.649-0.097,3.445,0.283,5.103,0.171
		c0.819-0.055,1.466-0.186,2.202-0.58c0.734-1.495,1.912-2.351,3.272-2.868c2.823-1.682,6.779-1.443,8.066-3.645
		c0.65-1.108,0.704-2.752-0.249-5.401c-1.862-5.727,1.806-10.566,7.05-10.777c1.389-0.061,2.874,0.157,4.45,0.843
		c0.88,0.383,1.649,0.636,2.355,0.785c0.524,0.116,1.008,0.168,1.475,0.172c2.011,0.017,3.527-0.965,5.874-1.575
		c0.659-0.224,1.387-0.421,2.209-0.563c0.452-0.09,0.902-0.193,1.35-0.308c1.372-0.388,2.867-1.045,4.254-1.735
		c5.965-2.944,11.628-7.664,18.786-8.281c9.706-3.176,20.01-3.82,30.185-3.836c0.883-0.002,1.764,0.002,2.643,0.01
		c3.914,0.035,7.811,0.155,11.673,0.256c3.057,0.08,6.08,0.147,9.078,0.15c0.428,0,0.853,0.001,1.275,0
		c1.896-0.002,3.698-0.016,5.473-0.1c0.209,0.005,0.546,0.002,0.755,0.002c0.209,0.001,0.547,0.002,0.756-0.001
		c0.11-0.001,0.221-0.002,0.331-0.004c1.364-0.025,2.794-0.123,4.233-0.232C236.146,123.073,238.569,122.856,240.946,122.856"/>
	<path class="st1" d="M241.595,120.408L241.595,120.408c3.688,0,7.165,0.49,10.52,2.227c4.476,1.79,7.558,4.359,9.831,7.409
		c6.294,8.346,6.124,20.09,11.934,28.583c4.471,4.345,6.474,9.181,7.599,14.347c0.309,1.426,0.58,3.027,0.811,4.513
		c0.413,1.332,0.769,2.708,1.088,4.129c3.041,7.838,1.965,17.669,3.497,24.968c0.519,2.282,1.212,4.414,2.243,6.311
		c0.14,0.13,0.283,0.26,0.429,0.388c4.394-1.463,8.337-2.013,12.257-1.424c1.611,0.242,3.21,0.668,4.818,1.345
		c1.365,0.513,3.203,1.319,4.91,2.267c1.186,0.658,2.414,1.425,3.685,2.319c1.204,0.853,2.469,1.625,3.777,2.356
		c5.427,3.033,11.134,5.316,16.027,8.932c3.535,2.605,5.288,6.432,5.895,10.826c0.723,5.413-0.254,11.373-1.332,16.493
		c-0.153,0.723-0.307,1.427-0.45,2.082c-0.152,0.694-0.316,1.506-0.477,2.294c-0.335,1.589-0.67,3.172-0.986,4.677
		c-0.369,1.759-0.719,3.801-1.16,5.933c-1.645,7.443-4.313,14.457-9.568,16.921c-0.376,0.11-1.093,0.374-1.48,0.477
		c-0.38,0.101-1.12,0.304-1.51,0.399c-6.513,1.662-14.013,2.637-21.263,2.734c-1.868,0.024-3.704-0.012-5.498-0.109
		c-2.284-0.124-4.494-0.348-6.611-0.67c-2.294-0.895-4.456-1.969-6.62-2.985c-0.645-0.368-1.982-0.843-2.644-1.169
		c-0.675-0.332-1.987-0.945-2.698-1.201c-1.783-0.705-3.576-1.25-5.462-1.503c-0.713-0.239-1.58-0.729-2.392-1.228
		c-0.23-0.146-0.721-0.309-0.954-0.465c-1.547-0.664-3.11-1.394-4.248-1.324c-0.45,0.028-0.902,0.213-1.187,0.735
		c-0.639,1.238-1.456,2.14-2.382,2.768c-1.307,0.965-2.852,1.303-4.387,1.24c-1.201-0.048-2.397-0.282-3.418-0.785
		c-0.76-0.305-1.501-0.588-2.225-0.847c-1.259-0.24-2.568-0.317-3.781-0.323c-0.783-0.011-1.56,0.034-2.339,0.111
		c-9.335,0.931-17.68,8.364-33.817,10.861c-4.011,0.601-8.378,0.902-13.253,0.756c-0.586-0.019-1.178-0.044-1.777-0.076
		c-4.279-0.119-8.665-0.676-13.338-1.657c-2.237-0.192-4.291-0.655-6.227-1.251c-0.786-0.246-1.553-0.511-2.303-0.786
		c-3.147-1.126-6.242-2.541-9.552-3.847c-9.948-3.733-20.563-6.358-30.395-11.247c-1.646-0.634-3.186-1.276-4.713-1.976
		c-0.266-0.154-0.754-0.31-1.018-0.469c-0.854-0.399-1.694-0.821-2.521-1.267c-5.694-0.884-9.486-1.06-12.473-1.309
		c-0.314-0.026-0.712-0.048-1.026-0.074c-5.817-0.495-8.31-1.584-18.882-11.545c-5.078-1.911-8.698-5.285-11.127-9.549
		c-0.968-1.702-1.743-3.543-2.349-5.486c-0.685-1.097-1.338-2.273-1.943-3.541c-0.365-0.789-0.696-1.601-0.992-2.434
		c-1.221-2.645-3.459-4.264-5.859-5.656c-3.191-1.594-6.639-2.836-8.941-5.317c-1.404-1.434-2.341-3.29-2.501-5.874
		c-2.672-3.515-3.552-6.777-4.151-10.979c-1.657-7.762,2.504-25.154,8.079-31.51c0.56-0.43,1.396-1.267,1.894-1.784
		c0.381-0.395,1.038-1.035,1.393-1.464c0.716-0.862,1.477-1.89,2.185-2.858c2.968-4.056,5.863-8.24,10.876-8.919
		c1.254-0.214,2.509-0.234,4.017,0.02c2.411,0.911,4.234,1.373,5.543,1.214c1.876-0.227,2.895-1.785,3.786-5.136
		c1.144-1.406,2.512-1.849,4.004-1.849c0.128,0,0.257,0.003,0.386,0.009c1.663-0.158,3.473,0.148,5.156-0.002
		c0.826-0.073,1.488-0.215,2.236-0.606c0.79-1.458,2.008-2.298,3.402-2.806c2.739-1.801,6.591-1.76,7.928-4.034
		c0.687-1.163,0.814-2.829-0.011-5.445c-1.549-5.702,2.242-10.475,7.566-10.77c1.419-0.079,2.932,0.11,4.533,0.757
		c0.892,0.361,1.678,0.6,2.404,0.742c0.531,0.11,1.025,0.161,1.503,0.167c2.052,0.023,3.629-0.895,5.997-1.443
		c0.672-0.227,1.413-0.427,2.248-0.575c0.459-0.092,0.917-0.197,1.374-0.312c1.362-0.391,2.905-1.087,4.315-1.797
		c5.987-2.985,11.782-7.722,19.131-8.389c9.942-3.234,20.446-3.893,30.746-3.915c0.9-0.002,1.797,0.001,2.691,0.009
		c3.991,0.033,7.96,0.155,11.888,0.258c3.12,0.082,6.197,0.151,9.246,0.155c0.435,0.001,0.867,0.001,1.297,0
		c1.94-0.002,3.772-0.015,5.566-0.1c0.199,0.005,0.57-0.001,0.769,0c0.2,0.001,0.571,0.004,0.771,0.001
		c0.112-0.001,0.225-0.002,0.337-0.004c1.375-0.024,2.839-0.125,4.315-0.237C236.685,120.628,239.155,120.408,241.595,120.408"/>
	<path class="st1" d="M242.243,117.96L242.243,117.96c3.736,0,7.256,0.487,10.649,2.183c4.507,1.756,7.671,4.288,10.051,7.309
		c6.576,8.225,6.849,19.84,12.657,28.506c4.465,4.572,6.446,9.605,7.576,14.868c0.312,1.462,0.595,3.128,0.838,4.637
		c0.476,1.35,0.888,2.744,1.259,4.181c3.402,8.105,2.467,18.182,3.965,25.562c0.528,2.348,1.204,4.549,2.194,6.518
		c0.148,0.127,0.299,0.253,0.453,0.378c4.493-1.329,8.545-1.72,12.571-0.98c1.639,0.301,3.267,0.78,4.902,1.508
		c1.351,0.53,3.288,1.369,5.051,2.325c1.226,0.664,2.497,1.434,3.815,2.331c1.245,0.854,2.551,1.636,3.902,2.387
		c5.594,3.108,11.362,5.625,16.228,9.499c3.515,2.791,5.264,6.79,5.852,11.362c0.702,5.679-0.343,11.852-1.454,17.091
		c-0.161,0.753-0.322,1.484-0.468,2.158c-0.153,0.701-0.322,1.552-0.487,2.379c-0.336,1.628-0.676,3.271-1.007,4.85
		c-0.383,1.831-0.758,3.944-1.237,6.141c-1.83,7.834-4.843,14.866-10.198,17.376c-0.358,0.105-1.141,0.403-1.51,0.501
		c-0.362,0.097-1.173,0.32-1.544,0.411c-6.657,1.716-14.317,2.729-21.738,2.85c-1.908,0.03-3.786-0.001-5.622-0.093
		c-2.335-0.118-4.595-0.337-6.764-0.656c-2.362-0.866-4.593-1.911-6.819-2.907c-0.614-0.35-2.092-0.839-2.723-1.149
		c-0.642-0.316-2.078-0.993-2.755-1.236c-1.835-0.74-3.659-1.328-5.558-1.629c-0.733-0.259-1.626-0.766-2.444-1.264
		c-0.219-0.139-0.763-0.297-0.986-0.445c-1.575-0.59-3.169-1.25-4.363-1.162c-0.463,0.034-0.927,0.216-1.233,0.719
		c-0.7,1.193-1.572,2.06-2.55,2.657c-1.357,0.919-2.94,1.231-4.511,1.152c-1.227-0.06-2.447-0.302-3.497-0.806
		c-0.777-0.307-1.535-0.596-2.275-0.864c-1.272-0.198-2.618-0.222-3.853-0.189c-0.793,0.013-1.583,0.082-2.379,0.179
		c-9.41,1.156-18.121,8.538-34.633,10.916c-4.134,0.572-8.599,0.838-13.554,0.655c-0.6-0.024-1.205-0.054-1.817-0.091
		c-4.433-0.131-8.916-0.745-13.626-1.775c-2.285-0.24-4.379-0.743-6.345-1.365c-0.804-0.259-1.588-0.535-2.352-0.818
		c-3.209-1.153-6.386-2.575-9.781-3.897c-10.018-3.73-20.733-6.426-30.688-11.424c-1.684-0.614-3.242-1.226-4.791-1.893
		c-0.253-0.146-0.785-0.295-1.036-0.447c-0.871-0.38-1.727-0.783-2.568-1.21c-5.693-0.855-9.533-1.073-12.591-1.386
		c-0.318-0.032-0.716-0.06-1.033-0.092c-5.898-0.606-8.588-1.906-19.052-11.757c-5.259-2.031-9.055-5.565-11.618-10.039
		c-1.017-1.778-1.835-3.701-2.476-5.733c-0.773-1.087-1.525-2.262-2.232-3.546c-0.426-0.797-0.813-1.621-1.164-2.469
		c-1.374-2.688-3.673-4.441-6.073-6.007c-3.263-1.781-6.701-3.264-8.995-5.992c-1.397-1.564-2.32-3.541-2.483-6.211
		c-2.565-3.769-3.34-7.296-3.839-11.624c-1.471-7.878,2.705-25.118,8.424-31.637c0.534-0.409,1.423-1.313,1.897-1.805
		c0.363-0.376,1.076-1.052,1.413-1.461c0.71-0.854,1.485-1.902,2.199-2.877c2.954-4.038,5.87-8.239,10.876-9.088
		c1.267-0.267,2.537-0.343,4.046-0.15c2.414,0.788,4.267,1.166,5.628,0.968c1.945-0.283,3.069-1.806,4.057-5.02
		c1.205-1.358,2.614-1.786,4.13-1.786c0.131,0,0.262,0.003,0.394,0.008c1.677-0.219,3.5,0.012,5.209-0.175
		c0.832-0.091,1.51-0.244,2.27-0.633c0.847-1.421,2.104-2.245,3.532-2.744c2.654-1.919,6.403-2.077,7.789-4.423
		c0.723-1.218,0.924-2.906,0.226-5.489c-1.236-5.678,2.678-10.395,8.083-10.762c1.449-0.098,2.99,0.062,4.616,0.671
		c0.904,0.338,1.706,0.565,2.453,0.7c0.539,0.105,1.042,0.154,1.53,0.161c2.093,0.029,3.731-0.824,6.12-1.311
		c0.686-0.23,1.44-0.434,2.286-0.586c0.466-0.095,0.932-0.2,1.398-0.316c1.352-0.394,2.943-1.129,4.376-1.859
		c6.009-3.025,11.937-7.78,19.476-8.498c10.177-3.293,20.883-3.966,31.308-3.993c0.917-0.003,1.83,0,2.74,0.008
		c4.068,0.032,8.109,0.155,12.102,0.259c3.183,0.083,6.315,0.155,9.415,0.16c0.443,0.001,0.882,0.001,1.319,0.001
		c1.983-0.002,3.845-0.014,5.66-0.101c0.19,0.005,0.593-0.003,0.784-0.003s0.594,0.005,0.785,0.002c0.114,0,0.229-0.002,0.343-0.003
		c1.387-0.023,2.883-0.127,4.397-0.242C237.223,118.182,239.742,117.96,242.243,117.96"/>
	<path class="st1" d="M242.892,115.512L242.892,115.512c3.783,0,7.347,0.484,10.779,2.14c4.539,1.723,7.784,4.216,10.27,7.209
		c6.859,8.103,7.573,19.591,13.379,28.429c4.458,4.798,6.418,10.028,7.553,15.389c0.315,1.497,0.609,3.229,0.864,4.762
		c0.538,1.367,1.008,2.779,1.429,4.233c3.763,8.373,2.97,18.694,4.432,26.156c0.537,2.415,1.196,4.684,2.145,6.726
		c0.157,0.124,0.316,0.247,0.478,0.369c4.591-1.195,8.754-1.428,12.885-0.536c1.667,0.36,3.324,0.892,4.985,1.672
		c1.336,0.546,3.373,1.42,5.19,2.383c1.265,0.67,2.58,1.443,3.945,2.342c1.285,0.855,2.634,1.647,4.027,2.417
		c5.761,3.182,11.591,5.934,16.429,10.066c3.495,2.978,5.24,7.147,5.809,11.897c0.681,5.944-0.433,12.331-1.576,17.689
		c-0.169,0.783-0.336,1.542-0.487,2.233c-0.154,0.708-0.327,1.599-0.496,2.464c-0.338,1.667-0.683,3.37-1.028,5.024
		c-0.397,1.903-0.798,4.086-1.314,6.35c-2.015,8.224-5.373,15.274-10.828,17.831c-0.34,0.099-1.189,0.432-1.539,0.525
		c-0.344,0.092-1.225,0.336-1.578,0.422c-6.801,1.769-14.621,2.822-22.213,2.966c-1.949,0.036-3.868,0.011-5.747-0.077
		c-2.385-0.112-4.697-0.326-6.917-0.641c-2.43-0.837-4.729-1.852-7.018-2.829c-0.584-0.333-2.203-0.835-2.801-1.13
		c-0.61-0.3-2.17-1.041-2.813-1.272c-1.887-0.775-3.742-1.405-5.654-1.755c-0.752-0.279-1.673-0.803-2.495-1.3
		c-0.208-0.132-0.806-0.285-1.017-0.426c-1.602-0.516-3.228-1.106-4.478-1c-0.475,0.04-0.953,0.22-1.28,0.702
		c-0.762,1.148-1.689,1.979-2.718,2.546c-1.408,0.873-3.028,1.16-4.635,1.065c-1.252-0.072-2.496-0.323-3.577-0.828
		c-0.794-0.31-1.569-0.603-2.326-0.881c-1.284-0.155-2.668-0.127-3.924-0.055c-0.804,0.037-1.607,0.129-2.418,0.247
		c-9.485,1.378-18.563,8.712-35.449,10.971c-4.256,0.544-8.821,0.784-13.856,0.554c-0.613-0.028-1.232-0.064-1.857-0.106
		c-4.588-0.143-9.168-0.814-13.915-1.893c-2.333-0.288-4.467-0.83-6.463-1.478c-0.823-0.272-1.623-0.559-2.4-0.85
		c-3.272-1.181-6.53-2.609-10.009-3.948c-10.088-3.728-20.903-6.494-30.981-11.601c-1.723-0.595-3.298-1.176-4.868-1.81
		c-0.24-0.139-0.816-0.28-1.054-0.425c-0.888-0.361-1.76-0.745-2.616-1.154c-5.691-0.825-9.579-1.086-12.71-1.463
		c-0.321-0.039-0.719-0.072-1.039-0.111c-5.978-0.728-8.865-2.227-19.223-11.968c-5.44-2.151-9.413-5.846-12.108-10.528
		c-1.066-1.854-1.926-3.859-2.603-5.98c-0.862-1.076-1.712-2.251-2.52-3.552c-0.486-0.805-0.931-1.641-1.336-2.504
		c-1.527-2.731-3.886-4.618-6.286-6.357c-3.335-1.968-6.762-3.691-9.05-6.667c-1.39-1.693-2.299-3.791-2.464-6.548
		c-2.458-4.023-3.128-7.815-3.526-12.269c-1.285-7.993,2.906-25.082,8.769-31.765c0.507-0.389,1.449-1.358,1.9-1.826
		c0.345-0.358,1.113-1.07,1.434-1.458c0.704-0.846,1.494-1.915,2.212-2.896c2.94-4.019,5.877-8.239,10.876-9.257
		c1.281-0.321,2.564-0.452,4.075-0.32c2.417,0.666,4.3,0.96,5.714,0.722c2.015-0.339,3.242-1.827,4.329-4.905
		c1.267-1.309,2.717-1.723,4.256-1.723c0.133,0,0.267,0.003,0.401,0.008c1.691-0.279,3.528-0.122,5.263-0.348
		c0.839-0.109,1.532-0.273,2.304-0.659c0.903-1.384,2.2-2.192,3.662-2.682c2.57-2.038,6.215-2.394,7.651-4.813
		c0.76-1.273,1.035-2.983,0.464-5.532c-0.923-5.654,3.113-10.316,8.6-10.755c1.479-0.118,3.048,0.015,4.699,0.585
		c0.916,0.316,1.735,0.529,2.503,0.658c0.547,0.1,1.06,0.147,1.557,0.156c2.134,0.034,3.833-0.754,6.243-1.179
		c0.699-0.232,1.467-0.44,2.324-0.597c0.473-0.097,0.947-0.204,1.422-0.319c1.341-0.398,2.981-1.172,4.437-1.921
		c6.031-3.066,12.091-7.837,19.821-8.606c10.413-3.351,21.319-4.039,31.87-4.072c0.934-0.003,1.863-0.001,2.788,0.006
		c4.145,0.03,8.258,0.155,12.316,0.261c3.245,0.085,6.432,0.159,9.584,0.165c0.45,0.001,0.897,0.001,1.341,0.001
		c2.026-0.002,3.918-0.014,5.753-0.101c0.18,0.004,0.617-0.006,0.798-0.005s0.618,0.006,0.799,0.003c0.116,0,0.233-0.001,0.35-0.003
		c1.399-0.022,2.927-0.129,4.48-0.247C237.762,115.736,240.328,115.512,242.892,115.512"/>
	<path class="st1" d="M243.541,113.064L243.541,113.064c3.83,0,7.438,0.482,10.909,2.096c4.571,1.69,7.897,4.144,10.489,7.11
		c7.141,7.982,8.297,19.342,14.101,28.351c4.452,5.025,6.389,10.452,7.531,15.909c0.318,1.532,0.624,3.33,0.891,4.886
		c0.6,1.385,1.127,2.814,1.6,4.285c4.124,8.64,3.472,19.207,4.899,26.749c0.545,2.481,1.189,4.819,2.095,6.933
		c0.165,0.12,0.332,0.24,0.502,0.359c4.69-1.061,8.962-1.137,13.199-0.092c1.695,0.418,3.381,1.003,5.068,1.835
		c1.322,0.563,3.458,1.47,5.33,2.441c1.304,0.675,2.663,1.451,4.075,2.354c1.326,0.855,2.716,1.657,4.153,2.447
		c5.928,3.256,11.819,6.242,16.629,10.633c3.474,3.164,5.217,7.505,5.767,12.433c0.66,6.21-0.522,12.81-1.698,18.287
		c-0.176,0.813-0.35,1.599-0.505,2.309c-0.156,0.716-0.332,1.646-0.505,2.549c-0.339,1.707-0.689,3.47-1.048,5.198
		c-0.411,1.975-0.837,4.229-1.392,6.558c-2.2,8.615-5.903,15.682-11.457,18.286c-0.322,0.094-1.236,0.461-1.568,0.549
		c-0.326,0.087-1.277,0.353-1.611,0.434c-6.945,1.823-14.925,2.914-22.688,3.083c-1.989,0.042-3.95,0.022-5.872-0.061
		c-2.435-0.106-4.798-0.316-7.07-0.627c-2.497-0.808-4.866-1.793-7.217-2.751c-0.553-0.315-2.313-0.831-2.88-1.11
		c-0.578-0.284-2.261-1.089-2.87-1.308c-1.939-0.81-3.825-1.483-5.75-1.881c-0.771-0.299-1.719-0.84-2.547-1.336
		c-0.197-0.125-0.848-0.272-1.048-0.406c-1.63-0.442-3.287-0.963-4.594-0.838c-0.488,0.047-0.978,0.223-1.327,0.686
		c-0.823,1.103-1.805,1.898-2.887,2.435c-1.458,0.827-3.116,1.088-4.759,0.978c-1.277-0.084-2.545-0.343-3.656-0.849
		c-0.811-0.312-1.603-0.611-2.376-0.898c-1.296-0.113-2.717-0.032-3.996,0.079c-0.815,0.061-1.63,0.177-2.457,0.315
		c-9.56,1.598-19.005,8.886-36.265,11.027c-4.379,0.515-9.043,0.72-14.157,0.453c-0.627-0.033-1.259-0.074-1.898-0.121
		c-4.742-0.155-9.419-0.883-14.203-2.011c-2.381-0.336-4.555-0.918-6.582-1.592c-0.841-0.285-1.657-0.584-2.449-0.882
		c-3.335-1.209-6.674-2.644-10.238-3.998c-10.158-3.725-21.073-6.562-31.275-11.778c-1.761-0.575-3.354-1.126-4.946-1.726
		c-0.228-0.132-0.847-0.266-1.073-0.402c-0.905-0.342-1.793-0.707-2.663-1.097c-5.69-0.796-9.625-1.098-12.828-1.54
		c-0.325-0.045-0.722-0.084-1.046-0.129c-6.058-0.851-9.143-2.548-19.393-12.179c-5.621-2.27-9.77-6.126-12.598-11.018
		c-1.114-1.93-2.018-4.017-2.73-6.227c-0.95-1.066-1.898-2.24-2.808-3.557c-0.546-0.813-1.049-1.661-1.508-2.54
		c-1.68-2.775-4.099-4.795-6.5-6.707c-3.408-2.156-6.824-4.119-9.105-7.342c-1.384-1.823-2.278-4.042-2.446-6.884
		c-2.351-4.277-2.916-8.334-3.214-12.913c-1.099-8.109,3.107-25.045,9.113-31.892c0.48-0.368,1.476-1.404,1.902-1.846
		c0.326-0.339,1.151-1.087,1.455-1.454c0.698-0.837,1.503-1.927,2.225-2.915c2.926-4.001,5.884-8.238,10.877-9.427
		c1.294-0.374,2.591-0.56,4.104-0.49c2.42,0.544,4.334,0.753,5.8,0.475c2.084-0.395,3.416-1.848,4.6-4.789
		c1.328-1.261,2.82-1.66,4.382-1.66c0.136,0,0.272,0.003,0.409,0.008c1.705-0.34,3.555-0.257,5.316-0.522
		c0.845-0.127,1.554-0.302,2.339-0.686c0.96-1.346,2.296-2.139,3.791-2.62c2.486-2.156,6.027-2.711,7.513-5.202
		c0.796-1.328,1.145-3.06,0.702-5.576c-0.61-5.629,3.549-10.236,9.116-10.747c1.508-0.138,3.106-0.032,4.783,0.499
		c0.927,0.294,1.764,0.494,2.552,0.615c0.555,0.095,1.077,0.141,1.585,0.15c2.174,0.04,3.935-0.683,6.365-1.047
		c0.713-0.235,1.493-0.447,2.363-0.609c0.48-0.099,0.962-0.208,1.446-0.323c1.331-0.401,3.019-1.214,4.498-1.983
		c6.053-3.106,12.246-7.895,20.166-8.714c10.648-3.41,21.756-4.113,32.431-4.151c0.95-0.004,1.896-0.002,2.836,0.005
		c4.221,0.029,8.407,0.154,12.531,0.263c3.308,0.087,6.55,0.163,9.753,0.17c0.457,0.001,0.911,0.002,1.363,0.001
		c2.069-0.002,3.991-0.013,5.847-0.101c0.171,0.004,0.641-0.008,0.812-0.007c0.171,0.001,0.642,0.007,0.813,0.004
		c0.119,0,0.237-0.001,0.356-0.003c1.41-0.021,2.971-0.131,4.562-0.252C238.301,113.291,240.915,113.064,243.541,113.064"/>
	<path class="st1" d="M244.189,110.616L244.189,110.616c3.877,0,7.53,0.479,11.039,2.053c4.603,1.656,8.01,4.072,10.708,7.01
		c7.423,7.86,9.021,19.093,14.824,28.274c4.446,5.252,6.361,10.875,7.508,16.43c0.321,1.568,0.638,3.431,0.918,5.011
		c0.662,1.403,1.246,2.85,1.771,4.337c4.485,8.908,3.974,19.72,5.366,27.343c0.554,2.548,1.181,4.954,2.046,7.141
		c0.173,0.117,0.349,0.233,0.526,0.35c4.789-0.926,9.171-0.847,13.514,0.352c1.723,0.476,3.439,1.115,5.152,1.998
		c1.307,0.58,3.542,1.521,5.47,2.499c1.343,0.681,2.746,1.46,4.205,2.366c1.367,0.856,2.799,1.668,4.278,2.477
		c6.095,3.331,12.048,6.551,16.83,11.2c3.454,3.35,5.193,7.863,5.724,12.968c0.639,6.475-0.612,13.289-1.82,18.885
		c-0.184,0.843-0.365,1.657-0.523,2.384c-0.157,0.723-0.338,1.693-0.514,2.634c-0.341,1.746-0.695,3.569-1.069,5.372
		c-0.425,2.047-0.876,4.371-1.469,6.766c-2.385,9.005-6.433,16.09-12.087,18.741c-0.304,0.089-1.284,0.49-1.598,0.573
		c-0.307,0.082-1.33,0.369-1.645,0.446c-7.089,1.877-15.229,3.006-23.164,3.199c-2.029,0.048-4.032,0.034-5.996-0.044
		c-2.486-0.1-4.899-0.305-7.222-0.613c-2.565-0.779-5.003-1.734-7.415-2.673c-0.522-0.298-2.423-0.827-2.959-1.091
		c-0.546-0.268-2.352-1.137-2.928-1.344c-1.992-0.845-3.908-1.56-5.846-2.007c-0.79-0.319-1.765-0.877-2.599-1.372
		c-0.186-0.118-0.891-0.26-1.079-0.386c-1.658-0.368-3.346-0.82-4.709-0.676c-0.5,0.053-1.004,0.226-1.373,0.67
		c-0.884,1.058-1.922,1.817-3.055,2.325c-1.509,0.781-3.205,1.016-4.882,0.89c-1.303-0.096-2.595-0.364-3.736-0.87
		c-0.828-0.314-1.637-0.619-2.427-0.915c-1.308-0.07-2.767,0.063-4.067,0.214c-0.825,0.085-1.654,0.224-2.497,0.383
		c-9.635,1.815-19.447,9.06-37.081,11.082c-4.501,0.486-9.265,0.657-14.458,0.353c-0.641-0.038-1.286-0.084-1.938-0.136
		c-4.896-0.166-9.671-0.952-14.491-2.13c-2.429-0.384-4.643-1.005-6.7-1.706c-0.859-0.298-1.692-0.608-2.498-0.915
		c-3.397-1.237-6.818-2.678-10.466-4.048c-10.228-3.723-21.244-6.629-31.568-11.955c-1.799-0.556-3.41-1.076-5.023-1.643
		c-0.215-0.124-0.877-0.251-1.091-0.38c-0.922-0.323-1.825-0.669-2.711-1.041c-5.689-0.767-9.671-1.109-12.946-1.617
		c-0.328-0.051-0.725-0.096-1.052-0.148c-6.138-0.973-9.42-2.869-19.563-12.391c-5.802-2.39-10.127-6.407-13.088-11.508
		c-1.163-2.006-2.109-4.175-2.857-6.474c-1.038-1.055-2.085-2.229-3.096-3.563c-0.606-0.821-1.167-1.681-1.681-2.575
		c-1.833-2.818-4.312-4.972-6.714-7.057c-3.48-2.343-6.886-4.546-9.16-8.017c-1.377-1.953-2.257-4.292-2.427-7.221
		c-2.243-4.531-2.704-8.853-2.902-13.558c-0.913-8.224,3.308-25.009,9.458-32.019c0.454-0.348,1.502-1.449,1.905-1.868
		c0.308-0.32,1.188-1.104,1.475-1.451c0.692-0.829,1.511-1.94,2.238-2.934c2.913-3.982,5.891-8.238,10.877-9.596
		c1.307-0.428,2.619-0.669,4.133-0.661c2.423,0.422,4.367,0.547,5.886,0.229c2.153-0.451,3.59-1.87,4.872-4.673
		c1.389-1.213,2.923-1.598,4.508-1.598c0.138,0,0.277,0.003,0.416,0.008c1.72-0.4,3.583-0.391,5.369-0.695
		c0.851-0.145,1.575-0.33,2.373-0.713c1.016-1.309,2.392-2.086,3.921-2.558c2.401-2.275,5.839-3.028,7.375-5.591
		c0.833-1.383,1.255-3.137,0.94-5.62c-0.298-5.605,3.984-10.157,9.633-10.74c1.538-0.159,3.163-0.079,4.866,0.413
		c0.939,0.272,1.793,0.458,2.601,0.573c0.562,0.089,1.094,0.134,1.612,0.145c2.215,0.046,4.037-0.613,6.488-0.915
		c0.726-0.238,1.52-0.453,2.401-0.62c0.488-0.101,0.977-0.211,1.47-0.327c1.321-0.404,3.056-1.256,4.559-2.046
		c6.075-3.147,12.4-7.953,20.511-8.823c10.884-3.468,22.193-4.186,32.993-4.229c0.967-0.004,1.929-0.003,2.884,0.004
		c4.298,0.027,8.556,0.154,12.745,0.264c3.371,0.089,6.667,0.167,9.921,0.175c0.465,0.001,0.926,0.002,1.385,0.001
		c2.112-0.002,4.064-0.012,5.941-0.102c0.161,0.004,0.665-0.01,0.826-0.01c0.162,0.001,0.666,0.008,0.828,0.005
		c0.121,0,0.241-0.001,0.362-0.002c1.422-0.02,3.015-0.133,4.644-0.257C238.84,110.845,241.501,110.616,244.189,110.616"/>
	<path class="st1" d="M244.838,108.168L244.838,108.168c3.924,0,7.621,0.477,11.169,2.01c4.635,1.623,8.123,4.001,10.927,6.911
		c7.706,7.739,9.746,18.843,15.546,28.196c4.44,5.479,6.333,11.299,7.485,16.95c0.324,1.603,0.652,3.532,0.945,5.135
		c0.725,1.42,1.365,2.885,1.941,4.389c4.846,9.175,4.477,20.232,5.834,27.937c0.563,2.615,1.173,5.089,1.997,7.348
		c0.181,0.114,0.365,0.227,0.551,0.34c4.887-0.792,9.379-0.557,13.828,0.796c1.751,0.533,3.496,1.227,5.235,2.161
		c1.293,0.597,3.627,1.571,5.61,2.557c1.382,0.686,2.829,1.469,4.335,2.377c1.407,0.857,2.881,1.679,4.403,2.507
		c6.262,3.405,12.276,6.86,17.031,11.766c3.434,3.536,5.169,8.22,5.681,13.504c0.618,6.741-0.701,13.768-1.942,19.483
		c-0.191,0.873-0.379,1.714-0.541,2.46c-0.158,0.73-0.343,1.74-0.524,2.719c-0.343,1.785-0.701,3.669-1.09,5.545
		c-0.439,2.119-0.915,4.514-1.546,6.975c-2.57,9.396-6.963,16.499-12.717,19.196c-0.286,0.084-1.332,0.519-1.627,0.597
		c-0.289,0.077-1.382,0.386-1.679,0.458c-7.233,1.93-15.532,3.098-23.639,3.315c-2.069,0.054-4.114,0.045-6.121-0.029
		c-2.536-0.095-5-0.294-7.375-0.598c-2.633-0.75-5.139-1.676-7.614-2.595c-0.492-0.28-2.534-0.823-3.038-1.071
		c-0.514-0.253-2.444-1.185-2.985-1.379c-2.044-0.88-3.991-1.638-5.942-2.133c-0.809-0.339-1.812-0.914-2.651-1.408
		c-0.175-0.112-0.933-0.248-1.111-0.367c-1.686-0.294-3.406-0.677-4.824-0.514c-0.513,0.059-1.029,0.23-1.42,0.653
		c-0.945,1.013-2.038,1.736-3.224,2.214c-1.559,0.735-3.293,0.945-5.006,0.803c-1.328-0.108-2.644-0.384-3.815-0.891
		c-0.845-0.316-1.671-0.627-2.478-0.932c-1.32-0.027-2.817,0.158-4.138,0.348c-0.836,0.109-1.677,0.272-2.536,0.451
		c-9.71,2.03-19.889,9.234-37.897,11.137c-4.624,0.458-9.487,0.593-14.76,0.252c-0.654-0.042-1.314-0.094-1.978-0.151
		c-5.05-0.178-9.922-1.021-14.78-2.248c-2.477-0.432-4.732-1.093-6.818-1.82c-0.878-0.311-1.727-0.632-2.547-0.947
		c-3.46-1.265-6.962-2.712-10.695-4.098c-10.298-3.72-21.414-6.697-31.861-12.132c-1.838-0.536-3.466-1.026-5.1-1.56
		c-0.203-0.117-0.908-0.236-1.109-0.358c-0.939-0.304-1.858-0.632-2.759-0.985c-5.687-0.738-9.717-1.12-13.065-1.694
		c-0.332-0.057-0.728-0.108-1.059-0.166c-6.217-1.096-9.698-3.19-19.734-12.602c-5.983-2.509-10.484-6.687-13.578-11.997
		c-1.212-2.082-2.201-4.334-2.984-6.721c-1.126-1.045-2.271-2.218-3.385-3.569c-0.667-0.829-1.284-1.701-1.853-2.61
		c-1.986-2.861-4.526-5.149-6.927-7.408c-3.552-2.53-6.948-4.974-9.215-8.692c-1.37-2.082-2.237-4.543-2.409-7.558
		c-2.136-4.784-2.492-9.372-2.589-14.203c-0.728-8.34,3.509-24.972,9.803-32.147c0.427-0.327,1.529-1.495,1.908-1.889
		c0.29-0.301,1.226-1.122,1.496-1.448c0.686-0.82,1.52-1.952,2.252-2.953c2.899-3.964,5.898-8.238,10.878-9.765
		c1.321-0.481,2.646-0.777,4.162-0.831c2.426,0.299,4.401,0.341,5.971-0.017c2.222-0.507,3.763-1.891,5.143-4.557
		c1.45-1.164,3.026-1.535,4.634-1.535c0.141,0,0.282,0.003,0.423,0.007c1.734-0.461,3.61-0.525,5.422-0.868
		c0.858-0.162,1.597-0.359,2.407-0.739c1.073-1.272,2.488-2.033,4.051-2.496c2.317-2.393,5.651-3.344,7.237-5.981
		c0.869-1.438,1.365-3.214,1.178-5.664c0.015-5.58,4.42-10.079,10.149-10.732c1.568-0.179,3.221-0.126,4.949,0.328
		c0.95,0.249,1.822,0.423,2.65,0.531c0.57,0.084,1.111,0.127,1.639,0.139c2.256,0.051,4.139-0.542,6.611-0.783
		c0.74-0.241,1.547-0.46,2.439-0.631c0.495-0.104,0.993-0.215,1.494-0.331c1.31-0.407,3.094-1.299,4.62-2.108
		c6.097-3.187,12.555-8.011,20.856-8.931c11.119-3.527,22.629-4.259,33.554-4.308c0.984-0.005,1.962-0.003,2.933,0.002
		c4.375,0.025,8.705,0.154,12.959,0.266c3.434,0.091,6.785,0.171,10.09,0.181c0.472,0.001,0.941,0.002,1.408,0.002
		c2.156-0.002,4.137-0.011,6.034-0.102c0.152,0.004,0.688-0.013,0.841-0.012c0.152,0.001,0.69,0.009,0.842,0.007
		c0.123,0,0.245,0,0.368-0.002c1.433-0.018,3.06-0.135,4.726-0.262C239.378,108.4,242.088,108.168,244.838,108.168"/>
	<path class="st1" d="M245.487,105.72L245.487,105.72c3.971,0,7.712,0.474,11.299,1.966c4.667,1.589,8.236,3.929,11.147,6.811
		c7.988,7.617,10.47,18.594,16.268,28.119c4.434,5.705,6.305,11.722,7.462,17.471c0.327,1.638,0.667,3.633,0.971,5.26
		c0.787,1.438,1.484,2.92,2.112,4.441c5.207,9.442,4.979,20.745,6.301,28.53c0.572,2.681,1.165,5.224,1.948,7.555
		c0.19,0.11,0.381,0.22,0.575,0.331c4.986-0.658,9.588-0.269,14.142,1.24c1.78,0.59,3.553,1.338,5.318,2.324
		c1.278,0.613,3.712,1.622,5.75,2.615c1.422,0.692,2.913,1.477,4.465,2.389c1.448,0.858,2.964,1.69,4.528,2.537
		c6.429,3.479,12.505,7.169,17.232,12.333c3.414,3.723,5.146,8.578,5.639,14.04c0.597,7.007-0.79,14.246-2.064,20.081
		c-0.199,0.903-0.393,1.772-0.559,2.536c-0.16,0.737-0.349,1.787-0.533,2.804c-0.344,1.825-0.707,3.768-1.111,5.719
		c-0.453,2.191-0.954,4.656-1.624,7.183c-2.754,9.786-7.493,16.907-13.346,19.651c-0.269,0.078-1.379,0.548-1.656,0.621
		c-0.271,0.072-1.435,0.402-1.713,0.47c-7.378,1.984-15.836,3.191-24.114,3.432c-2.109,0.06-4.196,0.057-6.246-0.013
		c-2.586-0.089-5.102-0.284-7.528-0.584c-2.701-0.721-5.276-1.617-7.813-2.517c-0.461-0.263-2.644-0.819-3.117-1.052
		c-0.482-0.237-2.535-1.233-3.042-1.415c-2.096-0.915-4.074-1.715-6.038-2.259c-0.829-0.359-1.858-0.951-2.703-1.444
		c-0.164-0.105-0.975-0.236-1.142-0.347c-1.713-0.22-3.465-0.535-4.94-0.352c-0.525,0.065-1.055,0.233-1.467,0.637
		c-1.007,0.968-2.155,1.655-3.392,2.103c-1.61,0.689-3.381,0.873-5.13,0.716c-1.354-0.12-2.693-0.405-3.895-0.913
		c-0.862-0.319-1.705-0.635-2.528-0.949c-1.332,0.015-2.866,0.253-4.21,0.482c-0.847,0.133-1.701,0.319-2.575,0.519
		c-9.786,2.243-20.33,9.408-38.713,11.192c-4.746,0.429-9.708,0.529-15.061,0.151c-0.668-0.047-1.341-0.104-2.019-0.165
		c-5.204-0.19-10.174-1.09-15.068-2.366c-2.526-0.48-4.82-1.181-6.937-1.934c-0.896-0.325-1.762-0.656-2.595-0.979
		c-3.523-1.293-7.107-2.746-10.923-4.148c-10.368-3.718-21.584-6.765-32.155-12.309c-1.876-0.517-3.522-0.976-5.178-1.476
		c-0.19-0.11-0.939-0.221-1.127-0.335c-0.956-0.285-1.891-0.594-2.806-0.928c-5.686-0.709-9.764-1.13-13.183-1.772
		c-0.335-0.063-0.731-0.12-1.065-0.184c-6.297-1.22-9.976-3.511-19.904-12.813c-6.164-2.629-10.842-6.967-14.069-12.487
		c-1.26-2.159-2.292-4.492-3.111-6.967c-1.214-1.034-2.458-2.208-3.673-3.574c-0.727-0.838-1.402-1.721-2.025-2.646
		c-2.139-2.904-4.739-5.326-7.141-7.758c-3.624-2.717-7.01-5.401-9.269-9.367c-1.364-2.212-2.216-4.794-2.391-7.894
		c-2.029-5.038-2.28-9.892-2.277-14.848c-0.542-8.455,3.71-24.936,10.148-32.274c0.4-0.307,1.555-1.541,1.911-1.91
		c0.272-0.282,1.263-1.139,1.516-1.445c0.68-0.812,1.529-1.965,2.265-2.972c2.885-3.945,5.905-8.237,10.878-9.935
		c1.334-0.535,2.673-0.886,4.191-1.001c2.429,0.177,4.434,0.135,6.057-0.264c2.291-0.563,3.937-1.912,5.415-4.441
		c1.511-1.116,3.129-1.472,4.76-1.472c0.143,0,0.287,0.002,0.431,0.007c1.748-0.521,3.638-0.659,5.475-1.041
		c0.864-0.18,1.619-0.388,2.441-0.766c1.129-1.235,2.584-1.979,4.181-2.434c2.232-2.512,5.463-3.661,7.099-6.37
		c0.906-1.493,1.475-3.291,1.415-5.707c0.328-5.556,4.856-10,10.666-10.725c1.598-0.199,3.278-0.173,5.032,0.242
		c0.962,0.227,1.851,0.387,2.7,0.488c0.578,0.079,1.129,0.12,1.667,0.134c2.297,0.057,4.241-0.471,6.734-0.651
		c0.753-0.244,1.574-0.466,2.478-0.643c0.502-0.106,1.008-0.218,1.518-0.335c1.3-0.41,3.132-1.341,4.681-2.17
		c6.119-3.228,12.709-8.068,21.201-9.039c11.355-3.585,23.066-4.332,34.116-4.387c1.001-0.005,1.995-0.004,2.981,0.001
		c4.452,0.024,8.853,0.153,13.174,0.268c3.497,0.093,6.902,0.175,10.259,0.186c0.479,0.002,0.956,0.002,1.43,0.002
		c2.199-0.002,4.21-0.011,6.128-0.102c0.142,0.003,0.712-0.015,0.855-0.015c0.143,0,0.713,0.01,0.856,0.008
		c0.125,0.001,0.25,0,0.375-0.001c1.445-0.017,3.104-0.137,4.808-0.268C239.917,105.954,242.674,105.72,245.487,105.72"/>
	<path class="st1" d="M246.136,103.272L246.136,103.272c4.018,0,7.803,0.471,11.429,1.923c4.698,1.556,8.349,3.857,11.366,6.711
		c8.27,7.496,11.194,18.345,16.991,28.041c4.428,5.932,6.276,12.146,7.439,17.992c0.33,1.674,0.681,3.734,0.998,5.384
		c0.849,1.456,1.603,2.955,2.283,4.493c5.568,9.71,5.482,21.257,6.768,29.124c0.581,2.748,1.157,5.359,1.899,7.763
		c0.198,0.107,0.398,0.214,0.599,0.321c5.084-0.524,9.798,0.018,14.456,1.684c1.808,0.647,3.61,1.45,5.402,2.487
		c1.263,0.63,3.797,1.672,5.89,2.674c1.461,0.698,2.996,1.486,4.595,2.401c1.488,0.859,3.046,1.7,4.653,2.567
		c6.596,3.554,12.734,7.477,17.433,12.9c3.393,3.909,5.122,8.936,5.596,14.575c0.576,7.272-0.88,14.725-2.186,20.679
		c-0.207,0.933-0.408,1.829-0.577,2.611c-0.161,0.744-0.354,1.833-0.542,2.889c-0.346,1.864-0.713,3.867-1.131,5.893
		c-0.467,2.263-0.993,4.799-1.701,7.392c-2.939,10.177-8.023,17.315-13.976,20.106c-0.251,0.073-1.427,0.577-1.685,0.645
		c-0.253,0.068-1.487,0.419-1.747,0.482c-7.522,2.038-16.14,3.283-24.589,3.548c-2.15,0.066-4.278,0.068-6.37,0.003
		c-2.637-0.083-5.203-0.273-7.68-0.57c-2.769-0.692-5.413-1.558-8.012-2.439c-0.43-0.245-2.754-0.815-3.195-1.032
		c-0.45-0.221-2.626-1.281-3.1-1.451c-2.148-0.95-4.158-1.793-6.134-2.385c-0.848-0.379-1.904-0.988-2.755-1.481
		c-0.153-0.098-1.018-0.223-1.173-0.327c-1.741-0.145-3.524-0.392-5.055-0.19c-0.538,0.071-1.08,0.236-1.513,0.621
		c-1.068,0.923-2.271,1.574-3.561,1.992c-1.66,0.643-3.47,0.802-5.253,0.628c-1.379-0.132-2.743-0.425-3.974-0.934
		c-0.879-0.321-1.739-0.643-2.579-0.966c-1.344,0.058-2.916,0.348-4.281,0.616c-0.857,0.157-1.724,0.365-2.614,0.587
		c-9.862,2.454-20.772,9.582-39.53,11.247c-4.869,0.4-9.93,0.465-15.363,0.05c-0.682-0.052-1.368-0.114-2.059-0.18
		c-5.358-0.202-10.425-1.159-15.356-2.484c-2.574-0.528-4.908-1.268-7.055-2.048c-0.914-0.338-1.796-0.68-2.644-1.011
		c-3.585-1.32-7.251-2.781-11.152-4.198c-10.438-3.716-21.755-6.833-32.448-12.486c-1.915-0.498-3.578-0.926-5.255-1.393
		c-0.177-0.102-0.97-0.207-1.145-0.313c-0.973-0.266-1.924-0.556-2.854-0.872c-5.684-0.68-9.81-1.139-13.301-1.849
		c-0.339-0.069-0.734-0.132-1.072-0.203c-6.377-1.343-10.253-3.832-20.075-13.025c-6.345-2.748-11.199-7.248-14.559-12.976
		c-1.309-2.235-2.384-4.65-3.238-7.214c-1.303-1.024-2.645-2.197-3.961-3.58c-0.787-0.846-1.52-1.742-2.197-2.681
		c-2.292-2.948-4.952-5.503-7.355-8.108c-3.696-2.904-7.071-5.828-9.324-10.042c-1.357-2.342-2.195-5.044-2.372-8.231
		c-1.922-5.292-2.068-10.411-1.965-15.492c-0.356-8.571,3.912-24.9,10.492-32.402c0.374-0.286,1.581-1.586,1.913-1.931
		c0.254-0.264,1.3-1.156,1.537-1.442c0.673-0.803,1.537-1.977,2.278-2.991c2.871-3.927,5.912-8.237,10.878-10.104
		c1.348-0.588,2.701-0.995,4.22-1.171c2.431,0.055,4.468-0.071,6.143-0.51c2.36-0.618,4.111-1.933,5.686-4.325
		c1.572-1.067,3.232-1.409,4.886-1.409c0.146,0,0.292,0.002,0.438,0.007c1.762-0.582,3.666-0.793,5.528-1.214
		c0.87-0.197,1.641-0.417,2.475-0.792c1.186-1.198,2.68-1.926,4.311-2.372c2.148-2.631,5.275-3.978,6.96-6.759
		c0.943-1.548,1.585-3.368,1.653-5.751c0.641-5.531,5.291-9.922,11.183-10.717c1.628-0.22,3.336-0.22,5.116,0.156
		c0.974,0.205,1.88,0.351,2.749,0.446c0.586,0.074,1.146,0.113,1.694,0.128c2.337,0.063,4.343-0.401,6.857-0.519
		c0.767-0.247,1.6-0.473,2.516-0.654c0.509-0.108,1.023-0.222,1.542-0.339c1.29-0.413,3.17-1.383,4.741-2.232
		c6.141-3.268,12.864-8.126,21.546-9.148c11.59-3.644,23.502-4.406,34.677-4.465c1.018-0.006,2.028-0.005,3.029,0
		c4.529,0.022,9.002,0.153,13.388,0.269c3.56,0.094,7.019,0.179,10.427,0.191c0.487,0.002,0.97,0.003,1.452,0.002
		c2.242-0.002,4.283-0.01,6.221-0.102c0.133,0.003,0.736-0.018,0.869-0.017s0.737,0.011,0.87,0.009c0.127,0.001,0.254,0,0.381-0.001
		c1.457-0.016,3.148-0.139,4.89-0.273C240.456,103.509,243.26,103.272,246.136,103.272"/>
	<path class="st1" d="M246.784,100.824L246.784,100.824c4.065,0,7.894,0.469,11.559,1.88c4.73,1.522,8.462,3.785,11.585,6.612
		c8.552,7.374,11.919,18.096,17.713,27.964c4.421,6.159,6.248,12.569,7.416,18.512c0.333,1.709,0.696,3.835,1.025,5.509
		c0.911,1.473,1.723,2.991,2.453,4.545c5.929,9.977,5.984,21.77,7.235,29.718c0.59,2.814,1.149,5.494,1.85,7.97
		c0.206,0.103,0.414,0.207,0.623,0.311c5.183-0.389,10.007,0.305,14.771,2.128c1.836,0.703,3.667,1.562,5.485,2.651
		c1.249,0.647,3.882,1.723,6.03,2.732c1.5,0.703,3.079,1.494,4.725,2.412c1.529,0.86,3.129,1.711,4.778,2.597
		c6.763,3.628,12.962,7.786,17.634,13.467c3.373,4.095,5.098,9.293,5.553,15.111c0.554,7.538-0.969,15.204-2.307,21.277
		c-0.214,0.964-0.422,1.887-0.595,2.687c-0.162,0.751-0.359,1.88-0.551,2.974c-0.347,1.903-0.72,3.967-1.152,6.067
		c-0.481,2.335-1.032,4.941-1.778,7.6c-3.124,10.567-8.554,17.724-14.606,20.561c-0.233,0.068-1.475,0.605-1.715,0.67
		c-0.235,0.063-1.539,0.435-1.781,0.494c-7.666,2.091-16.444,3.375-25.064,3.665c-2.19,0.072-4.36,0.079-6.495,0.019
		c-2.687-0.077-5.304-0.262-7.833-0.555c-2.836-0.663-5.549-1.499-8.211-2.361c-0.399-0.228-2.865-0.811-3.274-1.012
		c-0.418-0.205-2.717-1.329-3.157-1.487c-2.2-0.985-4.241-1.871-6.23-2.511c-0.867-0.399-1.95-1.024-2.806-1.517
		c-0.142-0.091-1.06-0.211-1.204-0.308c-1.769-0.071-3.584-0.25-5.17-0.028c-0.55,0.077-1.106,0.239-1.56,0.605
		c-1.129,0.878-2.388,1.493-3.729,1.882c-1.711,0.597-3.558,0.73-5.377,0.541c-1.404-0.144-2.792-0.446-4.053-0.955
		c-0.897-0.323-1.773-0.651-2.63-0.983c-1.357,0.1-2.965,0.443-4.352,0.751c-0.868,0.181-1.748,0.412-2.654,0.655
		c-9.939,2.664-21.214,9.756-40.346,11.302c-4.991,0.372-10.152,0.4-15.664-0.05c-0.695-0.057-1.395-0.123-2.099-0.195
		c-5.512-0.214-10.677-1.227-15.645-2.602c-2.622-0.577-4.996-1.356-7.173-2.161c-0.933-0.351-1.831-0.705-2.693-1.043
		c-3.648-1.348-7.395-2.815-11.38-4.248c-10.508-3.713-21.925-6.901-32.741-12.663c-1.953-0.478-3.634-0.876-5.333-1.309
		c-0.165-0.095-1-0.192-1.163-0.29c-0.99-0.247-1.957-0.518-2.902-0.815c-5.683-0.651-9.857-1.148-13.419-1.926
		c-0.342-0.075-0.738-0.144-1.078-0.221c-6.456-1.467-10.531-4.153-20.245-13.236c-6.526-2.868-11.556-7.528-15.049-13.466
		c-1.358-2.311-2.476-4.808-3.365-7.461c-1.391-1.013-2.831-2.186-4.25-3.585c-0.847-0.854-1.638-1.762-2.37-2.716
		c-2.445-2.991-5.166-5.68-7.569-8.459c-3.769-3.091-7.133-6.256-9.379-10.717c-1.35-2.471-2.174-5.295-2.354-8.568
		c-1.815-5.546-1.856-10.93-1.652-16.137c-0.17-8.687,4.113-24.863,10.837-32.529c0.347-0.266,1.608-1.632,1.916-1.952
		c0.236-0.245,1.338-1.174,1.557-1.439c0.667-0.795,1.546-1.99,2.291-3.01c2.857-3.908,5.919-8.236,10.879-10.273
		c1.361-0.642,2.728-1.103,4.25-1.341c2.434-0.068,4.501-0.277,6.228-0.757c2.429-0.674,4.285-1.954,5.958-4.209
		c1.633-1.019,3.335-1.346,5.012-1.346c0.148,0,0.297,0.002,0.446,0.007c1.776-0.642,3.693-0.926,5.581-1.387
		c0.877-0.214,1.663-0.446,2.509-0.819c1.242-1.161,2.776-1.873,4.441-2.31c2.063-2.749,5.087-4.295,6.822-7.149
		c0.979-1.603,1.695-3.445,1.891-5.795c0.954-5.507,5.727-9.844,11.699-10.71c1.657-0.24,3.393-0.266,5.199,0.07
		c0.985,0.183,1.908,0.316,2.798,0.404c0.594,0.068,1.163,0.106,1.721,0.122c2.378,0.069,4.445-0.33,6.98-0.387
		c0.78-0.25,1.627-0.479,2.554-0.665c0.516-0.111,1.038-0.226,1.566-0.343c1.279-0.416,3.208-1.426,4.802-2.294
		c6.163-3.309,13.018-8.184,21.891-9.256c11.826-3.702,23.939-4.479,35.239-4.544c1.034-0.006,2.06-0.006,3.078-0.002
		c4.606,0.021,9.151,0.153,13.602,0.271c3.623,0.096,7.137,0.183,10.596,0.196c0.494,0.002,0.985,0.003,1.474,0.002
		c2.285-0.001,4.356-0.009,6.315-0.103c0.123,0.003,0.76-0.02,0.883-0.019s0.761,0.012,0.885,0.01c0.129,0.001,0.258,0.001,0.387,0
		c1.468-0.015,3.192-0.141,4.972-0.278C240.995,101.063,243.847,100.824,246.784,100.824"/>
	<path class="st1" d="M247.433,98.376L247.433,98.376c4.112,0,7.986,0.466,11.689,1.836c4.762,1.489,8.575,3.714,11.804,6.512
		c8.835,7.252,12.643,17.847,18.435,27.887c4.415,6.386,6.22,12.993,7.393,19.033c0.336,1.744,0.71,3.936,1.052,5.633
		c0.974,1.491,1.842,3.026,2.624,4.597c6.29,10.245,6.487,22.282,7.703,30.311c0.599,2.881,1.141,5.629,1.8,8.178
		c0.214,0.1,0.43,0.201,0.648,0.302c5.282-0.255,10.217,0.591,15.085,2.572c1.865,0.759,3.724,1.673,5.568,2.814
		c1.234,0.663,3.967,1.773,6.17,2.79c1.539,0.709,3.162,1.503,4.855,2.424c1.57,0.861,3.211,1.722,4.903,2.627
		c6.93,3.702,13.191,8.095,17.835,14.034c3.353,4.282,5.075,9.651,5.511,15.646c0.533,7.803-1.059,15.683-2.429,21.876
		c-0.222,0.994-0.437,1.944-0.613,2.762c-0.164,0.758-0.365,1.927-0.561,3.06c-0.349,1.942-0.726,4.066-1.173,6.24
		c-0.495,2.407-1.071,5.083-1.855,7.808c-3.309,10.958-9.084,18.132-15.236,21.016c-0.215,0.063-1.523,0.634-1.744,0.694
		c-0.217,0.058-1.592,0.452-1.815,0.506c-7.81,2.145-16.747,3.467-25.54,3.781c-2.23,0.078-4.441,0.091-6.62,0.035
		c-2.737-0.071-5.405-0.251-7.986-0.541c-2.904-0.634-5.686-1.44-8.41-2.283c-0.369-0.21-2.975-0.807-3.353-0.993
		c-0.385-0.189-2.809-1.377-3.215-1.523c-2.252-1.019-4.324-1.948-6.326-2.637c-0.886-0.419-1.997-1.061-2.858-1.553
		c-0.132-0.084-1.102-0.199-1.236-0.288c-1.796,0.003-3.643-0.107-5.286,0.134c-0.563,0.083-1.131,0.243-1.607,0.588
		c-1.191,0.833-2.504,1.413-3.898,1.771c-1.761,0.551-3.646,0.658-5.501,0.453c-1.43-0.156-2.841-0.466-4.133-0.976
		c-0.914-0.325-1.807-0.659-2.68-1c-1.369,0.143-3.015,0.538-4.424,0.885c-0.879,0.205-1.772,0.459-2.693,0.723
		c-10.016,2.872-21.656,9.93-41.162,11.357c-5.114,0.343-10.374,0.336-15.965-0.151c-0.709-0.062-1.422-0.133-2.14-0.21
		c-5.666-0.225-10.928-1.296-15.933-2.72c-2.67-0.625-5.084-1.443-7.291-2.275c-0.951-0.364-1.866-0.729-2.741-1.076
		c-3.71-1.376-7.539-2.849-11.608-4.298c-10.578-3.711-22.095-6.969-33.035-12.84c-1.991-0.459-3.69-0.826-5.41-1.226
		c-0.152-0.088-1.031-0.177-1.182-0.268c-1.007-0.228-1.989-0.481-2.949-0.759c-5.681-0.622-9.904-1.157-13.538-2.003
		c-0.346-0.081-0.741-0.156-1.085-0.24c-6.536-1.591-10.808-4.474-20.416-13.447c-6.708-2.987-11.913-7.809-15.539-13.955
		c-1.406-2.387-2.567-4.966-3.492-7.708c-1.479-1.003-3.018-2.175-4.538-3.591c-0.908-0.862-1.756-1.782-2.542-2.752
		c-2.598-3.034-5.379-5.857-7.782-8.809c-3.841-3.278-7.195-6.683-9.434-11.392c-1.343-2.601-2.154-5.545-2.335-8.905
		c-1.708-5.8-1.644-11.449-1.34-16.782c0.016-8.802,4.314-24.827,11.182-32.657c0.32-0.245,1.634-1.677,1.919-1.973
		c0.218-0.226,1.375-1.191,1.578-1.436c0.661-0.786,1.555-2.002,2.305-3.028c2.843-3.889,5.926-8.236,10.879-10.443
		c1.375-0.695,2.755-1.212,4.279-1.511c2.437-0.19,4.536-0.48,6.314-1.003c2.5-0.724,4.458-1.976,6.229-4.093
		c1.694-0.97,3.438-1.284,5.138-1.284c0.151,0,0.302,0.002,0.453,0.006c1.79-0.703,3.721-1.06,5.635-1.56
		c0.883-0.231,1.685-0.475,2.543-0.845c1.298-1.123,2.872-1.82,4.571-2.248c1.979-2.868,4.899-4.612,6.684-7.538
		c1.016-1.658,1.805-3.522,2.129-5.839c1.266-5.483,6.162-9.767,12.216-10.702c1.687-0.261,3.451-0.313,5.282-0.016
		c0.997,0.162,1.937,0.28,2.848,0.362c0.601,0.063,1.18,0.099,1.749,0.117c2.419,0.074,4.547-0.26,7.103-0.255
		c0.794-0.253,1.654-0.486,2.593-0.677c0.523-0.113,1.053-0.229,1.59-0.347c1.269-0.419,3.246-1.468,4.863-2.356
		c6.185-3.349,13.173-8.242,22.236-9.364c12.061-3.761,24.376-4.552,35.801-4.623c1.051-0.007,2.093-0.007,3.126-0.003
		c4.682,0.019,9.3,0.152,13.817,0.273c3.685,0.098,7.254,0.187,10.765,0.201c0.501,0.002,1,0.003,1.496,0.003
		c2.328-0.001,4.429-0.009,6.409-0.103c0.114,0.003,0.784-0.022,0.898-0.022s0.785,0.013,0.899,0.011
		c0.131,0.001,0.262,0.001,0.393,0c1.48-0.014,3.236-0.143,5.054-0.283C241.533,98.617,244.433,98.376,247.433,98.376"/>
	<path class="st1" d="M248.082,95.928L248.082,95.928c4.159,0,8.077,0.464,11.819,1.793c4.794,1.455,8.688,3.642,12.023,6.412
		c9.117,7.131,13.367,17.597,19.157,27.809c4.409,6.612,6.192,13.416,7.37,19.554c0.339,1.78,0.725,4.037,1.079,5.757
		c1.036,1.509,1.961,3.061,2.795,4.65c6.65,10.512,6.989,22.795,8.17,30.905c0.607,2.947,1.133,5.764,1.751,8.385
		c0.223,0.097,0.447,0.194,0.672,0.292c5.38-0.121,10.428,0.877,15.399,3.016c1.894,0.815,3.781,1.785,5.652,2.977
		c1.22,0.68,4.051,1.824,6.31,2.848c1.578,0.715,3.245,1.512,4.985,2.436c1.61,0.862,3.294,1.733,5.029,2.657
		c7.097,3.777,13.419,8.404,18.036,14.601c3.332,4.468,5.051,10.009,5.468,16.182c0.512,8.069-1.148,16.162-2.551,22.474
		c-0.229,1.024-0.451,2.002-0.631,2.838c-0.165,0.765-0.37,1.974-0.57,3.145c-0.35,1.982-0.732,4.166-1.193,6.414
		c-0.509,2.479-1.111,5.226-1.933,8.017c-3.494,11.348-9.614,18.54-15.865,21.471c-0.197,0.058-1.57,0.663-1.773,0.718
		c-0.199,0.053-1.644,0.468-1.848,0.518c-7.954,2.198-17.051,3.56-26.015,3.897c-2.27,0.084-4.523,0.102-6.744,0.051
		c-2.787-0.065-5.506-0.241-8.138-0.527c-2.972-0.605-5.823-1.382-8.608-2.205c-0.338-0.193-3.085-0.803-3.432-0.973
		c-0.353-0.174-2.9-1.425-3.272-1.558c-2.304-1.054-4.407-2.026-6.422-2.763c-0.906-0.439-2.043-1.098-2.91-1.589
		c-0.121-0.077-1.145-0.187-1.267-0.268c-1.824,0.077-3.703,0.035-5.401,0.296c-0.576,0.089-1.157,0.246-1.653,0.572
		c-1.252,0.788-2.621,1.332-4.066,1.66c-1.812,0.505-3.735,0.587-5.625,0.366c-1.455-0.168-2.891-0.486-4.212-0.998
		c-0.931-0.328-1.841-0.667-2.731-1.017c-1.381,0.186-3.065,0.634-4.495,1.019c-0.889,0.229-1.795,0.505-2.732,0.791
		c-10.094,3.078-22.098,10.104-41.978,11.412c-5.236,0.315-10.595,0.271-16.267-0.252c-0.723-0.067-1.449-0.143-2.18-0.225
		c-5.82-0.237-11.18-1.365-16.222-2.839c-2.718-0.673-5.173-1.531-7.41-2.389c-0.969-0.377-1.9-0.753-2.79-1.108
		c-3.773-1.404-7.683-2.883-11.837-4.348c-10.648-3.708-22.265-7.037-33.328-13.017c-2.03-0.439-3.746-0.776-5.488-1.143
		c-0.139-0.08-1.062-0.162-1.2-0.246c-1.024-0.209-2.022-0.443-2.997-0.702c-5.68-0.593-9.95-1.165-13.656-2.08
		c-0.35-0.086-0.744-0.168-1.091-0.258c-6.615-1.716-11.086-4.795-20.586-13.659c-6.889-3.107-12.271-8.089-16.03-14.445
		c-1.455-2.463-2.659-5.125-3.619-7.955c-1.567-0.992-3.204-2.164-4.826-3.596c-0.968-0.87-1.873-1.802-2.714-2.787
		c-2.751-3.077-5.592-6.034-7.996-9.159c-3.913-3.465-7.257-7.111-9.489-12.066c-1.337-2.73-2.133-5.796-2.317-9.241
		c-1.601-6.053-1.432-11.968-1.028-17.427c0.202-8.918,4.515-24.79,11.527-32.784c0.293-0.225,1.661-1.723,1.921-1.994
		c0.199-0.207,1.413-1.208,1.599-1.433c0.655-0.778,1.563-2.015,2.318-3.047c2.83-3.871,5.933-8.235,10.88-10.612
		c1.388-0.749,2.782-1.321,4.308-1.681c2.44-0.312,4.569-0.686,6.4-1.249c2.569-0.78,4.632-1.997,6.501-3.977
		c1.755-0.922,3.54-1.221,5.264-1.221c0.153,0,0.307,0.002,0.461,0.006c1.805-0.763,3.749-1.193,5.688-1.733
		c0.89-0.248,1.707-0.503,2.577-0.872c1.355-1.086,2.968-1.767,4.7-2.186c1.894-2.986,4.711-4.929,6.546-7.927
		c1.052-1.713,1.916-3.599,2.367-5.882c1.579-5.458,6.598-9.689,12.732-10.695c1.717-0.281,3.508-0.359,5.365-0.102
		c1.008,0.14,1.966,0.245,2.897,0.319c0.609,0.058,1.197,0.092,1.776,0.111c2.46,0.08,4.649-0.189,7.225-0.123
		c0.807-0.256,1.68-0.492,2.631-0.688c0.53-0.115,1.068-0.233,1.614-0.351c1.259-0.422,3.284-1.511,4.924-2.418
		c6.207-3.39,13.327-8.299,22.581-9.473c12.297-3.819,24.812-4.625,36.362-4.702c1.068-0.007,2.126-0.008,3.174-0.004
		c4.759,0.018,9.449,0.152,14.031,0.274c3.748,0.1,7.372,0.191,10.934,0.206c0.509,0.002,1.015,0.003,1.518,0.003
		c2.372-0.001,4.502-0.008,6.502-0.103c0.104,0.002,0.807-0.025,0.912-0.024s0.808,0.014,0.913,0.012
		c0.133,0.001,0.266,0.001,0.399,0c1.492-0.013,3.28-0.145,5.136-0.288C242.072,96.172,245.02,95.928,248.082,95.928"/>
	<path class="st1" d="M248.73,93.48L248.73,93.48c4.207,0,8.168,0.461,11.948,1.749c4.826,1.422,8.8,3.57,12.243,6.313
		c9.399,7.009,14.091,17.348,19.88,27.732c4.403,6.839,6.163,13.84,7.347,20.074c0.342,1.815,0.739,4.138,1.105,5.882
		c1.098,1.526,2.08,3.097,2.965,4.702c7.011,10.779,7.491,23.307,8.637,31.499c0.616,3.014,1.125,5.899,1.702,8.593
		c0.231,0.093,0.463,0.188,0.696,0.283c5.479,0.013,10.639,1.162,15.713,3.461c1.923,0.871,3.838,1.897,5.735,3.14
		c1.205,0.697,4.136,1.874,6.45,2.906c1.618,0.72,3.328,1.52,5.115,2.447c1.651,0.863,3.376,1.743,5.154,2.687
		c7.263,3.851,13.648,8.712,18.237,15.168c3.312,4.654,5.027,10.367,5.425,16.717c0.491,8.335-1.238,16.641-2.673,23.072
		c-0.237,1.054-0.465,2.059-0.649,2.913c-0.166,0.772-0.376,2.021-0.579,3.23c-0.352,2.021-0.738,4.265-1.214,6.588
		c-0.523,2.551-1.15,5.368-2.01,8.225c-3.679,11.739-10.144,18.949-16.495,21.926c-0.179,0.052-1.618,0.692-1.802,0.742
		c-0.181,0.048-1.697,0.485-1.882,0.53c-8.098,2.252-17.355,3.652-26.49,4.014c-2.31,0.09-4.605,0.113-6.869,0.068
		c-2.838-0.059-5.608-0.23-8.291-0.512c-3.04-0.576-5.959-1.323-8.807-2.127c-0.307-0.175-3.195-0.799-3.511-0.954
		c-0.321-0.158-2.991-1.473-3.33-1.594c-2.356-1.089-4.49-2.103-6.518-2.889c-0.925-0.458-2.089-1.135-2.962-1.625
		c-0.11-0.07-1.187-0.174-1.298-0.249c-1.852,0.151-3.762,0.176-5.516,0.458c-0.588,0.094-1.182,0.249-1.7,0.556
		c-1.313,0.743-2.737,1.251-4.235,1.55c-1.862,0.459-3.823,0.515-5.748,0.279c-1.48-0.18-2.94-0.507-4.292-1.019
		c-0.948-0.33-1.876-0.675-2.782-1.034c-1.393,0.228-3.114,0.729-4.566,1.153c-0.9,0.253-1.819,0.551-2.772,0.859
		c-10.172,3.283-22.539,10.277-42.794,11.467c-5.359,0.286-10.816,0.196-16.568-0.353c-0.736-0.073-1.476-0.153-2.22-0.24
		c-5.974-0.249-11.431-1.434-16.51-2.957c-2.766-0.721-5.261-1.619-7.528-2.503c-0.987-0.391-1.935-0.777-2.839-1.14
		c-3.836-1.432-7.827-2.918-12.065-4.398c-10.718-3.706-22.436-7.105-33.621-13.194c-2.068-0.42-3.802-0.726-5.565-1.059
		c-0.127-0.073-1.093-0.148-1.218-0.223c-1.041-0.19-2.055-0.405-3.045-0.646c-5.678-0.564-9.997-1.173-13.774-2.157
		c-0.353-0.092-0.747-0.18-1.098-0.277c-6.695-1.84-11.363-5.117-20.756-13.87c-7.07-3.226-12.628-8.37-16.52-14.934
		c-1.504-2.539-2.75-5.283-3.746-8.202c-1.655-0.982-3.391-2.153-5.115-3.602c-1.028-0.878-1.991-1.822-2.886-2.823
		c-2.904-3.121-5.806-6.211-8.21-9.509c-3.985-3.653-7.318-7.538-9.543-12.741c-1.33-2.86-2.112-6.046-2.299-9.578
		c-1.494-6.307-1.22-12.487-0.716-18.071c0.387-9.033,4.716-24.754,11.871-32.912c0.267-0.205,1.687-1.769,1.924-2.015
		c0.181-0.188,1.45-1.226,1.619-1.43c0.649-0.769,1.572-2.027,2.331-3.066c2.816-3.852,5.94-8.235,10.88-10.781
		c1.401-0.802,2.81-1.429,4.337-1.851c2.443-0.435,4.603-0.892,6.485-1.496c2.638-0.836,4.806-2.018,6.772-3.861
		c1.816-0.873,3.643-1.158,5.39-1.158c0.156,0,0.312,0.002,0.468,0.006c1.819-0.824,3.777-1.326,5.741-1.907
		c0.896-0.265,1.729-0.532,2.611-0.899c1.411-1.049,3.064-1.714,4.83-2.124c1.81-3.105,4.523-5.245,6.408-8.317
		c1.089-1.768,2.026-3.675,2.605-5.926c1.892-5.434,7.033-9.612,13.249-10.687c1.746-0.302,3.566-0.405,5.448-0.187
		c1.02,0.118,1.995,0.209,2.946,0.277c0.617,0.053,1.215,0.086,1.803,0.106c2.5,0.086,4.751-0.119,7.348,0.009
		c0.821-0.259,1.707-0.499,2.669-0.699c0.537-0.117,1.083-0.236,1.638-0.355c1.248-0.426,3.322-1.553,4.985-2.481
		c6.229-3.43,13.482-8.357,22.926-9.581c12.532-3.878,25.249-4.698,36.924-4.78c1.085-0.008,2.159-0.009,3.223-0.006
		c4.836,0.016,9.598,0.152,14.245,0.276c3.811,0.102,7.489,0.195,11.102,0.211c0.516,0.002,1.029,0.004,1.54,0.003
		c2.415-0.001,4.575-0.007,6.596-0.103c0.095,0.002,0.831-0.027,0.926-0.027s0.832,0.015,0.927,0.014
		c0.135,0.002,0.27,0.002,0.406,0.001c1.503-0.012,3.325-0.147,5.218-0.293C242.611,93.726,245.606,93.48,248.73,93.48"/>
	<path class="st1" d="M249.379,91.032L249.379,91.032c4.254,0,8.259,0.458,12.078,1.706c4.857,1.388,8.913,3.498,12.462,6.213
		c9.681,6.888,14.816,17.099,20.602,27.654c4.397,7.066,6.135,14.263,7.324,20.595c0.345,1.85,0.754,4.239,1.132,6.006
		c1.16,1.544,2.199,3.132,3.136,4.754c7.372,11.047,7.994,23.82,9.104,32.092c0.625,3.08,1.117,6.034,1.653,8.8
		c0.239,0.09,0.479,0.181,0.721,0.273c5.577,0.147,10.85,1.447,16.027,3.905c1.952,0.926,3.895,2.008,5.818,3.303
		c1.191,0.714,4.221,1.925,6.59,2.964c1.657,0.726,3.412,1.529,5.245,2.459c1.691,0.864,3.459,1.754,5.279,2.718
		c7.43,3.925,13.876,9.021,18.437,15.735c3.292,4.84,5.004,10.724,5.382,17.253c0.47,8.6-1.327,17.12-2.795,23.67
		c-0.245,1.084-0.48,2.117-0.667,2.989c-0.168,0.779-0.381,2.068-0.589,3.315c-0.353,2.06-0.744,4.365-1.235,6.761
		c-0.537,2.623-1.189,5.511-2.087,8.434c-3.863,12.129-10.674,19.357-17.125,22.381c-0.161,0.047-1.666,0.721-1.832,0.766
		c-0.163,0.043-1.749,0.501-1.916,0.542c-8.242,2.306-17.659,3.744-26.965,4.13c-2.351,0.096-4.687,0.125-6.994,0.083
		c-2.888-0.053-5.709-0.22-8.444-0.498c-3.107-0.547-6.096-1.264-9.006-2.049c-0.276-0.158-3.306-0.795-3.589-0.934
		c-0.289-0.142-3.083-1.521-3.387-1.63c-2.408-1.124-4.573-2.181-6.613-3.015c-0.944-0.478-2.136-1.172-3.014-1.661
		c-0.099-0.063-1.229-0.162-1.329-0.229c-1.88,0.225-3.822,0.318-5.632,0.62c-0.601,0.1-1.208,0.253-1.747,0.539
		c-1.374,0.698-2.854,1.17-4.403,1.439c-1.913,0.414-3.911,0.444-5.872,0.191c-1.506-0.192-2.99-0.527-4.371-1.04
		c-0.965-0.332-1.91-0.683-2.832-1.051c-1.405,0.271-3.164,0.824-4.638,1.288c-0.911,0.277-1.843,0.597-2.811,0.927
		c-10.251,3.487-22.981,10.451-43.61,11.522c-5.481,0.257-11.037,0.131-16.869-0.453c-0.75-0.078-1.503-0.163-2.26-0.255
		c-6.128-0.261-11.683-1.503-16.798-3.075c-2.814-0.769-5.349-1.706-7.646-2.617c-1.006-0.404-1.97-0.801-2.888-1.172
		c-3.898-1.46-7.972-2.952-12.294-4.448c-10.788-3.704-22.606-7.172-33.915-13.371c-2.107-0.4-3.858-0.676-5.643-0.976
		c-0.114-0.066-1.123-0.133-1.236-0.201c-1.058-0.171-2.088-0.367-3.092-0.59c-5.677-0.534-10.045-1.18-13.892-2.235
		c-0.357-0.098-0.75-0.192-1.104-0.295c-6.774-1.965-11.641-5.438-20.927-14.081c-7.251-3.346-12.985-8.65-17.01-15.424
		c-1.553-2.615-2.842-5.441-3.873-8.449c-1.744-0.971-3.578-2.142-5.403-3.608c-1.088-0.887-2.109-1.842-3.059-2.858
		c-3.057-3.164-6.019-6.388-8.424-9.86c-4.058-3.84-7.38-7.966-9.598-13.416c-1.323-2.99-2.091-6.297-2.28-9.915
		c-1.387-6.561-1.008-13.007-0.403-18.716c0.573-9.149,4.917-24.718,12.216-33.039c0.24-0.184,1.714-1.814,1.927-2.036
		c0.163-0.169,1.488-1.243,1.64-1.427c0.643-0.761,1.581-2.04,2.345-3.085c2.802-3.834,5.947-8.234,10.88-10.951
		c1.415-0.856,2.837-1.538,4.366-2.021c2.446-0.557,4.636-1.098,6.571-1.742c2.708-0.892,4.98-2.039,7.044-3.745
		c1.877-0.825,3.746-1.095,5.517-1.095c0.158,0,0.317,0.002,0.476,0.006c1.833-0.884,3.805-1.458,5.794-2.08
		c0.903-0.282,1.751-0.561,2.645-0.925c1.468-1.012,3.161-1.661,4.96-2.062c1.726-3.223,4.335-5.562,6.269-8.706
		c1.126-1.823,2.136-3.752,2.842-5.97c2.205-5.409,7.468-9.535,13.766-10.68c1.776-0.323,3.623-0.452,5.532-0.273
		c1.031,0.096,2.024,0.174,2.996,0.235c0.625,0.047,1.232,0.079,1.831,0.1c2.541,0.091,4.853-0.048,7.471,0.141
		c0.834-0.262,1.734-0.505,2.708-0.711c0.544-0.12,1.098-0.24,1.662-0.359c1.238-0.429,3.36-1.595,5.046-2.543
		c6.251-3.471,13.636-8.415,23.271-9.689c12.768-3.936,25.685-4.772,37.485-4.859c1.102-0.008,2.192-0.01,3.271-0.007
		c4.913,0.014,9.747,0.151,14.46,0.278c3.874,0.104,7.607,0.199,11.271,0.216c0.523,0.002,1.044,0.004,1.563,0.004
		c2.458-0.001,4.648-0.006,6.689-0.104c0.085,0.002,0.855-0.029,0.941-0.029s0.856,0.016,0.942,0.015
		c0.137,0.002,0.275,0.002,0.412,0.001c1.515-0.01,3.369-0.149,5.301-0.298C243.15,91.281,246.193,91.032,249.379,91.032"/>
	<path class="st1" d="M250.028,88.584L250.028,88.584c4.301,0,8.35,0.456,12.208,1.663c4.889,1.355,9.026,3.427,12.681,6.114
		c9.964,6.766,15.54,16.85,21.324,27.577c4.39,7.293,6.107,14.687,7.301,21.115c0.348,1.886,0.768,4.341,1.159,6.131
		c1.223,1.562,2.319,3.167,3.306,4.806c7.733,11.314,8.496,24.332,9.572,32.686c0.634,3.147,1.109,6.169,1.604,9.008
		c0.247,0.087,0.496,0.175,0.745,0.264c5.676,0.282,11.061,1.731,16.342,4.349c1.981,0.982,3.952,2.12,5.902,3.466
		c1.176,0.73,4.306,1.975,6.73,3.022c1.696,0.731,3.495,1.538,5.375,2.471c1.732,0.865,3.541,1.765,5.404,2.748
		c7.597,3.999,14.105,9.33,18.638,16.302c3.271,5.027,4.98,11.082,5.34,17.789c0.449,8.866-1.416,17.599-2.917,24.268
		c-0.252,1.114-0.494,2.175-0.685,3.064c-0.169,0.786-0.387,2.114-0.598,3.4c-0.355,2.1-0.75,4.464-1.255,6.935
		c-0.551,2.695-1.228,5.653-2.165,8.642c-4.048,12.519-11.204,19.765-17.754,22.836c-0.143,0.042-1.713,0.75-1.861,0.79
		c-0.145,0.039-1.802,0.518-1.95,0.554c-8.386,2.359-17.962,3.836-27.44,4.246c-2.391,0.103-4.769,0.136-7.118,0.099
		c-2.938-0.047-5.81-0.209-8.596-0.484c-3.175-0.518-6.233-1.205-9.205-1.971c-0.246-0.14-3.416-0.791-3.668-0.915
		c-0.257-0.126-3.174-1.569-3.445-1.666c-2.46-1.159-4.656-2.258-6.709-3.141c-0.963-0.498-2.182-1.209-3.066-1.697
		c-0.088-0.056-1.272-0.15-1.361-0.209c-1.907,0.299-3.881,0.46-5.747,0.782c-0.613,0.106-1.233,0.256-1.793,0.523
		c-1.436,0.652-2.97,1.089-4.572,1.328c-1.963,0.368-3.999,0.372-5.996,0.104c-1.531-0.204-3.039-0.548-4.451-1.061
		c-0.982-0.334-1.944-0.691-2.883-1.068c-1.417,0.313-3.214,0.919-4.709,1.422c-0.921,0.301-1.867,0.643-2.85,0.995
		c-10.331,3.689-23.423,10.625-44.426,11.577c-5.604,0.229-11.259,0.067-17.171-0.554c-0.763-0.083-1.53-0.173-2.301-0.27
		c-6.282-0.273-11.934-1.572-17.087-3.193c-2.862-0.817-5.437-1.794-7.765-2.731c-1.024-0.417-2.005-0.826-2.936-1.204
		c-3.961-1.487-8.116-2.986-12.522-4.498c-10.858-3.701-22.776-7.24-34.208-13.549c-2.145-0.381-3.914-0.626-5.72-0.892
		c-0.101-0.059-1.154-0.118-1.254-0.179c-1.075-0.152-2.121-0.329-3.14-0.533c-5.676-0.505-10.092-1.187-14.011-2.312
		c-0.361-0.103-0.753-0.204-1.111-0.314c-6.853-2.09-11.919-5.759-21.097-14.293c-7.432-3.465-13.342-8.93-17.5-15.914
		c-1.601-2.692-2.933-5.599-4-8.696c-1.832-0.961-3.764-2.131-5.691-3.613c-1.149-0.895-2.227-1.862-3.231-2.893
		c-3.21-3.207-6.232-6.565-8.637-10.21c-4.13-4.027-7.442-8.393-9.653-14.091c-1.317-3.119-2.07-6.548-2.262-10.251
		c-1.28-6.815-0.796-13.526-0.091-19.361c0.759-9.264,5.118-24.681,12.561-33.166c0.213-0.164,1.74-1.86,1.93-2.057
		c0.145-0.151,1.525-1.26,1.66-1.424c0.637-0.753,1.589-2.052,2.358-3.104c2.788-3.815,5.954-8.234,10.881-11.12
		c1.428-0.909,2.864-1.646,4.395-2.191c2.449-0.679,4.67-1.304,6.657-1.988c2.777-0.947,5.153-2.061,7.315-3.629
		c1.939-0.777,3.849-1.032,5.643-1.032c0.161,0,0.322,0.002,0.483,0.005c1.847-0.945,3.833-1.591,5.847-2.253
		c0.91-0.299,1.773-0.59,2.679-0.952c1.524-0.975,3.257-1.607,5.09-2c1.641-3.342,4.147-5.879,6.131-9.095
		c1.162-1.878,2.246-3.829,3.08-6.013c2.518-5.385,7.903-9.458,14.282-10.672c1.806-0.344,3.681-0.498,5.615-0.359
		c1.043,0.075,2.053,0.138,3.045,0.192c0.632,0.042,1.249,0.072,1.858,0.095c2.582,0.097,4.955,0.022,7.594,0.273
		c0.848-0.265,1.76-0.512,2.746-0.722c0.551-0.122,1.113-0.244,1.687-0.363c1.228-0.432,3.398-1.638,5.107-2.605
		c6.273-3.511,13.791-8.472,23.616-9.798c13.003-3.995,26.122-4.845,38.047-4.938c1.118-0.009,2.225-0.011,3.319-0.008
		c4.99,0.013,9.896,0.151,14.674,0.279c3.937,0.106,7.724,0.203,11.44,0.221c0.531,0.003,1.059,0.004,1.585,0.004
		c2.501-0.001,4.721-0.006,6.783-0.104c0.076,0.002,0.879-0.032,0.955-0.032s0.88,0.017,0.956,0.016
		c0.139,0.002,0.279,0.002,0.418,0.002c1.527-0.009,3.413-0.151,5.383-0.303C243.689,88.835,246.779,88.584,250.028,88.584"/>
	<path class="st1" d="M250.676,86.136L250.676,86.136c4.348,0,8.442,0.453,12.338,1.619c4.921,1.321,9.139,3.355,12.9,6.014
		c10.246,6.645,16.264,16.6,22.047,27.5c4.384,7.519,6.079,15.11,7.278,21.636c0.351,1.921,0.783,4.442,1.186,6.255
		c1.285,1.579,2.438,3.202,3.477,4.858c8.094,11.581,8.999,24.845,10.039,33.28c0.643,3.214,1.101,6.304,1.555,9.215
		c0.256,0.083,0.512,0.168,0.769,0.254c5.774,0.416,11.273,2.015,16.656,4.793c2.01,1.037,4.009,2.232,5.985,3.63
		c1.162,0.747,4.391,2.026,6.87,3.08c1.735,0.737,3.578,1.546,5.505,2.482c1.773,0.866,3.624,1.775,5.529,2.778
		c7.764,4.074,14.334,9.638,18.839,16.869c3.251,5.213,4.956,11.44,5.297,18.324c0.428,9.131-1.506,18.078-3.039,24.866
		c-0.26,1.144-0.508,2.232-0.703,3.14c-0.17,0.793-0.392,2.161-0.607,3.485c-0.356,2.139-0.757,4.563-1.276,7.109
		c-0.565,2.767-1.267,5.796-2.242,8.85c-4.233,12.91-11.734,20.174-18.384,23.291c-0.125,0.037-1.761,0.779-1.89,0.814
		c-0.127,0.034-1.854,0.534-1.984,0.566c-8.53,2.413-18.266,3.929-27.915,4.363c-2.431,0.109-4.851,0.148-7.243,0.115
		c-2.989-0.041-5.911-0.198-8.749-0.469c-3.243-0.489-6.369-1.147-9.404-1.893c-0.215-0.123-3.526-0.787-3.747-0.895
		c-0.225-0.111-3.265-1.617-3.502-1.702c-2.512-1.194-4.739-2.336-6.805-3.267c-0.982-0.518-2.228-1.246-3.118-1.733
		c-0.077-0.049-1.314-0.138-1.392-0.19c-1.935,0.373-3.941,0.601-5.862,0.944c-0.626,0.112-1.259,0.259-1.84,0.507
		c-1.497,0.607-3.087,1.008-4.74,1.217c-2.014,0.322-4.088,0.3-6.12,0.016c-1.556-0.216-3.088-0.568-4.53-1.083
		c-0.999-0.336-1.978-0.699-2.934-1.085c-1.43,0.356-3.263,1.014-4.78,1.556c-0.932,0.325-1.891,0.689-2.89,1.063
		c-10.412,3.891-23.865,10.799-45.242,11.632c-5.726,0.2-11.481,0.003-17.472-0.655c-0.777-0.088-1.557-0.183-2.341-0.285
		c-6.436-0.284-12.186-1.641-17.375-3.311c-2.91-0.865-5.525-1.881-7.883-2.844c-1.042-0.43-2.039-0.85-2.985-1.237
		c-4.024-1.515-8.26-3.02-12.751-4.548c-10.928-3.699-22.946-7.308-34.501-13.726c-2.183-0.362-3.97-0.576-5.797-0.809
		c-0.089-0.051-1.185-0.103-1.273-0.156c-1.092-0.133-2.153-0.292-3.188-0.477c-5.674-0.476-10.14-1.193-14.129-2.389
		c-0.364-0.109-0.756-0.217-1.118-0.332c-6.928-2.228-12.196-6.08-21.268-14.504c-7.613-3.585-13.7-9.211-17.99-16.403
		c-1.65-2.768-3.025-5.757-4.127-8.943c-1.92-0.95-3.951-2.12-5.979-3.619c-1.209-0.903-2.344-1.882-3.403-2.929
		c-3.363-3.25-6.445-6.742-8.851-10.56c-4.202-4.214-7.504-8.82-9.708-14.766c-1.31-3.249-2.05-6.798-2.243-10.588
		c-1.173-7.069-0.584-14.045,0.221-20.006c0.945-9.38,5.319-24.645,12.906-33.294c0.187-0.143,1.766-1.905,1.932-2.078
		c0.127-0.132,1.563-1.278,1.681-1.421c0.63-0.744,1.598-2.065,2.371-3.123c2.774-3.797,5.961-8.233,10.881-11.289
		c1.442-0.963,2.892-1.755,4.424-2.361c2.451-0.802,4.703-1.511,6.742-2.235c2.846-1.003,5.327-2.082,7.587-3.514
		c2-0.728,3.952-0.97,5.769-0.97c0.163,0,0.327,0.002,0.491,0.005c1.861-1.005,3.861-1.723,5.9-2.426
		c0.916-0.316,1.795-0.619,2.713-0.978c1.581-0.938,3.353-1.554,5.22-1.938c1.557-3.46,3.959-6.196,5.993-9.485
		c1.199-1.933,2.356-3.906,3.318-6.057c2.83-5.36,8.339-9.382,14.799-10.665c1.835-0.364,3.738-0.544,5.698-0.445
		c1.055,0.053,2.082,0.103,3.094,0.15c0.64,0.037,1.266,0.065,1.885,0.089c2.623,0.103,5.057,0.093,7.717,0.404
		c0.861-0.268,1.787-0.518,2.784-0.733c0.558-0.124,1.128-0.247,1.711-0.366c1.217-0.435,3.436-1.68,5.168-2.667
		c6.296-3.552,13.945-8.53,23.961-9.906c13.239-4.053,26.558-4.918,38.609-5.016c1.135-0.01,2.258-0.012,3.368-0.009
		c5.067,0.011,10.044,0.151,14.888,0.281c4,0.107,7.841,0.207,11.608,0.226c0.538,0.003,1.073,0.004,1.607,0.004
		c2.544-0.001,4.794-0.005,6.877-0.104c0.066,0.002,0.902-0.034,0.969-0.034s0.903,0.018,0.97,0.017
		c0.141,0.002,0.283,0.003,0.424,0.002c1.538-0.008,3.457-0.153,5.465-0.309C244.227,86.39,247.365,86.136,250.676,86.136"/>
	<path class="st1" d="M251.325,83.688L251.325,83.688c4.395,0,8.533,0.451,12.468,1.576c4.953,1.288,9.252,3.283,13.119,5.914
		c10.528,6.523,16.988,16.351,22.769,27.422c4.378,7.746,6.05,15.534,7.255,22.157c0.354,1.956,0.797,4.543,1.212,6.38
		c1.347,1.597,2.557,3.238,3.648,4.91c8.455,11.849,9.501,25.357,10.506,33.873c0.652,3.28,1.093,6.439,1.505,9.423
		c0.264,0.08,0.528,0.161,0.793,0.245c5.873,0.55,11.485,2.298,16.97,5.237c2.039,1.093,4.066,2.344,6.068,3.793
		c1.147,0.764,4.476,2.076,7.01,3.138c1.775,0.743,3.661,1.555,5.635,2.494c1.813,0.867,3.706,1.786,5.654,2.808
		c7.931,4.148,14.562,9.947,19.04,17.436c3.231,5.399,4.933,11.797,5.254,18.86c0.407,9.397-1.595,18.556-3.161,25.464
		c-0.267,1.174-0.523,2.29-0.721,3.215c-0.172,0.8-0.397,2.208-0.616,3.57c-0.358,2.178-0.763,4.663-1.297,7.283
		c-0.579,2.839-1.306,5.938-2.319,9.059c-4.418,13.3-12.264,20.582-19.014,23.746c-0.107,0.031-1.809,0.808-1.92,0.838
		c-0.108,0.029-1.906,0.55-2.018,0.578c-8.675,2.467-18.57,4.021-28.391,4.479c-2.471,0.115-4.933,0.159-7.367,0.132
		c-3.039-0.035-6.012-0.188-8.902-0.455c-3.311-0.46-6.506-1.088-9.603-1.815c-0.184-0.105-3.637-0.783-3.826-0.876
		c-0.193-0.095-3.356-1.664-3.559-1.737c-2.565-1.229-4.822-2.413-6.901-3.393c-1.002-0.538-2.275-1.283-3.169-1.769
		c-0.066-0.042-1.356-0.125-1.423-0.17c-1.963,0.448-4,0.743-5.978,1.106c-0.639,0.117-1.284,0.262-1.887,0.491
		c-1.558,0.562-3.203,0.927-4.909,1.107c-2.064,0.276-4.176,0.229-6.243-0.071c-1.582-0.228-3.138-0.589-4.61-1.104
		c-1.016-0.339-2.012-0.707-2.984-1.102c-1.442,0.399-3.313,1.109-4.852,1.69c-0.943,0.349-1.915,0.735-2.929,1.131
		c-10.493,4.092-24.306,10.973-46.058,11.687c-5.848,0.172-11.702-0.061-17.773-0.756c-0.791-0.092-1.584-0.192-2.381-0.3
		c-6.59-0.296-12.437-1.71-17.664-3.429c-2.958-0.913-5.614-1.969-8.001-2.958c-1.061-0.443-2.074-0.874-3.034-1.269
		c-4.086-1.543-8.404-3.055-12.979-4.598c-10.998-3.696-23.117-7.376-34.795-13.903c-2.222-0.342-4.026-0.526-5.875-0.726
		c-0.076-0.044-1.216-0.089-1.291-0.134c-1.109-0.114-2.186-0.254-3.235-0.42c-5.673-0.447-10.187-1.199-14.247-2.466
		c-0.368-0.115-0.759-0.229-1.124-0.35c-7.008-2.352-12.474-6.401-21.438-14.715c-7.794-3.704-14.057-9.491-18.481-16.893
		c-1.699-2.844-3.116-5.915-4.254-9.19c-2.008-0.94-4.137-2.109-6.268-3.624c-1.269-0.911-2.462-1.902-3.575-2.964
		c-3.516-3.294-6.659-6.919-9.065-10.911c-4.274-4.401-7.566-9.248-9.763-15.441c-1.303-3.378-2.029-7.049-2.225-10.925
		c-1.066-7.323-0.372-14.564,0.534-20.651c1.131-9.495,5.52-24.608,13.25-33.421c0.16-0.123,1.793-1.951,1.935-2.099
		c0.109-0.113,1.6-1.295,1.701-1.417c0.624-0.736,1.607-2.077,2.384-3.142c2.76-3.778,5.968-8.233,10.882-11.459
		c1.455-1.016,2.919-1.864,4.454-2.531c2.454-0.924,4.737-1.717,6.828-2.481c2.915-1.059,5.501-2.103,7.858-3.398
		c2.061-0.68,4.055-0.907,5.895-0.907c0.166,0,0.332,0.002,0.498,0.005c1.875-1.066,3.889-1.856,5.953-2.599
		c0.923-0.332,1.817-0.647,2.747-1.005c1.637-0.9,3.449-1.501,5.35-1.876c1.472-3.579,3.771-6.513,5.855-9.874
		c1.235-1.988,2.466-3.983,3.556-6.101c3.143-5.336,8.771-9.318,15.315-10.657c1.864-0.389,3.796-0.59,5.781-0.531
		c1.066,0.032,2.11,0.067,3.144,0.108c0.648,0.032,1.283,0.058,1.913,0.084c2.664,0.109,5.159,0.164,7.84,0.536
		c0.875-0.271,1.814-0.525,2.823-0.745c0.565-0.127,1.144-0.251,1.735-0.37c1.207-0.438,3.474-1.722,5.229-2.729
		c6.318-3.592,14.1-8.588,24.306-10.014c13.474-4.112,26.995-4.991,39.17-5.095c1.152-0.01,2.291-0.013,3.416-0.011
		c5.143,0.01,10.193,0.151,15.103,0.283c4.062,0.109,7.959,0.211,11.777,0.231c0.545,0.003,1.088,0.004,1.629,0.004
		c2.588-0.001,4.867-0.004,6.97-0.105c0.057,0.001,0.926-0.037,0.983-0.036s0.927,0.019,0.984,0.018
		c0.143,0.002,0.287,0.003,0.431,0.003c1.55-0.007,3.501-0.155,5.547-0.314C244.766,83.944,247.952,83.688,251.325,83.688"/>
	<path class="st1" d="M251.974,81.24L251.974,81.24c4.442,0,8.624,0.448,12.598,1.533c4.985,1.254,9.365,3.211,13.339,5.815
		c10.81,6.402,17.713,16.102,23.491,27.345c4.372,7.973,6.022,15.957,7.233,22.677c0.357,1.992,0.812,4.644,1.239,6.504
		c1.409,1.615,2.676,3.273,3.818,4.962c8.816,12.116,10.003,25.87,10.973,34.467c0.66,3.347,1.085,6.575,1.456,9.63
		c0.272,0.076,0.545,0.155,0.818,0.235c5.972,0.684,11.698,2.582,17.284,5.681c2.069,1.148,4.123,2.455,6.152,3.956
		c1.133,0.78,4.56,2.127,7.15,3.196c1.814,0.748,3.744,1.564,5.765,2.505c1.854,0.868,3.788,1.797,5.779,2.838
		c8.098,4.222,14.791,10.256,19.241,18.003c3.21,5.586,4.909,12.155,5.212,19.395c0.386,9.663-1.685,19.035-3.283,26.062
		c-0.275,1.204-0.537,2.347-0.739,3.291c-0.173,0.807-0.403,2.255-0.626,3.655c-0.359,2.217-0.769,4.762-1.318,7.456
		c-0.593,2.911-1.345,6.081-2.397,9.267c-4.603,13.691-12.794,20.99-19.643,24.201c-0.09,0.026-1.857,0.837-1.949,0.862
		c-0.09,0.024-1.959,0.567-2.052,0.59c-8.819,2.52-18.874,4.113-28.866,4.596c-2.511,0.121-5.015,0.171-7.492,0.147
		c-3.089-0.03-6.114-0.177-9.055-0.441c-3.379-0.431-6.643-1.029-9.801-1.737c-0.154-0.088-3.747-0.779-3.905-0.856
		c-0.161-0.079-3.448-1.712-3.617-1.773c-2.617-1.264-4.905-2.491-6.997-3.519c-1.021-0.558-2.321-1.32-3.221-1.805
		c-0.055-0.035-1.399-0.113-1.454-0.15c-1.99,0.522-4.06,0.884-6.093,1.268c-0.651,0.123-1.31,0.266-1.933,0.474
		c-1.619,0.517-3.32,0.846-5.077,0.996c-2.115,0.23-4.264,0.157-6.367-0.158c-1.607-0.24-3.187-0.609-4.689-1.125
		c-1.033-0.341-2.046-0.714-3.035-1.12c-1.454,0.441-3.362,1.204-4.923,1.825c-0.954,0.373-1.939,0.781-2.968,1.199
		c-10.575,4.291-24.748,11.147-46.874,11.742c-5.971,0.143-11.924-0.126-18.075-0.857c-0.804-0.097-1.611-0.202-2.422-0.315
		c-6.745-0.308-12.689-1.778-17.952-3.548c-3.006-0.961-5.702-2.057-8.119-3.072c-1.079-0.457-2.109-0.898-3.083-1.301
		c-4.149-1.571-8.548-3.089-13.208-4.648c-11.068-3.694-23.287-7.444-35.088-14.08c-2.26-0.323-4.082-0.476-5.952-0.642
		c-0.063-0.037-1.246-0.074-1.309-0.112c-1.126-0.095-2.219-0.216-3.283-0.364c-5.671-0.418-10.235-1.205-14.366-2.543
		c-0.372-0.12-0.762-0.241-1.131-0.369c-7.087-2.475-12.751-6.722-21.608-14.927c-7.975-3.824-14.414-9.772-18.971-17.382
		c-1.747-2.92-3.208-6.074-4.381-9.437c-2.097-0.929-4.324-2.098-6.556-3.63c-1.329-0.919-2.58-1.922-3.748-2.999
		c-3.669-3.337-6.872-7.096-9.278-11.261c-4.346-4.588-7.627-9.675-9.817-16.116c-1.297-3.508-2.008-7.299-2.206-11.262
		c-0.959-7.576-0.16-15.083,0.846-21.295c1.317-9.611,5.721-24.572,13.595-33.549c0.133-0.102,1.819-1.997,1.938-2.12
		c0.091-0.094,1.638-1.312,1.722-1.414c0.618-0.727,1.615-2.09,2.398-3.161c2.747-3.76,5.975-8.233,10.882-11.628
		c1.468-1.07,2.946-1.972,4.483-2.701c2.457-1.046,4.77-1.923,6.914-2.728c2.985-1.115,5.674-2.124,8.13-3.282
		c2.122-0.631,4.158-0.844,6.021-0.844c0.168,0,0.337,0.002,0.506,0.005c1.89-1.126,3.918-1.988,6.007-2.772
		c0.93-0.349,1.839-0.676,2.782-1.031c1.694-0.863,3.545-1.448,5.48-1.814c1.388-3.697,3.583-6.83,5.717-10.263
		c1.272-2.043,2.576-4.06,3.794-6.145c3.456-5.312,9.206-9.24,15.832-10.65c1.894-0.409,3.853-0.635,5.865-0.617
		c1.078,0.01,2.139,0.032,3.193,0.066c0.656,0.026,1.301,0.051,1.94,0.078c2.704,0.114,5.262,0.234,7.962,0.668
		c0.888-0.274,1.841-0.531,2.861-0.756c0.572-0.129,1.159-0.254,1.759-0.374c1.197-0.441,3.511-1.765,5.29-2.791
		c6.34-3.633,14.254-8.646,24.651-10.123c13.71-4.17,27.432-5.065,39.732-5.174c1.169-0.011,2.324-0.014,3.464-0.012
		c5.22,0.008,10.342,0.15,15.317,0.284c4.125,0.111,8.076,0.215,11.946,0.236c0.553,0.003,1.103,0.005,1.651,0.005
		c2.631-0.001,4.94-0.004,7.064-0.105c0.047,0.001,0.95-0.039,0.998-0.039s0.951,0.02,0.999,0.02
		c0.145,0.003,0.291,0.004,0.437,0.003c1.562-0.006,3.546-0.157,5.629-0.319C245.305,81.498,248.538,81.24,251.974,81.24"/>
</g>
</svg>
