<?xml version="1.0" encoding="utf-8"?>
<!-- Generator: Adobe Illustrator 25.0.0, SVG Export Plug-In . SVG Version: 6.00 Build 0)  -->
<!DOCTYPE svg PUBLIC "-//W3C//DTD SVG 1.1//EN" "http://www.w3.org/Graphics/SVG/1.1/DTD/svg11.dtd" [
	<!ENTITY ns_extend "http://ns.adobe.com/Extensibility/1.0/">
	<!ENTITY ns_ai "http://ns.adobe.com/AdobeIllustrator/10.0/">
	<!ENTITY ns_graphs "http://ns.adobe.com/Graphs/1.0/">
	<!ENTITY ns_vars "http://ns.adobe.com/Variables/1.0/">
	<!ENTITY ns_imrep "http://ns.adobe.com/ImageReplacement/1.0/">
	<!ENTITY ns_sfw "http://ns.adobe.com/SaveForWeb/1.0/">
	<!ENTITY ns_custom "http://ns.adobe.com/GenericCustomNamespace/1.0/">
	<!ENTITY ns_adobe_xpath "http://ns.adobe.com/XPath/1.0/">
]>
<svg version="1.1" id="Livello_1" xmlns:x="&ns_extend;" xmlns:i="&ns_ai;" xmlns:graph="&ns_graphs;"
	 xmlns="http://www.w3.org/2000/svg" xmlns:xlink="http://www.w3.org/1999/xlink" x="0px" y="0px" viewBox="0 0 400 400"
	 style="enable-background:new 0 0 400 400;" xml:space="preserve">
<style type="text/css">
	.st0{opacity:0.45;fill:#FFFFFF;}
	.st1{fill:none;stroke:#DC4B33;stroke-width:0.8;stroke-miterlimit:10;}
</style>
<metadata>
	<sfw  xmlns="&ns_sfw;">
		<slices></slices>
		<sliceSourceBounds  bottomLeftOrigin="true" height="279.252" width="277.242" x="64.54" y="62.919"></sliceSourceBounds>
	</sfw>
</metadata>
<path class="st0" d="M197.467,58.229L197.467,58.229c7.651,0,11.389,5.984,15.92,11.409c0.417,0.499,0.838,0.991,1.268,1.471
	c2.3,2.552,3.637,5.699,5.847,7.803c0.68,0.665,1.446,1.257,2.292,1.653c0.39,0.198,0.799,0.375,1.233,0.526
	c0.435,0.158,0.852,0.296,1.252,0.418c4.963,0.76,8.103-0.508,12.492,4.149c1.784,1.902,3.343,3.366,4.654,5.013
	c0.385,0.485,0.751,0.981,1.098,1.51c0.839,1.285,1.57,2.779,2.155,4.77c0.204,0.734,0.33,1.329,0.434,1.82
	c0.118,0.49,0.204,0.826,0.355,1.067c0.074,0.206,0.356,0.376,0.637,0.455c0.16,0.045,0.51,0.145,0.782,0.176
	c0.336,0.063,0.732,0.125,1.205,0.195c0.199,0.016,0.356,0.031,0.556,0.048c1.512,0.128,2.806-0.198,4.3-0.029
	c0.667,0.076,1.373,0.249,2.161,0.589c6.093,3.27,12.271,10.13,15.265,15.762c0.102,0.238,0.254,0.607,0.318,0.842
	c0.07,0.257,0.179,0.649,0.215,0.902c0.174,0.931,0.199,1.84,0.253,2.74c0.025,0.13,0.051,0.259,0.077,0.388
	c0.126,0.63,0.296,1.259,0.593,1.895c5.041,7.352,22.933,8.149,29.505,18.53c2.803,4.443,3.481,10.456,0.339,19.173
	c-1.237,5.428-2.962,8.901-4.771,11.467c-3.228,4.405-6.484,5.129-6.739,10.039c0.551,4.027,2.073,3.528,4.964,5.521
	c3.119,2.13,3.605,5.406,5.21,7.666c0.873,1.058,1.985,1.928,3.705,2.407c6.762,2.346,6.662,7.012,9.953,11.856
	c9.568,6.434,6.899,10.476,12.092,17.019c0.335,0.428,0.703,0.869,1.108,1.324c5.523,4.821,11.068,13.723,12.693,22.508
	c0.144,0.53,0.216,1.411,0.323,1.936c0.11,0.539,0.077,1.41,0.145,1.94c0.087,1.929-0.049,3.795-0.447,5.546
	c-2.48,6.194-7.82,8.088-13.904,8.548c-4.98,0.317-10.452-0.342-15.221-0.282c-1.299,0.014-2.562,0.106-3.704,0.275
	c-2.678,0.634-4.786,2.294-7.58,2.682c-0.926,0.013-1.788,0.022-2.594,0.03c-1.329,0.016-2.511,0.026-3.553,0.045
	c-4.585,0.329-6.642,0.752-9.992,1.995c-0.401,0.167-1.08,0.398-1.545,0.608c-0.394,0.178-1.071,0.38-1.526,0.593
	c-0.929,0.353-1.934,0.754-3.049,1.209c-1.589,0.594-3.397,1.282-5.302,2.082c-1.418,0.641-2.756,1.316-3.909,1.953
	c-3.143,1.768-4.852,3.324-6.279,4.725c-0.733,0.745-1.272,1.409-1.827,1.995c-0.003,0.004-0.006,0.007-0.009,0.011
	c-1.33,1.52-3.043,2.81-7.136,3.943c-0.81,0.161-1.624,0.291-2.363,0.352c-5.979,0.49-9.529-2.447-12.979-6.408
	c-0.17-0.29-0.52-0.544-0.687-0.843c-0.165-0.297-0.516-0.576-0.68-0.88c-0.42-0.548-0.84-1.111-1.261-1.684
	c-0.623-0.879-1.273-1.581-1.947-2.161c-2.195-1.964-4.669-2.507-7.25-3.724c-1.209-0.351-2.463-0.865-3.742-1.805
	c-0.732-0.477-1.488-1.265-2.237-1.995c-1.003-1.031-1.983-1.97-2.86-1.838c-0.604,0.091-1.175,0.65-1.664,1.959
	c-0.093,0.294-0.185,0.618-0.274,0.977c-0.648,2.552-0.585,5.123-0.197,7.681c0.009,0.029,0.008,0.071,0.016,0.099
	s0.008,0.071,0.017,0.099c1.671,10.131,9.091,19.528,0.342,28.238c-2.47,2.361-6.218,3.153-8.033,5.72
	c-1.677,2.136-1.373,4.375-3.094,6.525c-0.602,0.821-1.858,1.703-2.719,2.453c-0.632,0.551-1.735,1.041-2.474,1.551
	c-2.288,1.43-5.308,2.827-8.199,3.985c-4.695,1.894-9.633,3.28-13.49,3.968c-0.487-0.033-0.975-0.025-1.462-0.018
	c-2.22,0.037-4.647,0.372-7.177,0.816c-6.311,1.087-13.129,2.774-18.927,2.423c-5.592-0.32-10.211-2.508-12.608-8.957
	c-1.721-4.788-1.297-10.734-0.699-16.857c0.019-0.119,0.022-0.29,0.041-0.409c0.019-0.12,0.023-0.29,0.043-0.41
	c1.065-10.734,2.591-21.552-6.485-27.141c-0.669-0.447-1.351-0.872-2.045-1.274c-1.712-0.961-3.481-1.87-5.304-2.608
	c-2.352-0.566-4.762-0.938-7.154-1.1c-1.153-0.077-2.302-0.105-3.436-0.082c-0.861,0.018-1.714,0.066-2.555,0.144
	c-3.033,0.291-5.998,0.829-8.825,1.635c-1.708,0.493-3.37,0.803-4.903,0.803c-2.945,0-5.49-1.127-7.076-4.473
	c-1.643-2.979-2.679-8.411-1.053-10.868c1.507-2.281,6.179-3.611,8.549-5.283c0.729-0.46,1.564-0.826,2.447-1.139
	c3.915-1.218,8.658-1.395,9.07-3.917c0.203-1.044,0.244-1.943,0.15-2.719c-0.357-2.886-2.686-3.846-5.445-4.341
	c-2.984-0.536-6.357-0.492-8.48-0.853c-0.393-0.067-0.745-0.142-1.038-0.256c-0.427-0.163-0.764-0.37-0.985-0.632
	c-1.518-1.373-1.861-4.395-2.567-6.908c-0.192-0.71-0.418-1.363-0.743-1.91c-0.153-0.285-0.319-0.575-0.498-0.872
	c-2.35-4.115-6.622-9.01-9.926-12.938c-0.341-0.323-0.679-0.634-1.011-0.933c-7.449-6.652-12.201-6.768-12.9-17.996
	c-0.013-0.206-0.029-0.535-0.039-0.751c-0.01-0.216-0.015-0.554-0.022-0.78c0.153-4.434,3.302-7.786,5.535-11.199
	c0.653-0.982,1.084-1.804,1.339-2.529c0.155-0.502,0.129-1.195,0.06-1.605c-0.308-1.772-2.057-3.374-3.623-6.693
	c-0.011-0.47-1.032-6.009,0.878-10.05c1.54-3.259,3.154-4.519,4.956-5.886c1.249-0.954,2.567-1.93,3.981-3.634
	c1.6-1.925,1.664-3.25,1.456-4.592c-0.38-1.111-0.948-2.271-0.976-3.83c0.008-0.287-0.046-0.705-0.054-0.968
	c-0.009-0.286-0.067-0.706-0.094-0.967c-0.446-3.762-2.291-5.754-3.515-9.871c-1.324-5.71,1.221-9.93,5.901-13.644
	c3.103-2.446,7.653-1.091,9.961-3.899c0.914-2.093,1.055-3.898,1.45-5.631c0.314-1.413,0.779-2.752,1.952-4.142
	c0.529-0.778,1.237-1.577,2.19-2.409c2.618-2.426,6.944-4.355,10.798-6.719c2.797-1.711,5.244-3.601,6.37-6.106
	c0.134-0.291,0.234-0.592,0.307-0.9c0.238-2.689-1.142-5.92-0.078-8.327c1.083-2.475,3.995-3.436,5.998-4.627
	c2.401-1.47,4.326-2.885,6.98-3.258c0.149-0.014,0.298-0.027,0.447-0.041c2.291-0.207,3.696,0.678,5.916,0.64
	c0.095-0.004,0.19-0.009,0.285-0.013c0.159-0.014,0.313-0.03,0.462-0.049c5.154-0.418,3.927-5.054,5.833-8.007
	c0.057-0.13,0.118-0.258,0.185-0.382c0.126-0.236,0.271-0.461,0.439-0.674c1.782-2.294,6.377-3.912,10.337-4.2
	c1.817-0.126,3.515,0.022,4.708,0.526c0.722-0.238,5.291,4.255,9.292,7.115c1.444,0.998,2.822,1.803,3.951,2.143
	c0.877,0.275,1.792,0.429,2.704,0.464c2.578,0.102,5.098-0.66,7.268-1.517c0.059-0.042,0.118-0.083,0.176-0.125
	c0.478-0.341,0.94-0.687,1.382-1.027c9.019-5.658,1.371-15.004,12.514-17.36c0.814-0.174,1.714-0.309,2.713-0.404
	C196.123,58.275,196.795,58.229,197.467,58.229"/>
<g>
	<path class="st1" d="M197.737,68.052c7.872,0,10.56,7.488,15.216,12.864c2.88,3.312,3.888,7.92,8.784,9.024
		c5.76,1.344,8.448-1.008,12.768,3.936c3.456,3.936,5.808,5.472,6.912,10.704c0.72,3.408-0.48,3.264,2.832,3.552
		c0.192,0,0.336,0,0.528,0c1.44,0,2.64-0.528,4.08-0.528c0.624,0,1.296,0.096,2.064,0.384c5.52,2.64,11.472,9.024,14.304,14.352
		c1.008,2.352,0.192,4.512,0.864,6.72c5.856,11.04,39.744,6.144,28.272,34.992c-3.888,16.032-11.712,12.432-11.664,19.968
		c0.144,4.272,1.488,3.36,4.464,5.28c4.464,2.736,2.928,8.256,8.496,9.36c6.816,1.776,6.288,6.192,9.744,10.848
		c10.464,6.816,5.328,10.224,12.192,17.088c7.824,5.76,15.744,19.344,14.208,29.184c-2.208,6-7.392,7.344-13.2,7.344
		c-4.896,0-10.272-0.96-14.736-0.96c-1.248,0-2.448,0.096-3.504,0.288c-2.544,0.72-4.464,2.64-7.2,3.12
		c-15.12,0.48-10.992-0.144-26.448,6.864c-13.824,6.288-7.536,9.744-18.432,12.192c-0.816,0.096-1.632,0.144-2.352,0.144
		c-7.824,0-10.896-5.76-14.352-12.336c-3.216-6.144-7.68-4.656-12.288-9.312c-1.68-1.68-3.456-5.328-4.896-5.328
		c-0.672,0-1.296,0.768-1.776,2.88c-2.976,12.672,15.936,24.96,5.424,36.624c-2.208,2.448-5.904,3.168-7.488,5.952
		c-1.296,2.256-0.48,4.704-2.208,7.104c-4.896,6.672-18.288,11.376-25.968,12.816c-0.48-0.048-0.96-0.048-1.44-0.048
		c-7.44,0-17.568,4.224-25.632,4.224c-5.568,0-10.128-1.968-12.288-8.64c-3.888-13.344,10.176-35.856-6.672-43.824
		c-5.808-2.736-12.48-4.224-18.96-4.224c-3.84,0-7.632,0.528-11.184,1.632c-1.68,0.528-3.312,0.864-4.8,0.864
		c-2.784,0-5.136-1.2-6.432-4.848c-1.152-3.168-1.68-8.976,0.72-11.28c2.256-2.112,8.016-3.024,11.04-4.224
		c4.896-1.872,13.104-0.48,13.728-3.12c1.152-4.896-2.064-6.048-6.192-6.048c-3.552,0-7.728,0.816-10.464,0.816
		c-1.104,0-1.968-0.144-2.4-0.528c-2.064-1.728-1.632-6.432-2.64-8.736c-1.92-4.512-6.24-10.032-9.456-13.728
		c-8.352-7.44-14.16-4.896-14.592-18.768c0.144-4.176,3.504-7.248,5.76-10.512c3.36-4.8,0.24-5.232-2.544-10.176
		c0,0-1.2-5.664,0.816-9.6c2.784-5.52,5.664-4.512,9.168-8.64c2.976-3.504,0.096-4.848,0.192-8.304
		c0.144-5.28-2.208-6.72-3.84-11.184c-1.536-5.664,1.152-9.504,5.904-12.768c3.216-2.256,7.968-0.192,10.032-2.88
		c1.728-4.752-1.008-7.92,4.464-12.192c4.608-3.792,14.64-5.808,16.608-11.952c0.864-2.736-1.392-6.432-0.288-8.928
		c1.008-2.304,4.032-2.976,6-3.984c2.352-1.248,4.128-2.544,6.768-2.736c0.144,0,0.288,0,0.432,0c2.208,0,3.456,1.152,5.76,1.2
		c0.096,0,0.192,0,0.288,0c6.672,0,3.168-6.24,5.568-9.312c1.536-2.016,6.144-3.408,9.984-3.408c1.776,0,3.408,0.288,4.464,0.96
		c0,0,7.92,9.504,11.76,10.848c0.816,0.288,1.68,0.432,2.544,0.432c3.072,0,6.096-1.68,8.4-3.264
		c9.984-5.616-2.16-16.56,12.768-18.048C196.489,68.1,197.113,68.052,197.737,68.052"/>
</g>
<path class="st1" d="M197.647,64.778L197.647,64.778c7.358,0,10.511,6.184,14.694,11.451c0.384,0.483,0.775,0.958,1.179,1.418
	c2.122,2.409,3.301,5.448,5.501,7.443c0.652,0.598,1.394,1.113,2.258,1.476c0.381,0.166,0.787,0.308,1.221,0.424
	c0.433,0.12,0.849,0.219,1.249,0.303c4.938,0.778,7.718-0.757,11.844,3.844c1.708,1.902,3.17,3.285,4.365,4.813
	c0.363,0.465,0.702,0.941,1.017,1.45c0.769,1.246,1.396,2.692,1.861,4.637c0.171,0.733,0.257,1.311,0.319,1.771
	c0.072,0.517,0.11,0.864,0.219,1.105c0.081,0.224,0.277,0.369,0.584,0.454c0.175,0.049,0.449,0.107,0.745,0.14
	c0.314,0.044,0.695,0.085,1.159,0.136c0.194,0.005,0.343,0.011,0.537,0.016c1.464,0.044,2.695-0.419,4.153-0.362
	c0.638,0.025,1.322,0.147,2.096,0.452c5.711,2.85,11.738,9.393,14.624,14.822c0.111,0.26,0.223,0.562,0.293,0.817
	c0.077,0.28,0.151,0.604,0.19,0.879c0.142,0.903,0.129,1.785,0.154,2.66c0.009,0.135,0.02,0.27,0.032,0.404
	c0.057,0.658,0.158,1.314,0.393,1.975c4.424,7.624,22.363,7.814,28.774,17.45c2.719,4.092,3.342,9.825,0.022,18.446
	c-1.29,5.428-3.043,8.704-4.82,10.974c-3.369,4.231-6.729,4.547-6.793,9.507c0.28,4.19,1.683,3.416,4.631,5.36
	c3.073,1.956,3.401,5.161,5.021,7.362c0.794,1.024,1.865,1.843,3.615,2.236c6.798,1.966,6.413,6.465,9.814,11.184
	c9.751,6.419,6.222,10.03,11.424,16.273c0.331,0.399,0.697,0.81,1.104,1.233c5.598,4.373,11.238,12.814,13.223,21.039
	c0.157,0.578,0.277,1.272,0.394,1.845c0.12,0.588,0.177,1.284,0.252,1.863c0.185,1.858,0.147,3.66-0.158,5.353
	c-2.299,6.065-7.535,7.592-13.435,7.745c-4.924,0.106-10.332-0.754-14.898-0.734c-1.265,0.005-2.486,0.099-3.571,0.284
	c-2.589,0.691-4.571,2.525-7.327,2.974c-0.908,0.023-1.75,0.043-2.532,0.061c-1.309,0.031-2.456,0.056-3.47,0.085
	c-4.735,0.222-6.6,0.521-9.781,1.794c-0.438,0.182-0.988,0.401-1.494,0.63c-0.43,0.194-0.974,0.409-1.471,0.641
	c-0.874,0.381-1.843,0.814-2.944,1.308c-1.473,0.641-3.178,1.383-5.128,2.246c-1.448,0.657-2.719,1.305-3.808,1.92
	c-3.212,1.827-4.807,3.397-6.023,4.771c-0.649,0.744-1.149,1.419-1.708,2.031c-0.003,0.003-0.006,0.007-0.009,0.01
	c-1.267,1.421-2.928,2.59-7.127,3.605c-0.814,0.118-1.63,0.193-2.356,0.213c-6.118,0.167-9.443-3.215-12.448-7.706
	c-0.185-0.316-0.429-0.625-0.611-0.951c-0.181-0.324-0.422-0.645-0.601-0.977c-0.37-0.609-0.738-1.231-1.11-1.862
	c-0.56-0.967-1.152-1.737-1.771-2.37c-2.067-2.142-4.448-2.701-6.959-3.962c-1.227-0.544-2.493-1.262-3.775-2.44
	c-0.716-0.631-1.451-1.599-2.175-2.5c-0.984-1.247-1.941-2.374-2.789-2.33c-0.574,0.03-1.116,0.572-1.571,1.941
	c-0.09,0.285-0.176,0.603-0.259,0.957c-0.611,2.534-0.406,5.064,0.216,7.579c0.009,0.031,0.016,0.067,0.025,0.098
	c0.009,0.031,0.016,0.067,0.025,0.098c2.588,10.009,11.901,19.59,3.409,28.68c-2.295,2.419-6.009,3.163-7.67,5.875
	c-1.423,2.216-0.778,4.594-2.503,6.911c-0.657,0.895-1.643,1.786-2.581,2.604c-0.689,0.601-1.582,1.167-2.388,1.723
	c-2.322,1.552-5.162,2.968-8.014,4.161c-4.68,1.962-9.588,3.36-13.289,4.043c-0.482-0.043-0.965-0.04-1.447-0.038
	c-2.178,0.012-4.576,0.361-7.082,0.845c-6.174,1.186-12.958,3.168-18.707,3.051c-5.576-0.107-10.156-2.148-12.395-8.746
	c-1.504-4.791-0.751-10.755,0.096-16.835c0.021-0.13,0.036-0.278,0.057-0.408c0.021-0.13,0.037-0.278,0.058-0.409
	c1.481-10.611,3.017-21.322-7.026-26.503c-0.744-0.394-1.503-0.766-2.274-1.115c-1.899-0.849-3.87-1.587-5.886-2.169
	c-2.323-0.556-4.698-0.928-7.066-1.104c-1.135-0.084-2.269-0.123-3.393-0.115c-0.849,0.006-1.694,0.039-2.531,0.099
	c-2.993,0.219-5.927,0.739-8.718,1.582c-1.689,0.516-3.331,0.844-4.834,0.844c-2.838,0-5.254-1.176-6.647-4.723
	c-1.316-3.105-2.013-8.788,0.129-11.143c2.006-2.168,7.404-3.22,10.21-4.577c0.85-0.385,1.812-0.664,2.819-0.882
	c4.426-0.9,9.696-0.611,10.172-2.884c0.228-1.029,0.275-1.901,0.171-2.639c-0.394-2.78-2.963-3.581-6.064-3.746
	c-3.357-0.179-7.273,0.381-9.803,0.26c-0.463-0.022-0.879-0.067-1.231-0.15c-0.453-0.109-0.811-0.27-1.043-0.498
	c-1.556-1.337-1.752-4.38-2.265-6.815c-0.15-0.732-0.331-1.403-0.598-1.948c-0.135-0.292-0.281-0.588-0.437-0.888
	c-2.166-4.258-6.236-9.255-9.342-12.867c-0.34-0.31-0.677-0.604-1.008-0.885c-7.488-6.319-12.57-5.407-13.31-16.956
	c-0.015-0.225-0.029-0.495-0.04-0.73c-0.011-0.235-0.019-0.515-0.027-0.761c0.147-4.262,3.437-7.427,5.685-10.741
	c0.663-0.964,1.082-1.759,1.306-2.454c0.169-0.548,0.182-1.111,0.106-1.559c-0.302-1.771-2.151-3.185-3.85-6.381
	c-0.004-0.157-1.144-5.779,0.837-9.75c1.611-3.263,3.269-4.337,5.085-5.533c1.256-0.829,2.58-1.708,4.006-3.4
	c1.618-1.919,1.557-3.207,1.201-4.536c-0.365-1.102-0.933-2.243-0.913-3.808c0.009-0.313-0.01-0.66-0.019-0.946
	c-0.01-0.311-0.043-0.658-0.072-0.942c-0.408-3.812-2.335-5.539-3.691-9.504c-1.465-5.679,1.175-9.646,5.903-13.06
	c3.178-2.319,7.863-0.492,10.008-3.22c0.825-2.128,0.785-3.944,1.001-5.686c0.174-1.424,0.512-2.789,1.626-4.229
	c0.527-0.733,1.241-1.486,2.213-2.274c2.636-2.26,7.033-3.964,10.763-6.167c2.747-1.621,5.097-3.496,6.031-6.076
	c0.108-0.298,0.18-0.607,0.223-0.925c0.23-2.629-1.348-5.82-0.339-8.103c1.033-2.361,4.02-3.129,5.999-4.198
	c2.368-1.322,4.194-2.658,6.839-2.91c0.146-0.005,0.291-0.009,0.437-0.014c2.236-0.069,3.536,0.994,5.812,1.013
	c0.096-0.001,0.191-0.003,0.287-0.004c0.155-0.005,0.305-0.012,0.449-0.023c5.35-0.304,3.547-5.101,4.987-8.197
	c0.051-0.127,0.107-0.252,0.168-0.373c0.116-0.229,0.253-0.448,0.413-0.653c1.618-2.109,6.222-3.576,10.102-3.672
	c1.79-0.042,3.444,0.199,4.545,0.815c0.241-0.079,4.664,4.899,8.542,8.019c1.37,1.089,2.674,1.953,3.712,2.299
	c0.836,0.284,1.717,0.431,2.597,0.443c2.475,0.034,4.911-0.917,6.99-2.015c0.059-0.038,0.118-0.075,0.177-0.113
	c0.479-0.309,0.939-0.625,1.375-0.937c9.235-5.39-0.005-15.12,10.982-17.553c0.77-0.171,1.634-0.306,2.605-0.401
	C196.367,64.825,197.007,64.778,197.647,64.778"/>
<path class="st1" d="M197.557,61.503L197.557,61.503c7.505,0,10.95,6.084,15.307,11.43c0.4,0.491,0.807,0.974,1.224,1.444
	c2.211,2.48,3.469,5.573,5.674,7.623c0.666,0.631,1.42,1.185,2.275,1.564c0.385,0.182,0.793,0.342,1.227,0.475
	c0.434,0.139,0.85,0.258,1.25,0.36c4.951,0.769,7.911-0.633,12.168,3.996c1.746,1.902,3.256,3.326,4.51,4.913
	c0.374,0.475,0.727,0.961,1.058,1.48c0.804,1.265,1.483,2.736,2.008,4.703c0.188,0.734,0.294,1.32,0.377,1.795
	c0.095,0.504,0.157,0.845,0.287,1.086c0.078,0.215,0.316,0.372,0.61,0.454c0.168,0.047,0.479,0.126,0.763,0.158
	c0.325,0.053,0.714,0.105,1.182,0.166c0.197,0.011,0.35,0.021,0.546,0.032c1.488,0.088,2.751-0.309,4.227-0.195
	c0.653,0.05,1.347,0.198,2.129,0.521c5.902,3.06,12.005,9.761,14.945,15.292c0.107,0.249,0.238,0.585,0.305,0.83
	c0.073,0.268,0.165,0.626,0.202,0.89c0.158,0.917,0.164,1.813,0.203,2.7c0.017,0.132,0.035,0.265,0.054,0.396
	c0.091,0.644,0.227,1.287,0.493,1.935c4.733,7.488,22.648,7.981,29.14,17.99c2.761,4.267,3.412,10.14,0.181,18.81
	c-1.263,5.428-3.003,8.802-4.796,11.221c-3.299,4.318-6.607,4.838-6.766,9.773c0.415,4.109,1.878,3.472,4.797,5.441
	c3.096,2.043,3.503,5.283,5.115,7.514c0.834,1.041,1.925,1.885,3.66,2.322c6.78,2.156,6.537,6.738,9.883,11.52
	c9.66,6.426,6.56,10.253,11.758,16.646c0.333,0.413,0.7,0.839,1.106,1.278c5.56,4.597,11.153,13.269,12.958,21.774
	c0.151,0.554,0.246,1.341,0.359,1.89c0.115,0.563,0.127,1.347,0.198,1.902c0.136,1.893,0.049,3.727-0.303,5.449
	c-2.389,6.129-7.677,7.84-13.67,8.147c-4.952,0.211-10.392-0.548-15.059-0.508c-1.282,0.01-2.524,0.103-3.637,0.279
	c-2.633,0.662-4.679,2.409-7.454,2.828c-0.917,0.018-1.769,0.033-2.563,0.045c-1.319,0.023-2.484,0.041-3.512,0.065
	c-4.66,0.275-6.621,0.637-9.887,1.894c-0.42,0.174-1.034,0.399-1.52,0.619c-0.412,0.186-1.022,0.395-1.499,0.617
	c-0.901,0.367-1.888,0.784-2.997,1.259c-1.531,0.617-3.288,1.333-5.215,2.164c-1.433,0.649-2.737,1.31-3.859,1.936
	c-3.178,1.798-4.829,3.36-6.151,4.748c-0.691,0.745-1.211,1.414-1.767,2.013c-0.003,0.003-0.006,0.007-0.009,0.01
	c-1.298,1.471-2.985,2.7-7.132,3.774c-0.812,0.139-1.627,0.243-2.359,0.283c-6.049,0.331-9.486-2.831-12.714-7.057
	c-0.177-0.303-0.475-0.584-0.649-0.897c-0.173-0.31-0.469-0.61-0.64-0.928c-0.395-0.578-0.789-1.171-1.186-1.773
	c-0.591-0.923-1.213-1.659-1.859-2.265c-2.131-2.053-4.559-2.604-7.104-3.843c-1.218-0.448-2.478-1.064-3.759-2.123
	c-0.724-0.554-1.47-1.432-2.206-2.248c-0.993-1.139-1.962-2.172-2.824-2.084c-0.589,0.06-1.145,0.611-1.618,1.95
	c-0.091,0.289-0.18,0.611-0.266,0.967c-0.629,2.543-0.496,5.093,0.01,7.63c0.009,0.03,0.012,0.069,0.021,0.099
	c0.009,0.03,0.012,0.069,0.021,0.099c2.129,10.07,10.496,19.559,1.876,28.459c-2.383,2.39-6.114,3.158-7.851,5.798
	c-1.55,2.176-1.075,4.485-2.798,6.718c-0.63,0.858-1.75,1.744-2.65,2.528c-0.661,0.576-1.658,1.104-2.431,1.637
	c-2.305,1.491-5.235,2.897-8.107,4.073c-4.688,1.928-9.611,3.32-13.389,4.005c-0.485-0.038-0.97-0.033-1.455-0.028
	c-2.199,0.025-4.611,0.367-7.129,0.831c-6.242,1.136-13.043,2.971-18.817,2.737c-5.584-0.213-10.183-2.328-12.502-8.851
	c-1.612-4.789-1.024-10.745-0.301-16.846c0.02-0.125,0.029-0.284,0.049-0.409c0.02-0.125,0.03-0.284,0.05-0.409
	c1.273-10.673,2.804-21.437-6.755-26.822c-0.706-0.421-1.427-0.819-2.159-1.195c-1.805-0.905-3.676-1.728-5.595-2.388
	c-2.338-0.561-4.73-0.933-7.11-1.102c-1.144-0.081-2.285-0.114-3.415-0.099c-0.855,0.012-1.704,0.053-2.543,0.121
	c-3.013,0.255-5.963,0.784-8.771,1.608c-1.699,0.505-3.35,0.823-4.869,0.823c-2.891,0-5.372-1.152-6.862-4.598
	c-1.479-3.042-2.346-8.599-0.462-11.005c1.757-2.225,6.791-3.416,9.379-4.93c0.789-0.423,1.688-0.745,2.633-1.01
	c4.171-1.059,9.177-1.003,9.621-3.4c0.216-1.036,0.26-1.922,0.161-2.679c-0.375-2.833-2.822-3.713-5.755-4.044
	c-3.168-0.357-6.816-0.055-9.141-0.297c-0.428-0.045-0.812-0.105-1.135-0.203c-0.44-0.136-0.788-0.32-1.014-0.565
	c-1.537-1.355-1.806-4.387-2.416-6.862c-0.171-0.721-0.375-1.383-0.67-1.929c-0.144-0.288-0.3-0.582-0.467-0.88
	c-2.258-4.186-6.429-9.132-9.634-12.903c-0.341-0.316-0.678-0.619-1.01-0.909c-7.469-6.486-12.385-6.087-13.105-17.476
	c-0.014-0.216-0.029-0.515-0.04-0.741c-0.011-0.226-0.017-0.535-0.024-0.77c0.15-4.348,3.369-7.607,5.61-10.97
	c0.658-0.973,1.083-1.782,1.322-2.491c0.162-0.525,0.156-1.153,0.083-1.582c-0.305-1.771-2.104-3.28-3.736-6.537
	c-0.007-0.313-1.088-5.894,0.857-9.9c1.575-3.261,3.212-4.428,5.021-5.709c1.253-0.892,2.574-1.819,3.994-3.517
	c1.609-1.922,1.611-3.228,1.328-4.564c-0.372-1.106-0.94-2.257-0.944-3.819c0.008-0.3-0.028-0.682-0.036-0.957
	c-0.009-0.299-0.055-0.682-0.083-0.954c-0.427-3.787-2.313-5.646-3.603-9.687c-1.395-5.695,1.198-9.788,5.902-13.352
	c3.141-2.383,7.758-0.791,9.985-3.56c0.87-2.11,0.92-3.921,1.226-5.659c0.244-1.418,0.645-2.771,1.789-4.186
	c0.528-0.755,1.239-1.531,2.201-2.341c2.627-2.343,6.988-4.16,10.781-6.443c2.772-1.666,5.17-3.548,6.201-6.091
	c0.121-0.295,0.207-0.6,0.265-0.912c0.234-2.659-1.245-5.87-0.209-8.215c1.058-2.418,4.007-3.282,5.999-4.413
	c2.385-1.396,4.26-2.772,6.909-3.084c0.147-0.009,0.295-0.018,0.442-0.027c2.263-0.138,3.616,0.836,5.864,0.827
	c0.095-0.003,0.191-0.006,0.286-0.009c0.157-0.009,0.309-0.021,0.455-0.036c5.252-0.361,3.737-5.077,5.41-8.102
	c0.054-0.129,0.112-0.255,0.177-0.378c0.121-0.232,0.262-0.454,0.426-0.663c1.7-2.201,6.299-3.744,10.219-3.936
	c1.803-0.084,3.479,0.111,4.627,0.671c0.481-0.159,4.978,4.577,8.917,7.567c1.407,1.044,2.748,1.878,3.832,2.221
	c0.857,0.279,1.755,0.43,2.651,0.453c2.527,0.068,5.005-0.788,7.129-1.766c0.059-0.04,0.118-0.079,0.177-0.119
	c0.479-0.325,0.94-0.656,1.379-0.982c9.127-5.524,0.683-15.062,11.748-17.456c0.792-0.172,1.674-0.307,2.659-0.402
	C196.245,61.55,196.901,61.503,197.557,61.503"/>
<path class="st1" d="M197.467,58.229L197.467,58.229c7.651,0,11.389,5.984,15.92,11.409c0.417,0.499,0.838,0.991,1.268,1.471
	c2.3,2.552,3.637,5.699,5.847,7.803c0.68,0.665,1.446,1.257,2.292,1.653c0.39,0.198,0.799,0.375,1.233,0.526
	c0.435,0.158,0.852,0.296,1.252,0.418c4.963,0.76,8.103-0.508,12.492,4.149c1.784,1.902,3.343,3.366,4.654,5.013
	c0.385,0.485,0.751,0.981,1.098,1.51c0.839,1.285,1.57,2.779,2.155,4.77c0.204,0.734,0.33,1.329,0.434,1.82
	c0.118,0.49,0.204,0.826,0.355,1.067c0.074,0.206,0.356,0.376,0.637,0.455c0.16,0.045,0.51,0.145,0.782,0.176
	c0.336,0.063,0.732,0.125,1.205,0.195c0.199,0.016,0.356,0.031,0.556,0.048c1.512,0.128,2.806-0.198,4.3-0.029
	c0.667,0.076,1.373,0.249,2.161,0.589c6.093,3.27,12.271,10.13,15.265,15.762c0.102,0.238,0.254,0.607,0.318,0.842
	c0.07,0.257,0.179,0.649,0.215,0.902c0.174,0.931,0.199,1.84,0.253,2.74c0.025,0.13,0.051,0.259,0.077,0.388
	c0.126,0.63,0.296,1.259,0.593,1.895c5.041,7.352,22.933,8.149,29.505,18.53c2.803,4.443,3.481,10.456,0.339,19.173
	c-1.237,5.428-2.962,8.901-4.771,11.467c-3.228,4.405-6.484,5.129-6.739,10.039c0.551,4.027,2.073,3.528,4.964,5.521
	c3.119,2.13,3.605,5.406,5.21,7.666c0.873,1.058,1.985,1.928,3.705,2.407c6.762,2.346,6.662,7.012,9.953,11.856
	c9.568,6.434,6.899,10.476,12.092,17.019c0.335,0.428,0.703,0.869,1.108,1.324c5.523,4.821,11.068,13.723,12.693,22.508
	c0.144,0.53,0.216,1.411,0.323,1.936c0.11,0.539,0.077,1.41,0.145,1.94c0.087,1.929-0.049,3.795-0.447,5.546
	c-2.48,6.194-7.82,8.088-13.904,8.548c-4.98,0.317-10.452-0.342-15.221-0.282c-1.299,0.014-2.562,0.106-3.704,0.275
	c-2.678,0.634-4.786,2.294-7.58,2.682c-0.926,0.013-1.788,0.022-2.594,0.03c-1.329,0.016-2.511,0.026-3.553,0.045
	c-4.585,0.329-6.642,0.752-9.992,1.995c-0.401,0.167-1.08,0.398-1.545,0.608c-0.394,0.178-1.071,0.38-1.526,0.593
	c-0.929,0.353-1.934,0.754-3.049,1.209c-1.589,0.594-3.397,1.282-5.302,2.082c-1.418,0.641-2.756,1.316-3.909,1.953
	c-3.143,1.768-4.852,3.324-6.279,4.725c-0.733,0.745-1.272,1.409-1.827,1.995c-0.003,0.004-0.006,0.007-0.009,0.011
	c-1.33,1.52-3.043,2.81-7.136,3.943c-0.81,0.161-1.624,0.291-2.363,0.352c-5.979,0.49-9.529-2.447-12.979-6.408
	c-0.17-0.29-0.52-0.544-0.687-0.843c-0.165-0.297-0.516-0.576-0.68-0.88c-0.42-0.548-0.84-1.111-1.261-1.684
	c-0.623-0.879-1.273-1.581-1.947-2.161c-2.195-1.964-4.669-2.507-7.25-3.724c-1.209-0.351-2.463-0.865-3.742-1.805
	c-0.732-0.477-1.488-1.265-2.237-1.995c-1.003-1.031-1.983-1.97-2.86-1.838c-0.604,0.091-1.175,0.65-1.664,1.959
	c-0.093,0.294-0.185,0.618-0.274,0.977c-0.648,2.552-0.585,5.123-0.197,7.681c0.009,0.029,0.008,0.071,0.016,0.099
	s0.008,0.071,0.017,0.099c1.671,10.131,9.091,19.528,0.342,28.238c-2.47,2.361-6.218,3.153-8.033,5.72
	c-1.677,2.136-1.373,4.375-3.094,6.525c-0.602,0.821-1.858,1.703-2.719,2.453c-0.632,0.551-1.735,1.041-2.474,1.551
	c-2.288,1.43-5.308,2.827-8.199,3.985c-4.695,1.894-9.633,3.28-13.49,3.968c-0.487-0.033-0.975-0.025-1.462-0.018
	c-2.22,0.037-4.647,0.372-7.177,0.816c-6.311,1.087-13.129,2.774-18.927,2.423c-5.592-0.32-10.211-2.508-12.608-8.957
	c-1.721-4.788-1.297-10.734-0.699-16.857c0.019-0.119,0.022-0.29,0.041-0.409c0.019-0.12,0.023-0.29,0.043-0.41
	c1.065-10.734,2.591-21.552-6.485-27.141c-0.669-0.447-1.351-0.872-2.045-1.274c-1.712-0.961-3.481-1.87-5.304-2.608
	c-2.352-0.566-4.762-0.938-7.154-1.1c-1.153-0.077-2.302-0.105-3.436-0.082c-0.861,0.018-1.714,0.066-2.555,0.144
	c-3.033,0.291-5.998,0.829-8.825,1.635c-1.708,0.493-3.37,0.803-4.903,0.803c-2.945,0-5.49-1.127-7.076-4.473
	c-1.643-2.979-2.679-8.411-1.053-10.868c1.507-2.281,6.179-3.611,8.549-5.283c0.729-0.46,1.564-0.826,2.447-1.139
	c3.915-1.218,8.658-1.395,9.07-3.917c0.203-1.044,0.244-1.943,0.15-2.719c-0.357-2.886-2.686-3.846-5.445-4.341
	c-2.984-0.536-6.357-0.492-8.48-0.853c-0.393-0.067-0.745-0.142-1.038-0.256c-0.427-0.163-0.764-0.37-0.985-0.632
	c-1.518-1.373-1.861-4.395-2.567-6.908c-0.192-0.71-0.418-1.363-0.743-1.91c-0.153-0.285-0.319-0.575-0.498-0.872
	c-2.35-4.115-6.622-9.01-9.926-12.938c-0.341-0.323-0.679-0.634-1.011-0.933c-7.449-6.652-12.201-6.768-12.9-17.996
	c-0.013-0.206-0.029-0.535-0.039-0.751c-0.01-0.216-0.015-0.554-0.022-0.78c0.153-4.434,3.302-7.786,5.535-11.199
	c0.653-0.982,1.084-1.804,1.339-2.529c0.155-0.502,0.129-1.195,0.06-1.605c-0.308-1.772-2.057-3.374-3.623-6.693
	c-0.011-0.47-1.032-6.009,0.878-10.05c1.54-3.259,3.154-4.519,4.956-5.886c1.249-0.954,2.567-1.93,3.981-3.634
	c1.6-1.925,1.664-3.25,1.456-4.592c-0.38-1.111-0.948-2.271-0.976-3.83c0.008-0.287-0.046-0.705-0.054-0.968
	c-0.009-0.286-0.067-0.706-0.094-0.967c-0.446-3.762-2.291-5.754-3.515-9.871c-1.324-5.71,1.221-9.93,5.901-13.644
	c3.103-2.446,7.653-1.091,9.961-3.899c0.914-2.093,1.055-3.898,1.45-5.631c0.314-1.413,0.779-2.752,1.952-4.142
	c0.529-0.778,1.237-1.577,2.19-2.409c2.618-2.426,6.944-4.355,10.798-6.719c2.797-1.711,5.244-3.601,6.37-6.106
	c0.134-0.291,0.234-0.592,0.307-0.9c0.238-2.689-1.142-5.92-0.078-8.327c1.083-2.475,3.995-3.436,5.998-4.627
	c2.401-1.47,4.326-2.885,6.98-3.258c0.149-0.014,0.298-0.027,0.447-0.041c2.291-0.207,3.696,0.678,5.916,0.64
	c0.095-0.004,0.19-0.009,0.285-0.013c0.159-0.014,0.313-0.03,0.462-0.049c5.154-0.418,3.927-5.054,5.833-8.007
	c0.057-0.13,0.118-0.258,0.185-0.382c0.126-0.236,0.271-0.461,0.439-0.674c1.782-2.294,6.377-3.912,10.337-4.2
	c1.817-0.126,3.515,0.022,4.708,0.526c0.722-0.238,5.291,4.255,9.292,7.115c1.444,0.998,2.822,1.803,3.951,2.143
	c0.877,0.275,1.792,0.429,2.704,0.464c2.578,0.102,5.098-0.66,7.268-1.517c0.059-0.042,0.118-0.083,0.176-0.125
	c0.478-0.341,0.94-0.687,1.382-1.027c9.019-5.658,1.371-15.004,12.514-17.36c0.814-0.174,1.714-0.309,2.713-0.404
	C196.123,58.275,196.795,58.229,197.467,58.229"/>
</svg>
