<svg version="1.1" id="Livello_2" xmlns:x="&ns_extend;" xmlns:i="&ns_ai;" xmlns:graph="&ns_graphs;"
	 xmlns="http://www.w3.org/2000/svg" xmlns:xlink="http://www.w3.org/1999/xlink" x="0px" y="0px" viewBox="0 0 907.1 907.1"
	 style="enable-background:new 0 0 907.1 907.1;" xml:space="preserve">
<style type="text/css">
	.st0{fill:none;stroke:#000000;stroke-miterlimit:10;}
</style>
<metadata>
	<sfw  xmlns="&ns_sfw;">
		<slices></slices>
		<sliceSourceBounds  bottomLeftOrigin="true" height="614.5" width="774.2" x="67.8" y="148"></sliceSourceBounds>
	</sfw>
</metadata>
<path id="line-1" class="st0" d="M445.4,393c1.6,0,2.7,1.3,4.3,1.3c0.1,0,0.3,0,0.5,0c1.1-0.2,2-0.5,2.9-0.5
	c0.8,0,1.6,0.3,2.5,1.5c2.1,3.7-0.7,8.9,3.4,8.9c0.6,0,1.4-0.1,2.4-0.4c1.2,0.2,1.8,0.7,2.5,0.7c0.4,0,0.8-0.2,1.3-0.7
	c2.5-2.4,0.4-6.1,4.6-7.2c4.7-0.5,6.5,0.7,11.1-2.3c1.1-0.7,2.2-1,3.3-1c3.1,0,6,2.7,8.3,5.2c3.6,1.6,3,6.5,6.9,7.7
	c0.3,0,0.5,0.1,0.7,0.1c5.6,0,6.3-9.3,12.1-9.3c1.6,0,3.5,0.7,6.1,2.4c15.5,11.1,20.6,16.6,16.6,36.6c-0.5,9.6,6.2,25.7-6.8,29.6
	c-2.2,1-2.6,2-3.9,4.1c-3.2,5.2-7.9,6.8-13.4,8.2c-4.9,1.3-9.2,5.4-13.7,7.5c-12.1,5.7-23.4,5.8-34.5,14.5
	c-6.2,4.8-13.8,4.1-21.5,4.9c-6,0.6-11.4,3.3-17.5,3.3c-0.6,0-1.3,0-1.9-0.1c-1.1-0.1-2.2-0.5-3.3-0.5c-0.5,0-1,0.1-1.4,0.3
	c-3.8,3.8-10,5-15.8,5c-2,0-4-0.1-5.8-0.4c0,0,0,0-0.1,0c-6,0-23.1-19-13.2-21.7c3.5-0.5,3.4-0.4,1.1-3.3
	c-6.8-9.7,10.3-10.2,7.6-18.2c-2.6-4.8,3.6-8.8,1.5-13.6c-1.1-1-2.4-1.3-3.8-1.3c-2.3,0-4.9,0.8-6.9,0.8c-3.1,0-4.9-2-2.2-12.5
	c0.3-3.1-1.5-4.1-3.3-6.3c-2.4-2.9-4.9-11-0.3-13c5.7-0.5,3.8-1.3,6.7-5.2c1.7-1.6,4.3-0.9,5.7-2.3c2.3-2.4,1.2-8,3.1-10.8
	c1.4-2.2,4-3.9,6.5-3.9c1.1,0,2.2,0.3,3.1,1c1.7,2.2,2.7,2.9,3.5,2.9c1.1,0,1.8-1.2,3.1-1.2c0.5,0,1.1,0.2,1.9,0.7
	c1.1,1.2,1,1.7,1.9,1.7c0.3,0,0.7-0.1,1.3-0.2c4-1.5,8-1.7,12.2-1.7c1.7,0,3.5,0,5.3,0c0.3,0,0.5,0,0.8,0c7,0,8.6-7.7,13.5-10.8
	C444.6,393.1,445,393,445.4,393"/>
<path id="line-2" class="st0" d="M444.6,384.5L444.6,384.5c1.8,0,3,1.3,4.7,1.3c0.2,0,0.3,0,0.5,0c0.8-0.1,1.4-0.3,2.1-0.4
	c0.4-0.1,0.7-0.1,1.1-0.1c0.9,0,1.8,0.3,2.8,1.5c2.4,3.7,0.1,8.9,4.5,9c0.1,0,0.4,0,0.5,0c0.6-0.1,1.3-0.2,2.1-0.4
	c0.5,0.1,1,0.2,1.3,0.3c0.5,0.2,0.9,0.3,1.3,0.3c0.4,0,0.9-0.2,1.4-0.7c2.8-2.5,1-6.1,5.4-7.2c1.6-0.2,2.9-0.2,4-0.2
	c2.6,0,4.7,0,8-2c1.2-0.7,2.4-1,3.6-0.9c0.7,0,1.4,0.2,2.1,0.4c2.1,0.7,4.2,2.4,6,4.1c0.4,0.3,0.7,0.6,1.1,1
	c3.4,1.3,3.7,5.1,6.5,6.8c0.4,0.2,0.8,0.4,1.4,0.6c0.3,0,0.5,0.1,0.8,0.1c6,0,7.2-8.9,13.5-8.6c1.6,0.1,3.6,0.8,6,2.3
	c0.1,0.1,0.2,0.1,0.3,0.2s0.2,0.1,0.3,0.2c11.1,8,17.7,13.5,19.9,22.9c1.1,4.8,1,10.5-0.3,17.9c0,0.3,0,0.5,0,0.8
	c0,4.2,0.8,9.3,1,14.4c0.1,0.9,0.1,1.9,0.2,2.8c0.2,6.6-1,12.8-7.9,15.7c-2.3,1.5-2.8,2.9-4.3,5.4c-0.6,1.1-1.3,2-2.1,2.9
	c-1.4,1.6-3,2.8-4.8,3.8c-0.1,0.1-0.3,0.2-0.4,0.2c-2.6,1.7-5.6,2.8-8.8,3.8c-3.6,1.1-6.8,3.1-10.1,5.1c-0.5,0.3-1.1,0.7-1.6,1
	c-1.2,0.8-2.5,1.5-3.8,2.2c-1.3,0.6-2.6,1.2-3.9,1.7c0,0,0,0,0,0s0,0,0,0c-5.2,2.1-10.3,3.5-15.2,5.1c-3.8,1.2-7.2,2.4-10.6,4.1
	c-3,1.5-6,3.3-9,5.5c-2.2,1.6-4.5,2.6-6.9,3.3c-3.6,1.1-7.4,1.3-11.2,1.5c-1.1,0.1-2.1,0.1-3.1,0.2c-0.9,0.1-2,0.2-3,0.3
	c-3.7,0.4-7.4,1.6-11.2,2.4c-2.9,0.8-5.9,1.5-9.1,1.6c-0.7,0-1.5,0-2.2,0c-1.3-0.1-2.6-0.5-3.9-0.5c-0.3,0-0.7,0-1,0.1
	c-0.2,0-0.5,0.1-0.7,0.2c-1.2,1-2.6,1.8-4.2,2.4c-3.7,1.5-8.1,2-12.5,1.7c-0.6,0-1.2-0.1-1.9-0.1c-2.3-0.2-4.5-0.6-6.6-1.1
	c-6.5-0.6-24-20.3-14.5-24.1c0.3-0.1,0.6-0.2,0.9-0.2c2.5-0.6,2.2-0.9,0.2-3.7c-1.1-1.8-1.6-3.3-1.5-4.6c0-2.9,2.4-4.9,4.8-6.9
	c2.8-2.4,5.7-4.8,4.6-8.8c-0.4-0.9-0.6-1.8-0.5-2.7c-0.3-4,3.4-7.8,1.5-12c-0.4-0.4-0.8-0.8-1.3-1c-0.8-0.4-1.6-0.6-2.5-0.7
	c-2.3-0.2-4.8,0.3-6.8,0.1c-0.7-0.1-1.3-0.3-1.9-0.6c-1.5-1.1-2.3-3.4-1.6-8.2c0.1-1.5,0.4-3.2,0.8-5.1c0.3-3.4-1.5-4.6-3.3-7
	c-1-1.5-2-3.9-2.4-6.4c-0.5-3.3-0.1-6.6,2.6-8c2.5-0.4,3.6-0.8,4.3-1.5c0.9-0.9,1.2-2.2,2.9-4.5c1.9-1.7,4.6-1.2,6.1-2.7
	c0.3-0.3,0.5-0.6,0.7-0.9c0.3-0.6,0.7-1.4,0.9-2.1c0.1-0.4,0.2-0.7,0.3-1.1c0.5-2.6,0.6-5.6,1.9-7.6c1.5-2.4,4.3-4.4,7.1-4.7
	c1.2-0.1,2.4,0.1,3.4,0.7c1.8,2,3,2.6,4,2.5c1.2-0.1,2.1-1.3,3.5-1.4c0.6,0,1.3,0.1,2.1,0.6c1.2,1.1,1.2,1.6,2.2,1.6
	c0.3,0,0.8-0.1,1.4-0.2c1.2-0.4,2.5-0.7,3.7-1c3.3-0.6,6.6-0.7,10-0.5c0.8,0,1.7,0.1,2.6,0.1c1.1,0,2.2,0.1,3.4,0.1
	c0.1,0,0.2,0,0.3,0c0.2,0,0.4,0,0.5,0c2.1,0,3.8-0.6,5.3-1.5c2.4-1.8,4.2-4.5,6.3-6.9c0.5-0.6,1.2-1.3,1.8-1.8
	c0.5-0.5,1.4-1.1,2-1.5C443,384.6,443.8,384.5,444.6,384.5"/>
<path id="line-3" class="st0" d="M443.7,375.9L443.7,375.9c1.9,0,3.3,1.2,5.1,1.3c0.2,0,0.3,0,0.5,0c0.8-0.1,1.5-0.2,2.2-0.3
	c0.4-0.1,0.8-0.1,1.2-0.1c1,0,2,0.3,3.1,1.4c2.8,3.6,0.9,8.8,5.5,9.2c0.1,0,0.4,0,0.6,0c0.7-0.1,1.4-0.2,2.2-0.4
	c0.6,0.1,1,0.2,1.5,0.3c0.6,0.1,1,0.3,1.4,0.2c0.5,0,0.9-0.2,1.5-0.8c3-2.5,1.7-6.2,6.2-7.3c1.7-0.2,3.1-0.2,4.4-0.2
	c2.8,0,5.1,0,8.7-1.9c1.3-0.7,2.6-0.9,3.9-0.8c0.8,0,1.5,0.2,2.2,0.5c2.3,0.8,4.5,2.5,6.5,4.4c0.4,0.3,0.8,0.6,1.2,0.9
	c3.7,1.1,4.2,4.9,7.4,6.5c0.4,0.2,0.9,0.4,1.5,0.6c0.3,0,0.6,0.1,0.9,0.1c6.5,0.1,8.2-8.5,14.9-8c1.8,0.2,3.9,1,6.4,2.6
	c0.1,0.1,0.2,0.1,0.3,0.2s0.2,0.2,0.3,0.2c12,8.6,19.5,14.8,22.2,25.2c1.4,5.4,1.5,11.7,0.3,19.8c0,0.3,0,0.6,0,0.9
	c0,4.7,0.7,10.3,0.8,15.9c0.1,1,0.2,2.1,0.2,3c0.3,7.1-0.8,14-7.7,17.8c-2.3,1.9-3.1,3.8-4.8,6.7c-0.7,1.2-1.6,2.4-2.5,3.4
	c-1.7,1.9-3.6,3.4-5.7,4.6c-0.2,0.1-0.3,0.2-0.5,0.3c-3,2.2-6.4,3.7-10.1,5c-4,1.3-7.7,3.5-11.3,5.5c-0.6,0.4-1.2,0.8-1.8,1.1
	c-1.4,0.9-2.8,1.7-4.2,2.5c-1.4,0.7-2.8,1.3-4.3,2c0,0,0,0,0,0c0,0,0,0,0,0c-5.9,2.4-11.5,4-16.9,5.7c-4.4,1.4-8.2,2.7-11.8,4.6
	c-3.3,1.8-6.7,3.8-10.1,6.1c-2.4,1.7-5,2.8-7.7,3.5c-4.1,1.2-8.4,1.4-12.5,1.7c-1.2,0.1-2.4,0.1-3.5,0.2c-1,0.1-2.2,0.2-3.3,0.4
	c-4.1,0.6-8.3,1.8-12.8,2.6c-3.3,1-6.7,1.8-10.4,2c-0.8,0-1.7,0-2.6,0c-1.4-0.1-3-0.4-4.5-0.4c-0.4,0-0.8,0-1.1,0.1
	c-0.3,0-0.5,0.1-0.8,0.2c-1.5,1-3.1,1.7-4.9,2.3c-4.3,1.5-9.3,1.6-14.2,0.9c-0.7-0.1-1.4-0.2-2.1-0.3c-2.5-0.4-5-1.1-7.3-1.8
	c-6.9-1.3-24.9-21.6-15.8-26.6c0.3-0.1,0.6-0.2,0.8-0.3c2.4-0.7,2.1-1.2,0.1-4.2c-1.1-1.9-1.5-3.5-1.5-5c0.1-3.1,2.5-5.4,5-7.6
	c2.8-2.8,5.7-5.5,4.7-9.7c-0.4-1-0.5-2-0.4-2.9c-0.5-4.3,2.9-8.3,0.9-12.9c-0.4-0.5-0.9-0.9-1.3-1.2c-0.8-0.5-1.6-0.8-2.5-1
	c-2.3-0.5-4.8-0.2-6.7-0.7c-0.7-0.2-1.3-0.4-1.8-0.9c-1.7-1.4-2.5-4-2-8.9c0.1-1.6,0.3-3.5,0.7-5.5c0.2-3.6-1.6-5.1-3.3-7.8
	c-1-1.7-1.9-4.3-2.3-7c-0.5-3.5,0.1-7.1,2.9-8.8c2.5-0.5,3.7-1.1,4.5-1.9c1-1,1.4-2.4,3.2-4.8c2-1.9,4.9-1.5,6.6-3.1
	c0.3-0.3,0.6-0.6,0.8-0.9c0.3-0.6,0.9-1.6,1-2.3c0.1-0.4,0.3-0.8,0.4-1.1c0.5-2.8,0.8-6,2.2-8.3c1.7-2.7,4.7-4.9,7.7-5.4
	c1.3-0.2,2.5-0.1,3.7,0.4c1.9,1.9,3.3,2.3,4.5,2.1c1.4-0.1,2.3-1.4,3.9-1.5c0.7-0.1,1.4,0.1,2.3,0.5c1.3,1.1,1.4,1.5,2.5,1.4
	c0.4,0,0.9-0.1,1.6-0.2c1.4-0.4,2.8-0.7,4.1-1c3.6-0.6,7.3-0.6,11-0.3c0.9,0.1,1.9,0.2,2.8,0.3c1.2,0,2.5,0.1,3.7,0.2
	c0.1,0,0.2,0,0.4,0c0.2,0,0.4,0,0.6,0c2.3-0.1,4.2-0.6,5.9-1.5c2.6-2,4.6-4.9,7.1-7.5c0.5-0.6,1.5-1.5,2-2c0.5-0.5,1.7-1.2,2.3-1.6
	C441.4,376.1,442.5,375.9,443.7,375.9"/>
<path id="line-4" class="st0" d="M442.9,367.4L442.9,367.4c2,0,3.5,1.2,5.5,1.3c0.2,0,0.4,0,0.6,0c0.9-0.1,1.7-0.2,2.4-0.3
	c0.4-0.1,0.9-0.1,1.3-0.1c1.1,0,2.2,0.3,3.3,1.4c3.1,3.6,1.7,8.8,6.6,9.3c0.1,0,0.5,0,0.6,0c0.7-0.1,1.5-0.2,2.4-0.4
	c0.6,0.1,1.1,0.2,1.6,0.3c0.6,0.1,1.1,0.2,1.6,0.1c0.5-0.1,1-0.3,1.6-0.8c3.3-2.6,2.3-6.3,7.1-7.4c1.8-0.2,3.3-0.2,4.7-0.2
	c3,0,5.6,0,9.4-1.7c1.4-0.6,2.8-0.8,4.1-0.7c0.8,0.1,1.6,0.3,2.4,0.5c2.5,0.9,4.9,2.7,7,4.6c0.5,0.3,0.9,0.6,1.4,0.8
	c3.9,1,4.8,4.6,8.3,6.3c0.5,0.2,1,0.4,1.6,0.5c0.3,0,0.6,0.1,0.9,0.1c6.9,0.1,9.2-8.2,16.3-7.3c1.9,0.3,4.2,1.2,6.9,2.9
	c0.1,0.1,0.3,0.2,0.3,0.2c0.1,0.1,0.3,0.2,0.3,0.2c12.8,9.2,21.2,16.1,24.5,27.6c1.7,5.9,2,12.9,0.9,21.6c0,0.3,0,0.7,0,1
	c0,5.2,0.7,11.3,0.7,17.5c0.1,1.1,0.2,2.3,0.2,3.3c0.4,7.6-0.6,15.3-7.6,19.9c-2.4,2.4-3.3,4.7-5.2,7.9c-0.9,1.4-1.8,2.8-2.9,3.9
	c-1.9,2.2-4.1,3.9-6.6,5.4c-0.2,0.1-0.4,0.2-0.6,0.3c-3.3,2.7-7.2,4.6-11.5,6.3c-4.4,1.5-8.5,3.8-12.4,5.9c-0.6,0.4-1.3,0.8-1.9,1.2
	c-1.5,0.9-3,1.9-4.7,2.7c-1.5,0.8-3.1,1.5-4.7,2.2c0,0,0,0,0,0s0,0,0,0c-6.5,2.7-12.8,4.5-18.6,6.3c-5,1.6-9.1,2.9-12.9,5
	c-3.6,2-7.3,4.2-11.1,6.7c-2.7,1.8-5.5,3-8.5,3.8c-4.6,1.3-9.3,1.6-13.7,1.8c-1.3,0.1-2.6,0.1-3.8,0.2c-1,0.1-2.4,0.3-3.7,0.5
	c-4.5,0.7-9.3,2.1-14.5,2.9c-3.6,1.2-7.5,2.2-11.7,2.4c-0.9,0.1-1.9,0.1-2.9,0.1c-1.6,0-3.3-0.4-5-0.4c-0.4,0-0.9,0-1.3,0.1
	c-0.3,0-0.6,0.1-0.9,0.2c-1.7,0.9-3.6,1.6-5.6,2.2c-4.9,1.4-10.5,1.3-15.9,0.2c-0.8-0.1-1.5-0.3-2.3-0.5c-2.8-0.6-5.5-1.5-8-2.6
	c-7.4-1.9-25.8-22.8-17.1-29c0.3-0.1,0.6-0.3,0.8-0.4c2.3-0.9,2.1-1.6,0.1-4.7c-1.1-2-1.5-3.8-1.4-5.4c0.1-3.4,2.6-5.9,5.1-8.3
	c2.7-3.1,5.6-6.1,4.8-10.6c-0.3-1.1-0.4-2.1-0.3-3.1c-0.8-4.5,2.3-8.9,0.3-13.8c-0.4-0.5-0.9-0.9-1.3-1.3c-0.8-0.6-1.6-1-2.5-1.2
	c-2.3-0.7-4.7-0.7-6.6-1.5c-0.7-0.2-1.3-0.6-1.8-1.1c-1.8-1.7-2.8-4.6-2.3-9.7c0-1.8,0.2-3.8,0.5-6c0.2-3.8-1.6-5.7-3.3-8.6
	c-1-1.9-1.8-4.8-2.1-7.7c-0.4-3.8,0.3-7.6,3.2-9.6c2.6-0.7,3.8-1.4,4.7-2.3c1.1-1.1,1.6-2.7,3.6-5.2c2.2-2,5.2-1.8,7.1-3.5
	c0.3-0.3,0.6-0.6,0.9-1c0.3-0.5,1.1-1.7,1.2-2.4c0.2-0.4,0.3-0.8,0.5-1.2c0.6-3,1-6.4,2.6-8.9c1.9-3,5-5.5,8.3-6.2
	c1.4-0.3,2.7-0.3,4,0.1c2.1,1.7,3.6,2,5,1.7c1.5-0.2,2.6-1.5,4.2-1.7c0.7-0.1,1.6,0,2.5,0.4c1.4,1,1.6,1.4,2.8,1.3
	c0.4,0,1-0.1,1.7-0.2c1.5-0.4,3-0.8,4.5-1c4-0.6,8-0.5,12-0.1c1,0.1,2,0.2,3.1,0.4c1.3,0.1,2.7,0.2,4.1,0.3c0.1,0,0.3,0,0.4,0
	c0.2,0,0.4,0,0.6,0c2.5-0.1,4.6-0.7,6.5-1.5c2.8-2.2,5.1-5.4,7.9-8.1c0.5-0.6,1.7-1.6,2.2-2.1c0.5-0.5,1.9-1.3,2.5-1.6
	C439.7,367.6,441.3,367.4,442.9,367.4"/>
<path id="line-5" class="st0" d="M442,358.8L442,358.8c2.2,0,3.8,1.2,5.8,1.3c0.2,0,0.4,0,0.6,0c0.9-0.1,1.8-0.2,2.6-0.2
	c0.5-0.1,0.9-0.1,1.4-0.1c1.2,0,2.4,0.3,3.6,1.4c3.5,3.6,2.5,8.8,7.7,9.5c0.1,0,0.5,0,0.7,0c0.8-0.1,1.6-0.2,2.6-0.4
	c0.6,0.1,1.2,0.2,1.7,0.3c0.6,0.1,1.1,0.2,1.7,0.1c0.5-0.1,1.1-0.3,1.8-0.8c3.5-2.7,2.9-6.4,7.9-7.5c1.9-0.2,3.5-0.2,5-0.2
	c3.3,0,6.1,0.1,10.1-1.6c1.5-0.6,3-0.7,4.4-0.6c0.9,0.1,1.7,0.3,2.6,0.6c2.7,1,5.2,2.8,7.6,4.9c0.5,0.3,1,0.5,1.5,0.8
	c4.2,0.9,5.4,4.4,9.1,6c0.5,0.2,1.1,0.4,1.7,0.5c0.3,0,0.7,0.1,1,0.1c7.3,0.1,10.1-7.8,17.6-6.7c2.1,0.4,4.5,1.4,7.3,3.2
	c0.1,0.1,0.3,0.2,0.4,0.2s0.3,0.2,0.4,0.2c13.7,9.8,23,17.4,26.9,29.9c2.1,6.5,2.6,14.1,1.5,23.5c0,0.4,0,0.7,0,1.1
	c0,5.7,0.7,12.2,0.5,19c0.1,1.2,0.2,2.5,0.3,3.6c0.4,8.1-0.4,16.5-7.4,22c-2.4,2.9-3.5,5.6-5.6,9.2c-1,1.6-2.1,3.1-3.3,4.5
	c-2.2,2.5-4.7,4.5-7.4,6.1c-0.2,0.1-0.5,0.3-0.7,0.4c-3.7,3.2-8,5.5-12.9,7.5c-4.8,1.8-9.3,4.2-13.6,6.4c-0.7,0.4-1.4,0.9-2.1,1.4
	c-1.6,1-3.3,2.1-5.1,3c-1.7,0.8-3.3,1.7-5.1,2.4c0,0,0,0,0,0s0,0,0,0c-7.1,3.1-14,5-20.2,6.9c-5.6,1.7-10,3.2-14.1,5.5
	c-3.9,2.3-7.9,4.7-12.1,7.3c-3,1.9-6.1,3.1-9.4,4c-5.1,1.4-10.2,1.7-15,2c-1.4,0.1-2.9,0.2-4.2,0.3c-1.1,0.1-2.6,0.3-4,0.6
	c-4.9,0.8-10.2,2.3-16.1,3.1c-4,1.3-8.2,2.5-12.9,2.8c-1,0.1-2.1,0.1-3.2,0.1c-1.8,0-3.7-0.3-5.6-0.3c-0.5,0-1,0-1.4,0.1
	c-0.3,0-0.7,0.1-1,0.2c-2,0.9-4.1,1.6-6.3,2.1c-5.5,1.3-11.6,1-17.6-0.6c-0.8-0.2-1.7-0.4-2.5-0.7c-3-0.8-5.9-2-8.7-3.3
	c-7.9-2.6-26.7-24.1-18.4-31.4c0.3-0.2,0.5-0.3,0.8-0.5c2.2-1.1,2-2,0.1-5.2c-1-2.2-1.4-4.1-1.3-5.8c0.2-3.6,2.6-6.4,5.3-9
	c2.7-3.4,5.6-6.7,4.9-11.5c-0.3-1.1-0.3-2.2-0.2-3.3c-1-4.8,1.8-9.4-0.3-14.7c-0.4-0.6-0.9-1-1.4-1.4c-0.8-0.7-1.6-1.1-2.5-1.5
	c-2.3-1-4.7-1.2-6.5-2.2c-0.7-0.3-1.2-0.7-1.7-1.3c-2-2-3-5.1-2.7-10.4c0-2,0.1-4.1,0.4-6.5c0.1-4.1-1.7-6.2-3.3-9.3
	c-0.9-2.2-1.8-5.2-2-8.3c-0.3-4.1,0.5-8.2,3.6-10.3c2.6-0.8,3.9-1.6,4.9-2.7c1.2-1.3,1.9-3,3.9-5.5c2.3-2.1,5.5-2.1,7.6-3.9
	c0.4-0.3,0.7-0.7,1-1c0.3-0.5,1.2-1.8,1.4-2.5c0.2-0.4,0.4-0.8,0.5-1.3c0.7-3.2,1.2-6.9,2.9-9.5c2.1-3.2,5.4-6,8.8-6.9
	c1.5-0.4,2.9-0.5,4.3-0.2c2.2,1.5,3.9,1.7,5.4,1.3c1.6-0.3,2.8-1.6,4.6-1.8c0.8-0.1,1.7-0.1,2.8,0.3c1.5,1,1.8,1.3,3.1,1.2
	c0.5,0,1.1-0.1,1.9-0.2c1.6-0.5,3.3-0.8,4.9-1c4.4-0.6,8.7-0.4,13.1,0.2c1.1,0.1,2.2,0.3,3.3,0.5c1.5,0.1,2.9,0.2,4.4,0.3
	c0.1,0,0.3,0,0.4,0.1c0.2,0,0.5,0,0.7,0c2.7-0.1,5-0.7,7.1-1.5c2.9-2.4,5.5-5.8,8.7-8.7c0.4-0.5,2-1.7,2.5-2.2s2.2-1.4,2.8-1.7
	C438.1,359.2,440.1,358.8,442,358.8"/>
<path id="line-6" class="st0" d="M441.2,350.3L441.2,350.3c2.3,0,4.1,1.2,6.2,1.3c0.2,0,0.4,0,0.6,0c1,0,1.9-0.1,2.7-0.2
	c0.5-0.1,1-0.1,1.5-0.1c1.3,0,2.5,0.3,3.9,1.4c3.9,3.5,3.3,8.7,8.8,9.6c0.1,0,0.5,0,0.7,0c0.8-0.1,1.7-0.2,2.7-0.4
	c0.7,0.1,1.3,0.2,1.8,0.3c0.7,0.1,1.2,0.1,1.8,0c0.6-0.1,1.2-0.4,1.9-0.9c3.8-2.7,3.5-6.4,8.8-7.6c2-0.2,3.7-0.2,5.3-0.2
	c3.5,0,6.5,0.1,10.7-1.5c1.6-0.5,3.2-0.6,4.7-0.4c0.9,0.1,1.8,0.3,2.7,0.7c2.9,1,5.6,3,8.1,5.1c0.5,0.2,1.1,0.5,1.6,0.7
	c4.4,0.8,6,4.1,10,5.7c0.6,0.2,1.2,0.4,1.8,0.5c0.4,0,0.7,0.1,1.1,0.1c7.8,0.2,11.1-7.4,19-6c2.2,0.5,4.8,1.6,7.7,3.5
	c0.1,0.1,0.3,0.2,0.4,0.3c0.1,0.1,0.3,0.2,0.4,0.3c14.5,10.4,24.7,18.7,29.2,32.3c2.4,7.1,3.1,15.3,2.1,25.3c0,0.4,0,0.8,0,1.2
	c0.1,6.1,0.6,13.2,0.3,20.5c0.1,1.3,0.2,2.7,0.3,3.9c0.5,8.6-0.2,17.8-7.3,24.2c-2.5,3.4-3.7,6.6-6.1,10.5c-1.1,1.8-2.3,3.5-3.6,5
	c-2.4,2.8-5.2,5-8.3,6.9c-0.3,0.1-0.5,0.3-0.8,0.4c-4,3.7-8.8,6.5-14.2,8.7c-5.2,2-10.1,4.5-14.8,6.8c-0.7,0.5-1.5,1-2.3,1.5
	c-1.7,1.1-3.5,2.2-5.5,3.2c-1.8,0.9-3.6,1.8-5.5,2.6c0,0,0,0,0,0c0,0,0,0,0,0c-7.8,3.4-15.2,5.5-21.9,7.5c-6.2,1.9-10.9,3.5-15.2,6
	c-4.2,2.6-8.6,5.1-13.1,7.9c-3.2,1.9-6.6,3.3-10.2,4.2c-5.6,1.4-11.1,1.8-16.2,2.1c-1.6,0.1-3.1,0.2-4.5,0.3
	c-1.1,0.1-2.8,0.4-4.3,0.7c-5.2,0.9-11.1,2.6-17.7,3.4c-4.3,1.5-9,2.8-14.2,3.2c-1.2,0.1-2.3,0.2-3.5,0.2c-2,0-4.1-0.3-6.2-0.3
	c-0.5,0-1,0-1.6,0.1c-0.4,0-0.7,0.1-1.1,0.2c-2.2,0.9-4.6,1.5-7.1,2c-6.1,1.2-12.8,0.6-19.3-1.3c-0.9-0.3-1.8-0.6-2.7-0.9
	c-3.2-1.1-6.4-2.4-9.4-4c-8.4-3.2-27.6-25.3-19.7-33.8c0.3-0.2,0.5-0.4,0.7-0.6c2.2-1.3,1.9-2.3,0-5.7c-1-2.3-1.4-4.3-1.2-6.2
	c0.2-3.9,2.7-6.8,5.4-9.7c2.6-3.7,5.6-7.3,5.1-12.3c-0.3-1.2-0.3-2.4-0.1-3.5c-1.3-5,1.3-10-0.9-15.6c-0.4-0.6-0.9-1.1-1.4-1.6
	c-0.8-0.7-1.6-1.3-2.5-1.8c-2.3-1.2-4.6-1.7-6.4-3c-0.6-0.4-1.2-0.9-1.7-1.6c-2.1-2.3-3.3-5.7-3-11.1c-0.1-2.1,0-4.4,0.2-6.9
	c0.1-4.3-1.7-6.7-3.3-10.1c-0.9-2.4-1.7-5.7-1.8-8.9c-0.2-4.3,0.7-8.7,3.9-11.1c2.6-1,4-1.9,5.1-3.1c1.3-1.4,2.1-3.2,4.2-5.9
	c2.5-2.3,5.8-2.4,8.1-4.3c0.4-0.3,0.8-0.7,1.1-1.1c0.3-0.5,1.4-2,1.6-2.7c0.2-0.4,0.4-0.9,0.6-1.3c0.8-3.4,1.4-7.3,3.3-10.2
	c2.2-3.5,5.7-6.5,9.4-7.7c1.6-0.5,3.1-0.7,4.6-0.5c2.4,1.4,4.2,1.4,5.9,0.9c1.7-0.3,3.1-1.7,5-2c0.9-0.2,1.9-0.1,3,0.2
	c1.6,0.9,2,1.2,3.4,1.1c0.6-0.1,1.2-0.1,2-0.3c1.8-0.5,3.6-0.8,5.3-1c4.7-0.6,9.4-0.3,14.1,0.4c1.2,0.2,2.4,0.4,3.6,0.6
	c1.6,0.1,3.2,0.2,4.8,0.4c0.2,0,0.3,0,0.5,0.1c0.3,0,0.5,0,0.8,0c2.9-0.1,5.4-0.7,7.7-1.5c3.1-2.6,6-6.2,9.4-9.4
	c0.4-0.5,2.2-1.9,2.7-2.4c0.5-0.5,2.5-1.4,3-1.8C436.5,350.7,438.8,350.3,441.2,350.3"/>
<path id="line-7" class="st0" d="M440.4,341.7L440.4,341.7c2.5,0,4.4,1.2,6.6,1.3c0.2,0,0.5,0,0.7,0c1,0,2-0.1,2.9-0.1
	c0.5-0.1,1.1-0.1,1.6-0.1c1.4,0,2.7,0.3,4.2,1.4c4.2,3.5,4.1,8.7,9.9,9.8c0.1,0,0.6,0,0.7-0.1c0.9-0.1,1.9-0.2,2.9-0.4
	c0.7,0,1.3,0.1,1.9,0.2c0.7,0,1.3,0.1,1.9,0c0.6-0.1,1.3-0.4,2-0.9c4-2.8,4.1-6.5,9.6-7.6c2.1-0.2,3.9-0.3,5.7-0.3
	c3.7,0,7,0.1,11.4-1.3c1.7-0.5,3.4-0.6,5-0.3c1,0.1,1.9,0.4,2.9,0.7c3,1.1,5.9,3.1,8.6,5.4c0.6,0.2,1.2,0.4,1.7,0.6
	c4.7,0.7,6.6,3.9,10.9,5.4c0.6,0.2,1.3,0.4,2,0.5c0.4,0,0.8,0.1,1.1,0.1c8.2,0.2,12.1-7,20.4-5.4c2.4,0.6,5.1,1.7,8.2,3.8
	c0.1,0,0.3,0.2,0.4,0.3s0.3,0.2,0.4,0.3c15.4,11,26.4,20,31.6,34.6c2.7,7.7,3.6,16.5,2.7,27.2c0,0.4,0,0.8,0,1.3
	c0.1,6.6,0.6,14.1,0.2,22.1c0.1,1.4,0.3,2.9,0.3,4.2c0.6,9.1,0,19-7.1,26.3c-2.5,3.8-3.9,7.5-6.5,11.8c-1.2,2-2.5,3.9-4,5.6
	c-2.7,3.1-5.8,5.6-9.2,7.6c-0.3,0.2-0.6,0.3-0.8,0.5c-4.4,4.2-9.6,7.4-15.6,9.9c-5.6,2.2-10.9,4.9-16,7.2c-0.8,0.5-1.7,1.1-2.4,1.6
	c-1.8,1.2-3.8,2.4-5.9,3.5c-1.9,1-3.9,2-5.9,2.9c0,0,0,0,0,0s0,0,0,0c-8.4,3.7-16.4,6-23.6,8.2c-6.9,2.1-11.8,3.8-16.4,6.5
	c-4.5,2.8-9.2,5.6-14.1,8.4c-3.5,2-7.2,3.5-11,4.5c-6.1,1.5-12,1.9-17.5,2.3c-1.7,0.1-3.4,0.2-4.9,0.3c-1.2,0.1-3,0.5-4.6,0.7
	c-5.6,1-12.1,2.8-19.3,3.6c-4.7,1.7-9.8,3.1-15.5,3.6c-1.3,0.1-2.5,0.2-3.8,0.2c-2.2,0-4.4-0.2-6.7-0.2c-0.6,0-1.1,0-1.7,0.1
	c-0.4,0-0.8,0.1-1.2,0.2c-2.4,0.9-5.1,1.5-7.8,1.9c-6.7,1.1-14,0.3-21.1-2.1c-1-0.3-2-0.7-3-1c-3.5-1.3-6.9-2.9-10.1-4.7
	c-8.9-3.8-28.5-26.6-21-36.3c0.3-0.2,0.5-0.4,0.7-0.7c2.1-1.5,1.8-2.7,0-6.1c-1-2.4-1.3-4.6-1.2-6.6c0.3-4.1,2.8-7.3,5.6-10.5
	c2.6-4,5.5-8,5.2-13.2c-0.2-1.3-0.2-2.5,0.1-3.7c-1.5-5.3,0.8-10.6-1.4-16.5c-0.4-0.7-0.9-1.2-1.4-1.7c-0.8-0.8-1.6-1.5-2.5-2
	c-2.3-1.4-4.6-2.2-6.3-3.8c-0.6-0.5-1.2-1-1.6-1.8c-2.3-2.6-3.5-6.3-3.3-11.9c-0.2-2.3-0.1-4.7,0.1-7.4c0-4.5-1.8-7.2-3.3-10.8
	c-0.9-2.6-1.6-6.1-1.7-9.6c-0.1-4.6,0.9-9.2,4.2-11.9c2.7-1.1,4.1-2.2,5.3-3.5c1.4-1.6,2.3-3.5,4.6-6.2c2.6-2.4,6.1-2.7,8.6-4.7
	c0.4-0.4,0.8-0.7,1.2-1.1c0.3-0.5,1.6-2.1,1.7-2.8c0.2-0.5,0.5-0.9,0.7-1.4c0.9-3.6,1.6-7.7,3.6-10.8c2.4-3.8,6.1-7,10-8.4
	c1.6-0.6,3.3-0.9,4.9-0.8c2.5,1.2,4.5,1.1,6.4,0.5c1.8-0.4,3.3-1.8,5.3-2.2c1-0.2,2-0.2,3.2,0.1c1.7,0.8,2.3,1.1,3.7,1
	c0.6-0.1,1.3-0.2,2.2-0.3c1.9-0.5,3.8-0.8,5.8-1c5.1-0.5,10.1-0.2,15.1,0.6c1.3,0.2,2.6,0.5,3.8,0.7c1.7,0.1,3.4,0.3,5.1,0.5
	c0.2,0,0.3,0.1,0.5,0.1c0.3,0,0.5,0,0.8,0c3.1-0.2,5.8-0.7,8.3-1.6c3.3-2.8,6.4-6.6,10.2-10c0.4-0.5,2.5-2,2.9-2.5s2.8-1.5,3.3-1.9
	C434.8,342.2,437.6,341.7,440.4,341.7"/>
<path id="line-8" class="st0" d="M439.5,333.2L439.5,333.2c2.6,0,4.7,1.2,7,1.3c0.2,0,0.5,0,0.7,0c1.1,0,2.1-0.1,3.1-0.1
	c0.6-0.1,1.1-0.1,1.7-0.1c1.5,0,2.9,0.3,4.4,1.4c4.6,3.5,4.9,8.7,11,9.9c0.1,0,0.6,0,0.8-0.1c1-0.1,2-0.2,3.1-0.4
	c0.8,0,1.4,0.1,2,0.2c0.7,0,1.3,0,2-0.1c0.7-0.1,1.3-0.4,2.1-1c4.3-2.9,4.7-6.6,10.4-7.7c2.2-0.2,4.1-0.3,6-0.3
	c4,0,7.5,0.2,12.1-1.2c1.8-0.4,3.6-0.5,5.3-0.2c1,0.2,2,0.4,3,0.8c3.2,1.2,6.3,3.3,9.2,5.6c0.6,0.2,1.2,0.4,1.9,0.6
	c4.9,0.5,7.2,3.7,11.7,5.1c0.6,0.2,1.3,0.4,2.1,0.5c0.4,0,0.8,0.1,1.2,0.1c8.7,0.2,13-6.6,21.8-4.7c2.6,0.7,5.4,1.9,8.6,4.1
	c0.1,0,0.3,0.2,0.4,0.3c0.1,0.1,0.3,0.2,0.4,0.3c16.2,11.6,28.2,21.3,33.9,37c3,8.2,4.1,17.7,3.3,29c0,0.4,0,0.9,0,1.4
	c0.1,7.1,0.5,15.1,0,23.6c0.1,1.4,0.3,3.1,0.4,4.5c0.7,9.6,0.2,20.3-7,28.4c-2.6,4.3-4.2,8.4-6.9,13c-1.3,2.2-2.8,4.2-4.4,6.1
	c-2.9,3.4-6.3,6.1-10.1,8.4c-0.3,0.2-0.6,0.4-0.9,0.5c-4.8,4.7-10.4,8.3-16.9,11.1c-6,2.5-11.7,5.2-17.2,7.7
	c-0.8,0.5-1.8,1.1-2.6,1.7c-2,1.3-4,2.6-6.3,3.8c-2,1.1-4.1,2.1-6.3,3.1c0,0,0,0,0,0s0,0,0,0c-9,4-17.6,6.4-25.2,8.8
	c-7.5,2.3-12.7,4.1-17.6,7c-4.8,3.1-9.9,6-15.2,9c-3.7,2.1-7.7,3.6-11.8,4.7c-6.6,1.6-13,2.1-18.7,2.4c-1.8,0.1-3.6,0.2-5.2,0.3
	c-1.2,0.1-3.3,0.5-4.9,0.8c-6,1.1-13,3.1-20.9,3.9c-5,1.9-10.5,3.4-16.7,4c-1.4,0.1-2.7,0.2-4.2,0.3c-2.3,0.1-4.8-0.2-7.3-0.2
	c-0.6,0-1.2,0-1.9,0.1c-0.4,0-0.9,0.1-1.3,0.2c-2.7,0.8-5.6,1.4-8.5,1.8c-7.3,1.1-15.1,0-22.8-2.9c-1.1-0.4-2.1-0.8-3.2-1.2
	c-3.7-1.5-7.4-3.3-10.8-5.5c-9.4-4.5-29.4-27.9-22.3-38.7c0.2-0.3,0.5-0.5,0.7-0.8c2-1.6,1.7-3,0-6.6c-1-2.5-1.3-4.9-1.1-7
	c0.3-4.3,2.9-7.8,5.7-11.2c2.5-4.3,5.5-8.6,5.3-14.1c-0.2-1.3-0.1-2.7,0.2-4c-1.8-5.6,0.3-11.1-2-17.4c-0.4-0.7-0.9-1.3-1.4-1.9
	c-0.8-0.9-1.7-1.6-2.5-2.3c-2.3-1.7-4.6-2.7-6.2-4.5c-0.6-0.5-1.1-1.2-1.6-2c-2.4-3-3.8-6.9-3.7-12.6c-0.2-2.4-0.2-5-0.1-7.8
	c-0.1-4.8-1.8-7.7-3.3-11.6c-0.8-2.9-1.5-6.5-1.5-10.2c0-4.9,1.1-9.7,4.5-12.7c2.7-1.3,4.2-2.5,5.5-3.9c1.5-1.7,2.5-3.8,4.9-6.6
	c2.8-2.6,6.4-3,9-5.1c0.5-0.4,0.9-0.8,1.3-1.2c0.3-0.5,1.8-2.3,1.9-2.9c0.3-0.5,0.5-1,0.8-1.4c0.9-3.8,1.8-8.1,4-11.4
	c2.6-4,6.5-7.5,10.5-9.2c1.7-0.7,3.5-1.1,5.2-1.2c2.6,1,4.8,0.8,6.9,0.1c1.9-0.5,3.6-1.9,5.7-2.3c1.1-0.2,2.2-0.3,3.5,0
	c1.8,0.8,2.5,1,4.1,0.9c0.7-0.1,1.4-0.2,2.3-0.3c2-0.5,4.1-0.8,6.2-1c5.5-0.5,10.9-0.1,16.2,0.8c1.4,0.3,2.7,0.5,4.1,0.9
	c1.8,0.1,3.6,0.3,5.4,0.6c0.2,0,0.4,0.1,0.5,0.1c0.3,0,0.6,0,0.9,0c3.3-0.2,6.2-0.8,8.9-1.6c3.5-3.1,6.8-7.1,11-10.6
	c0.4-0.5,2.7-2.2,3.2-2.6s3-1.6,3.6-2C433.2,333.7,436.3,333.2,439.5,333.2"/>
<path id="line-9" class="st0" d="M438.7,324.6L438.7,324.6c2.7,0,4.9,1.2,7.4,1.3c0.3,0,0.5,0,0.8,0c1.2,0,2.2,0,3.2,0
	c0.6-0.1,1.2-0.1,1.8-0.1c1.6,0,3.1,0.3,4.7,1.4c4.9,3.4,5.7,8.6,12,10.1c0.1,0,0.7-0.1,0.8-0.1c1-0.1,2.1-0.2,3.2-0.5
	c0.8,0,1.5,0.1,2.1,0.2c0.7,0,1.4,0,2.1-0.2c0.7-0.2,1.4-0.5,2.3-1c4.5-2.9,5.3-6.6,11.3-7.8c2.3-0.2,4.3-0.3,6.3-0.3
	c4.2,0,8,0.2,12.8-1.1c1.9-0.4,3.8-0.4,5.6-0.1c1.1,0.2,2.1,0.5,3.2,0.9c3.4,1.2,6.7,3.4,9.7,5.8c0.7,0.2,1.3,0.3,2,0.5
	c5.2,0.4,7.7,3.4,12.6,4.9c0.7,0.2,1.4,0.4,2.2,0.5c0.4,0,0.8,0.1,1.3,0.1c9.1,0.3,14-6.3,23.2-4c2.7,0.8,5.7,2.1,9.1,4.4
	c0.1,0,0.4,0.2,0.4,0.3c0.1,0,0.4,0.3,0.4,0.3c17.1,12.2,29.9,22.6,36.2,39.3c3.4,8.8,4.7,18.9,3.9,30.9c0,0.5,0,1,0,1.4
	c0.1,7.5,0.5,16.1-0.1,25.2c0.1,1.5,0.3,3.3,0.4,4.8c0.7,10.1,0.4,21.6-6.8,30.6c-2.7,4.8-4.4,9.3-7.4,14.3c-1.4,2.4-3,4.6-4.8,6.6
	c-3.2,3.6-6.9,6.7-11,9.1c-0.3,0.2-0.7,0.4-1,0.6c-5.1,5.2-11.3,9.2-18.3,12.4c-6.4,2.7-12.5,5.6-18.3,8.1c-0.9,0.5-1.9,1.2-2.8,1.8
	c-2.1,1.3-4.3,2.7-6.7,4c-2.1,1.1-4.4,2.3-6.8,3.3c0,0,0,0,0,0c0,0,0,0,0,0c-9.7,4.3-18.8,6.9-26.9,9.4c-8.1,2.5-13.7,4.3-18.7,7.5
	c-5.1,3.3-10.5,6.5-16.2,9.6c-4,2.2-8.2,3.8-12.7,4.9c-7,1.7-13.9,2.2-20,2.5c-2,0.1-3.9,0.2-5.6,0.4c-1.3,0.1-3.5,0.6-5.3,0.9
	c-6.4,1.2-13.9,3.4-22.6,4.1c-5.4,2-11.3,3.7-18,4.4c-1.5,0.2-3,0.3-4.5,0.3c-2.5,0.1-5.2-0.1-7.9-0.1c-0.7,0-1.3,0-2,0.1
	c-0.5,0-0.9,0.1-1.4,0.2c-2.9,0.8-6,1.4-9.2,1.7c-7.9,1-16.3-0.4-24.5-3.6c-1.1-0.4-2.3-0.9-3.4-1.4c-4-1.7-7.9-3.8-11.5-6.2
	c-9.9-5.1-30.3-29.1-23.6-41.1c0.2-0.3,0.4-0.6,0.6-0.8c1.9-1.8,1.6-3.4-0.1-7.1c-0.9-2.7-1.2-5.1-1-7.4c0.4-4.6,3-8.3,5.8-11.9
	c2.5-4.6,5.4-9.2,5.4-15c-0.1-1.4,0-2.8,0.3-4.2c-2-5.8-0.2-11.7-2.6-18.3c-0.5-0.7-0.9-1.4-1.4-2c-0.8-1-1.7-1.8-2.5-2.6
	c-2.2-1.9-4.5-3.2-6.1-5.3c-0.6-0.6-1.1-1.4-1.5-2.3c-2.6-3.3-4-7.5-4-13.3c-0.3-2.6-0.4-5.3-0.2-8.3c-0.1-5-1.8-8.2-3.3-12.4
	c-0.8-3.1-1.4-7-1.4-10.8c0.1-5.1,1.3-10.2,4.8-13.4c2.7-1.4,4.4-2.8,5.7-4.3c1.6-1.9,2.8-4,5.3-6.9c2.9-2.7,6.6-3.3,9.5-5.5
	c0.5-0.4,1-0.8,1.4-1.2c0.3-0.5,2-2.4,2.1-3c0.3-0.5,0.6-1,0.9-1.5c1-4,2-8.5,4.3-12.1c2.7-4.3,6.8-8,11.1-10
	c1.8-0.8,3.7-1.4,5.5-1.5c2.8,0.9,5.1,0.5,7.4-0.3c2.1-0.6,3.8-2,6.1-2.5c1.1-0.2,2.3-0.3,3.7-0.1c1.9,0.7,2.7,0.9,4.4,0.8
	c0.7-0.1,1.5-0.2,2.5-0.3c2.2-0.5,4.4-0.8,6.6-1c5.8-0.5,11.6-0.1,17.2,1c1.4,0.3,2.9,0.6,4.3,1c1.9,0.2,3.9,0.4,5.8,0.7
	c0.2,0,0.4,0.1,0.6,0.1c0.3,0,0.6,0,0.9,0c3.5-0.2,6.6-0.8,9.5-1.6c3.7-3.3,7.3-7.5,11.8-11.2c0.4-0.5,3-2.3,3.4-2.8s3.3-1.7,3.8-2
	C431.5,325.3,435.1,324.6,438.7,324.6"/>
<path id="line-10" class="st0" d="M437.8,316.1L437.8,316.1c2.9,0,5.2,1.2,7.8,1.3c0.3,0,0.5,0,0.8,0c1.2,0,2.3,0,3.4,0
	c0.6-0.1,1.2-0.1,1.9-0.1c1.7,0,3.3,0.3,5,1.3c5.3,3.4,6.6,8.6,13.1,10.2c0.1,0,0.7-0.1,0.9-0.1c1.1-0.1,2.2-0.3,3.4-0.5
	c0.8,0,1.5,0.1,2.2,0.2c0.8,0,1.5-0.1,2.2-0.2c0.7-0.2,1.5-0.5,2.4-1.1c4.8-3,5.9-6.7,12.1-7.9c2.4-0.3,4.5-0.3,6.6-0.3
	c4.4,0,8.4,0.2,13.4-0.9c2-0.4,4-0.3,5.9,0.1c1.1,0.2,2.2,0.5,3.4,0.9c3.6,1.3,7,3.6,10.2,6.1c0.7,0.1,1.4,0.3,2.1,0.4
	c5.4,0.3,8.3,3.2,13.5,4.6c0.7,0.2,1.5,0.4,2.3,0.5c0.5,0,0.9,0.1,1.3,0.1c9.5,0.3,15-5.9,24.6-3.4c2.9,0.9,6,2.3,9.5,4.6
	c0.1,0,0.4,0.3,0.5,0.3s0.4,0.3,0.5,0.3c17.9,12.8,31.6,23.8,38.6,41.7c3.7,9.4,5.2,20.1,4.5,32.7c0,0.5,0,1,0,1.5
	c0.2,8,0.5,17-0.3,26.7c0.1,1.6,0.3,3.5,0.5,5.1c0.8,10.6,0.6,22.8-6.7,32.7c-2.7,5.2-4.6,10.2-7.8,15.6c-1.5,2.6-3.3,5-5.2,7.2
	c-3.4,3.9-7.4,7.2-11.9,9.9c-0.4,0.2-0.7,0.4-1.1,0.6c-5.5,5.7-12.1,10.1-19.7,13.6c-6.8,3-13.3,5.9-19.5,8.5c-0.9,0.6-2,1.3-3,1.9
	c-2.2,1.4-4.6,2.9-7.1,4.3c-2.3,1.2-4.6,2.4-7.2,3.5c0,0,0,0,0,0c0,0,0,0,0,0c-10.3,4.6-20.1,7.4-28.6,10c-8.7,2.7-14.6,4.6-19.9,8
	c-5.4,3.6-11.2,6.9-17.2,10.2c-4.3,2.3-8.8,4-13.5,5.1c-7.5,1.8-14.8,2.3-21.2,2.7c-2.1,0.1-4.1,0.2-5.9,0.4c-1.3,0.1-3.7,0.6-5.6,1
	c-6.8,1.4-14.9,3.6-24.2,4.4c-5.7,2.2-12.1,4-19.3,4.9c-1.6,0.2-3.2,0.3-4.8,0.4c-2.7,0.1-5.5-0.1-8.4-0.1c-0.7,0-1.4,0-2.2,0.1
	c-0.5,0-1,0.1-1.5,0.2c-3.2,0.8-6.5,1.3-10,1.6c-8.5,0.9-17.5-0.7-26.2-4.4c-1.2-0.5-2.4-1-3.6-1.6c-4.2-1.9-8.3-4.3-12.3-6.9
	c-10.4-5.7-31.2-30.4-24.9-43.5c0.2-0.3,0.4-0.6,0.6-0.9c1.9-2,1.6-3.8-0.1-7.6c-0.9-2.8-1.2-5.4-0.9-7.8c0.4-4.8,3-8.8,6-12.6
	c2.4-5,5.4-9.8,5.5-15.9c-0.1-1.5,0.1-2.9,0.4-4.4c-2.3-6.1-0.7-12.3-3.2-19.2c-0.5-0.8-0.9-1.5-1.4-2.2c-0.8-1.1-1.7-2-2.5-2.8
	c-2.2-2.2-4.5-3.7-6-6.1c-0.6-0.7-1.1-1.5-1.5-2.5c-2.7-3.6-4.3-8.1-4.4-14.1c-0.3-2.7-0.5-5.7-0.4-8.8c-0.2-5.3-1.9-8.7-3.3-13.1
	c-0.8-3.3-1.3-7.4-1.2-11.5c0.2-5.4,1.5-10.7,5.1-14.2c2.8-1.5,4.5-3.1,5.9-4.8c1.7-2,3-4.3,5.6-7.3c3.1-2.8,6.9-3.6,10-5.9
	c0.5-0.4,1-0.8,1.5-1.3c0.3-0.5,2.1-2.6,2.3-3.2c0.3-0.5,0.7-1,1-1.6c1.1-4.2,2.2-8.9,4.6-12.7c2.9-4.6,7.2-8.5,11.7-10.7
	c1.9-0.9,3.9-1.6,5.8-1.8c2.9,0.7,5.4,0.2,7.8-0.6c2.2-0.6,4.1-2.2,6.4-2.6c1.2-0.3,2.5-0.4,3.9-0.2c2,0.7,2.9,0.8,4.7,0.6
	c0.8-0.1,1.6-0.2,2.6-0.4c2.3-0.5,4.6-0.9,7-1c6.2-0.5,12.3,0,18.2,1.3c1.5,0.3,3.1,0.7,4.6,1.1c2,0.2,4.1,0.4,6.1,0.7
	c0.2,0,0.4,0.1,0.6,0.1c0.3,0,0.7,0,1-0.1c3.7-0.2,7-0.8,10.1-1.6c3.9-3.5,7.7-7.9,12.5-11.8c0.4-0.5,3.2-2.5,3.6-2.9
	c0.4-0.4,3.6-1.8,4.1-2.1C429.9,316.8,433.9,316.1,437.8,316.1"/>
<path id="line-11" class="st0" d="M437,307.5L437,307.5c3,0,5.5,1.1,8.2,1.4c0.3,0,0.6,0,0.8,0c1.3,0,2.4,0,3.6,0.1
	c0.7-0.1,1.3-0.1,2-0.1c1.7,0,3.5,0.3,5.3,1.3c5.7,3.3,7.4,8.6,14.2,10.3c0.1,0,0.8-0.1,0.9-0.1c1.1-0.1,2.3-0.3,3.6-0.5
	c0.9,0,1.6,0.1,2.3,0.2c0.8-0.1,1.5-0.1,2.3-0.3c0.8-0.2,1.6-0.5,2.5-1.1c5-3.1,6.5-6.8,12.9-8c2.5-0.3,4.8-0.3,6.9-0.3
	c4.7,0,8.9,0.3,14.1-0.8c2.1-0.3,4.2-0.2,6.2,0.2c1.2,0.2,2.4,0.6,3.5,1c3.8,1.4,7.4,3.7,10.8,6.3c0.8,0.1,1.5,0.2,2.2,0.4
	c5.7,0.2,8.9,2.9,14.3,4.3c0.8,0.2,1.6,0.4,2.5,0.5c0.5,0,0.9,0.1,1.4,0.1c10,0.3,15.9-5.5,25.9-2.7c3,1,6.3,2.5,9.9,4.9
	c0.1,0,0.4,0.3,0.5,0.3c0.1,0,0.4,0.3,0.5,0.3c18.8,13.4,33.4,25.1,40.9,44c4,10,5.7,21.3,5.1,34.6c0,0.5,0,1.1,0,1.6
	c0.2,8.5,0.4,18-0.4,28.3c0.2,1.7,0.4,3.7,0.5,5.4c0.9,11.1,0.8,24.1-6.5,34.8c-2.8,5.7-4.8,11.1-8.3,16.9c-1.6,2.8-3.5,5.3-5.6,7.7
	c-3.7,4.2-8,7.8-12.7,10.7c-0.4,0.2-0.8,0.5-1.2,0.7c-5.8,6.2-12.9,11-21,14.8c-7.2,3.2-14.1,6.3-20.7,8.9c-1,0.6-2.1,1.4-3.1,2
	c-2.3,1.5-4.8,3.1-7.5,4.6c-2.4,1.3-4.9,2.6-7.6,3.8c0,0,0,0,0,0s0,0,0,0c-10.9,4.9-21.3,7.9-30.2,10.6c-9.3,2.8-15.5,4.9-21,8.5
	c-5.7,3.8-11.8,7.4-18.2,10.8c-4.5,2.4-9.3,4.2-14.3,5.4c-8,1.9-15.7,2.4-22.5,2.8c-2.2,0.1-4.4,0.2-6.3,0.4
	c-1.4,0.1-3.9,0.7-5.9,1.1c-7.2,1.5-15.8,3.9-25.8,4.6c-6.1,2.4-12.9,4.3-20.5,5.3c-1.7,0.2-3.4,0.3-5.1,0.4c-2.9,0.1-5.9-0.1-9,0
	c-0.8,0-1.5,0-2.3,0.1c-0.5,0-1.1,0.1-1.6,0.1c-3.4,0.8-7,1.2-10.7,1.5c-9.1,0.8-18.6-1-27.9-5.2c-1.3-0.5-2.6-1.1-3.8-1.8
	c-4.5-2.1-8.8-4.7-13-7.7c-10.9-6.4-32.1-31.6-26.2-46c0.2-0.3,0.4-0.7,0.6-1c1.8-2.2,1.5-4.1-0.1-8.1c-0.9-2.9-1.1-5.7-0.9-8.2
	c0.5-5,3.1-9.3,6.1-13.3c2.4-5.3,5.4-10.5,5.6-16.8c-0.1-1.6,0.1-3.1,0.5-4.6c-2.5-6.3-1.3-12.8-3.8-20c-0.5-0.8-1-1.6-1.5-2.3
	c-0.8-1.2-1.7-2.2-2.5-3.1c-2.2-2.4-4.4-4.3-6-6.8c-0.6-0.8-1-1.7-1.4-2.7c-2.9-3.9-4.5-8.6-4.7-14.8c-0.4-2.9-0.6-6-0.5-9.2
	c-0.2-5.5-1.9-9.2-3.3-13.9c-0.7-3.6-1.3-7.8-1.1-12.1c0.3-5.7,1.7-11.2,5.4-15c2.8-1.7,4.6-3.4,6.1-5.2c1.8-2.1,3.2-4.5,5.9-7.6
	c3.2-3,7.2-3.9,10.5-6.3c0.6-0.4,1.1-0.9,1.6-1.3c0.3-0.5,2.3-2.7,2.4-3.3c0.4-0.5,0.7-1.1,1.1-1.6c1.2-4.4,2.4-9.3,5-13.4
	c3.1-4.8,7.5-9,12.3-11.5c2-1,4.1-1.8,6.1-2.1c3.1,0.5,5.8-0.1,8.3-1c2.3-0.7,4.3-2.3,6.8-2.8c1.3-0.3,2.6-0.4,4.1-0.3
	c2.1,0.6,3.1,0.7,5,0.5c0.8-0.1,1.7-0.2,2.8-0.4c2.4-0.5,4.9-0.9,7.4-1.1c6.5-0.5,13,0.1,19.3,1.5c1.6,0.4,3.2,0.8,4.8,1.2
	c2.2,0.2,4.3,0.5,6.5,0.8c0.2,0,0.4,0.1,0.6,0.1c0.3,0,0.7,0,1-0.1c3.9-0.3,7.4-0.8,10.7-1.6c4-3.7,8.2-8.4,13.3-12.4
	c0.4-0.5,3.5-2.6,3.9-3s3.8-1.9,4.3-2.2C428.3,308.3,432.6,307.5,437,307.5"/>
<path id="line-12" class="st0" d="M436.2,299L436.2,299c3.1,0,5.8,1.1,8.6,1.4c0.3,0,0.6,0,0.9,0.1c1.3,0,2.6,0,3.7,0.1
	c0.7-0.1,1.4-0.1,2.1-0.1c1.8,0,3.6,0.3,5.5,1.3c6,3.3,8.2,8.5,15.3,10.5c0.1,0,0.8-0.1,1-0.1c1.2-0.1,2.4-0.3,3.7-0.5
	c0.9,0,1.7,0.1,2.4,0.2c0.8-0.1,1.6-0.2,2.4-0.4c0.8-0.2,1.7-0.6,2.6-1.2c5.3-3.1,7.1-6.8,13.8-8.1c2.6-0.3,5-0.4,7.3-0.4
	c4.9,0,9.4,0.3,14.8-0.6c2.2-0.3,4.4-0.1,6.5,0.3c1.2,0.2,2.5,0.6,3.7,1.1c3.9,1.5,7.7,3.9,11.3,6.6c0.8,0.1,1.6,0.2,2.4,0.3
	c6,0.1,9.5,2.7,15.2,4c0.8,0.2,1.7,0.3,2.6,0.5c0.5,0,1,0.1,1.5,0.1c10.4,0.4,16.9-5.1,27.3-2.1c3.2,1.1,6.6,2.7,10.4,5.2
	c0.1,0,0.4,0.3,0.5,0.3s0.4,0.3,0.5,0.4c19.6,14,35.1,26.4,43.2,46.4c4.3,10.5,6.3,22.5,5.7,36.4c0,0.6,0,1.1,0,1.7
	c0.2,9,0.4,18.9-0.6,29.8c0.2,1.8,0.4,3.9,0.5,5.7c1,11.6,1,25.3-6.3,36.9c-2.8,6.2-5,12-8.7,18.1c-1.8,3-3.8,5.7-6,8.3
	c-3.9,4.5-8.5,8.3-13.6,11.4c-0.4,0.3-0.8,0.5-1.3,0.7c-6.2,6.7-13.7,11.9-22.4,16c-7.6,3.4-14.9,6.6-21.9,9.4
	c-1,0.6-2.2,1.4-3.3,2.1c-2.4,1.6-5.1,3.2-8,4.8c-2.5,1.4-5.2,2.7-8,4c0,0,0,0,0,0c0,0,0,0,0,0c-11.5,5.2-22.5,8.4-31.9,11.3
	c-9.9,3-16.4,5.2-22.2,8.9c-6,4.1-12.5,7.8-19.2,11.4c-4.8,2.5-9.8,4.3-15.1,5.6c-8.5,2-16.6,2.5-23.7,3c-2.4,0.1-4.6,0.3-6.6,0.4
	c-1.4,0.1-4.1,0.7-6.2,1.2c-7.5,1.6-16.7,4.1-27.4,4.9c-6.4,2.5-13.6,4.7-21.8,5.7c-1.8,0.2-3.6,0.4-5.5,0.5c-3.1,0.2-6.3,0-9.6,0
	c-0.8,0-1.6,0-2.5,0.1c-0.6,0-1.1,0.1-1.7,0.1c-3.7,0.7-7.5,1.2-11.4,1.4c-9.6,0.7-19.8-1.4-29.7-5.9c-1.4-0.6-2.7-1.3-4-1.9
	c-4.7-2.3-9.3-5.2-13.7-8.4c-11.4-7-33-32.9-27.5-48.4c0.2-0.4,0.4-0.7,0.5-1.1c1.7-2.3,1.4-4.5-0.2-8.6c-0.9-3.1-1.1-5.9-0.8-8.6
	c0.5-5.3,3.2-9.8,6.3-14c2.4-5.6,5.3-11.1,5.7-17.7c0-1.6,0.2-3.2,0.6-4.8c-2.8-6.6-1.8-13.4-4.4-20.9c-0.5-0.9-1-1.7-1.5-2.5
	c-0.8-1.2-1.7-2.3-2.5-3.3c-2.2-2.6-4.4-4.8-5.9-7.6c-0.5-0.9-1-1.8-1.4-3c-3-4.2-4.8-9.2-5-15.6c-0.5-3-0.7-6.3-0.7-9.7
	c-0.3-5.7-2-9.8-3.3-14.6c-0.7-3.8-1.2-8.3-0.9-12.7c0.4-5.9,1.9-11.8,5.7-15.8c2.8-1.8,4.7-3.6,6.3-5.6c1.9-2.3,3.5-4.8,6.3-8
	c3.4-3.1,7.5-4.2,11-6.7c0.6-0.4,1.2-0.9,1.7-1.4c0.2-0.5,2.5-2.9,2.6-3.4c0.4-0.6,0.8-1.1,1.2-1.7c1.2-4.6,2.6-9.7,5.3-14
	c3.2-5.1,7.9-9.6,12.8-12.2c2.1-1.1,4.3-2,6.4-2.4c3.2,0.3,6.1-0.4,8.8-1.4c2.4-0.8,4.5-2.4,7.2-2.9c1.4-0.3,2.8-0.5,4.4-0.4
	c2.2,0.6,3.3,0.7,5.3,0.4c0.9-0.1,1.8-0.3,2.9-0.4c2.6-0.5,5.2-0.9,7.8-1.1c6.9-0.5,13.7,0.2,20.3,1.7c1.7,0.4,3.4,0.8,5.1,1.3
	c2.3,0.2,4.6,0.5,6.8,0.9c0.2,0,0.4,0.1,0.7,0.1c0.4,0,0.7,0,1.1-0.1c4.1-0.3,7.8-0.9,11.3-1.6c4.2-3.9,8.6-8.8,14.1-13.1
	c0.4-0.5,3.7-2.7,4.1-3.1s4.1-2,4.6-2.3C426.6,299.8,431.4,299,436.2,299"/>
<path id="line-13" class="st0" d="M435.3,290.4L435.3,290.4c3.3,0,6,1.1,9,1.4c0.3,0,0.6,0,0.9,0.1c1.4,0.1,2.7,0.1,3.9,0.2
	c0.7-0.1,1.4-0.1,2.2-0.1c1.9,0,3.8,0.3,5.8,1.3c6.4,3.3,9,8.5,16.4,10.6c0.1,0,0.9-0.1,1-0.1c1.3-0.1,2.6-0.3,3.9-0.5
	c0.9,0,1.8,0.1,2.5,0.2c0.9-0.1,1.7-0.2,2.5-0.4c0.9-0.3,1.8-0.6,2.7-1.2c5.5-3.2,7.7-6.9,14.6-8.1c2.7-0.3,5.2-0.4,7.6-0.4
	c5.1,0,9.8,0.3,15.5-0.5c2.3-0.2,4.5-0.1,6.8,0.4c1.3,0.3,2.6,0.6,3.8,1.1c4.1,1.5,8.1,4,11.8,6.8c0.8,0.1,1.7,0.2,2.5,0.2
	c6.2,0,10.1,2.4,16.1,3.8c0.9,0.2,1.7,0.3,2.7,0.5c0.5,0,1,0.1,1.5,0.1c10.8,0.4,17.9-4.7,28.7-1.4c3.3,1.1,6.9,2.9,10.8,5.5
	c0.1,0,0.5,0.3,0.5,0.4c0.1,0,0.5,0.3,0.5,0.4c20.5,14.6,36.8,27.7,45.6,48.7c4.7,11.1,6.8,23.7,6.3,38.3c0,0.6,0,1.2,0,1.8
	c0.2,9.4,0.4,19.9-0.8,31.4c0.2,1.9,0.4,4.1,0.6,6c1,12.1,1.2,26.6-6.2,39.1c-2.9,6.7-5.3,12.9-9.1,19.4c-1.9,3.2-4,6.1-6.4,8.8
	c-4.2,4.8-9.1,8.9-14.5,12.2c-0.4,0.3-0.9,0.5-1.3,0.8c-6.6,7.2-14.5,12.8-23.7,17.2c-8,3.7-15.7,7-23.1,9.8
	c-1.1,0.7-2.4,1.5-3.5,2.2c-2.5,1.6-5.3,3.4-8.4,5.1c-2.6,1.4-5.4,2.9-8.4,4.2c0,0,0,0,0,0c0,0,0,0,0,0
	c-12.2,5.5-23.7,8.9-33.6,11.9c-10.5,3.2-17.3,5.5-23.4,9.4c-6.3,4.3-13.1,8.3-20.3,11.9c-5,2.6-10.4,4.5-16,5.8
	c-9,2.1-17.5,2.7-25,3.1c-2.5,0.1-4.9,0.3-7,0.5c-1.5,0.1-4.3,0.8-6.6,1.3c-7.9,1.7-17.7,4.4-29,5.1c-6.8,2.7-14.4,5-23.1,6.1
	c-1.9,0.2-3.8,0.4-5.8,0.5c-3.2,0.2-6.6,0-10.1,0.1c-0.9,0-1.7,0-2.6,0.1c-0.6,0-1.2,0.1-1.8,0.1c-3.9,0.7-8,1.1-12.2,1.3
	c-10.2,0.6-21-1.7-31.4-6.7c-1.4-0.7-2.8-1.4-4.3-2.1c-4.9-2.5-9.8-5.6-14.4-9.1c-11.9-7.7-33.9-34.2-28.8-50.8
	c0.2-0.4,0.4-0.8,0.5-1.2c1.6-2.5,1.3-4.8-0.2-9.1c-0.8-3.2-1-6.2-0.7-9c0.5-5.5,3.3-10.2,6.4-14.8c2.3-5.9,5.3-11.7,5.8-18.6
	c0-1.7,0.3-3.4,0.8-5c-3-6.9-2.3-14-5-21.8c-0.5-0.9-1-1.8-1.5-2.6c-0.8-1.3-1.7-2.5-2.5-3.6c-2.2-2.9-4.3-5.3-5.8-8.4
	c-0.5-0.9-1-2-1.3-3.2c-3.2-4.5-5.1-9.8-5.4-16.3c-0.5-3.2-0.8-6.6-0.8-10.1c-0.4-6-2-10.3-3.3-15.4c-0.7-4-1.1-8.7-0.8-13.4
	c0.4-6.2,2.1-12.3,6-16.6c2.9-2,4.8-3.9,6.5-6c2-2.4,3.7-5.1,6.6-8.3c3.5-3.2,7.8-4.5,11.4-7.1c0.6-0.5,1.2-0.9,1.8-1.4
	c0.2-0.4,2.7-3,2.8-3.6c0.4-0.6,0.8-1.2,1.3-1.8c1.3-4.8,2.8-10.1,5.7-14.6c3.4-5.4,8.2-10.1,13.4-13c2.2-1.3,4.5-2.2,6.7-2.7
	c3.4,0.2,6.4-0.7,9.3-1.8c2.5-0.8,4.8-2.5,7.5-3.1c1.4-0.4,3-0.6,4.6-0.5c2.2,0.5,3.5,0.6,5.6,0.3c0.9-0.1,1.9-0.3,3.1-0.4
	c2.7-0.5,5.4-0.9,8.2-1.1c7.3-0.5,14.4,0.3,21.4,1.9c1.8,0.4,3.6,0.9,5.3,1.5c2.4,0.2,4.8,0.5,7.2,1c0.2,0,0.5,0.1,0.7,0.1
	c0.4,0,0.8-0.1,1.1-0.1c4.3-0.3,8.2-0.9,11.8-1.6c4.4-4.1,9-9.2,14.9-13.7c0.4-0.5,3.9-2.9,4.4-3.3c0.4-0.4,4.4-2.1,4.9-2.4
	C425,291.3,430.1,290.4,435.3,290.4"/>
<path id="line-14" class="st0" d="M434.5,281.9L434.5,281.9c3.4,0,6.3,1.1,9.4,1.4c0.3,0,0.6,0.1,1,0.1c1.4,0.1,2.8,0.1,4.1,0.2
	c0.8-0.1,1.5-0.1,2.3-0.1c2,0,4,0.3,6.1,1.3c6.7,3.2,9.8,8.5,17.4,10.8c0.1,0,0.9-0.1,1-0.1c1.3-0.1,2.7-0.3,4.1-0.5
	c1,0,1.8,0.1,2.6,0.1c0.9-0.1,1.7-0.3,2.6-0.5c0.9-0.3,1.8-0.7,2.9-1.3c5.8-3.3,8.3-7,15.5-8.2c2.8-0.3,5.4-0.4,7.9-0.4
	c5.4,0,10.3,0.4,16.2-0.4c2.4-0.2,4.7,0,7.1,0.5c1.3,0.3,2.7,0.7,4,1.2c4.3,1.6,8.5,4.2,12.4,7.1c0.9,0,1.7,0.1,2.6,0.2
	c6.5-0.2,10.6,2.2,16.9,3.5c0.9,0.2,1.8,0.3,2.8,0.5c0.5,0,1.1,0.1,1.6,0.1c11.3,0.4,18.8-4.4,30.1-0.8c3.5,1.2,7.2,3.1,11.2,5.8
	c0.1,0,0.5,0.3,0.6,0.4c0.1,0,0.5,0.3,0.6,0.4c21.3,15.2,38.6,29,47.9,51.1c5,11.7,7.3,24.9,6.9,40.1c0,0.6,0,1.3,0.1,1.9
	c0.3,9.9,0.3,20.9-0.9,32.9c0.2,2,0.4,4.3,0.6,6.3c1.1,12.6,1.4,27.8-6,41.2c-2.9,7.1-5.5,13.8-9.6,20.7c-2,3.3-4.2,6.5-6.7,9.4
	c-4.4,5.1-9.6,9.4-15.4,12.9c-0.5,0.3-0.9,0.6-1.4,0.8c-6.9,7.7-15.3,13.8-25.1,18.5c-8.4,3.9-16.5,7.3-24.2,10.2
	c-1.1,0.7-2.5,1.6-3.6,2.4c-2.7,1.7-5.6,3.6-8.8,5.4c-2.8,1.5-5.7,3-8.8,4.4c0,0,0,0,0,0s0,0,0,0c-12.8,5.8-24.9,9.3-35.3,12.5
	c-11.2,3.4-18.3,5.7-24.5,9.9c-6.7,4.6-13.8,8.7-21.3,12.5c-5.3,2.7-10.9,4.7-16.8,6.1c-9.5,2.2-18.5,2.8-26.2,3.2
	c-2.6,0.2-5.1,0.3-7.3,0.5c-1.5,0.2-4.5,0.8-6.9,1.4c-8.3,1.8-18.6,4.7-30.7,5.4c-7.1,2.9-15.2,5.3-24.4,6.5c-2,0.2-4,0.4-6.1,0.6
	c-3.4,0.2-7,0.1-10.7,0.1c-0.9,0-1.8,0-2.7,0.1c-0.6,0-1.3,0.1-1.9,0.1c-4.1,0.7-8.5,1.1-12.9,1.2c-10.8,0.6-22.1-2-33.1-7.4
	c-1.5-0.7-3-1.5-4.5-2.3c-5.2-2.8-10.2-6.1-15.1-9.9c-12.4-8.3-34.8-35.4-30.1-53.2c0.2-0.4,0.3-0.9,0.5-1.3
	c1.6-2.7,1.2-5.2-0.3-9.6c-0.8-3.3-1-6.5-0.6-9.4c0.6-5.8,3.4-10.7,6.6-15.5c2.3-6.2,5.3-12.3,5.9-19.5c0.1-1.8,0.4-3.5,0.9-5.2
	c-3.3-7.1-2.8-14.5-5.6-22.7c-0.5-1-1-1.9-1.5-2.8c-0.8-1.4-1.7-2.7-2.5-3.9c-2.2-3.1-4.3-5.8-5.7-9.1c-0.5-1-0.9-2.1-1.3-3.4
	c-3.3-4.8-5.3-10.4-5.7-17c-0.6-3.4-0.9-6.9-1-10.6c-0.4-6.2-2.1-10.8-3.3-16.2c-0.7-4.2-1-9.2-0.6-14c0.5-6.5,2.3-12.8,6.3-17.3
	c2.9-2.1,4.9-4.2,6.7-6.4c2.1-2.6,3.9-5.3,7-8.7c3.6-3.4,8.1-4.8,11.9-7.5c0.7-0.5,1.3-1,1.9-1.5c0.2-0.4,2.8-3.2,3-3.7
	c0.5-0.6,0.9-1.2,1.3-1.8c1.4-5,3-10.5,6-15.3c3.6-5.7,8.6-10.6,14-13.7c2.3-1.4,4.7-2.4,7-3c3.5,0,6.7-1,9.8-2.2
	c2.6-0.9,5-2.6,7.9-3.3c1.5-0.4,3.1-0.6,4.8-0.6c2.3,0.5,3.8,0.5,5.9,0.2c1-0.1,2-0.3,3.2-0.5c2.8-0.6,5.7-0.9,8.6-1.1
	c7.6-0.5,15.1,0.4,22.4,2.2c1.9,0.5,3.7,1,5.6,1.6c2.5,0.2,5,0.6,7.5,1c0.2,0,0.5,0.1,0.7,0.2c0.4,0,0.8-0.1,1.2-0.1
	c4.5-0.3,8.7-0.9,12.4-1.7c4.6-4.3,9.5-9.6,15.6-14.3c0.4-0.4,4.2-3,4.6-3.4c0.4-0.4,4.7-2.2,5.1-2.4
	C423.4,282.9,428.9,281.9,434.5,281.9"/>
<path id="line-15" class="st0" d="M433.7,273.3L433.7,273.3c3.6,0,6.6,1.1,9.8,1.4c0.3,0,0.7,0.1,1,0.1c1.5,0.1,2.9,0.1,4.2,0.2
	c0.8-0.1,1.6-0.1,2.4-0.1c2.1,0,4.2,0.3,6.4,1.3c7.1,3.2,10.6,8.5,18.5,10.9c0.1,0,1-0.1,1.1-0.1c1.4-0.1,2.8-0.3,4.2-0.5
	c1,0,1.9,0.1,2.8,0.1c0.9-0.2,1.8-0.3,2.7-0.6c1-0.3,1.9-0.7,3-1.3c6-3.3,8.9-7,16.3-8.3c2.9-0.3,5.6-0.4,8.2-0.4
	c5.6,0,10.8,0.4,16.8-0.2c2.5-0.1,4.9,0.1,7.4,0.7c1.4,0.3,2.8,0.7,4.1,1.2c4.5,1.7,8.8,4.3,12.9,7.3c0.9,0,1.8,0.1,2.7,0.1
	c6.7-0.3,11.2,2,17.8,3.2c0.9,0.2,1.9,0.3,2.9,0.5c0.6,0,1.1,0.1,1.6,0.1c11.7,0.5,19.8-4,31.5-0.1c3.6,1.3,7.5,3.3,11.7,6.1
	c0.1,0,0.5,0.4,0.6,0.4c0.1,0,0.5,0.4,0.6,0.4c22.2,15.9,40.3,30.3,50.3,53.4c5.3,12.3,7.8,26.1,7.5,42c0,0.7,0,1.3,0.1,2
	c0.3,10.4,0.3,21.8-1.1,34.4c0.2,2,0.5,4.6,0.6,6.6c1.2,13.2,1.6,29.1-5.9,43.3c-3,7.6-5.7,14.7-10,22c-2.1,3.5-4.5,6.8-7.1,9.9
	c-4.7,5.4-10.2,10-16.3,13.7c-0.5,0.3-1,0.6-1.5,0.9c-7.3,8.2-16.2,14.7-26.5,19.7c-8.8,4.1-17.3,7.6-25.4,10.6
	c-1.1,0.7-2.6,1.7-3.8,2.5c-2.8,1.8-5.8,3.7-9.2,5.6c-2.9,1.6-5.9,3.2-9.2,4.7c0,0,0,0,0,0s0,0,0,0c-13.4,6.1-26.1,9.8-36.9,13.1
	c-11.8,3.6-19.2,6-25.7,10.4c-7,4.8-14.4,9.2-22.3,13.1c-5.6,2.8-11.5,4.8-17.6,6.3c-9.9,2.3-19.4,2.9-27.5,3.4
	c-2.8,0.2-5.4,0.3-7.7,0.5c-1.5,0.2-4.7,0.9-7.2,1.4c-8.7,1.9-19.5,4.9-32.3,5.6c-7.5,3.1-15.9,5.6-25.6,6.9
	c-2.1,0.3-4.2,0.5-6.4,0.6c-3.6,0.2-7.4,0.1-11.3,0.2c-1,0-1.9,0-2.9,0.1c-0.7,0-1.3,0.1-2,0.1c-4.4,0.7-9,1-13.6,1.1
	c-11.4,0.5-23.3-2.4-34.8-8.2c-1.6-0.8-3.1-1.6-4.7-2.5c-5.4-3-10.7-6.5-15.8-10.6c-12.8-8.9-35.7-36.7-31.4-55.6
	c0.2-0.5,0.3-0.9,0.4-1.4c1.5-2.9,1.2-5.6-0.3-10c-0.8-3.5-0.9-6.7-0.6-9.8c0.6-6,3.4-11.2,6.7-16.2c2.2-6.5,5.2-13,6-20.3
	c0.1-1.8,0.5-3.6,1-5.4c-3.5-7.4-3.3-15.1-6.2-23.6c-0.5-1-1-2-1.5-2.9c-0.8-1.5-1.7-2.8-2.5-4.1c-2.2-3.4-4.2-6.3-5.6-9.9
	c-0.5-1.1-0.9-2.3-1.2-3.6c-3.5-5.1-5.6-11-6.1-17.8c-0.6-3.5-1-7.2-1.1-11.1c-0.5-6.4-2.1-11.3-3.3-16.9c-0.6-4.5-0.9-9.6-0.5-14.6
	c0.6-6.7,2.5-13.3,6.6-18.1c2.9-2.3,5-4.5,6.9-6.8c2.2-2.7,4.2-5.6,7.3-9c3.8-3.5,8.4-5.1,12.4-8c0.7-0.5,1.3-1,2-1.5
	c0.2-0.4,3-3.3,3.1-3.8c0.5-0.6,1-1.3,1.4-1.9c1.5-5.2,3.2-10.9,6.3-15.9c3.8-5.9,8.9-11.1,14.5-14.5c2.4-1.5,4.9-2.6,7.3-3.3
	c3.6-0.2,7-1.3,10.2-2.6c2.8-1,5.3-2.7,8.3-3.4c1.6-0.4,3.3-0.7,5.1-0.7c2.4,0.4,4,0.4,6.3,0.1c1-0.1,2.1-0.3,3.4-0.5
	c3-0.6,6-0.9,9-1.1c8-0.4,15.8,0.5,23.4,2.4c2,0.5,3.9,1.1,5.8,1.7c2.6,0.3,5.3,0.6,7.9,1.1c0.3,0.1,0.5,0.1,0.8,0.2
	c0.4,0,0.8-0.1,1.3-0.1c4.7-0.4,9.1-1,13-1.7c4.8-4.5,9.9-10.1,16.4-14.9c0.3-0.4,4.4-3.2,4.8-3.5c0.4-0.4,4.9-2.2,5.4-2.5
	C421.7,274.4,427.7,273.3,433.7,273.3"/>
<path id="line-16" class="st0" d="M432.8,264.8L432.8,264.8c3.7,0,6.9,1.1,10.2,1.4c0.3,0,0.7,0.1,1,0.1c1.6,0.1,3,0.2,4.4,0.3
	c0.8-0.1,1.6-0.1,2.5-0.1c2.2,0,4.4,0.3,6.6,1.3c7.4,3.2,11.4,8.4,19.6,11.1c0.1,0,1-0.1,1.1-0.1c1.4-0.1,2.9-0.3,4.4-0.5
	c1,0,2,0.1,2.9,0.1c1-0.2,1.9-0.4,2.8-0.6c1-0.3,2-0.7,3.1-1.4c6.3-3.4,9.5-7.1,17.1-8.4c3-0.3,5.8-0.4,8.5-0.4
	c5.8,0,11.2,0.4,17.5-0.1c2.6-0.1,5.1,0.2,7.6,0.8c1.5,0.3,2.9,0.8,4.3,1.3c4.7,1.8,9.2,4.5,13.4,7.6c1,0,1.9,0,2.9,0.1
	c7-0.4,11.8,1.7,18.6,2.9c1,0.2,2,0.3,3.1,0.4c0.6,0,1.1,0.1,1.7,0.1c12.1,0.5,20.8-3.6,32.9,0.5c3.8,1.4,7.8,3.5,12.1,6.4
	c0.1,0,0.5,0.4,0.6,0.4s0.5,0.4,0.6,0.4c23,16.5,42.1,31.6,52.6,55.8c5.6,12.8,8.4,27.3,8.1,43.8c0,0.7,0,1.4,0.1,2.1
	c0.3,10.9,0.3,22.8-1.2,36c0.2,2.1,0.5,4.8,0.7,6.9c1.2,13.7,1.8,30.3-5.7,45.4c-3,8.1-5.9,15.6-10.5,23.2
	c-2.2,3.7-4.7,7.2-7.5,10.4c-4.9,5.7-10.7,10.5-17.1,14.4c-0.5,0.3-1.1,0.6-1.6,0.9c-7.6,8.7-17,15.6-27.8,20.9
	c-9.3,4.4-18.1,8-26.6,11.1c-1.2,0.8-2.7,1.7-4,2.6c-2.9,1.9-6.1,3.9-9.6,5.9c-3,1.7-6.2,3.3-9.6,4.9c0,0,0,0,0,0s0,0,0,0
	c-14.1,6.4-27.4,10.3-38.6,13.7c-12.4,3.8-20.1,6.3-26.8,10.9c-7.3,5.1-15.1,9.6-23.3,13.7c-5.8,2.9-12,5-18.4,6.5
	c-10.4,2.4-20.3,3-28.7,3.5c-2.9,0.2-5.6,0.3-8,0.5c-1.6,0.2-4.9,0.9-7.5,1.5c-9.1,2-20.5,5.2-33.9,5.9c-7.8,3.2-16.7,5.9-26.9,7.3
	c-2.2,0.3-4.4,0.5-6.7,0.7c-3.8,0.3-7.7,0.2-11.8,0.2c-1,0-2,0-3,0.1c-0.7,0-1.4,0.1-2.1,0.1c-4.6,0.6-9.4,1-14.3,1
	c-12,0.4-24.5-2.7-36.5-9c-1.6-0.8-3.3-1.7-4.9-2.7c-5.7-3.2-11.2-7-16.5-11.3c-13.3-9.6-36.6-37.9-32.7-58.1c0.2-0.5,0.3-1,0.4-1.5
	c1.4-3,1.1-5.9-0.3-10.5c-0.7-3.6-0.9-7-0.5-10.2c0.7-6.2,3.5-11.7,6.9-16.9c2.2-6.8,5.2-13.6,6.1-21.2c0.1-1.9,0.5-3.8,1.1-5.6
	c-3.8-7.6-3.8-15.7-6.8-24.5c-0.5-1.1-1-2.1-1.5-3.1c-0.8-1.6-1.7-3-2.5-4.4c-2.2-3.6-4.2-6.8-5.5-10.7c-0.5-1.2-0.9-2.5-1.2-3.9
	c-3.6-5.5-5.8-11.6-6.4-18.5c-0.7-3.7-1.1-7.5-1.3-11.5c-0.5-6.7-2.1-11.8-3.3-17.7c-0.6-4.7-0.8-10-0.3-15.3
	c0.7-7,2.7-13.8,6.9-18.9c3-2.4,5.1-4.8,7.1-7.2c2.3-2.8,4.4-5.9,7.7-9.4c3.9-3.7,8.7-5.4,12.9-8.4c0.7-0.5,1.4-1,2.1-1.5
	c0.2-0.4,3.2-3.5,3.3-4c0.5-0.7,1-1.3,1.5-1.9c1.6-5.4,3.4-11.3,6.7-16.6c3.9-6.2,9.3-11.6,15.1-15.2c2.5-1.6,5.1-2.8,7.6-3.7
	c3.8-0.3,7.3-1.6,10.7-3c2.9-1,5.5-2.8,8.6-3.6c1.7-0.5,3.4-0.8,5.3-0.8c2.5,0.3,4.2,0.3,6.6,0c1.1-0.2,2.2-0.3,3.5-0.5
	c3.1-0.6,6.2-0.9,9.4-1.1c8.3-0.4,16.5,0.5,24.5,2.6c2.1,0.5,4.1,1.1,6.1,1.8c2.8,0.3,5.5,0.7,8.2,1.2c0.3,0.1,0.5,0.1,0.8,0.2
	c0.4,0,0.9-0.1,1.3-0.1c4.9-0.4,9.5-1,13.6-1.7c4.9-4.8,10.4-10.5,17.2-15.5c0.3-0.4,4.7-3.3,5.1-3.7s5.2-2.3,5.6-2.6
	C420.1,265.9,426.4,264.8,432.8,264.8"/>
<path id="line-17" class="st0" d="M432,256.2L432,256.2c3.8,0,7.2,1.1,10.6,1.4c0.4,0,0.7,0.1,1.1,0.1c1.6,0.1,3.1,0.2,4.6,0.3
	c0.8-0.1,1.7-0.1,2.6-0.1c2.3,0,4.6,0.3,6.9,1.2c7.8,3.1,12.2,8.4,20.7,11.2c0.1,0,1.1-0.1,1.2-0.1c1.5-0.2,3-0.3,4.6-0.5
	c1.1,0,2.1,0,3,0.1c1-0.2,1.9-0.4,2.9-0.7c1-0.3,2.1-0.8,3.2-1.4c6.5-3.5,10.1-7.2,18-8.5c3.1-0.3,6-0.4,8.9-0.4
	c6,0,11.7,0.5,18.2,0c2.7-0.1,5.3,0.3,7.9,0.9c1.5,0.4,3,0.8,4.5,1.4c4.8,1.8,9.5,4.6,14,7.8c1,0,2,0,3,0c7.2-0.5,12.4,1.5,19.5,2.6
	c1,0.2,2.1,0.3,3.2,0.4c0.6,0,1.2,0.1,1.8,0.1c12.6,0.5,21.7-3.2,34.2,1.2c4,1.5,8.1,3.7,12.6,6.7c0.1,0,0.6,0.4,0.6,0.4
	c0.1,0,0.6,0.4,0.6,0.4c23.9,17.1,43.8,32.9,54.9,58.1c6,13.4,8.9,28.5,8.8,45.7c0,0.7,0,1.4,0.1,2.2c0.3,11.3,0.2,23.7-1.4,37.5
	c0.2,2.2,0.5,5,0.7,7.1c1.3,14.2,2,31.6-5.6,47.6c-3.1,8.6-6.2,16.5-10.9,24.5c-2.3,3.9-5,7.6-7.9,11c-5.2,6-11.2,11.1-18,15.2
	c-0.6,0.3-1.1,0.7-1.7,1c-8,9.2-17.8,16.5-29.2,22.1c-9.7,4.6-18.9,8.3-27.8,11.5c-1.2,0.8-2.8,1.8-4.2,2.7c-3,2-6.3,4.1-10,6.2
	c-3.1,1.7-6.5,3.5-10,5.1c0,0,0,0,0,0c0,0,0,0,0,0c-14.7,6.7-28.6,10.8-40.3,14.4c-13,4-21,6.6-28,11.4
	c-7.6,5.3-15.7,10.1-24.3,14.3c-6.1,3-12.5,5.2-19.2,6.8c-10.9,2.5-21.2,3.2-30,3.7c-3,0.2-5.9,0.3-8.4,0.6c-1.6,0.2-5.1,1-7.9,1.6
	c-9.5,2.2-21.4,5.4-35.5,6.1c-8.2,3.4-17.5,6.2-28.2,7.7c-2.3,0.3-4.6,0.5-7.1,0.7c-4,0.3-8.1,0.2-12.4,0.3c-1.1,0-2.1,0-3.2,0.1
	c-0.7,0-1.5,0.1-2.2,0.1c-4.9,0.6-9.9,0.9-15.1,0.9c-12.6,0.3-25.6-3-38.3-9.7c-1.7-0.9-3.4-1.8-5.1-2.8c-5.9-3.4-11.7-7.5-17.2-12
	c-13.8-10.2-37.5-39.2-34-60.5c0.1-0.5,0.3-1,0.4-1.6c1.3-3.2,1-6.3-0.4-11c-0.7-3.7-0.8-7.3-0.4-10.6c0.7-6.5,3.6-12.2,7-17.6
	c2.1-7.2,5.2-14.2,6.2-22.1c0.2-2,0.6-3.9,1.2-5.9c-4-7.9-4.4-16.2-7.4-25.4c-0.5-1.1-1-2.2-1.6-3.2c-0.9-1.6-1.7-3.2-2.5-4.7
	c-2.2-3.9-4.2-7.3-5.4-11.4c-0.5-1.3-0.8-2.6-1.1-4.1c-3.8-5.8-6.1-12.2-6.8-19.2c-0.7-3.8-1.2-7.8-1.4-12
	c-0.6-6.9-2.2-12.3-3.3-18.5c-0.6-4.9-0.7-10.5-0.2-15.9c0.8-7.3,2.9-14.3,7.2-19.7c3-2.6,5.2-5.1,7.3-7.6c2.4-3,4.6-6.1,8-9.7
	c4.1-3.8,9-5.7,13.4-8.8c0.7-0.5,1.5-1.1,2.2-1.6c0.2-0.4,3.4-3.6,3.5-4.1c0.5-0.7,1.1-1.3,1.6-2c1.6-5.6,3.6-11.7,7-17.2
	c4.1-6.5,9.7-12.1,15.7-16c2.6-1.7,5.2-3,7.9-4c3.9-0.5,7.6-1.9,11.2-3.4c3-1.1,5.8-2.9,9-3.7c1.7-0.5,3.6-0.8,5.5-0.9
	c2.6,0.3,4.4,0.2,6.9-0.1c1.1-0.2,2.3-0.3,3.7-0.5c3.2-0.6,6.5-1,9.8-1.1c8.7-0.4,17.2,0.6,25.5,2.8c2.1,0.6,4.3,1.2,6.3,2
	c2.9,0.3,5.7,0.7,8.6,1.3c0.3,0.1,0.6,0.1,0.8,0.2c0.5,0,0.9-0.1,1.4-0.1c5.1-0.4,9.9-1,14.2-1.7c5.1-5,10.8-10.9,18-16.1
	c0.3-0.4,4.9-3.5,5.3-3.8c0.4-0.4,5.5-2.4,5.9-2.7C418.5,257.4,425.2,256.2,432,256.2"/>
<path id="line-18" class="st0" d="M431.1,247.7L431.1,247.7c4,0,7.4,1,11,1.4c0.4,0,0.7,0.1,1.1,0.1c1.7,0.1,3.2,0.2,4.7,0.4
	c0.9-0.1,1.8-0.1,2.7-0.1c2.4,0,4.8,0.3,7.2,1.2c8.2,3.1,13,8.4,21.8,11.4c0.1,0,1.1-0.1,1.2-0.1c1.6-0.2,3.1-0.3,4.7-0.6
	c1.1,0,2.1,0,3.1,0.1c1-0.2,2-0.4,3-0.8c1.1-0.4,2.2-0.8,3.3-1.5c6.8-3.5,10.7-7.3,18.8-8.5c3.2-0.3,6.2-0.5,9.2-0.5
	c6.3,0,12.2,0.5,18.9,0.2c2.8,0,5.5,0.4,8.2,1c1.6,0.4,3.1,0.9,4.6,1.4c5,1.9,9.9,4.8,14.5,8.1c1,0,2.1-0.1,3.1-0.1
	c7.5-0.6,13,1.2,20.4,2.4c1.1,0.2,2.2,0.3,3.3,0.4c0.6,0,1.2,0.1,1.8,0.1c13,0.6,22.7-2.8,35.6,1.9c4.1,1.6,8.4,3.9,13,7
	c0.1,0,0.6,0.4,0.7,0.4c0.1,0,0.6,0.4,0.7,0.5c24.7,17.7,45.5,34.2,57.3,60.5c6.3,14,9.4,29.7,9.4,47.5c0,0.7,0.1,1.5,0.1,2.2
	c0.4,11.8,0.2,24.7-1.6,39.1c0.2,2.3,0.5,5.2,0.7,7.4c1.4,14.7,2.2,32.8-5.4,49.7c-3.2,9-6.4,17.5-11.3,25.8
	c-2.4,4.1-5.2,7.9-8.3,11.5c-5.4,6.3-11.8,11.6-18.9,16c-0.6,0.4-1.2,0.7-1.8,1c-8.4,9.7-18.6,17.4-30.5,23.3
	c-10.1,4.8-19.8,8.7-29,11.9c-1.3,0.8-3,1.9-4.3,2.8c-3.1,2-6.6,4.3-10.4,6.4c-3.2,1.8-6.7,3.6-10.5,5.3c0,0,0,0,0,0s0,0,0,0
	c-15.3,7-29.8,11.3-41.9,15c-13.6,4.1-21.9,6.9-29.2,11.9c-7.9,5.6-16.3,10.5-25.4,14.9c-6.4,3.1-13.1,5.4-20.1,7
	c-11.4,2.6-22.1,3.3-31.2,3.8c-3.1,0.2-6.2,0.4-8.7,0.6c-1.7,0.2-5.3,1.1-8.2,1.7c-9.8,2.3-22.3,5.7-37.1,6.4
	c-8.5,3.6-18.2,6.5-29.4,8.1c-2.4,0.3-4.8,0.6-7.4,0.8c-4.1,0.3-8.5,0.3-13,0.3c-1.1,0-2.2,0-3.3,0.1c-0.8,0-1.5,0.1-2.3,0.1
	c-5.1,0.6-10.4,0.8-15.8,0.8c-13.2,0.2-26.8-3.4-40-10.5c-1.8-0.9-3.6-2-5.3-3c-6.1-3.6-12.1-7.9-17.9-12.8
	c-14.3-10.9-38.4-40.5-35.3-62.9c0.1-0.5,0.2-1.1,0.4-1.6c1.2-3.4,0.9-6.6-0.4-11.5c-0.7-3.9-0.8-7.5-0.3-11.1
	c0.8-6.7,3.7-12.7,7.2-18.3c2.1-7.5,5.1-14.8,6.4-23c0.2-2.1,0.7-4.1,1.3-6.1c-4.3-8.1-4.9-16.8-8-26.3c-0.5-1.2-1-2.3-1.6-3.3
	c-0.9-1.7-1.7-3.4-2.5-4.9c-2.2-4.1-4.1-7.8-5.3-12.2c-0.4-1.3-0.8-2.8-1.1-4.3c-3.9-6.1-6.3-12.7-7.1-20c-0.8-4-1.3-8.1-1.6-12.4
	c-0.7-7.1-2.2-12.8-3.2-19.2c-0.5-5.2-0.7-10.9,0-16.5c0.9-7.5,3.1-14.8,7.6-20.4c3-2.7,5.3-5.3,7.5-8c2.5-3.1,4.9-6.4,8.3-10.1
	c4.2-3.9,9.3-6,13.9-9.2c0.8-0.5,1.5-1.1,2.3-1.6c0.2-0.4,3.5-3.8,3.7-4.2c0.6-0.7,1.1-1.4,1.7-2.1c1.7-5.8,3.8-12.2,7.4-17.8
	c4.3-6.7,10-12.6,16.3-16.8c2.7-1.8,5.4-3.2,8.2-4.3c4.1-0.7,7.9-2.1,11.7-3.8c3.1-1.2,6-3,9.4-3.9c1.8-0.5,3.7-0.9,5.7-1
	c2.7,0.2,4.6,0.1,7.2-0.3c1.2-0.2,2.4-0.4,3.8-0.6c3.4-0.6,6.8-1,10.2-1.1c9.1-0.4,18,0.7,26.5,3c2.2,0.6,4.4,1.3,6.6,2.1
	c3,0.3,6,0.8,8.9,1.4c0.3,0.1,0.6,0.1,0.9,0.2c0.5,0,1-0.1,1.4-0.1c5.3-0.5,10.3-1,14.8-1.7c5.3-5.2,11.2-11.3,18.7-16.8
	c0.3-0.4,5.2-3.6,5.5-3.9s5.7-2.5,6.2-2.8C416.8,249,424,247.7,431.1,247.7"/>
<path id="line-19" class="st0" d="M430.3,239.1L430.3,239.1c4.1,0,7.7,1,11.4,1.4c0.4,0,0.8,0.1,1.2,0.1c1.7,0.1,3.4,0.3,4.9,0.4
	c0.9-0.1,1.8-0.1,2.8-0.1c2.5,0,4.9,0.3,7.5,1.2c8.5,3.1,13.8,8.3,22.8,11.5c0.1,0,1.2-0.1,1.3-0.1c1.6-0.2,3.3-0.4,4.9-0.6
	c1.2,0,2.2,0,3.2,0.1c1.1-0.3,2.1-0.5,3.1-0.8c1.1-0.4,2.2-0.9,3.5-1.5c7-3.6,11.3-7.3,19.7-8.6c3.3-0.4,6.4-0.5,9.5-0.5
	c6.5,0,12.7,0.5,19.5,0.3c2.9,0,5.7,0.4,8.5,1.2c1.6,0.4,3.2,0.9,4.8,1.5c5.2,2,10.2,4.9,15,8.3c1.1-0.1,2.2-0.1,3.2-0.1
	c7.7-0.7,13.6,1,21.2,2.1c1.1,0.2,2.2,0.3,3.4,0.4c0.6,0,1.3,0.1,1.9,0.1c13.4,0.6,23.7-2.5,37,2.5c4.3,1.7,8.7,4.1,13.4,7.2
	c0.1,0,0.6,0.4,0.7,0.5s0.6,0.4,0.7,0.5c25.6,18.3,47.3,35.4,59.6,62.8c6.6,14.5,9.9,31,10,49.4c0,0.8,0.1,1.5,0.1,2.3
	c0.4,12.3,0.2,25.7-1.7,40.6c0.2,2.4,0.5,5.4,0.8,7.7c1.5,15.2,2.5,34.1-5.3,51.8c-3.2,9.5-6.6,18.4-11.8,27.1
	c-2.5,4.3-5.4,8.3-8.7,12.1c-5.7,6.6-12.3,12.2-19.8,16.7c-0.6,0.4-1.2,0.7-1.8,1.1c-8.7,10.2-19.4,18.3-31.9,24.5
	c-10.5,5.1-20.6,9-30.1,12.4c-1.3,0.8-3.1,2-4.5,2.9c-3.3,2.1-6.8,4.4-10.8,6.7c-3.4,1.9-7,3.8-10.9,5.6c0,0,0,0,0,0s0,0,0,0
	c-16,7.3-31,11.8-43.6,15.6c-14.2,4.3-22.8,7.1-30.3,12.4c-8.2,5.8-17,11-26.4,15.4c-6.6,3.2-13.6,5.5-20.9,7.2
	c-11.9,2.7-23.1,3.4-32.5,4c-3.3,0.2-6.4,0.4-9.1,0.6c-1.7,0.2-5.6,1.1-8.5,1.8c-10.2,2.4-23.2,6-38.8,6.6c-8.9,3.7-19,6.9-30.7,8.5
	c-2.5,0.3-5.1,0.6-7.7,0.8c-4.3,0.3-8.9,0.3-13.6,0.4c-1.1,0-2.3,0-3.5,0.1c-0.8,0-1.6,0.1-2.4,0.1c-5.4,0.6-10.9,0.8-16.5,0.7
	c-13.8,0.2-27.9-3.7-41.7-11.2c-1.9-1-3.7-2.1-5.6-3.2c-6.4-3.8-12.6-8.4-18.6-13.5c-14.8-11.5-39.3-41.7-36.6-65.3
	c0.1-0.6,0.2-1.2,0.3-1.7c1.2-3.6,0.8-7-0.4-12c-0.7-4-0.7-7.8-0.3-11.5c0.8-7,3.8-13.1,7.3-19.1c2-7.8,5.1-15.5,6.5-23.9
	c0.3-2.1,0.8-4.2,1.5-6.3c-4.5-8.4-5.4-17.4-8.6-27.2c-0.5-1.2-1.1-2.4-1.6-3.5c-0.9-1.8-1.7-3.5-2.5-5.2c-2.2-4.3-4.1-8.3-5.2-13
	c-0.4-1.4-0.8-2.9-1-4.6c-4.1-6.4-6.6-13.3-7.4-20.7c-0.9-4.1-1.5-8.4-1.8-12.9c-0.7-7.4-2.3-13.4-3.2-20
	c-0.5-5.4-0.6-11.4,0.2-17.2c1-7.8,3.3-15.3,7.9-21.2c3.1-2.9,5.4-5.6,7.7-8.5c2.6-3.3,5.1-6.6,8.7-10.4c4.4-4.1,9.6-6.3,14.3-9.6
	c0.8-0.6,1.6-1.1,2.4-1.7c0.2-0.4,3.7-3.9,3.8-4.4c0.6-0.7,1.2-1.4,1.8-2.1c1.8-6,4-12.6,7.7-18.5c4.4-7,10.4-13.1,16.8-17.5
	c2.8-1.9,5.6-3.4,8.5-4.6c4.2-0.9,8.2-2.4,12.2-4.2c3.2-1.3,6.3-3.1,9.8-4.1c1.9-0.6,3.9-0.9,6-1.1c2.8,0.2,4.8,0,7.5-0.4
	c1.2-0.2,2.6-0.4,4-0.6c3.5-0.6,7-1,10.6-1.1c9.4-0.4,18.7,0.8,27.6,3.3c2.3,0.6,4.6,1.4,6.8,2.2c3.1,0.3,6.2,0.8,9.3,1.4
	c0.3,0.1,0.6,0.1,0.9,0.2c0.5,0,1-0.1,1.5-0.1c5.5-0.5,10.7-1.1,15.4-1.7c5.5-5.4,11.7-11.8,19.5-17.4c0.3-0.4,5.4-3.8,5.8-4.1
	s6-2.6,6.4-2.9C415.2,240.5,422.7,239.1,430.3,239.1"/>
<path id="line-20" class="st0" d="M429.5,230.6L429.5,230.6c4.3,0,8,1,11.8,1.4c0.4,0,0.8,0.1,1.2,0.1c1.8,0.1,3.5,0.3,5.1,0.5
	c0.9-0.1,1.9-0.1,2.8-0.1c2.6,0,5.1,0.3,7.7,1.2c8.9,3,14.6,8.3,23.9,11.6c0.1,0,1.2-0.1,1.3-0.1c1.7-0.2,3.4-0.4,5.1-0.6
	c1.2,0,2.3,0,3.3,0c1.1-0.3,2.1-0.5,3.2-0.9c1.2-0.4,2.3-0.9,3.6-1.6c7.3-3.7,11.9-7.4,20.5-8.7c3.4-0.4,6.6-0.5,9.8-0.5
	c6.7,0,13.1,0.6,20.2,0.5c3,0.1,5.9,0.5,8.8,1.3c1.7,0.4,3.3,1,4.9,1.6c5.4,2.1,10.6,5.1,15.6,8.5c1.1-0.1,2.2-0.2,3.4-0.2
	c8-0.9,14.1,0.7,22.1,1.8c1.1,0.1,2.3,0.3,3.5,0.4c0.7,0,1.3,0.1,2,0.1c13.9,0.6,24.6-2.1,38.4,3.2c4.4,1.8,9,4.3,13.9,7.5
	c0.1,0,0.6,0.4,0.7,0.5c0.1,0,0.6,0.5,0.7,0.5c26.4,18.9,49,36.7,62,65.2c6.9,15.1,10.5,32.2,10.6,51.2c0,0.8,0.1,1.6,0.1,2.4
	c0.4,12.8,0.1,26.6-1.9,42.1c0.2,2.5,0.6,5.6,0.8,8c1.5,15.7,2.7,35.4-5.1,54c-3.3,10-6.8,19.3-12.2,28.3c-2.7,4.5-5.7,8.7-9.1,12.6
	c-5.9,6.9-12.9,12.7-20.7,17.5c-0.6,0.4-1.3,0.8-1.9,1.1c-9.1,10.7-20.2,19.2-33.2,25.8c-10.9,5.3-21.4,9.4-31.3,12.8
	c-1.4,0.9-3.2,2.1-4.7,3c-3.4,2.2-7.1,4.6-11.3,7c-3.5,2-7.2,3.9-11.3,5.8c0,0,0,0,0,0c0,0,0,0,0,0c-16.6,7.6-32.2,12.2-45.3,16.2
	c-14.8,4.5-23.8,7.4-31.5,12.8c-8.5,6.1-17.6,11.4-27.4,16c-6.9,3.3-14.1,5.7-21.7,7.4c-12.4,2.8-24,3.5-33.7,4.1
	c-3.4,0.2-6.7,0.4-9.4,0.6c-1.8,0.2-5.8,1.2-8.8,1.9c-10.6,2.5-24.2,6.2-40.4,6.9c-9.2,3.9-19.8,7.2-32,8.9c-2.6,0.4-5.3,0.7-8,0.9
	c-4.5,0.3-9.2,0.4-14.1,0.5c-1.2,0-2.4,0-3.6,0.1c-0.8,0-1.7,0.1-2.5,0.1c-5.6,0.5-11.4,0.7-17.2,0.6c-14.4,0.1-29.1-4-43.4-12
	c-1.9-1.1-3.9-2.2-5.8-3.4c-6.6-4-13.1-8.8-19.3-14.2c-15.3-12.1-40.2-43-37.9-67.8c0.1-0.6,0.2-1.2,0.3-1.8
	c1.1-3.8,0.7-7.4-0.5-12.5c-0.6-4.1-0.7-8.1-0.2-11.9c0.9-7.2,3.8-13.6,7.5-19.8c2-8.1,5-16.1,6.6-24.8c0.3-2.2,0.9-4.4,1.6-6.5
	c-4.8-8.7-5.9-17.9-9.2-28.1c-0.5-1.3-1.1-2.5-1.6-3.6c-0.9-1.9-1.7-3.7-2.5-5.4c-2.1-4.6-4-8.8-5.1-13.8c-0.4-1.5-0.7-3.1-1-4.8
	c-4.2-6.7-6.8-13.9-7.8-21.4c-0.9-4.3-1.6-8.8-1.9-13.4c-0.8-7.6-2.3-13.9-3.2-20.7c-0.5-5.6-0.5-11.8,0.3-17.8
	c1.1-8.1,3.5-15.9,8.2-22c3.1-3,5.5-5.9,7.9-8.9c2.8-3.4,5.3-6.9,9-10.8c4.5-4.2,9.9-6.6,14.8-10c0.8-0.6,1.7-1.1,2.5-1.7
	c0.2-0.4,3.9-4.1,4-4.5c0.6-0.7,1.3-1.5,1.9-2.2c1.9-6.2,4.2-13,8.1-19.1c4.6-7.3,10.7-13.7,17.4-18.3c2.9-2,5.8-3.6,8.8-4.9
	c4.3-1,8.5-2.7,12.7-4.5c3.4-1.3,6.5-3.2,10.1-4.2c2-0.6,4-1,6.2-1.2c2.9,0.1,5-0.1,7.8-0.5c1.3-0.2,2.7-0.4,4.1-0.6
	c3.6-0.6,7.3-1,11-1.2c9.8-0.4,19.4,0.9,28.6,3.5c2.4,0.7,4.8,1.5,7.1,2.3c3.2,0.3,6.4,0.9,9.6,1.5c0.3,0.1,0.6,0.1,0.9,0.2
	c0.5,0,1-0.1,1.5-0.1c5.8-0.5,11.1-1.1,16-1.8c5.7-5.6,12.1-12.2,20.3-18c0.3-0.4,5.7-3.9,6-4.2s6.3-2.7,6.7-2.9
	C413.6,232,421.5,230.6,429.5,230.6"/>
<path id="line-21" class="st0" d="M428.6,222L428.6,222c4.4,0,8.3,1,12.2,1.4c0.4,0,0.8,0.1,1.2,0.1c1.8,0.2,3.6,0.3,5.2,0.5
	c1-0.1,2-0.1,2.9-0.1c2.7,0,5.3,0.3,8,1.2c9.2,3,15.4,8.3,25,11.8c0.1,0,1.2-0.1,1.3-0.1c1.8-0.2,3.5-0.4,5.2-0.6c1.2,0,2.4,0,3.4,0
	c1.1-0.3,2.2-0.6,3.3-1c1.2-0.4,2.4-0.9,3.7-1.6c7.5-3.8,12.5-7.5,21.3-8.8c3.5-0.4,6.8-0.5,10.1-0.5c7,0,13.6,0.6,20.9,0.6
	c3.1,0.1,6.1,0.6,9.1,1.4c1.7,0.4,3.4,1,5.1,1.6c5.6,2.1,11,5.2,16.1,8.8c1.2-0.1,2.3-0.2,3.5-0.3c8.2-1,14.7,0.5,23,1.5
	c1.2,0.1,2.4,0.3,3.7,0.4c0.7,0,1.4,0.1,2,0.1c14.3,0.7,25.6-1.7,39.8,3.8c4.6,1.9,9.3,4.5,14.3,7.8c0.1,0,0.7,0.5,0.7,0.5
	s0.7,0.5,0.7,0.5c27.3,19.5,50.7,38,64.3,67.5c7.3,15.7,11,33.4,11.2,53.1c0,0.8,0.1,1.7,0.1,2.5c0.4,13.2,0.1,27.6-2,43.7
	c0.2,2.6,0.6,5.8,0.9,8.3c1.6,16.2,2.9,36.6-4.9,56.1c-3.3,10.5-7,20.2-12.6,29.6c-2.8,4.7-5.9,9.1-9.5,13.1
	c-6.2,7.2-13.4,13.3-21.5,18.2c-0.7,0.4-1.3,0.8-2,1.2c-9.4,11.2-21,20.1-34.6,27c-11.3,5.5-22.2,9.7-32.5,13.2
	c-1.4,0.9-3.3,2.1-4.9,3.1c-3.5,2.3-7.4,4.8-11.7,7.2c-3.6,2-7.5,4.1-11.7,6c0,0,0,0,0,0c0,0,0,0,0,0c-17.2,7.9-33.4,12.7-46.9,16.8
	c-15.5,4.7-24.7,7.7-32.6,13.3c-8.8,6.3-18.3,11.9-28.4,16.6c-7.1,3.3-14.7,5.9-22.5,7.7c-12.8,2.9-24.9,3.7-35,4.2
	c-3.5,0.2-6.9,0.4-9.8,0.7c-1.8,0.2-6,1.2-9.2,2c-11,2.6-25.1,6.5-42,7.1c-9.6,4.1-20.6,7.5-33.2,9.3c-2.7,0.4-5.5,0.7-8.3,0.9
	c-4.7,0.4-9.6,0.4-14.7,0.5c-1.2,0-2.5,0-3.8,0.1c-0.9,0-1.7,0.1-2.6,0.1c-5.8,0.5-11.9,0.7-18,0.5c-15,0-30.3-4.4-45.1-12.8
	c-2-1.1-4-2.3-6-3.6c-6.9-4.2-13.6-9.3-20-15c-15.8-12.8-41.1-44.2-39.2-70.2c0.1-0.6,0.2-1.3,0.3-1.9c1-3.9,0.7-7.7-0.5-13
	c-0.6-4.3-0.6-8.3-0.1-12.3c0.9-7.4,3.9-14.1,7.6-20.5c2-8.4,5-16.7,6.7-25.7c0.3-2.3,0.9-4.5,1.7-6.7c-5-8.9-6.4-18.5-9.8-29
	c-0.5-1.3-1.1-2.6-1.6-3.8c-0.9-2-1.7-3.9-2.5-5.7c-2.1-4.8-4-9.4-5.1-14.5c-0.4-1.6-0.7-3.2-0.9-5c-4.4-7-7.1-14.5-8.1-22.2
	c-1-4.5-1.7-9.1-2.1-13.8c-0.8-7.8-2.4-14.4-3.2-21.5c-0.4-5.9-0.4-12.2,0.5-18.5c1.2-8.3,3.7-16.4,8.5-22.8
	c3.1-3.1,5.6-6.2,8.1-9.3c2.9-3.5,5.6-7.2,9.4-11.1c4.7-4.3,10.2-6.9,15.3-10.4c0.9-0.6,1.7-1.2,2.6-1.8c0.2-0.3,4.1-4.2,4.2-4.6
	c0.7-0.8,1.3-1.5,2-2.2c1.9-6.4,4.4-13.4,8.4-19.7c4.8-7.5,11.1-14.2,18-19c3-2.1,6-3.9,9.1-5.2c4.5-1.2,8.8-3,13.1-4.9
	c3.5-1.4,6.8-3.3,10.5-4.4c2.1-0.6,4.2-1.1,6.4-1.3c3,0.1,5.3-0.2,8.1-0.6c1.3-0.2,2.8-0.4,4.3-0.6c3.8-0.6,7.6-1,11.4-1.2
	c10.1-0.4,20.1,1,29.6,3.7c2.5,0.7,4.9,1.5,7.4,2.4c3.3,0.4,6.7,0.9,10,1.6c0.3,0.1,0.6,0.1,1,0.2c0.5,0,1.1-0.1,1.6-0.1
	c6-0.5,11.5-1.1,16.6-1.8c5.8-5.8,12.6-12.6,21.1-18.6c0.3-0.4,5.9-4,6.2-4.3s6.6-2.8,6.9-3C411.9,223.5,420.2,222,428.6,222"/>
<path id="line-22" class="st0" d="M427.8,213.5L427.8,213.5c4.5,0,8.6,1,12.6,1.4c0.4,0,0.8,0.1,1.3,0.1c1.9,0.2,3.7,0.3,5.4,0.6
	c1-0.1,2-0.1,3-0.1c2.8,0,5.5,0.3,8.3,1.2c9.6,2.9,16.2,8.2,26.1,11.9c0.1,0,1.3-0.1,1.4-0.1c1.8-0.2,3.6-0.4,5.4-0.6
	c1.3,0,2.4,0,3.5,0c1.2-0.3,2.3-0.6,3.4-1c1.2-0.4,2.5-1,3.8-1.6c7.8-3.8,13.1-7.5,22.2-8.9c3.6-0.4,7.1-0.5,10.5-0.5
	c7.2,0,14.1,0.6,21.6,0.7c3.2,0.2,6.3,0.7,9.4,1.5c1.8,0.5,3.5,1,5.3,1.7c5.7,2.2,11.3,5.4,16.6,9c1.2-0.1,2.4-0.2,3.6-0.3
	c8.5-1.1,15.3,0.2,23.8,1.2c1.2,0.1,2.5,0.3,3.8,0.4c0.7,0,1.4,0.1,2.1,0.1c14.7,0.7,26.6-1.3,41.2,4.5c4.7,2,9.6,4.7,14.8,8.1
	c0,0,0.7,0.5,0.7,0.5c0.1,0,0.7,0.5,0.7,0.5c28.1,20.1,52.5,39.3,66.6,69.9c7.6,16.3,11.5,34.6,11.8,54.9c0,0.9,0.1,1.7,0.1,2.6
	c0.5,13.7,0.1,28.5-2.2,45.2c0.2,2.7,0.6,6,0.9,8.6c1.7,16.7,3.1,37.9-4.8,58.2c-3.4,10.9-7.3,21.1-13.1,30.9
	c-2.9,4.9-6.2,9.4-9.8,13.7c-6.4,7.5-14,13.8-22.4,19c-0.7,0.4-1.4,0.8-2.1,1.2c-9.8,11.7-21.9,21.1-36,28.2
	c-11.7,5.8-23,10.1-33.7,13.6c-1.5,0.9-3.4,2.2-5,3.2c-3.6,2.3-7.6,4.9-12.1,7.5c-3.7,2.1-7.8,4.2-12.1,6.3c0,0,0,0,0,0s0,0,0,0
	c-17.8,8.2-34.7,13.2-48.6,17.5c-16.1,4.9-25.6,8-33.8,13.8c-9.1,6.6-18.9,12.3-29.4,17.2c-7.4,3.4-15.2,6-23.4,7.9
	c-13.3,3-25.8,3.8-36.3,4.4c-3.7,0.2-7.2,0.4-10.1,0.7c-1.9,0.2-6.2,1.3-9.5,2.1c-11.4,2.7-26,6.7-43.6,7.4
	c-9.9,4.3-21.3,7.8-34.5,9.7c-2.8,0.4-5.7,0.7-8.7,1c-4.9,0.4-10,0.5-15.3,0.6c-1.3,0-2.6,0-3.9,0.1c-0.9,0-1.8,0.1-2.7,0.1
	c-6.1,0.5-12.4,0.6-18.7,0.4c-15.6-0.1-31.4-4.7-46.9-13.5c-2.1-1.2-4.2-2.4-6.2-3.7c-7.1-4.5-14.1-9.7-20.7-15.7
	c-16.3-13.4-42.1-45.5-40.5-72.6c0.1-0.7,0.2-1.3,0.2-2c0.9-4.1,0.6-8.1-0.6-13.5c-0.6-4.4-0.6-8.6,0-12.7c1-7.7,4-14.6,7.8-21.2
	c1.9-8.7,5-17.4,6.8-26.6c0.4-2.3,1-4.6,1.8-6.9c-5.3-9.2-6.9-19.1-10.4-29.9c-0.6-1.3-1.1-2.7-1.6-3.9c-0.9-2.1-1.7-4-2.5-6
	c-2.1-5.1-3.9-9.9-5-15.3c-0.4-1.6-0.7-3.4-0.9-5.3c-4.5-7.3-7.3-15.1-8.5-22.9c-1-4.6-1.8-9.4-2.2-14.3c-0.9-8.1-2.4-14.9-3.2-22.3
	c-0.4-6.1-0.3-12.7,0.6-19.1c1.3-8.6,3.9-16.9,8.8-23.6c3.2-3.3,5.7-6.5,8.3-9.7c3-3.7,5.8-7.4,9.7-11.5c4.8-4.5,10.5-7.2,15.8-10.8
	c0.9-0.6,1.8-1.2,2.7-1.8c0.2-0.3,4.3-4.3,4.3-4.8c0.7-0.8,1.4-1.5,2.1-2.3c2-6.6,4.6-13.8,8.7-20.4c4.9-7.8,11.4-14.7,18.5-19.8
	c3-2.2,6.2-4.1,9.4-5.5c4.6-1.4,9.1-3.3,13.6-5.3c3.6-1.5,7-3.4,10.9-4.5c2.1-0.7,4.3-1.1,6.7-1.4c3.1,0,5.5-0.3,8.5-0.7
	c1.4-0.2,2.9-0.4,4.4-0.7c3.9-0.7,7.9-1,11.8-1.2c10.5-0.4,20.8,1.1,30.7,3.9c2.6,0.8,5.1,1.6,7.6,2.6c3.5,0.4,6.9,0.9,10.3,1.7
	c0.3,0.1,0.7,0.2,1,0.2c0.6-0.1,1.1-0.1,1.6-0.2c6.2-0.6,11.9-1.2,17.2-1.8c6-6,13-13.1,21.8-19.2c0.3-0.3,6.2-4.2,6.5-4.5
	c0.3-0.3,6.8-2.9,7.2-3.1C410.3,215,419,213.5,427.8,213.5"/>
<path id="line-23" class="st0" d="M426.9,204.9L426.9,204.9c4.7,0,8.8,1,13,1.5c0.4,0.1,0.9,0.1,1.3,0.1c2,0.2,3.8,0.4,5.6,0.6
	c1-0.1,2.1-0.1,3.1-0.1c2.9,0,5.7,0.3,8.6,1.2c9.9,2.9,17,8.2,27.2,12.1c0.1,0,1.3-0.1,1.4-0.1c1.9-0.2,3.7-0.4,5.6-0.6
	c1.3,0,2.5,0,3.6,0c1.2-0.3,2.3-0.7,3.5-1.1c1.3-0.5,2.6-1,3.9-1.7c8-3.9,13.7-7.6,23-9c3.7-0.4,7.3-0.6,10.8-0.6
	c7.4,0,14.5,0.6,22.3,0.9c3.3,0.2,6.5,0.8,9.7,1.6c1.8,0.5,3.6,1.1,5.4,1.8c5.9,2.3,11.7,5.5,17.2,9.3c1.2-0.2,2.5-0.3,3.7-0.4
	c8.7-1.2,15.9,0,24.7,1c1.3,0.1,2.6,0.3,3.9,0.4c0.7,0,1.4,0.1,2.2,0.1c15.2,0.7,27.5-0.9,42.5,5.1c4.9,2.1,9.9,4.8,15.2,8.4
	c0,0,0.7,0.5,0.8,0.5c0,0,0.7,0.5,0.8,0.5c29,20.7,54.2,40.6,69,72.2c7.9,16.8,12.1,35.8,12.4,56.8c0,0.9,0.1,1.8,0.1,2.7
	c0.5,14.2,0,29.5-2.3,46.8c0.3,2.7,0.6,6.2,0.9,8.9c1.7,17.2,3.3,39.1-4.6,60.3c-3.4,11.4-7.5,22-13.5,32.2
	c-3,5.1-6.4,9.8-10.2,14.2c-6.7,7.8-14.5,14.4-23.3,19.7c-0.7,0.4-1.4,0.9-2.2,1.3c-10.2,12.2-22.7,22-37.3,29.4
	c-12.1,6-23.8,10.4-34.9,14.1c-1.5,1-3.5,2.3-5.2,3.4c-3.7,2.4-7.9,5.1-12.5,7.8c-3.9,2.2-8,4.4-12.5,6.5c0,0,0,0,0,0s0,0,0,0
	c-18.5,8.5-35.9,13.7-50.3,18.1c-16.7,5.1-26.5,8.3-34.9,14.3c-9.4,6.9-19.6,12.8-30.5,17.8c-7.7,3.5-15.7,6.2-24.2,8.1
	c-13.8,3.1-26.7,3.9-37.5,4.5c-3.8,0.2-7.4,0.4-10.5,0.7c-1.9,0.2-6.4,1.3-9.8,2.2c-11.8,2.8-27,7-45.2,7.6
	c-10.3,4.4-22.1,8.1-35.8,10.1c-2.9,0.4-5.9,0.8-9,1c-5,0.4-10.3,0.5-15.8,0.6c-1.3,0-2.7,0.1-4.1,0.1c-0.9,0-1.9,0.1-2.8,0.1
	c-6.3,0.5-12.8,0.6-19.4,0.3c-16.2-0.2-32.6-5-48.6-14.3c-2.2-1.2-4.3-2.5-6.4-3.9c-7.3-4.7-14.5-10.2-21.4-16.4
	c-16.8-14-43-46.7-41.8-75c0.1-0.7,0.1-1.4,0.2-2.1c0.9-4.3,0.5-8.4-0.6-13.9c-0.6-4.5-0.5-8.9,0-13.1c1-7.9,4.1-15.1,7.9-21.9
	c1.9-9,4.9-18,6.9-27.5c0.4-2.4,1.1-4.8,1.9-7.1c-5.5-9.4-7.4-19.6-11-30.8c-0.6-1.4-1.1-2.8-1.7-4.1c-0.9-2.1-1.7-4.2-2.6-6.2
	c-2.1-5.3-3.9-10.4-4.9-16.1c-0.4-1.7-0.6-3.5-0.8-5.5c-4.7-7.6-7.6-15.7-8.8-23.6c-1.1-4.8-1.9-9.7-2.4-14.7
	c-1-8.3-2.4-15.4-3.2-23c-0.4-6.3-0.2-13.1,0.8-19.7c1.3-8.9,4.2-17.4,9.1-24.3c3.2-3.4,5.8-6.8,8.5-10.1c3.1-3.8,6-7.7,10-11.8
	c5-4.6,10.8-7.5,16.3-11.2c0.9-0.6,1.9-1.2,2.8-1.9c0.2-0.3,4.4-4.5,4.5-4.9c0.7-0.8,1.4-1.6,2.1-2.4c2.1-6.8,4.7-14.2,9.1-21
	c5.1-8.1,11.8-15.2,19.1-20.5c3.1-2.3,6.4-4.3,9.7-5.8c4.8-1.5,9.4-3.6,14.1-5.7c3.7-1.5,7.3-3.5,11.2-4.7c2.2-0.7,4.5-1.2,6.9-1.5
	c3.2-0.1,5.7-0.4,8.8-0.8c1.5-0.2,3-0.5,4.6-0.7c4-0.7,8.1-1.1,12.2-1.2c10.9-0.3,21.5,1.1,31.7,4.2c2.7,0.8,5.3,1.7,7.9,2.7
	c3.6,0.4,7.1,1,10.7,1.8c0.3,0.1,0.7,0.2,1,0.2c0.6-0.1,1.1-0.1,1.7-0.2c6.4-0.6,12.3-1.2,17.8-1.8c6.2-6.3,13.4-13.5,22.6-19.8
	c0.3-0.3,6.4-4.3,6.7-4.6c0.3-0.3,7.1-3,7.5-3.2C408.7,206.6,417.8,204.9,426.9,204.9"/>
<path id="line-24" class="st0" d="M426.1,196.4L426.1,196.4c4.8,0,9.1,1,13.4,1.5c0.5,0.1,0.9,0.1,1.4,0.1c2,0.2,3.9,0.4,5.7,0.7
	c1.1-0.1,2.1-0.1,3.2-0.1c2.9,0,5.9,0.3,8.8,1.1c10.3,2.9,17.8,8.2,28.3,12.2c0.1,0,1.4-0.1,1.5-0.1c1.9-0.2,3.9-0.4,5.7-0.6
	c1.3,0,2.6,0,3.7,0c1.2-0.4,2.4-0.7,3.6-1.2c1.3-0.5,2.7-1,4.1-1.7c8.3-4,14.3-7.7,23.8-9c3.8-0.4,7.5-0.6,11.1-0.6
	c7.7,0,15,0.7,22.9,1c3.4,0.2,6.7,0.9,10,1.8c1.9,0.5,3.7,1.1,5.6,1.8c6.1,2.4,12,5.7,17.7,9.5c1.3-0.2,2.6-0.3,3.9-0.5
	c9-1.3,16.5-0.2,25.6,0.7c1.3,0.1,2.7,0.3,4,0.4c0.7,0,1.5,0.1,2.2,0.1c15.6,0.8,28.5-0.6,43.9,5.8c5,2.2,10.2,5,15.6,8.7
	c0,0,0.7,0.5,0.8,0.5c0,0,0.7,0.5,0.8,0.6c29.8,21.3,55.9,41.9,71.3,74.6c8.2,17.4,12.6,37,13,58.6c0,0.9,0.1,1.8,0.1,2.8
	c0.5,14.7,0,30.5-2.5,48.3c0.3,2.8,0.7,6.4,1,9.2c1.8,17.7,3.5,40.4-4.5,62.5c-3.5,11.9-7.7,22.9-14,33.4
	c-3.1,5.2-6.7,10.2-10.6,14.8c-6.9,8-15.1,14.9-24.2,20.5c-0.7,0.5-1.5,0.9-2.3,1.3c-10.5,12.7-23.5,22.9-38.7,30.6
	c-12.5,6.2-24.6,10.8-36,14.5c-1.6,1-3.7,2.4-5.4,3.5c-3.8,2.5-8.1,5.3-12.9,8c-4,2.3-8.3,4.5-12.9,6.7c0,0,0,0,0,0c0,0,0,0,0,0
	c-19.1,8.8-37.1,14.2-52,18.7c-17.3,5.2-27.4,8.5-36.1,14.8c-9.7,7.1-20.2,13.2-31.5,18.4c-7.9,3.6-16.3,6.4-25,8.4
	c-14.3,3.2-27.6,4-38.8,4.7c-3.9,0.2-7.7,0.4-10.8,0.7c-2,0.2-6.6,1.4-10.1,2.2c-12.1,3-27.9,7.2-46.9,7.9
	c-10.6,4.6-22.9,8.4-37,10.5c-3,0.4-6.1,0.8-9.3,1.1c-5.2,0.4-10.7,0.5-16.4,0.7c-1.4,0-2.8,0.1-4.2,0.1c-1,0-1.9,0.1-2.9,0.1
	c-6.6,0.4-13.3,0.5-20.2,0.2c-16.8-0.2-33.8-5.4-50.3-15.1c-2.2-1.3-4.4-2.7-6.7-4.1c-7.6-4.9-15-10.6-22.1-17.2
	c-17.3-14.7-43.9-48-43.1-77.5c0.1-0.7,0.1-1.5,0.2-2.2c0.8-4.5,0.4-8.8-0.6-14.4c-0.5-4.7-0.5-9.1,0.1-13.5
	c1-8.2,4.1-15.6,8.1-22.7c1.8-9.4,4.9-18.6,7-28.3c0.5-2.5,1.2-4.9,2-7.3c-5.8-9.7-8-20.2-11.6-31.7c-0.6-1.4-1.1-2.8-1.7-4.2
	c-0.9-2.2-1.8-4.4-2.6-6.5c-2.1-5.5-3.9-10.9-4.8-16.8c-0.3-1.8-0.6-3.7-0.8-5.7c-4.8-8-7.8-16.2-9.1-24.4c-1.2-4.9-2-10-2.5-15.2
	c-1-8.5-2.5-15.9-3.2-23.8c-0.4-6.6-0.1-13.5,0.9-20.4c1.4-9.1,4.4-17.9,9.4-25.1c3.2-3.6,5.9-7,8.7-10.5c3.2-4,6.2-7.9,10.4-12.2
	c5.1-4.8,11.1-7.9,16.7-11.6c1-0.6,1.9-1.3,2.9-1.9c0.2-0.3,4.6-4.6,4.7-5c0.7-0.8,1.5-1.6,2.2-2.4c2.2-7,4.9-14.6,9.4-21.7
	c5.3-8.3,12.1-15.7,19.7-21.3c3.2-2.4,6.6-4.5,10-6.2c4.9-1.7,9.7-3.9,14.6-6.1c3.8-1.6,7.5-3.6,11.6-4.8c2.3-0.7,4.6-1.3,7.1-1.6
	c3.3-0.1,5.9-0.5,9.1-0.9c1.5-0.2,3.1-0.5,4.7-0.7c4.2-0.7,8.4-1.1,12.6-1.2c11.2-0.3,22.2,1.2,32.7,4.4c2.7,0.8,5.4,1.8,8.1,2.8
	c3.7,0.4,7.4,1,11,1.8c0.4,0.1,0.7,0.2,1.1,0.3c0.6-0.1,1.2-0.1,1.8-0.2c6.6-0.6,12.7-1.2,18.4-1.8c6.4-6.5,13.9-13.9,23.4-20.4
	c0.3-0.3,6.7-4.5,6.9-4.7c0.3-0.3,7.4-3,7.7-3.3C407,198.1,416.5,196.4,426.1,196.4"/>
<path id="line-25" class="st0" d="M425.3,187.8L425.3,187.8c5,0,9.4,1,13.8,1.5c0.5,0.1,0.9,0.1,1.4,0.2c2.1,0.2,4,0.4,5.9,0.7
	c1.1-0.1,2.2-0.1,3.3-0.1c3,0,6.1,0.3,9.1,1.1c10.7,2.8,18.6,8.1,29.3,12.4c0.1,0,1.4-0.1,1.5-0.2c2-0.2,4-0.4,5.9-0.6
	c1.4,0,2.6,0,3.8,0c1.3-0.4,2.5-0.8,3.7-1.2c1.4-0.5,2.7-1.1,4.2-1.8c8.5-4,14.9-7.7,24.7-9.1c3.9-0.4,7.7-0.6,11.4-0.6
	c7.9,0,15.5,0.7,23.6,1.2c3.5,0.3,6.9,0.9,10.3,1.9c1.9,0.5,3.8,1.2,5.7,1.9c6.3,2.4,12.4,5.8,18.2,9.8c1.3-0.2,2.7-0.4,4-0.5
	c9.2-1.4,17.1-0.5,26.4,0.4c1.4,0.1,2.7,0.2,4.1,0.4c0.8,0,1.5,0.1,2.3,0.1c16,0.8,29.5-0.2,45.3,6.4c5.2,2.3,10.5,5.2,16.1,9
	c0,0,0.8,0.5,0.8,0.6s0.8,0.5,0.8,0.6c30.7,21.9,57.7,43.2,73.7,76.9c8.6,18,13.1,38.2,13.6,60.5c0,0.9,0.1,1.9,0.1,2.9
	c0.5,15.1,0,31.4-2.7,49.9c0.3,2.9,0.7,6.6,1,9.5c1.9,18.2,3.7,41.6-4.3,64.6c-3.6,12.4-7.9,23.8-14.4,34.7
	c-3.2,5.4-6.9,10.5-11,15.3c-7.2,8.3-15.6,15.5-25.1,21.3c-0.8,0.5-1.6,0.9-2.3,1.4c-10.9,13.2-24.3,23.8-40,31.9
	c-12.9,6.5-25.4,11.1-37.2,14.9c-1.6,1-3.8,2.4-5.5,3.6c-4,2.6-8.4,5.4-13.3,8.3c-4.1,2.3-8.5,4.7-13.3,6.9c0,0,0,0,0,0s0,0,0,0
	c-19.7,9.1-38.3,14.7-53.6,19.3c-17.9,5.4-28.3,8.8-37.3,15.3c-10,7.4-20.9,13.7-32.5,18.9c-8.2,3.7-16.8,6.6-25.8,8.6
	c-14.8,3.3-28.6,4.1-40,4.8c-4.1,0.2-7.9,0.5-11.2,0.8c-2,0.2-6.8,1.4-10.4,2.3c-12.5,3.1-28.8,7.5-48.5,8.1
	c-11,4.8-23.6,8.7-38.3,10.9c-3.1,0.5-6.3,0.8-9.6,1.1c-5.4,0.5-11.1,0.6-17,0.7c-1.4,0-2.9,0.1-4.3,0.1c-1,0-2,0-3,0.1
	c-6.8,0.4-13.8,0.4-20.9,0.1c-17.4-0.3-34.9-5.7-52-15.8c-2.3-1.3-4.6-2.8-6.9-4.3c-7.8-5.1-15.5-11.1-22.8-17.9
	C168,661.9,141,628,141.4,597.4c0.1-0.8,0.1-1.5,0.1-2.3c0.7-4.6,0.3-9.1-0.7-14.9c-0.5-4.8-0.4-9.4,0.2-13.9
	c1.1-8.4,4.2-16.1,8.2-23.4c1.8-9.7,4.9-19.2,7.1-29.2c0.5-2.5,1.2-5.1,2.2-7.5c-6-10-8.5-20.7-12.2-32.6c-0.6-1.5-1.1-2.9-1.7-4.4
	c-0.9-2.3-1.8-4.5-2.6-6.8c-2.1-5.8-3.8-11.4-4.7-17.6c-0.3-1.9-0.6-3.9-0.7-6c-4.9-8.3-8.1-16.8-9.5-25.1
	c-1.2-5.1-2.1-10.3-2.7-15.6c-1.1-8.8-2.5-16.4-3.2-24.5c-0.3-6.8-0.1-14,1.1-21c1.5-9.4,4.6-18.4,9.7-25.9c3.3-3.7,6-7.3,8.9-10.9
	c3.3-4.1,6.5-8.2,10.7-12.5c5.3-4.9,11.4-8.2,17.2-12c1-0.7,2-1.3,3-2c0.2-0.3,4.8-4.8,4.9-5.2c0.8-0.8,1.5-1.7,2.3-2.5
	c2.3-7.2,5.1-15,9.8-22.3c5.5-8.6,12.5-16.2,20.3-22c3.3-2.5,6.8-4.7,10.3-6.5c5.1-1.9,10-4.2,15.1-6.5c3.9-1.7,7.8-3.7,12-5
	c2.4-0.7,4.8-1.3,7.3-1.7c3.4-0.2,6.1-0.6,9.4-1.1c1.6-0.2,3.2-0.5,4.9-0.7c4.3-0.7,8.7-1.1,13-1.2c11.6-0.3,22.9,1.3,33.8,4.6
	c2.8,0.9,5.6,1.8,8.4,2.9c3.8,0.4,7.6,1.1,11.4,1.9c0.4,0.1,0.7,0.2,1.1,0.3c0.6-0.1,1.2-0.1,1.8-0.2c6.8-0.6,13.1-1.2,19-1.8
	c6.6-6.7,14.3-14.3,24.2-21.1c0.2-0.3,6.9-4.6,7.2-4.9c0.3-0.3,7.7-3.1,8-3.3C405.4,189.6,415.3,187.8,425.3,187.8"/>
<path id="line-26" class="st0" d="M424.4,179.3L424.4,179.3c5.1,0,9.7,0.9,14.2,1.5c0.5,0.1,1,0.1,1.4,0.2c2.1,0.2,4.1,0.5,6.1,0.8
	c1.1-0.1,2.3-0.1,3.4-0.1c3.1,0,6.2,0.3,9.4,1.1c11,2.8,19.4,8.1,30.4,12.5c0.1,0,1.5-0.1,1.6-0.2c2.1-0.2,4.1-0.4,6.1-0.6
	c1.4,0,2.7-0.1,3.9,0c1.3-0.4,2.5-0.8,3.8-1.3c1.4-0.5,2.8-1.1,4.3-1.8c8.8-4.1,15.5-7.8,25.5-9.2c4-0.4,7.9-0.6,11.8-0.6
	c8.1,0,15.9,0.7,24.3,1.3c3.6,0.3,7.1,1,10.6,2c2,0.6,3.9,1.2,5.9,2c6.5,2.5,12.8,6,18.8,10c1.4-0.2,2.7-0.4,4.1-0.6
	c9.5-1.6,17.6-0.7,27.3,0.1c1.4,0.1,2.8,0.2,4.3,0.4c0.8,0,1.6,0.1,2.4,0.1c16.5,0.8,30.4,0.2,46.7,7.1c5.3,2.4,10.8,5.4,16.5,9.3
	c0,0,0.8,0.5,0.8,0.6s0.8,0.6,0.8,0.6c31.5,22.5,59.4,44.5,76,79.3c8.9,18.6,13.6,39.4,14.2,62.3c0,1,0.1,2,0.1,3
	c0.6,15.6-0.1,32.4-2.8,51.4c0.3,3,0.7,6.8,1,9.8c2,18.7,3.9,42.9-4.2,66.7c-3.6,12.8-8.1,24.7-14.8,36c-3.3,5.6-7.1,10.9-11.4,15.9
	c-7.4,8.6-16.2,16-26,22c-0.8,0.5-1.6,1-2.4,1.4c-11.2,13.7-25.1,24.7-41.4,33.1c-13.3,6.7-26.2,11.5-38.4,15.3
	c-1.7,1.1-3.9,2.5-5.7,3.7c-4.1,2.7-8.6,5.6-13.7,8.5c-4.2,2.4-8.8,4.9-13.8,7.2c0,0,0,0,0,0c0,0,0,0,0,0
	c-20.4,9.4-39.5,15.2-55.3,20c-18.5,5.6-29.3,9.1-38.4,15.8c-10.3,7.6-21.5,14.1-33.5,19.5c-8.4,3.8-17.4,6.7-26.7,8.8
	c-15.3,3.4-29.5,4.3-41.3,4.9c-4.2,0.2-8.2,0.5-11.5,0.8c-2.1,0.2-7,1.5-10.8,2.4c-12.9,3.2-29.8,7.8-50.1,8.4
	c-11.3,5-24.4,9-39.6,11.3c-3.2,0.5-6.5,0.9-9.9,1.2c-5.6,0.5-11.4,0.6-17.5,0.8c-1.5,0-3,0.1-4.5,0.1c-1,0-2.1,0-3.1,0.1
	c-7.1,0.4-14.3,0.4-21.6,0c-17.9-0.4-36.1-6-53.8-16.6c-2.4-1.4-4.7-2.9-7.1-4.5c-8.1-5.3-16-11.6-23.6-18.6
	c-18.2-16-45.7-50.5-45.7-82.3c0-0.8,0.1-1.6,0.1-2.4c0.6-4.8,0.2-9.5-0.7-15.4c-0.5-4.9-0.4-9.7,0.3-14.3
	c1.1-8.6,4.3-16.5,8.3-24.1c1.7-10,4.8-19.9,7.2-30.1c0.6-2.6,1.3-5.2,2.3-7.8c-6.3-10.2-9-21.3-12.8-33.5c-0.6-1.5-1.1-3-1.7-4.5
	c-0.9-2.4-1.8-4.7-2.6-7c-2.1-6-3.8-11.9-4.6-18.4c-0.3-2-0.5-4-0.7-6.2c-5.1-8.6-8.3-17.4-9.8-25.9c-1.3-5.2-2.2-10.6-2.8-16.1
	c-1.1-9-2.6-16.9-3.2-25.3c-0.3-7,0-14.4,1.2-21.6c1.6-9.7,4.8-18.9,10-26.7c3.3-3.9,6.1-7.6,9.1-11.3c3.4-4.2,6.7-8.5,11.1-12.9
	c5.4-5,11.7-8.5,17.7-12.4c1-0.7,2.1-1.3,3.1-2c0.2-0.3,5-4.9,5-5.3c0.8-0.9,1.6-1.7,2.4-2.5c2.3-7.4,5.3-15.4,10.1-22.9
	c5.6-8.9,12.9-16.7,20.8-22.8c3.4-2.6,7-4.9,10.6-6.8c5.2-2,10.3-4.5,15.5-6.9c4.1-1.7,8-3.9,12.3-5.2c2.4-0.8,5-1.4,7.6-1.8
	c3.5-0.2,6.3-0.6,9.7-1.2c1.6-0.3,3.3-0.5,5-0.7c4.4-0.7,8.9-1.1,13.4-1.2c11.9-0.3,23.6,1.4,34.8,4.8c2.9,0.9,5.8,1.9,8.6,3
	c3.9,0.4,7.8,1.1,11.7,2c0.4,0.1,0.8,0.2,1.1,0.3c0.6-0.1,1.2-0.1,1.9-0.2c7-0.7,13.5-1.3,19.6-1.8c6.7-6.9,14.8-14.8,24.9-21.7
	c0.2-0.3,7.2-4.8,7.4-5c0.3-0.3,7.9-3.2,8.2-3.4C403.8,181.1,414,179.3,424.4,179.3"/>
<path id="line-27" class="st0" d="M423.6,170.7L423.6,170.7c5.2,0,9.9,0.9,14.6,1.5c0.5,0.1,1,0.1,1.5,0.2c2.2,0.2,4.3,0.5,6.2,0.8
	c1.2-0.1,2.3-0.1,3.5-0.1c3.2,0,6.4,0.3,9.7,1.1c11.4,2.8,20.2,8.1,31.5,12.7c0.1,0,1.5-0.2,1.6-0.2c2.1-0.2,4.2-0.4,6.2-0.7
	c1.4-0.1,2.8-0.1,4-0.1c1.3-0.4,2.6-0.9,3.9-1.4c1.4-0.6,2.9-1.2,4.4-1.9c9-4.2,16.1-7.9,26.4-9.3c4.1-0.4,8.1-0.6,12.1-0.6
	c8.3,0,16.4,0.8,25,1.4c3.7,0.4,7.3,1.1,10.9,2.1c2,0.6,4.1,1.3,6.1,2c6.6,2.6,13.1,6.1,19.3,10.3c1.4-0.2,2.8-0.5,4.2-0.7
	c9.7-1.7,18.2-1,28.2-0.2c1.4,0.1,2.9,0.2,4.4,0.3c0.8,0,1.6,0.1,2.4,0.1c16.9,0.9,31.4,0.6,48.1,7.8c5.5,2.5,11.1,5.6,16.9,9.5
	c0,0,0.8,0.6,0.9,0.6c0,0,0.8,0.6,0.9,0.6c32.4,23.1,61.2,45.7,78.3,81.6c9.2,19.1,14.2,40.6,14.8,64.2c0,1,0.1,2,0.1,3
	c0.6,16.1-0.1,33.3-3,53c0.3,3.1,0.7,7,1.1,10.1c2,19.2,4.1,44.1-4,68.8c-3.7,13.3-8.4,25.6-15.3,37.3c-3.4,5.8-7.4,11.3-11.8,16.4
	c-7.7,8.9-16.7,16.6-26.8,22.8c-0.8,0.5-1.7,1-2.5,1.5c-11.6,14.2-25.9,25.6-42.8,34.3c-13.7,7-27,11.8-39.6,15.8
	c-1.7,1.1-4,2.6-5.9,3.8c-4.2,2.7-8.9,5.8-14.1,8.8c-4.4,2.5-9.1,5-14.2,7.4c0,0,0,0,0,0s0,0,0,0c-21,9.8-40.7,15.6-57,20.6
	c-19.1,5.8-30.2,9.4-39.6,16.2c-10.6,7.9-22.2,14.6-34.5,20.1c-8.7,3.9-17.9,6.9-27.5,9.1c-15.8,3.5-30.4,4.4-42.5,5.1
	c-4.3,0.2-8.4,0.5-11.9,0.8c-2.1,0.2-7.2,1.5-11.1,2.5c-13.3,3.3-30.7,8-51.7,8.6c-11.7,5.1-25.2,9.4-40.9,11.7
	c-3.3,0.5-6.7,0.9-10.3,1.2c-5.8,0.5-11.8,0.7-18.1,0.8c-1.5,0-3.1,0.1-4.6,0.1c-1.1,0-2.1,0-3.2,0.1c-7.3,0.4-14.8,0.3-22.3-0.1
	c-18.5-0.5-37.3-6.4-55.5-17.3c-2.4-1.5-4.9-3-7.3-4.6c-8.3-5.5-16.4-12-24.3-19.4c-18.7-16.6-46.6-51.8-46.9-84.7
	c0-0.8,0.1-1.6,0.1-2.4c0.6-5,0.2-9.9-0.7-15.9c-0.5-5-0.3-9.9,0.3-14.7c1.2-8.9,4.4-17,8.5-24.8c1.7-10.3,4.8-20.5,7.3-31
	c0.6-2.7,1.4-5.3,2.4-8c-6.5-10.5-9.5-21.9-13.4-34.4c-0.6-1.6-1.2-3.1-1.7-4.7c-0.9-2.5-1.8-4.9-2.6-7.3
	c-2.1-6.3-3.7-12.4-4.5-19.1c-0.3-2-0.5-4.2-0.6-6.4c-5.2-8.9-8.6-18-10.2-26.6c-1.3-5.4-2.3-10.9-3-16.6
	c-1.2-9.3-2.6-17.5-3.2-26.1c-0.3-7.3,0.1-14.9,1.4-22.3c1.7-9.9,5-19.5,10.3-27.4c3.3-4,6.3-7.9,9.3-11.7
	c3.5-4.4,6.9-8.7,11.4-13.2c5.6-5.2,12-8.8,18.2-12.8c1.1-0.7,2.1-1.4,3.2-2.1c0.1-0.3,5.1-5.1,5.2-5.4c0.8-0.9,1.7-1.8,2.5-2.6
	c2.4-7.6,5.5-15.8,10.4-23.6c5.8-9.1,13.2-17.2,21.4-23.5c3.5-2.7,7.2-5.1,10.9-7.1c5.3-2.2,10.6-4.8,16-7.3c4.2-1.8,8.3-4,12.7-5.3
	c2.5-0.8,5.1-1.5,7.8-1.9c3.5-0.3,6.5-0.7,10-1.3c1.7-0.3,3.4-0.5,5.2-0.8c4.6-0.7,9.2-1.1,13.8-1.2c12.3-0.3,24.4,1.5,35.9,5.1
	c3,0.9,6,2,8.9,3.2c4,0.5,8.1,1.2,12,2.1c0.4,0.1,0.8,0.2,1.2,0.3c0.6-0.1,1.3-0.1,1.9-0.2c7.2-0.7,13.9-1.3,20.2-1.9
	c6.9-7.1,15.2-15.2,25.7-22.3c0.2-0.3,7.4-4.9,7.7-5.1c0.3-0.2,8.2-3.3,8.5-3.5C402.1,172.7,412.8,170.7,423.6,170.7"/>
<path id="line-28" class="st0" d="M422.8,162.2L422.8,162.2c5.4,0,10.2,0.9,15,1.5c0.5,0.1,1,0.1,1.5,0.2c2.2,0.3,4.4,0.5,6.4,0.9
	c1.2-0.1,2.4-0.1,3.6-0.1c3.3,0,6.6,0.3,9.9,1.1c11.7,2.7,21,8,32.6,12.8c0.1,0,1.6-0.2,1.7-0.2c2.2-0.2,4.3-0.5,6.4-0.7
	c1.5-0.1,2.9-0.1,4.2-0.1c1.4-0.5,2.7-0.9,4-1.4c1.5-0.6,3-1.2,4.6-1.9c9.3-4.2,16.8-7.9,27.2-9.4c4.2-0.5,8.3-0.7,12.4-0.7
	c8.6,0,16.9,0.8,25.6,1.6c3.8,0.4,7.5,1.2,11.1,2.3c2.1,0.6,4.2,1.3,6.2,2.1c6.8,2.6,13.5,6.3,19.8,10.5c1.5-0.3,2.9-0.5,4.4-0.7
	c10-1.8,18.8-1.2,29-0.4c1.5,0.1,3,0.2,4.5,0.3c0.8,0,1.7,0.1,2.5,0.1c17.3,0.9,32.4,0.9,49.5,8.4c5.7,2.6,11.4,5.8,17.4,9.8
	c0,0,0.8,0.6,0.9,0.6c0,0,0.8,0.6,0.9,0.6c33.2,23.7,62.9,47,80.7,84c9.5,19.7,14.7,41.8,15.4,66c0.1,1,0.1,2.1,0.1,3.1
	c0.6,16.6-0.2,34.3-3.1,54.5c0.3,3.2,0.8,7.2,1.1,10.4c2.1,19.7,4.3,45.4-3.8,71c-3.7,13.8-8.6,26.5-15.7,38.6
	c-3.6,6-7.6,11.7-12.2,16.9c-7.9,9.2-17.3,17.1-27.7,23.5c-0.9,0.5-1.7,1-2.6,1.5c-12,14.7-26.8,26.5-44.1,35.5
	c-14.1,7.2-27.8,12.1-40.8,16.2c-1.8,1.1-4.1,2.7-6.1,3.9c-4.3,2.8-9.1,5.9-14.6,9.1c-4.5,2.6-9.3,5.2-14.6,7.6c0,0,0,0,0,0
	c0,0,0,0,0,0c-21.6,10.1-42,16.1-58.6,21.2c-19.7,6-31.1,9.7-40.7,16.7c-10.9,8.1-22.8,15-35.6,20.7c-9,4-18.4,7.1-28.3,9.3
	c-16.2,3.6-31.3,4.5-43.8,5.2c-4.4,0.3-8.7,0.5-12.2,0.8c-2.1,0.3-7.4,1.6-11.4,2.6c-13.7,3.4-31.6,8.3-53.3,8.9
	c-12,5.3-26,9.7-42.1,12.1c-3.4,0.5-6.9,0.9-10.6,1.3c-5.9,0.5-12.2,0.7-18.7,0.9c-1.6,0-3.2,0.1-4.8,0.1c-1.1,0-2.2,0-3.3,0.1
	c-7.5,0.3-15.3,0.3-23.1-0.2c-19.1-0.6-38.4-6.7-57.2-18.1c-2.5-1.5-5-3.1-7.5-4.8c-8.5-5.7-16.9-12.5-25-20.1
	c-19.2-17.2-47.5-53-48.2-87.1c0-0.8,0-1.7,0-2.5c0.5-5.2,0.1-10.2-0.8-16.4c-0.4-5.2-0.3-10.2,0.4-15.1c1.2-9.1,4.5-17.5,8.6-25.5
	c1.6-10.6,4.8-21.1,7.4-31.9c0.6-2.8,1.5-5.5,2.5-8.2c-6.8-10.7-10-22.4-14-35.3c-0.6-1.6-1.2-3.2-1.7-4.8c-0.9-2.6-1.8-5.1-2.6-7.5
	c-2.1-6.5-3.7-12.9-4.4-19.9c-0.3-2.1-0.5-4.3-0.6-6.6c-5.4-9.2-8.8-18.6-10.5-27.3c-1.4-5.6-2.4-11.2-3.1-17
	c-1.2-9.5-2.6-18-3.2-26.8c-0.2-7.5,0.2-15.3,1.5-22.9c1.8-10.2,5.2-20,10.6-28.2c3.3-4.2,6.4-8.2,9.5-12.1c3.6-4.5,7.2-9,11.7-13.6
	c5.7-5.3,12.3-9.1,18.7-13.2c1.1-0.7,2.2-1.4,3.3-2.1c0.1-0.3,5.3-5.2,5.4-5.6c0.9-0.9,1.7-1.8,2.6-2.7c2.5-7.8,5.7-16.2,10.8-24.2
	c6-9.4,13.6-17.8,22-24.3c3.6-2.8,7.4-5.3,11.2-7.4c5.5-2.4,10.9-5.1,16.5-7.7c4.3-1.9,8.5-4.1,13.1-5.5c2.6-0.8,5.3-1.5,8-2
	c3.6-0.3,6.7-0.8,10.3-1.4c1.7-0.3,3.5-0.5,5.3-0.8c4.7-0.7,9.5-1.1,14.2-1.2c12.7-0.3,25.1,1.6,36.9,5.3c3.1,1,6.1,2.1,9.1,3.3
	c4.2,0.5,8.3,1.2,12.4,2.1c0.4,0.1,0.8,0.2,1.2,0.3c0.7-0.1,1.3-0.1,2-0.2c7.4-0.7,14.3-1.3,20.8-1.9c7.1-7.3,15.6-15.6,26.5-22.9
	c0.2-0.3,7.6-5,7.9-5.3s8.5-3.4,8.8-3.6C400.5,164.2,411.6,162.2,422.8,162.2"/>
<path id="line-29" class="st0" d="M421.9,153.6L421.9,153.6c5.5,0,10.5,0.9,15.4,1.5c0.5,0.1,1,0.1,1.5,0.2c2.3,0.3,4.5,0.6,6.6,0.9
	c1.2-0.1,2.5-0.1,3.7-0.1c3.4,0,6.8,0.3,10.2,1.1c12.1,2.7,21.8,8,33.7,13c0.1,0,1.6-0.2,1.7-0.2c2.2-0.2,4.4-0.5,6.6-0.7
	c1.5-0.1,2.9-0.1,4.3-0.1c1.4-0.5,2.7-1,4.1-1.5c1.5-0.6,3.1-1.2,4.7-2c9.5-4.3,17.4-8,28-9.4c4.3-0.5,8.5-0.7,12.7-0.7
	c8.8,0,17.3,0.8,26.3,1.7c3.9,0.5,7.7,1.3,11.4,2.4c2.1,0.6,4.3,1.3,6.4,2.2c7,2.7,13.8,6.4,20.4,10.8c1.5-0.3,3-0.6,4.5-0.8
	c10.2-1.9,19.4-1.5,29.9-0.7c1.5,0.1,3.1,0.2,4.6,0.3c0.9,0,1.7,0.1,2.5,0.1c17.8,0.9,33.3,1.3,50.8,9.1c5.8,2.7,11.7,6,17.8,10.1
	c0,0,0.9,0.6,0.9,0.6s0.9,0.6,0.9,0.6c34.1,24.4,64.6,48.3,83,86.3c9.9,20.3,15.2,43,16,67.9c0.1,1.1,0.1,2.1,0.1,3.2
	c0.7,17-0.2,35.3-3.3,56c0.3,3.3,0.8,7.5,1.1,10.7c2.2,20.2,4.5,46.6-3.7,73.1c-3.8,14.3-8.8,27.4-16.2,39.8
	c-3.7,6.2-7.9,12-12.6,17.5c-8.2,9.5-17.8,17.7-28.6,24.3c-0.9,0.5-1.8,1.1-2.7,1.6c-12.3,15.2-27.6,27.4-45.5,36.7
	c-14.5,7.4-28.6,12.5-41.9,16.6c-1.8,1.1-4.3,2.7-6.2,4c-4.4,2.9-9.4,6.1-15,9.3c-4.6,2.6-9.6,5.3-15,7.8c0,0,0,0,0,0c0,0,0,0,0,0
	c-22.3,10.4-43.2,16.6-60.3,21.8c-20.4,6.2-32,9.9-41.9,17.2c-11.2,8.4-23.5,15.5-36.6,21.3c-9.2,4.1-19,7.2-29.1,9.5
	c-16.7,3.7-32.2,4.6-45,5.4c-4.6,0.3-8.9,0.5-12.6,0.9c-2.2,0.3-7.6,1.7-11.7,2.7c-14.1,3.5-32.6,8.5-54.9,9.1
	c-12.4,5.5-26.7,10-43.4,12.5c-3.5,0.5-7.2,1-10.9,1.3c-6.1,0.6-12.5,0.8-19.2,0.9c-1.6,0-3.3,0.1-4.9,0.1c-1.1,0-2.3,0-3.4,0.1
	c-7.8,0.3-15.8,0.2-23.8-0.3c-19.7-0.7-39.6-7-58.9-18.9c-2.6-1.6-5.2-3.2-7.7-5c-8.8-5.9-17.4-12.9-25.7-20.8
	c-19.7-17.9-48.4-54.3-49.5-89.6c0-0.9,0-1.7,0-2.6c0.4-5.3,0-10.6-0.8-16.9c-0.4-5.3-0.2-10.5,0.5-15.5c1.3-9.3,4.5-18,8.8-26.2
	c1.6-10.9,4.7-21.7,7.6-32.8c0.7-2.8,1.6-5.6,2.6-8.4c-7-11-10.5-23-14.6-36.2c-0.6-1.7-1.2-3.3-1.8-4.9c-0.9-2.6-1.8-5.2-2.6-7.8
	c-2.1-6.7-3.6-13.4-4.3-20.7c-0.3-2.2-0.4-4.5-0.5-6.9c-5.5-9.5-9.1-19.2-10.8-28.1c-1.5-5.7-2.6-11.6-3.3-17.5
	c-1.3-9.7-2.7-18.5-3.2-27.6c-0.2-7.7,0.3-15.7,1.7-23.5c1.9-10.5,5.4-20.5,10.9-29c3.4-4.3,6.5-8.5,9.7-12.6
	c3.7-4.7,7.4-9.3,12.1-13.9c5.8-5.5,12.6-9.4,19.2-13.6c1.1-0.7,2.3-1.4,3.4-2.2c0.1-0.2,5.5-5.4,5.6-5.7c0.9-0.9,1.8-1.8,2.7-2.7
	c2.6-8,5.9-16.6,11.1-24.9c6.1-9.7,13.9-18.3,22.5-25.1c3.7-2.9,7.6-5.5,11.5-7.7c5.6-2.6,11.2-5.4,17-8c4.4-1.9,8.8-4.2,13.4-5.6
	c2.7-0.9,5.4-1.6,8.3-2c3.7-0.4,7-0.9,10.7-1.5c1.8-0.3,3.6-0.6,5.5-0.8c4.8-0.7,9.7-1.2,14.6-1.3c13-0.3,25.8,1.7,37.9,5.5
	c3.2,1,6.3,2.1,9.4,3.4c4.3,0.5,8.5,1.2,12.7,2.2c0.4,0.1,0.8,0.2,1.2,0.3c0.7-0.1,1.4-0.1,2-0.2c7.6-0.7,14.7-1.3,21.4-1.9
	c7.3-7.5,16.1-16,27.3-23.5c0.2-0.3,7.9-5.2,8.1-5.4s8.7-3.5,9-3.7C398.8,155.7,410.3,153.6,421.9,153.6"/>
<path id="line-30" class="st0" d="M421.1,145.1L421.1,145.1c5.7,0,10.8,0.9,15.7,1.5c0.5,0.1,1.1,0.1,1.6,0.2
	c2.4,0.3,4.6,0.6,6.7,0.9c1.3-0.1,2.5-0.1,3.8-0.1c3.5,0,7,0.3,10.5,1.1c12.4,2.7,22.6,8,34.7,13.1c0.1,0,1.7-0.2,1.7-0.2
	c2.3-0.2,4.6-0.5,6.7-0.7c1.5-0.1,3-0.1,4.4-0.1c1.4-0.5,2.8-1,4.2-1.5c1.6-0.6,3.1-1.3,4.8-2c9.7-4.4,18-8.1,28.9-9.5
	c4.4-0.5,8.7-0.7,13-0.7c9,0,17.8,0.9,27,1.8c3.9,0.5,7.9,1.3,11.7,2.5c2.2,0.6,4.4,1.4,6.5,2.2c7.2,2.8,14.2,6.6,20.9,11
	c1.5-0.3,3.1-0.6,4.6-0.9c10.5-2,20-1.7,30.7-1c1.6,0.1,3.1,0.2,4.8,0.3c0.9,0,1.7,0.1,2.6,0.1c18.2,1,34.3,1.7,52.2,9.7
	c6,2.8,12,6.2,18.3,10.4c0,0,0.9,0.6,0.9,0.6s0.9,0.6,0.9,0.7c34.9,25,66.4,49.6,85.4,88.7c10.2,20.9,15.7,44.2,16.6,69.7
	c0.1,1.1,0.1,2.2,0.1,3.3c0.7,17.5-0.2,36.2-3.5,57.6c0.3,3.3,0.8,7.7,1.2,11c2.3,20.7,4.7,47.9-3.5,75.2
	c-3.8,14.7-9,28.4-16.6,41.1c-3.8,6.4-8.1,12.4-13,18c-8.5,9.8-18.4,18.2-29.5,25c-0.9,0.6-1.8,1.1-2.8,1.6
	c-12.7,15.7-28.4,28.4-46.8,38c-14.9,7.7-29.4,12.8-43.1,17.1c-1.9,1.2-4.4,2.8-6.4,4.1c-4.5,3-9.7,6.3-15.4,9.6
	c-4.7,2.7-9.8,5.5-15.4,8.1c0,0,0,0-0.1,0c0,0,0,0-0.1,0c-22.9,10.7-44.4,17.1-62,22.4c-21,6.4-32.9,10.2-43.1,17.7
	c-11.5,8.6-24.1,15.9-37.6,21.9c-9.5,4.2-19.5,7.4-30,9.7c-17.2,3.8-33.2,4.8-46.3,5.5c-4.7,0.3-9.2,0.5-13,0.9
	c-2.2,0.3-7.9,1.7-12.1,2.8c-14.4,3.6-33.5,8.8-56.6,9.4c-12.7,5.6-27.5,10.3-44.7,13c-3.6,0.6-7.4,1-11.2,1.4
	c-6.3,0.6-12.9,0.8-19.8,1c-1.7,0-3.4,0.1-5.1,0.1c-1.2,0-2.4,0-3.5,0.1c-8,0.3-16.3,0.2-24.5-0.4c-20.3-0.7-40.8-7.4-60.6-19.6
	c-2.7-1.6-5.3-3.4-8-5.2c-9-6.2-17.9-13.4-26.4-21.5c-20.2-18.5-49.3-55.6-50.8-92c0-0.9,0-1.8,0-2.7c0.3-5.5-0.1-10.9-0.8-17.4
	c-0.4-5.4-0.2-10.7,0.6-15.9c1.3-9.6,4.6-18.5,8.9-27c1.6-11.3,4.7-22.4,7.7-33.7c0.7-2.9,1.6-5.8,2.8-8.6
	c-7.3-11.2-11.1-23.6-15.2-37.1c-0.6-1.7-1.2-3.4-1.8-5.1c-0.9-2.7-1.8-5.4-2.6-8.1c-2.1-7-3.6-13.9-4.2-21.4
	c-0.2-2.3-0.4-4.6-0.5-7.1c-5.7-9.8-9.3-19.8-11.2-28.8c-1.5-5.9-2.7-11.9-3.4-17.9c-1.4-10-2.7-19-3.2-28.3
	c-0.2-8,0.4-16.2,1.8-24.2c2-10.7,5.6-21,11.2-29.8c3.4-4.5,6.6-8.7,9.9-13c3.8-4.8,7.6-9.5,12.4-14.3c6-5.6,12.8-9.7,19.6-14
	c1.2-0.7,2.3-1.5,3.5-2.2c0.1-0.2,5.7-5.5,5.7-5.8c0.9-1,1.8-1.9,2.8-2.8c2.6-8.2,6.1-17,11.5-25.5c6.3-9.9,14.3-18.8,23.1-25.8
	c3.8-3,7.8-5.7,11.8-8c5.8-2.7,11.6-5.7,17.5-8.4c4.5-2,9-4.3,13.8-5.8c2.8-0.9,5.6-1.6,8.5-2.1c3.8-0.4,7.2-1,11-1.6
	c1.8-0.3,3.7-0.6,5.6-0.8c5-0.7,10-1.2,15-1.3c13.4-0.3,26.5,1.7,39,5.7c3.3,1,6.5,2.2,9.6,3.5c4.4,0.5,8.8,1.3,13.1,2.3
	c0.4,0.1,0.9,0.2,1.3,0.3c0.7-0.1,1.4-0.1,2.1-0.2c7.8-0.8,15.1-1.4,22-1.9c7.5-7.7,16.5-16.5,28-24.1c0.2-0.2,8.1-5.3,8.4-5.5
	c0.2-0.2,9-3.6,9.3-3.7C397.2,147.2,409.1,145.1,421.1,145.1"/>
</svg>
