<svg version="1.1" id="Livello_2_copia" xmlns:x="&ns_extend;" xmlns:i="&ns_ai;" xmlns:graph="&ns_graphs;"
	 xmlns="http://www.w3.org/2000/svg" xmlns:xlink="http://www.w3.org/1999/xlink" x="0px" y="0px" viewBox="0 0 907.1 907.1"
	 style="enable-background:new 0 0 907.1 907.1;" xml:space="preserve">
<style type="text/css">
	.st0{fill:none;stroke:#000000;stroke-miterlimit:10;}
</style>
<metadata>
	<sfw  xmlns="&ns_sfw;">
		<slices></slices>
		<sliceSourceBounds  bottomLeftOrigin="true" height="703.1" width="772.1" x="66.1" y="103.8"></sliceSourceBounds>
	</sfw>
</metadata>
<path id="line-1" class="st0" d="M374.5,380c1.6,0,2.5,1.2,4.1,1.5c0.2,0.1,0.5,0.1,0.8,0.1c1.6,0,3.1-0.9,4.7-0.9
	c0.2,0,0.5,0,0.7,0.1c1.7,0.3,3.4,1.7,4.9,2.7c1.4,1,2.6,1.3,3.7,1.3c1.8,0,3.4-0.8,5.5-0.8c0.5,0,1,0,1.5,0.1
	c2.9,0.5,4.2,3.1,7,3.1c0.4,0,0.8-0.1,1.2-0.1c1-0.2,2-0.4,3-0.4c0.5,0,1,0,1.6,0.1c1.6,0.5,3.8,0.6,6,0.6c2.2,0,4.4-0.1,5.8-0.1
	c0.5,0,0.8,0,1.1,0.1c0.3,0,0.5,0.1,0.8,0.1c2.7,0,5-2,7.9-2h0.6c4.7,0,7.8,0.6,11.5,4c8.8,7.4,7.1-2.2,21.2,14.7
	c3.4,4.1,3,3.1,4,8.5c2.4,5.7,9,8.9,9.9,15.1c1,3.5,2.9,5,2.9,9.1c0.4,1.9,1,2.5,1.8,2.5c1.4,0,3.4-2,5-2.5c0.8-0.3,1.6-0.4,2.2-0.4
	c5.4,0,5.6,9.1,13,14.1c12.6,7.2,2.9,11.2,11.2,19.2c3.3,3.6,7.1,6.5,9.8,10.5c2.2,3.4,8.8,13.3,3.1,15.2c-1.2,0.5-3,0.9-4.6,0.9
	c-0.6,0-1.2-0.1-1.8-0.2c-6.2-1.9-7.8-8.9-12.7-12.4c-0.6-0.4-1.1-0.5-1.4-0.5c-1,0-0.9,1.5-1.2,3c-0.8,4.1-5,5.7-9.4,5.7
	c-3.8,0-7.7-1.2-9.8-3c-3.6-3.1-6.5-3.5-9.5-3.5c-0.7,0-1.3,0-2,0c-1.6,0-5.8,1.5-7.1,2.3c-2.3,1.3-4.3,4-5.4,6.4
	c-1.1,2.5-0.8,5.1-0.5,7.8c0.5,3.6-0.3,7.1-3,10.1c-1.1,1.3-3,1.5-3.8,3.1c-0.8,1.5-0.1,3.3-1,4.8c-1.6,2.5-5.1,3.3-8.2,3.3
	c-0.7,0-1.3,0-1.9-0.1c-7.9-1.5-4.3-11.8-17.1-15.6c-10.4-2.5-13.7-6.2-17.5-16c-4.6-7.7-10.2-3.2-16.1-17.6
	c-2.1-4.4-4.6-8.5-6.3-13.1c-1.5-4.1-1.6-6.7-6.2-6.7c0,0-0.1,0-0.1,0c-0.1,0-0.3,0-0.4,0c-3.1,0-5-0.3-7-3.1
	c-2.2-3.2-3.9-7.4-3.4-11.5c0.2-1.9,1.9-1.7,2.4-2.7c1.9-3.8-3.1-6.8-1.7-10.2c2-4.8,4.9-2,6.1-4.8c2.3-5.3-2.2-13.5-3.9-18.5
	c-1.6-6-12-19.8-2.7-23.4C374,380.1,374.3,380,374.5,380"/>
<path id="line-2" class="st0" d="M366.2,370.6c1.1,0,2.2,0.4,3.1,0.9c0.4,0.2,1,0.3,1.5,0.4c0.2,0.1,0.6,0,0.8,0
	c0.3,0,0.7,0,1-0.1c0,0,0,0,0,0c1.3-0.2,2.7-0.8,4.1-0.8l0,0c0.3,0,0.5,0,0.8,0.1c1.9,0.3,3.8,1.7,5.5,2.7c0.8,0.5,1.6,0.8,2.3,1
	c0.6,0.2,1.2,0.2,1.8,0.2c0.7,0,1.3-0.1,2-0.2c0,0,0,0,0,0c0.2,0,0.4-0.1,0.6-0.1c0.2,0,0.4-0.1,0.6-0.1c0.9-0.1,1.9-0.3,2.9-0.2
	c0.5,0,1.1,0.1,1.7,0.2c1.4,0.3,2.6,1,3.6,1.7c0.2,0.1,0.4,0.2,0.6,0.3c1.1,0.6,2.2,1.2,3.6,1.2c0.5,0,0.9,0,1.4-0.1
	c1.1-0.2,2.2-0.3,3.3-0.3c0.6,0,1.1,0.1,1.8,0.2c0.7,0.2,1.5,0.4,2.4,0.5c1.4,0.1,2.8,0.2,4.3,0.2c0.1,0,0.3,0,0.4,0
	c0.6,0,1.3,0,1.8,0c0,0,0,0,0.1,0c0,0,0,0,0,0c0.9,0,1.8-0.1,2.6-0.1c0.5,0,1,0,1.5,0c0.5,0,0.9,0,1.2,0c0.3,0,0.6,0,0.8,0
	c2.8-0.1,5.3-2,8.4-2.1c0,0,0.1,0,0.1,0c0.1,0,0.1,0,0.2,0h0.7c5,0,8.6,0.6,12.9,4.2c6.3,5,7.9,2.6,12.7,5.7
	c2.3,1.4,5.4,3.9,9.8,8.8c0.4,0.4,0.8,0.9,1.2,1.4c3.6,4.3,3.5,3.6,4.8,9.1c1.1,2.4,2.9,4.5,4.7,6.5c0,0,0,0,0,0c0,0,0,0,0,0
	c0.3,0.4,0.6,0.7,0.9,1c2.4,2.6,4.7,5.3,5.4,9c0.4,1.5,1,2.6,1.5,3.7c1,1.9,1.9,3.6,2.1,6.5c0.3,1.3,0.7,2.1,1.2,2.5
	c0.3,0.2,0.5,0.3,0.8,0.3c1.7,0.1,3.8-1.7,5.6-2c0.9-0.2,1.7-0.3,2.5-0.2c0.9,0.1,1.6,0.4,2.3,0.8c2.1,1.4,3.5,4.2,5.2,7.1
	c0.1,0.1,0.1,0.2,0.2,0.3c1.8,2.7,4,5.6,7.1,7.9c1.6,1,2.8,2,3.9,2.9c3.4,3.1,3.9,5.8,4,8.4c0.4,3,0.7,6.2,5,10.5
	c0,0,0.1,0.1,0.1,0.1c0,0,0.1,0.1,0.1,0.1c0,0,0.1,0.1,0.2,0.2c1.5,1.7,3.2,3.4,4.8,5.2c1.4,1.6,2.8,3.2,4,4.9
	c0.6,0.8,1.1,1.6,1.6,2.5c0.9,1.9,2.5,4.8,3.5,7.8c1.5,4.3,2,8.7-1.9,10.2c-1.5,0.7-3.4,1.2-5.3,1.3c-0.7,0-1.3,0-1.9-0.1
	c-4.8-1.2-7.4-5.1-10.4-8.5c-1.2-1.3-2.4-2.5-3.9-3.5c-0.7-0.4-1.2-0.5-1.5-0.5c-1.1,0-1.1,1.4-1.5,2.8c0,0.1-0.1,0.2-0.1,0.3
	c0,0.1-0.1,0.2-0.1,0.3c-1.3,3-4.6,4.3-8.3,4.5c-0.6,0.1-1.2,0.1-1.9,0.1c-2.4,0-5-0.4-7.1-1.1c-1.4-0.5-2.7-1.1-3.6-1.8
	c-2-1.6-3.9-2.4-5.7-2.9c-1.5-0.3-3-0.2-4.5-0.1c-0.7,0.1-1.4,0.2-2.1,0.2c-1.7,0.3-6,1.9-7.5,2.9c-1.3,0.8-2.5,2.1-3.5,3.4
	c0,0-0.1,0.1-0.1,0.1c0,0-0.1,0.1-0.1,0.1c-0.8,1.1-1.5,2.3-2,3.4c-1.3,2.7-1.2,5.5-1.1,8.3c0,0.6,0,1.3,0,1.9
	c-0.2,3.1-1.4,6-3.9,8.6c-0.3,0.3-0.7,0.6-1.1,0.8c-1.1,0.7-2.5,1.2-3.2,2.4c-0.9,1.5-0.5,3.3-1.6,4.8c-1.1,1.4-2.8,2.3-4.6,2.8
	c-1.4,0.3-3,0.5-4.4,0.5c-0.2,0-0.5,0-0.7,0c-0.4,0-1-0.1-1.4-0.1c-0.2,0-0.6-0.1-0.8-0.2c-5.4-1.5-6.4-6.7-10.3-11.4
	c-1.1-1.4-2.5-2.7-4.1-3.9c-1.4-0.8-3.1-1.5-5.1-2.2c-3.4-0.9-6.3-2-8.7-3.5c-3.7-2.2-6.2-5-8.3-8.9c-1.2-1.8-2.3-3.9-3.5-6.5
	c-4.4-7-9.4-5.2-14.6-14.3c-0.6-1-1.2-2.2-1.8-3.5c-0.3-0.6-0.6-1.2-0.8-1.9c-0.3-0.6-0.5-1.1-0.8-1.7c-2.3-4-4.8-7.8-6.6-12.2
	c-0.8-1.9-1.3-3.5-2-4.8c0-0.1-0.1-0.2-0.2-0.3c-0.1-0.1-0.1-0.2-0.2-0.3c-0.9-1.2-2.1-2-4.4-2.2c0,0-0.1,0-0.1,0
	c-0.1,0-0.3,0-0.4,0c-3.2-0.3-5.2-0.9-7.2-3.8c-2.3-3.7-4.1-8.4-3.6-13.1c0.1-0.5,0.2-0.9,0.4-1.2c0,0,0,0,0-0.1c0,0,0,0,0-0.1
	c0.6-0.8,1.6-1.1,1.9-1.9c1.7-4.2-3-7.8-1.5-11.6c0.2-0.5,0.4-1,0.6-1.3c0,0,0,0,0-0.1c0,0,0,0,0-0.1c0.8-1.3,1.7-1.8,2.6-2.2
	c0.1-0.1,0.3-0.1,0.4-0.2c0.1,0,0.2-0.1,0.3-0.1c0.6-0.2,1-0.4,1.5-0.8c0.2-0.3,0.4-0.6,0.6-1.1c0.8-2.5,0.4-5.5-0.4-8.6
	c-1.2-4.4-3.2-8.9-4.1-12.4c-0.4-2-1.5-4.7-2.6-7.5c-2.6-7.2-5.2-15.6,2.2-18.5C365.7,370.7,366,370.6,366.2,370.6"/>
<path id="line-3" class="st0" d="M358,361.2c1.1,0,2.6,0.3,3.5,0.7c0.4,0.2,1.1,0.3,1.6,0.4c0.2,0.1,0.7,0,0.9,0
	c0.3,0,0.8-0.1,1.1-0.1c0,0,0,0,0,0c1.3-0.2,2.8-0.8,4.5-0.8l0,0c0.3,0,0.6,0,0.8,0.1c2.1,0.3,4.2,1.7,6,2.8c0.9,0.5,1.8,0.8,2.6,1
	c0.7,0.2,1.4,0.2,2,0.2c0.8,0,1.5-0.1,2.2-0.1c0,0,0,0,0,0c0.2,0,0.5-0.1,0.7-0.1c0.2,0,0.5,0,0.7-0.1c1-0.1,2.1-0.2,3.2-0.1
	c0.6,0,1.2,0.1,1.8,0.2c1.6,0.3,2.8,1.1,4,1.9c0.2,0.1,0.4,0.2,0.7,0.3c1.2,0.6,2.5,1.2,4,1.2c0.5,0,1,0,1.6-0.1
	c1.2-0.2,2.4-0.3,3.6-0.2c0.6,0,1.3,0.1,2,0.2c0.8,0.2,1.7,0.4,2.6,0.6c1.5,0.1,3.1,0.2,4.7,0.3c0.2,0,0.3,0,0.5,0
	c0.5,0,1.5,0.1,2,0c0,0,0,0,0.1,0c0,0,0,0,0,0c1,0,2-0.1,2.9-0.1c0.6,0,1.1,0,1.6,0c0.5,0,1-0.1,1.3,0c0.3,0,0.6,0,0.9,0
	c3.1-0.2,5.8-2.1,9.3-2.2c0,0,0.1,0,0.1,0c0,0,0.1,0,0.2,0h0.7c5.4,0,9.4,0.7,14.3,4.3c6.7,5.1,8.7,2.9,13.8,6.4
	c2.7,1.4,6.1,4.1,11,9.3c0.5,0.5,0.9,1,1.4,1.5c3.8,4.4,4,4,5.6,9.7c1.3,2.6,3.2,4.8,5.2,7c0,0,0,0,0,0c0,0,0,0,0,0
	c0.3,0.4,0.7,0.8,1,1.1c2.5,2.8,5,5.7,5.9,9.8c0.5,1.6,1.1,2.9,1.6,4.2c1.1,2,2.3,4,2.7,7.1c0.4,1.4,0.8,2.3,1.4,2.8
	c0.3,0.2,0.6,0.3,0.9,0.3c1.9,0.2,4.3-1.4,6.3-1.5c1-0.1,1.9-0.1,2.7,0.1c1,0.2,1.8,0.5,2.5,1.1c2.4,1.8,3.9,4.8,5.8,8
	c0.1,0.1,0.1,0.2,0.2,0.4c2.3,2.9,4.7,6.1,8.1,8.7c1.7,1.2,3.1,2.3,4.2,3.4c3.6,3.5,4.2,6.6,4.4,9.5c0.7,3.3,1.4,6.8,6,11.6
	c0,0,0.1,0.1,0.1,0.1c0,0,0.1,0.1,0.1,0.1c0,0,0.1,0.2,0.2,0.2c1.6,1.8,3.5,3.9,5.3,6.2c1.6,1.9,3,3.8,4.3,5.8c0.6,1,1.1,2,1.6,3
	c1,2.4,2.4,5.8,3.3,9.2c1.2,4.9,1.3,9.8-3.1,11.6c-1.7,0.9-3.9,1.5-6,1.8c-0.7,0-1.4,0-2.1-0.1c-5.2-1-8.2-4.7-11.7-8
	c-1.3-1.3-2.8-2.5-4.4-3.5c-0.7-0.4-1.3-0.5-1.7-0.5c-1.2,0-1.3,1.3-1.8,2.7c0,0.1-0.1,0.2-0.1,0.3c0,0.1-0.1,0.2-0.1,0.3
	c-1.6,2.8-5.2,3.9-9.1,4c-0.7,0.1-1.3,0.1-2,0.1c-2.6,0.1-5.3-0.3-7.7-1c-1.5-0.5-2.9-1.1-4-1.8c-2.2-1.5-4.2-2.4-6.2-3
	c-1.6-0.1-3.1,0.1-4.6,0.4c-0.7,0.1-1.4,0.3-2.1,0.4c-1.8,0.5-6.1,2.4-7.8,3.6c-1.3,1-2.6,2.3-3.7,3.8c0,0-0.1,0.1-0.1,0.2
	c0,0-0.1,0.1-0.1,0.2c-0.9,1.2-1.6,2.4-2.2,3.6c-1.5,2.9-1.6,5.8-1.7,8.8c0,0.7-0.1,1.4-0.2,2c-0.5,3.2-2,6.3-4.8,8.9
	c-0.4,0.3-0.7,0.6-1.2,0.8c-1.3,0.7-2.7,1.2-3.5,2.5c-1.1,1.5-0.8,3.3-2.1,4.8c-1.2,1.4-3.1,2.3-5.1,2.7c-1.6,0.3-3.2,0.5-4.8,0.4
	c-0.3,0-0.5,0-0.7,0c-0.4,0-1.1-0.1-1.5-0.1c-0.2,0-0.7-0.2-1-0.2c-6.2-1.6-7.8-7.1-12.2-12.4c-1.4-1.6-2.8-3.2-4.6-4.5
	c-1.7-0.9-3.6-1.7-5.8-2.5c-3.8-1.1-7-2.5-9.7-4.3c-4.1-2.6-6.9-6-9.2-10.3c-1.4-1.9-2.9-4.3-4.4-7.1c-4.7-7.4-10.1-6.2-15.5-15.9
	c-0.6-1.1-1.3-2.4-1.9-3.8c-0.3-0.6-0.6-1.3-0.9-2.1c-0.3-0.6-0.6-1.2-0.9-1.8c-2.7-4.1-5.6-8.2-7.7-12.8c-0.9-2-1.5-3.7-2.3-5.1
	c0-0.1-0.1-0.2-0.2-0.3s-0.1-0.2-0.2-0.3c-1-1.4-2.3-2.3-4.6-2.6c0,0-0.1,0-0.1,0c-0.1,0-0.3-0.1-0.4-0.1c-3.3-0.6-5.3-1.4-7.4-4.6
	c-2.5-4.3-4.3-9.5-3.7-14.7c0.1-0.6,0.2-1,0.4-1.4c0,0,0,0,0-0.1c0,0,0,0,0-0.1c0.6-0.9,1.6-1.3,2-2.2c1.6-4.7-3-8.7-1.4-13
	c0.2-0.6,0.5-1.1,0.7-1.5c0,0,0-0.1,0-0.1c0,0,0-0.1,0-0.1c0.8-1.4,1.8-2.1,2.7-2.6c0.1-0.1,0.3-0.2,0.4-0.2c0.1,0,0.2-0.1,0.3-0.1
	c0.5-0.2,0.9-0.5,1.3-1.1c0.2-0.3,0.4-0.7,0.5-1.2c0.6-2.7,0.1-6.1-0.9-9.5c-1.3-5-3.4-10-4.2-13.9c-0.4-2.4-1.3-5.3-2.3-8.5
	c-2.2-8-4-16.9,4.2-20.1C357.4,361.3,357.7,361.2,358,361.2"/>
<path id="line-4" class="st0" d="M349.7,351.7c1.1,0,2.9,0.1,3.8,0.5c0.4,0.2,1.3,0.3,1.8,0.4c0.2,0.1,0.8,0,1,0
	c0.3,0,0.9-0.1,1.2-0.1c0,0,0,0,0.1,0c1.4-0.2,3-0.8,4.8-0.8l0,0c0.3,0,0.6,0,0.9,0.1c2.3,0.3,4.7,1.7,6.6,2.8
	c1,0.5,1.9,0.8,2.9,0.9c0.8,0.2,1.5,0.2,2.2,0.2c0.8,0,1.6,0,2.4-0.1c0,0,0,0,0,0c0.2,0,0.6,0,0.8-0.1c0.2,0,0.6,0,0.8-0.1
	c1.1-0.1,2.3-0.2,3.5-0.1c0.6,0.1,1.3,0.1,2,0.3c1.7,0.4,3.1,1.2,4.4,2c0.2,0.1,0.5,0.2,0.7,0.3c1.4,0.6,2.7,1.2,4.4,1.2
	c0.6,0,1.2,0,1.8-0.1c1.4-0.2,2.6-0.2,4-0.1c0.7,0.1,1.4,0.1,2.1,0.3c0.9,0.3,1.8,0.5,2.8,0.7c1.6,0.1,3.4,0.2,5.1,0.3
	c0.2,0,0.3,0,0.5,0c0.5,0,1.7,0.1,2.2,0.1c0,0,0.1,0,0.1,0c0,0,0,0,0,0c1.1,0,2.2-0.1,3.2-0.1c0.6,0,1.2,0,1.7,0
	c0.5,0,1-0.1,1.4-0.1c0.3,0,0.7,0,1,0c3.3-0.2,6.4-2.2,10.2-2.3c0,0,0.1,0,0.2,0c0,0,0.1,0,0.2,0h0.8c5.7,0,10.3,0.7,15.7,4.5
	c7,5.1,9.5,3.3,15,7c3,1.5,6.9,4.3,12.1,9.7c0.5,0.5,1,1,1.5,1.6c4.1,4.5,4.5,4.4,6.4,10.4c1.4,2.7,3.5,5.1,5.7,7.6c0,0,0,0,0,0
	c0,0,0,0,0,0c0.4,0.4,0.7,0.8,1.1,1.2c2.6,2.9,5.4,6.1,6.5,10.7c0.6,1.8,1.2,3.2,1.8,4.6c1.3,2.2,2.7,4.4,3.3,7.8
	c0.4,1.5,1,2.4,1.6,3.1c0.3,0.2,0.7,0.3,1,0.4c2.2,0.3,4.7-1.2,6.9-1c1.1-0.1,2.1,0,3,0.3c1,0.2,1.9,0.7,2.8,1.3
	c2.7,2.1,4.4,5.5,6.4,8.8c0.1,0.1,0.2,0.3,0.2,0.4c2.7,3.2,5.4,6.6,9,9.5c1.8,1.3,3.3,2.6,4.5,3.9c3.8,3.9,4.5,7.4,4.7,10.6
	c1,3.5,2.2,7.4,7,12.6c0,0,0.1,0.1,0.1,0.1c0,0,0.1,0.1,0.1,0.1c0,0,0.2,0.2,0.2,0.3c1.7,2,3.8,4.5,5.8,7.2c1.7,2.3,3.3,4.5,4.6,6.8
	c0.6,1.1,1.2,2.3,1.7,3.4c1,2.9,2.4,6.7,3,10.6c1,5.5,0.6,10.8-4.3,13.1c-1.9,1-4.4,1.8-6.8,2.2c-0.8,0.1-1.5,0.1-2.2,0
	c-5.5-0.8-9-4.4-12.9-7.6c-1.5-1.2-3.1-2.4-4.9-3.4c-0.8-0.4-1.3-0.5-1.8-0.6c-1.3-0.1-1.5,1.2-2.1,2.6c0,0.1-0.1,0.2-0.2,0.3
	s-0.1,0.2-0.2,0.2c-2,2.6-5.8,3.6-10,3.4c-0.7,0.1-1.4,0.2-2.2,0.2c-2.8,0.1-5.7-0.2-8.3-0.9c-1.6-0.5-3.1-1.1-4.3-1.8
	c-2.4-1.5-4.6-2.4-6.7-3c-1.6,0-3.2,0.4-4.7,0.8c-0.7,0.2-1.5,0.4-2.2,0.6c-1.9,0.8-6.3,2.8-8.2,4.2c-1.4,1.1-2.7,2.6-3.8,4.2
	c0,0-0.1,0.1-0.1,0.2s-0.1,0.1-0.1,0.2c-0.9,1.3-1.7,2.6-2.4,3.9c-1.6,3-1.9,6.1-2.3,9.2c-0.1,0.7-0.2,1.4-0.4,2.1
	c-0.8,3.3-2.5,6.5-5.6,9.2c-0.4,0.3-0.8,0.6-1.3,0.9c-1.4,0.8-2.9,1.3-3.9,2.5c-1.2,1.5-1.2,3.3-2.6,4.8c-1.4,1.4-3.4,2.3-5.6,2.7
	c-1.7,0.3-3.5,0.4-5.1,0.4c-0.3,0-0.5,0-0.8,0c-0.4,0-1.2-0.1-1.6-0.1c-0.2,0-0.9-0.2-1.1-0.2c-6.9-1.8-9.3-7.6-14.2-13.4
	c-1.6-1.9-3.2-3.7-5-5.2c-1.9-0.9-4.1-1.8-6.6-2.8c-4.1-1.3-7.7-2.9-10.8-5c-4.6-3.1-7.7-6.9-10.2-11.7c-1.6-2.1-3.4-4.6-5.2-7.7
	c-5.1-7.7-10.7-7.2-16.4-17.5c-0.7-1.2-1.4-2.6-2.1-4.1c-0.3-0.7-0.7-1.4-1-2.2c-0.3-0.7-0.6-1.3-1-2c-3.1-4.2-6.3-8.5-8.8-13.4
	c-1-2.1-1.7-3.9-2.6-5.4c0-0.1-0.2-0.3-0.2-0.3c0-0.1-0.2-0.3-0.2-0.3c-1-1.5-2.4-2.5-4.8-3c0,0-0.1,0-0.1,0c-0.1,0-0.3-0.1-0.4-0.1
	c-3.3-0.8-5.5-2-7.7-5.4c-2.6-4.8-4.5-10.6-3.9-16.3c0.1-0.6,0.2-1.1,0.4-1.5c0,0,0-0.1,0-0.1c0,0,0-0.1,0-0.1c0.6-1,1.6-1.5,2-2.5
	c1.5-5.2-3-9.7-1.2-14.5c0.2-0.6,0.5-1.2,0.8-1.7c0,0,0-0.1,0-0.1c0,0,0-0.1,0-0.1c0.9-1.6,1.9-2.4,2.9-3c0.1-0.1,0.2-0.2,0.4-0.3
	c0.1,0,0.1-0.2,0.2-0.2c0.5-0.3,0.8-0.7,1.2-1.3c0.2-0.4,0.3-0.8,0.4-1.3c0.4-3-0.3-6.6-1.3-10.5c-1.5-5.5-3.6-11-4.4-15.5
	c-0.4-2.7-1.2-6-1.9-9.4c-1.8-8.8-2.8-18.3,6.2-21.8C349,351.9,349.4,351.8,349.7,351.7"/>
<path id="line-5" class="st0" d="M341.4,342.3c1.1,0,3.2,0,4.1,0.4c0.4,0.2,1.5,0.3,1.9,0.3c0.2,0.1,0.9,0,1.1,0
	c0.3,0,1-0.1,1.3-0.1c0,0,0,0,0.1,0c1.4-0.2,3.2-0.8,5.2-0.8l0,0c0.3,0,0.7,0,1,0.1c2.6,0.3,5.1,1.7,7.2,2.8
	c1.1,0.4,2.1,0.7,3.1,0.9c0.8,0.2,1.6,0.2,2.4,0.2c0.9,0,1.8,0,2.6-0.1c0,0,0,0,0,0c0.2,0,0.7,0,0.8-0.1c0.2,0,0.7,0,0.8-0.1
	c1.2-0.1,2.4-0.1,3.7,0c0.7,0.1,1.4,0.2,2.1,0.3c1.8,0.4,3.3,1.3,4.8,2.2c0.3,0.1,0.5,0.2,0.8,0.3c1.5,0.6,3,1.1,4.8,1.2
	c0.6,0,1.3,0,2,0c1.5-0.1,2.8-0.2,4.3,0c0.7,0.1,1.5,0.2,2.3,0.4c1,0.3,2,0.6,3,0.8c1.8,0.1,3.7,0.2,5.5,0.3c0.2,0,0.4,0,0.5,0
	c0.5,0,1.9,0.1,2.4,0.1c0,0,0.1,0,0.1,0c0,0,0,0,0,0c1.2,0,2.3-0.1,3.4-0.1c0.7,0,1.3,0,1.8,0c0.6-0.1,1.1-0.1,1.5-0.1
	c0.4,0,0.7,0,1.1-0.1c3.5-0.3,6.9-2.3,11-2.5c0,0,0.1,0,0.2,0c0,0,0.2,0,0.2,0h0.8c6,0,11.1,0.7,17,4.6c7.4,5.2,10.3,3.7,16.2,7.6
	c3.4,1.6,7.6,4.5,13.3,10.2c0.6,0.5,1.1,1.1,1.7,1.7c4.3,4.7,5.1,4.8,7.2,11c1.6,2.9,3.9,5.5,6.2,8.2c0,0,0,0,0,0c0,0,0,0,0,0
	c0.4,0.5,0.8,0.9,1.2,1.3c2.8,3.1,5.8,6.6,7.1,11.5c0.7,1.9,1.4,3.6,2,5.1c1.4,2.3,3,4.7,3.8,8.4c0.5,1.5,1.1,2.6,1.8,3.4
	c0.4,0.2,0.7,0.3,1.1,0.4c2.4,0.4,5.2-0.9,7.6-0.6c1.2,0,2.2,0.2,3.2,0.5c1.1,0.3,2.1,0.8,3,1.5c3,2.5,4.9,6.2,7,9.7
	c0.1,0.1,0.2,0.3,0.3,0.5c3.1,3.4,6.2,7.1,10,10.4c1.9,1.5,3.5,3,4.8,4.4c4,4.3,4.8,8.2,5.1,11.7c1.4,3.7,2.9,8,8,13.7
	c0,0,0.1,0.1,0.1,0.1c0,0,0.1,0.1,0.1,0.1c0,0,0.2,0.2,0.2,0.3c1.8,2.2,4.2,5,6.4,8.2c1.9,2.6,3.5,5.1,4.8,7.8
	c0.6,1.3,1.2,2.6,1.7,3.9c1,3.4,2.3,7.7,2.7,12c0.7,6-0.1,11.9-5.5,14.5c-2.1,1.2-4.9,2.2-7.5,2.6c-0.8,0.1-1.6,0.1-2.4,0.1
	c-5.9-0.6-9.8-4-14.1-7.2c-1.7-1.2-3.4-2.4-5.3-3.4c-0.8-0.4-1.4-0.5-2-0.6c-1.4-0.1-1.7,1.2-2.4,2.4c0,0.1-0.2,0.1-0.2,0.2
	s-0.2,0.1-0.2,0.2c-2.3,2.4-6.5,3.2-10.8,2.9c-0.8,0.1-1.6,0.2-2.3,0.2c-3,0.1-6.1-0.2-8.9-0.8c-1.8-0.4-3.4-1-4.7-1.8
	c-2.6-1.5-5-2.4-7.3-3c-1.6,0.2-3.2,0.7-4.9,1.3c-0.7,0.3-1.5,0.6-2.3,0.8c-2,1-6.5,3.2-8.5,4.8c-1.4,1.2-2.7,2.8-4,4.6
	c0,0-0.1,0.1-0.1,0.2c0,0-0.1,0.1-0.1,0.2c-1,1.4-1.8,2.8-2.6,4.2c-1.8,3.2-2.3,6.5-2.9,9.7c-0.1,0.7-0.3,1.5-0.5,2.2
	c-1,3.5-3.1,6.7-6.4,9.5c-0.4,0.4-0.9,0.6-1.4,0.9c-1.5,0.8-3.1,1.4-4.2,2.6c-1.4,1.5-1.5,3.3-3.1,4.8c-1.6,1.4-3.7,2.2-6.1,2.7
	c-1.8,0.3-3.7,0.4-5.5,0.4c-0.3,0-0.6,0-0.9,0c-0.4,0-1.3-0.1-1.7-0.1c-0.2,0-1-0.2-1.2-0.3c-7.7-1.9-10.8-8.1-16.2-14.4
	c-1.8-2.1-3.5-4.1-5.5-5.9c-2.1-1-4.6-2-7.3-3c-4.5-1.5-8.4-3.3-11.9-5.8c-5.1-3.6-8.4-7.9-11.2-13.1c-1.9-2.2-4-4.9-6.1-8.3
	c-5.5-8.1-11.4-8.2-17.3-19.1c-0.7-1.3-1.5-2.8-2.2-4.4c-0.4-0.8-0.7-1.5-1.1-2.4c-0.3-0.7-0.7-1.4-1-2.1c-3.6-4.3-7.1-8.8-9.9-14.1
	c-1.1-2.2-1.9-4.1-2.9-5.8c0-0.1-0.2-0.3-0.2-0.4s-0.2-0.3-0.2-0.4c-1.1-1.6-2.6-2.8-5-3.4c0,0-0.1,0-0.1,0
	c-0.1-0.1-0.3-0.1-0.4-0.2c-3.4-1.1-5.7-2.5-7.9-6.2c-2.8-5.4-4.7-11.7-4.1-18c0.1-0.7,0.2-1.2,0.4-1.7c0,0,0-0.1,0-0.1s0-0.1,0-0.1
	c0.6-1.1,1.6-1.8,2-2.9c1.4-5.6-3-10.7-1-15.9c0.3-0.7,0.5-1.3,0.8-1.8c0,0,0-0.1,0-0.1c0,0,0-0.1,0-0.1c0.9-1.7,2-2.6,3-3.4
	c0.1-0.1,0.2-0.2,0.3-0.4c0.1,0,0.1-0.2,0.2-0.2c0.4-0.3,0.7-0.9,1-1.5c0.1-0.4,0.2-0.9,0.3-1.5c0.3-3.3-0.6-7.2-1.8-11.4
	c-1.7-6-3.8-12.1-4.5-17c-0.3-3.1-1.1-6.6-1.6-10.4c-1.4-9.6-1.6-19.6,8.2-23.5C340.7,342.5,341.1,342.4,341.4,342.3"/>
<path id="line-6" class="st0" d="M333.2,332.9c1,0,3.6-0.2,4.4,0.2c0.4,0.2,1.6,0.2,2.1,0.3c0.2,0.1,0.9,0,1.2,0
	c0.3,0,1.1-0.1,1.4-0.1c0,0,0,0,0.1,0c1.5-0.2,3.4-0.8,5.5-0.8l0,0c0.4,0,0.7,0,1.1,0.1c2.8,0.3,5.5,1.7,7.8,2.9
	c1.1,0.4,2.3,0.7,3.4,0.9c0.9,0.2,1.8,0.2,2.6,0.3c1,0,1.9,0,2.8-0.1c0,0,0,0,0,0c0.2,0,0.7,0,0.9-0.1c0.2,0,0.7,0,0.9,0
	c1.3,0,2.6,0,4,0.1c0.8,0.1,1.5,0.2,2.3,0.4c2,0.5,3.6,1.4,5.1,2.3c0.3,0.1,0.6,0.2,0.9,0.3c1.6,0.6,3.3,1.1,5.2,1.2
	c0.7,0,1.4,0,2.2,0c1.6-0.1,3.1-0.1,4.6,0.1c0.8,0.1,1.6,0.2,2.5,0.4c1,0.3,2.1,0.6,3.2,0.9c1.9,0.1,4,0.3,6,0.4c0.2,0,0.4,0,0.6,0
	c0.5,0,2.1,0.1,2.5,0.1c0,0,0.1,0,0.1,0c0,0,0,0,0,0c1.2,0,2.5-0.1,3.7-0.1c0.7,0,1.4,0,2,0c0.6-0.1,1.2-0.1,1.6-0.2
	c0.4,0,0.8,0,1.1-0.1c3.7-0.4,7.4-2.4,11.9-2.6c0,0,0.2,0,0.2,0c0,0,0.2,0,0.2,0h0.9c6.3,0,11.9,0.7,18.4,4.8
	c7.8,5.3,11.2,4,17.3,8.3c3.7,1.7,8.4,4.7,14.5,10.6c0.6,0.6,1.2,1.2,1.8,1.8c4.5,4.8,5.6,5.2,8,11.6c1.8,3,4.2,5.8,6.7,8.7
	c0,0,0,0,0,0.1s0,0,0,0.1c0.4,0.5,0.9,1,1.3,1.4c2.9,3.3,6.1,7,7.6,12.3c0.7,2.1,1.5,3.9,2.1,5.6c1.6,2.5,3.4,5.1,4.4,9
	c0.6,1.6,1.2,2.8,1.9,3.7c0.4,0.2,0.8,0.4,1.2,0.4c2.6,0.6,5.7-0.6,8.3-0.1c1.2,0.1,2.4,0.4,3.4,0.8c1.2,0.4,2.2,1,3.2,1.8
	c3.3,2.8,5.4,6.8,7.6,10.6c0.1,0.2,0.2,0.3,0.3,0.5c3.5,3.7,6.9,7.6,11,11.2c2,1.6,3.7,3.3,5.1,4.9c4.2,4.7,5.1,9,5.5,12.9
	c1.7,4,3.6,8.6,9,14.7c0,0,0.1,0.1,0.1,0.2s0.1,0.1,0.1,0.2c0,0,0.2,0.3,0.2,0.3c1.9,2.4,4.5,5.6,6.9,9.1c2,2.9,3.7,5.8,5.1,8.7
	c0.7,1.4,1.3,2.9,1.8,4.4c1,3.9,2.2,8.6,2.5,13.4c0.4,6.6-0.8,12.9-6.7,16c-2.4,1.4-5.3,2.5-8.3,3c-0.9,0.1-1.7,0.2-2.5,0.1
	c-6.3-0.5-10.6-3.7-15.3-6.8c-1.8-1.2-3.7-2.4-5.8-3.4c-0.8-0.4-1.5-0.5-2.1-0.6c-1.4-0.1-1.9,1.1-2.7,2.3c0,0.1-0.2,0.1-0.2,0.2
	s-0.2,0.1-0.2,0.2c-2.7,2.3-7.1,2.9-11.6,2.3c-0.8,0.1-1.7,0.2-2.5,0.2c-3.2,0.2-6.5-0.1-9.5-0.8c-1.9-0.4-3.6-1-5.1-1.7
	c-2.7-1.5-5.3-2.4-7.8-3.1c-1.7,0.4-3.3,1-5,1.8c-0.8,0.3-1.5,0.7-2.3,1c-2.1,1.2-6.7,3.7-8.9,5.5c-1.4,1.4-2.8,3.1-4.1,5
	c0,0-0.1,0.2-0.1,0.2s-0.1,0.2-0.1,0.2c-1,1.5-2,3-2.8,4.4c-1.9,3.4-2.7,6.8-3.5,10.2c-0.2,0.8-0.4,1.5-0.7,2.3
	c-1.3,3.6-3.6,7-7.2,9.8c-0.5,0.4-1,0.7-1.5,0.9c-1.6,0.8-3.3,1.4-4.6,2.7c-1.6,1.6-1.9,3.3-3.7,4.8c-1.7,1.4-4.1,2.2-6.6,2.7
	c-1.9,0.3-3.9,0.4-5.9,0.3c-0.3,0-0.6,0-0.9,0c-0.4,0-1.5-0.1-1.8-0.1c-0.2,0-1.1-0.2-1.3-0.3c-8.4-2-12.3-8.5-18.2-15.4
	c-2-2.3-3.9-4.6-5.9-6.5c-2.4-1.1-5-2.2-8-3.3c-4.8-1.7-9.1-3.8-12.9-6.6c-5.5-4-9.2-8.8-12.2-14.6c-2.1-2.3-4.5-5.2-6.9-9
	c-5.9-8.4-12.1-9.2-18.2-20.7c-0.8-1.4-1.6-3-2.4-4.7c-0.4-0.8-0.8-1.6-1.2-2.5c-0.4-0.7-0.7-1.5-1.1-2.2c-4-4.5-7.9-9.2-11-14.7
	c-1.2-2.3-2.1-4.3-3.2-6.1c0-0.1-0.2-0.3-0.3-0.4c0-0.1-0.2-0.3-0.3-0.4c-1.2-1.8-2.7-3.1-5.2-3.9c0,0-0.1,0-0.1,0
	c-0.1-0.1-0.3-0.1-0.5-0.2c-3.5-1.4-5.9-3.1-8.1-7c-3-5.9-4.9-12.8-4.2-19.6c0.1-0.7,0.2-1.3,0.5-1.8c0,0,0-0.1,0-0.1
	c0,0,0-0.1,0-0.1c0.6-1.3,1.6-2,2.1-3.2c1.2-6.1-3-11.6-0.9-17.3c0.3-0.7,0.6-1.4,0.9-2c0,0,0-0.1,0-0.1c0,0,0-0.1,0-0.1
	c1-1.8,2.1-2.9,3.2-3.8c0.1-0.1,0.2-0.3,0.3-0.4c0.1,0,0.1-0.3,0.2-0.3c0.4-0.4,0.6-1,0.9-1.7c0.1-0.4,0.2-1,0.2-1.6
	c0.1-3.5-0.9-7.8-2.2-12.4c-1.9-6.5-4-13.1-4.7-18.5c-0.3-3.4-0.9-7.3-1.3-11.3c-0.9-10.4-0.4-21,10.2-25.2
	C332.4,333.1,332.8,333,333.2,332.9"/>
<path id="line-7" class="st0" d="M324.9,323.5c1,0,3.9-0.3,4.7,0.1c0.3,0.2,1.8,0.2,2.2,0.3c0.2,0.1,1,0,1.2,0
	c0.3,0,1.2-0.1,1.5-0.1c0,0,0.1,0,0.1,0c1.5-0.2,3.5-0.8,5.8-0.8l0,0c0.4,0,0.8,0,1.1,0.1c3,0.3,5.9,1.7,8.4,2.9
	c1.2,0.4,2.4,0.7,3.6,0.8c1,0.2,1.9,0.2,2.8,0.3c1.1,0,2.1,0,3,0c0,0,0,0,0,0c0.2,0,0.8,0,1,0c0.2,0,0.8,0,1,0c1.4,0,2.8,0,4.3,0.2
	c0.8,0.1,1.6,0.3,2.4,0.5c2.1,0.5,3.9,1.5,5.5,2.5c0.3,0.1,0.6,0.2,0.9,0.3c1.8,0.6,3.6,1.1,5.6,1.2c0.8,0,1.5,0.1,2.4,0
	c1.7-0.1,3.3,0,4.9,0.2c0.9,0.1,1.7,0.3,2.6,0.5c1.1,0.4,2.3,0.7,3.5,1c2.1,0.1,4.2,0.3,6.4,0.4c0.2,0,0.4,0,0.6,0
	c0.5,0,2.2,0.2,2.7,0.2c0,0,0.1,0,0.1,0c0,0,0,0,0,0c1.3,0,2.7-0.1,3.9-0.1c0.7,0,1.4,0,2.1,0c0.6-0.1,1.2-0.2,1.8-0.2
	c0.4,0,0.8-0.1,1.2-0.1c3.9-0.5,7.9-2.5,12.8-2.7c0,0,0.2,0,0.2,0c0,0,0.2,0,0.2,0h0.9c6.7,0,12.8,0.7,19.8,4.9
	c8.2,5.3,12,4.4,18.5,8.9c4.1,1.7,9.1,4.9,15.7,11.1c0.7,0.6,1.3,1.2,2,1.9c4.7,4.9,6.1,5.6,8.8,12.3c2,3.2,4.5,6.2,7.3,9.3
	c0,0,0,0,0,0.1c0,0,0,0,0,0.1c0.5,0.5,0.9,1,1.4,1.5c3.1,3.5,6.5,7.5,8.2,13.2c0.8,2.2,1.6,4.2,2.3,6c1.8,2.6,3.7,5.5,5,9.7
	c0.6,1.7,1.3,3,2.1,4c0.4,0.2,0.9,0.4,1.3,0.5c2.9,0.7,6.1-0.3,8.9,0.4c1.3,0.2,2.5,0.5,3.7,1c1.2,0.5,2.4,1.2,3.4,2
	c3.6,3.2,5.9,7.5,8.2,11.5c0.1,0.2,0.2,0.4,0.3,0.5c3.9,3.9,7.6,8.1,11.9,12.1c2.1,1.8,3.9,3.6,5.4,5.5c4.4,5.1,5.4,9.8,5.8,14
	c2,4.2,4.3,9.2,10,15.8c0,0,0.1,0.2,0.1,0.2c0,0,0.1,0.2,0.1,0.2c0,0,0.2,0.3,0.3,0.3c2,2.6,4.9,6.1,7.4,10.1c2.1,3.2,4,6.4,5.4,9.7
	c0.7,1.6,1.3,3.2,1.8,4.9c1.1,4.4,2.2,9.6,2.2,14.7c0.2,7.2-1.5,14-7.9,17.4c-2.6,1.5-5.8,2.8-9,3.5c-0.9,0.1-1.8,0.2-2.7,0.2
	c-6.6-0.3-11.4-3.3-16.5-6.4c-2-1.2-4-2.3-6.3-3.3c-0.9-0.4-1.6-0.5-2.2-0.6c-1.5-0.1-2,1-2.9,2.2c0,0.1-0.2,0.1-0.2,0.2
	c0,0.1-0.2,0.1-0.3,0.2c-3,2.1-7.7,2.5-12.4,1.8c-0.9,0.1-1.8,0.2-2.6,0.3c-3.4,0.2-6.9,0-10.1-0.7c-2-0.4-3.8-1-5.4-1.7
	c-2.9-1.5-5.7-2.4-8.4-3.1c-1.7,0.5-3.4,1.3-5.1,2.2c-0.8,0.4-1.6,0.8-2.4,1.2c-2.2,1.5-6.9,4.1-9.3,6.1c-1.5,1.5-2.9,3.4-4.3,5.4
	c0,0-0.1,0.2-0.1,0.2c0,0-0.1,0.2-0.1,0.2c-1.1,1.6-2.1,3.2-3,4.7c-2.1,3.6-3,7.1-4.1,10.6c-0.2,0.8-0.5,1.6-0.9,2.4
	c-1.6,3.7-4.2,7.2-8,10.1c-0.5,0.4-1,0.7-1.6,1c-1.7,0.9-3.6,1.5-4.9,2.7c-1.7,1.6-2.3,3.3-4.2,4.8c-1.9,1.4-4.4,2.2-7,2.6
	c-2.1,0.3-4.2,0.4-6.2,0.3c-0.3,0-0.6,0-1,0c-0.4,0-1.6-0.1-1.9-0.2c-0.2,0-1.3-0.3-1.5-0.3c-9.2-2.2-13.8-9-20.1-16.4
	c-2.2-2.6-4.2-5.1-6.4-7.2c-2.6-1.1-5.5-2.3-8.7-3.6c-5.2-1.9-9.8-4.2-14-7.4c-6-4.5-10-9.8-13.2-16c-2.4-2.5-5.1-5.6-7.8-9.6
	c-6.3-8.8-12.8-10.2-19.1-22.3c-0.8-1.5-1.7-3.2-2.5-5c-0.4-0.9-0.8-1.8-1.3-2.7c-0.4-0.8-0.8-1.6-1.2-2.4
	c-4.4-4.6-8.7-9.5-12.1-15.3c-1.3-2.4-2.4-4.6-3.5-6.5c0-0.1-0.2-0.3-0.3-0.4c0-0.1-0.2-0.3-0.3-0.4c-1.3-1.9-2.9-3.4-5.4-4.3
	c0,0-0.1,0-0.1-0.1c-0.1-0.1-0.3-0.2-0.5-0.2c-3.6-1.7-6-3.6-8.3-7.8c-3.1-6.5-5.1-13.9-4.4-21.2c0.1-0.8,0.2-1.4,0.5-2
	c0,0,0-0.1,0-0.1c0,0,0-0.1,0-0.1c0.6-1.4,1.6-2.2,2.1-3.6c1.1-6.6-2.9-12.6-0.7-18.7c0.3-0.8,0.6-1.5,0.9-2.2c0,0,0-0.1,0.1-0.1
	c0,0,0-0.1,0.1-0.1c1-1.9,2.2-3.1,3.3-4.1c0.1-0.2,0.2-0.3,0.3-0.5c0.1,0,0.1-0.3,0.2-0.3c0.4-0.5,0.5-1.2,0.7-2
	c0.1-0.5,0.1-1.1,0.1-1.8c-0.1-3.8-1.3-8.4-2.7-13.3c-2-7.1-4.2-14.1-4.8-20.1c-0.2-3.7-0.8-7.9-1-12.2
	c-0.5-11.2,0.8-22.3,12.3-26.9C324.1,323.7,324.5,323.5,324.9,323.5"/>
<path id="line-8" class="st0" d="M316.7,314c1,0,4.2-0.5,5-0.1c0.3,0.2,1.9,0.2,2.4,0.3c0.2,0.1,1.1,0,1.3,0c0.3,0,1.3-0.1,1.6-0.2
	c0,0,0.1,0,0.1,0c1.5-0.2,3.7-0.8,6.2-0.8l0,0c0.4,0,0.8,0,1.2,0.1c3.2,0.3,6.3,1.7,9,2.9c1.3,0.4,2.6,0.6,3.9,0.8
	c1.1,0.1,2,0.2,2.9,0.3c1.2,0,2.2,0,3.2,0c0,0,0,0,0,0c0.2,0,0.9,0,1,0c0.2,0,0.9,0,1,0c1.5,0,3,0.1,4.6,0.3
	c0.9,0.1,1.7,0.3,2.6,0.5c2.2,0.6,4.1,1.6,5.9,2.6c0.3,0.1,0.7,0.2,1,0.3c1.9,0.6,3.8,1.1,6,1.2c0.8,0.1,1.7,0.1,2.5,0.1
	c1.8,0,3.5,0,5.3,0.3c0.9,0.1,1.8,0.3,2.8,0.5c1.2,0.4,2.4,0.7,3.7,1.1c2.2,0.1,4.5,0.3,6.8,0.4c0.2,0,0.4,0,0.7,0
	c0.5,0,2.4,0.2,2.9,0.2c0,0,0.1,0,0.1,0c0,0,0,0,0,0c1.4,0,2.9-0.1,4.2-0.1c0.8,0,1.5,0,2.2,0c0.7-0.1,1.3-0.2,1.9-0.3
	c0.4,0,0.9-0.1,1.3-0.1c4.2-0.5,8.5-2.6,13.6-2.8c0,0,0.2,0,0.2,0c0,0,0.2,0,0.2,0h1c7,0,13.6,0.7,21.2,5.1
	c8.6,5.4,12.8,4.7,19.7,9.6c4.4,1.8,9.9,5.1,16.8,11.5c0.7,0.6,1.4,1.3,2.1,2c4.9,5,6.6,6,9.6,12.9c2.1,3.3,4.9,6.5,7.8,9.8
	c0,0,0,0,0.1,0.1c0,0,0,0,0.1,0.1c0.5,0.6,1,1.1,1.4,1.6c3.2,3.6,6.8,7.9,8.8,14c0.9,2.4,1.7,4.5,2.5,6.5c1.9,2.8,4.1,5.9,5.6,10.3
	c0.7,1.8,1.5,3.2,2.3,4.3c0.5,0.2,1,0.4,1.4,0.5c3.1,0.8,6.6,0,9.6,0.9c1.4,0.2,2.7,0.7,3.9,1.2c1.3,0.6,2.5,1.3,3.6,2.3
	c3.9,3.5,6.4,8.2,8.8,12.3c0.1,0.2,0.2,0.4,0.3,0.6c4.3,4.1,8.4,8.7,12.9,12.9c2.2,2,4.1,3.9,5.7,6c4.6,5.5,5.7,10.6,6.2,15.1
	c2.3,4.5,5,9.8,11,16.9c0,0,0.1,0.2,0.1,0.2s0.1,0.2,0.1,0.2c0,0,0.2,0.3,0.3,0.4c2.1,2.7,5.2,6.7,7.9,11.1
	c2.3,3.6,4.2,7.1,5.7,10.6c0.7,1.8,1.4,3.5,1.9,5.3c1.1,4.9,2.1,10.5,2,16.1c-0.1,7.8-2.3,15.1-9.1,18.8c-2.8,1.7-6.3,3.1-9.8,3.9
	c-1,0.2-1.9,0.3-2.8,0.3c-7-0.1-12.2-3-17.8-6c-2.2-1.1-4.4-2.3-6.8-3.3c-0.9-0.4-1.7-0.6-2.4-0.6c-1.6-0.1-2.2,1-3.2,2
	c0,0.1-0.3,0.1-0.3,0.2c0,0.1-0.3,0.1-0.3,0.2c-3.4,1.9-8.3,2.2-13.2,1.3c-0.9,0.1-1.9,0.2-2.8,0.3c-3.6,0.3-7.3,0-10.7-0.6
	c-2.1-0.4-4.1-1-5.8-1.7c-3.1-1.5-6.1-2.4-8.9-3.1c-1.7,0.7-3.4,1.7-5.2,2.7c-0.8,0.5-1.6,0.9-2.5,1.4c-2.3,1.7-7.1,4.6-9.6,6.8
	c-1.5,1.6-3,3.6-4.5,5.8c0,0-0.1,0.2-0.1,0.2s-0.1,0.2-0.1,0.2c-1.1,1.7-2.2,3.4-3.2,5c-2.2,3.8-3.4,7.5-4.7,11.1
	c-0.3,0.8-0.7,1.7-1,2.5c-1.9,3.9-4.7,7.4-8.9,10.4c-0.5,0.4-1.1,0.7-1.7,1c-1.8,0.9-3.8,1.5-5.2,2.8c-1.9,1.6-2.6,3.3-4.7,4.8
	c-2.1,1.4-4.7,2.2-7.5,2.6c-2.2,0.3-4.4,0.4-6.6,0.3c-0.3,0-0.7,0-1-0.1c-0.4,0-1.7-0.1-2.1-0.2c-0.2,0-1.4-0.3-1.6-0.3
	c-9.9-2.3-15.3-9.4-22.1-17.4c-2.4-2.8-4.6-5.5-6.8-7.9c-2.8-1.2-6-2.5-9.5-3.9c-5.5-2-10.6-4.7-15-8.2
	c-6.4-4.9-10.7-10.8-14.2-17.4c-2.6-2.6-5.6-5.9-8.7-10.2c-6.7-9.1-13.4-11.3-19.9-23.9c-0.8-1.6-1.8-3.3-2.7-5.3
	c-0.4-0.9-0.9-1.9-1.3-2.9c-0.4-0.8-0.8-1.7-1.2-2.5c-4.8-4.7-9.4-9.8-13.1-15.9c-1.4-2.5-2.6-4.8-3.9-6.8c0-0.1-0.2-0.4-0.3-0.5
	c0-0.1-0.2-0.4-0.3-0.4c-1.4-2-3.1-3.6-5.6-4.7c0,0-0.1,0-0.1-0.1c-0.2-0.1-0.3-0.2-0.5-0.3c-3.7-1.9-6.2-4.2-8.6-8.6
	c-3.3-7-5.3-15-4.5-22.8c0.1-0.8,0.3-1.5,0.5-2.1c0,0,0-0.1,0-0.1s0-0.1,0-0.1c0.6-1.5,1.6-2.4,2.1-3.9c1-7.1-2.9-13.6-0.5-20.2
	c0.3-0.8,0.6-1.6,1-2.3c0,0,0-0.1,0.1-0.1c0,0,0-0.1,0.1-0.1c1.1-2,2.3-3.4,3.5-4.5c0.1-0.2,0.2-0.4,0.2-0.6c0.1,0,0.1-0.4,0.2-0.4
	c0.3-0.5,0.4-1.3,0.6-2.2c0-0.5,0.1-1.2,0-1.9c-0.2-4.1-1.6-9-3.1-14.3c-2.2-7.6-4.4-15.2-4.9-21.6c-0.2-4.1-0.6-8.6-0.7-13.2
	c-0.1-12,2-23.7,14.3-28.6C315.7,314.3,316.2,314.1,316.7,314"/>
<path id="line-9" class="st0" d="M308.4,304.6c1,0,4.6-0.7,5.3-0.3c0.3,0.2,2.1,0.1,2.5,0.2c0.2,0,1.2,0,1.4,0
	c0.3,0,1.4-0.1,1.7-0.2c0,0,0.1,0,0.1,0c1.6-0.2,3.9-0.9,6.5-0.9l0,0c0.4,0,0.9,0,1.3,0.1c3.4,0.3,6.7,1.7,9.6,3
	c1.4,0.4,2.8,0.6,4.2,0.8c1.1,0.1,2.2,0.2,3.1,0.3c1.2,0,2.4,0,3.4,0c0,0,0,0,0,0c0.2,0,0.9,0,1.1,0c0.2,0,0.9,0,1.1,0
	c1.6,0,3.2,0.1,4.9,0.4c0.9,0.1,1.8,0.3,2.8,0.6c2.4,0.6,4.4,1.7,6.3,2.7c0.4,0.1,0.7,0.2,1.1,0.3c2.1,0.5,4.1,1.1,6.4,1.2
	c0.9,0.1,1.8,0.1,2.7,0.1c1.9,0,3.7,0.1,5.6,0.4c1,0.2,1.9,0.3,3,0.6c1.3,0.4,2.6,0.8,3.9,1.2c2.4,0.1,4.8,0.3,7.2,0.5
	c0.2,0,0.5,0,0.7,0.1c0.5,0,2.6,0.2,3.1,0.2c0,0,0.1,0,0.1,0c0,0,0,0,0,0c1.5,0,3-0.1,4.5-0.1c0.8,0,1.6,0,2.4-0.1
	c0.7-0.1,1.4-0.2,2-0.3c0.5,0,0.9-0.1,1.4-0.2c4.4-0.6,9-2.7,14.5-2.9c0,0,0.2,0,0.2,0c0,0,0.2,0,0.3,0h1c7.3,0,14.4,0.7,22.6,5.2
	c9,5.4,13.6,5.1,20.8,10.2c4.8,1.9,10.6,5.3,18,12c0.8,0.7,1.5,1.4,2.3,2.1c5.1,5.2,7.1,6.4,10.4,13.5c2.3,3.5,5.2,6.8,8.3,10.4
	c0,0,0,0.1,0.1,0.1s0,0.1,0.1,0.1c0.5,0.6,1,1.2,1.5,1.7c3.4,3.8,7.2,8.3,9.3,14.8c1,2.6,1.9,4.8,2.6,6.9c2.1,2.9,4.5,6.2,6.1,10.9
	c0.8,1.9,1.6,3.3,2.5,4.6c0.5,0.3,1,0.4,1.5,0.6c3.4,0.9,7,0.3,10.3,1.4c1.5,0.3,2.9,0.8,4.1,1.5c1.4,0.6,2.6,1.5,3.8,2.5
	c4.2,3.9,6.9,8.8,9.4,13.2c0.1,0.2,0.2,0.4,0.4,0.6c4.7,4.4,9.1,9.2,13.9,13.7c2.4,2.1,4.3,4.3,6,6.5c4.8,5.9,6,11.4,6.6,16.2
	c2.6,4.7,5.8,10.3,12,17.9c0,0,0.1,0.2,0.2,0.2s0.1,0.2,0.2,0.2c0,0,0.3,0.4,0.3,0.4c2.3,2.9,5.5,7.2,8.5,12.1
	c2.4,3.9,4.4,7.7,6,11.6c0.8,1.9,1.4,3.8,1.9,5.8c1.1,5.4,2,11.5,1.7,17.5c-0.4,8.4-3,16.1-10.2,20.3c-3.1,1.9-6.8,3.4-10.5,4.3
	c-1,0.2-2,0.3-3,0.4c-7.3,0.1-13-2.7-19-5.6c-2.3-1.1-4.7-2.2-7.2-3.2c-1-0.4-1.8-0.6-2.5-0.6c-1.7-0.2-2.4,0.9-3.5,1.9
	c0,0.1-0.3,0.1-0.3,0.2s-0.3,0.1-0.3,0.2c-3.7,1.7-8.9,1.8-14,0.7c-1,0.1-2,0.3-3,0.3c-3.8,0.3-7.7,0.1-11.3-0.5
	c-2.2-0.4-4.3-1-6.1-1.7c-3.3-1.5-6.4-2.4-9.5-3.2c-1.7,0.9-3.5,2-5.3,3.1c-0.8,0.5-1.7,1.1-2.5,1.6c-2.4,2-7.3,5-10,7.4
	c-1.5,1.8-3.1,3.9-4.6,6.2c0,0-0.1,0.2-0.2,0.2c0,0-0.1,0.2-0.2,0.2c-1.2,1.8-2.3,3.5-3.4,5.2c-2.4,3.9-3.8,7.8-5.3,11.5
	c-0.4,0.9-0.8,1.7-1.2,2.6c-2.1,4-5.3,7.6-9.7,10.7c-0.6,0.4-1.2,0.7-1.8,1c-1.9,0.9-4,1.6-5.6,2.9c-2,1.6-3,3.3-5.2,4.8
	c-2.2,1.4-5,2.2-8,2.6c-2.3,0.3-4.7,0.4-7,0.3c-0.4,0-0.7,0-1.1-0.1c-0.4,0-1.8-0.1-2.2-0.2c-0.2,0-1.5-0.3-1.7-0.4
	c-10.7-2.4-16.8-9.9-24.1-18.5c-2.6-3-4.9-6-7.3-8.5c-3.1-1.3-6.5-2.7-10.2-4.2c-5.8-2.2-11.3-5.1-16.1-9
	c-6.9-5.4-11.5-11.7-15.2-18.8c-2.9-2.7-6.2-6.2-9.5-10.8c-7.1-9.5-14.1-12.3-20.8-25.5c-0.9-1.7-1.9-3.5-2.9-5.6
	c-0.5-1-0.9-2-1.4-3c-0.4-0.9-0.9-1.8-1.3-2.7c-5.2-4.8-10.2-10.2-14.2-16.6c-1.5-2.6-2.8-5-4.2-7.1c0-0.1-0.3-0.4-0.3-0.5
	s-0.3-0.4-0.3-0.5c-1.5-2.1-3.2-3.9-5.8-5.2c0,0-0.1,0-0.1-0.1c-0.2-0.1-0.3-0.2-0.5-0.3c-3.8-2.2-6.4-4.7-8.8-9.3
	c-3.4-7.6-5.5-16-4.7-24.4c0.1-0.8,0.3-1.6,0.5-2.3c0,0,0-0.1,0-0.1s0-0.1,0-0.1c0.6-1.6,1.6-2.7,2.1-4.2c0.9-7.5-2.9-14.5-0.4-21.6
	c0.3-0.9,0.7-1.7,1-2.5c0,0,0-0.1,0.1-0.1s0-0.1,0.1-0.1c1.1-2.2,2.4-3.6,3.6-4.9c0.1-0.2,0.1-0.4,0.2-0.6c0.1,0,0-0.4,0.1-0.4
	c0.3-0.6,0.3-1.5,0.4-2.4c0-0.6,0-1.3-0.1-2c-0.4-4.3-1.9-9.6-3.6-15.2c-2.4-8.1-4.6-16.2-5.1-23.1c-0.1-4.4-0.5-9.2-0.4-14.1
	c0.4-12.8,3.2-25,16.3-30.3C307.4,304.8,307.9,304.7,308.4,304.6"/>
<path id="line-10" class="st0" d="M300.1,295.2c0.9,0,4.9-0.8,5.6-0.4c0.3,0.2,2.3,0.1,2.7,0.2c0.2,0,1.3,0,1.5,0
	c0.2,0,1.5-0.1,1.8-0.2c0,0,0.1,0,0.1,0c1.6-0.2,4-0.9,6.9-0.9l0,0c0.5,0,0.9,0,1.4,0.1c3.6,0.3,7.1,1.7,10.2,3
	c1.5,0.4,2.9,0.6,4.4,0.7c1.2,0.1,2.3,0.2,3.3,0.3c1.3,0.1,2.5,0.1,3.6,0c0,0,0,0,0,0c0.2,0,1,0,1.2,0c0.2,0,1,0.1,1.2,0
	c1.7,0.1,3.4,0.2,5.2,0.4c1,0.2,1.9,0.4,2.9,0.6c2.5,0.7,4.6,1.8,6.6,2.9c0.4,0.1,0.8,0.2,1.2,0.3c2.2,0.5,4.4,1.1,6.8,1.2
	c1,0.1,1.9,0.1,2.9,0.1c2,0,4,0.1,5.9,0.4c1,0.2,2.1,0.4,3.1,0.7c1.4,0.4,2.7,0.9,4.1,1.2c2.5,0.1,5.1,0.3,7.6,0.5
	c0.2,0,0.5,0,0.7,0.1c0.5,0,2.8,0.3,3.2,0.3c0,0,0.1,0,0.1,0c0,0,0,0,0,0c1.6,0,3.2-0.1,4.7-0.1c0.9,0,1.7,0,2.5-0.1
	c0.7-0.1,1.4-0.3,2.1-0.3c0.5-0.1,1-0.1,1.5-0.2c4.6-0.7,9.5-2.8,15.3-3c0,0,0.2,0,0.2,0c0,0,0.2,0,0.3,0h1.1c7.6,0,15.2,0.8,24,5.4
	c9.3,5.5,14.4,5.5,22,10.8c5.1,2,11.4,5.5,19.2,12.5c0.8,0.7,1.6,1.4,2.4,2.2c5.3,5.3,7.6,6.8,11.2,14.1c2.5,3.6,5.5,7.2,8.8,11
	c0,0,0,0.1,0.1,0.1s0,0.1,0.1,0.1c0.6,0.6,1.1,1.2,1.6,1.8c3.5,4,7.5,8.8,9.9,15.6c1.1,2.7,2,5.1,2.8,7.4c2.2,3.1,4.8,6.6,6.7,11.6
	c0.8,1.9,1.7,3.5,2.7,4.8c0.5,0.3,1.1,0.5,1.7,0.6c3.6,1,7.5,0.6,10.9,1.8c1.6,0.4,3,1,4.4,1.7c1.5,0.7,2.8,1.6,4,2.7
	c4.5,4.2,7.4,9.5,10,14.1c0.1,0.2,0.3,0.4,0.4,0.7c5.1,4.6,9.8,9.7,14.8,14.6c2.5,2.3,4.5,4.6,6.3,7c4.9,6.3,6.3,12.2,6.9,17.3
	c2.9,4.9,6.5,10.9,13,19c0,0,0.2,0.2,0.2,0.2c0,0,0.1,0.2,0.2,0.2c0,0,0.3,0.4,0.3,0.4c2.4,3.1,5.9,7.8,9,13
	c2.6,4.2,4.7,8.3,6.3,12.5c0.8,2.1,1.4,4.2,2,6.3c1.2,5.8,2,12.4,1.5,18.9c-0.6,9-3.7,17.2-11.4,21.7c-3.3,2.1-7.2,3.7-11.2,4.8
	c-1.1,0.2-2.1,0.4-3.1,0.4c-7.7,0.3-13.8-2.3-20.2-5.2c-2.5-1.1-5-2.2-7.7-3.2c-1-0.4-1.9-0.6-2.6-0.7c-1.8-0.2-2.6,0.8-3.8,1.8
	c0,0.1-0.3,0.1-0.3,0.2c0,0.1-0.3,0.1-0.3,0.2c-4.1,1.6-9.5,1.5-14.9,0.2c-1,0.2-2.1,0.3-3.1,0.4c-4,0.3-8.1,0.2-11.9-0.4
	c-2.3-0.4-4.5-1-6.5-1.7c-3.5-1.4-6.8-2.4-10-3.2c-1.8,1-3.6,2.3-5.4,3.6c-0.8,0.6-1.7,1.2-2.6,1.8c-2.6,2.2-7.5,5.4-10.3,8
	c-1.6,1.9-3.2,4.1-4.8,6.5c0,0-0.1,0.2-0.2,0.2c0,0-0.1,0.2-0.2,0.2c-1.2,1.8-2.4,3.7-3.5,5.5c-2.5,4.1-4.2,8.1-5.9,12
	c-0.4,0.9-0.9,1.8-1.4,2.6c-2.4,4.1-5.8,7.9-10.5,11c-0.6,0.4-1.3,0.7-1.9,1.1c-2,0.9-4.2,1.6-5.9,2.9c-2.2,1.6-3.3,3.3-5.7,4.8
	c-2.4,1.4-5.3,2.2-8.5,2.6c-2.4,0.3-4.9,0.3-7.3,0.2c-0.4,0-0.8,0-1.1-0.1c-0.4,0-2-0.2-2.3-0.2c-0.2,0-1.6-0.3-1.8-0.4
	c-11.4-2.6-18.2-10.3-26.1-19.5c-2.8-3.3-5.3-6.5-7.7-9.2c-3.3-1.3-6.9-2.8-10.9-4.5c-6.2-2.4-12-5.5-17.2-9.8
	c-7.3-5.8-12.2-12.7-16.1-20.3c-3.1-2.8-6.7-6.6-10.4-11.5c-7.5-9.8-14.8-13.3-21.7-27.1c-0.9-1.8-2-3.7-3-5.9c-0.5-1-1-2.1-1.5-3.2
	c-0.5-0.9-0.9-1.9-1.4-2.8c-5.6-5-11-10.5-15.3-17.2c-1.6-2.7-3-5.2-4.5-7.5c0-0.1-0.3-0.4-0.3-0.5c0-0.1-0.3-0.4-0.3-0.5
	c-1.6-2.3-3.4-4.2-6-5.6c0,0-0.1-0.1-0.1-0.1c-0.2-0.1-0.4-0.2-0.5-0.4c-3.9-2.5-6.5-5.3-9-10.1c-3.6-8.1-5.7-17.1-4.9-26
	c0.1-0.9,0.3-1.7,0.5-2.4c0,0,0-0.1,0-0.1s0-0.1,0-0.1c0.6-1.7,1.6-2.9,2.2-4.6c0.7-8-2.9-15.5-0.2-23c0.3-0.9,0.7-1.8,1.1-2.7
	c0,0,0-0.1,0.1-0.1c0,0,0-0.1,0.1-0.1c1.2-2.3,2.4-3.9,3.8-5.3c0.1-0.2,0.1-0.5,0.2-0.7c0.1,0,0-0.4,0.1-0.5
	c0.2-0.6,0.2-1.7,0.3-2.7c0-0.6-0.1-1.3-0.1-2.2c-0.6-4.6-2.3-10.1-4-16.2c-2.6-8.7-4.8-17.2-5.2-24.7c-0.1-4.7-0.3-9.9-0.1-15
	c0.8-13.5,4.4-26.4,18.3-32C299.1,295.4,299.6,295.3,300.1,295.2"/>
<path id="line-11" class="st0" d="M291.9,285.7c0.9,0,5.2-1,6-0.6c0.3,0.2,2.4,0.1,2.8,0.2c0.2,0,1.4-0.1,1.6-0.1
	c0.2,0,1.7-0.2,1.9-0.2c0,0,0.1,0,0.1,0c1.7-0.3,4.2-0.9,7.2-0.9l0,0c0.5,0,1,0,1.5,0.1c3.9,0.3,7.6,1.7,10.8,3
	c1.5,0.3,3.1,0.6,4.7,0.7c1.3,0.1,2.4,0.2,3.5,0.3c1.4,0.1,2.7,0.1,3.8,0.1c0,0,0,0,0.1,0c0.1,0,1.1,0,1.2,0c0.1,0,1.1,0.1,1.2,0
	c1.8,0.1,3.6,0.2,5.5,0.5c1,0.2,2,0.4,3.1,0.7c2.6,0.7,4.9,1.9,7,3c0.4,0.1,0.8,0.2,1.2,0.3c2.3,0.5,4.6,1,7.2,1.2
	c1,0.1,2,0.1,3.1,0.2c2.2,0,4.2,0.2,6.2,0.5c1.1,0.2,2.2,0.4,3.3,0.7c1.4,0.5,2.9,0.9,4.3,1.3c2.6,0.1,5.4,0.3,8.1,0.5
	c0.3,0,0.5,0,0.8,0.1c0.4,0,3,0.3,3.4,0.3c0,0,0.1,0,0.1,0c0,0,0,0,0,0c1.6,0,3.4-0.1,5-0.1c0.9,0,1.8,0,2.6-0.1
	c0.8-0.1,1.5-0.3,2.2-0.4c0.5-0.1,1-0.1,1.5-0.2c4.8-0.8,10-2.9,16.2-3.1c0,0,0.2,0,0.3,0c0,0,0.2,0,0.3,0h1.2
	c8,0,16.1,0.8,25.4,5.5c9.7,5.6,15.3,5.8,23.1,11.5c5.5,2,12.1,5.7,20.4,12.9c0.9,0.7,1.7,1.5,2.6,2.3c5.5,5.4,8.1,7.3,12,14.8
	c2.6,3.8,5.9,7.5,9.3,11.5c0,0,0.1,0.1,0.1,0.1c0,0,0.1,0.1,0.1,0.1c0.6,0.7,1.1,1.3,1.7,1.9c3.7,4.2,7.9,9.2,10.4,16.5
	c1.1,2.9,2.1,5.4,3,7.8c2.4,3.2,5.2,7,7.3,12.2c0.9,2,1.8,3.7,2.9,5.1c0.6,0.3,1.2,0.5,1.8,0.6c3.8,1.1,7.9,0.9,11.6,2.3
	c1.6,0.5,3.2,1.1,4.6,2c1.5,0.8,2.9,1.8,4.2,3c4.8,4.5,7.8,10.1,10.6,15c0.1,0.2,0.3,0.5,0.4,0.7c5.5,4.9,10.6,10.2,15.8,15.4
	c2.6,2.4,4.7,4.9,6.6,7.5c5.1,6.7,6.6,13,7.3,18.4c3.2,5.2,7.2,11.5,14,20c0,0,0.2,0.2,0.2,0.2s0.2,0.2,0.2,0.2c0,0,0.3,0.4,0.3,0.5
	c2.5,3.3,6.2,8.3,9.5,14c2.7,4.6,4.9,9,6.6,13.5c0.8,2.2,1.5,4.5,2,6.7c1.2,6.3,1.9,13.4,1.2,20.3c-0.9,9.6-4.4,18.3-12.6,23.2
	c-3.5,2.2-7.7,4.1-12,5.2c-1.1,0.2-2.2,0.4-3.3,0.5c-8.1,0.4-14.6-2-21.4-4.7c-2.6-1.1-5.3-2.2-8.2-3.2c-1.1-0.4-2-0.6-2.8-0.7
	c-1.9-0.2-2.8,0.7-4.1,1.6c0,0.1-0.3,0.1-0.4,0.2s-0.4,0.1-0.4,0.1c-4.4,1.4-10.1,1.1-15.7-0.3c-1.1,0.2-2.2,0.3-3.3,0.4
	c-4.2,0.4-8.5,0.2-12.5-0.4c-2.4-0.4-4.7-0.9-6.8-1.6c-3.7-1.4-7.2-2.4-10.5-3.2c-1.8,1.2-3.6,2.6-5.5,4.1c-0.9,0.7-1.8,1.3-2.7,2
	c-2.7,2.4-7.7,5.9-10.7,8.7c-1.6,2-3.3,4.4-4.9,6.9c0,0-0.1,0.2-0.2,0.3s-0.1,0.2-0.2,0.3c-1.3,1.9-2.5,3.9-3.7,5.8
	c-2.7,4.3-4.5,8.5-6.5,12.5c-0.5,0.9-1,1.8-1.6,2.7c-2.7,4.2-6.4,8.1-11.3,11.3c-0.6,0.4-1.3,0.8-2,1.1c-2.1,1-4.4,1.7-6.3,3
	c-2.4,1.6-3.7,3.3-6.3,4.8c-2.6,1.4-5.7,2.2-9,2.5c-2.6,0.3-5.2,0.3-7.7,0.2c-0.4,0-0.8,0-1.2-0.1c-0.3,0-2.1-0.2-2.4-0.2
	c-0.2,0-1.8-0.4-2-0.4c-12.1-2.7-19.7-10.8-28-20.5c-3-3.5-5.6-7-8.1-9.9c-3.5-1.4-7.4-3-11.6-4.8c-6.5-2.6-12.7-6-18.2-10.6
	c-7.8-6.3-13-13.6-17.1-21.7c-3.3-3-7.3-6.9-11.2-12.1c-7.8-10.2-15.4-14.3-22.6-28.6c-1-1.9-2-3.9-3.2-6.2
	c-0.5-1.1-1.1-2.2-1.6-3.3c-0.5-1-1-2-1.5-3c-6-5.1-11.7-10.9-16.4-17.8c-1.8-2.8-3.2-5.4-4.8-7.8c0-0.1-0.3-0.5-0.4-0.5
	c0-0.1-0.3-0.5-0.4-0.5c-1.7-2.4-3.5-4.4-6.2-6c0,0-0.1-0.1-0.1-0.1c-0.2-0.1-0.4-0.3-0.5-0.4c-3.9-2.8-6.7-5.8-9.2-10.9
	c-3.8-8.7-5.9-18.2-5-27.7c0.1-0.9,0.3-1.8,0.5-2.6c0,0,0-0.1,0-0.1c0,0,0-0.1,0-0.1c0.6-1.8,1.6-3.1,2.2-4.9
	c0.6-8.5-2.9-16.5,0-24.4c0.4-1,0.7-1.9,1.2-2.8c0,0,0-0.1,0.1-0.1s0-0.1,0.1-0.1c1.2-2.4,2.5-4.2,3.9-5.7c0-0.3,0.1-0.5,0.1-0.8
	c0.1,0,0-0.5,0.1-0.5c0.2-0.7,0.1-1.8,0.1-2.9c0-0.7-0.1-1.4-0.2-2.3c-0.7-4.9-2.6-10.7-4.5-17.1c-2.7-9.2-5-18.3-5.4-26.2
	c-0.1-5.1-0.2-10.5,0.2-16c1.2-14.3,5.7-27.7,20.3-33.7C290.8,286,291.3,285.9,291.9,285.7"/>
<path id="line-12" class="st0" d="M283.6,276.3c0.9,0,5.5-1.1,6.3-0.8c0.3,0.1,2.6,0.1,3,0.1c0.2,0,1.5-0.1,1.7-0.1
	c0.2,0,1.8-0.2,2-0.2c0,0,0.1,0,0.1,0c1.7-0.3,4.4-0.9,7.5-0.9l0,0c0.5,0,1,0,1.5,0.1c4.1,0.3,8,1.8,11.3,3.1
	c1.6,0.3,3.3,0.5,4.9,0.7c1.3,0.1,2.5,0.2,3.7,0.3c1.5,0.1,2.8,0.1,4,0.1c0,0,0,0,0.1,0c0.1,0,1.2,0.1,1.3,0c0.1,0,1.2,0.1,1.3,0.1
	c1.9,0.1,3.8,0.3,5.7,0.6c1.1,0.2,2.1,0.4,3.2,0.7c2.8,0.8,5.2,2,7.4,3.2c0.4,0.1,0.9,0.2,1.3,0.3c2.5,0.5,4.9,1,7.6,1.2
	c1.1,0.1,2.2,0.1,3.3,0.2c2.3,0.1,4.4,0.3,6.5,0.6c1.2,0.2,2.3,0.5,3.5,0.8c1.5,0.5,3,1,4.6,1.4c2.8,0.1,5.6,0.3,8.5,0.6
	c0.3,0,0.5,0,0.8,0.1c0.4,0,3.2,0.3,3.6,0.3c0,0,0.1,0,0.1,0c0,0,0,0,0,0c1.7,0,3.5-0.1,5.2-0.1c0.9,0,1.9-0.1,2.8-0.1
	c0.8-0.2,1.6-0.3,2.3-0.4c0.5-0.1,1.1-0.2,1.6-0.3c5.1-0.8,10.5-3,17.1-3.2c0,0,0.2,0,0.3,0c0,0,0.3,0,0.3,0h1.2
	c8.3,0,16.9,0.8,26.8,5.7c10.1,5.6,16.1,6.2,24.3,12.1c5.8,2.1,12.9,5.9,21.5,13.4c0.9,0.8,1.8,1.6,2.7,2.4
	c5.8,5.6,8.6,7.7,12.8,15.4c2.8,4,6.2,7.9,9.8,12.1c0,0,0.1,0.1,0.1,0.1c0,0,0.1,0.1,0.1,0.1c0.6,0.7,1.2,1.4,1.8,2
	c3.8,4.3,8.3,9.6,11,17.3c1.2,3,2.3,5.7,3.1,8.3c2.5,3.4,5.5,7.3,7.8,12.8c0.9,2.1,2,3.9,3,5.4c0.6,0.3,1.2,0.5,1.9,0.7
	c4.1,1.2,8.4,1.2,12.3,2.8c1.7,0.5,3.3,1.3,4.8,2.2c1.6,0.9,3.1,2,4.5,3.2c5.1,4.9,8.3,10.8,11.2,15.8c0.1,0.2,0.3,0.5,0.4,0.8
	c5.9,5.1,11.3,10.7,16.8,16.3c2.7,2.6,5,5.3,6.9,8c5.3,7.1,6.9,13.8,7.6,19.5c3.5,5.4,7.9,12.1,15,21.1c0,0,0.2,0.2,0.2,0.3
	s0.2,0.2,0.2,0.3c0,0,0.3,0.5,0.4,0.5c2.6,3.5,6.5,8.9,10,15c2.9,4.9,5.1,9.6,6.9,14.5c0.8,2.4,1.5,4.8,2.1,7.2
	c1.2,6.8,1.8,14.3,0.9,21.7c-1.2,10.1-5.1,19.3-13.8,24.6c-3.7,2.4-8.2,4.4-12.7,5.6c-1.2,0.3-2.3,0.5-3.4,0.6
	c-8.4,0.6-15.4-1.6-22.6-4.3c-2.8-1-5.7-2.1-8.7-3.1c-1.1-0.4-2-0.6-2.9-0.7c-1.9-0.2-3,0.7-4.4,1.5c0,0.1-0.4,0.1-0.4,0.1
	c0,0.1-0.4,0-0.4,0.1c-4.8,1.2-10.7,0.7-16.5-0.9c-1.1,0.2-2.3,0.3-3.4,0.4c-4.4,0.4-8.9,0.3-13.1-0.3c-2.6-0.4-5-0.9-7.2-1.6
	c-3.8-1.4-7.5-2.4-11.1-3.3c-1.8,1.3-3.7,2.9-5.6,4.5c-0.9,0.7-1.8,1.5-2.7,2.2c-2.8,2.7-7.9,6.3-11,9.3c-1.6,2.2-3.3,4.7-5.1,7.3
	c0,0-0.1,0.2-0.2,0.3s-0.2,0.2-0.2,0.3c-1.3,2-2.7,4.1-3.9,6c-2.9,4.5-4.9,8.8-7.1,12.9c-0.5,1-1.1,1.9-1.7,2.8
	c-2.9,4.4-6.9,8.3-12.1,11.6c-0.7,0.4-1.4,0.8-2.2,1.1c-2.2,1-4.6,1.8-6.6,3.1c-2.5,1.6-4,3.3-6.8,4.8c-2.7,1.4-6,2.1-9.4,2.5
	c-2.7,0.3-5.4,0.3-8.1,0.2c-0.4,0-0.8,0-1.2-0.1c-0.3,0-2.2-0.2-2.5-0.2c-0.2,0-1.9-0.4-2.1-0.4c-12.9-2.8-21.2-11.3-30-21.5
	c-3.2-3.7-6-7.4-8.6-10.6c-3.8-1.5-7.9-3.1-12.4-5.1c-6.9-2.8-13.4-6.4-19.3-11.3c-8.2-6.8-13.8-14.6-18.1-23.1
	c-3.6-3.1-7.8-7.2-12.1-12.7c-8.2-10.6-16.1-15.3-23.5-30.2c-1-1.9-2.1-4.1-3.3-6.5c-0.5-1.1-1.1-2.3-1.7-3.5c-0.5-1-1-2.1-1.5-3.1
	c-6.4-5.2-12.5-11.2-17.5-18.4c-1.9-2.8-3.4-5.6-5.1-8.1c0-0.1-0.3-0.5-0.4-0.6c0-0.1-0.3-0.5-0.4-0.5c-1.7-2.5-3.7-4.7-6.4-6.5
	c0,0-0.1-0.1-0.1-0.1c-0.2-0.1-0.4-0.3-0.5-0.4c-4-3-6.9-6.4-9.4-11.7c-3.9-9.2-6.1-19.3-5.2-29.3c0.1-1,0.3-1.9,0.5-2.7
	c0,0,0-0.1,0-0.1c0,0,0-0.1,0-0.1c0.6-1.9,1.6-3.4,2.2-5.3c0.5-9-2.8-17.4,0.1-25.8c0.4-1.1,0.8-2,1.2-3c0,0,0-0.1,0.1-0.1
	s0-0.1,0.1-0.1c1.2-2.5,2.6-4.4,4.1-6.1c0-0.3,0.1-0.5,0.1-0.8c0.1,0,0-0.5,0.1-0.5c0.2-0.8,0-2,0-3.1c-0.1-0.7-0.2-1.5-0.3-2.5
	c-0.9-5.1-2.9-11.3-4.9-18c-2.9-9.7-5.2-19.3-5.5-27.7c0-5.4,0-11.2,0.5-16.9c1.6-15.1,6.9-29.1,22.3-35.4
	C282.4,276.6,283,276.5,283.6,276.3"/>
<path id="line-13" class="st0" d="M275.3,266.9c0.9,0,5.9-1.3,6.6-0.9c0.3,0.1,2.8,0,3.1,0.1c0.2,0,1.6-0.1,1.7-0.1
	c0.2,0,1.9-0.2,2.1-0.2c0,0,0.1,0,0.1,0c1.7-0.3,4.5-0.9,7.9-0.9l0,0c0.5,0,1.1,0,1.6,0.1c4.3,0.3,8.4,1.8,11.9,3.1
	c1.7,0.3,3.4,0.5,5.2,0.6c1.4,0.1,2.7,0.2,3.9,0.3c1.6,0.1,2.9,0.1,4.2,0.1c0,0,0.1,0,0.1,0c0.1,0,1.2,0.1,1.4,0
	c0.1,0,1.2,0.1,1.4,0.1c2,0.1,4,0.3,6,0.7c1.1,0.2,2.3,0.5,3.4,0.8c2.9,0.8,5.4,2.1,7.8,3.3c0.5,0.1,0.9,0.2,1.4,0.3
	c2.6,0.5,5.2,1,8,1.2c1.1,0.1,2.3,0.2,3.5,0.2c2.4,0.1,4.6,0.3,6.9,0.7c1.2,0.2,2.4,0.5,3.6,0.8c1.6,0.5,3.2,1,4.8,1.5
	c2.9,0.1,5.9,0.3,8.9,0.6c0.3,0,0.6,0.1,0.9,0.1c0.4,0,3.4,0.4,3.8,0.4c0,0,0.1,0,0.1,0c0,0,0,0,0,0c1.8,0,3.7-0.1,5.5-0.1
	c1,0,2-0.1,2.9-0.1c0.8-0.2,1.7-0.3,2.4-0.5c0.6-0.1,1.1-0.2,1.7-0.3c5.3-0.9,11.1-3.1,17.9-3.3c0,0,0.2,0,0.3,0c0,0,0.3,0,0.3,0
	h1.3c8.6,0,17.7,0.8,28.2,5.8c10.5,5.7,16.9,6.6,25.5,12.8c6.2,2.2,13.7,6.1,22.7,13.8c1,0.8,1.9,1.6,2.9,2.5c6,5.7,9.1,8.1,13.6,16
	c3,4.1,6.6,8.2,10.3,12.6c0,0,0.1,0.1,0.1,0.1s0.1,0.1,0.1,0.1c0.6,0.8,1.3,1.5,1.8,2.1c3.9,4.5,8.6,10.1,11.6,18.1
	c1.3,3.2,2.4,6.1,3.3,8.7c2.7,3.6,5.9,7.7,8.4,13.5c1,2.2,2.1,4,3.2,5.7c0.6,0.3,1.3,0.5,2,0.7c4.3,1.3,8.9,1.5,12.9,3.3
	c1.8,0.6,3.5,1.5,5.1,2.4c1.7,1,3.2,2.1,4.7,3.5c5.4,5.2,8.8,11.5,11.8,16.7c0.1,0.3,0.3,0.5,0.5,0.8c6.4,5.4,12,11.2,17.7,17.1
	c2.8,2.8,5.2,5.6,7.2,8.5c5.5,7.5,7.2,14.6,8,20.6c3.8,5.7,8.6,12.7,16.1,22.2c0,0,0.2,0.3,0.2,0.3c0,0,0.2,0.3,0.2,0.3
	c0,0,0.3,0.5,0.4,0.5c2.7,3.7,6.9,9.4,10.5,16c3,5.2,5.4,10.3,7.2,15.4c0.9,2.6,1.6,5.1,2.1,7.7c1.3,7.3,1.8,15.3,0.7,23
	c-1.4,10.7-5.8,20.4-15,26.1c-4,2.6-8.6,4.7-13.5,6c-1.2,0.3-2.4,0.5-3.6,0.6c-8.8,0.8-16.2-1.3-23.9-3.9c-3-1-6-2.1-9.1-3.1
	c-1.1-0.4-2.1-0.6-3-0.7c-2-0.2-3.2,0.6-4.7,1.4c0,0.1-0.4,0-0.4,0.1c0,0.1-0.4,0-0.4,0.1c-5.1,1-11.3,0.4-17.3-1.4
	c-1.2,0.2-2.4,0.3-3.6,0.5c-4.6,0.4-9.3,0.3-13.7-0.2c-2.7-0.4-5.2-0.9-7.5-1.6c-4-1.4-7.9-2.4-11.6-3.3c-1.9,1.5-3.8,3.2-5.8,5
	c-0.9,0.8-1.8,1.6-2.8,2.4c-2.9,2.9-8,6.8-11.4,10c-1.7,2.3-3.4,4.9-5.2,7.7c0,0-0.2,0.2-0.2,0.3c0,0-0.2,0.2-0.2,0.3
	c-1.4,2.1-2.8,4.3-4.1,6.3c-3,4.7-5.3,9.2-7.7,13.4c-0.6,1-1.2,2-1.9,2.9c-3.2,4.5-7.5,8.6-13,11.9c-0.7,0.4-1.5,0.8-2.3,1.2
	c-2.3,1-4.9,1.8-6.9,3.1c-2.7,1.6-4.4,3.3-7.3,4.8c-2.9,1.3-6.3,2.1-9.9,2.5c-2.8,0.3-5.7,0.3-8.4,0.1c-0.4,0-0.9-0.1-1.3-0.1
	c-0.3,0-2.3-0.2-2.6-0.2c-0.2,0-2-0.4-2.2-0.5c-13.6-3-22.7-11.7-32-22.5c-3.5-4-6.4-7.9-9-11.2c-4-1.5-8.4-3.3-13.1-5.4
	c-7.2-3-14.1-6.9-20.4-12.1c-8.7-7.2-14.5-15.5-19.1-24.5c-3.8-3.2-8.4-7.5-13-13.3c-8.6-10.9-16.8-16.3-24.4-31.8
	c-1.1-2-2.2-4.3-3.5-6.8c-0.6-1.2-1.2-2.4-1.8-3.6c-0.5-1.1-1.1-2.1-1.6-3.3c-6.9-5.3-13.3-11.5-18.6-19c-2-2.9-3.7-5.8-5.4-8.5
	c0-0.1-0.4-0.5-0.4-0.6c0-0.1-0.3-0.5-0.4-0.6c-1.8-2.7-3.9-5-6.6-6.9c0,0-0.1-0.1-0.1-0.1c-0.2-0.2-0.4-0.3-0.6-0.5
	c-4.1-3.3-7-6.9-9.7-12.5c-4.1-9.8-6.3-20.4-5.3-30.9c0.1-1,0.3-2,0.5-2.9c0,0,0-0.1,0-0.1s0-0.1,0-0.1c0.7-2,1.7-3.6,2.3-5.6
	c0.4-9.4-2.8-18.4,0.3-27.3c0.4-1.1,0.8-2.2,1.3-3.2c0,0,0.1-0.1,0.1-0.1s0.1-0.1,0.1-0.1c1.3-2.7,2.7-4.7,4.2-6.5
	c0-0.3,0-0.6,0.1-0.9c0.1,0,0-0.6,0-0.6c0.1-0.8-0.1-2.1-0.2-3.4c-0.1-0.8-0.2-1.6-0.4-2.6c-1.1-5.4-3.3-11.9-5.4-19
	c-3.1-10.3-5.4-20.3-5.6-29.2c0-5.7,0.1-11.8,0.8-17.9c2.1-15.9,8.1-30.4,24.3-37.1C274.1,267.2,274.7,267,275.3,266.9"/>
<path id="line-14" class="st0" d="M267.1,257.4c0.9,0,6.2-1.4,6.9-1.1c0.3,0.1,2.9,0,3.3,0.1c0.2,0,1.6-0.1,1.8-0.1
	c0.2,0,2-0.2,2.2-0.2c0,0,0.1,0,0.1,0c1.8-0.3,4.7-0.9,8.2-0.9l0,0c0.6,0,1.1,0,1.7,0.1c4.5,0.3,8.8,1.8,12.5,3.1
	c1.8,0.3,3.6,0.5,5.4,0.6c1.5,0.1,2.8,0.2,4,0.3c1.6,0.1,3.1,0.1,4.4,0.2c0,0,0.1,0,0.1,0c0.1,0,1.3,0.1,1.4,0
	c0.1,0,1.3,0.1,1.4,0.1c2.1,0.2,4.2,0.4,6.3,0.8c1.2,0.2,2.4,0.5,3.6,0.8c3,0.9,5.7,2.2,8.1,3.5c0.5,0.1,1,0.2,1.4,0.2
	c2.7,0.5,5.4,1,8.4,1.2c1.2,0.1,2.4,0.2,3.7,0.3c2.5,0.1,4.9,0.4,7.2,0.8c1.3,0.3,2.5,0.5,3.8,0.9c1.7,0.6,3.4,1.1,5,1.6
	c3.1,0.1,6.2,0.4,9.3,0.7c0.3,0,0.6,0.1,0.9,0.1c0.4,0,3.6,0.4,4,0.4c0,0,0.1,0,0.1,0c0,0,0,0,0,0c1.9,0,3.9-0.1,5.8-0.1
	c1,0,2-0.1,3-0.1c0.9-0.2,1.7-0.4,2.5-0.5c0.6-0.1,1.2-0.2,1.8-0.3c5.5-1,11.6-3.2,18.8-3.4c0,0,0.3,0,0.3,0c0,0,0.3,0,0.3,0h1.3
	c9,0,18.6,0.8,29.6,6c10.9,5.7,17.7,6.9,26.6,13.4c6.5,2.3,14.4,6.3,23.9,14.3c1,0.8,2,1.7,3,2.6c6.2,5.8,9.6,8.5,14.4,16.7
	c3.1,4.3,6.9,8.6,10.9,13.2c0,0,0.1,0.1,0.1,0.1c0,0,0.1,0.1,0.1,0.1c0.7,0.8,1.3,1.5,1.9,2.2c4.1,4.7,9,10.5,12.1,19
	c1.4,3.4,2.5,6.4,3.5,9.2c2.9,3.7,6.3,8.1,9,14.1c1.1,2.3,2.2,4.2,3.4,6c0.7,0.3,1.4,0.6,2.1,0.8c4.6,1.4,9.3,1.8,13.6,3.8
	c1.9,0.7,3.6,1.6,5.3,2.7c1.7,1,3.4,2.3,4.9,3.7c5.7,5.6,9.3,12.1,12.4,17.6c0.2,0.3,0.3,0.6,0.5,0.8c6.8,5.6,12.8,11.8,18.7,17.9
	c2.9,2.9,5.4,5.9,7.5,9c5.7,8,7.5,15.4,8.4,21.7c4.1,5.9,9.4,13.3,17.1,23.2c0,0,0.2,0.3,0.2,0.3s0.2,0.3,0.2,0.3
	c0,0,0.4,0.5,0.4,0.6c2.8,3.8,7.2,9.9,11.1,17c3.1,5.6,5.6,10.9,7.4,16.4c0.9,2.7,1.6,5.4,2.2,8.1c1.3,7.8,1.7,16.3,0.4,24.4
	c-1.7,11.3-6.5,21.4-16.2,27.5c-4.2,2.8-9.1,5-14.2,6.5c-1.3,0.3-2.5,0.5-3.7,0.7c-9.1,1-17-1-25.1-3.5c-3.1-1-6.3-2-9.6-3.1
	c-1.2-0.4-2.2-0.6-3.2-0.7c-2.1-0.3-3.4,0.5-4.9,1.3c0,0.1-0.4,0-0.5,0.1c0,0.1-0.4,0-0.5,0.1c-5.5,0.9-11.9,0-18.1-1.9
	c-1.2,0.2-2.5,0.4-3.7,0.5c-4.8,0.5-9.6,0.4-14.3-0.1c-2.8-0.4-5.4-0.9-7.9-1.6c-4.2-1.4-8.2-2.4-12.2-3.3c-1.9,1.7-3.8,3.6-5.9,5.4
	c-0.9,0.9-1.9,1.7-2.9,2.6c-3,3.2-8.2,7.2-11.7,10.6c-1.7,2.4-3.5,5.2-5.4,8.1c0,0-0.2,0.3-0.2,0.3c0,0-0.2,0.3-0.2,0.3
	c-1.5,2.2-2.9,4.4-4.3,6.6c-3.2,4.8-5.6,9.5-8.4,13.9c-0.6,1-1.3,2-2.1,3c-3.5,4.6-8,8.8-13.8,12.2c-0.8,0.4-1.6,0.8-2.4,1.2
	c-2.4,1.1-5.1,1.9-7.3,3.2c-2.8,1.6-4.7,3.3-7.8,4.8c-3.1,1.3-6.6,2.1-10.4,2.5c-2.9,0.3-5.9,0.3-8.8,0.1c-0.5,0-0.9-0.1-1.4-0.1
	c-0.3,0-2.4-0.2-2.7-0.2c-0.2,0-2.2-0.4-2.3-0.5c-14.4-3.1-24.2-12.2-34-23.5c-3.7-4.2-6.7-8.4-9.5-11.9c-4.2-1.6-8.9-3.5-13.8-5.7
	c-7.6-3.2-14.8-7.3-21.4-12.9c-9.1-7.7-15.3-16.5-20.1-25.9c-4.1-3.4-8.9-7.9-13.8-14c-9-11.3-17.5-17.3-25.3-33.4
	c-1.1-2.1-2.3-4.5-3.6-7.1c-0.6-1.2-1.2-2.5-1.9-3.8c-0.6-1.1-1.1-2.2-1.7-3.4c-7.3-5.5-14.1-11.9-19.7-19.7c-2.1-3-3.9-6-5.7-8.8
	c0-0.1-0.4-0.5-0.4-0.6c0-0.1-0.4-0.5-0.4-0.6c-1.9-2.8-4-5.3-6.8-7.3c0,0-0.1-0.1-0.1-0.1c-0.2-0.2-0.4-0.3-0.6-0.5
	c-4.2-3.6-7.2-7.5-9.9-13.3c-4.2-10.3-6.5-21.5-5.5-32.5c0.1-1.1,0.3-2.1,0.5-3c0,0,0-0.1,0-0.2s0-0.1,0-0.1
	c0.7-2.1,1.7-3.8,2.3-5.9c0.2-9.9-2.8-19.4,0.5-28.7c0.4-1.2,0.9-2.3,1.3-3.3c0,0,0.1-0.1,0.1-0.1c0,0,0.1-0.1,0.1-0.1
	c1.3-2.8,2.8-4.9,4.4-6.9c0-0.3,0-0.6,0-1c0.1,0,0-0.6,0-0.6c0.1-0.9-0.2-2.3-0.3-3.6c-0.1-0.8-0.3-1.7-0.5-2.7
	c-1.2-5.7-3.6-12.5-5.8-19.9c-3.2-10.8-5.7-21.4-5.8-30.8c0.1-6.1,0.3-12.4,1.1-18.8c2.5-16.7,9.3-31.8,26.4-38.8
	C265.8,257.8,266.4,257.6,267.1,257.4"/>
<path id="line-15" class="st0" d="M258.8,248c0.8,0,6.5-1.6,7.2-1.2c0.3,0.1,3.1,0,3.4,0.1c0.2,0,1.7-0.1,1.9-0.1
	c0.2,0,2.1-0.2,2.3-0.2c0,0,0.1,0,0.1,0c1.8-0.3,4.9-0.9,8.6-0.9l0,0c0.6,0,1.2,0,1.8,0.1c4.7,0.3,9.2,1.8,13.1,3.2
	c1.9,0.3,3.8,0.4,5.7,0.6c1.5,0.1,2.9,0.2,4.2,0.3c1.7,0.1,3.2,0.1,4.6,0.2c0,0,0.1,0,0.1,0c0.1,0,1.4,0.1,1.5,0.1
	c0.1,0,1.4,0.1,1.5,0.1c2.2,0.2,4.4,0.4,6.6,0.9c1.2,0.3,2.5,0.5,3.7,0.9c3.2,0.9,5.9,2.3,8.5,3.6c0.5,0.1,1,0.2,1.5,0.2
	c2.9,0.5,5.7,1,8.8,1.2c1.3,0.1,2.5,0.2,3.8,0.3c2.6,0.1,5.1,0.4,7.5,0.9c1.3,0.3,2.6,0.6,4,1c1.8,0.6,3.5,1.2,5.2,1.7
	c3.2,0.1,6.5,0.4,9.8,0.7c0.3,0,0.6,0.1,0.9,0.1c0.4,0,3.8,0.4,4.1,0.4c0,0,0.1,0,0.1,0c0,0,0,0,0,0c1.9,0,4-0.1,6-0.1
	c1.1,0,2.1-0.1,3.1-0.1c0.9-0.2,1.8-0.4,2.6-0.6c0.6-0.1,1.2-0.2,1.8-0.3c5.7-1.1,12.1-3.4,19.6-3.5c0,0,0.3,0,0.3,0
	c0,0,0.3,0,0.3,0h1.4c9.3,0,19.4,0.8,30.9,6.1c11.3,5.8,18.5,7.3,27.8,14c6.9,2.3,15.2,6.5,25.1,14.7c1.1,0.9,2.1,1.7,3.2,2.7
	c6.4,5.9,10.1,8.9,15.2,17.3c3.3,4.4,7.2,8.9,11.4,13.7c0,0,0.1,0.1,0.1,0.1c0,0,0.1,0.1,0.1,0.1c0.7,0.8,1.4,1.6,2,2.3
	c4.2,4.9,9.3,10.9,12.7,19.8c1.4,3.5,2.6,6.7,3.6,9.6c3,3.9,6.6,8.5,9.5,14.7c1.1,2.3,2.4,4.4,3.6,6.3c0.7,0.3,1.4,0.6,2.2,0.8
	c4.8,1.5,9.8,2.1,14.3,4.2c2,0.8,3.8,1.8,5.5,2.9c1.8,1.1,3.5,2.4,5.1,3.9c6,5.9,9.8,12.8,13,18.5c0.2,0.3,0.3,0.6,0.5,0.9
	c7.2,5.9,13.5,12.3,19.7,18.8c3,3.1,5.6,6.2,7.8,9.5c5.9,8.4,7.8,16.2,8.7,22.8c4.4,6.1,10.1,13.8,18.1,24.3c0,0,0.2,0.3,0.2,0.3
	s0.2,0.3,0.2,0.3c0,0,0.4,0.6,0.4,0.6c2.9,4,7.5,10.5,11.6,17.9c3.3,5.9,5.8,11.6,7.7,17.3c0.9,2.9,1.7,5.7,2.2,8.6
	c1.3,8.3,1.7,17.2,0.2,25.8c-2,11.9-7.2,22.5-17.4,28.9c-4.4,2.9-9.6,5.3-15,6.9c-1.3,0.3-2.6,0.6-3.9,0.8
	c-9.5,1.1-17.8-0.6-26.3-3.1c-3.3-0.9-6.6-2-10.1-3c-1.2-0.4-2.3-0.6-3.3-0.7c-2.2-0.3-3.6,0.4-5.2,1.1c0,0.1-0.5,0-0.5,0.1
	s-0.5,0-0.5,0.1c-5.8,0.7-12.5-0.3-18.9-2.5c-1.3,0.2-2.6,0.4-3.9,0.5c-5,0.5-10,0.5-14.9-0.1c-2.9-0.3-5.7-0.9-8.2-1.6
	c-4.4-1.4-8.6-2.4-12.7-3.4c-1.9,1.8-3.9,3.9-6,5.9c-1,0.9-1.9,1.9-2.9,2.7c-3.1,3.4-8.4,7.6-12.1,11.2c-1.7,2.5-3.6,5.4-5.6,8.5
	c0,0-0.2,0.3-0.2,0.3c0,0-0.2,0.3-0.2,0.3c-1.5,2.3-3,4.6-4.5,6.8c-3.3,5-6,9.8-9,14.3c-0.7,1-1.4,2.1-2.2,3.1
	c-3.7,4.8-8.6,9-14.6,12.5c-0.8,0.4-1.6,0.8-2.5,1.2c-2.6,1.1-5.3,1.9-7.6,3.3c-3,1.7-5.1,3.4-8.4,4.8c-3.2,1.3-7,2.1-10.9,2.4
	c-3.1,0.3-6.2,0.3-9.2,0.1c-0.5,0-0.9-0.1-1.4-0.1c-0.3,0-2.6-0.2-2.9-0.3c-0.2,0-2.3-0.5-2.4-0.5c-15.1-3.2-25.7-12.6-36-24.5
	c-3.9-4.4-7.1-8.8-9.9-12.6c-4.5-1.7-9.3-3.6-14.5-6c-7.9-3.3-15.5-7.7-22.5-13.7c-9.6-8.1-16.1-17.5-21.1-27.4
	c-4.3-3.5-9.5-8.2-14.7-14.6c-9.4-11.6-18.1-18.3-26.2-35c-1.1-2.2-2.4-4.7-3.8-7.4c-0.6-1.3-1.3-2.6-1.9-4
	c-0.6-1.2-1.2-2.3-1.8-3.5c-7.7-5.6-14.8-12.2-20.8-20.3c-2.2-3.1-4.1-6.2-6.1-9.1c0-0.1-0.4-0.6-0.4-0.6c0-0.1-0.4-0.6-0.4-0.6
	c-2-2.9-4.2-5.5-7-7.7c0,0-0.1-0.1-0.1-0.1c-0.2-0.2-0.4-0.4-0.6-0.6c-4.3-3.9-7.4-8-10.1-14c-4.4-10.9-6.7-22.6-5.7-34.1
	c0.1-1.1,0.3-2.2,0.5-3.2c0,0,0-0.1,0-0.2c0,0,0-0.1,0-0.2c0.7-2.3,1.7-4.1,2.3-6.3c0.1-10.4-2.8-20.3,0.6-30.1
	c0.4-1.2,0.9-2.4,1.4-3.5c0,0,0.1-0.1,0.1-0.1c0,0,0.1-0.1,0.1-0.1c1.4-2.9,2.9-5.2,4.5-7.3c0-0.3,0-0.7,0-1c0.1,0-0.1-0.7,0-0.7
	c0-0.9-0.3-2.4-0.5-3.8c-0.2-0.9-0.4-1.8-0.6-2.9c-1.4-6-3.9-13.1-6.3-20.9c-3.4-11.3-5.9-22.4-5.9-32.3c0.1-6.4,0.4-13.1,1.5-19.7
	c2.9-17.5,10.5-33.1,28.4-40.4C257.5,248.4,258.1,248.2,258.8,248"/>
<path id="line-16" class="st0" d="M250.6,238.6c0.8,0,6.9-1.7,7.5-1.4c0.3,0.1,3.2,0,3.6,0c0.2,0,1.8-0.1,2-0.1
	c0.2,0,2.2-0.2,2.4-0.3c0,0,0.1,0,0.1,0c1.9-0.3,5.1-0.9,8.9-0.9l0,0c0.6,0,1.2,0,1.8,0.1c5,0.3,9.6,1.8,13.7,3.2
	c1.9,0.2,3.9,0.4,6,0.5c1.6,0.1,3.1,0.2,4.4,0.3c1.8,0.1,3.4,0.2,4.8,0.2c0,0,0.1,0,0.1,0c0.1,0,1.5,0.1,1.6,0.1
	c0.1,0,1.4,0.2,1.6,0.1c2.3,0.2,4.6,0.5,6.9,0.9c1.3,0.3,2.6,0.6,3.9,1c3.3,1,6.2,2.4,8.9,3.8c0.5,0.1,1.1,0.2,1.6,0.2
	c3,0.5,6,1,9.1,1.2c1.3,0.1,2.7,0.2,4,0.3c2.7,0.2,5.3,0.5,7.8,1c1.4,0.3,2.8,0.6,4.1,1c1.8,0.6,3.7,1.2,5.4,1.8
	c3.4,0.1,6.8,0.4,10.2,0.7c0.3,0,0.7,0.1,1,0.1c0.4,0,3.9,0.5,4.3,0.5c0,0,0.1,0,0.1,0c0,0,0,0,0,0c2,0,4.2-0.1,6.3-0.1
	c1.1,0,2.2-0.1,3.3-0.1c0.9-0.2,1.9-0.4,2.8-0.6c0.6-0.1,1.3-0.2,1.9-0.4c5.9-1.2,12.6-3.5,20.5-3.6c0,0,0.3,0,0.3,0
	c0,0,0.3,0,0.3,0h1.4c9.6,0,20.2,0.8,32.3,6.3c11.6,5.9,19.4,7.6,29,14.7c7.2,2.4,15.9,6.7,26.2,15.2c1.1,0.9,2.2,1.8,3.3,2.8
	c6.6,6.1,10.6,9.3,16,17.9c3.5,4.6,7.6,9.2,11.9,14.3c0,0,0.1,0.1,0.1,0.1c0,0,0.1,0.1,0.1,0.1c0.7,0.9,1.4,1.7,2.1,2.4
	c4.4,5,9.7,11.4,13.2,20.6c1.5,3.7,2.8,7,3.8,10.1c3.2,4,7,8.8,10.1,15.4c1.2,2.4,2.5,4.6,3.8,6.6c0.7,0.3,1.5,0.6,2.3,0.8
	c5,1.7,10.2,2.4,14.9,4.7c2,0.9,4,1.9,5.8,3.1c1.9,1.2,3.6,2.6,5.3,4.2c6.4,6.3,10.3,13.5,13.6,19.3c0.2,0.3,0.3,0.6,0.5,0.9
	c7.6,6.1,14.2,12.8,20.6,19.6c3.1,3.2,5.8,6.6,8.1,10c6.1,8.8,8.1,17,9.1,23.9c4.7,6.4,10.8,14.4,19.1,25.3c0,0,0.2,0.3,0.2,0.3
	c0,0,0.2,0.3,0.2,0.3c0,0,0.4,0.6,0.4,0.6c3,4.2,7.9,11,12.1,18.9c3.4,6.2,6.1,12.2,8,18.3c0.9,3,1.7,6.1,2.3,9.1
	c1.4,8.8,1.6,18.2-0.1,27.2c-2.2,12.5-7.9,23.6-18.6,30.4c-4.7,3.1-10.1,5.6-15.7,7.3c-1.3,0.4-2.7,0.6-4,0.9
	c-9.9,1.3-18.7-0.3-27.5-2.7c-3.5-0.9-6.9-2-10.5-3c-1.3-0.4-2.4-0.6-3.4-0.8c-2.3-0.3-3.8,0.4-5.5,1c0,0.1-0.5,0-0.5,0.1
	c0,0.1-0.5,0-0.5,0.1c-6.2,0.5-13.1-0.7-19.8-3c-1.3,0.2-2.7,0.4-4,0.6c-5.1,0.5-10.4,0.5-15.5,0c-3-0.3-5.9-0.9-8.6-1.5
	c-4.6-1.4-9-2.4-13.3-3.4c-1.9,2-4,4.2-6.1,6.4c-1,1-2,2-3,2.9c-3.2,3.6-8.6,8.1-12.4,11.9c-1.8,2.7-3.7,5.7-5.7,8.9
	c0,0-0.2,0.3-0.2,0.3c0,0-0.2,0.3-0.2,0.3c-1.6,2.4-3.1,4.8-4.7,7.1c-3.5,5.2-6.4,10.2-9.6,14.8c-0.8,1.1-1.6,2.1-2.4,3.2
	c-4,4.9-9.1,9.2-15.4,12.8c-0.8,0.5-1.7,0.9-2.6,1.2c-2.7,1.1-5.5,2-8,3.3c-3.2,1.7-5.4,3.4-8.9,4.8c-3.4,1.3-7.3,2.1-11.4,2.4
	c-3.2,0.2-6.4,0.2-9.5,0.1c-0.5,0-1-0.1-1.5-0.1c-0.3,0-2.7-0.2-3-0.3c-0.2,0-2.4-0.5-2.6-0.5c-15.9-3.4-27.1-13.1-37.9-25.5
	c-4.1-4.7-7.4-9.3-10.4-13.2c-4.7-1.8-9.8-3.8-15.3-6.2c-8.3-3.5-16.3-8.2-23.5-14.5c-10.1-8.6-16.8-18.4-22.1-28.8
	c-4.6-3.6-10-8.5-15.5-15.2c-9.8-12-18.8-19.3-27-36.6c-1.2-2.3-2.5-4.9-3.9-7.7c-0.7-1.3-1.3-2.7-2-4.1c-0.6-1.2-1.2-2.4-1.8-3.7
	c-8.1-5.7-15.6-12.5-21.8-20.9c-2.3-3.2-4.3-6.4-6.4-9.5c0-0.1-0.4-0.6-0.4-0.7c0-0.1-0.4-0.6-0.4-0.7c-2.1-3.1-4.3-5.8-7.2-8.2
	c0,0-0.1-0.1-0.1-0.1c-0.2-0.2-0.4-0.4-0.6-0.6c-4.4-4.1-7.5-8.6-10.3-14.8c-4.6-11.4-6.9-23.7-5.8-35.7c0.1-1.2,0.3-2.3,0.5-3.3
	c0,0,0-0.2,0-0.2c0,0,0-0.2,0-0.2c0.7-2.4,1.7-4.3,2.4-6.6c0-10.9-2.8-21.3,0.8-31.5c0.4-1.3,0.9-2.5,1.4-3.7c0,0,0.1-0.1,0.1-0.1
	c0,0,0.1-0.1,0.1-0.1c1.4-3,3-5.5,4.7-7.6c0-0.4,0-0.7,0-1.1c0.1,0-0.1-0.7,0-0.7c0-1-0.4-2.6-0.6-4c-0.2-0.9-0.4-1.9-0.7-3
	c-1.6-6.2-4.3-13.7-6.7-21.8c-3.6-11.9-6.1-23.4-6.1-33.8c0.1-6.7,0.6-13.7,1.8-20.7c3.4-18.3,11.7-34.5,30.4-42.1
	C249.1,239,249.8,238.8,250.6,238.6"/>
<path id="line-17" class="st0" d="M242.3,229.2c0.8,0,7.2-1.9,7.8-1.6c0.3,0.1,3.4-0.1,3.7,0c0.2,0,1.9-0.1,2.1-0.1
	c0.2,0,2.3-0.2,2.5-0.3c0,0,0.1,0,0.1,0c1.9-0.3,5.2-0.9,9.2-0.9l0,0c0.6,0,1.3,0,1.9,0.1c5.2,0.3,10,1.8,14.3,3.2
	c2,0.2,4.1,0.4,6.2,0.5c1.7,0.1,3.2,0.2,4.6,0.3c1.9,0.1,3.5,0.2,5,0.2c0,0,0.1,0,0.1,0c0.1,0,1.5,0.1,1.7,0.1
	c0.1,0,1.5,0.2,1.6,0.1c2.4,0.2,4.8,0.5,7.2,1c1.4,0.3,2.7,0.6,4,1c3.4,1,6.5,2.5,9.2,3.9c0.5,0.1,1.1,0.1,1.7,0.2
	c3.2,0.4,6.2,0.9,9.5,1.2c1.4,0.1,2.8,0.2,4.2,0.4c2.8,0.2,5.5,0.6,8.1,1.1c1.5,0.3,2.9,0.7,4.3,1.1c1.9,0.6,3.8,1.3,5.7,1.9
	c3.5,0.2,7,0.4,10.6,0.8c0.3,0,0.7,0.1,1,0.1c0.4,0,4.1,0.5,4.5,0.5c0,0,0.1,0,0.1,0c0,0,0,0,0,0c2.1,0,4.4-0.1,6.5-0.1
	c1.2,0,2.3-0.1,3.4-0.1c1-0.2,1.9-0.5,2.9-0.7c0.7-0.1,1.3-0.3,2-0.4c6.2-1.2,13.1-3.6,21.4-3.7c0,0,0.3,0,0.3,0c0,0,0.3,0,0.4,0
	h1.5c9.9,0,21.1,0.8,33.7,6.4c12,5.9,20.2,8,30.1,15.3c7.6,2.5,16.7,6.9,27.4,15.7c1.2,0.9,2.3,1.9,3.5,2.9
	c6.8,6.2,11.1,9.7,16.8,18.6c3.7,4.7,7.9,9.6,12.4,14.9c0,0,0.1,0.1,0.1,0.1s0.1,0.1,0.1,0.1c0.8,0.9,1.5,1.7,2.2,2.5
	c4.5,5.2,10.1,11.8,13.8,21.5c1.6,3.8,2.9,7.3,4,10.5c3.3,4.2,7.3,9.2,10.7,16c1.3,2.5,2.6,4.7,3.9,6.9c0.8,0.3,1.6,0.6,2.4,0.9
	c5.3,1.8,10.7,2.7,15.6,5.2c2.1,0.9,4.1,2.1,6,3.4c2,1.3,3.8,2.8,5.5,4.4c6.7,6.6,10.8,14.1,14.2,20.2c0.2,0.3,0.4,0.6,0.6,1
	c8,6.3,15,13.3,21.6,20.5c3.2,3.4,6,6.9,8.4,10.5c6.3,9.2,8.4,17.8,9.5,25c5,6.6,11.5,15,20.1,26.4c0,0,0.2,0.3,0.2,0.3
	c0,0,0.2,0.3,0.2,0.4c0,0,0.4,0.6,0.5,0.7c3.1,4.4,8.2,11.6,12.6,19.9c3.6,6.6,6.3,12.9,8.3,19.3c1,3.2,1.8,6.4,2.3,9.6
	c1.4,9.3,1.5,19.1-0.4,28.6c-2.5,13.1-8.6,24.6-19.8,31.8c-4.9,3.3-10.5,6-16.5,7.8c-1.4,0.4-2.8,0.7-4.2,0.9
	c-10.2,1.5-19.5,0.1-28.7-2.3c-3.6-0.9-7.3-1.9-11-3c-1.3-0.4-2.5-0.6-3.6-0.8c-2.4-0.3-3.9,0.3-5.8,0.9c0,0.1-0.5,0-0.6,0.1
	s-0.5,0-0.6,0c-6.5,0.3-13.7-1-20.6-3.5c-1.4,0.2-2.8,0.4-4.2,0.6c-5.3,0.6-10.8,0.6-16.1,0.1c-3.1-0.3-6.1-0.8-8.9-1.5
	c-4.7-1.3-9.3-2.4-13.8-3.4c-2,2.2-4,4.5-6.2,6.8c-1,1.1-2,2.1-3.1,3.1c-3.3,3.9-8.8,8.5-12.8,12.5c-1.8,2.8-3.8,6-5.9,9.3
	c0,0-0.2,0.3-0.2,0.3c0,0-0.2,0.3-0.2,0.3c-1.6,2.5-3.3,5-4.9,7.4c-3.6,5.4-6.7,10.5-10.2,15.3c-0.8,1.1-1.7,2.2-2.6,3.3
	c-4.3,5-9.6,9.5-16.2,13.1c-0.9,0.5-1.8,0.9-2.7,1.3c-2.8,1.2-5.7,2.1-8.3,3.4c-3.3,1.7-5.8,3.4-9.4,4.7c-3.6,1.3-7.6,2.1-11.9,2.4
	c-3.3,0.2-6.7,0.2-9.9,0c-0.5,0-1-0.1-1.5-0.1c-0.3,0-2.8-0.3-3.1-0.3c-0.2,0-2.5-0.5-2.7-0.5c-16.6-3.5-28.6-13.6-39.9-26.5
	c-4.3-4.9-7.8-9.8-10.8-13.9c-4.9-1.8-10.3-4-16-6.5c-8.6-3.7-17-8.6-24.6-15.3c-10.5-9-17.6-19.4-23-30.2
	c-4.8-3.8-10.5-8.8-16.4-15.8c-10.2-12.3-19.5-20.3-27.9-38.2c-1.2-2.4-2.6-5.1-4.1-8c-0.7-1.4-1.4-2.8-2.1-4.3
	c-0.6-1.2-1.3-2.5-1.9-3.8c-8.5-5.8-16.4-12.9-22.9-21.5c-2.4-3.3-4.5-6.6-6.7-9.8c0-0.1-0.4-0.6-0.5-0.7c0-0.1-0.4-0.6-0.5-0.7
	c-2.2-3.2-4.5-6.1-7.4-8.6c0,0-0.1-0.1-0.1-0.1c-0.2-0.2-0.4-0.4-0.6-0.6c-4.4-4.4-7.7-9.1-10.6-15.6c-4.7-12-7.1-24.8-6-37.4
	c0.1-1.2,0.3-2.4,0.6-3.5c0,0,0-0.2,0-0.2c0,0,0-0.2,0-0.2c0.7-2.5,1.7-4.5,2.4-7c-0.1-11.3-2.7-22.3,1-33c0.5-1.3,1-2.6,1.5-3.8
	c0,0,0.1-0.1,0.1-0.2s0.1-0.1,0.1-0.1c1.5-3.2,3.1-5.7,4.8-8c0-0.4,0-0.8-0.1-1.1c0.1,0-0.1-0.8,0-0.8c0-1-0.5-2.8-0.8-4.3
	c-0.2-1-0.5-2-0.8-3.2c-1.7-6.5-4.6-14.2-7.2-22.8c-3.8-12.4-6.3-24.5-6.2-35.4c0.2-7.1,0.7-14.4,2.1-21.6
	c3.8-19.1,12.9-35.8,32.4-43.8C240.8,229.6,241.5,229.4,242.3,229.2"/>
<path id="line-18" class="st0" d="M234,219.7c0.8,0,7.5-2,8.1-1.7c0.3,0.1,3.6-0.1,3.9,0c0.2,0,2-0.1,2.1-0.1c0.2,0,2.4-0.2,2.6-0.3
	c0,0,0.1,0,0.1,0c1.9-0.3,5.4-0.9,9.6-0.9l0,0c0.7,0,1.3,0,2,0.1c5.4,0.3,10.5,1.8,14.9,3.3c2.1,0.2,4.3,0.3,6.5,0.5
	c1.7,0.1,3.3,0.2,4.8,0.3c2,0.1,3.7,0.2,5.2,0.3c0,0,0.1,0,0.1,0c0.1,0,1.6,0.1,1.7,0.1c0.1,0,1.6,0.2,1.7,0.2
	c2.5,0.2,5,0.6,7.4,1.1c1.4,0.3,2.8,0.7,4.2,1.1c3.6,1.1,6.7,2.6,9.6,4.1c0.6,0.1,1.1,0.1,1.7,0.2c3.3,0.4,6.5,0.9,9.9,1.2
	c1.5,0.1,2.9,0.3,4.4,0.4c3,0.2,5.7,0.6,8.5,1.2c1.5,0.3,3,0.7,4.5,1.1c2,0.7,4,1.3,5.9,2c3.6,0.2,7.3,0.4,11,0.8
	c0.4,0,0.7,0.1,1.1,0.1c0.4,0,4.3,0.5,4.7,0.5c0,0,0.1,0,0.1,0c0,0,0,0,0.1,0c2.2,0,4.5-0.1,6.8-0.2c1.2,0,2.4-0.1,3.5-0.1
	c1-0.2,2-0.5,3-0.7c0.7-0.1,1.4-0.3,2.1-0.4c6.4-1.3,13.7-3.7,22.2-3.8c0,0,0.3,0,0.3,0c0,0,0.3,0,0.4,0h1.5
	c10.3,0,21.9,0.9,35.1,6.6c12.4,6,21,8.4,31.3,16c7.9,2.6,17.4,7.1,28.6,16.1c1.2,0.9,2.4,1.9,3.6,3c7,6.3,11.6,10.1,17.6,19.2
	c3.8,4.9,8.2,9.9,12.9,15.4c0,0,0.1,0.1,0.1,0.1s0.1,0.1,0.1,0.1c0.8,0.9,1.5,1.8,2.3,2.6c4.7,5.4,10.4,12.2,14.4,22.3
	c1.7,4,3,7.6,4.1,11c3.5,4.3,7.7,9.6,11.3,16.6c1.3,2.6,2.7,4.9,4.1,7.2c0.8,0.4,1.6,0.7,2.5,0.9c5.5,1.9,11.2,3,16.3,5.7
	c2.2,1,4.3,2.2,6.2,3.6c2,1.3,3.9,2.9,5.7,4.7c7,7,11.2,14.8,14.8,21.1c0.2,0.3,0.4,0.7,0.6,1c8.4,6.6,15.7,13.8,22.6,21.3
	c3.4,3.6,6.2,7.2,8.7,11.1c6.5,9.6,8.7,18.6,9.8,26.1c5.3,6.9,12.2,15.6,21.1,27.5c0,0,0.2,0.3,0.3,0.4c0,0,0.2,0.4,0.3,0.4
	c0,0,0.5,0.7,0.5,0.7c3.2,4.6,8.5,12.1,13.1,20.9c3.7,6.9,6.6,13.5,8.6,20.2c1,3.3,1.8,6.7,2.4,10c1.4,9.8,1.5,20.1-0.6,30
	c-2.8,13.6-9.3,25.7-21,33.3c-5.1,3.5-11,6.3-17.2,8.2c-1.4,0.4-2.9,0.7-4.3,1c-10.6,1.7-20.3,0.4-30-1.9c-3.8-0.9-7.6-1.9-11.5-2.9
	c-1.4-0.4-2.6-0.6-3.7-0.8c-2.5-0.3-4.1,0.2-6.1,0.7c0,0.1-0.6,0-0.6,0s-0.6,0-0.6,0c-6.9,0.2-14.3-1.4-21.4-4.1
	c-1.4,0.2-2.9,0.5-4.3,0.6c-5.5,0.6-11.2,0.7-16.7,0.2c-3.2-0.3-6.4-0.8-9.3-1.5c-4.9-1.3-9.7-2.4-14.3-3.5c-2,2.3-4.1,4.8-6.3,7.3
	c-1,1.1-2.1,2.2-3.1,3.3c-3.4,4.1-9,9-13.1,13.2c-1.8,2.9-3.8,6.2-6,9.6c0,0-0.2,0.3-0.2,0.3s-0.2,0.3-0.2,0.3
	c-1.7,2.6-3.4,5.2-5.1,7.6c-3.8,5.6-7.1,10.8-10.8,15.7c-0.9,1.1-1.8,2.3-2.7,3.3c-4.6,5.2-10.2,9.7-17,13.4
	c-0.9,0.5-1.9,0.9-2.8,1.3c-2.9,1.2-5.9,2.1-8.6,3.5c-3.5,1.7-6.2,3.4-9.9,4.7c-3.7,1.3-7.9,2-12.3,2.3c-3.4,0.2-6.9,0.2-10.3,0
	c-0.5,0-1.1-0.1-1.6-0.1c-0.3,0-2.9-0.3-3.2-0.3c-0.2,0-2.7-0.5-2.8-0.6c-17.4-3.7-30.1-14-41.9-27.5c-4.5-5.1-8.1-10.3-11.3-14.6
	c-5.1-1.9-10.8-4.1-16.7-6.8c-8.9-3.9-17.7-9.1-25.7-16.1c-11-9.5-18.3-20.3-24-31.6c-5-3.9-11.1-9.2-17.2-16.5
	c-10.6-12.7-20.2-21.4-28.8-39.8c-1.3-2.5-2.7-5.3-4.2-8.3c-0.7-1.4-1.4-2.9-2.2-4.4c-0.6-1.3-1.3-2.6-2-4
	c-8.9-5.9-17.1-13.2-24-22.2c-2.5-3.4-4.7-6.8-7-10.1c0-0.1-0.5-0.7-0.5-0.7s-0.4-0.7-0.5-0.7c-2.3-3.3-4.6-6.4-7.6-9
	c0-0.1-0.1-0.1-0.1-0.2c-0.2-0.2-0.4-0.5-0.6-0.7c-4.5-4.7-7.9-9.7-10.8-16.4c-4.9-12.5-7.3-25.8-6.1-39c0.1-1.3,0.3-2.5,0.6-3.6
	c0,0,0-0.2,0-0.2c0,0,0-0.2,0-0.2c0.7-2.6,1.7-4.8,2.4-7.3c-0.3-11.8-2.7-23.2,1.1-34.4c0.5-1.4,1-2.7,1.6-4c0,0,0.1-0.1,0.1-0.2
	c0,0,0.1-0.1,0.1-0.2c1.5-3.3,3.2-6,5-8.4c0-0.4-0.1-0.8-0.1-1.2c0.1,0-0.1-0.8-0.1-0.8c-0.1-1.1-0.6-2.9-0.9-4.5
	c-0.3-1-0.5-2.1-0.9-3.3c-1.9-6.8-4.9-14.8-7.6-23.7c-3.9-12.9-6.5-25.5-6.3-36.9c0.2-7.4,0.9-15,2.4-22.5
	c4.2-19.9,14.1-37.2,34.4-45.5C232.5,220.2,233.2,220,234,219.7"/>
<path id="line-19" class="st0" d="M225.8,210.3c0.7,0,7.9-2.2,8.4-1.9c0.2,0.1,3.7-0.1,4-0.1c0.2,0,2.1-0.2,2.2-0.2
	c0.2,0,2.5-0.3,2.7-0.3c0,0,0.1,0,0.1,0c2-0.3,5.6-0.9,9.9-0.9l0,0c0.7,0,1.4,0,2.1,0.1c5.6,0.3,10.9,1.8,15.5,3.3
	c2.2,0.2,4.4,0.3,6.7,0.4c1.8,0.1,3.5,0.2,5,0.3c2,0.1,3.8,0.2,5.4,0.3c0,0,0.1,0,0.1,0c0.1,0,1.7,0.1,1.8,0.1
	c0.1,0,1.7,0.2,1.8,0.2c2.6,0.3,5.2,0.6,7.7,1.2c1.5,0.3,2.9,0.7,4.3,1.1c3.7,1.1,7,2.7,10,4.2c0.6,0.1,1.2,0.1,1.8,0.2
	c3.4,0.4,6.8,0.9,10.3,1.2c1.5,0.1,3,0.3,4.6,0.4c3.1,0.3,6,0.7,8.8,1.3c1.6,0.3,3.1,0.7,4.6,1.2c2.1,0.7,4.1,1.4,6.1,2.1
	c3.8,0.2,7.6,0.4,11.4,0.8c0.4,0,0.7,0.1,1.1,0.1c0.4,0,4.5,0.6,4.8,0.6c0,0,0.1,0,0.1,0c0,0,0,0,0.1,0c2.2,0,4.7-0.1,7-0.2
	c1.2,0,2.5-0.1,3.7-0.1c1-0.3,2.1-0.5,3.1-0.7c0.7-0.1,1.4-0.3,2.2-0.5c6.6-1.4,14.2-3.8,23.1-3.9c0,0,0.3,0,0.4,0c0,0,0.4,0,0.4,0
	h1.6c10.6,0,22.7,0.9,36.5,6.7c12.8,6,21.8,8.7,32.5,16.6c8.3,2.6,18.2,7.3,29.8,16.6c1.3,1,2.5,2,3.8,3.1
	c7.2,6.5,12.2,10.5,18.4,19.8c4,5,8.6,10.3,13.4,16c0,0,0.1,0.1,0.1,0.1c0,0,0.1,0.1,0.1,0.1c0.8,1,1.6,1.9,2.3,2.7
	c4.8,5.6,10.8,12.7,14.9,23.1c1.8,4.2,3.2,7.9,4.3,11.5c3.6,4.5,8.1,10,11.8,17.3c1.4,2.7,2.9,5.1,4.3,7.4c0.8,0.4,1.7,0.7,2.6,1
	c5.8,2,11.6,3.3,16.9,6.2c2.3,1.1,4.4,2.4,6.5,3.9c2.1,1.4,4.1,3.1,5.9,4.9c7.3,7.3,11.7,15.4,15.5,22c0.2,0.3,0.4,0.7,0.6,1.1
	c8.8,6.8,16.5,14.3,23.5,22.1c3.5,3.7,6.4,7.6,9,11.6c6.6,10,9,19.4,10.2,27.2c5.6,7.1,13,16.2,22.1,28.5c0,0,0.3,0.4,0.3,0.4
	c0,0,0.2,0.4,0.3,0.4c0,0,0.5,0.7,0.5,0.7c3.3,4.7,8.9,12.7,13.7,21.9c3.9,7.2,6.8,14.2,8.9,21.2c1,3.5,1.8,7,2.4,10.5
	c1.4,10.3,1.4,21-0.9,31.3c-3,14.2-10,26.8-22.2,34.7c-5.3,3.6-11.5,6.6-17.9,8.6c-1.5,0.4-3,0.8-4.5,1.1
	c-10.9,1.9-21.1,0.8-31.2-1.4c-4-0.8-7.9-1.8-12-2.9c-1.4-0.4-2.7-0.6-3.9-0.8c-2.5-0.3-4.3,0.2-6.4,0.6c0,0.1-0.6,0-0.6,0
	c0,0.1-0.6,0-0.6,0c-7.2,0-15-1.8-22.2-4.6c-1.5,0.3-3,0.5-4.5,0.6c-5.7,0.7-11.6,0.7-17.3,0.3c-3.4-0.3-6.6-0.8-9.6-1.5
	c-5.1-1.3-10.1-2.4-14.9-3.5c-2,2.5-4.2,5.1-6.4,7.8c-1,1.2-2.1,2.4-3.2,3.5c-3.5,4.4-9.2,9.4-13.5,13.8c-1.9,3.1-3.9,6.5-6.2,10
	c0,0-0.2,0.3-0.2,0.4c0,0-0.2,0.3-0.2,0.4c-1.7,2.7-3.5,5.4-5.3,7.9c-3.9,5.7-7.5,11.2-11.4,16.2c-0.9,1.2-1.9,2.3-2.9,3.4
	c-4.8,5.3-10.7,9.9-17.9,13.6c-0.9,0.5-1.9,0.9-2.9,1.3c-3,1.2-6.1,2.2-9,3.5c-3.6,1.7-6.5,3.4-10.4,4.7c-3.9,1.3-8.3,2-12.8,2.3
	c-3.6,0.2-7.2,0.2-10.6,0c-0.5,0-1.1-0.1-1.6-0.1c-0.3,0-3.1-0.3-3.3-0.3c-0.2,0-2.8-0.5-2.9-0.6c-18.1-3.8-31.6-14.5-43.9-28.5
	c-4.7-5.4-8.5-10.7-11.7-15.2c-5.4-2-11.3-4.3-17.4-7.1c-9.3-4.1-18.4-9.5-26.7-16.8c-11.4-10-19.1-21.3-25-33
	c-5.3-4-11.6-9.5-18.1-17.1c-10.9-13-20.8-22.4-29.7-41.4c-1.3-2.6-2.8-5.5-4.4-8.6c-0.7-1.5-1.5-3-2.3-4.6
	c-0.7-1.3-1.4-2.7-2.1-4.1c-9.3-6.1-17.9-13.5-25.1-22.8c-2.6-3.5-5-7-7.3-10.5c0-0.1-0.5-0.7-0.5-0.7c0-0.1-0.5-0.7-0.5-0.7
	c-2.4-3.4-4.8-6.6-7.8-9.5c0-0.1-0.1-0.1-0.1-0.2c-0.2-0.2-0.4-0.5-0.6-0.7c-4.6-5-8-10.2-11-17.2c-5-13.1-7.5-26.9-6.3-40.6
	c0.1-1.3,0.3-2.6,0.6-3.8c0,0,0-0.2,0-0.2c0,0,0-0.2,0-0.2c0.7-2.7,1.7-5,2.4-7.6c-0.4-12.3-2.7-24.2,1.3-35.8
	c0.5-1.4,1-2.8,1.6-4.1c0,0,0.1-0.1,0.1-0.2c0,0,0.1-0.1,0.1-0.2c1.6-3.4,3.3-6.2,5.2-8.8c0-0.4-0.1-0.9-0.1-1.3
	c0.1,0-0.1-0.8-0.1-0.9c-0.1-1.2-0.7-3.1-1.1-4.7c-0.3-1.1-0.6-2.2-1-3.4c-2.1-7-5.3-15.4-8.1-24.7c-4.1-13.4-6.7-26.5-6.5-38.4
	c0.3-7.8,1-15.7,2.7-23.5c4.6-20.7,15.4-38.5,36.4-47.2C224.2,210.8,225,210.5,225.8,210.3"/>
<path id="line-20" class="st0" d="M217.5,200.9c0.7,0,8.2-2.3,8.8-2.1c0.2,0.1,3.9-0.2,4.2-0.1c0.1,0,2.2-0.2,2.3-0.2
	c0.2,0,2.6-0.3,2.8-0.3c0,0,0.1,0,0.1,0c2-0.3,5.7-1,10.3-1l0,0c0.7,0,1.4,0,2.1,0.1c5.8,0.3,11.3,1.8,16.1,3.3
	c2.3,0.2,4.6,0.3,7,0.4c1.9,0.1,3.6,0.2,5.2,0.3c2.1,0.1,4,0.2,5.6,0.3c0,0,0.1,0,0.1,0c0.1,0,1.7,0.1,1.9,0.1
	c0.1,0,1.7,0.2,1.8,0.2c2.7,0.3,5.4,0.7,8,1.3c1.5,0.3,3,0.7,4.5,1.2c3.8,1.2,7.2,2.8,10.4,4.4c0.6,0.1,1.2,0.1,1.9,0.2
	c3.6,0.4,7,0.9,10.7,1.2c1.6,0.2,3.2,0.3,4.8,0.5c3.2,0.3,6.2,0.7,9.1,1.4c1.6,0.4,3.2,0.8,4.8,1.3c2.2,0.7,4.3,1.5,6.3,2.2
	c3.9,0.2,7.9,0.4,11.9,0.9c0.4,0,0.8,0.1,1.1,0.1c0.3,0,4.7,0.6,5,0.6c0,0,0.1,0,0.2,0c0,0,0,0,0.1,0c2.3,0,4.9-0.1,7.3-0.2
	c1.3,0,2.6-0.1,3.8-0.1c1.1-0.3,2.1-0.5,3.2-0.8c0.7-0.2,1.5-0.3,2.2-0.5c6.8-1.5,14.7-3.9,24-4c0,0,0.3,0,0.4,0c0,0,0.4,0,0.4,0
	h1.6c10.9,0,23.5,0.9,37.9,6.9c13.2,6.1,22.6,9.1,33.6,17.3c8.6,2.7,18.9,7.5,30.9,17c1.3,1,2.6,2.1,3.9,3.2
	c7.5,6.6,12.7,11,19.2,20.5c4.2,5.2,8.9,10.6,13.9,16.5c0,0,0.1,0.1,0.1,0.1c0,0,0.1,0.1,0.1,0.1c0.9,1,1.6,1.9,2.4,2.8
	c4.9,5.7,11.1,13.1,15.5,24c1.8,4.3,3.3,8.2,4.5,11.9c3.8,4.6,8.4,10.3,12.4,17.9c1.5,2.7,3,5.3,4.5,7.7c0.9,0.4,1.8,0.7,2.7,1
	c6,2.1,12.1,3.6,17.6,6.7c2.3,1.2,4.6,2.5,6.7,4.1c2.2,1.5,4.2,3.2,6.1,5.1c7.6,7.7,12.2,16.1,16.1,22.8c0.2,0.3,0.4,0.7,0.6,1.1
	c9.2,7.1,17.2,14.9,24.5,23c3.6,3.9,6.7,7.9,9.3,12.1c6.8,10.4,9.3,20.1,10.5,28.4c6,7.4,13.7,16.8,23.1,29.6c0,0,0.3,0.4,0.3,0.4
	c0,0,0.3,0.4,0.3,0.4c0,0,0.5,0.7,0.5,0.8c3.4,4.9,9.2,13.2,14.2,22.8c4,7.6,7,14.8,9.2,22.1c1.1,3.7,1.9,7.3,2.5,11
	c1.5,10.8,1.3,22-1.1,32.7c-3.3,14.8-10.8,27.8-23.3,36.1c-5.6,3.8-12,6.9-18.7,9c-1.5,0.4-3.1,0.8-4.6,1.1c-11.3,2-21.9,1.1-32.4-1
	c-4.1-0.8-8.2-1.8-12.4-2.9c-1.4-0.4-2.8-0.6-4-0.8c-2.6-0.4-4.5,0.1-6.6,0.5c0,0.1-0.6,0-0.6,0c0,0.1-0.6-0.1-0.6,0
	c-7.6-0.2-15.6-2.1-23-5.1c-1.5,0.3-3.1,0.5-4.6,0.7c-5.9,0.7-12,0.8-17.9,0.3c-3.5-0.3-6.8-0.8-10-1.4c-5.3-1.3-10.4-2.4-15.4-3.5
	c-2,2.7-4.2,5.4-6.5,8.2c-1.1,1.2-2.1,2.5-3.3,3.7c-3.7,4.6-9.4,9.8-13.8,14.4c-1.9,3.2-4,6.8-6.3,10.4c0,0-0.2,0.3-0.2,0.4
	s-0.2,0.3-0.2,0.4c-1.8,2.8-3.6,5.5-5.4,8.2c-4.1,5.9-7.8,11.5-12,16.7c-1,1.2-2,2.4-3.1,3.5c-5.1,5.4-11.3,10.2-18.7,13.9
	c-1,0.5-2,0.9-3,1.4c-3.1,1.2-6.4,2.2-9.3,3.6c-3.8,1.7-6.9,3.4-11,4.7c-4.1,1.3-8.6,2-13.3,2.3c-3.7,0.2-7.4,0.2-11-0.1
	c-0.6,0-1.1-0.1-1.7-0.1c-0.3,0-3.2-0.3-3.4-0.3c-0.2,0-2.9-0.6-3.1-0.6c-18.9-3.9-33.1-14.9-45.8-29.5c-4.9-5.6-8.8-11.2-12.1-15.9
	c-5.6-2-11.7-4.4-18.2-7.4c-9.6-4.3-19.1-9.9-27.8-17.6c-11.9-10.4-19.9-22.3-26-34.5c-5.5-4.2-12.2-9.8-19-17.7
	c-11.3-13.4-21.5-23.4-30.6-43c-1.4-2.7-2.9-5.7-4.5-8.9c-0.8-1.5-1.6-3.1-2.4-4.8c-0.7-1.4-1.4-2.8-2.1-4.3
	c-9.8-6.2-18.7-13.9-26.2-23.4c-2.7-3.6-5.2-7.2-7.6-10.8c0-0.1-0.5-0.7-0.5-0.8c0-0.1-0.5-0.7-0.5-0.8c-2.4-3.6-5-6.9-8-9.9
	c-0.1-0.1-0.1-0.1-0.2-0.2c-0.2-0.3-0.4-0.5-0.7-0.8c-4.7-5.2-8.2-10.8-11.2-18c-5.2-13.6-7.7-28-6.5-42.2c0.1-1.4,0.3-2.7,0.6-3.9
	c0,0,0-0.2,0-0.2c0,0,0-0.2,0-0.2c0.7-2.8,1.7-5.2,2.5-8c-0.5-12.8-2.7-25.2,1.5-37.2c0.5-1.5,1.1-2.9,1.7-4.3c0,0,0.1-0.2,0.1-0.2
	s0.1-0.2,0.1-0.2c1.6-3.5,3.4-6.5,5.3-9.2c-0.1-0.4-0.1-0.9-0.2-1.3c0.1,0-0.2-0.9-0.1-0.9c-0.2-1.2-0.8-3.2-1.2-5
	c-0.3-1.1-0.7-2.3-1-3.6c-2.3-7.3-5.6-16-8.5-25.6c-4.3-14-6.9-27.6-6.6-40c0.3-8.1,1.2-16.3,3-24.4c5.1-21.5,16.6-39.9,38.4-48.9
	C215.8,201.4,216.7,201.1,217.5,200.9"/>
<path id="line-21" class="st0" d="M209.2,191.4c0.7,0,8.5-2.5,9.1-2.2c0.2,0.1,4-0.2,4.3-0.1c0.1,0,2.2-0.2,2.4-0.2
	c0.2,0,2.7-0.3,2.9-0.3c0,0,0.1,0,0.1,0c2.1-0.3,5.9-1,10.6-1l0,0c0.8,0,1.5,0,2.2,0.1c6.1,0.3,11.7,1.8,16.7,3.4
	c2.3,0.2,4.8,0.3,7.3,0.4c1.9,0.1,3.7,0.2,5.3,0.3c2.2,0.1,4.1,0.2,5.8,0.3c0,0,0.1,0,0.1,0c0.1,0,1.8,0.2,1.9,0.1s1.8,0.2,1.9,0.2
	c2.8,0.3,5.6,0.8,8.3,1.4c1.6,0.4,3.1,0.8,4.7,1.2c4,1.2,7.5,2.9,10.7,4.5c0.6,0.1,1.3,0.1,1.9,0.2c3.7,0.4,7.3,0.9,11.1,1.2
	c1.6,0.2,3.3,0.3,5,0.5c3.3,0.3,6.4,0.8,9.4,1.5c1.7,0.4,3.3,0.8,5,1.3c2.2,0.7,4.4,1.5,6.5,2.3c4.1,0.2,8.2,0.4,12.3,0.9
	c0.4,0,0.8,0.1,1.2,0.1c0.3,0,4.9,0.6,5.2,0.6c0,0,0.1,0,0.2,0c0,0,0,0,0.1,0c2.4,0,5-0.1,7.6-0.2c1.3,0,2.6-0.1,3.9-0.1
	c1.1-0.3,2.2-0.6,3.3-0.8c0.8-0.2,1.5-0.3,2.3-0.5c7-1.5,15.2-4,24.8-4.1c0,0,0.4,0,0.4,0c0,0,0.4,0,0.4,0h1.7
	c11.2,0,24.4,0.9,39.3,7c13.6,6.2,23.5,9.4,34.8,17.9c9,2.8,19.7,7.7,32.1,17.5c1.4,1,2.7,2.1,4.1,3.3c7.7,6.7,13.2,11.4,20,21.1
	c4.3,5.3,9.2,10.9,14.4,17.1c0,0,0.1,0.1,0.1,0.1c0,0,0.1,0.1,0.1,0.1c0.9,1.1,1.7,2,2.5,2.9c5.1,5.9,11.5,13.5,16.1,24.8
	c1.9,4.5,3.4,8.5,4.6,12.4c3.9,4.8,8.8,10.7,13,18.5c1.5,2.8,3.1,5.5,4.7,8c0.9,0.4,1.8,0.7,2.8,1c6.3,2.2,12.5,3.9,18.2,7.1
	c2.4,1.2,4.7,2.7,6.9,4.3c2.2,1.6,4.4,3.4,6.4,5.4c7.9,8,12.7,16.8,16.7,23.7c0.2,0.4,0.4,0.7,0.7,1.1c9.6,7.3,17.9,15.4,25.5,23.8
	c3.7,4,6.9,8.2,9.6,12.6c7,10.8,9.6,21,10.9,29.5c6.3,7.6,14.4,17.4,24.1,30.6c0,0,0.3,0.4,0.3,0.4c0,0,0.3,0.4,0.3,0.4
	c0,0,0.5,0.8,0.5,0.8c3.6,5.1,9.5,13.8,14.7,23.8c4.1,7.9,7.3,15.5,9.5,23.1c1.1,3.8,1.9,7.6,2.5,11.4c1.5,11.3,1.3,22.9-1.4,34.1
	c-3.6,15.4-11.5,28.9-24.5,37.6c-5.8,4-12.4,7.2-19.4,9.5c-1.6,0.5-3.2,0.9-4.7,1.2c-11.6,2.2-22.7,1.4-33.6-0.6
	c-4.3-0.8-8.6-1.8-12.9-2.8c-1.5-0.4-2.8-0.6-4.1-0.8c-2.7-0.4-4.7,0-6.9,0.3c0,0.1-0.7-0.1-0.7,0s-0.7-0.1-0.7,0
	c-7.9-0.4-16.2-2.5-23.8-5.7c-1.6,0.3-3.2,0.5-4.8,0.7c-6.1,0.7-12.4,0.9-18.5,0.4c-3.6-0.3-7.1-0.8-10.3-1.4
	c-5.5-1.3-10.8-2.4-16-3.6c-2.1,2.8-4.3,5.8-6.7,8.7c-1.1,1.3-2.2,2.6-3.3,3.9c-3.8,4.8-9.6,10.3-14.2,15.1c-1.9,3.3-4.1,7-6.5,10.8
	c0,0-0.2,0.4-0.2,0.4c0,0-0.2,0.3-0.2,0.4c-1.8,2.9-3.7,5.7-5.6,8.4c-4.3,6.1-8.2,11.8-12.6,17.1c-1,1.2-2.1,2.4-3.3,3.6
	c-5.4,5.5-11.8,10.4-19.5,14.2c-1,0.5-2.1,1-3.1,1.4c-3.2,1.3-6.6,2.3-9.7,3.7c-4,1.7-7.2,3.4-11.5,4.7c-4.2,1.3-8.9,2-13.8,2.3
	c-3.8,0.2-7.6,0.2-11.4-0.1c-0.6,0-1.2-0.1-1.7-0.1c-0.3,0-3.3-0.3-3.5-0.3c-0.1,0-3.1-0.6-3.2-0.6c-19.6-4.1-34.6-15.4-47.8-30.5
	c-5.1-5.9-9.2-11.7-12.6-16.6c-5.8-2.1-12.2-4.6-18.9-7.7c-10-4.5-19.8-10.4-28.9-18.4c-12.3-10.9-20.6-23.2-27-35.9
	c-5.8-4.3-12.7-10.2-19.8-18.3c-11.7-13.7-22.2-24.4-31.5-44.6c-1.4-2.8-3-5.9-4.7-9.3c-0.8-1.6-1.6-3.2-2.4-4.9
	c-0.7-1.4-1.5-2.9-2.2-4.4c-10.2-6.3-19.5-14.2-27.3-24c-2.9-3.7-5.4-7.4-7.9-11.1c0-0.1-0.5-0.7-0.5-0.8c0-0.1-0.5-0.7-0.5-0.8
	c-2.5-3.7-5.1-7.2-8.2-10.3c-0.1-0.1-0.1-0.1-0.2-0.2c-0.2-0.3-0.5-0.5-0.7-0.8c-4.8-5.5-8.4-11.4-11.5-18.8
	c-5.4-14.2-7.9-29.1-6.6-43.8c0.1-1.4,0.3-2.8,0.6-4.1c0,0,0-0.2,0-0.2c0,0,0-0.2,0-0.2c0.7-2.9,1.7-5.5,2.5-8.3
	c-0.6-13.2-2.7-26.1,1.6-38.6c0.5-1.5,1.1-3,1.7-4.5c0,0,0.1-0.2,0.1-0.2s0.1-0.2,0.1-0.2c1.6-3.7,3.5-6.7,5.5-9.6
	c-0.1-0.5-0.1-0.9-0.2-1.4c0.1,0-0.2-0.9-0.1-0.9c-0.2-1.3-0.9-3.4-1.3-5.2c-0.3-1.1-0.7-2.4-1.1-3.7c-2.4-7.6-5.9-16.6-9-26.6
	c-4.5-14.5-7.1-28.6-6.8-41.5c0.3-8.4,1.3-17,3.3-25.3c5.5-22.3,17.8-41.2,40.5-50.6C207.5,192,208.4,191.7,209.2,191.4"/>
<path id="line-22" class="st0" d="M201,182c0.7,0,8.8-2.7,9.4-2.4c0.2,0.1,4.2-0.2,4.5-0.2c0.1,0,2.3-0.2,2.5-0.2
	c0.2,0,2.8-0.3,3-0.3c0,0,0.1,0,0.1,0c2.1-0.3,6.1-1,10.9-1l0,0c0.8,0,1.5,0,2.3,0.1c6.3,0.3,12.1,1.8,17.2,3.4
	c2.4,0.1,4.9,0.2,7.5,0.3c2,0.1,3.9,0.2,5.5,0.3c2.3,0.1,4.3,0.3,6,0.4c0,0,0.1,0,0.1,0c0.1,0,1.9,0.2,2,0.1c0.1,0,1.9,0.3,2,0.2
	c2.9,0.3,5.8,0.8,8.6,1.4c1.6,0.4,3.2,0.8,4.8,1.3c4.1,1.3,7.8,2.9,11.1,4.7c0.7,0.1,1.3,0.1,2,0.2c3.8,0.4,7.6,0.9,11.5,1.2
	c1.7,0.2,3.4,0.3,5.2,0.5c3.4,0.3,6.6,0.9,9.8,1.6c1.8,0.4,3.5,0.9,5.2,1.4c2.3,0.8,4.6,1.6,6.8,2.4c4.2,0.2,8.4,0.5,12.7,0.9
	c0.4,0,0.8,0.1,1.2,0.1c0.3,0,5.1,0.7,5.4,0.6c0,0,0.2,0,0.2,0c0,0,0,0,0.1,0c2.5,0,5.2-0.1,7.8-0.2c1.4,0,2.7-0.1,4.1-0.1
	c1.1-0.3,2.3-0.6,3.4-0.9c0.8-0.2,1.6-0.4,2.4-0.5c7.3-1.6,15.8-4.1,25.7-4.3c0,0,0.4,0,0.4,0c0,0,0.4,0,0.4,0h1.8
	c11.6,0,25.2,0.9,40.7,7.2c13.9,6.2,24.3,9.8,35.9,18.5c9.3,2.9,20.4,7.9,33.3,17.9c1.4,1.1,2.8,2.2,4.2,3.4
	c7.9,6.9,13.7,11.8,20.8,21.7c4.5,5.5,9.6,11.3,15,17.7c0,0,0.1,0.1,0.1,0.1c0,0,0.1,0.1,0.1,0.1c0.9,1.1,1.8,2.1,2.6,3
	c5.2,6.1,11.9,14,16.6,25.6c2,4.6,3.5,8.9,4.8,12.8c4.1,5,9.1,11.1,13.5,19.2c1.6,2.9,3.2,5.6,4.9,8.3c0.9,0.4,1.9,0.8,2.9,1.1
	c6.5,2.3,13,4.2,18.9,7.6c2.5,1.3,4.9,2.9,7.2,4.6c2.3,1.7,4.5,3.5,6.6,5.6c8.2,8.4,13.2,17.4,17.3,24.6c0.2,0.4,0.4,0.8,0.7,1.2
	c10,7.6,18.7,15.9,26.4,24.7c3.8,4.2,7.1,8.5,9.9,13.1c7.2,11.2,9.9,21.8,11.3,30.6c6.6,7.8,15.1,17.9,25.1,31.7
	c0,0,0.3,0.4,0.3,0.4s0.3,0.4,0.3,0.4c0,0,0.5,0.8,0.6,0.8c3.7,5.3,9.9,14.3,15.2,24.8c4.3,8.2,7.5,16.1,9.8,24.1
	c1.1,4,2,8,2.6,11.9c1.5,11.8,1.2,23.9-1.7,35.5c-3.8,16-12.2,29.9-25.7,39c-6,4.2-12.9,7.5-20.2,9.9c-1.6,0.5-3.3,0.9-4.9,1.3
	c-12,2.4-23.5,1.8-34.8-0.2c-4.4-0.8-8.9-1.7-13.4-2.8c-1.5-0.4-2.9-0.6-4.3-0.8c-2.8-0.4-4.9-0.1-7.2,0.2c0,0.1-0.7-0.1-0.7,0
	c0,0.1-0.7-0.1-0.7,0c-8.3-0.5-16.8-2.8-24.6-6.2c-1.6,0.3-3.3,0.5-4.9,0.7c-6.3,0.8-12.8,0.9-19.1,0.5c-3.7-0.3-7.3-0.8-10.7-1.4
	c-5.7-1.3-11.2-2.4-16.5-3.6c-2.1,3-4.3,6.1-6.8,9.1c-1.1,1.4-2.2,2.8-3.4,4.1c-3.9,5.1-9.8,10.7-14.5,15.7c-2,3.5-4.2,7.3-6.7,11.2
	c0,0-0.2,0.4-0.2,0.4s-0.2,0.4-0.2,0.4c-1.9,3-3.8,5.9-5.8,8.7c-4.4,6.3-8.6,12.2-13.2,17.6c-1.1,1.3-2.2,2.5-3.4,3.7
	c-5.6,5.7-12.4,10.6-20.3,14.5c-1.1,0.5-2.1,1-3.3,1.4c-3.3,1.3-6.8,2.4-10,3.7c-4.1,1.7-7.6,3.4-12,4.7c-4.4,1.3-9.2,2-14.3,2.2
	c-3.9,0.2-7.9,0.1-11.7-0.1c-0.6,0-1.2-0.1-1.8-0.1c-0.2,0-3.4-0.3-3.7-0.3c-0.1,0-3.2-0.6-3.3-0.7c-20.4-4.2-36-15.8-49.8-31.6
	c-5.3-6.1-9.5-12.1-13-17.3c-6.1-2.2-12.7-4.8-19.6-8c-10.3-4.7-20.5-10.8-29.9-19.2c-12.8-11.3-21.4-24.2-28-37.3
	c-6-4.4-13.3-10.5-20.7-19c-12.1-14.1-22.9-25.4-32.4-46.1c-1.4-2.9-3.1-6.1-4.9-9.6c-0.8-1.6-1.7-3.3-2.5-5.1
	c-0.7-1.5-1.5-3-2.3-4.5c-10.6-6.4-20.2-14.6-28.4-24.7c-3-3.8-5.6-7.6-8.3-11.5c0-0.1-0.5-0.8-0.6-0.8c0,0-0.5-0.8-0.6-0.8
	c-2.6-3.8-5.3-7.4-8.4-10.8c-0.1-0.1-0.1-0.1-0.2-0.2c-0.2-0.3-0.5-0.6-0.7-0.8c-4.9-5.8-8.5-11.9-11.7-19.5
	c-5.5-14.7-8.1-30.2-6.8-45.4c0.1-1.5,0.3-2.9,0.6-4.2c0,0,0-0.2,0-0.2c0,0,0-0.2,0-0.2c0.7-3,1.7-5.7,2.5-8.6
	c-0.8-13.7-2.6-27.1,1.8-40.1c0.5-1.6,1.1-3.1,1.8-4.6c0,0,0.1-0.2,0.1-0.2c0,0,0.1-0.2,0.1-0.2c1.7-3.8,3.6-7,5.6-10
	c-0.1-0.5-0.1-1-0.2-1.5c0.1,0-0.2-1-0.1-1c-0.2-1.3-1-3.6-1.5-5.4c-0.4-1.2-0.8-2.5-1.2-3.9c-2.6-7.8-6.2-17.2-9.4-27.5
	c-4.6-15-7.3-29.6-6.9-43c0.4-8.8,1.5-17.6,3.6-26.3c5.9-23,19-42.6,42.5-52.3C199.2,182.6,200.1,182.3,201,182"/>
<path id="line-23" class="st0" d="M192.7,172.6c0.6,0,9.2-2.8,9.7-2.6c0.2,0.1,4.4-0.2,4.6-0.2c0.1,0,2.4-0.2,2.6-0.2
	c0.2,0,2.9-0.3,3.1-0.3c0,0,0.1,0,0.1,0c2.2-0.3,6.2-1,11.3-1l0,0c0.8,0,1.6,0,2.4,0.1c6.5,0.3,12.5,1.8,17.8,3.4
	c2.5,0.1,5.1,0.2,7.8,0.3c2.1,0.1,4,0.2,5.7,0.3c2.4,0.1,4.4,0.3,6.2,0.4c0,0,0.1,0,0.1,0c0.1,0,2,0.2,2.1,0.2c0.1,0,1.9,0.3,2,0.2
	c3,0.4,6,0.9,8.9,1.5c1.7,0.4,3.3,0.8,5,1.4c4.2,1.3,8,3,11.5,4.8c0.7,0.1,1.4,0.1,2.1,0.2c4,0.4,7.9,0.9,11.9,1.2
	c1.8,0.2,3.5,0.4,5.3,0.6c3.5,0.4,6.9,0.9,10.1,1.7c1.8,0.4,3.6,0.9,5.3,1.4c2.4,0.8,4.7,1.6,7,2.5c4.4,0.2,8.7,0.5,13.1,1
	c0.4,0,0.8,0.1,1.3,0.2c0.3,0,5.3,0.7,5.6,0.7c0,0,0.2,0,0.2,0c0,0,0,0,0.1,0c2.6,0,5.4-0.1,8.1-0.2c1.4,0,2.8-0.1,4.2-0.1
	c1.2-0.3,2.4-0.6,3.5-0.9c0.8-0.2,1.6-0.4,2.5-0.6c7.5-1.7,16.3-4.2,26.5-4.4c0,0,0.4,0,0.4,0c0,0,0.4,0,0.4,0h1.8
	c11.9,0,26,0.9,42.1,7.3c14.3,6.3,25.1,10.2,37.1,19.2c9.7,2.9,21.2,8.2,34.5,18.4c1.5,1.1,2.9,2.2,4.4,3.5
	c8.1,7,14.2,12.2,21.6,22.4c4.7,5.6,9.9,11.6,15.5,18.2c0,0,0.1,0.1,0.1,0.1c0,0,0.1,0.1,0.1,0.1c0.9,1.1,1.8,2.1,2.7,3.1
	c5.4,6.3,12.2,14.4,17.2,26.5c2.1,4.8,3.7,9.2,4.9,13.3c4.3,5.1,9.5,11.4,14.1,19.8c1.7,3,3.4,5.8,5,8.6c1,0.4,2,0.8,3,1.1
	c6.7,2.4,13.4,4.5,19.6,8.1c2.6,1.4,5.1,3,7.4,4.8c2.4,1.7,4.6,3.7,6.8,5.9c8.5,8.7,13.7,18.1,17.9,25.5c0.2,0.4,0.5,0.8,0.7,1.2
	c10.5,7.8,19.4,16.4,27.4,25.5c3.9,4.4,7.3,8.9,10.2,13.6c7.4,11.6,10.3,22.5,11.6,31.7c6.9,8.1,15.9,18.5,26.1,32.8
	c0,0,0.3,0.4,0.3,0.4s0.3,0.4,0.3,0.5c0,0,0.6,0.8,0.6,0.9c3.8,5.5,10.2,14.9,15.8,25.8c4.4,8.6,7.7,16.8,10,25
	c1.1,4.1,2,8.3,2.6,12.4c1.6,12.3,1.1,24.8-1.9,36.9c-4.1,16.6-12.9,31-26.9,40.5c-6.2,4.3-13.4,7.9-20.9,10.3c-1.7,0.5-3.4,1-5,1.3
	c-12.4,2.6-24.3,2.1-36.1,0.2c-4.6-0.7-9.2-1.7-13.9-2.8c-1.6-0.4-3-0.6-4.4-0.9c-2.9-0.4-5.1-0.1-7.5,0.1c0,0.1-0.7-0.1-0.7,0
	c0,0.1-0.7-0.1-0.7,0c-8.6-0.7-17.4-3.2-25.5-6.8c-1.7,0.3-3.4,0.6-5.1,0.8c-6.5,0.8-13.2,1-19.7,0.6c-3.8-0.3-7.5-0.7-11-1.4
	c-5.8-1.3-11.5-2.4-17.1-3.7c-2.1,3.1-4.4,6.4-6.9,9.6c-1.1,1.4-2.3,2.9-3.5,4.3c-4,5.3-10,11.2-14.9,16.4c-2,3.6-4.3,7.5-6.8,11.6
	c0,0-0.2,0.4-0.3,0.4s-0.2,0.4-0.3,0.4c-1.9,3.1-4,6.1-6,9c-4.6,6.5-8.9,12.5-13.8,18c-1.1,1.3-2.3,2.5-3.6,3.8
	c-5.9,5.8-12.9,10.8-21.1,14.8c-1.1,0.5-2.2,1-3.4,1.5c-3.4,1.3-7,2.4-10.3,3.8c-4.3,1.7-7.9,3.4-12.5,4.7c-4.6,1.3-9.6,2-14.7,2.2
	c-4.1,0.2-8.1,0.1-12.1-0.1c-0.6,0-1.2-0.1-1.8-0.1c-0.2,0-3.5-0.3-3.8-0.4c-0.1,0-3.3-0.6-3.4-0.7c-21.1-4.3-37.5-16.3-51.8-32.6
	c-5.6-6.3-9.9-12.6-13.5-17.9c-6.3-2.2-13.2-4.9-20.3-8.3c-10.7-4.8-21.2-11.3-31-20c-13.2-11.8-22.1-25.1-29-38.7
	c-6.3-4.6-13.8-10.8-21.5-19.6c-12.5-14.4-23.5-26.4-33.3-47.7c-1.5-3-3.2-6.3-5-9.9c-0.8-1.7-1.7-3.4-2.6-5.2
	c-0.8-1.5-1.6-3.1-2.3-4.7c-11-6.6-21-14.9-29.5-25.3c-3.1-3.9-5.8-7.8-8.6-11.8c0,0-0.6-0.8-0.6-0.8c0,0-0.5-0.8-0.6-0.9
	c-2.7-4-5.4-7.7-8.6-11.2c-0.1-0.1-0.1-0.1-0.2-0.2c-0.2-0.3-0.5-0.6-0.7-0.9c-5-6.1-8.7-12.5-11.9-20.3
	c-5.7-15.3-8.4-31.3-6.9-47.1c0.1-1.5,0.4-3,0.6-4.4c0,0,0-0.2,0-0.2c0,0,0-0.2,0-0.2c0.7-3.1,1.7-5.9,2.6-9
	c-0.9-14.2-2.6-28.1,2-41.5c0.6-1.6,1.2-3.2,1.8-4.8c0,0,0.1-0.2,0.1-0.2c0,0,0.1-0.2,0.1-0.2c1.7-3.9,3.7-7.3,5.8-10.4
	c-0.1-0.5-0.2-1-0.2-1.5c0.1,0-0.2-1-0.2-1c-0.3-1.4-1.1-3.7-1.6-5.7c-0.4-1.2-0.8-2.6-1.3-4c-2.8-8.1-6.6-17.7-9.9-28.5
	c-4.8-15.6-7.5-30.7-7-44.6c0.4-9.1,1.6-18.3,3.9-27.2c6.4-23.8,20.2-43.9,44.5-54C190.8,173.2,191.8,172.9,192.7,172.6"/>
<path id="line-24" class="st0" d="M184.4,163.1c0.6,0,9.5-3,10-2.7c0.2,0.1,4.5-0.3,4.8-0.2c0.1,0,2.5-0.2,2.6-0.2
	c0.2,0,3-0.3,3.2-0.3c0,0,0.1,0,0.1,0c2.2-0.3,6.4-1,11.6-1l0,0c0.8,0,1.6,0,2.4,0.1c6.7,0.3,12.9,1.8,18.4,3.5
	c2.6,0.1,5.3,0.2,8,0.3c2.1,0.1,4.1,0.2,5.9,0.3c2.4,0.1,4.6,0.3,6.4,0.4c0,0,0.1,0,0.1,0c0.1,0,2,0.2,2.1,0.2c0.1,0,2,0.3,2.1,0.3
	c3.1,0.4,6.2,0.9,9.1,1.6c1.7,0.4,3.4,0.9,5.1,1.4c4.4,1.4,8.3,3.1,11.9,5c0.7,0.1,1.4,0.1,2.2,0.2c4.1,0.3,8.1,0.8,12.3,1.2
	c1.8,0.2,3.7,0.4,5.5,0.6c3.6,0.4,7.1,1,10.4,1.7c1.9,0.4,3.7,0.9,5.5,1.5c2.5,0.8,4.9,1.7,7.2,2.6c4.5,0.2,9,0.5,13.5,1
	c0.4,0.1,0.9,0.1,1.3,0.2c0.3,0,5.4,0.7,5.7,0.7c0,0,0.2,0,0.2,0c0,0,0,0,0.1,0c2.6,0,5.5-0.1,8.3-0.2c1.5,0,2.9-0.1,4.3-0.1
	c1.2-0.3,2.4-0.7,3.7-1c0.8-0.2,1.7-0.4,2.6-0.6c7.7-1.8,16.8-4.3,27.4-4.5c0,0,0.4,0,0.4,0c0,0,0.4,0,0.4,0h1.9
	c12.2,0,26.9,0.9,43.4,7.4c14.7,6.4,25.9,10.5,38.3,19.8c10,3,22,8.4,35.6,18.9c1.5,1.1,3,2.3,4.5,3.6c8.3,7.1,14.7,12.6,22.4,23
	c4.8,5.8,10.2,12,16,18.8c0,0,0.1,0.1,0.1,0.1c0,0,0.1,0.1,0.1,0.1c1,1.2,1.9,2.2,2.7,3.2c5.5,6.5,12.6,14.8,17.7,27.3
	c2.1,5,3.8,9.5,5.1,13.7c4.4,5.3,9.9,11.8,14.7,20.4c1.7,3,3.5,6,5.2,8.9c1,0.4,2,0.8,3.1,1.2c7,2.5,13.9,4.8,20.2,8.6
	c2.7,1.5,5.2,3.2,7.6,5c2.5,1.8,4.8,3.9,7,6.1c8.8,9.1,14.2,18.8,18.5,26.3c0.2,0.4,0.5,0.8,0.7,1.3c10.9,8.1,20.1,16.9,28.4,26.3
	c4,4.5,7.5,9.2,10.5,14.1c7.6,12,10.6,23.3,12,32.8c7.2,8.3,16.6,19.1,27.1,33.8c0,0,0.3,0.5,0.3,0.5s0.3,0.5,0.3,0.5
	c0,0,0.6,0.9,0.6,0.9c3.9,5.6,10.5,15.4,16.3,26.7c4.6,8.9,8,17.4,10.3,26c1.2,4.3,2.1,8.6,2.7,12.8c1.6,12.8,1.1,25.8-2.2,38.3
	c-4.4,17.1-13.6,32.1-28.1,41.9c-6.5,4.5-13.9,8.2-21.7,10.8c-1.7,0.5-3.5,1-5.2,1.4c-12.7,2.7-25.1,2.5-37.3,0.6
	c-4.8-0.7-9.5-1.6-14.3-2.7c-1.6-0.4-3.1-0.7-4.5-0.9c-3-0.4-5.3-0.2-7.8-0.1c0,0.1-0.7-0.1-0.8,0s-0.7-0.1-0.8-0.1
	c-9-0.9-18-3.5-26.3-7.3c-1.7,0.3-3.5,0.6-5.2,0.8c-6.7,0.8-13.5,1-20.3,0.7c-3.9-0.3-7.8-0.7-11.4-1.4c-6-1.2-11.9-2.4-17.6-3.7
	c-2.2,3.3-4.5,6.7-7,10.1c-1.1,1.5-2.3,3-3.5,4.5c-4.1,5.6-10.1,11.6-15.2,17c-2,3.7-4.4,7.8-7,12c0,0-0.2,0.4-0.3,0.4
	c0,0-0.2,0.4-0.3,0.4c-2,3.2-4.1,6.3-6.2,9.2c-4.7,6.6-9.3,12.8-14.4,18.5c-1.2,1.3-2.5,2.6-3.8,3.9c-6.2,5.9-13.5,11.1-22,15.1
	c-1.1,0.5-2.3,1-3.5,1.5c-3.5,1.4-7.2,2.5-10.7,3.9c-4.5,1.8-8.3,3.4-13,4.7c-4.7,1.2-9.9,1.9-15.2,2.2c-4.2,0.2-8.4,0.1-12.5-0.2
	c-0.6,0-1.3-0.1-1.9-0.2c-0.2,0-3.7-0.3-3.9-0.4c-0.1,0-3.4-0.7-3.6-0.7c-21.8-4.5-39-16.8-53.7-33.6c-5.8-6.6-10.2-13.1-13.9-18.6
	c-6.5-2.3-13.6-5.1-21-8.6c-11-5-22-11.7-32-20.8c-13.7-12.2-22.9-26.1-29.9-40.1c-6.5-4.7-14.4-11.1-22.4-20.2
	c-12.9-14.8-24.2-27.4-34.1-49.3c-1.5-3.1-3.3-6.5-5.2-10.2c-0.9-1.7-1.8-3.5-2.7-5.4c-0.8-1.6-1.6-3.2-2.4-4.8
	c-11.4-6.7-21.8-15.2-30.5-25.9c-3.2-4-6.1-8-8.9-12.1c0,0-0.6-0.8-0.6-0.9c0,0-0.6-0.8-0.6-0.9c-2.8-4.1-5.6-8-8.8-11.6
	c-0.1-0.1-0.1-0.1-0.2-0.2c-0.2-0.3-0.5-0.6-0.7-0.9c-5-6.3-8.9-13-12.1-21.1c-5.8-15.8-8.6-32.4-7.1-48.7c0.1-1.6,0.4-3.1,0.6-4.5
	c0,0,0-0.2,0-0.2s0-0.2,0-0.2c0.7-3.3,1.7-6.2,2.6-9.3c-1-14.7-2.6-29,2.1-42.9c0.6-1.7,1.2-3.4,1.9-5c0,0,0.1-0.2,0.1-0.2
	c0,0,0.1-0.2,0.1-0.2c1.8-4,3.8-7.5,5.9-10.8c-0.1-0.5-0.2-1.1-0.3-1.6c0.1,0-0.2-1.1-0.2-1.1c-0.3-1.5-1.2-3.9-1.8-5.9
	c-0.4-1.3-0.9-2.7-1.4-4.1c-2.9-8.4-6.9-18.3-10.3-29.4c-5-16.1-7.7-31.7-7.2-46.1c0.5-9.4,1.7-18.9,4.2-28.2
	c6.8-24.6,21.4-45.3,46.5-55.7C182.5,163.8,183.5,163.5,184.4,163.1"/>
<path id="line-25" class="st0" d="M176.2,153.7c0.6,0,9.8-3.1,10.3-2.9c0.2,0.1,4.7-0.3,4.9-0.2c0.1,0,2.6-0.2,2.7-0.2
	c0.2,0,3.1-0.3,3.3-0.4c0,0,0.1,0,0.1,0c2.2-0.3,6.6-1,11.9-1l0,0c0.9,0,1.7,0,2.5,0.1c6.9,0.3,13.4,1.8,19,3.5
	c2.7,0.1,5.4,0.1,8.3,0.2c2.2,0.1,4.2,0.2,6.1,0.3c2.5,0.1,4.7,0.3,6.6,0.4c0,0,0.1,0,0.1,0c0.1,0,2.1,0.2,2.2,0.2
	c0.1,0,2.1,0.3,2.2,0.3c3.2,0.4,6.4,1,9.4,1.7c1.8,0.4,3.5,0.9,5.3,1.5c4.5,1.4,8.5,3.2,12.2,5.1c0.7,0,1.5,0.1,2.2,0.2
	c4.2,0.3,8.4,0.8,12.7,1.2c1.9,0.2,3.8,0.4,5.7,0.6c3.8,0.4,7.3,1,10.7,1.8c1.9,0.5,3.8,1,5.7,1.6c2.6,0.9,5,1.7,7.4,2.6
	c4.7,0.2,9.3,0.5,14,1c0.4,0.1,0.9,0.1,1.3,0.2c0.3,0,5.6,0.8,5.9,0.7c0,0,0.2,0,0.2,0c0,0,0,0,0.1,0c2.7,0,5.7-0.1,8.6-0.2
	c1.5,0,3-0.1,4.5-0.1c1.2-0.3,2.5-0.7,3.8-1c0.9-0.2,1.7-0.4,2.6-0.6c7.9-1.8,17.3-4.4,28.3-4.6c0,0,0.4,0,0.4,0c0,0,0.4,0,0.5,0
	h1.9c12.5,0,27.7,0.9,44.8,7.6c15.1,6.4,26.7,10.9,39.4,20.5c10.4,3.1,22.7,8.6,36.8,19.3c1.6,1.2,3.1,2.4,4.7,3.6
	c8.5,7.2,15.2,13,23.2,23.6c5,6,10.6,12.3,16.5,19.3c0,0,0.1,0.1,0.1,0.1s0.1,0.1,0.1,0.1c1,1.2,1.9,2.3,2.8,3.3
	c5.7,6.6,12.9,15.3,18.3,28.1c2.2,5.1,3.9,9.8,5.3,14.2c4.6,5.4,10.2,12.2,15.2,21.1c1.8,3.1,3.6,6.2,5.4,9.2
	c1.1,0.4,2.1,0.8,3.2,1.2c7.2,2.6,14.4,5.1,20.9,9.1c2.7,1.6,5.4,3.3,7.9,5.3c2.5,1.9,4.9,4,7.2,6.3c9.1,9.4,14.6,19.4,19.1,27.2
	c0.2,0.4,0.5,0.9,0.8,1.3c11.3,8.3,20.9,17.4,29.3,27.2c4.1,4.7,7.7,9.5,10.8,14.6c7.8,12.4,10.9,24.1,12.4,33.9
	c7.5,8.6,17.3,19.7,28.2,34.9c0,0,0.3,0.5,0.3,0.5s0.3,0.5,0.3,0.5c0,0,0.6,0.9,0.6,0.9c4,5.8,10.9,16,16.8,27.7
	c4.7,9.2,8.2,18.1,10.6,26.9c1.2,4.5,2.1,8.9,2.7,13.3c1.6,13.3,1,26.7-2.4,39.6c-4.7,17.7-14.3,33.1-29.3,43.3
	c-6.7,4.7-14.3,8.5-22.4,11.2c-1.8,0.6-3.6,1.1-5.3,1.5c-13.1,2.9-25.9,2.8-38.5,1c-4.9-0.7-9.9-1.6-14.8-2.7
	c-1.6-0.4-3.2-0.7-4.7-0.9c-3-0.5-5.5-0.3-8.1-0.2c0,0.1-0.8-0.1-0.8-0.1s-0.8-0.1-0.8-0.1c-9.3-1.1-18.6-3.9-27.1-7.8
	c-1.8,0.3-3.6,0.6-5.4,0.8c-6.9,0.9-13.9,1.1-20.9,0.7c-4-0.2-8-0.7-11.7-1.3c-6.2-1.2-12.3-2.4-18.2-3.7c-2.2,3.5-4.5,7-7.1,10.5
	c-1.2,1.6-2.4,3.2-3.6,4.7c-4.2,5.8-10.3,12-15.6,17.6c-2.1,3.9-4.4,8.1-7.1,12.4c0,0-0.2,0.4-0.3,0.4c0,0-0.3,0.4-0.3,0.4
	c-2.1,3.3-4.2,6.4-6.4,9.5c-4.9,6.8-9.7,13.2-15,19c-1.3,1.4-2.6,2.7-3.9,4c-6.4,6.1-14,11.3-22.8,15.4c-1.2,0.5-2.4,1-3.6,1.5
	c-3.6,1.4-7.4,2.5-11,3.9c-4.6,1.8-8.6,3.4-13.6,4.7c-4.9,1.2-10.2,1.9-15.7,2.2c-4.3,0.2-8.6,0.1-12.8-0.2c-0.7,0-1.3-0.1-2-0.2
	c-0.2,0-3.8-0.4-4-0.4c-0.1,0-3.6-0.7-3.7-0.7c-22.6-4.6-40.5-17.2-55.7-34.6c-6-6.8-10.6-13.6-14.4-19.3
	c-6.8-2.4-14.1-5.2-21.8-8.9c-11.3-5.2-22.7-12.1-33.1-21.6c-14.1-12.7-23.7-27.1-30.9-41.6c-6.7-4.8-14.9-11.5-23.2-20.8
	c-13.3-15.1-24.9-28.4-35-50.9c-1.6-3.2-3.4-6.7-5.3-10.5c-0.9-1.8-1.8-3.6-2.8-5.6c-0.8-1.6-1.6-3.3-2.5-5
	c-11.8-6.8-22.5-15.6-31.6-26.5c-3.3-4.1-6.3-8.2-9.2-12.5c0,0-0.6-0.9-0.6-0.9c0,0-0.6-0.9-0.6-0.9c-2.9-4.2-5.8-8.3-9-12
	c-0.1-0.1-0.1-0.1-0.2-0.2c-0.2-0.3-0.5-0.6-0.7-1c-5.1-6.6-9-13.6-12.3-21.9c-6-16.4-8.8-33.5-7.3-50.3c0.1-1.6,0.4-3.2,0.6-4.7
	c0,0,0-0.2,0-0.2s0-0.2,0-0.2c0.7-3.4,1.7-6.4,2.6-9.7c-1.1-15.1-2.6-30,2.3-44.3c0.6-1.8,1.3-3.5,2-5.1c0,0,0.1-0.2,0.1-0.2
	c0,0,0.1-0.2,0.1-0.2c1.8-4.1,3.9-7.8,6.1-11.2c-0.1-0.6-0.2-1.1-0.3-1.7c0.1,0-0.3-1.1-0.2-1.1c-0.4-1.5-1.3-4-1.9-6.1
	c-0.5-1.3-1-2.8-1.5-4.3c-3.1-8.6-7.2-18.9-10.8-30.4c-5.2-16.6-7.9-32.8-7.3-47.6c0.5-9.8,1.9-19.5,4.5-29.1
	c7.2-25.4,22.6-46.6,48.5-57.4C174.2,154.4,175.2,154,176.2,153.7"/>
<path id="line-26" class="st0" d="M167.9,144.3c0.6,0,10.2-3.3,10.6-3c0.2,0.1,4.9-0.3,5.1-0.3c0.1,0,2.7-0.2,2.8-0.2
	c0.1,0,3.2-0.3,3.4-0.4c0,0,0.1,0,0.2,0c2.3-0.3,6.8-1,12.3-1l0,0c0.9,0,1.7,0,2.6,0.1c7.2,0.3,13.8,1.9,19.6,3.5
	c2.7,0.1,5.6,0.1,8.6,0.2c2.3,0.1,4.4,0.2,6.3,0.3c2.6,0.1,4.9,0.3,6.8,0.5c0,0,0.1,0,0.1,0c0.1,0,2.2,0.2,2.3,0.2
	c0.1,0,2.2,0.3,2.2,0.3c3.3,0.4,6.6,1,9.7,1.8c1.9,0.5,3.7,1,5.4,1.5c4.6,1.5,8.8,3.3,12.6,5.3c0.8,0,1.5,0.1,2.3,0.2
	c4.4,0.3,8.7,0.8,13.1,1.2c2,0.2,3.9,0.4,5.9,0.7c3.9,0.4,7.5,1.1,11,1.9c2,0.5,3.9,1,5.8,1.6c2.6,0.9,5.2,1.8,7.6,2.7
	c4.8,0.2,9.6,0.5,14.4,1.1c0.5,0.1,0.9,0.1,1.4,0.2c0.3,0,5.8,0.8,6.1,0.8c0,0,0.2,0,0.2,0c0,0,0,0,0.1,0c2.8,0,5.9-0.1,8.9-0.2
	c1.5,0,3.1-0.1,4.6-0.1c1.3-0.4,2.6-0.7,3.9-1.1c0.9-0.2,1.8-0.4,2.7-0.7c8.2-1.9,17.8-4.5,29.1-4.7c0,0,0.4,0,0.5,0
	c0,0,0.4,0,0.5,0h2c12.9,0,28.5,1,46.2,7.7c15.5,6.5,27.6,11.3,40.6,21.1c10.7,3.2,23.5,8.8,38,19.8c1.6,1.2,3.2,2.4,4.8,3.7
	c8.7,7.4,15.7,13.4,24,24.3c5.2,6.1,10.9,12.6,17,19.9c0,0,0.1,0.1,0.1,0.1c0,0,0.1,0.1,0.1,0.1c1,1.2,2,2.4,2.9,3.4
	c5.8,6.8,13.3,15.7,18.9,28.9c2.3,5.3,4.1,10.1,5.4,14.6c4.7,5.6,10.6,12.6,15.8,21.7c1.9,3.2,3.7,6.3,5.6,9.5
	c1.1,0.4,2.2,0.9,3.3,1.2c7.5,2.8,14.8,5.4,21.6,9.5c2.8,1.6,5.5,3.5,8.1,5.5c2.6,2,5.1,4.2,7.4,6.6c9.4,9.8,15.1,20.1,19.7,28.1
	c0.2,0.4,0.5,0.9,0.8,1.4c11.7,8.5,21.6,18,30.3,28c4.2,4.8,7.9,9.9,11.1,15.1c8,12.8,11.2,24.9,12.7,35c7.8,8.8,18,20.3,29.2,36
	c0,0,0.3,0.5,0.3,0.5s0.3,0.5,0.3,0.5c0,0,0.6,0.9,0.6,1c4.1,6,11.2,16.5,17.3,28.7c4.9,9.6,8.4,18.7,10.9,27.9
	c1.2,4.6,2.1,9.2,2.8,13.8c1.7,13.8,0.9,27.7-2.7,41c-4.9,18.3-15,34.2-30.5,44.8c-6.9,4.8-14.8,8.8-23.1,11.6
	c-1.8,0.6-3.7,1.1-5.5,1.6c-13.4,3.1-26.7,3.1-39.7,1.4c-5.1-0.6-10.2-1.6-15.3-2.7c-1.7-0.4-3.3-0.7-4.8-0.9
	c-3.1-0.5-5.7-0.4-8.4-0.3c0,0-0.8-0.1-0.8-0.1c0,0-0.8-0.1-0.8-0.1c-9.7-1.2-19.2-4.3-27.9-8.4c-1.8,0.3-3.7,0.6-5.6,0.9
	c-7.1,0.9-14.3,1.2-21.5,0.8c-4.2-0.2-8.2-0.7-12.1-1.3c-6.4-1.2-12.6-2.4-18.7-3.8c-2.2,3.6-4.6,7.3-7.2,11
	c-1.2,1.6-2.4,3.3-3.7,4.9c-4.3,6.1-10.5,12.5-15.9,18.3c-2.1,4-4.5,8.3-7.3,12.8c0,0-0.3,0.4-0.3,0.4s-0.3,0.4-0.3,0.4
	c-2.1,3.3-4.3,6.6-6.6,9.8c-5,7-10,13.5-15.7,19.4c-1.3,1.4-2.7,2.7-4.1,4c-6.7,6.2-14.6,11.5-23.6,15.7c-1.2,0.6-2.4,1.1-3.7,1.5
	c-3.7,1.4-7.7,2.6-11.4,4c-4.8,1.8-9,3.4-14.1,4.7c-5.1,1.2-10.5,1.9-16.2,2.1c-4.4,0.2-8.9,0.1-13.2-0.2c-0.7,0-1.3-0.1-2-0.2
	c-0.2,0-3.9-0.4-4.1-0.4c-0.1,0-3.7-0.7-3.8-0.8c-23.3-4.7-42-17.7-57.7-35.6c-6.2-7-11-14-14.8-19.9c-7-2.4-14.6-5.4-22.5-9.1
	c-11.7-5.4-23.4-12.6-34.2-22.4c-14.6-13.2-24.4-28-31.9-43c-7-4.9-15.5-11.8-24.1-21.5c-13.7-15.5-25.5-29.4-35.9-52.5
	c-1.6-3.3-3.5-6.9-5.5-10.8c-0.9-1.8-1.9-3.7-2.9-5.7c-0.8-1.7-1.7-3.4-2.6-5.1c-12.2-6.9-23.3-15.9-32.7-27.1
	c-3.4-4.2-6.5-8.5-9.5-12.8c0,0-0.6-0.9-0.6-0.9s-0.6-0.9-0.6-0.9c-3-4.3-5.9-8.5-9.2-12.5c-0.1-0.1-0.1-0.2-0.2-0.2
	c-0.2-0.3-0.5-0.7-0.7-1c-5.2-6.9-9.2-14.1-12.6-22.7c-6.2-17-9-34.5-7.4-51.9c0.1-1.7,0.4-3.3,0.6-4.8c0,0,0-0.2,0-0.2
	c0,0,0-0.2,0-0.2c0.7-3.5,1.7-6.6,2.7-10c-1.3-15.6-2.6-31,2.5-45.7c0.6-1.8,1.3-3.6,2-5.3c0,0,0.1-0.2,0.1-0.2c0,0,0.1-0.2,0.1-0.2
	c1.9-4.3,4-8,6.2-11.5c-0.1-0.6-0.2-1.2-0.3-1.7c0.1,0-0.3-1.1-0.2-1.2c-0.4-1.6-1.4-4.2-2.1-6.3c-0.5-1.4-1-2.9-1.6-4.4
	c-3.3-8.9-7.6-19.5-11.2-31.3c-5.3-17.2-8.1-33.8-7.5-49.2c0.5-10.1,2-20.2,4.8-30c7.6-26.2,23.8-48,50.5-59.1
	C165.9,145,166.9,144.6,167.9,144.3"/>
<path id="line-27" class="st0" d="M159.7,134.8c0.5,0,10.5-3.4,10.9-3.2c0.2,0.1,5-0.3,5.2-0.3c0.1,0,2.8-0.3,2.9-0.3
	c0.1,0,3.3-0.4,3.5-0.4c0,0,0.1,0,0.2,0c2.3-0.3,6.9-1,12.6-1l0,0c0.9,0,1.8,0,2.7,0.1c7.4,0.3,14.2,1.9,20.2,3.6
	c2.8,0,5.8,0.1,8.8,0.2c2.4,0.1,4.5,0.2,6.5,0.3c2.7,0.2,5,0.3,7,0.5c0,0,0.1,0,0.1,0c0.1,0,2.2,0.2,2.3,0.2c0.1,0,2.2,0.3,2.3,0.3
	c3.4,0.5,6.8,1.1,10,1.9c1.9,0.5,3.8,1,5.6,1.6c4.8,1.5,9.1,3.4,13,5.4c0.8,0,1.6,0.1,2.4,0.1c4.5,0.3,8.9,0.8,13.5,1.2
	c2,0.2,4,0.4,6.1,0.7c4,0.5,7.8,1.2,11.4,2c2,0.5,4,1.1,6,1.7c2.7,0.9,5.4,1.9,7.9,2.8c4.9,0.2,9.8,0.5,14.8,1.1
	c0.5,0.1,1,0.1,1.4,0.2c0.3,0,6,0.8,6.3,0.8c0,0,0.2,0,0.2,0c0,0,0,0,0.1,0c2.9,0,6.1-0.1,9.1-0.2c1.6,0,3.2-0.1,4.7-0.1
	c1.3-0.4,2.6-0.8,4-1.1c0.9-0.2,1.8-0.4,2.8-0.7c8.4-2,18.4-4.6,30-4.8c0,0,0.4,0,0.5,0c0,0,0.5,0,0.5,0h2c13.2,0,29.4,1,47.6,7.9
	c15.9,6.5,28.4,11.6,41.8,21.7c11.1,3.2,24.2,9,39.2,20.2c1.7,1.2,3.3,2.5,5,3.8c8.9,7.5,16.2,13.8,24.8,24.9
	c5.3,6.3,11.2,13,17.5,20.4c0,0,0.1,0.1,0.1,0.1s0.1,0.1,0.1,0.1c1.1,1.3,2,2.4,3,3.5c5.9,7,13.7,16.1,19.4,29.8
	c2.4,5.4,4.2,10.4,5.6,15.1c4.9,5.7,10.9,12.9,16.4,22.4c1.9,3.3,3.9,6.5,5.8,9.8c1.1,0.5,2.2,0.9,3.4,1.3c7.7,2.9,15.3,5.7,22.2,10
	c2.9,1.7,5.7,3.6,8.3,5.8c2.7,2.1,5.2,4.3,7.6,6.8c9.7,10.1,15.6,20.8,20.3,29c0.3,0.4,0.5,0.9,0.8,1.4
	c12.1,8.8,22.3,18.5,31.3,28.9c4.4,5,8.1,10.2,11.4,15.6c8.2,13.2,11.5,25.7,13.1,36.1c8.1,9,18.7,20.9,30.2,37c0,0,0.3,0.5,0.4,0.5
	c0,0,0.3,0.5,0.3,0.5c0,0,0.6,1,0.7,1c4.2,6.2,11.5,17.1,17.8,29.7c5,9.9,8.7,19.3,11.2,28.9c1.2,4.8,2.2,9.5,2.8,14.3
	c1.7,14.3,0.9,28.6-2.9,42.4c-5.2,18.9-15.7,35.3-31.7,46.2c-7.2,5-15.3,9.1-23.9,12c-1.9,0.6-3.8,1.2-5.6,1.6
	c-13.8,3.3-27.5,3.5-40.9,1.9c-5.3-0.6-10.5-1.5-15.7-2.6c-1.7-0.4-3.4-0.7-4.9-0.9c-3.2-0.5-5.8-0.4-8.6-0.5c0,0-0.8-0.1-0.9-0.1
	c0,0-0.8-0.2-0.9-0.1c-10-1.4-19.8-4.6-28.7-8.9c-1.9,0.3-3.8,0.6-5.7,0.9c-7.3,0.9-14.7,1.2-22.1,0.9c-4.3-0.2-8.4-0.7-12.5-1.3
	c-6.6-1.2-13-2.4-19.2-3.8c-2.2,3.8-4.7,7.6-7.3,11.4c-1.2,1.7-2.4,3.4-3.8,5.1c-4.4,6.3-10.7,12.9-16.3,18.9
	c-2.2,4.1-4.6,8.6-7.5,13.1c0,0-0.3,0.4-0.3,0.5s-0.3,0.4-0.3,0.5c-2.2,3.4-4.4,6.8-6.8,10c-5.2,7.2-10.4,13.8-16.3,19.9
	c-1.4,1.4-2.8,2.8-4.3,4.1c-7,6.3-15.1,11.8-24.4,16c-1.2,0.6-2.5,1.1-3.8,1.6c-3.9,1.5-7.9,2.7-11.7,4.1c-4.9,1.8-9.4,3.4-14.6,4.7
	c-5.2,1.2-10.8,1.9-16.7,2.1c-4.6,0.2-9.1,0.1-13.6-0.3c-0.7-0.1-1.4-0.1-2.1-0.2c-0.2,0-4-0.4-4.2-0.4c-0.1,0-3.8-0.7-3.9-0.8
	c-24.1-4.9-43.5-18.1-59.7-36.6c-6.4-7.3-11.3-14.5-15.3-20.6c-7.2-2.5-15.1-5.6-23.2-9.4c-12-5.6-24.1-13-35.2-23.1
	c-15.1-13.6-25.2-29-32.9-44.4c-7.2-5.1-16-12.1-25-22.1c-14-15.9-26.2-30.5-36.8-54.1c-1.7-3.3-3.6-7.1-5.6-11.1
	c-1-1.9-1.9-3.8-3-5.9c-0.9-1.7-1.7-3.5-2.6-5.3c-12.6-7.1-24.1-16.2-33.8-27.8c-3.5-4.3-6.7-8.7-9.8-13.1c0,0-0.6-0.9-0.7-1
	c0,0-0.6-0.9-0.6-1c-3.1-4.5-6.1-8.8-9.4-12.9c-0.1-0.1-0.1-0.2-0.2-0.2c-0.2-0.3-0.5-0.7-0.7-1c-5.3-7.2-9.4-14.7-12.8-23.5
	c-6.3-17.5-9.2-35.6-7.6-53.5c0.2-1.7,0.4-3.4,0.7-5c0,0,0-0.2,0-0.3s0-0.2,0-0.2c0.7-3.6,1.8-6.9,2.7-10.3
	c-1.4-16.1-2.5-31.9,2.6-47.2c0.6-1.9,1.3-3.7,2.1-5.5c0,0,0.1-0.2,0.1-0.2c0,0,0.1-0.2,0.1-0.2c1.9-4.4,4.1-8.3,6.4-11.9
	c-0.1-0.6-0.3-1.2-0.4-1.8c0,0-0.3-1.2-0.3-1.2c-0.4-1.6-1.5-4.4-2.2-6.6c-0.5-1.4-1.1-2.9-1.7-4.6c-3.4-9.2-7.9-20.1-11.7-32.3
	c-5.5-17.7-8.3-34.8-7.6-50.7c0.6-10.4,2.2-20.8,5.2-31c8.1-27,25-49.3,52.6-60.7C157.5,135.6,158.6,135.2,159.7,134.8"/>
<path id="line-28" class="st0" d="M151.4,125.4c0.5,0,10.8-3.6,11.2-3.4c0.2,0.1,5.2-0.4,5.4-0.3c0.1,0,2.9-0.3,3-0.3
	c0.1,0,3.4-0.4,3.6-0.4c0,0,0.2,0,0.2,0c2.4-0.3,7.1-1,13-1l0,0c0.9,0,1.8,0,2.8,0.1c7.6,0.3,14.6,1.9,20.8,3.6c2.9,0,5.9,0,9.1,0.1
	c2.4,0.1,4.6,0.2,6.6,0.3c2.8,0.2,5.1,0.4,7.2,0.5c0,0,0.1,0,0.1,0c0.1,0,2.3,0.2,2.4,0.2c0.1,0,2.3,0.3,2.4,0.3
	c3.5,0.5,6.9,1.1,10.3,1.9c2,0.5,3.9,1,5.8,1.6c4.9,1.6,9.3,3.5,13.4,5.6c0.8,0,1.6,0.1,2.4,0.1c4.7,0.3,9.2,0.8,13.9,1.2
	c2.1,0.2,4.2,0.5,6.3,0.7c4.1,0.5,8,1.2,11.7,2.1c2.1,0.5,4.1,1.1,6.2,1.7c2.8,0.9,5.5,1.9,8.1,2.9c5.1,0.2,10.1,0.5,15.2,1.2
	c0.5,0.1,1,0.1,1.5,0.2c0.3,0,6.2,0.8,6.4,0.8c0,0,0.2,0,0.2,0c0,0,0,0,0.1,0c2.9,0,6.2-0.1,9.4-0.2c1.6,0,3.2-0.1,4.8-0.1
	c1.3-0.4,2.7-0.8,4.1-1.1c0.9-0.2,1.9-0.5,2.9-0.7c8.6-2.1,18.9-4.7,30.9-4.9c0,0,0.5,0,0.5,0c0,0,0.5,0,0.5,0h2.1
	c13.5,0,30.2,1,49,8c16.2,6.6,29.2,12,42.9,22.4c11.4,3.3,25,9.2,40.3,20.7c1.7,1.3,3.4,2.6,5.1,3.9c9.2,7.6,16.7,14.2,25.6,25.5
	c5.5,6.4,11.6,13.3,18,21c0,0,0.1,0.1,0.1,0.1s0.1,0.1,0.1,0.1c1.1,1.3,2.1,2.5,3.1,3.6c6.1,7.2,14,16.6,20,30.6
	c2.5,5.6,4.3,10.7,5.8,15.5c5,5.9,11.3,13.3,16.9,23c2,3.4,4,6.7,6,10.1c1.2,0.5,2.3,0.9,3.5,1.3c7.9,3,15.7,6,22.9,10.5
	c3,1.8,5.8,3.8,8.6,6c2.7,2.1,5.3,4.5,7.8,7.1c10,10.5,16.1,21.4,20.9,29.8c0.3,0.5,0.5,0.9,0.8,1.4c12.5,9,23.1,19,32.2,29.7
	c4.5,5.1,8.4,10.5,11.7,16.1c8.3,13.6,11.8,26.5,13.4,37.2c8.4,9.3,19.5,21.5,31.2,38.1c0,0,0.4,0.5,0.4,0.5c0,0,0.3,0.5,0.4,0.5
	c0,0,0.7,1,0.7,1c4.3,6.4,11.9,17.6,18.4,30.7c5.1,10.2,8.9,20,11.5,29.8c1.3,4.9,2.2,9.8,2.9,14.7c1.7,14.8,0.8,29.6-3.2,43.8
	c-5.5,19.5-16.4,36.3-32.9,47.7c-7.4,5.2-15.7,9.4-24.6,12.5c-1.9,0.6-3.9,1.2-5.8,1.7c-14.2,3.5-28.3,3.8-42.2,2.3
	c-5.4-0.6-10.8-1.5-16.2-2.6c-1.8-0.4-3.5-0.7-5.1-0.9c-3.3-0.5-6-0.5-8.9-0.6c0,0-0.9-0.1-0.9-0.1s-0.9-0.2-0.9-0.1
	c-10.4-1.6-20.4-5-29.5-9.4c-1.9,0.4-3.9,0.7-5.9,0.9c-7.5,1-15.1,1.3-22.7,1c-4.4-0.2-8.7-0.7-12.8-1.3c-6.7-1.2-13.3-2.4-19.8-3.8
	c-2.3,4-4.7,8-7.4,11.9c-1.2,1.8-2.5,3.5-3.8,5.3c-4.5,6.5-10.9,13.4-16.7,19.6c-2.2,4.3-4.7,8.8-7.6,13.5c0,0-0.3,0.4-0.3,0.5
	s-0.3,0.4-0.3,0.5c-2.2,3.5-4.6,7-7,10.3c-5.3,7.4-10.8,14.2-16.9,20.4c-1.4,1.4-2.9,2.8-4.4,4.2c-7.2,6.5-15.7,12-25.2,16.3
	c-1.3,0.6-2.6,1.1-3.9,1.6c-4,1.5-8.1,2.7-12,4.1c-5.1,1.8-9.7,3.4-15.1,4.7c-5.4,1.2-11.2,1.9-17.1,2.1c-4.7,0.2-9.4,0-13.9-0.3
	c-0.7-0.1-1.4-0.1-2.1-0.2c-0.2,0-4.2-0.4-4.3-0.4c-0.1,0-4-0.8-4.1-0.8c-24.8-5-44.9-18.6-61.6-37.6c-6.6-7.5-11.7-15-15.7-21.3
	c-7.5-2.6-15.6-5.7-23.9-9.7c-12.4-5.8-24.8-13.4-36.3-23.9c-15.5-14.1-26-29.9-33.9-45.8c-7.5-5.2-16.6-12.5-25.8-22.7
	c-14.4-16.2-26.9-31.5-37.7-55.7c-1.7-3.4-3.7-7.3-5.8-11.4c-1-1.9-2-3.9-3-6c-0.9-1.8-1.8-3.6-2.7-5.4
	c-13.1-7.2-24.9-16.6-34.9-28.4c-3.6-4.4-6.9-8.9-10.1-13.5c0,0-0.7-0.9-0.7-1c0,0-0.6-1-0.7-1c-3.1-4.6-6.2-9.1-9.6-13.3
	c-0.1-0.1-0.1-0.2-0.2-0.2c-0.3-0.4-0.5-0.7-0.8-1.1c-5.4-7.4-9.5-15.2-13-24.2c-6.5-18.1-9.4-36.7-7.7-55.1
	c0.2-1.8,0.4-3.4,0.7-5.1c0,0,0-0.3,0-0.3c0,0,0-0.2,0-0.3c0.7-3.7,1.8-7.1,2.7-10.7c-1.5-16.6-2.5-32.9,2.8-48.6
	c0.7-1.9,1.4-3.8,2.1-5.6c0,0,0.1-0.2,0.1-0.2s0.1-0.2,0.1-0.2c1.9-4.5,4.1-8.6,6.5-12.3c-0.1-0.6-0.3-1.2-0.4-1.9
	c0,0-0.3-1.2-0.3-1.2c-0.5-1.7-1.6-4.5-2.4-6.8c-0.5-1.5-1.1-3-1.8-4.7c-3.6-9.4-8.2-20.7-12.1-33.2c-5.7-18.2-8.5-35.9-7.7-52.2
	c0.6-10.8,2.3-21.5,5.5-31.9c8.5-27.8,26.3-50.7,54.6-62.4C149.2,126.2,150.3,125.8,151.4,125.4"/>
<path id="line-29" class="st0" d="M143.1,116c0.5,0,11.2-3.7,11.6-3.5c0.2,0.1,5.3-0.4,5.6-0.4c0.1,0,2.9-0.3,3-0.3
	c0.1,0,3.5-0.4,3.7-0.4c0,0,0.2,0,0.2,0c2.4-0.3,7.3-1,13.3-1l0,0c1,0,1.9,0,2.8,0.1c7.8,0.3,15,1.9,21.4,3.6c3,0,6.1,0,9.3,0.1
	c2.5,0.1,4.8,0.2,6.8,0.3c2.8,0.2,5.3,0.4,7.4,0.6c0,0,0.1,0,0.1,0c0.1,0,2.4,0.2,2.5,0.2c0.1,0,2.4,0.4,2.5,0.3
	c3.6,0.5,7.1,1.2,10.6,2c2,0.5,4,1.1,5.9,1.7c5,1.6,9.6,3.6,13.7,5.7c0.8,0,1.7,0.1,2.5,0.1c4.8,0.3,9.5,0.8,14.3,1.2
	c2.1,0.2,4.3,0.5,6.5,0.8c4.2,0.5,8.2,1.3,12,2.2c2.2,0.5,4.3,1.1,6.3,1.8c2.9,1,5.7,2,8.3,3c5.2,0.2,10.4,0.5,15.6,1.2
	c0.5,0.1,1,0.1,1.5,0.2c0.2,0,6.4,0.9,6.6,0.9c0,0,0.2,0.1,0.2,0.1c0,0,0,0,0.1,0c3,0,6.4-0.1,9.6-0.2c1.7-0.1,3.3-0.1,5-0.1
	c1.4-0.4,2.8-0.8,4.2-1.2c1-0.2,1.9-0.5,2.9-0.7c8.8-2.2,19.4-4.8,31.7-5c0,0,0.5,0,0.5,0c0,0,0.5,0,0.5,0h2.1c13.9,0,31,1,50.4,8.2
	c16.6,6.7,30,12.3,44.1,23c11.8,3.4,25.7,9.4,41.5,21.2c1.8,1.3,3.5,2.6,5.3,4c9.4,7.8,17.2,14.7,26.4,26.2
	c5.7,6.6,11.9,13.7,18.6,21.6c0,0,0.1,0.1,0.1,0.1c0,0,0.1,0.1,0.1,0.1c1.1,1.3,2.2,2.6,3.2,3.7c6.2,7.3,14.4,17,20.5,31.4
	c2.5,5.8,4.4,11,5.9,16c5.2,6,11.6,13.7,17.5,23.6c2,3.4,4.1,6.9,6.1,10.3c1.2,0.5,2.4,0.9,3.6,1.4c8.2,3.1,16.2,6.2,23.6,11
	c3.1,1.9,6,3.9,8.8,6.2c2.8,2.2,5.5,4.7,8,7.3c10.3,10.8,16.6,22.1,21.5,30.7c0.3,0.5,0.6,1,0.8,1.5c12.9,9.3,23.8,19.5,33.2,30.5
	c4.6,5.3,8.6,10.9,12,16.6c8.5,14,12.1,27.3,13.8,38.3c8.7,9.5,20.2,22,32.2,39.1c0,0,0.4,0.5,0.4,0.5c0,0,0.4,0.5,0.4,0.6
	c0,0,0.7,1,0.7,1.1c4.4,6.5,12.2,18.1,18.9,31.6c5.3,10.6,9.2,20.6,11.8,30.8c1.3,5.1,2.3,10.2,2.9,15.2c1.7,15.3,0.8,30.5-3.5,45.2
	c-5.7,20.1-17.1,37.4-34.1,49.1c-7.6,5.4-16.2,9.8-25.4,12.9c-2,0.7-4,1.3-5.9,1.8c-14.5,3.6-29.1,4.2-43.4,2.7
	c-5.6-0.6-11.1-1.4-16.7-2.6c-1.8-0.4-3.5-0.7-5.2-1c-3.4-0.5-6.2-0.6-9.2-0.7c0,0-0.9-0.2-0.9-0.1s-0.9-0.2-0.9-0.1
	c-10.7-1.8-21-5.3-30.4-10c-2,0.4-4,0.7-6,1c-7.7,1-15.5,1.4-23.3,1c-4.5-0.2-8.9-0.6-13.2-1.3c-6.9-1.2-13.7-2.4-20.3-3.9
	c-2.3,4.1-4.8,8.3-7.6,12.4c-1.2,1.8-2.5,3.7-3.9,5.5c-4.6,6.8-11.1,13.8-17,20.2c-2.2,4.4-4.8,9.1-7.8,13.9c0,0-0.3,0.5-0.3,0.5
	s-0.3,0.5-0.3,0.5c-2.3,3.6-4.7,7.2-7.2,10.6c-5.5,7.5-11.2,14.5-17.5,20.8c-1.5,1.5-3,2.9-4.6,4.3c-7.5,6.6-16.2,12.2-26.1,16.6
	c-1.3,0.6-2.7,1.1-4,1.6c-4.1,1.5-8.3,2.8-12.4,4.2c-5.3,1.8-10.1,3.4-15.7,4.7c-5.6,1.2-11.5,1.9-17.6,2.1c-4.8,0.2-9.6,0-14.3-0.3
	c-0.7-0.1-1.5-0.1-2.2-0.2c-0.2,0-4.3-0.4-4.5-0.4c-0.1,0-4.1-0.8-4.2-0.8c-25.6-5.1-46.4-19-63.6-38.6c-6.8-7.7-12-15.4-16.2-21.9
	c-7.7-2.6-16-5.9-24.7-10c-12.7-6-25.5-13.9-37.4-24.7c-16-14.5-26.7-30.9-34.9-47.2c-7.7-5.3-17.1-12.8-26.7-23.3
	c-14.8-16.6-27.6-32.5-38.6-57.3c-1.7-3.5-3.8-7.5-5.9-11.7c-1-2-2.1-4-3.1-6.2c-0.9-1.8-1.8-3.6-2.8-5.5c-13.5-7.3-25.6-16.9-36-29
	c-3.7-4.5-7.1-9.1-10.5-13.8c0,0-0.7-1-0.7-1s-0.7-1-0.7-1c-3.2-4.7-6.4-9.3-9.8-13.8c-0.1-0.1-0.1-0.2-0.2-0.3
	c-0.3-0.4-0.5-0.7-0.8-1.1c-5.5-7.7-9.7-15.8-13.2-25c-6.6-18.6-9.6-37.8-7.9-56.8c0.2-1.8,0.4-3.5,0.7-5.3c0,0,0-0.3,0-0.3
	s0-0.3,0-0.3c0.7-3.8,1.8-7.3,2.7-11c-1.6-17-2.5-33.9,3-50c0.7-2,1.4-3.9,2.2-5.8c0,0,0.1-0.2,0.1-0.2c0,0,0.1-0.2,0.1-0.2
	c2-4.6,4.2-8.8,6.7-12.7c-0.2-0.6-0.3-1.3-0.4-1.9c0,0-0.3-1.3-0.3-1.3c-0.5-1.8-1.7-4.7-2.5-7c-0.6-1.5-1.2-3.1-1.9-4.8
	c-3.8-9.7-8.6-21.2-12.6-34.2c-5.8-18.7-8.8-36.9-7.9-53.8c0.7-11.1,2.5-22.1,5.8-32.8c8.9-28.6,27.5-52,56.6-64.1
	C140.9,116.8,142,116.4,143.1,116"/>
<path id="line-30" class="st0" d="M134.9,106.6c0.5,0,11.5-3.9,11.9-3.7c0.2,0.1,5.5-0.4,5.7-0.4c0.1,0,3-0.3,3.1-0.3
	c0.1,0,3.6-0.4,3.8-0.4c0,0,0.2,0,0.2,0c2.4-0.3,7.4-1,13.6-1l0,0c1,0,1.9,0,2.9,0.1c8,0.3,15.4,1.9,22,3.7c3.1,0,6.3,0,9.6,0.1
	c2.6,0.1,4.9,0.2,7,0.3c2.9,0.2,5.4,0.4,7.6,0.6c0,0,0.1,0,0.1,0c0.1,0,2.5,0.3,2.5,0.2c0.1,0,2.4,0.4,2.5,0.4
	c3.7,0.5,7.3,1.2,10.8,2.1c2.1,0.5,4.1,1.1,6.1,1.7c5.2,1.7,9.8,3.7,14.1,5.9c0.9,0,1.7,0.1,2.6,0.1c4.9,0.3,9.7,0.7,14.7,1.2
	c2.2,0.2,4.4,0.5,6.6,0.8c4.3,0.6,8.4,1.3,12.3,2.3c2.2,0.6,4.4,1.2,6.5,1.9c3,1,5.8,2,8.5,3.1c5.4,0.2,10.7,0.6,16.1,1.2
	c0.5,0.1,1,0.1,1.5,0.2c0.2,0,6.6,0.9,6.8,0.9c0,0,0.2,0.1,0.2,0.1c0,0,0,0,0.1,0c3.1,0,6.6-0.1,9.9-0.2c1.7-0.1,3.4-0.1,5.1-0.1
	c1.4-0.4,2.9-0.8,4.3-1.2c1-0.3,2-0.5,3-0.8c9-2.2,19.9-4.9,32.6-5.1c0,0,0.5,0,0.5,0c0,0,0.5,0,0.5,0h2.2c14.2,0,31.9,1,51.8,8.3
	c17,6.7,30.8,12.7,45.2,23.7c12.1,3.5,26.5,9.6,42.7,21.6c1.8,1.3,3.6,2.7,5.4,4.1c9.6,7.9,17.7,15.1,27.2,26.8
	c5.9,6.7,12.3,14,19.1,22.1c0,0,0.1,0.1,0.1,0.1s0.1,0.1,0.1,0.1c1.2,1.4,2.2,2.6,3.2,3.8c6.4,7.5,14.7,17.4,21.1,32.3
	c2.6,5.9,4.6,11.4,6.1,16.4c5.4,6.2,12,14,18.1,24.3c2.1,3.5,4.2,7,6.3,10.6c1.2,0.5,2.5,1,3.7,1.4c8.4,3.2,16.7,6.5,24.2,11.5
	c3.1,1.9,6.2,4.1,9,6.5c2.9,2.3,5.6,4.8,8.3,7.5c10.6,11.2,17.1,22.7,22.1,31.6c0.3,0.5,0.6,1,0.9,1.5c13.3,9.5,24.5,20,34.2,31.4
	c4.7,5.5,8.8,11.2,12.3,17.2c8.7,14.4,12.4,28.1,14.2,39.4c9,9.8,20.9,22.6,33.2,40.2c0,0,0.4,0.6,0.4,0.6c0,0,0.4,0.6,0.4,0.6
	c0,0,0.7,1.1,0.7,1.1c4.5,6.7,12.5,18.7,19.4,32.6c5.4,10.9,9.4,21.3,12.1,31.7c1.3,5.3,2.3,10.5,3,15.7c1.8,15.8,0.7,31.5-3.7,46.5
	c-6,20.7-17.8,38.5-35.2,50.6c-7.8,5.5-16.7,10.1-26.1,13.3c-2,0.7-4.1,1.3-6.1,1.8c-14.9,3.8-29.9,4.5-44.6,3.1
	c-5.8-0.5-11.5-1.4-17.2-2.5c-1.9-0.4-3.6-0.7-5.3-1c-3.5-0.6-6.4-0.7-9.5-0.9c0,0-0.9-0.2-0.9-0.1s-0.9-0.2-0.9-0.2
	c-11.1-1.9-21.6-5.7-31.2-10.5c-2,0.4-4.1,0.7-6.2,1c-7.8,1.1-15.9,1.4-23.9,1.1c-4.6-0.2-9.1-0.6-13.5-1.2
	c-7.1-1.2-14.1-2.4-20.9-3.9c-2.3,4.3-4.9,8.6-7.7,12.8c-1.3,1.9-2.6,3.8-4,5.7c-4.8,7-11.3,14.3-17.4,20.8
	c-2.3,4.5-4.9,9.4-7.9,14.3c0,0-0.3,0.5-0.3,0.5c0,0-0.3,0.5-0.3,0.5c-2.3,3.7-4.8,7.4-7.3,10.8c-5.7,7.7-11.5,14.9-18.1,21.3
	c-1.5,1.5-3.1,3-4.8,4.4c-7.8,6.7-16.8,12.4-26.9,16.9c-1.4,0.6-2.7,1.1-4.1,1.7c-4.2,1.6-8.5,2.8-12.7,4.3
	c-5.4,1.8-10.4,3.4-16.2,4.7c-5.7,1.2-11.8,1.8-18.1,2c-4.9,0.1-9.9,0-14.7-0.4c-0.7-0.1-1.5-0.1-2.2-0.2c-0.2,0-4.4-0.4-4.6-0.4
	c-0.1,0-4.2-0.8-4.3-0.8c-26.3-5.3-47.9-19.5-65.6-39.6c-7-8-12.4-15.9-16.6-22.6c-7.9-2.7-16.5-6.1-25.4-10.3
	c-13.1-6.1-26.2-14.3-38.4-25.5c-16.4-15-27.5-31.9-35.8-48.7c-8-5.5-17.7-13.1-27.5-24c-15.2-16.9-28.2-33.5-39.5-58.9
	c-1.8-3.6-3.9-7.7-6.1-12c-1-2-2.1-4.1-3.2-6.4c-0.9-1.8-1.9-3.7-2.9-5.7c-13.9-7.4-26.4-17.2-37.1-29.6c-3.8-4.5-7.4-9.3-10.8-14.1
	c0,0-0.7-1-0.7-1c0,0-0.7-1-0.7-1c-3.3-4.9-6.6-9.6-10-14.2c-0.1-0.1-0.1-0.2-0.2-0.3c-0.3-0.4-0.5-0.8-0.8-1.2
	c-5.6-8-9.9-16.3-13.5-25.8c-6.8-19.2-9.8-38.9-8.1-58.4c0.2-1.8,0.4-3.6,0.7-5.4c0,0,0-0.3,0-0.3c0,0,0-0.3,0.1-0.3
	c0.7-3.9,1.8-7.6,2.8-11.4c-1.8-17.5-2.5-34.8,3.1-51.4c0.7-2,1.4-4,2.2-6c0,0,0.1-0.2,0.1-0.2c0,0,0.1-0.2,0.1-0.2
	c2-4.8,4.3-9.1,6.8-13.1c-0.2-0.7-0.3-1.3-0.5-2c0,0-0.4-1.3-0.3-1.3c-0.6-1.8-1.8-4.8-2.7-7.3c-0.6-1.6-1.3-3.2-1.9-5
	c-3.9-10-8.9-21.8-13-35.1c-6-19.3-9-37.9-8-55.3c0.7-11.4,2.6-22.8,6.1-33.8c9.4-29.4,28.7-53.4,58.6-65.8
	C132.6,107.4,133.7,107,134.9,106.6"/>
</svg>
